<svg xmlns="http://www.w3.org/2000/svg" width="31.20mm" height="35.80mm" viewBox="-15.600 -17.900 31.200 35.800">
<title>PCB planar flyback winding geometry</title>
<rect x="-15.6" y="-17.900000000000002" width="31.2" height="35.800000000000004" fill="#0D1117"/>
<g id="B_Cu" fill="none" stroke="#4D7FC4" stroke-linecap="round" stroke-linejoin="round">
<path stroke-width="0.6" d="M0 -9.8 L0 -9.8 L0 -9.8 L0 -10.7 L-0.255767 -10.70625 L-0.513386 -10.7125 L-0.774128 -10.71875 L-1.039317 -10.725 L-1.31036 -10.73125 L-1.588778 -10.7375 L-1.876244 -10.74375 L-2.174621 -10.75 L-2.486021 -10.75625 L-2.812865 -10.7625 L-3.157967 -10.76875 L-3.524642 -10.775 L-3.916842 -10.78125 L-4.339339 -10.7875 L-4.797975 -10.79375 L-5.3 -10.8 L-5.30625 -10.309305 L-5.3125 -9.859856 L-5.31875 -9.444654 L-5.325 -9.058051 L-5.33125 -8.695428 L-5.3375 -8.352953 L-5.34375 -8.027406 L-5.35 -7.716043 L-5.35625 -7.416497 L-5.3625 -7.126697 L-5.36875 -6.844802 L-5.375 -6.569154 L-5.38125 -6.298233 L-5.3875 -6.030622 L-5.39375 -5.764978 L-5.4 5.5 L-5.40625 5.765592 L-5.4125 6.033085 L-5.41875 6.303796 L-5.425 6.5791 L-5.43125 6.860457 L-5.4375 7.149448 L-5.44375 7.447805 L-5.45 7.757464 L-5.45625 8.080614 L-5.4625 8.419767 L-5.46875 8.777843 L-5.475 9.158278 L-5.48125 9.565172 L-5.4875 10.003475 L-5.49375 10.479245 L-5.5 11 L-4.990574 11.00625 L-4.523992 11.0125 L-4.092984 11.01875 L-3.691687 11.025 L-3.315304 11.03125 L-2.959855 11.0375 L-2.621998 11.04375 L-2.298885 11.05 L-1.988058 11.05625 L-1.687366 11.0625 L-1.394899 11.06875 L-1.108936 11.075 L-0.8279 11.08125 L-0.550321 11.0875 L-0.274803 11.09375 L0 11.1 L0.275417 11.10625 L0.552783 11.1125 L0.833463 11.11875 L1.118882 11.125 L1.410555 11.13125 L1.710117 11.1375 L2.019366 11.14375 L2.340307 11.15 L2.675207 11.15625 L3.026669 11.1625 L3.397718 11.16875 L3.791914 11.175 L4.213502 11.18125 L4.667611 11.1875 L5.160514 11.19375 L5.7 11.2 L5.70625 10.671844 L5.7125 10.188128 L5.71875 9.741314 L5.725 9.325323 L5.73125 8.935179 L5.7375 8.566758 L5.74375 8.216591 L5.75 7.881728 L5.75625 7.559619 L5.7625 7.248035 L5.76875 6.944997 L5.775 6.648719 L5.78125 6.357567 L5.7875 6.070019 L5.79375 5.784629 L5.8 -5.5 L5.80625 -5.785243 L5.8125 -6.072481 L5.81875 -6.36313 L5.825 -6.658665 L5.83125 -6.960652 L5.8375 -7.270786 L5.84375 -7.590927 L5.85 -7.923149 L5.85625 -8.2698 L5.8625 -8.633572 L5.86875 -9.017593 L5.875 -9.425549 L5.88125 -9.861832 L5.8875 -10.331746 L5.89375 -10.841784 L5.9 -11.4 L5.353113 -11.40625 L4.852263 -11.4125 L4.389644 -11.41875 L3.958958 -11.425 L3.555054 -11.43125 L3.17366 -11.4375 L2.811184 -11.44375 L2.464571 -11.45 L2.13118 -11.45625 L1.808705 -11.4625 L1.495094 -11.46875 L1.188501 -11.475 L0.887235 -11.48125 L0.589717 -11.4875 L0.294454 -11.49375 L0 -11.5 L-0.295068 -11.50625 L-0.59218 -11.5125 L-0.892797 -11.51875 L-1.198447 -11.525 L-1.510749 -11.53125 L-1.831456 -11.5375 L-2.162488 -11.54375 L-2.505992 -11.55 L-2.864393 -11.55625 L-3.240474 -11.5625 L-3.637469 -11.56875 L-4.059185 -11.575 L-4.510162 -11.58125 L-4.995882 -11.5875 L-5.523053 -11.59375 L-6.1 -11.6 L-6.10625 -11.034382 L-6.1125 -10.516399 L-6.11875 -10.037974 L-6.125 -9.592594 L-6.13125 -9.17493 L-6.1375 -8.780562 L-6.14375 -8.405777 L-6.15 -8.047413 L-6.15625 -7.702741 L-6.1625 -7.369374 L-6.16875 -7.045191 L-6.175 -6.728284 L-6.18125 -6.416902 L-6.1875 -6.109416 L-6.19375 -5.804279 L-6.2 5.5 L-6.20625 5.804894 L-6.2125 6.111878 L-6.21875 6.422464 L-6.225 6.738229 L-6.23125 7.060847 L-6.2375 7.392125 L-6.24375 7.734049 L-6.25 8.088835 L-6.25625 8.458986 L-6.2625 8.847376 L-6.26875 9.257344 L-6.275 9.692821 L-6.28125 10.158492 L-6.2875 10.660018 L-6.29375 11.204322 L-6.3 11.8 L-5.715652 11.80625 L-5.180535 11.8125 L-4.686304 11.81875 L-4.22623 11.825 L-3.794805 11.83125 L-3.387464 11.8375 L-3.00037 11.84375 L-2.630256 11.85 L-2.274303 11.85625 L-1.930043 11.8625 L-1.595289 11.86875 L-1.268066 11.875 L-0.946569 11.88125 L-0.629114 11.8875 L-0.314105 11.89375 L0 11.9 L0.314719 11.90625 L0.631576 11.9125 L0.952132 11.91875 L1.278012 11.925 L1.610944 11.93125 L1.952794 11.9375 L2.305611 11.94375 L2.671677 11.95 L3.053579 11.95625 L3.454278 11.9625 L3.87722 11.96875 L4.326457 11.975 L4.806823 11.98125 L5.324154 11.9875 L5.885592 11.99375 L6.5 12 L6.50625 11.396921 L6.5125 10.844671 L6.51875 10.334634 L6.525 9.859866 L6.53125 9.414681 L6.5375 8.994367 L6.54375 8.594963 L6.55 8.213099 L6.55625 7.845864 L6.5625 7.490713 L6.56875 7.145386 L6.575 6.807849 L6.58125 6.476236 L6.5875 6.148812 L6.59375 5.82393 L6.6 0 L6.60625 -5.824544 L6.6125 -6.151274 L6.61875 -6.481799 L6.625 -6.817794 L6.63125 -7.161042 L6.6375 -7.513464 L6.64375 -7.877172 L6.65 -8.25452 L6.65625 -8.648172 L6.6625 -9.06118 L6.66875 -9.497095 L6.675 -9.960092 L6.68125 -10.455153 L6.6875 -10.988289 L6.69375 -11.566861 L6.7 -12.2 L6.078191 -12.20625 L5.508806 -12.2125 L4.982965 -12.21875 L4.493501 -12.225 L4.034556 -12.23125 L3.601269 -12.2375 L3.189556 -12.24375 L2.795942 -12.25 L2.417425 -12.25625 L2.051382 -12.2625 L1.695484 -12.26875 L1.347631 -12.275 L1.005903 -12.28125 L0.66851 -12.2875 L0.333756 -12.29375 L0 -12.3 L0 -13.6 L-0.195702 -13.597636 L-0.391289 -13.590543 L-0.586648 -13.578728 L-0.781664 -13.562196 L-0.976225 -13.540957 L-1.170215 -13.515023 L-1.363522 -13.48441 L-1.556033 -13.449136 L-1.747635 -13.409221 L-1.938217 -13.364688 L-2.127668 -13.315563 L-2.315876 -13.261876 L-2.502732 -13.203657 L-2.688128 -13.14094 L-2.871953 -13.073763"/>
</g>
<g id="In4_Cu" fill="none" stroke="#CC7FCC" stroke-linecap="round" stroke-linejoin="round">
<path stroke-width="0.6" d="M-1.459884 13.467355 L-1.279041 13.498378 L-1.097542 13.525298 L-0.91548 13.548099 L-0.732949 13.56677 L-0.550041 13.581303 L-0.366851 13.591688 L-0.183472 13.597922 L0 13.6 L0 12.3 L0.333756 12.29375 L0.66851 12.2875 L1.005903 12.28125 L1.347631 12.275 L1.695484 12.26875 L2.051382 12.2625 L2.417425 12.25625 L2.795942 12.25 L3.189556 12.24375 L3.601269 12.2375 L4.034556 12.23125 L4.493501 12.225 L4.982965 12.21875 L5.508806 12.2125 L6.078191 12.20625 L6.7 12.2 L6.69375 11.566861 L6.6875 10.988289 L6.68125 10.455153 L6.675 9.960092 L6.66875 9.497095 L6.6625 9.06118 L6.65625 8.648172 L6.65 8.25452 L6.64375 7.877172 L6.6375 7.513464 L6.63125 7.161042 L6.625 6.817794 L6.61875 6.481799 L6.6125 6.151274 L6.60625 5.824544 L6.6 5.5 L6.59375 -5.82393 L6.5875 -6.148812 L6.58125 -6.476236 L6.575 -6.807849 L6.56875 -7.145386 L6.5625 -7.490713 L6.55625 -7.845864 L6.55 -8.213099 L6.54375 -8.594963 L6.5375 -8.994367 L6.53125 -9.414681 L6.525 -9.859866 L6.51875 -10.334634 L6.5125 -10.844671 L6.50625 -11.396921 L6.5 -12 L5.885592 -11.99375 L5.324154 -11.9875 L4.806823 -11.98125 L4.326457 -11.975 L3.87722 -11.96875 L3.454278 -11.9625 L3.053579 -11.95625 L2.671677 -11.95 L2.305611 -11.94375 L1.952794 -11.9375 L1.610944 -11.93125 L1.278012 -11.925 L0.952132 -11.91875 L0.631576 -11.9125 L0.314719 -11.90625 L0 -11.9 L-0.314105 -11.89375 L-0.629114 -11.8875 L-0.946569 -11.88125 L-1.268066 -11.875 L-1.595289 -11.86875 L-1.930043 -11.8625 L-2.274303 -11.85625 L-2.630256 -11.85 L-3.00037 -11.84375 L-3.387464 -11.8375 L-3.794805 -11.83125 L-4.22623 -11.825 L-4.686304 -11.81875 L-5.180535 -11.8125 L-5.715652 -11.80625 L-6.3 -11.8 L-6.29375 -11.204322 L-6.2875 -10.660018 L-6.28125 -10.158492 L-6.275 -9.692821 L-6.26875 -9.257344 L-6.2625 -8.847376 L-6.25625 -8.458986 L-6.25 -8.088835 L-6.24375 -7.734049 L-6.2375 -7.392125 L-6.23125 -7.060847 L-6.225 -6.738229 L-6.21875 -6.422464 L-6.2125 -6.111878 L-6.20625 -5.804894 L-6.2 -5.5 L-6.19375 5.804279 L-6.1875 6.109416 L-6.18125 6.416902 L-6.175 6.728284 L-6.16875 7.045191 L-6.1625 7.369374 L-6.15625 7.702741 L-6.15 8.047413 L-6.14375 8.405777 L-6.1375 8.780562 L-6.13125 9.17493 L-6.125 9.592594 L-6.11875 10.037974 L-6.1125 10.516399 L-6.10625 11.034382 L-6.1 11.6 L-5.523053 11.59375 L-4.995882 11.5875 L-4.510162 11.58125 L-4.059185 11.575 L-3.637469 11.56875 L-3.240474 11.5625 L-2.864393 11.55625 L-2.505992 11.55 L-2.162488 11.54375 L-1.831456 11.5375 L-1.510749 11.53125 L-1.198447 11.525 L-0.892797 11.51875 L-0.59218 11.5125 L-0.295068 11.50625 L0 11.5 L0.294454 11.49375 L0.589717 11.4875 L0.887235 11.48125 L1.188501 11.475 L1.495094 11.46875 L1.808705 11.4625 L2.13118 11.45625 L2.464571 11.45 L2.811184 11.44375 L3.17366 11.4375 L3.555054 11.43125 L3.958958 11.425 L4.389644 11.41875 L4.852263 11.4125 L5.353113 11.40625 L5.9 11.4 L5.89375 10.841784 L5.8875 10.331746 L5.88125 9.861832 L5.875 9.425549 L5.86875 9.017593 L5.8625 8.633572 L5.85625 8.2698 L5.85 7.923149 L5.84375 7.590927 L5.8375 7.270786 L5.83125 6.960652 L5.825 6.658665 L5.81875 6.36313 L5.8125 6.072481 L5.80625 5.785243 L5.8 5.5 L5.79375 -5.784629 L5.7875 -6.070019 L5.78125 -6.357567 L5.775 -6.648719 L5.76875 -6.944997 L5.7625 -7.248035 L5.75625 -7.559619 L5.75 -7.881728 L5.74375 -8.216591 L5.7375 -8.566758 L5.73125 -8.935179 L5.725 -9.325323 L5.71875 -9.741314 L5.7125 -10.188128 L5.70625 -10.671844 L5.7 -11.2 L5.160514 -11.19375 L4.667611 -11.1875 L4.213502 -11.18125 L3.791914 -11.175 L3.397718 -11.16875 L3.026669 -11.1625 L2.675207 -11.15625 L2.340307 -11.15 L2.019366 -11.14375 L1.710117 -11.1375 L1.410555 -11.13125 L1.118882 -11.125 L0.833463 -11.11875 L0.552783 -11.1125 L0.275417 -11.10625 L0 -11.1 L-0.274803 -11.09375 L-0.550321 -11.0875 L-0.8279 -11.08125 L-1.108936 -11.075 L-1.394899 -11.06875 L-1.687366 -11.0625 L-1.988058 -11.05625 L-2.298885 -11.05 L-2.621998 -11.04375 L-2.959855 -11.0375 L-3.315304 -11.03125 L-3.691687 -11.025 L-4.092984 -11.01875 L-4.523992 -11.0125 L-4.990574 -11.00625 L-5.5 -11 L-5.49375 -10.479245 L-5.4875 -10.003475 L-5.48125 -9.565172 L-5.475 -9.158278 L-5.46875 -8.777843 L-5.4625 -8.419767 L-5.45625 -8.080614 L-5.45 -7.757464 L-5.44375 -7.447805 L-5.4375 -7.149448 L-5.43125 -6.860457 L-5.425 -6.5791 L-5.41875 -6.303796 L-5.4125 -6.033085 L-5.40625 -5.765592 L-5.4 -5.5 L-5.39375 5.764978 L-5.3875 6.030622 L-5.38125 6.298233 L-5.375 6.569154 L-5.36875 6.844802 L-5.3625 7.126697 L-5.35625 7.416497 L-5.35 7.716043 L-5.34375 8.027406 L-5.3375 8.352953 L-5.33125 8.695428 L-5.325 9.058051 L-5.31875 9.444654 L-5.3125 9.859856 L-5.30625 10.309305 L-5.3 10.8 L-4.797975 10.79375 L-4.339339 10.7875 L-3.916842 10.78125 L-3.524642 10.775 L-3.157967 10.76875 L-2.812865 10.7625 L-2.486021 10.75625 L-2.174621 10.75 L-1.876244 10.74375 L-1.588778 10.7375 L-1.31036 10.73125 L-1.039317 10.725 L-0.774128 10.71875 L-0.513386 10.7125 L-0.255767 10.70625 L0 10.7 L0 9.8 L0.097399 9.798897 L0.194748 9.795588 L0.291997 9.790074 L0.389096 9.78236 L0.485996 9.772448 L0.582646 9.760343 L0.678997 9.746053 L0.775 9.729583"/>
</g>
<g id="In1_Cu" fill="none" stroke="#7FC64D" stroke-linecap="round" stroke-linejoin="round">
<path stroke-width="0.6" d="M-1.459884 13.467355 L-1.279041 13.498378 L-1.097542 13.525298 L-0.91548 13.548099 L-0.732949 13.56677 L-0.550041 13.581303 L-0.366851 13.591688 L-0.183472 13.597922 L0 13.6 L0 12.3 L0.333756 12.29375 L0.66851 12.2875 L1.005903 12.28125 L1.347631 12.275 L1.695484 12.26875 L2.051382 12.2625 L2.417425 12.25625 L2.795942 12.25 L3.189556 12.24375 L3.601269 12.2375 L4.034556 12.23125 L4.493501 12.225 L4.982965 12.21875 L5.508806 12.2125 L6.078191 12.20625 L6.7 12.2 L6.69375 11.566861 L6.6875 10.988289 L6.68125 10.455153 L6.675 9.960092 L6.66875 9.497095 L6.6625 9.06118 L6.65625 8.648172 L6.65 8.25452 L6.64375 7.877172 L6.6375 7.513464 L6.63125 7.161042 L6.625 6.817794 L6.61875 6.481799 L6.6125 6.151274 L6.60625 5.824544 L6.6 5.5 L6.59375 -5.82393 L6.5875 -6.148812 L6.58125 -6.476236 L6.575 -6.807849 L6.56875 -7.145386 L6.5625 -7.490713 L6.55625 -7.845864 L6.55 -8.213099 L6.54375 -8.594963 L6.5375 -8.994367 L6.53125 -9.414681 L6.525 -9.859866 L6.51875 -10.334634 L6.5125 -10.844671 L6.50625 -11.396921 L6.5 -12 L5.885592 -11.99375 L5.324154 -11.9875 L4.806823 -11.98125 L4.326457 -11.975 L3.87722 -11.96875 L3.454278 -11.9625 L3.053579 -11.95625 L2.671677 -11.95 L2.305611 -11.94375 L1.952794 -11.9375 L1.610944 -11.93125 L1.278012 -11.925 L0.952132 -11.91875 L0.631576 -11.9125 L0.314719 -11.90625 L0 -11.9 L-0.314105 -11.89375 L-0.629114 -11.8875 L-0.946569 -11.88125 L-1.268066 -11.875 L-1.595289 -11.86875 L-1.930043 -11.8625 L-2.274303 -11.85625 L-2.630256 -11.85 L-3.00037 -11.84375 L-3.387464 -11.8375 L-3.794805 -11.83125 L-4.22623 -11.825 L-4.686304 -11.81875 L-5.180535 -11.8125 L-5.715652 -11.80625 L-6.3 -11.8 L-6.29375 -11.204322 L-6.2875 -10.660018 L-6.28125 -10.158492 L-6.275 -9.692821 L-6.26875 -9.257344 L-6.2625 -8.847376 L-6.25625 -8.458986 L-6.25 -8.088835 L-6.24375 -7.734049 L-6.2375 -7.392125 L-6.23125 -7.060847 L-6.225 -6.738229 L-6.21875 -6.422464 L-6.2125 -6.111878 L-6.20625 -5.804894 L-6.2 -5.5 L-6.19375 5.804279 L-6.1875 6.109416 L-6.18125 6.416902 L-6.175 6.728284 L-6.16875 7.045191 L-6.1625 7.369374 L-6.15625 7.702741 L-6.15 8.047413 L-6.14375 8.405777 L-6.1375 8.780562 L-6.13125 9.17493 L-6.125 9.592594 L-6.11875 10.037974 L-6.1125 10.516399 L-6.10625 11.034382 L-6.1 11.6 L-5.523053 11.59375 L-4.995882 11.5875 L-4.510162 11.58125 L-4.059185 11.575 L-3.637469 11.56875 L-3.240474 11.5625 L-2.864393 11.55625 L-2.505992 11.55 L-2.162488 11.54375 L-1.831456 11.5375 L-1.510749 11.53125 L-1.198447 11.525 L-0.892797 11.51875 L-0.59218 11.5125 L-0.295068 11.50625 L0 11.5 L0.294454 11.49375 L0.589717 11.4875 L0.887235 11.48125 L1.188501 11.475 L1.495094 11.46875 L1.808705 11.4625 L2.13118 11.45625 L2.464571 11.45 L2.811184 11.44375 L3.17366 11.4375 L3.555054 11.43125 L3.958958 11.425 L4.389644 11.41875 L4.852263 11.4125 L5.353113 11.40625 L5.9 11.4 L5.89375 10.841784 L5.8875 10.331746 L5.88125 9.861832 L5.875 9.425549 L5.86875 9.017593 L5.8625 8.633572 L5.85625 8.2698 L5.85 7.923149 L5.84375 7.590927 L5.8375 7.270786 L5.83125 6.960652 L5.825 6.658665 L5.81875 6.36313 L5.8125 6.072481 L5.80625 5.785243 L5.8 5.5 L5.79375 -5.784629 L5.7875 -6.070019 L5.78125 -6.357567 L5.775 -6.648719 L5.76875 -6.944997 L5.7625 -7.248035 L5.75625 -7.559619 L5.75 -7.881728 L5.74375 -8.216591 L5.7375 -8.566758 L5.73125 -8.935179 L5.725 -9.325323 L5.71875 -9.741314 L5.7125 -10.188128 L5.70625 -10.671844 L5.7 -11.2 L5.160514 -11.19375 L4.667611 -11.1875 L4.213502 -11.18125 L3.791914 -11.175 L3.397718 -11.16875 L3.026669 -11.1625 L2.675207 -11.15625 L2.340307 -11.15 L2.019366 -11.14375 L1.710117 -11.1375 L1.410555 -11.13125 L1.118882 -11.125 L0.833463 -11.11875 L0.552783 -11.1125 L0.275417 -11.10625 L0 -11.1 L-0.274803 -11.09375 L-0.550321 -11.0875 L-0.8279 -11.08125 L-1.108936 -11.075 L-1.394899 -11.06875 L-1.687366 -11.0625 L-1.988058 -11.05625 L-2.298885 -11.05 L-2.621998 -11.04375 L-2.959855 -11.0375 L-3.315304 -11.03125 L-3.691687 -11.025 L-4.092984 -11.01875 L-4.523992 -11.0125 L-4.990574 -11.00625 L-5.5 -11 L-5.49375 -10.479245 L-5.4875 -10.003475 L-5.48125 -9.565172 L-5.475 -9.158278 L-5.46875 -8.777843 L-5.4625 -8.419767 L-5.45625 -8.080614 L-5.45 -7.757464 L-5.44375 -7.447805 L-5.4375 -7.149448 L-5.43125 -6.860457 L-5.425 -6.5791 L-5.41875 -6.303796 L-5.4125 -6.033085 L-5.40625 -5.765592 L-5.4 -5.5 L-5.39375 5.764978 L-5.3875 6.030622 L-5.38125 6.298233 L-5.375 6.569154 L-5.36875 6.844802 L-5.3625 7.126697 L-5.35625 7.416497 L-5.35 7.716043 L-5.34375 8.027406 L-5.3375 8.352953 L-5.33125 8.695428 L-5.325 9.058051 L-5.31875 9.444654 L-5.3125 9.859856 L-5.30625 10.309305 L-5.3 10.8 L-4.797975 10.79375 L-4.339339 10.7875 L-3.916842 10.78125 L-3.524642 10.775 L-3.157967 10.76875 L-2.812865 10.7625 L-2.486021 10.75625 L-2.174621 10.75 L-1.876244 10.74375 L-1.588778 10.7375 L-1.31036 10.73125 L-1.039317 10.725 L-0.774128 10.71875 L-0.513386 10.7125 L-0.255767 10.70625 L0 10.7 L0 9.8 L0.097399 9.798897 L0.194748 9.795588 L0.291997 9.790074 L0.389096 9.78236 L0.485996 9.772448 L0.582646 9.760343 L0.678997 9.746053 L0.775 9.729583"/>
</g>
<g id="F_Cu" fill="none" stroke="#C83434" stroke-linecap="round" stroke-linejoin="round">
<path stroke-width="0.6" d="M2.871953 -13.073763 L2.688128 -13.14094 L2.502732 -13.203657 L2.315876 -13.261876 L2.127668 -13.315563 L1.938217 -13.364688 L1.747635 -13.409221 L1.556033 -13.449136 L1.363522 -13.48441 L1.170215 -13.515023 L0.976225 -13.540957 L0.781664 -13.562196 L0.586648 -13.578728 L0.391289 -13.590543 L0.195702 -13.597636 L0 -13.6 L0 -12.3 L-0.333756 -12.29375 L-0.66851 -12.2875 L-1.005903 -12.28125 L-1.347631 -12.275 L-1.695484 -12.26875 L-2.051382 -12.2625 L-2.417425 -12.25625 L-2.795942 -12.25 L-3.189556 -12.24375 L-3.601269 -12.2375 L-4.034556 -12.23125 L-4.493501 -12.225 L-4.982965 -12.21875 L-5.508806 -12.2125 L-6.078191 -12.20625 L-6.7 -12.2 L-6.69375 -11.566861 L-6.6875 -10.988289 L-6.68125 -10.455153 L-6.675 -9.960092 L-6.66875 -9.497095 L-6.6625 -9.06118 L-6.65625 -8.648172 L-6.65 -8.25452 L-6.64375 -7.877172 L-6.6375 -7.513464 L-6.63125 -7.161042 L-6.625 -6.817794 L-6.61875 -6.481799 L-6.6125 -6.151274 L-6.60625 -5.824544 L-6.6 -5.5 L-6.59375 5.82393 L-6.5875 6.148812 L-6.58125 6.476236 L-6.575 6.807849 L-6.56875 7.145386 L-6.5625 7.490713 L-6.55625 7.845864 L-6.55 8.213099 L-6.54375 8.594963 L-6.5375 8.994367 L-6.53125 9.414681 L-6.525 9.859866 L-6.51875 10.334634 L-6.5125 10.844671 L-6.50625 11.396921 L-6.5 12 L-5.885592 11.99375 L-5.324154 11.9875 L-4.806823 11.98125 L-4.326457 11.975 L-3.87722 11.96875 L-3.454278 11.9625 L-3.053579 11.95625 L-2.671677 11.95 L-2.305611 11.94375 L-1.952794 11.9375 L-1.610944 11.93125 L-1.278012 11.925 L-0.952132 11.91875 L-0.631576 11.9125 L-0.314719 11.90625 L0 11.9 L0.314105 11.89375 L0.629114 11.8875 L0.946569 11.88125 L1.268066 11.875 L1.595289 11.86875 L1.930043 11.8625 L2.274303 11.85625 L2.630256 11.85 L3.00037 11.84375 L3.387464 11.8375 L3.794805 11.83125 L4.22623 11.825 L4.686304 11.81875 L5.180535 11.8125 L5.715652 11.80625 L6.3 11.8 L6.29375 11.204322 L6.2875 10.660018 L6.28125 10.158492 L6.275 9.692821 L6.26875 9.257344 L6.2625 8.847376 L6.25625 8.458986 L6.25 8.088835 L6.24375 7.734049 L6.2375 7.392125 L6.23125 7.060847 L6.225 6.738229 L6.21875 6.422464 L6.2125 6.111878 L6.20625 5.804894 L6.2 5.5 L6.19375 -5.804279 L6.1875 -6.109416 L6.18125 -6.416902 L6.175 -6.728284 L6.16875 -7.045191 L6.1625 -7.369374 L6.15625 -7.702741 L6.15 -8.047413 L6.14375 -8.405777 L6.1375 -8.780562 L6.13125 -9.17493 L6.125 -9.592594 L6.11875 -10.037974 L6.1125 -10.516399 L6.10625 -11.034382 L6.1 -11.6 L5.523053 -11.59375 L4.995882 -11.5875 L4.510162 -11.58125 L4.059185 -11.575 L3.637469 -11.56875 L3.240474 -11.5625 L2.864393 -11.55625 L2.505992 -11.55 L2.162488 -11.54375 L1.831456 -11.5375 L1.510749 -11.53125 L1.198447 -11.525 L0.892797 -11.51875 L0.59218 -11.5125 L0.295068 -11.50625 L0 -11.5 L-0.294454 -11.49375 L-0.589717 -11.4875 L-0.887235 -11.48125 L-1.188501 -11.475 L-1.495094 -11.46875 L-1.808705 -11.4625 L-2.13118 -11.45625 L-2.464571 -11.45 L-2.811184 -11.44375 L-3.17366 -11.4375 L-3.555054 -11.43125 L-3.958958 -11.425 L-4.389644 -11.41875 L-4.852263 -11.4125 L-5.353113 -11.40625 L-5.9 -11.4 L-5.89375 -10.841784 L-5.8875 -10.331746 L-5.88125 -9.861832 L-5.875 -9.425549 L-5.86875 -9.017593 L-5.8625 -8.633572 L-5.85625 -8.2698 L-5.85 -7.923149 L-5.84375 -7.590927 L-5.8375 -7.270786 L-5.83125 -6.960652 L-5.825 -6.658665 L-5.81875 -6.36313 L-5.8125 -6.072481 L-5.80625 -5.785243 L-5.8 -5.5 L-5.79375 5.784629 L-5.7875 6.070019 L-5.78125 6.357567 L-5.775 6.648719 L-5.76875 6.944997 L-5.7625 7.248035 L-5.75625 7.559619 L-5.75 7.881728 L-5.74375 8.216591 L-5.7375 8.566758 L-5.73125 8.935179 L-5.725 9.325323 L-5.71875 9.741314 L-5.7125 10.188128 L-5.70625 10.671844 L-5.7 11.2 L-5.160514 11.19375 L-4.667611 11.1875 L-4.213502 11.18125 L-3.791914 11.175 L-3.397718 11.16875 L-3.026669 11.1625 L-2.675207 11.15625 L-2.340307 11.15 L-2.019366 11.14375 L-1.710117 11.1375 L-1.410555 11.13125 L-1.118882 11.125 L-0.833463 11.11875 L-0.552783 11.1125 L-0.275417 11.10625 L0 11.1 L0.274803 11.09375 L0.550321 11.0875 L0.8279 11.08125 L1.108936 11.075 L1.394899 11.06875 L1.687366 11.0625 L1.988058 11.05625 L2.298885 11.05 L2.621998 11.04375 L2.959855 11.0375 L3.315304 11.03125 L3.691687 11.025 L4.092984 11.01875 L4.523992 11.0125 L4.990574 11.00625 L5.5 11 L5.49375 10.479245 L5.4875 10.003475 L5.48125 9.565172 L5.475 9.158278 L5.46875 8.777843 L5.4625 8.419767 L5.45625 8.080614 L5.45 7.757464 L5.44375 7.447805 L5.4375 7.149448 L5.43125 6.860457 L5.425 6.5791 L5.41875 6.303796 L5.4125 6.033085 L5.40625 5.765592 L5.4 5.5 L5.39375 -5.764978 L5.3875 -6.030622 L5.38125 -6.298233 L5.375 -6.569154 L5.36875 -6.844802 L5.3625 -7.126697 L5.35625 -7.416497 L5.35 -7.716043 L5.34375 -8.027406 L5.3375 -8.352953 L5.33125 -8.695428 L5.325 -9.058051 L5.31875 -9.444654 L5.3125 -9.859856 L5.30625 -10.309305 L5.3 -10.8 L4.797975 -10.79375 L4.339339 -10.7875 L3.916842 -10.78125 L3.524642 -10.775 L3.157967 -10.76875 L2.812865 -10.7625 L2.486021 -10.75625 L2.174621 -10.75 L1.876244 -10.74375 L1.588778 -10.7375 L1.31036 -10.73125 L1.039317 -10.725 L0.774128 -10.71875 L0.513386 -10.7125 L0.255767 -10.70625 L0 -10.7 L0 -9.8 L0 -9.8 L0 -9.8"/>
</g>
<g id="vias" fill="#D8D2C4">
<circle cx="0" cy="-9.8" r="0.3"/>
</g>
<g id="pads" fill="#E8B23A">
<circle cx="2.871953" cy="-13.073763" r="0.3"/>
<circle cx="-2.871953" cy="-13.073763" r="0.3"/>
<circle cx="-1.459884" cy="13.467355" r="0.3"/>
<circle cx="0.775" cy="9.729583" r="0.3"/>
</g>
<g id="outline" fill="none" stroke="#F0C674" stroke-width="0.15">
<path d="M-13.6 15.9 L13.6 15.9 L13.6 -15.9 L-13.6 -15.9 L-13.6 15.9"/>
<path d="M-3.05 8.55 L3.05 8.55 L3.05 -8.55 L-3.05 -8.55 L-3.05 8.55"/>
<path d="M-13.1 8.55 L-7.7 8.55 L-7.7 -8.55 L-13.1 -8.55 L-13.1 8.55"/>
<path d="M7.7 8.55 L13.1 8.55 L13.1 -8.55 L7.7 -8.55 L7.7 8.55"/>
</g>
<g id="labels" fill="#E6EDF3" font-family="monospace" text-anchor="middle" dominant-baseline="middle">
<text x="2.871953" y="-14.173763" font-size="1">P+ (dot)</text>
<text x="-2.871953" y="-14.173763" font-size="1">P−</text>
<text x="-1.459884" y="12.367355" font-size="1">S+ (dot)</text>
<text x="0.775" y="8.629583" font-size="1">S−</text>
<text x="0" y="0" font-size="1">Core post opening</text>
</g>
</svg>