%TF.GenerationSoftware,KiCad,Pcbnew,10.0.6*%
%TF.CreationDate,2026-10-08T10:25:58-04:00*%
%TF.ProjectId,PS-FLYBACK-5W,50532d46-4c59-4424-9143-4b2d35572e6b,A2-development*%
%TF.SameCoordinates,Original*%
%TF.FileFunction,Copper,L1,Top*%
%TF.FilePolarity,Positive*%
%FSLAX46Y46*%
G04 Gerber Fmt 4.6, Leading zero omitted, Abs format (unit mm)*
G04 Created by KiCad (PCBNEW 10.0.6) date 2026-10-08 10:25:58*
%MOMM*%
%LPD*%
G01*
G04 APERTURE LIST*
G04 Aperture macros list*
%AMRoundRect*
0 Rectangle with rounded corners*
0 $1 Rounding radius*
0 $2 $3 $4 $5 $6 $7 $8 $9 X,Y pos of 4 corners*
0 Add a 4 corners polygon primitive as box body*
4,1,4,$2,$3,$4,$5,$6,$7,$8,$9,$2,$3,0*
0 Add four circle primitives for the rounded corners*
1,1,$1+$1,$2,$3*
1,1,$1+$1,$4,$5*
1,1,$1+$1,$6,$7*
1,1,$1+$1,$8,$9*
0 Add four rect primitives between the rounded corners*
20,1,$1+$1,$2,$3,$4,$5,0*
20,1,$1+$1,$4,$5,$6,$7,0*
20,1,$1+$1,$6,$7,$8,$9,0*
20,1,$1+$1,$8,$9,$2,$3,0*%
G04 Aperture macros list end*
%TA.AperFunction,EtchedComponent*%
%ADD10C,0.000000*%
%TD*%
%TA.AperFunction,SMDPad,CuDef*%
%ADD11RoundRect,0.250000X-0.650000X1.000000X-0.650000X-1.000000X0.650000X-1.000000X0.650000X1.000000X0*%
%TD*%
%TA.AperFunction,SMDPad,CuDef*%
%ADD12RoundRect,0.250000X0.500000X-0.950000X0.500000X0.950000X-0.500000X0.950000X-0.500000X-0.950000X0*%
%TD*%
%TA.AperFunction,SMDPad,CuDef*%
%ADD13RoundRect,0.250000X0.500000X-0.275000X0.500000X0.275000X-0.500000X0.275000X-0.500000X-0.275000X0*%
%TD*%
%TA.AperFunction,ComponentPad*%
%ADD14R,2.400000X2.400000*%
%TD*%
%TA.AperFunction,ComponentPad*%
%ADD15C,2.400000*%
%TD*%
%TA.AperFunction,SMDPad,CuDef*%
%ADD16R,1.143000X0.760000*%
%TD*%
%TA.AperFunction,SMDPad,CuDef*%
%ADD17R,2.260000X2.990000*%
%TD*%
%TA.AperFunction,SMDPad,CuDef*%
%ADD18RoundRect,0.250000X0.312500X0.625000X-0.312500X0.625000X-0.312500X-0.625000X0.312500X-0.625000X0*%
%TD*%
%TA.AperFunction,SMDPad,CuDef*%
%ADD19RoundRect,0.250000X-0.325000X-1.100000X0.325000X-1.100000X0.325000X1.100000X-0.325000X1.100000X0*%
%TD*%
%TA.AperFunction,SMDPad,CuDef*%
%ADD20R,3.360000X4.860000*%
%TD*%
%TA.AperFunction,SMDPad,CuDef*%
%ADD21R,1.390000X1.400000*%
%TD*%
%TA.AperFunction,SMDPad,CuDef*%
%ADD22R,1.250000X1.650000*%
%TD*%
%TA.AperFunction,ComponentPad*%
%ADD23C,0.600000*%
%TD*%
%TA.AperFunction,SMDPad,CuDef*%
%ADD24RoundRect,0.225000X0.225000X0.250000X-0.225000X0.250000X-0.225000X-0.250000X0.225000X-0.250000X0*%
%TD*%
%TA.AperFunction,SMDPad,CuDef*%
%ADD25RoundRect,0.200000X-0.200000X-0.275000X0.200000X-0.275000X0.200000X0.275000X-0.200000X0.275000X0*%
%TD*%
%TA.AperFunction,SMDPad,CuDef*%
%ADD26R,3.500000X1.600000*%
%TD*%
%TA.AperFunction,SMDPad,CuDef*%
%ADD27RoundRect,0.250000X1.100000X-0.325000X1.100000X0.325000X-1.100000X0.325000X-1.100000X-0.325000X0*%
%TD*%
%TA.AperFunction,SMDPad,CuDef*%
%ADD28RoundRect,0.250000X-0.625000X0.312500X-0.625000X-0.312500X0.625000X-0.312500X0.625000X0.312500X0*%
%TD*%
%TA.AperFunction,SMDPad,CuDef*%
%ADD29RoundRect,0.250000X-0.500000X0.950000X-0.500000X-0.950000X0.500000X-0.950000X0.500000X0.950000X0*%
%TD*%
%TA.AperFunction,SMDPad,CuDef*%
%ADD30RoundRect,0.250000X-0.500000X0.275000X-0.500000X-0.275000X0.500000X-0.275000X0.500000X0.275000X0*%
%TD*%
%TA.AperFunction,SMDPad,CuDef*%
%ADD31RoundRect,0.250000X0.325000X1.100000X-0.325000X1.100000X-0.325000X-1.100000X0.325000X-1.100000X0*%
%TD*%
%TA.AperFunction,SMDPad,CuDef*%
%ADD32RoundRect,0.200000X0.275000X-0.200000X0.275000X0.200000X-0.275000X0.200000X-0.275000X-0.200000X0*%
%TD*%
%TA.AperFunction,SMDPad,CuDef*%
%ADD33RoundRect,0.250000X0.250000X0.475000X-0.250000X0.475000X-0.250000X-0.475000X0.250000X-0.475000X0*%
%TD*%
%TA.AperFunction,SMDPad,CuDef*%
%ADD34RoundRect,0.200000X0.200000X0.275000X-0.200000X0.275000X-0.200000X-0.275000X0.200000X-0.275000X0*%
%TD*%
%TA.AperFunction,SMDPad,CuDef*%
%ADD35RoundRect,0.250000X-1.950000X-1.000000X1.950000X-1.000000X1.950000X1.000000X-1.950000X1.000000X0*%
%TD*%
%TA.AperFunction,SMDPad,CuDef*%
%ADD36R,2.450000X3.700000*%
%TD*%
%TA.AperFunction,ViaPad*%
%ADD37C,0.600000*%
%TD*%
%TA.AperFunction,ViaPad*%
%ADD38C,0.900000*%
%TD*%
%TA.AperFunction,ViaPad*%
%ADD39C,1.200000*%
%TD*%
%TA.AperFunction,ViaPad*%
%ADD40C,0.800000*%
%TD*%
%TA.AperFunction,Conductor*%
%ADD41C,1.500000*%
%TD*%
%TA.AperFunction,Conductor*%
%ADD42C,1.000000*%
%TD*%
%TA.AperFunction,Conductor*%
%ADD43C,2.000000*%
%TD*%
%TA.AperFunction,Conductor*%
%ADD44C,0.600000*%
%TD*%
%TA.AperFunction,Conductor*%
%ADD45C,1.300000*%
%TD*%
%TA.AperFunction,Conductor*%
%ADD46C,0.400000*%
%TD*%
%TA.AperFunction,Conductor*%
%ADD47C,0.250000*%
%TD*%
%TA.AperFunction,Conductor*%
%ADD48C,1.100000*%
%TD*%
%TA.AperFunction,Conductor*%
%ADD49C,0.350000*%
%TD*%
%TA.AperFunction,Conductor*%
%ADD50C,1.200000*%
%TD*%
%TA.AperFunction,Conductor*%
%ADD51C,0.800000*%
%TD*%
%TA.AperFunction,Conductor*%
%ADD52C,0.900000*%
%TD*%
G04 APERTURE END LIST*
D10*
%TA.AperFunction,EtchedComponent*%
%TO.C,T1*%
G36*
X25199326Y65897613D02*
G01*
X25202943Y65897427D01*
X25206572Y65897438D01*
X25402160Y65890346D01*
X25405772Y65890072D01*
X25409401Y65889996D01*
X25604760Y65878180D01*
X25608367Y65877819D01*
X25611989Y65877655D01*
X25807004Y65861123D01*
X25810608Y65860674D01*
X25814220Y65860423D01*
X26008780Y65839184D01*
X26012356Y65838650D01*
X26015975Y65838311D01*
X26209965Y65812378D01*
X26213547Y65811754D01*
X26217139Y65811330D01*
X26410446Y65780717D01*
X26413995Y65780011D01*
X26417592Y65779497D01*
X26610103Y65744222D01*
X26613636Y65743429D01*
X26617215Y65742830D01*
X26808817Y65702915D01*
X26812328Y65702038D01*
X26815897Y65701351D01*
X27006479Y65656818D01*
X27009984Y65655852D01*
X27013516Y65655083D01*
X27202966Y65605959D01*
X27206433Y65604912D01*
X27209961Y65604055D01*
X27398171Y65550367D01*
X27401614Y65549236D01*
X27405116Y65548295D01*
X27591973Y65490076D01*
X27595402Y65488857D01*
X27598865Y65487836D01*
X27784261Y65425120D01*
X27787646Y65423824D01*
X27791100Y65422714D01*
X27974925Y65355536D01*
X27996716Y65346588D01*
X28037859Y65323712D01*
X28074917Y65294682D01*
X28106978Y65260211D01*
X28133251Y65221150D01*
X28153091Y65178458D01*
X28166008Y65133191D01*
X28171684Y65086458D01*
X28169980Y65039414D01*
X28160937Y64993215D01*
X28144779Y64948999D01*
X28121903Y64907856D01*
X28092872Y64870798D01*
X28058401Y64838737D01*
X28019340Y64812464D01*
X27976649Y64792624D01*
X27931381Y64779707D01*
X27884649Y64774031D01*
X27837605Y64775735D01*
X27791406Y64784778D01*
X27768980Y64791988D01*
X27588546Y64857926D01*
X27410055Y64918306D01*
X27230078Y64974382D01*
X27048847Y65026079D01*
X26866455Y65073373D01*
X26682895Y65116265D01*
X26498389Y65154702D01*
X26313000Y65188672D01*
X26126892Y65218145D01*
X25940044Y65243123D01*
X25752730Y65263571D01*
X25564919Y65279492D01*
X25376784Y65290871D01*
X25300000Y65293655D01*
X25300000Y64300000D01*
X25299409Y64284974D01*
X25299464Y64282066D01*
X25299228Y64280377D01*
X25299075Y64276462D01*
X25295837Y64256022D01*
X25292972Y64235440D01*
X25292150Y64232740D01*
X25291711Y64229966D01*
X25285310Y64210268D01*
X25279265Y64190404D01*
X25278033Y64187870D01*
X25277164Y64185195D01*
X25267750Y64166720D01*
X25258682Y64148067D01*
X25257070Y64145759D01*
X25255792Y64143250D01*
X25243603Y64126474D01*
X25231730Y64109471D01*
X25229775Y64107442D01*
X25228122Y64105166D01*
X25213460Y64090504D01*
X25199071Y64075566D01*
X25196825Y64073869D01*
X25194834Y64071878D01*
X25178054Y64059686D01*
X25161512Y64047188D01*
X25159028Y64045863D01*
X25156750Y64044208D01*
X25138280Y64034797D01*
X25119975Y64025034D01*
X25117311Y64024112D01*
X25114805Y64022836D01*
X25095105Y64016435D01*
X25075484Y64009651D01*
X25072708Y64009157D01*
X25070034Y64008289D01*
X25049567Y64005047D01*
X25029134Y64001418D01*
X25025214Y64001190D01*
X25023538Y64000925D01*
X25020640Y64000925D01*
X25005617Y64000053D01*
X24671862Y63993803D01*
X24671845Y63993802D01*
X24337090Y63987552D01*
X24337071Y63987552D01*
X24337046Y63987551D01*
X23999653Y63981301D01*
X23999615Y63981301D01*
X23999583Y63981300D01*
X23657855Y63975050D01*
X23657810Y63975050D01*
X23657758Y63975048D01*
X23309906Y63968798D01*
X23309844Y63968799D01*
X23309785Y63968796D01*
X22953887Y63962546D01*
X22953807Y63962547D01*
X22953740Y63962544D01*
X22587698Y63956294D01*
X22587616Y63956295D01*
X22587529Y63956291D01*
X22209012Y63950041D01*
X22208916Y63950043D01*
X22208822Y63950038D01*
X21815207Y63943788D01*
X21815099Y63943790D01*
X21814997Y63943785D01*
X21403286Y63937535D01*
X21403181Y63937537D01*
X21403059Y63937531D01*
X20969772Y63931281D01*
X20969647Y63931284D01*
X20969531Y63931278D01*
X20510584Y63925028D01*
X20510466Y63925031D01*
X20510330Y63925024D01*
X20020866Y63918774D01*
X20020731Y63918777D01*
X20020601Y63918771D01*
X19494759Y63912521D01*
X19494622Y63912524D01*
X19494487Y63912518D01*
X18925103Y63906268D01*
X18924965Y63906271D01*
X18924825Y63906265D01*
X18602947Y63903029D01*
X18606232Y63570102D01*
X18612480Y62991806D01*
X18618727Y62458943D01*
X18618727Y62458939D01*
X18624973Y61964148D01*
X18624973Y61964141D01*
X18631223Y61501144D01*
X18637466Y61065729D01*
X18637466Y61065719D01*
X18643716Y60652711D01*
X18649960Y60259492D01*
X18649960Y60259487D01*
X18656206Y59882327D01*
X18656206Y59882325D01*
X18662453Y59518782D01*
X18668700Y59166503D01*
X18674948Y58823377D01*
X18674948Y58823374D01*
X18681197Y58487469D01*
X18687445Y58157018D01*
X18687445Y58157012D01*
X18693694Y57830320D01*
X18699944Y57505776D01*
X18699889Y57502976D01*
X18700000Y57500166D01*
X18706249Y46179011D01*
X18712445Y45856959D01*
X18712445Y45856938D01*
X18712446Y45856913D01*
X18718695Y45529488D01*
X18718695Y45529461D01*
X18718697Y45529417D01*
X18724947Y45197805D01*
X18724947Y45197758D01*
X18724949Y45197706D01*
X18731199Y44860168D01*
X18731198Y44860102D01*
X18731201Y44860043D01*
X18737451Y44514716D01*
X18737450Y44514646D01*
X18737454Y44514567D01*
X18743705Y44159416D01*
X18743704Y44159329D01*
X18743708Y44159241D01*
X18749957Y43792006D01*
X18749955Y43791906D01*
X18749960Y43791811D01*
X18756210Y43409947D01*
X18756208Y43409834D01*
X18756213Y43409731D01*
X18762463Y43010328D01*
X18762461Y43010217D01*
X18762467Y43010094D01*
X18768717Y42589781D01*
X18768714Y42589649D01*
X18768720Y42589532D01*
X18774971Y42144347D01*
X18774968Y42144221D01*
X18774975Y42144084D01*
X18781225Y41669315D01*
X18781222Y41669173D01*
X18781228Y41669042D01*
X18787478Y41159006D01*
X18787475Y41158874D01*
X18787482Y41158724D01*
X18793731Y40606474D01*
X18793727Y40606330D01*
X18793734Y40606188D01*
X18796876Y40303035D01*
X19111144Y40306232D01*
X19672219Y40312478D01*
X19672223Y40312478D01*
X20189266Y40318725D01*
X20189275Y40318725D01*
X20669641Y40324975D01*
X20669648Y40324975D01*
X21118607Y40331221D01*
X21118612Y40331221D01*
X21541028Y40337464D01*
X21541043Y40337464D01*
X21941744Y40343714D01*
X21941750Y40343714D01*
X22323414Y40349960D01*
X22323424Y40349960D01*
X22689070Y40356203D01*
X22689076Y40356203D01*
X23041722Y40362450D01*
X23383572Y40368700D01*
X23383579Y40368700D01*
X23716229Y40374945D01*
X23716236Y40374945D01*
X24042116Y40381195D01*
X24042120Y40381195D01*
X24362500Y40387442D01*
X24362508Y40387442D01*
X24679366Y40393692D01*
X24679371Y40393692D01*
X24994027Y40399941D01*
X24994032Y40399941D01*
X25308136Y40406191D01*
X25308148Y40406191D01*
X25308153Y40406191D01*
X25623162Y40412441D01*
X25623183Y40412441D01*
X25623208Y40412442D01*
X25940664Y40418692D01*
X25940706Y40418692D01*
X25940738Y40418693D01*
X26262235Y40424943D01*
X26262285Y40424942D01*
X26262337Y40424945D01*
X26589559Y40431195D01*
X26589616Y40431194D01*
X26589688Y40431198D01*
X26924443Y40437448D01*
X26924517Y40437447D01*
X26924597Y40437451D01*
X27268857Y40443701D01*
X27268948Y40443700D01*
X27269035Y40443704D01*
X27624989Y40449954D01*
X27625096Y40449952D01*
X27625191Y40449957D01*
X27995305Y40456207D01*
X27995411Y40456205D01*
X27995527Y40456211D01*
X28382620Y40462461D01*
X28382738Y40462459D01*
X28382862Y40462465D01*
X28790203Y40468715D01*
X28790328Y40468712D01*
X28790459Y40468719D01*
X29221883Y40474969D01*
X29222028Y40474966D01*
X29222154Y40474972D01*
X29682229Y40481222D01*
X29682366Y40481219D01*
X29682511Y40481226D01*
X30176741Y40487476D01*
X30176879Y40487473D01*
X30177030Y40487480D01*
X30712147Y40493730D01*
X30712298Y40493726D01*
X30712442Y40493733D01*
X30996869Y40496776D01*
X30993767Y40792531D01*
X30987523Y41336245D01*
X30981273Y41837770D01*
X30981273Y41837773D01*
X30975026Y42303153D01*
X30975026Y42303154D01*
X30968781Y42738351D01*
X30962535Y43148052D01*
X30956289Y43536188D01*
X30950043Y43906101D01*
X30950043Y43906105D01*
X30943799Y44260469D01*
X30937550Y44602394D01*
X30931303Y44933495D01*
X30931303Y44933497D01*
X30925056Y45255960D01*
X30925056Y45255973D01*
X30918809Y45571599D01*
X30912560Y45882086D01*
X30906312Y46189001D01*
X30906312Y46189005D01*
X30900062Y46493851D01*
X30900118Y46496844D01*
X30899999Y46499834D01*
X30893751Y57801130D01*
X30887563Y58103271D01*
X30887563Y58103293D01*
X30887562Y58103317D01*
X30881311Y58410803D01*
X30881311Y58410836D01*
X30881309Y58410881D01*
X30875060Y58722264D01*
X30875060Y58722315D01*
X30875058Y58722366D01*
X30868807Y59039275D01*
X30868808Y59039349D01*
X30868805Y59039409D01*
X30862556Y59363591D01*
X30862557Y59363670D01*
X30862553Y59363749D01*
X30856303Y59697118D01*
X30856304Y59697201D01*
X30856299Y59697301D01*
X30850048Y60041973D01*
X30850050Y60042087D01*
X30850045Y60042183D01*
X30843796Y60400547D01*
X30843798Y60400658D01*
X30843792Y60400774D01*
X30837541Y60775559D01*
X30837543Y60775684D01*
X30837537Y60775808D01*
X30831288Y61170176D01*
X30831291Y61170308D01*
X30831284Y61170440D01*
X30825034Y61588105D01*
X30825037Y61588245D01*
X30825030Y61588384D01*
X30818779Y62033764D01*
X30818782Y62033909D01*
X30818775Y62034056D01*
X30812526Y62512481D01*
X30812529Y62512626D01*
X30812522Y62512779D01*
X30806272Y63030762D01*
X30806275Y63030908D01*
X30806268Y63031067D01*
X30803332Y63296768D01*
X30526617Y63293771D01*
X30526609Y63293771D01*
X29999438Y63287521D01*
X29999435Y63287521D01*
X29514139Y63281276D01*
X29063620Y63275032D01*
X28642192Y63268787D01*
X28642190Y63268787D01*
X28245461Y63262541D01*
X28245458Y63262541D01*
X27869377Y63256291D01*
X27869358Y63256291D01*
X27511394Y63250048D01*
X27168169Y63243804D01*
X27168151Y63243803D01*
X26837118Y63237553D01*
X26837106Y63237553D01*
X26516753Y63231310D01*
X26516752Y63231310D01*
X26204450Y63225060D01*
X26204441Y63225060D01*
X25899035Y63218815D01*
X25899033Y63218815D01*
X25598502Y63212566D01*
X25598489Y63212566D01*
X25301377Y63206316D01*
X25301375Y63206316D01*
X25006353Y63200067D01*
X25006334Y63200067D01*
X24711912Y63193818D01*
X24711895Y63193817D01*
X24416632Y63187567D01*
X24416608Y63187567D01*
X24416584Y63187566D01*
X24119067Y63181316D01*
X24119020Y63181316D01*
X24118989Y63181315D01*
X23817721Y63175065D01*
X23817678Y63175065D01*
X23817614Y63175062D01*
X23511020Y63168812D01*
X23510942Y63168813D01*
X23510883Y63168810D01*
X23197274Y63162560D01*
X23197202Y63162561D01*
X23197110Y63162556D01*
X22874633Y63156306D01*
X22874530Y63156308D01*
X22874443Y63156303D01*
X22541053Y63150053D01*
X22540946Y63150055D01*
X22540838Y63150049D01*
X22194225Y63143799D01*
X22194105Y63143801D01*
X22193988Y63143795D01*
X21831513Y63137545D01*
X21831394Y63137547D01*
X21831256Y63137540D01*
X21449862Y63131290D01*
X21449720Y63131293D01*
X21449587Y63131286D01*
X21045684Y63125036D01*
X21045536Y63125039D01*
X21045395Y63125032D01*
X20614709Y63118782D01*
X20614569Y63118785D01*
X20614408Y63118777D01*
X20151790Y63112527D01*
X20151635Y63112531D01*
X20151480Y63112523D01*
X19650631Y63106273D01*
X19650465Y63106277D01*
X19650317Y63106270D01*
X19403340Y63103447D01*
X19406227Y62845460D01*
X19412474Y62335735D01*
X19418719Y61866131D01*
X19418719Y61866129D01*
X19424965Y61430152D01*
X19424965Y61430145D01*
X19431216Y61022189D01*
X19437456Y60638735D01*
X19437456Y60638725D01*
X19443707Y60274953D01*
X19449947Y59928798D01*
X19449947Y59928792D01*
X19456193Y59596784D01*
X19462440Y59276830D01*
X19468686Y58966869D01*
X19468686Y58966861D01*
X19474934Y58665006D01*
X19481181Y58369587D01*
X19481181Y58369580D01*
X19487429Y58079008D01*
X19493679Y57791813D01*
X19499928Y57506571D01*
X19499873Y57503368D01*
X19500000Y57500166D01*
X19506250Y46218732D01*
X19512428Y45936550D01*
X19512428Y45936525D01*
X19512429Y45936501D01*
X19518679Y45648952D01*
X19518679Y45648917D01*
X19518681Y45648873D01*
X19524932Y45357722D01*
X19524931Y45357660D01*
X19524934Y45357608D01*
X19531183Y45061330D01*
X19531182Y45061262D01*
X19531186Y45061191D01*
X19537437Y44758152D01*
X19537436Y44758073D01*
X19537441Y44757980D01*
X19543690Y44446396D01*
X19543689Y44446301D01*
X19543694Y44446201D01*
X19549944Y44124093D01*
X19549942Y44123980D01*
X19549948Y44123872D01*
X19556199Y43789009D01*
X19556197Y43788879D01*
X19556203Y43788762D01*
X19562452Y43438596D01*
X19562450Y43438470D01*
X19562457Y43438332D01*
X19568708Y43069910D01*
X19568705Y43069773D01*
X19568713Y43069626D01*
X19574962Y42679483D01*
X19574959Y42679326D01*
X19574966Y42679185D01*
X19581216Y42263193D01*
X19581213Y42263045D01*
X19581221Y42262883D01*
X19587472Y41816069D01*
X19587468Y41815905D01*
X19587476Y41815748D01*
X19593725Y41332033D01*
X19593721Y41331870D01*
X19593729Y41331707D01*
X19596431Y41103455D01*
X19835855Y41106229D01*
X20328258Y41112472D01*
X20328261Y41112472D01*
X20782369Y41118722D01*
X20782377Y41118722D01*
X21203640Y41124967D01*
X21203643Y41124967D01*
X21597509Y41131212D01*
X21967979Y41137452D01*
X21967997Y41137453D01*
X22319459Y41143703D01*
X22319461Y41143703D01*
X22654096Y41149948D01*
X22654103Y41149948D01*
X22974565Y41156189D01*
X22974572Y41156189D01*
X23283686Y41162437D01*
X23583188Y41168685D01*
X23583198Y41168685D01*
X23874550Y41174928D01*
X24159849Y41181176D01*
X24159859Y41181176D01*
X24440539Y41187426D01*
X24440544Y41187426D01*
X24717776Y41193673D01*
X24717777Y41193673D01*
X24993194Y41199923D01*
X24993211Y41199923D01*
X25267982Y41206172D01*
X25267999Y41206173D01*
X25543516Y41212423D01*
X25543543Y41212423D01*
X25543567Y41212424D01*
X25821147Y41218674D01*
X25821186Y41218674D01*
X25821230Y41218676D01*
X26102265Y41224926D01*
X26102330Y41224925D01*
X26102381Y41224928D01*
X26388343Y41231178D01*
X26388405Y41231177D01*
X26388489Y41231182D01*
X26680956Y41237432D01*
X26681052Y41237431D01*
X26681131Y41237435D01*
X26981824Y41243685D01*
X26981927Y41243684D01*
X26982027Y41243689D01*
X27292854Y41249939D01*
X27292962Y41249937D01*
X27293083Y41249944D01*
X27616196Y41256194D01*
X27616319Y41256192D01*
X27616449Y41256199D01*
X27954306Y41262449D01*
X27954443Y41262447D01*
X27954581Y41262454D01*
X28310029Y41268704D01*
X28310175Y41268701D01*
X28310322Y41268709D01*
X28686705Y41274959D01*
X28686859Y41274956D01*
X28687014Y41274964D01*
X29088312Y41281214D01*
X29088483Y41281210D01*
X29088633Y41281218D01*
X29519641Y41287468D01*
X29519802Y41287465D01*
X29519973Y41287473D01*
X29986556Y41293723D01*
X29986728Y41293719D01*
X29986893Y41293727D01*
X30196422Y41296299D01*
X30193771Y41517155D01*
X30187526Y41992586D01*
X30187526Y41992591D01*
X30181284Y42430204D01*
X30181284Y42430221D01*
X30175035Y42837115D01*
X30168790Y43217230D01*
X30168790Y43217246D01*
X30162545Y43574997D01*
X30156301Y43913859D01*
X30150055Y44236735D01*
X30143811Y44546143D01*
X30143811Y44546148D01*
X30137566Y44844270D01*
X30131319Y45133055D01*
X30131319Y45133059D01*
X30125074Y45414240D01*
X30118826Y45689395D01*
X30118826Y45689405D01*
X30112580Y45959993D01*
X30112580Y45959994D01*
X30106332Y46227400D01*
X30100082Y46492941D01*
X30100136Y46496388D01*
X30099999Y46499833D01*
X30093751Y57761364D01*
X30087582Y58023565D01*
X30087582Y58023595D01*
X30087581Y58023619D01*
X30081332Y58291230D01*
X30081332Y58291271D01*
X30081330Y58291314D01*
X30075080Y58562234D01*
X30075080Y58562288D01*
X30075077Y58562351D01*
X30068826Y58838000D01*
X30068827Y58838082D01*
X30068823Y58838153D01*
X30062574Y59120047D01*
X30062575Y59120136D01*
X30062570Y59120227D01*
X30056319Y59410026D01*
X30056320Y59410126D01*
X30056314Y59410239D01*
X30050065Y59709785D01*
X30050067Y59709900D01*
X30050060Y59710021D01*
X30043810Y60021384D01*
X30043812Y60021516D01*
X30043805Y60021646D01*
X30037554Y60347194D01*
X30037556Y60347341D01*
X30037549Y60347480D01*
X30031300Y60689955D01*
X30031303Y60690110D01*
X30031295Y60690257D01*
X30025044Y61052880D01*
X30025047Y61053033D01*
X30025038Y61053202D01*
X30018789Y61439804D01*
X30018792Y61439973D01*
X30018784Y61440138D01*
X30012534Y61855341D01*
X30012538Y61855512D01*
X30012529Y61855684D01*
X30006278Y62305132D01*
X30006282Y62305304D01*
X30006273Y62305484D01*
X30003843Y62496289D01*
X29801709Y62493773D01*
X29801704Y62493773D01*
X29343566Y62487529D01*
X28921622Y62481288D01*
X28921621Y62481288D01*
X28529422Y62475038D01*
X28529413Y62475038D01*
X28163411Y62468799D01*
X28163400Y62468799D01*
X27818296Y62462549D01*
X27818291Y62462549D01*
X27492051Y62456310D01*
X27492041Y62456310D01*
X27180641Y62450060D01*
X27180628Y62450060D01*
X26882745Y62443820D01*
X26595299Y62437571D01*
X26595292Y62437571D01*
X26317277Y62431330D01*
X26317275Y62431330D01*
X26046399Y62425083D01*
X26046386Y62425083D01*
X25781196Y62418833D01*
X25781193Y62418833D01*
X25520664Y62412588D01*
X25520662Y62412588D01*
X25300000Y62407234D01*
X25300000Y61800000D01*
X25299075Y61776462D01*
X25291711Y61729966D01*
X25277164Y61685195D01*
X25255792Y61643250D01*
X25228122Y61605166D01*
X25194834Y61571878D01*
X25156750Y61544208D01*
X25114805Y61522836D01*
X25070034Y61508289D01*
X25023538Y61500925D01*
X25000000Y61500000D01*
X24976462Y61500925D01*
X24929966Y61508289D01*
X24885195Y61522836D01*
X24843250Y61544208D01*
X24805166Y61571878D01*
X24771878Y61605166D01*
X24744208Y61643250D01*
X24722836Y61685195D01*
X24708289Y61729966D01*
X24700925Y61776462D01*
X24700000Y61800000D01*
X24700000Y62700000D01*
X24700516Y62713108D01*
X24700439Y62716225D01*
X24700721Y62718334D01*
X24700925Y62723538D01*
X24704034Y62743166D01*
X24706665Y62762887D01*
X24707715Y62766408D01*
X24708289Y62770034D01*
X24714432Y62788937D01*
X24720114Y62808000D01*
X24721702Y62811313D01*
X24722836Y62814805D01*
X24731864Y62832521D01*
X24740455Y62850454D01*
X24742541Y62853476D01*
X24744208Y62856750D01*
X24755894Y62872833D01*
X24767186Y62889203D01*
X24769721Y62891864D01*
X24771878Y62894834D01*
X24785935Y62908890D01*
X24799651Y62923294D01*
X24802569Y62925524D01*
X24805166Y62928122D01*
X24821258Y62939813D01*
X24837048Y62951886D01*
X24840278Y62953631D01*
X24843250Y62955792D01*
X24860964Y62964817D01*
X24878458Y62974277D01*
X24881926Y62975497D01*
X24885195Y62977164D01*
X24904104Y62983307D01*
X24922861Y62989913D01*
X24926473Y62990575D01*
X24929966Y62991711D01*
X24949604Y62994821D01*
X24969163Y62998411D01*
X24974364Y62998742D01*
X24976462Y62999075D01*
X24979576Y62999075D01*
X24992671Y62999910D01*
X25248437Y63006160D01*
X25248454Y63006159D01*
X25248490Y63006162D01*
X25506110Y63012412D01*
X25506154Y63012411D01*
X25506197Y63012414D01*
X25766939Y63018664D01*
X25766997Y63018663D01*
X25767060Y63018667D01*
X26032249Y63024917D01*
X26032332Y63024915D01*
X26032401Y63024920D01*
X26303443Y63031170D01*
X26303536Y63031168D01*
X26303626Y63031174D01*
X26582045Y63037424D01*
X26582147Y63037422D01*
X26582257Y63037429D01*
X26869722Y63043679D01*
X26869842Y63043676D01*
X26869960Y63043684D01*
X27168338Y63049934D01*
X27168461Y63049931D01*
X27168601Y63049940D01*
X27480001Y63056190D01*
X27480150Y63056187D01*
X27480285Y63056195D01*
X27807129Y63062445D01*
X27807275Y63062442D01*
X27807432Y63062451D01*
X28152535Y63068701D01*
X28152702Y63068697D01*
X28152854Y63068706D01*
X28519529Y63074956D01*
X28519689Y63074952D01*
X28519862Y63074962D01*
X28912061Y63081212D01*
X28912236Y63081207D01*
X28912404Y63081217D01*
X29334901Y63087467D01*
X29335075Y63087462D01*
X29335251Y63087472D01*
X29793888Y63093722D01*
X29794059Y63093717D01*
X29794241Y63093727D01*
X30296266Y63099976D01*
X30319659Y63099348D01*
X30319728Y63099349D01*
X30319750Y63099345D01*
X30319814Y63099344D01*
X30344260Y63095783D01*
X30366314Y63092578D01*
X30366354Y63092565D01*
X30366398Y63092559D01*
X30388854Y63085569D01*
X30411266Y63078602D01*
X30411304Y63078582D01*
X30411346Y63078570D01*
X30432466Y63068138D01*
X30453480Y63057766D01*
X30453514Y63057741D01*
X30453554Y63057722D01*
X30472453Y63044347D01*
X30491913Y63030584D01*
X30491945Y63030552D01*
X30491980Y63030528D01*
X30508725Y63014193D01*
X30525622Y62997722D01*
X30525647Y62997687D01*
X30525679Y62997657D01*
X30539769Y62978763D01*
X30553775Y62959994D01*
X30553795Y62959955D01*
X30553821Y62959921D01*
X30564837Y62938949D01*
X30575680Y62918324D01*
X30575693Y62918283D01*
X30575714Y62918245D01*
X30583128Y62896356D01*
X30590796Y62873742D01*
X30590803Y62873697D01*
X30590817Y62873658D01*
X30594744Y62850713D01*
X30598751Y62827344D01*
X30598753Y62827287D01*
X30598759Y62827258D01*
X30598760Y62827169D01*
X30599976Y62803819D01*
X30606225Y62313124D01*
X30612466Y61864371D01*
X30618710Y61449502D01*
X30618711Y61449502D01*
X30624960Y61062899D01*
X30631199Y60700906D01*
X30631200Y60700901D01*
X30637443Y60358717D01*
X30637444Y60358712D01*
X30643689Y60033426D01*
X30643690Y60033426D01*
X30649935Y59722299D01*
X30656184Y59422753D01*
X30662426Y59133345D01*
X30668671Y58851611D01*
X30668672Y58851602D01*
X30674920Y58576072D01*
X30681168Y58305236D01*
X30687415Y58037685D01*
X30687416Y58037679D01*
X30693667Y57772034D01*
X30693612Y57768587D01*
X30693750Y57765143D01*
X30699997Y46503614D01*
X30706167Y46241466D01*
X30706166Y46241439D01*
X30706168Y46241416D01*
X30712418Y45973924D01*
X30712417Y45973882D01*
X30712420Y45973839D01*
X30718669Y45703128D01*
X30718668Y45703077D01*
X30718672Y45703015D01*
X30724923Y45427711D01*
X30724921Y45427633D01*
X30724926Y45427562D01*
X30731175Y45146205D01*
X30731173Y45146121D01*
X30731179Y45146031D01*
X30737430Y44857040D01*
X30737428Y44856934D01*
X30737434Y44856836D01*
X30743684Y44558479D01*
X30743681Y44558368D01*
X30743689Y44558249D01*
X30749938Y44248590D01*
X30749935Y44248465D01*
X30749943Y44248339D01*
X30756194Y43925189D01*
X30756191Y43925049D01*
X30756199Y43924913D01*
X30762448Y43585759D01*
X30762444Y43585612D01*
X30762453Y43585469D01*
X30768704Y43227394D01*
X30768700Y43227250D01*
X30768710Y43227086D01*
X30774960Y42846650D01*
X30774956Y42846489D01*
X30774965Y42846329D01*
X30781214Y42439435D01*
X30781209Y42439260D01*
X30781218Y42439106D01*
X30787470Y42000804D01*
X30787465Y42000627D01*
X30787474Y42000466D01*
X30793723Y41524696D01*
X30793718Y41524524D01*
X30793727Y41524357D01*
X30799978Y41003601D01*
X30799340Y40980206D01*
X30799341Y40980134D01*
X30799337Y40980111D01*
X30799336Y40980054D01*
X30795645Y40954793D01*
X30792548Y40933551D01*
X30792537Y40933518D01*
X30792531Y40933473D01*
X30784820Y40908737D01*
X30778551Y40888605D01*
X30778534Y40888573D01*
X30778522Y40888531D01*
X30767610Y40866465D01*
X30757696Y40846401D01*
X30757673Y40846369D01*
X30757655Y40846332D01*
X30743370Y40826167D01*
X30730495Y40807981D01*
X30730469Y40807955D01*
X30730444Y40807919D01*
X30712880Y40789929D01*
X30697618Y40774287D01*
X30697587Y40774265D01*
X30697558Y40774234D01*
X30675594Y40757870D01*
X30659876Y40746152D01*
X30659849Y40746138D01*
X30659809Y40746108D01*
X30636360Y40733804D01*
X30618197Y40724266D01*
X30618160Y40724254D01*
X30618123Y40724234D01*
X30594920Y40716387D01*
X30573608Y40709171D01*
X30573569Y40709165D01*
X30573530Y40709151D01*
X30550053Y40705144D01*
X30527205Y40701237D01*
X30527150Y40701235D01*
X30527126Y40701230D01*
X30527052Y40701230D01*
X30503681Y40700024D01*
X29994595Y40693778D01*
X29994592Y40693777D01*
X29528009Y40687527D01*
X29528004Y40687528D01*
X29097671Y40681287D01*
X29097655Y40681286D01*
X28696484Y40675038D01*
X28320439Y40668794D01*
X27965224Y40662548D01*
X27627547Y40656301D01*
X27627543Y40656302D01*
X27304687Y40650056D01*
X27304677Y40650057D01*
X26994294Y40643816D01*
X26994292Y40643815D01*
X26693791Y40637570D01*
X26693775Y40637568D01*
X26401309Y40631318D01*
X26401288Y40631319D01*
X26115618Y40625075D01*
X26115606Y40625074D01*
X25834570Y40618824D01*
X25834566Y40618825D01*
X25557127Y40612578D01*
X25557124Y40612577D01*
X25281607Y40606327D01*
X25281591Y40606328D01*
X25006822Y40600079D01*
X25006806Y40600077D01*
X24731389Y40593827D01*
X24731364Y40593828D01*
X24731341Y40593826D01*
X24453975Y40587576D01*
X24453939Y40587577D01*
X24453896Y40587574D01*
X24173217Y40581324D01*
X24173155Y40581326D01*
X24173105Y40581322D01*
X23887686Y40575072D01*
X23887615Y40575074D01*
X23887545Y40575069D01*
X23595873Y40568819D01*
X23595794Y40568821D01*
X23595704Y40568815D01*
X23296142Y40562565D01*
X23296044Y40562567D01*
X23295946Y40562561D01*
X22986696Y40556311D01*
X22986581Y40556314D01*
X22986475Y40556307D01*
X22665535Y40550057D01*
X22665418Y40550060D01*
X22665291Y40550052D01*
X22330391Y40543802D01*
X22330262Y40543805D01*
X22330127Y40543797D01*
X21978665Y40537547D01*
X21978514Y40537551D01*
X21978384Y40537543D01*
X21607336Y40531293D01*
X21607190Y40531297D01*
X21607039Y40531288D01*
X21212843Y40525038D01*
X21212692Y40525042D01*
X21212534Y40525033D01*
X20790945Y40518783D01*
X20790792Y40518787D01*
X20790627Y40518778D01*
X20336519Y40512528D01*
X20336353Y40512533D01*
X20336194Y40512524D01*
X19843290Y40506274D01*
X19843126Y40506279D01*
X19842961Y40506270D01*
X19303476Y40500021D01*
X19280078Y40500669D01*
X19280004Y40500668D01*
X19279980Y40500672D01*
X19279929Y40500673D01*
X19254976Y40504330D01*
X19233424Y40507482D01*
X19233393Y40507492D01*
X19233350Y40507498D01*
X19209337Y40514995D01*
X19188484Y40521498D01*
X19188451Y40521515D01*
X19188414Y40521526D01*
X19167656Y40531802D01*
X19146289Y40542372D01*
X19146258Y40542395D01*
X19146224Y40542411D01*
X19128103Y40555260D01*
X19107880Y40569589D01*
X19107851Y40569618D01*
X19107822Y40569638D01*
X19091545Y40585544D01*
X19074201Y40602481D01*
X19074179Y40602511D01*
X19074151Y40602538D01*
X19060208Y40621270D01*
X19046082Y40640235D01*
X19046064Y40640270D01*
X19046042Y40640299D01*
X19034908Y40661539D01*
X19024215Y40681924D01*
X19024204Y40681958D01*
X19024185Y40681993D01*
X19016656Y40704287D01*
X19009139Y40726520D01*
X19009133Y40726560D01*
X19009121Y40726593D01*
X19005310Y40748976D01*
X19001226Y40772925D01*
X19001224Y40772975D01*
X19001219Y40773001D01*
X19001219Y40773080D01*
X19000022Y40796451D01*
X18993771Y41324607D01*
X18987530Y41807676D01*
X18981279Y42254489D01*
X18981280Y42254498D01*
X18975038Y42669873D01*
X18968789Y43060016D01*
X18968790Y43060021D01*
X18962543Y43428154D01*
X18962544Y43428162D01*
X18956303Y43777810D01*
X18950052Y44112674D01*
X18943806Y44434561D01*
X18943807Y44434563D01*
X18937561Y44745950D01*
X18937562Y44745962D01*
X18931314Y45048817D01*
X18931315Y45048819D01*
X18925068Y45344956D01*
X18918819Y45635993D01*
X18918820Y45636001D01*
X18912571Y45923463D01*
X18906323Y46208805D01*
X18906379Y46212005D01*
X18906251Y46215206D01*
X18900002Y57496635D01*
X18893823Y57778671D01*
X18893824Y57778692D01*
X18893822Y57778715D01*
X18887571Y58065954D01*
X18887572Y58065989D01*
X18887569Y58066032D01*
X18881319Y58356680D01*
X18881321Y58356737D01*
X18881317Y58356788D01*
X18875068Y58652322D01*
X18875070Y58652385D01*
X18875065Y58652455D01*
X18868814Y58954443D01*
X18868816Y58954530D01*
X18868811Y58954608D01*
X18862562Y59264742D01*
X18862564Y59264831D01*
X18862558Y59264929D01*
X18856307Y59585070D01*
X18856310Y59585178D01*
X18856303Y59585284D01*
X18850053Y59917506D01*
X18850056Y59917628D01*
X18850049Y59917742D01*
X18843800Y60264392D01*
X18843803Y60264510D01*
X18843795Y60264644D01*
X18837544Y60628417D01*
X18837548Y60628560D01*
X18837540Y60628690D01*
X18831291Y61012712D01*
X18831295Y61012848D01*
X18831286Y61012997D01*
X18825035Y61420953D01*
X18825039Y61421108D01*
X18825031Y61421252D01*
X18818781Y61857535D01*
X18818785Y61857691D01*
X18818777Y61857842D01*
X18812528Y62327757D01*
X18812533Y62327913D01*
X18812524Y62328070D01*
X18806273Y62838106D01*
X18806278Y62838262D01*
X18806269Y62838425D01*
X18800020Y63396642D01*
X18800678Y63420067D01*
X18800677Y63420119D01*
X18800680Y63420136D01*
X18800681Y63420189D01*
X18804479Y63446037D01*
X18807509Y63466696D01*
X18807519Y63466726D01*
X18807524Y63466764D01*
X18814864Y63490244D01*
X18821543Y63511630D01*
X18821559Y63511661D01*
X18821569Y63511695D01*
X18831936Y63532616D01*
X18842434Y63553817D01*
X18842455Y63553846D01*
X18842470Y63553877D01*
X18855942Y63572861D01*
X18869667Y63592214D01*
X18869692Y63592238D01*
X18869712Y63592268D01*
X18885899Y63608820D01*
X18902573Y63625881D01*
X18902603Y63625902D01*
X18902626Y63625927D01*
X18920064Y63638896D01*
X18940338Y63653984D01*
X18940373Y63654002D01*
X18940398Y63654021D01*
X18960351Y63664470D01*
X18982036Y63675834D01*
X18982069Y63675844D01*
X18982101Y63675862D01*
X19004586Y63683446D01*
X19026638Y63690892D01*
X19026674Y63690898D01*
X19026706Y63690909D01*
X19051094Y63695051D01*
X19073047Y63698786D01*
X19073089Y63698788D01*
X19073117Y63698793D01*
X19073205Y63698793D01*
X19096573Y63699980D01*
X19643131Y63706226D01*
X19643145Y63706227D01*
X20143812Y63712474D01*
X20606303Y63718723D01*
X20606320Y63718722D01*
X21036396Y63724963D01*
X21036400Y63724964D01*
X21440025Y63731209D01*
X21440030Y63731210D01*
X21821425Y63737460D01*
X21821440Y63737459D01*
X22183405Y63743700D01*
X22183407Y63743701D01*
X22530005Y63749950D01*
X22862993Y63756193D01*
X22863007Y63756194D01*
X23185483Y63762444D01*
X23185501Y63762443D01*
X23498775Y63768686D01*
X23498792Y63768688D01*
X23805385Y63774938D01*
X23805405Y63774937D01*
X24106449Y63781183D01*
X24106465Y63781184D01*
X24403934Y63787432D01*
X24403934Y63787433D01*
X24699197Y63793683D01*
X24699214Y63793682D01*
X24993630Y63799931D01*
X24993647Y63799933D01*
X25288715Y63806183D01*
X25288736Y63806182D01*
X25288759Y63806184D01*
X25585870Y63812434D01*
X25585913Y63812433D01*
X25585943Y63812435D01*
X25886561Y63818685D01*
X25886614Y63818684D01*
X25886664Y63818687D01*
X26192314Y63824937D01*
X26192374Y63824935D01*
X26192444Y63824940D01*
X26504747Y63831190D01*
X26504826Y63831188D01*
X26504904Y63831193D01*
X26825610Y63837443D01*
X26825694Y63837441D01*
X26825792Y63837447D01*
X27156825Y63843697D01*
X27156937Y63843694D01*
X27157030Y63843700D01*
X27500535Y63849950D01*
X27500648Y63849947D01*
X27500761Y63849954D01*
X27859161Y63856204D01*
X27859273Y63856201D01*
X27859407Y63856209D01*
X28235488Y63862459D01*
X28235622Y63862455D01*
X28235751Y63862463D01*
X28632745Y63868713D01*
X28632886Y63868709D01*
X28633022Y63868717D01*
X29054739Y63874967D01*
X29054885Y63874963D01*
X29055028Y63874971D01*
X29506004Y63881221D01*
X29506152Y63881217D01*
X29506302Y63881225D01*
X29992022Y63887475D01*
X29992170Y63887471D01*
X29992326Y63887479D01*
X30519496Y63893729D01*
X30519656Y63893724D01*
X30519804Y63893732D01*
X31096751Y63899981D01*
X31120152Y63899315D01*
X31120232Y63899316D01*
X31120258Y63899312D01*
X31120298Y63899311D01*
X31141593Y63896174D01*
X31166807Y63892466D01*
X31166840Y63892455D01*
X31166871Y63892451D01*
X31187469Y63886003D01*
X31211736Y63878415D01*
X31211768Y63878398D01*
X31211797Y63878390D01*
X31233926Y63867414D01*
X31253914Y63857507D01*
X31253936Y63857491D01*
X31253971Y63857474D01*
X31274461Y63842922D01*
X31292302Y63830260D01*
X31292326Y63830236D01*
X31292352Y63830218D01*
X31309111Y63813817D01*
X31325955Y63797342D01*
X31325973Y63797316D01*
X31325999Y63797292D01*
X31340228Y63778145D01*
X31354044Y63759566D01*
X31354059Y63759535D01*
X31354079Y63759510D01*
X31365257Y63738146D01*
X31375879Y63717859D01*
X31375888Y63717830D01*
X31375905Y63717799D01*
X31384285Y63692925D01*
X31390919Y63673252D01*
X31390923Y63673224D01*
X31390936Y63673188D01*
X31395258Y63647688D01*
X31398797Y63626840D01*
X31398799Y63626797D01*
X31398803Y63626775D01*
X31398803Y63626706D01*
X31399982Y63603314D01*
X31406232Y63037696D01*
X31412474Y62520317D01*
X31418719Y62042184D01*
X31424966Y61597083D01*
X31431212Y61179682D01*
X31437457Y60785565D01*
X31443704Y60411007D01*
X31449949Y60052869D01*
X31449950Y60052853D01*
X31456201Y59708181D01*
X31456200Y59708166D01*
X31462444Y59375155D01*
X31468690Y59051121D01*
X31468691Y59051107D01*
X31474939Y58734302D01*
X31474940Y58734302D01*
X31481187Y58422999D01*
X31487437Y58115559D01*
X31493687Y57810423D01*
X31493630Y57807435D01*
X31493750Y57804445D01*
X31499997Y46503157D01*
X31506187Y46201256D01*
X31506186Y46201237D01*
X31506188Y46201213D01*
X31512437Y45894228D01*
X31512436Y45894190D01*
X31512438Y45894160D01*
X31518689Y45583573D01*
X31518688Y45583524D01*
X31518691Y45583473D01*
X31524941Y45267708D01*
X31524939Y45267652D01*
X31524944Y45267582D01*
X31531194Y44944964D01*
X31531192Y44944890D01*
X31531197Y44944813D01*
X31537447Y44613535D01*
X31537445Y44613443D01*
X31537450Y44613358D01*
X31543699Y44271433D01*
X31543696Y44271328D01*
X31543702Y44271236D01*
X31549953Y43916451D01*
X31549950Y43916344D01*
X31549957Y43916231D01*
X31556207Y43546080D01*
X31556204Y43545962D01*
X31556211Y43545842D01*
X31562461Y43157452D01*
X31562458Y43157326D01*
X31562465Y43157198D01*
X31568715Y42747229D01*
X31568711Y42747096D01*
X31568719Y42746961D01*
X31574968Y42311484D01*
X31574964Y42311348D01*
X31574972Y42311207D01*
X31581223Y41845535D01*
X31581219Y41845394D01*
X31581227Y41845246D01*
X31587477Y41343721D01*
X31587472Y41343568D01*
X31587480Y41343428D01*
X31593730Y40799122D01*
X31593725Y40798971D01*
X31593733Y40798825D01*
X31599982Y40203147D01*
X31599307Y40179719D01*
X31599308Y40179662D01*
X31599305Y40179644D01*
X31599304Y40179600D01*
X31595501Y40153845D01*
X31592442Y40133090D01*
X31592434Y40133065D01*
X31592429Y40133030D01*
X31584981Y40109264D01*
X31578375Y40088166D01*
X31578361Y40088138D01*
X31578352Y40088109D01*
X31567282Y40065809D01*
X31557452Y40045995D01*
X31557436Y40045974D01*
X31557421Y40045942D01*
X31541728Y40023861D01*
X31530191Y40007617D01*
X31530173Y40007599D01*
X31530152Y40007569D01*
X31511167Y39988182D01*
X31497261Y39973975D01*
X31497239Y39973960D01*
X31497215Y39973934D01*
X31475212Y39957593D01*
X31459475Y39945899D01*
X31459452Y39945888D01*
X31459424Y39945866D01*
X31434570Y39932873D01*
X31417761Y39924080D01*
X31417738Y39924073D01*
X31417705Y39924055D01*
X31390338Y39914845D01*
X31373148Y39909055D01*
X31373124Y39909052D01*
X31373089Y39909039D01*
X31346118Y39904478D01*
X31326734Y39901194D01*
X31326697Y39901193D01*
X31326673Y39901188D01*
X31326598Y39901188D01*
X31303207Y39900017D01*
X30719157Y39893771D01*
X30719154Y39893770D01*
X30184038Y39887520D01*
X30184029Y39887521D01*
X29690097Y39881274D01*
X29690092Y39881275D01*
X29230590Y39875032D01*
X29230574Y39875031D01*
X28799151Y39868781D01*
X28799149Y39868782D01*
X28392066Y39862535D01*
X28392063Y39862536D01*
X28005213Y39856289D01*
X28005207Y39856290D01*
X27635533Y39850047D01*
X27635523Y39850046D01*
X27279751Y39843800D01*
X27279748Y39843799D01*
X26935489Y39837549D01*
X26935485Y39837550D01*
X26600888Y39831302D01*
X26600874Y39831303D01*
X26273795Y39825055D01*
X26273794Y39825056D01*
X25952486Y39818809D01*
X25952475Y39818808D01*
X25635018Y39812558D01*
X25635015Y39812559D01*
X25320080Y39806310D01*
X25320072Y39806309D01*
X25005968Y39800059D01*
X25005958Y39800060D01*
X25005956Y39800059D01*
X24691239Y39793809D01*
X24691222Y39793810D01*
X24691199Y39793808D01*
X24374340Y39787558D01*
X24374302Y39787559D01*
X24374272Y39787557D01*
X24053717Y39781307D01*
X24053672Y39781308D01*
X24053622Y39781305D01*
X23727742Y39775055D01*
X23727677Y39775057D01*
X23727620Y39775053D01*
X23394687Y39768803D01*
X23394617Y39768805D01*
X23394540Y39768800D01*
X23052690Y39762550D01*
X23052604Y39762552D01*
X23052519Y39762547D01*
X22699704Y39756297D01*
X22699603Y39756300D01*
X22699511Y39756294D01*
X22333444Y39750044D01*
X22333344Y39750047D01*
X22333232Y39750040D01*
X21951331Y39743790D01*
X21951221Y39743793D01*
X21951101Y39743786D01*
X21550401Y39737536D01*
X21550269Y39737540D01*
X21550155Y39737533D01*
X21127214Y39731283D01*
X21127088Y39731287D01*
X21126954Y39731279D01*
X20677717Y39725029D01*
X20677587Y39725033D01*
X20677447Y39725025D01*
X20197081Y39718775D01*
X20196936Y39718779D01*
X20196802Y39718772D01*
X19679471Y39712522D01*
X19679326Y39712526D01*
X19679187Y39712519D01*
X19117748Y39706269D01*
X19117604Y39706274D01*
X19117461Y39706266D01*
X18503052Y39700016D01*
X18479597Y39700699D01*
X18479563Y39700698D01*
X18479552Y39700700D01*
X18479505Y39700701D01*
X18454312Y39704430D01*
X18432993Y39707579D01*
X18432965Y39707588D01*
X18432937Y39707592D01*
X18410045Y39714774D01*
X18388073Y39721662D01*
X18388050Y39721674D01*
X18388020Y39721683D01*
X18365575Y39732834D01*
X18345909Y39742598D01*
X18345888Y39742614D01*
X18345860Y39742627D01*
X18326003Y39756748D01*
X18307540Y39769872D01*
X18307520Y39769892D01*
X18307497Y39769908D01*
X18291522Y39785562D01*
X18273909Y39802813D01*
X18273891Y39802838D01*
X18273872Y39802856D01*
X18260588Y39820754D01*
X18245846Y39840608D01*
X18245833Y39840634D01*
X18245816Y39840656D01*
X18234675Y39861983D01*
X18224041Y39882329D01*
X18224033Y39882355D01*
X18224018Y39882382D01*
X18216002Y39906227D01*
X18209030Y39926947D01*
X18209026Y39926974D01*
X18209016Y39927002D01*
X18205069Y39950388D01*
X18201185Y39973364D01*
X18201184Y39973403D01*
X18201180Y39973421D01*
X18201180Y39973476D01*
X18200016Y39996892D01*
X18193766Y40599970D01*
X18187520Y41151936D01*
X18187521Y41151950D01*
X18181277Y41661417D01*
X18175027Y42136186D01*
X18175028Y42136194D01*
X18168783Y42580860D01*
X18162533Y43001174D01*
X18162534Y43001183D01*
X18156290Y43400128D01*
X18150040Y43781993D01*
X18143794Y44149033D01*
X18137546Y44504009D01*
X18137547Y44504017D01*
X18131299Y44849185D01*
X18125051Y45186598D01*
X18125052Y45186602D01*
X18118803Y45518111D01*
X18118804Y45518127D01*
X18112556Y45845463D01*
X18112557Y45845466D01*
X18106306Y46170299D01*
X18106363Y46173094D01*
X18106250Y46175904D01*
X18100002Y57497052D01*
X18093806Y57818768D01*
X18093807Y57818783D01*
X18093805Y57818806D01*
X18087555Y58145536D01*
X18087556Y58145573D01*
X18087554Y58145603D01*
X18081305Y58476127D01*
X18081306Y58476168D01*
X18081303Y58476218D01*
X18075052Y58812214D01*
X18075054Y58812275D01*
X18075050Y58812332D01*
X18068800Y59155579D01*
X18068802Y59155645D01*
X18068797Y59155722D01*
X18062547Y59508144D01*
X18062549Y59508224D01*
X18062544Y59508308D01*
X18056294Y59872017D01*
X18056297Y59872111D01*
X18056291Y59872203D01*
X18050042Y60249553D01*
X18050045Y60249658D01*
X18050039Y60249756D01*
X18043788Y60643408D01*
X18043791Y60643513D01*
X18043784Y60643632D01*
X18037534Y61056641D01*
X18037538Y61056766D01*
X18037531Y61056879D01*
X18031281Y61492793D01*
X18031284Y61492912D01*
X18031277Y61493045D01*
X18025027Y61956043D01*
X18025031Y61956180D01*
X18025024Y61956306D01*
X18018775Y62451365D01*
X18018779Y62451503D01*
X18018772Y62451635D01*
X18012522Y62984772D01*
X18012526Y62984911D01*
X18012519Y62985048D01*
X18006268Y63563620D01*
X18006272Y63563758D01*
X18006265Y63563900D01*
X18000016Y64197039D01*
X18000706Y64220495D01*
X18000705Y64220531D01*
X18000707Y64220542D01*
X18000708Y64220585D01*
X18004480Y64246019D01*
X18007601Y64267099D01*
X18007609Y64267124D01*
X18007613Y64267152D01*
X18015188Y64291273D01*
X18021697Y64312013D01*
X18021708Y64312034D01*
X18021717Y64312064D01*
X18032928Y64334613D01*
X18042646Y64354171D01*
X18042662Y64354192D01*
X18042674Y64354218D01*
X18056718Y64373953D01*
X18069932Y64392531D01*
X18069951Y64392550D01*
X18069967Y64392573D01*
X18087068Y64410014D01*
X18102884Y64426152D01*
X18102905Y64426167D01*
X18102925Y64426188D01*
X18122611Y64440790D01*
X18140688Y64454204D01*
X18140712Y64454216D01*
X18140734Y64454233D01*
X18161321Y64464979D01*
X18182416Y64475996D01*
X18182444Y64476005D01*
X18182466Y64476017D01*
X18206878Y64484216D01*
X18227039Y64490992D01*
X18227060Y64490995D01*
X18227091Y64491006D01*
X18253080Y64495385D01*
X18273458Y64498823D01*
X18273493Y64498824D01*
X18273512Y64498828D01*
X18273572Y64498828D01*
X18296986Y64499985D01*
X18918751Y64506234D01*
X19487645Y64512479D01*
X20013203Y64518725D01*
X20013206Y64518726D01*
X20502669Y64524976D01*
X20502683Y64524975D01*
X20961111Y64531218D01*
X20961118Y64531219D01*
X21394405Y64537469D01*
X21394419Y64537468D01*
X21805677Y64543711D01*
X21805681Y64543712D01*
X22199106Y64549958D01*
X22199106Y64549959D01*
X22577624Y64556209D01*
X22577627Y64556208D01*
X22943339Y64562453D01*
X22943351Y64562454D01*
X23299125Y64568701D01*
X23299128Y64568702D01*
X23646980Y64574952D01*
X23646986Y64574951D01*
X23988534Y64581198D01*
X23988541Y64581199D01*
X24325934Y64587449D01*
X24325939Y64587448D01*
X24660645Y64593698D01*
X24660663Y64593697D01*
X24700000Y64594434D01*
X24700000Y65600000D01*
X24700925Y65623538D01*
X24701210Y65625331D01*
X24701231Y65627150D01*
X24704889Y65648563D01*
X24708289Y65670034D01*
X24708852Y65671764D01*
X24709157Y65673554D01*
X24716112Y65694108D01*
X24722836Y65714805D01*
X24723663Y65716426D01*
X24724244Y65718146D01*
X24734337Y65737376D01*
X24744208Y65756750D01*
X24745277Y65758219D01*
X24746121Y65759830D01*
X24759106Y65777254D01*
X24771878Y65794834D01*
X24773165Y65796120D01*
X24774249Y65797576D01*
X24789795Y65812750D01*
X24805166Y65828122D01*
X24806636Y65829189D01*
X24807937Y65830460D01*
X24825670Y65843018D01*
X24843250Y65855792D01*
X24844871Y65856617D01*
X24846352Y65857667D01*
X24865816Y65867289D01*
X24885195Y65877164D01*
X24886925Y65877726D01*
X24888553Y65878531D01*
X24909294Y65884994D01*
X24929966Y65891711D01*
X24931761Y65891995D01*
X24933496Y65892536D01*
X24955016Y65895678D01*
X24976462Y65899075D01*
X24978277Y65899075D01*
X24980078Y65899338D01*
X25003625Y65899978D01*
X25199326Y65897613D01*
G37*
%TD.AperFunction*%
%TD*%
D11*
%TO.P,D4,1*%
%TO.N,/CLAMP*%
X34000000Y78100000D03*
%TO.P,D4,2*%
%TO.N,/VIN*%
X34000000Y74100000D03*
%TD*%
D12*
%TO.P,D3,1*%
%TO.N,/CLAMP*%
X25000000Y78150000D03*
D13*
%TO.P,D3,2*%
%TO.N,/SW*%
X25000000Y75775000D03*
%TD*%
D14*
%TO.P,J1,1*%
%TO.N,/VIN_RAW*%
X22500000Y97000000D03*
D15*
%TO.P,J1,2*%
%TO.N,/PGND*%
X27500000Y97000000D03*
%TD*%
D14*
%TO.P,J2,1*%
%TO.N,/+5V_ISO*%
X27500000Y8000000D03*
D15*
%TO.P,J2,2*%
%TO.N,/GND_ISO*%
X22500000Y8000000D03*
%TD*%
D16*
%TO.P,U1,1*%
%TO.N,/UVLO*%
X13898500Y79905000D03*
%TO.P,U1,2*%
%TO.N,/INTVCC*%
X13898500Y78635000D03*
%TO.P,U1,3*%
%TO.N,/VIN*%
X13898500Y77365000D03*
%TO.P,U1,4*%
%TO.N,/PGND*%
X13898500Y76095000D03*
%TO.P,U1,5*%
%TO.N,/SW*%
X19101500Y76095000D03*
%TO.P,U1,6*%
%TO.N,/RFB*%
X19101500Y77365000D03*
%TO.P,U1,7*%
%TO.N,/RREF*%
X19101500Y78635000D03*
%TO.P,U1,8*%
%TO.N,/TC*%
X19101500Y79905000D03*
D17*
%TO.P,U1,9*%
%TO.N,/PGND*%
X16500000Y78000000D03*
%TD*%
D18*
%TO.P,R6,1*%
%TO.N,/VIN*%
X30462500Y73600000D03*
%TO.P,R6,2*%
%TO.N,/SNUB*%
X27537500Y73600000D03*
%TD*%
D19*
%TO.P,C4,1*%
%TO.N,/+5V_ISO*%
X30025000Y25880000D03*
%TO.P,C4,2*%
%TO.N,/GND_ISO*%
X32975000Y25880000D03*
%TD*%
D20*
%TO.P,D2,1*%
%TO.N,/+5V_ISO*%
X26000000Y25880000D03*
D21*
%TO.P,D2,2*%
%TO.N,/SEC_A*%
X25080000Y29862000D03*
X26920000Y29862000D03*
%TD*%
D22*
%TO.P,F1,1*%
%TO.N,/VIN_RAW*%
X17225000Y97000000D03*
%TO.P,F1,2*%
%TO.N,/VIN_FUSED*%
X13775000Y97000000D03*
%TD*%
D23*
%TO.P,T1,1*%
%TO.N,/VIN*%
X27871953Y65073763D03*
%TO.P,T1,2*%
%TO.N,/SW*%
X22128047Y65073763D03*
%TO.P,T1,3*%
%TO.N,/GND_ISO*%
X23540116Y38532645D03*
%TO.P,T1,4*%
%TO.N,/SEC_A*%
X25775000Y42270417D03*
%TO.P,T1,5*%
%TO.N,unconnected-(T1-P_MID-Pad5)*%
X25000000Y61800000D03*
%TD*%
D24*
%TO.P,C5,1*%
%TO.N,/INTVCC*%
X12275000Y78800000D03*
%TO.P,C5,2*%
%TO.N,/PGND*%
X10725000Y78800000D03*
%TD*%
D25*
%TO.P,R4,1*%
%TO.N,/RREF*%
X20825000Y79200000D03*
%TO.P,R4,2*%
%TO.N,/PGND*%
X22475000Y79200000D03*
%TD*%
%TO.P,R2,1*%
%TO.N,/UVLO*%
X17675000Y86000000D03*
%TO.P,R2,2*%
%TO.N,/PGND*%
X19325000Y86000000D03*
%TD*%
D26*
%TO.P,C8,1*%
%TO.N,/+5V_ISO*%
X18800000Y18500000D03*
%TO.P,C8,2*%
%TO.N,/GND_ISO*%
X13200000Y18500000D03*
%TD*%
D27*
%TO.P,C2,1*%
%TO.N,/VIN*%
X29000000Y76525000D03*
%TO.P,C2,2*%
%TO.N,/PGND*%
X29000000Y79475000D03*
%TD*%
D28*
%TO.P,R7,1*%
%TO.N,/+5V_ISO*%
X34000000Y19962500D03*
%TO.P,R7,2*%
%TO.N,/GND_ISO*%
X34000000Y17037500D03*
%TD*%
D26*
%TO.P,C3,1*%
%TO.N,/+5V_ISO*%
X28800000Y18500000D03*
%TO.P,C3,2*%
%TO.N,/GND_ISO*%
X23200000Y18500000D03*
%TD*%
D29*
%TO.P,D1,1*%
%TO.N,/VIN*%
X13000000Y90150000D03*
D30*
%TO.P,D1,2*%
%TO.N,/VIN_FUSED*%
X13000000Y92525000D03*
%TD*%
D31*
%TO.P,C1,1*%
%TO.N,/VIN*%
X11975000Y76365000D03*
%TO.P,C1,2*%
%TO.N,/PGND*%
X9025000Y76365000D03*
%TD*%
D32*
%TO.P,R5,1*%
%TO.N,/TC*%
X19101500Y81675000D03*
%TO.P,R5,2*%
%TO.N,/RREF*%
X19101500Y83325000D03*
%TD*%
D33*
%TO.P,C6,1*%
%TO.N,/SNUB*%
X25950000Y73600000D03*
%TO.P,C6,2*%
%TO.N,/SW*%
X24050000Y73600000D03*
%TD*%
D34*
%TO.P,R3,1*%
%TO.N,/SW*%
X22475000Y77365000D03*
%TO.P,R3,2*%
%TO.N,/RFB*%
X20825000Y77365000D03*
%TD*%
D35*
%TO.P,C7,1*%
%TO.N,/VIN_DAMP*%
X31800000Y88000000D03*
%TO.P,C7,2*%
%TO.N,/PGND*%
X39200000Y88000000D03*
%TD*%
D36*
%TO.P,R8,1*%
%TO.N,/VIN*%
X20425000Y90000000D03*
%TO.P,R8,2*%
%TO.N,/VIN_DAMP*%
X25575000Y90000000D03*
%TD*%
D25*
%TO.P,R1,1*%
%TO.N,/VIN*%
X14675000Y86000000D03*
%TO.P,R1,2*%
%TO.N,/UVLO*%
X16325000Y86000000D03*
%TD*%
D37*
%TO.N,/GND_ISO*%
X37000000Y9000000D03*
D38*
X13200000Y18500000D03*
D37*
X36000000Y25000000D03*
X17000000Y25000000D03*
D38*
X34000000Y17037500D03*
D37*
X12000000Y22000000D03*
X16000000Y7000000D03*
X19000000Y29000000D03*
X36000000Y29000000D03*
X32000000Y7000000D03*
D38*
X22269595Y30500000D03*
D37*
X24000000Y22000000D03*
X25000000Y5500000D03*
X20500000Y14200000D03*
D39*
X33200000Y23000000D03*
D37*
X36000000Y14000000D03*
X17000000Y14000000D03*
X25000000Y11000000D03*
X12000000Y29000000D03*
D38*
X32975000Y25880000D03*
X23169595Y30500000D03*
D37*
X15000000Y29000000D03*
D38*
X23200000Y18500000D03*
D37*
X32000000Y14000000D03*
X37500000Y22000000D03*
X12000000Y14000000D03*
%TO.N,/PGND*%
X29000000Y79475000D03*
X39000000Y79000000D03*
X24000000Y84500000D03*
X10000000Y85000000D03*
X9500000Y82000000D03*
X10725000Y78800000D03*
X10500000Y73600000D03*
X40000000Y83000000D03*
X15700000Y78550000D03*
X17300000Y77450000D03*
X9500000Y73000000D03*
X9500000Y97000000D03*
X15700000Y77450000D03*
X9500000Y94000000D03*
X25000000Y87000000D03*
X19325000Y86000000D03*
X39200000Y88000000D03*
X17300000Y78550000D03*
X39500000Y95000000D03*
X37000000Y74000000D03*
X13898500Y76095000D03*
X11500000Y83500000D03*
X22475000Y79200000D03*
X38000000Y83000000D03*
X39000000Y74000000D03*
X9025000Y76365000D03*
X28000000Y83000000D03*
X16000000Y74500000D03*
D39*
X17400000Y74350000D03*
D38*
%TO.N,/SEC_A*%
X26450000Y29862000D03*
X25550000Y29862000D03*
D40*
%TO.N,/VIN*%
X13000000Y90150000D03*
D37*
X14675000Y86000000D03*
D40*
X29000000Y76525000D03*
X11975000Y76365000D03*
%TD*%
%TO.N,/+5V_ISO*%
D41*
X26000000Y25880000D02*
X22025000Y25880000D01*
X22025000Y25880000D02*
X18800000Y22655000D01*
D42*
X28800000Y18500000D02*
X32537500Y18500000D01*
D41*
X18800000Y22655000D02*
X18800000Y18500000D01*
D43*
X28800000Y9300000D02*
X27500000Y8000000D01*
D42*
X32537500Y18500000D02*
X34000000Y19962500D01*
D41*
X30025000Y25880000D02*
X30025000Y19725000D01*
D43*
X28800000Y18500000D02*
X28800000Y9300000D01*
D41*
X30025000Y19725000D02*
X28800000Y18500000D01*
X26000000Y25880000D02*
X30025000Y25880000D01*
%TO.N,/CLAMP*%
D44*
X33900000Y78000000D02*
X34000000Y78100000D01*
X25000000Y78150000D02*
X25150000Y78000000D01*
X25150000Y78000000D02*
X33900000Y78000000D01*
%TO.N,/GND_ISO*%
D45*
X22269595Y30500000D02*
X23169595Y30500000D01*
D41*
X23540116Y38532645D02*
X23169595Y30500000D01*
%TO.N,/INTVCC*%
D46*
X12275000Y78800000D02*
X12440000Y78635000D01*
X12440000Y78635000D02*
X13898500Y78635000D01*
%TO.N,/RFB*%
D47*
X20825000Y77365000D02*
X19101500Y77365000D01*
%TO.N,/RREF*%
X21650000Y80025000D02*
X20825000Y79200000D01*
X19101500Y78635000D02*
X20260000Y78635000D01*
X20260000Y78635000D02*
X20825000Y79200000D01*
X19101500Y83325000D02*
X21650000Y83325000D01*
X21650000Y83325000D02*
X21650000Y80025000D01*
%TO.N,/SEC_A*%
D48*
X25550000Y29862000D02*
X26000000Y29862000D01*
X25080000Y29862000D02*
X25550000Y29862000D01*
X26000000Y29862000D02*
X26450000Y29862000D01*
X26450000Y29862000D02*
X26920000Y29862000D01*
%TO.N,/SNUB*%
D44*
X27537500Y73600000D02*
X25950000Y73600000D01*
%TO.N,/SW*%
D49*
X23000000Y73600000D02*
X23128023Y73600000D01*
X22475000Y74125000D02*
X23000000Y73600000D01*
D50*
X19101500Y73469716D02*
X22128047Y65073763D01*
D51*
X24050000Y74825000D02*
X24050000Y73600000D01*
X22128047Y65073763D02*
X21378023Y71850000D01*
D50*
X19101500Y76095000D02*
X19101500Y73469716D01*
D51*
X21378023Y71850000D02*
X23128023Y73600000D01*
X23128023Y73600000D02*
X24050000Y73600000D01*
X25000000Y75775000D02*
X24050000Y74825000D01*
D49*
X22475000Y77365000D02*
X22475000Y74125000D01*
%TO.N,/TC*%
D47*
X19101500Y79905000D02*
X19101500Y81675000D01*
%TO.N,/UVLO*%
X16325000Y86000000D02*
X17675000Y86000000D01*
X14500000Y84175000D02*
X14500000Y80506500D01*
X14500000Y80506500D02*
X13898500Y79905000D01*
X16325000Y86000000D02*
X14500000Y84175000D01*
%TO.N,/VIN*%
D50*
X29000000Y76525000D02*
X29000000Y75062500D01*
X29000000Y75062500D02*
X30462500Y73600000D01*
D42*
X18925000Y88500000D02*
X20425000Y90000000D01*
X13000000Y88500000D02*
X18925000Y88500000D01*
D52*
X11975000Y77365000D02*
X13898500Y77365000D01*
D42*
X13000000Y90150000D02*
X13000000Y88500000D01*
X33500000Y73600000D02*
X30462500Y73600000D01*
D52*
X11975000Y76365000D02*
X11975000Y77365000D01*
D42*
X34000000Y74100000D02*
X33500000Y73600000D01*
D50*
X30462500Y73600000D02*
X30462500Y73033716D01*
X30462500Y73033716D02*
X27871953Y65073763D01*
%TO.N,/VIN_DAMP*%
D42*
X25575000Y90000000D02*
X29800000Y90000000D01*
X29800000Y90000000D02*
X31800000Y88000000D01*
%TO.N,/VIN_FUSED*%
D50*
X13775000Y97000000D02*
X13000000Y96225000D01*
X13000000Y96225000D02*
X13000000Y92525000D01*
%TO.N,/VIN_RAW*%
X22500000Y97000000D02*
X17225000Y97000000D01*
%TD*%
%TA.AperFunction,Conductor*%
%TO.N,/GND_ISO*%
G36*
X24355980Y30981093D02*
G01*
X24391944Y30931593D01*
X24391944Y30870407D01*
X24355980Y30820907D01*
X24317105Y30803903D01*
X24287262Y30797967D01*
X24287257Y30797965D01*
X24204400Y30742603D01*
X24204397Y30742600D01*
X24149035Y30659743D01*
X24149033Y30659737D01*
X24134501Y30586685D01*
X24134500Y30586673D01*
X24134500Y29137328D01*
X24134501Y29137316D01*
X24149033Y29064264D01*
X24149035Y29064258D01*
X24204397Y28981401D01*
X24204399Y28981399D01*
X24287260Y28926034D01*
X24342808Y28914985D01*
X24360315Y28911502D01*
X24360320Y28911502D01*
X24360326Y28911500D01*
X24360327Y28911500D01*
X25799673Y28911500D01*
X25799674Y28911500D01*
X25872740Y28926034D01*
X25944999Y28974315D01*
X26003887Y28990923D01*
X26055001Y28974315D01*
X26127260Y28926034D01*
X26182808Y28914985D01*
X26200315Y28911502D01*
X26200320Y28911502D01*
X26200326Y28911500D01*
X26200327Y28911500D01*
X27639673Y28911500D01*
X27639674Y28911500D01*
X27712740Y28926034D01*
X27795601Y28981399D01*
X27850966Y29064260D01*
X27865500Y29137326D01*
X27865500Y30586674D01*
X27850966Y30659740D01*
X27795601Y30742601D01*
X27795599Y30742603D01*
X27712742Y30797965D01*
X27712737Y30797967D01*
X27682895Y30803903D01*
X27629512Y30833800D01*
X27603897Y30889365D01*
X27615835Y30949375D01*
X27660765Y30990907D01*
X27702211Y31000000D01*
X38901000Y31000000D01*
X38959191Y30981093D01*
X38995155Y30931593D01*
X39000000Y30901000D01*
X39000000Y5099000D01*
X38981093Y5040809D01*
X38931593Y5004845D01*
X38901000Y5000000D01*
X11099000Y5000000D01*
X11040809Y5018907D01*
X11004845Y5068407D01*
X11000000Y5099000D01*
X11000000Y8118057D01*
X21000000Y8118057D01*
X21000000Y7881944D01*
X21036934Y7648748D01*
X21036935Y7648744D01*
X21109892Y7424207D01*
X21109894Y7424204D01*
X21217084Y7213831D01*
X21277339Y7130895D01*
X21898957Y7752514D01*
X21923978Y7692110D01*
X21995112Y7585649D01*
X22085649Y7495112D01*
X22192110Y7423978D01*
X22252511Y7398959D01*
X21630893Y6777341D01*
X21713825Y6717087D01*
X21713829Y6717085D01*
X21924203Y6609895D01*
X21924206Y6609893D01*
X22148743Y6536936D01*
X22148747Y6536935D01*
X22381944Y6500000D01*
X22618056Y6500000D01*
X22851252Y6536935D01*
X22851256Y6536936D01*
X23075793Y6609893D01*
X23075796Y6609895D01*
X23286170Y6717085D01*
X23286176Y6717089D01*
X23369105Y6777341D01*
X23369105Y6777342D01*
X22747488Y7398959D01*
X22807890Y7423978D01*
X22914351Y7495112D01*
X23004888Y7585649D01*
X23076022Y7692110D01*
X23101041Y7752512D01*
X23722658Y7130895D01*
X23722659Y7130895D01*
X23782911Y7213824D01*
X23782915Y7213830D01*
X23890105Y7424204D01*
X23890107Y7424207D01*
X23963064Y7648744D01*
X23963065Y7648748D01*
X24000000Y7881944D01*
X24000000Y8118057D01*
X23963065Y8351253D01*
X23963064Y8351257D01*
X23890107Y8575794D01*
X23890105Y8575797D01*
X23782915Y8786171D01*
X23782913Y8786175D01*
X23722659Y8869107D01*
X23101041Y8247489D01*
X23076022Y8307890D01*
X23004888Y8414351D01*
X22914351Y8504888D01*
X22807890Y8576022D01*
X22747486Y8601043D01*
X23369105Y9222661D01*
X23286169Y9282916D01*
X23075796Y9390106D01*
X23075793Y9390108D01*
X22851256Y9463065D01*
X22851252Y9463066D01*
X22618056Y9500000D01*
X22381944Y9500000D01*
X22148747Y9463066D01*
X22148743Y9463065D01*
X21924206Y9390108D01*
X21924203Y9390106D01*
X21713823Y9282912D01*
X21630893Y9222661D01*
X22252512Y8601042D01*
X22192110Y8576022D01*
X22085649Y8504888D01*
X21995112Y8414351D01*
X21923978Y8307890D01*
X21898958Y8247488D01*
X21277339Y8869107D01*
X21217088Y8786177D01*
X21109894Y8575797D01*
X21109892Y8575794D01*
X21036935Y8351257D01*
X21036934Y8351253D01*
X21000000Y8118057D01*
X11000000Y8118057D01*
X11000000Y19324673D01*
X16799500Y19324673D01*
X16799500Y17675328D01*
X16799501Y17675316D01*
X16814033Y17602264D01*
X16814035Y17602258D01*
X16869397Y17519401D01*
X16869399Y17519399D01*
X16952260Y17464034D01*
X17007808Y17452985D01*
X17025315Y17449502D01*
X17025320Y17449502D01*
X17025326Y17449500D01*
X17025327Y17449500D01*
X20574673Y17449500D01*
X20574674Y17449500D01*
X20647740Y17464034D01*
X20730601Y17519399D01*
X20785966Y17602260D01*
X20800500Y17675326D01*
X20800500Y19324674D01*
X20785966Y19397740D01*
X20730601Y19480601D01*
X20730599Y19480603D01*
X20647742Y19535965D01*
X20647740Y19535966D01*
X20647737Y19535967D01*
X20647736Y19535967D01*
X20574684Y19550499D01*
X20574674Y19550500D01*
X20574673Y19550500D01*
X19899500Y19550500D01*
X19841309Y19569407D01*
X19805345Y19618907D01*
X19800500Y19649500D01*
X19800500Y22199572D01*
X19819407Y22257763D01*
X19829496Y22269576D01*
X22410425Y24850504D01*
X22464942Y24878281D01*
X22480429Y24879500D01*
X23970500Y24879500D01*
X24028691Y24860593D01*
X24064655Y24811093D01*
X24069500Y24780500D01*
X24069500Y23425328D01*
X24069501Y23425316D01*
X24084033Y23352264D01*
X24084035Y23352258D01*
X24139397Y23269401D01*
X24139399Y23269399D01*
X24222260Y23214034D01*
X24277808Y23202985D01*
X24295315Y23199502D01*
X24295320Y23199502D01*
X24295326Y23199500D01*
X24295327Y23199500D01*
X27704673Y23199500D01*
X27704674Y23199500D01*
X27777740Y23214034D01*
X27860601Y23269399D01*
X27915966Y23352260D01*
X27930500Y23425326D01*
X27930500Y24780500D01*
X27949407Y24838691D01*
X27998907Y24874655D01*
X28029500Y24879500D01*
X28925500Y24879500D01*
X28983691Y24860593D01*
X29019655Y24811093D01*
X29024500Y24780500D01*
X29024500Y20180429D01*
X29005593Y20122238D01*
X28995503Y20110425D01*
X28645901Y19760824D01*
X28591385Y19733047D01*
X28507178Y19719711D01*
X28319974Y19658884D01*
X28144596Y19569525D01*
X28144595Y19569524D01*
X28144439Y19569411D01*
X28144377Y19569391D01*
X28141281Y19567493D01*
X28140825Y19568237D01*
X28086250Y19550500D01*
X27025326Y19550500D01*
X27025325Y19550500D01*
X27025315Y19550499D01*
X26952263Y19535967D01*
X26952257Y19535965D01*
X26869400Y19480603D01*
X26869397Y19480600D01*
X26814035Y19397743D01*
X26814033Y19397737D01*
X26799501Y19324685D01*
X26799500Y19324673D01*
X26799500Y17675328D01*
X26799501Y17675316D01*
X26814033Y17602264D01*
X26814035Y17602258D01*
X26869397Y17519401D01*
X26869399Y17519399D01*
X26952260Y17464034D01*
X27007808Y17452985D01*
X27025315Y17449502D01*
X27025320Y17449502D01*
X27025326Y17449500D01*
X27450500Y17449500D01*
X27508691Y17430593D01*
X27544655Y17381093D01*
X27549500Y17350500D01*
X27549500Y9858982D01*
X27530593Y9800791D01*
X27520504Y9788978D01*
X27211022Y9479496D01*
X27156505Y9451719D01*
X27141018Y9450500D01*
X26275326Y9450500D01*
X26275325Y9450500D01*
X26275315Y9450499D01*
X26202263Y9435967D01*
X26202257Y9435965D01*
X26119400Y9380603D01*
X26119397Y9380600D01*
X26064035Y9297743D01*
X26064033Y9297737D01*
X26049501Y9224685D01*
X26049500Y9224673D01*
X26049500Y6775328D01*
X26049501Y6775316D01*
X26064033Y6702264D01*
X26064035Y6702258D01*
X26119397Y6619401D01*
X26119399Y6619399D01*
X26202260Y6564034D01*
X26257808Y6552985D01*
X26275315Y6549502D01*
X26275320Y6549502D01*
X26275326Y6549500D01*
X26275327Y6549500D01*
X28724673Y6549500D01*
X28724674Y6549500D01*
X28797740Y6564034D01*
X28880601Y6619399D01*
X28935966Y6702260D01*
X28950500Y6775326D01*
X28950500Y7641019D01*
X28969407Y7699210D01*
X28979490Y7711017D01*
X29753829Y8485355D01*
X29869524Y8644595D01*
X29958884Y8819974D01*
X30019709Y9007174D01*
X30050500Y9201584D01*
X30050500Y9398417D01*
X30050500Y17350500D01*
X30069407Y17408691D01*
X30118907Y17444655D01*
X30149500Y17449500D01*
X30574673Y17449500D01*
X30574674Y17449500D01*
X30647740Y17464034D01*
X30730601Y17519399D01*
X30785966Y17602260D01*
X30790903Y17627084D01*
X30799405Y17669816D01*
X30829302Y17723199D01*
X30884868Y17748814D01*
X30896502Y17749500D01*
X32611417Y17749500D01*
X32611418Y17749500D01*
X32756413Y17778342D01*
X32892995Y17834916D01*
X32942229Y17867814D01*
X33015916Y17917048D01*
X34219371Y19120506D01*
X34273888Y19148282D01*
X34289375Y19149501D01*
X34672867Y19149501D01*
X34672872Y19149501D01*
X34732483Y19155909D01*
X34799907Y19181057D01*
X34867329Y19206203D01*
X34867329Y19206204D01*
X34867331Y19206204D01*
X34982546Y19292454D01*
X35068796Y19407669D01*
X35078306Y19433165D01*
X35119089Y19542512D01*
X35119088Y19542512D01*
X35119091Y19542517D01*
X35125500Y19602127D01*
X35125499Y20322872D01*
X35119091Y20382483D01*
X35119089Y20382489D01*
X35068797Y20517330D01*
X34982549Y20632542D01*
X34982548Y20632543D01*
X34982546Y20632546D01*
X34982541Y20632550D01*
X34867329Y20718798D01*
X34732488Y20769090D01*
X34732483Y20769091D01*
X34732481Y20769092D01*
X34732477Y20769092D01*
X34701249Y20772450D01*
X34672873Y20775500D01*
X34672870Y20775500D01*
X33327133Y20775500D01*
X33327129Y20775500D01*
X33327128Y20775499D01*
X33319949Y20774728D01*
X33267519Y20769092D01*
X33267514Y20769091D01*
X33132670Y20718798D01*
X33017458Y20632550D01*
X33017450Y20632542D01*
X32931202Y20517330D01*
X32880910Y20382489D01*
X32880908Y20382478D01*
X32874500Y20322871D01*
X32874500Y19939377D01*
X32855593Y19881186D01*
X32845504Y19869373D01*
X32255628Y19279496D01*
X32201111Y19251719D01*
X32185624Y19250500D01*
X31059553Y19250500D01*
X31001362Y19269407D01*
X30965398Y19318907D01*
X30965398Y19380093D01*
X30968083Y19387373D01*
X30987052Y19433165D01*
X31025501Y19626460D01*
X31025501Y19823541D01*
X31025501Y19827618D01*
X31025500Y19827644D01*
X31025500Y25978540D01*
X31025499Y25978544D01*
X30987051Y26171835D01*
X30911632Y26353914D01*
X30867183Y26420436D01*
X30850499Y26475437D01*
X30850499Y27027867D01*
X30850499Y27027872D01*
X30844091Y27087483D01*
X30844089Y27087489D01*
X30793797Y27222330D01*
X30707549Y27337542D01*
X30707548Y27337543D01*
X30707546Y27337546D01*
X30707541Y27337550D01*
X30592329Y27423798D01*
X30457488Y27474090D01*
X30457483Y27474091D01*
X30457481Y27474092D01*
X30457477Y27474092D01*
X30426249Y27477450D01*
X30397873Y27480500D01*
X30397870Y27480500D01*
X29652133Y27480500D01*
X29652129Y27480500D01*
X29652128Y27480499D01*
X29644949Y27479728D01*
X29592519Y27474092D01*
X29592514Y27474091D01*
X29457670Y27423798D01*
X29342458Y27337550D01*
X29342450Y27337542D01*
X29256202Y27222330D01*
X29205910Y27087489D01*
X29205908Y27087478D01*
X29199500Y27027871D01*
X29199500Y26979500D01*
X29180593Y26921309D01*
X29131093Y26885345D01*
X29100500Y26880500D01*
X28029500Y26880500D01*
X27971309Y26899407D01*
X27935345Y26948907D01*
X27930500Y26979500D01*
X27930500Y28334673D01*
X27930498Y28334685D01*
X27927015Y28352192D01*
X27915966Y28407740D01*
X27860601Y28490601D01*
X27860599Y28490603D01*
X27777742Y28545965D01*
X27777740Y28545966D01*
X27777737Y28545967D01*
X27777736Y28545967D01*
X27704684Y28560499D01*
X27704674Y28560500D01*
X24295326Y28560500D01*
X24295325Y28560500D01*
X24295315Y28560499D01*
X24222263Y28545967D01*
X24222257Y28545965D01*
X24139400Y28490603D01*
X24139397Y28490600D01*
X24084035Y28407743D01*
X24084033Y28407737D01*
X24069501Y28334685D01*
X24069500Y28334673D01*
X24069500Y26979500D01*
X24050593Y26921309D01*
X24001093Y26885345D01*
X23970500Y26880500D01*
X21926456Y26880500D01*
X21829812Y26861277D01*
X21829812Y26861276D01*
X21805650Y26856470D01*
X21733161Y26842051D01*
X21733158Y26842050D01*
X21679834Y26819963D01*
X21679834Y26819962D01*
X21615460Y26793297D01*
X21551085Y26766632D01*
X21489566Y26725526D01*
X21428046Y26684420D01*
X21403571Y26668067D01*
X21387218Y26657140D01*
X18022864Y23292786D01*
X18022861Y23292782D01*
X17913367Y23128914D01*
X17837949Y22946837D01*
X17837949Y22946835D01*
X17799500Y22753544D01*
X17799500Y19649500D01*
X17780593Y19591309D01*
X17731093Y19555345D01*
X17700500Y19550500D01*
X17025326Y19550500D01*
X17025325Y19550500D01*
X17025315Y19550499D01*
X16952263Y19535967D01*
X16952257Y19535965D01*
X16869400Y19480603D01*
X16869397Y19480600D01*
X16814035Y19397743D01*
X16814033Y19397737D01*
X16799501Y19324685D01*
X16799500Y19324673D01*
X11000000Y19324673D01*
X11000000Y30901000D01*
X11018907Y30959191D01*
X11068407Y30995155D01*
X11099000Y31000000D01*
X24297789Y31000000D01*
X24355980Y30981093D01*
G37*
%TD.AperFunction*%
%TD*%
%TA.AperFunction,Conductor*%
%TO.N,/PGND*%
G36*
X40959191Y98981093D02*
G01*
X40995155Y98931593D01*
X41000000Y98901000D01*
X41000000Y72599000D01*
X40981093Y72540809D01*
X40931593Y72504845D01*
X40901000Y72500000D01*
X34981114Y72500000D01*
X34922923Y72518907D01*
X34886959Y72568407D01*
X34886959Y72629593D01*
X34921785Y72678253D01*
X34945100Y72695708D01*
X35007546Y72742454D01*
X35093796Y72857669D01*
X35097472Y72867523D01*
X35144089Y72992512D01*
X35144088Y72992512D01*
X35144091Y72992517D01*
X35150500Y73052127D01*
X35150499Y75147872D01*
X35144091Y75207483D01*
X35140493Y75217130D01*
X35093797Y75342330D01*
X35007549Y75457542D01*
X35007548Y75457543D01*
X35007546Y75457546D01*
X35007541Y75457550D01*
X34892329Y75543798D01*
X34757488Y75594090D01*
X34757483Y75594091D01*
X34757481Y75594092D01*
X34757477Y75594092D01*
X34726249Y75597450D01*
X34697873Y75600500D01*
X34697870Y75600500D01*
X33302133Y75600500D01*
X33302129Y75600500D01*
X33302128Y75600499D01*
X33294949Y75599728D01*
X33242519Y75594092D01*
X33242514Y75594091D01*
X33107670Y75543798D01*
X32992458Y75457550D01*
X32992450Y75457542D01*
X32906202Y75342330D01*
X32855910Y75207489D01*
X32855908Y75207478D01*
X32849500Y75147871D01*
X32849500Y74449500D01*
X32830593Y74391309D01*
X32781093Y74355345D01*
X32750500Y74350500D01*
X31331108Y74350500D01*
X31272917Y74369407D01*
X31238350Y74414902D01*
X31218796Y74467331D01*
X31183449Y74514548D01*
X31132549Y74582542D01*
X31132548Y74582543D01*
X31132546Y74582546D01*
X31132541Y74582550D01*
X31017329Y74668798D01*
X30882488Y74719090D01*
X30882483Y74719091D01*
X30882481Y74719092D01*
X30882477Y74719092D01*
X30851249Y74722450D01*
X30822873Y74725500D01*
X30822870Y74725500D01*
X30580796Y74725500D01*
X30522605Y74744407D01*
X30510792Y74754496D01*
X29879496Y75385793D01*
X29851719Y75440310D01*
X29850500Y75455797D01*
X29850500Y75600501D01*
X29869407Y75658692D01*
X29918907Y75694656D01*
X29949500Y75699501D01*
X30147867Y75699501D01*
X30147872Y75699501D01*
X30207483Y75705909D01*
X30286697Y75735454D01*
X30342329Y75756203D01*
X30342329Y75756204D01*
X30342331Y75756204D01*
X30457546Y75842454D01*
X30543796Y75957669D01*
X30594091Y76092517D01*
X30600500Y76152127D01*
X30600499Y76897872D01*
X30594091Y76957483D01*
X30589201Y76970593D01*
X30543797Y77092330D01*
X30457549Y77207542D01*
X30457548Y77207543D01*
X30457546Y77207546D01*
X30372453Y77271247D01*
X30337200Y77321256D01*
X30338074Y77382435D01*
X30374742Y77431416D01*
X30431782Y77449500D01*
X32750501Y77449500D01*
X32808692Y77430593D01*
X32844656Y77381093D01*
X32849501Y77350500D01*
X32849501Y77052130D01*
X32855908Y76992520D01*
X32855909Y76992515D01*
X32906202Y76857671D01*
X32987528Y76749034D01*
X32992454Y76742454D01*
X32992457Y76742452D01*
X32992458Y76742451D01*
X33107670Y76656203D01*
X33242511Y76605911D01*
X33242512Y76605911D01*
X33242517Y76605909D01*
X33302127Y76599500D01*
X34697872Y76599501D01*
X34757483Y76605909D01*
X34890712Y76655600D01*
X34892329Y76656203D01*
X34892329Y76656204D01*
X34892331Y76656204D01*
X35007546Y76742454D01*
X35093796Y76857669D01*
X35144091Y76992517D01*
X35150500Y77052127D01*
X35150499Y79147872D01*
X35144091Y79207483D01*
X35122452Y79265500D01*
X35093797Y79342330D01*
X35007549Y79457542D01*
X35007548Y79457543D01*
X35007546Y79457546D01*
X35007541Y79457550D01*
X34892329Y79543798D01*
X34757488Y79594090D01*
X34757483Y79594091D01*
X34757481Y79594092D01*
X34757477Y79594092D01*
X34726249Y79597450D01*
X34697873Y79600500D01*
X34697870Y79600500D01*
X33302133Y79600500D01*
X33302129Y79600500D01*
X33302128Y79600499D01*
X33294949Y79599728D01*
X33242519Y79594092D01*
X33242514Y79594091D01*
X33107670Y79543798D01*
X32992458Y79457550D01*
X32992450Y79457542D01*
X32906202Y79342330D01*
X32855910Y79207489D01*
X32855908Y79207478D01*
X32849500Y79147871D01*
X32849500Y78649500D01*
X32830593Y78591309D01*
X32781093Y78555345D01*
X32750500Y78550500D01*
X26099499Y78550500D01*
X26041308Y78569407D01*
X26005344Y78618907D01*
X26000499Y78649500D01*
X26000499Y79147867D01*
X26000499Y79147872D01*
X25994091Y79207483D01*
X25972452Y79265500D01*
X25943797Y79342330D01*
X25857549Y79457542D01*
X25857548Y79457543D01*
X25857546Y79457546D01*
X25857541Y79457550D01*
X25742329Y79543798D01*
X25607488Y79594090D01*
X25607483Y79594091D01*
X25607481Y79594092D01*
X25607477Y79594092D01*
X25576249Y79597450D01*
X25547873Y79600500D01*
X25547870Y79600500D01*
X24452133Y79600500D01*
X24452129Y79600500D01*
X24452128Y79600499D01*
X24444949Y79599728D01*
X24392519Y79594092D01*
X24392514Y79594091D01*
X24257670Y79543798D01*
X24142458Y79457550D01*
X24142450Y79457542D01*
X24056202Y79342330D01*
X24005910Y79207489D01*
X24005908Y79207478D01*
X23999500Y79147871D01*
X23999500Y77152134D01*
X23999501Y77152130D01*
X24005908Y77092520D01*
X24005909Y77092515D01*
X24056202Y76957671D01*
X24131064Y76857669D01*
X24142454Y76842454D01*
X24142457Y76842452D01*
X24142458Y76842451D01*
X24257670Y76756203D01*
X24360747Y76717758D01*
X24408662Y76679708D01*
X24425060Y76620761D01*
X24403678Y76563433D01*
X24360747Y76532242D01*
X24257670Y76493798D01*
X24142458Y76407550D01*
X24142450Y76407542D01*
X24056202Y76292330D01*
X24005910Y76157489D01*
X24005908Y76157478D01*
X23999500Y76097871D01*
X23999500Y75735454D01*
X23980593Y75677263D01*
X23970504Y75665451D01*
X23544720Y75239667D01*
X23489833Y75157519D01*
X23489832Y75157518D01*
X23473536Y75133131D01*
X23473535Y75133128D01*
X23424500Y75014748D01*
X23424499Y75014745D01*
X23424499Y75014744D01*
X23417336Y74978733D01*
X23399500Y74889070D01*
X23399500Y74408118D01*
X23380593Y74349927D01*
X23379790Y74348839D01*
X23356204Y74317331D01*
X23356202Y74317328D01*
X23355298Y74314903D01*
X23353951Y74313208D01*
X23352809Y74311115D01*
X23352446Y74311313D01*
X23317247Y74266988D01*
X23262540Y74250500D01*
X23063948Y74250500D01*
X23021846Y74242125D01*
X22961085Y74249317D01*
X22932529Y74269219D01*
X22929496Y74272252D01*
X22901719Y74326769D01*
X22900500Y74342256D01*
X22900500Y76646542D01*
X22919407Y76704733D01*
X22940712Y76726197D01*
X22962746Y76742459D01*
X22997150Y76767850D01*
X22997151Y76767852D01*
X22997152Y76767852D01*
X23063439Y76857669D01*
X23077793Y76877118D01*
X23122646Y77005301D01*
X23125499Y77035727D01*
X23125500Y77035727D01*
X23125500Y77694273D01*
X23125499Y77694275D01*
X23122646Y77724695D01*
X23122646Y77724699D01*
X23077793Y77852882D01*
X23077790Y77852886D01*
X22997154Y77962145D01*
X22997152Y77962147D01*
X22997150Y77962150D01*
X22997146Y77962153D01*
X22997144Y77962155D01*
X22887883Y78042793D01*
X22759703Y78087645D01*
X22759694Y78087647D01*
X22729274Y78090500D01*
X22729266Y78090500D01*
X22220734Y78090500D01*
X22220725Y78090500D01*
X22190305Y78087647D01*
X22190296Y78087645D01*
X22062116Y78042793D01*
X21952855Y77962155D01*
X21952845Y77962145D01*
X21872207Y77852884D01*
X21827355Y77724704D01*
X21827353Y77724695D01*
X21824500Y77694275D01*
X21824500Y77035726D01*
X21827353Y77005306D01*
X21827355Y77005297D01*
X21872207Y76877117D01*
X21952847Y76767852D01*
X21952849Y76767851D01*
X21952850Y76767850D01*
X21968630Y76756204D01*
X22009288Y76726197D01*
X22044881Y76676430D01*
X22049500Y76646542D01*
X22049500Y74181018D01*
X22049500Y74068982D01*
X22075072Y73973545D01*
X22078498Y73960759D01*
X22134513Y73863740D01*
X22134515Y73863737D01*
X22233161Y73765091D01*
X22260937Y73710576D01*
X22251366Y73650144D01*
X22233160Y73625085D01*
X21137072Y72528996D01*
X21082555Y72501219D01*
X21067068Y72500000D01*
X20424680Y72500000D01*
X20366489Y72518907D01*
X20331546Y72565428D01*
X20330488Y72568362D01*
X20252167Y72785634D01*
X19957866Y73602057D01*
X19952000Y73635629D01*
X19952000Y76178767D01*
X19951999Y76178770D01*
X19925402Y76312486D01*
X19923500Y76331800D01*
X19923500Y76499673D01*
X19923498Y76499685D01*
X19917022Y76532242D01*
X19908966Y76572740D01*
X19864359Y76639500D01*
X19853602Y76655600D01*
X19849206Y76659996D01*
X19821429Y76714513D01*
X19831000Y76774945D01*
X19849206Y76800004D01*
X19853597Y76804397D01*
X19853601Y76804399D01*
X19908966Y76887260D01*
X19913453Y76909815D01*
X19943350Y76963199D01*
X19998915Y76988814D01*
X20010550Y76989500D01*
X20112639Y76989500D01*
X20170830Y76970593D01*
X20206082Y76923199D01*
X20214947Y76897867D01*
X20222208Y76877115D01*
X20302845Y76767856D01*
X20302847Y76767854D01*
X20302850Y76767850D01*
X20302853Y76767848D01*
X20302855Y76767846D01*
X20412116Y76687208D01*
X20412117Y76687208D01*
X20412118Y76687207D01*
X20540301Y76642354D01*
X20570725Y76639501D01*
X20570727Y76639500D01*
X20570734Y76639500D01*
X21079273Y76639500D01*
X21079273Y76639501D01*
X21109699Y76642354D01*
X21237882Y76687207D01*
X21347150Y76767850D01*
X21427793Y76877118D01*
X21472646Y77005301D01*
X21475499Y77035727D01*
X21475500Y77035727D01*
X21475500Y77694273D01*
X21475499Y77694275D01*
X21472646Y77724695D01*
X21472646Y77724699D01*
X21427793Y77852882D01*
X21427790Y77852886D01*
X21347154Y77962145D01*
X21347152Y77962147D01*
X21347150Y77962150D01*
X21347146Y77962153D01*
X21347144Y77962155D01*
X21237883Y78042793D01*
X21109703Y78087645D01*
X21109694Y78087647D01*
X21079274Y78090500D01*
X21079266Y78090500D01*
X20570734Y78090500D01*
X20570725Y78090500D01*
X20540305Y78087647D01*
X20540296Y78087645D01*
X20412116Y78042793D01*
X20302855Y77962155D01*
X20302845Y77962145D01*
X20222208Y77852886D01*
X20222207Y77852882D01*
X20206082Y77806802D01*
X20169018Y77758122D01*
X20112639Y77740500D01*
X20010550Y77740500D01*
X19952359Y77759407D01*
X19916395Y77808907D01*
X19913453Y77820185D01*
X19911527Y77829863D01*
X19908966Y77842740D01*
X19853601Y77925601D01*
X19849206Y77929996D01*
X19821429Y77984513D01*
X19831000Y78044945D01*
X19849206Y78070004D01*
X19853597Y78074397D01*
X19853601Y78074399D01*
X19908966Y78157260D01*
X19913453Y78179815D01*
X19943350Y78233199D01*
X19998915Y78258814D01*
X20010550Y78259500D01*
X20309435Y78259500D01*
X20309436Y78259500D01*
X20365457Y78274511D01*
X20404938Y78285090D01*
X20490562Y78334525D01*
X20560475Y78404438D01*
X20560474Y78404438D01*
X20601541Y78445505D01*
X20656057Y78473281D01*
X20671544Y78474500D01*
X21079273Y78474500D01*
X21079273Y78474501D01*
X21109699Y78477354D01*
X21237882Y78522207D01*
X21347150Y78602850D01*
X21427793Y78712118D01*
X21472646Y78840301D01*
X21475499Y78870727D01*
X21475500Y78870727D01*
X21475500Y79278455D01*
X21494407Y79336646D01*
X21504496Y79348459D01*
X21950474Y79794437D01*
X21950475Y79794437D01*
X21999908Y79880059D01*
X21999910Y79880062D01*
X22012705Y79927814D01*
X22025500Y79975564D01*
X22025500Y80074436D01*
X22025500Y83374435D01*
X21999910Y83469938D01*
X21999908Y83469941D01*
X21999908Y83469943D01*
X21950476Y83555560D01*
X21950475Y83555562D01*
X21880562Y83625475D01*
X21880559Y83625477D01*
X21794941Y83674909D01*
X21794943Y83674909D01*
X21757885Y83684839D01*
X21699435Y83700500D01*
X21699433Y83700500D01*
X19856859Y83700500D01*
X19798668Y83719407D01*
X19777208Y83740707D01*
X19698650Y83847150D01*
X19698646Y83847153D01*
X19698644Y83847155D01*
X19589383Y83927793D01*
X19461203Y83972645D01*
X19461194Y83972647D01*
X19430774Y83975500D01*
X19430766Y83975500D01*
X18772234Y83975500D01*
X18772225Y83975500D01*
X18741805Y83972647D01*
X18741796Y83972645D01*
X18613616Y83927793D01*
X18504355Y83847155D01*
X18504345Y83847145D01*
X18423707Y83737884D01*
X18378855Y83609704D01*
X18378853Y83609695D01*
X18376000Y83579275D01*
X18376000Y83070726D01*
X18378853Y83040306D01*
X18378855Y83040297D01*
X18423707Y82912117D01*
X18504345Y82802856D01*
X18504347Y82802854D01*
X18504350Y82802850D01*
X18504353Y82802848D01*
X18504355Y82802846D01*
X18613616Y82722208D01*
X18613617Y82722208D01*
X18613618Y82722207D01*
X18741801Y82677354D01*
X18772225Y82674501D01*
X18772227Y82674500D01*
X18772234Y82674500D01*
X19430773Y82674500D01*
X19430773Y82674501D01*
X19461199Y82677354D01*
X19589382Y82722207D01*
X19698650Y82802850D01*
X19777205Y82909291D01*
X19826971Y82944881D01*
X19856859Y82949500D01*
X21175500Y82949500D01*
X21233691Y82930593D01*
X21269655Y82881093D01*
X21274500Y82850500D01*
X21274500Y80221545D01*
X21255593Y80163354D01*
X21245504Y80151541D01*
X21048459Y79954496D01*
X20993942Y79926719D01*
X20978455Y79925500D01*
X20570725Y79925500D01*
X20540305Y79922647D01*
X20540296Y79922645D01*
X20412116Y79877793D01*
X20302855Y79797155D01*
X20302845Y79797145D01*
X20222207Y79687884D01*
X20177355Y79559704D01*
X20177353Y79559695D01*
X20174500Y79529275D01*
X20174500Y79121545D01*
X20155593Y79063354D01*
X20145506Y79051544D01*
X20133462Y79039499D01*
X20078947Y79011719D01*
X20063456Y79010500D01*
X20010550Y79010500D01*
X19952359Y79029407D01*
X19916395Y79078907D01*
X19913453Y79090185D01*
X19911527Y79099863D01*
X19908966Y79112740D01*
X19853601Y79195601D01*
X19849206Y79199996D01*
X19821429Y79254513D01*
X19831000Y79314945D01*
X19849206Y79340004D01*
X19853597Y79344397D01*
X19853601Y79344399D01*
X19908966Y79427260D01*
X19923500Y79500326D01*
X19923500Y80309674D01*
X19923500Y80309677D01*
X19923498Y80309685D01*
X19913179Y80361559D01*
X19908966Y80382740D01*
X19908964Y80382743D01*
X19853602Y80465600D01*
X19853599Y80465603D01*
X19770742Y80520965D01*
X19770740Y80520966D01*
X19770737Y80520967D01*
X19770736Y80520967D01*
X19697684Y80535499D01*
X19697674Y80535500D01*
X19697673Y80535500D01*
X19576000Y80535500D01*
X19517809Y80554407D01*
X19481845Y80603907D01*
X19477000Y80634500D01*
X19477000Y80962639D01*
X19495907Y81020830D01*
X19543301Y81056083D01*
X19589382Y81072207D01*
X19698650Y81152850D01*
X19779293Y81262118D01*
X19824146Y81390301D01*
X19826999Y81420727D01*
X19827000Y81420727D01*
X19827000Y81929273D01*
X19826999Y81929275D01*
X19824146Y81959695D01*
X19824146Y81959699D01*
X19779293Y82087882D01*
X19698650Y82197150D01*
X19698646Y82197153D01*
X19698644Y82197155D01*
X19589383Y82277793D01*
X19461203Y82322645D01*
X19461194Y82322647D01*
X19430774Y82325500D01*
X19430766Y82325500D01*
X18772234Y82325500D01*
X18772225Y82325500D01*
X18741805Y82322647D01*
X18741796Y82322645D01*
X18613616Y82277793D01*
X18504355Y82197155D01*
X18504345Y82197145D01*
X18423707Y82087884D01*
X18378855Y81959704D01*
X18378853Y81959695D01*
X18376000Y81929275D01*
X18376000Y81420726D01*
X18378853Y81390306D01*
X18378855Y81390297D01*
X18423707Y81262117D01*
X18504345Y81152856D01*
X18504347Y81152854D01*
X18504350Y81152850D01*
X18504353Y81152848D01*
X18504355Y81152846D01*
X18613614Y81072209D01*
X18613616Y81072209D01*
X18613618Y81072207D01*
X18659698Y81056083D01*
X18708378Y81019018D01*
X18726000Y80962639D01*
X18726000Y80634500D01*
X18707093Y80576309D01*
X18657593Y80540345D01*
X18627000Y80535500D01*
X18505326Y80535500D01*
X18505325Y80535500D01*
X18505315Y80535499D01*
X18432263Y80520967D01*
X18432257Y80520965D01*
X18349400Y80465603D01*
X18349397Y80465600D01*
X18294035Y80382743D01*
X18294033Y80382737D01*
X18279501Y80309685D01*
X18279500Y80309677D01*
X18279500Y79500328D01*
X18279501Y79500316D01*
X18294033Y79427264D01*
X18294035Y79427258D01*
X18349397Y79344401D01*
X18353794Y79340004D01*
X18381571Y79285487D01*
X18372000Y79225055D01*
X18353794Y79199996D01*
X18349397Y79195600D01*
X18294035Y79112743D01*
X18294033Y79112737D01*
X18279501Y79039685D01*
X18279500Y79039673D01*
X18279500Y78230328D01*
X18279501Y78230316D01*
X18294033Y78157264D01*
X18294035Y78157258D01*
X18349397Y78074401D01*
X18353794Y78070004D01*
X18381571Y78015487D01*
X18372000Y77955055D01*
X18353794Y77929996D01*
X18349397Y77925600D01*
X18294035Y77842743D01*
X18294033Y77842737D01*
X18279501Y77769685D01*
X18279500Y77769673D01*
X18279500Y76960328D01*
X18279501Y76960316D01*
X18294033Y76887264D01*
X18294035Y76887258D01*
X18349397Y76804401D01*
X18353794Y76800004D01*
X18381571Y76745487D01*
X18372000Y76685055D01*
X18353794Y76659996D01*
X18349397Y76655600D01*
X18294035Y76572743D01*
X18294033Y76572737D01*
X18279501Y76499685D01*
X18279500Y76499673D01*
X18279500Y76331800D01*
X18277598Y76312486D01*
X18251000Y76178770D01*
X18251000Y73491911D01*
X18250892Y73487287D01*
X18248015Y73425764D01*
X18249894Y73413301D01*
X18251000Y73398542D01*
X18251000Y73385945D01*
X18263012Y73325556D01*
X18263808Y73321002D01*
X18272990Y73260102D01*
X18277261Y73248253D01*
X18281224Y73233996D01*
X18283681Y73221642D01*
X18283684Y73221632D01*
X18307247Y73164746D01*
X18308917Y73160434D01*
X18499199Y72632573D01*
X18501145Y72571418D01*
X18466774Y72520799D01*
X18409215Y72500050D01*
X18406065Y72500000D01*
X8599000Y72500000D01*
X8540809Y72518907D01*
X8504845Y72568407D01*
X8500000Y72599000D01*
X8500000Y77512871D01*
X11149500Y77512871D01*
X11149500Y75217134D01*
X11149500Y75217131D01*
X11149501Y75217128D01*
X11150538Y75207483D01*
X11155908Y75157520D01*
X11155908Y75157519D01*
X11155909Y75157517D01*
X11165006Y75133127D01*
X11206202Y75022671D01*
X11239096Y74978731D01*
X11292454Y74907454D01*
X11292457Y74907452D01*
X11292458Y74907451D01*
X11407670Y74821203D01*
X11542511Y74770911D01*
X11542512Y74770911D01*
X11542517Y74770909D01*
X11602127Y74764500D01*
X12347872Y74764501D01*
X12407483Y74770909D01*
X12474907Y74796057D01*
X12542329Y74821203D01*
X12542329Y74821204D01*
X12542331Y74821204D01*
X12657546Y74907454D01*
X12743796Y75022669D01*
X12794091Y75157517D01*
X12800500Y75217127D01*
X12800499Y76565501D01*
X12819406Y76623691D01*
X12868906Y76659655D01*
X12899499Y76664500D01*
X13967492Y76664500D01*
X13967493Y76664500D01*
X14102828Y76691420D01*
X14188640Y76726965D01*
X14226524Y76734500D01*
X14494673Y76734500D01*
X14494674Y76734500D01*
X14567740Y76749034D01*
X14650601Y76804399D01*
X14705966Y76887260D01*
X14720500Y76960326D01*
X14720500Y77769674D01*
X14705966Y77842740D01*
X14650601Y77925601D01*
X14646206Y77929996D01*
X14618429Y77984513D01*
X14628000Y78044945D01*
X14646206Y78070004D01*
X14650597Y78074397D01*
X14650601Y78074399D01*
X14705966Y78157260D01*
X14720500Y78230326D01*
X14720500Y79039674D01*
X14705966Y79112740D01*
X14650601Y79195601D01*
X14646206Y79199996D01*
X14618429Y79254513D01*
X14628000Y79314945D01*
X14646206Y79340004D01*
X14650597Y79344397D01*
X14650601Y79344399D01*
X14705966Y79427260D01*
X14720500Y79500326D01*
X14720500Y80154956D01*
X14739407Y80213147D01*
X14749490Y80224954D01*
X14800474Y80275937D01*
X14819952Y80309674D01*
X14849910Y80361562D01*
X14875500Y80457065D01*
X14875500Y83978455D01*
X14894407Y84036646D01*
X14904496Y84048459D01*
X16101542Y85245504D01*
X16156059Y85273281D01*
X16171546Y85274500D01*
X16579273Y85274500D01*
X16579273Y85274501D01*
X16609699Y85277354D01*
X16737882Y85322207D01*
X16847150Y85402850D01*
X16920345Y85502026D01*
X16970112Y85537619D01*
X17031296Y85537161D01*
X17079655Y85502026D01*
X17152845Y85402856D01*
X17152850Y85402850D01*
X17152853Y85402848D01*
X17152855Y85402846D01*
X17262116Y85322208D01*
X17262117Y85322208D01*
X17262118Y85322207D01*
X17390301Y85277354D01*
X17420725Y85274501D01*
X17420727Y85274500D01*
X17420734Y85274500D01*
X17929273Y85274500D01*
X17929273Y85274501D01*
X17959699Y85277354D01*
X18087882Y85322207D01*
X18197150Y85402850D01*
X18277793Y85512118D01*
X18322646Y85640301D01*
X18325499Y85670727D01*
X18325500Y85670727D01*
X18325500Y86329273D01*
X18325499Y86329275D01*
X18322646Y86359695D01*
X18322646Y86359699D01*
X18277793Y86487882D01*
X18270344Y86497975D01*
X18197154Y86597145D01*
X18197152Y86597147D01*
X18197150Y86597150D01*
X18197146Y86597153D01*
X18197144Y86597155D01*
X18087883Y86677793D01*
X17959703Y86722645D01*
X17959694Y86722647D01*
X17929274Y86725500D01*
X17929266Y86725500D01*
X17420734Y86725500D01*
X17420725Y86725500D01*
X17390305Y86722647D01*
X17390296Y86722645D01*
X17262116Y86677793D01*
X17152855Y86597155D01*
X17152845Y86597145D01*
X17079655Y86497975D01*
X17029887Y86462382D01*
X16968704Y86462840D01*
X16920345Y86497975D01*
X16847154Y86597145D01*
X16847152Y86597147D01*
X16847150Y86597150D01*
X16847146Y86597153D01*
X16847144Y86597155D01*
X16737883Y86677793D01*
X16609703Y86722645D01*
X16609694Y86722647D01*
X16579274Y86725500D01*
X16579266Y86725500D01*
X16070734Y86725500D01*
X16070725Y86725500D01*
X16040305Y86722647D01*
X16040296Y86722645D01*
X15912116Y86677793D01*
X15802855Y86597155D01*
X15802845Y86597145D01*
X15722207Y86487884D01*
X15677355Y86359704D01*
X15677353Y86359695D01*
X15674500Y86329275D01*
X15674500Y85921546D01*
X15655593Y85863355D01*
X15645504Y85851542D01*
X15494504Y85700542D01*
X15439987Y85672765D01*
X15379555Y85682336D01*
X15336290Y85725601D01*
X15325500Y85770546D01*
X15325500Y86329273D01*
X15325499Y86329275D01*
X15322646Y86359695D01*
X15322646Y86359699D01*
X15277793Y86487882D01*
X15270344Y86497975D01*
X15197154Y86597145D01*
X15197152Y86597147D01*
X15197150Y86597150D01*
X15197146Y86597153D01*
X15197144Y86597155D01*
X15087883Y86677793D01*
X14959703Y86722645D01*
X14959694Y86722647D01*
X14929274Y86725500D01*
X14929266Y86725500D01*
X14420734Y86725500D01*
X14420725Y86725500D01*
X14390305Y86722647D01*
X14390296Y86722645D01*
X14262116Y86677793D01*
X14152855Y86597155D01*
X14152845Y86597145D01*
X14072207Y86487884D01*
X14027355Y86359704D01*
X14027353Y86359695D01*
X14024500Y86329275D01*
X14024500Y85670726D01*
X14027353Y85640306D01*
X14027355Y85640297D01*
X14072207Y85512117D01*
X14152845Y85402856D01*
X14152846Y85402855D01*
X14152850Y85402850D01*
X14152853Y85402848D01*
X14152855Y85402846D01*
X14262116Y85322208D01*
X14262117Y85322208D01*
X14262118Y85322207D01*
X14390301Y85277354D01*
X14420725Y85274501D01*
X14420727Y85274500D01*
X14829455Y85274500D01*
X14887646Y85255593D01*
X14923610Y85206093D01*
X14923610Y85144907D01*
X14899461Y85105500D01*
X14269438Y84475475D01*
X14269437Y84475476D01*
X14199524Y84405562D01*
X14150091Y84319943D01*
X14124500Y84224434D01*
X14124500Y80703045D01*
X14105593Y80644854D01*
X14095504Y80633041D01*
X14026959Y80564496D01*
X13972442Y80536719D01*
X13956955Y80535500D01*
X13302326Y80535500D01*
X13302325Y80535500D01*
X13302315Y80535499D01*
X13229263Y80520967D01*
X13229257Y80520965D01*
X13146400Y80465603D01*
X13146397Y80465600D01*
X13091035Y80382743D01*
X13091033Y80382737D01*
X13076501Y80309685D01*
X13076500Y80309677D01*
X13076500Y79500328D01*
X13076501Y79500316D01*
X13091033Y79427264D01*
X13091035Y79427258D01*
X13146397Y79344401D01*
X13150794Y79340004D01*
X13178571Y79285487D01*
X13169000Y79225055D01*
X13150794Y79199996D01*
X13146394Y79195597D01*
X13129876Y79170875D01*
X13081827Y79132995D01*
X13020688Y79130593D01*
X12969815Y79164586D01*
X12954805Y79191274D01*
X12921628Y79280226D01*
X12839687Y79389687D01*
X12749043Y79457542D01*
X12730228Y79471627D01*
X12730226Y79471628D01*
X12602114Y79519412D01*
X12602113Y79519413D01*
X12563895Y79523521D01*
X12545485Y79525500D01*
X12545481Y79525500D01*
X12004521Y79525500D01*
X12004515Y79525499D01*
X11947888Y79519413D01*
X11947886Y79519412D01*
X11819774Y79471628D01*
X11819773Y79471628D01*
X11819772Y79471627D01*
X11710315Y79389689D01*
X11710311Y79389685D01*
X11628373Y79280229D01*
X11580587Y79152113D01*
X11574500Y79095482D01*
X11574500Y78504522D01*
X11574501Y78504516D01*
X11580587Y78447889D01*
X11580587Y78447888D01*
X11580588Y78447886D01*
X11628372Y78319774D01*
X11710313Y78210313D01*
X11740325Y78187846D01*
X11775579Y78137839D01*
X11774705Y78076660D01*
X11738039Y78027678D01*
X11718884Y78017129D01*
X11714920Y78015487D01*
X11643189Y77985775D01*
X11643187Y77985775D01*
X11643185Y77985773D01*
X11635117Y77980383D01*
X11590708Y77964272D01*
X11549687Y77959862D01*
X11542517Y77959091D01*
X11542514Y77959091D01*
X11407670Y77908798D01*
X11292458Y77822550D01*
X11292450Y77822542D01*
X11206202Y77707330D01*
X11155910Y77572489D01*
X11155908Y77572478D01*
X11149500Y77512871D01*
X8500000Y77512871D01*
X8500000Y92847871D01*
X11999500Y92847871D01*
X11999500Y92202134D01*
X11999501Y92202130D01*
X12005908Y92142520D01*
X12005909Y92142515D01*
X12056202Y92007671D01*
X12101067Y91947740D01*
X12142454Y91892454D01*
X12142457Y91892452D01*
X12142458Y91892451D01*
X12257670Y91806203D01*
X12360747Y91767758D01*
X12408662Y91729708D01*
X12425060Y91670761D01*
X12403678Y91613433D01*
X12360747Y91582242D01*
X12257670Y91543798D01*
X12142458Y91457550D01*
X12142450Y91457542D01*
X12056202Y91342330D01*
X12005910Y91207489D01*
X12005908Y91207478D01*
X11999500Y91147871D01*
X11999500Y89152134D01*
X11999501Y89152130D01*
X12005908Y89092520D01*
X12005909Y89092515D01*
X12056202Y88957671D01*
X12142450Y88842459D01*
X12142454Y88842454D01*
X12209829Y88792018D01*
X12245082Y88742010D01*
X12249500Y88712765D01*
X12249500Y88426082D01*
X12278342Y88281087D01*
X12334916Y88144505D01*
X12417049Y88021584D01*
X12521584Y87917049D01*
X12644505Y87834916D01*
X12781087Y87778342D01*
X12926082Y87749500D01*
X12926083Y87749500D01*
X18998917Y87749500D01*
X18998918Y87749500D01*
X19143913Y87778342D01*
X19280495Y87834916D01*
X19329729Y87867814D01*
X19352188Y87882821D01*
X19407183Y87899500D01*
X21674673Y87899500D01*
X21674674Y87899500D01*
X21747740Y87914034D01*
X21830601Y87969399D01*
X21885966Y88052260D01*
X21900500Y88125326D01*
X21900500Y91874673D01*
X24099500Y91874673D01*
X24099500Y88125328D01*
X24099501Y88125316D01*
X24114033Y88052264D01*
X24114035Y88052258D01*
X24169397Y87969401D01*
X24169399Y87969399D01*
X24252260Y87914034D01*
X24307808Y87902985D01*
X24325315Y87899502D01*
X24325320Y87899502D01*
X24325326Y87899500D01*
X24325327Y87899500D01*
X26824673Y87899500D01*
X26824674Y87899500D01*
X26897740Y87914034D01*
X26980601Y87969399D01*
X27035966Y88052260D01*
X27050500Y88125326D01*
X27050500Y89150500D01*
X27069407Y89208691D01*
X27118907Y89244655D01*
X27149500Y89249500D01*
X29266292Y89249500D01*
X29324483Y89230593D01*
X29360447Y89181093D01*
X29360447Y89119907D01*
X29359057Y89115926D01*
X29355910Y89107486D01*
X29355910Y89107485D01*
X29355908Y89107478D01*
X29349500Y89047871D01*
X29349500Y86952134D01*
X29349501Y86952130D01*
X29355908Y86892520D01*
X29355909Y86892515D01*
X29406202Y86757671D01*
X29432421Y86722647D01*
X29492454Y86642454D01*
X29492457Y86642452D01*
X29492458Y86642451D01*
X29607670Y86556203D01*
X29742511Y86505911D01*
X29742512Y86505911D01*
X29742517Y86505909D01*
X29802127Y86499500D01*
X33797872Y86499501D01*
X33857483Y86505909D01*
X33924907Y86531057D01*
X33992329Y86556203D01*
X33992329Y86556204D01*
X33992331Y86556204D01*
X34107546Y86642454D01*
X34193796Y86757669D01*
X34244091Y86892517D01*
X34250500Y86952127D01*
X34250499Y89047872D01*
X34244091Y89107483D01*
X34227439Y89152130D01*
X34193797Y89242330D01*
X34107549Y89357542D01*
X34107548Y89357543D01*
X34107546Y89357546D01*
X34107541Y89357550D01*
X33992329Y89443798D01*
X33857488Y89494090D01*
X33857483Y89494091D01*
X33857481Y89494092D01*
X33857477Y89494092D01*
X33826249Y89497450D01*
X33797873Y89500500D01*
X33797870Y89500500D01*
X31401876Y89500500D01*
X31343685Y89519407D01*
X31331872Y89529496D01*
X31234492Y89626876D01*
X30278416Y90582952D01*
X30204729Y90632187D01*
X30155495Y90665084D01*
X30155494Y90665085D01*
X30155492Y90665086D01*
X30018914Y90721658D01*
X29873918Y90750500D01*
X27149500Y90750500D01*
X27091309Y90769407D01*
X27055345Y90818907D01*
X27050500Y90849500D01*
X27050500Y91874673D01*
X27050498Y91874685D01*
X27046962Y91892459D01*
X27035966Y91947740D01*
X27035964Y91947743D01*
X26980602Y92030600D01*
X26980599Y92030603D01*
X26897742Y92085965D01*
X26897740Y92085966D01*
X26897737Y92085967D01*
X26897736Y92085967D01*
X26824684Y92100499D01*
X26824674Y92100500D01*
X24325326Y92100500D01*
X24325325Y92100500D01*
X24325315Y92100499D01*
X24252263Y92085967D01*
X24252257Y92085965D01*
X24169400Y92030603D01*
X24169397Y92030600D01*
X24114035Y91947743D01*
X24114033Y91947737D01*
X24099501Y91874685D01*
X24099500Y91874673D01*
X21900500Y91874673D01*
X21900500Y91874674D01*
X21885966Y91947740D01*
X21885964Y91947743D01*
X21830602Y92030600D01*
X21830599Y92030603D01*
X21747742Y92085965D01*
X21747740Y92085966D01*
X21747737Y92085967D01*
X21747736Y92085967D01*
X21674684Y92100499D01*
X21674674Y92100500D01*
X19175326Y92100500D01*
X19175325Y92100500D01*
X19175315Y92100499D01*
X19102263Y92085967D01*
X19102257Y92085965D01*
X19019400Y92030603D01*
X19019397Y92030600D01*
X18964035Y91947743D01*
X18964033Y91947737D01*
X18949501Y91874685D01*
X18949500Y91874673D01*
X18949500Y89626876D01*
X18930593Y89568685D01*
X18920504Y89556872D01*
X18643128Y89279496D01*
X18588611Y89251719D01*
X18573124Y89250500D01*
X14099500Y89250500D01*
X14041309Y89269407D01*
X14005345Y89318907D01*
X14000500Y89349500D01*
X14000499Y91147867D01*
X14000499Y91147872D01*
X13994091Y91207483D01*
X13994089Y91207489D01*
X13943797Y91342330D01*
X13857549Y91457542D01*
X13857548Y91457543D01*
X13857546Y91457546D01*
X13857541Y91457550D01*
X13742329Y91543798D01*
X13639252Y91582242D01*
X13591337Y91620292D01*
X13574939Y91679239D01*
X13596320Y91736567D01*
X13639252Y91767758D01*
X13742329Y91806203D01*
X13742329Y91806204D01*
X13742331Y91806204D01*
X13857546Y91892454D01*
X13943796Y92007669D01*
X13972999Y92085965D01*
X13994089Y92142512D01*
X13994090Y92142515D01*
X13994091Y92142517D01*
X14000500Y92202127D01*
X14000499Y92847872D01*
X13994091Y92907483D01*
X13994089Y92907489D01*
X13943798Y93042328D01*
X13870246Y93140581D01*
X13850510Y93198496D01*
X13850500Y93199910D01*
X13850500Y95825500D01*
X13869407Y95883691D01*
X13918907Y95919655D01*
X13949500Y95924500D01*
X14424673Y95924500D01*
X14424674Y95924500D01*
X14497740Y95939034D01*
X14580601Y95994399D01*
X14635966Y96077260D01*
X14650500Y96150326D01*
X14650500Y97849673D01*
X16349500Y97849673D01*
X16349500Y96150328D01*
X16349501Y96150316D01*
X16364033Y96077264D01*
X16364035Y96077258D01*
X16419397Y95994401D01*
X16419399Y95994399D01*
X16502260Y95939034D01*
X16557808Y95927985D01*
X16575315Y95924502D01*
X16575320Y95924502D01*
X16575326Y95924500D01*
X16575327Y95924500D01*
X17874673Y95924500D01*
X17874674Y95924500D01*
X17947740Y95939034D01*
X18030601Y95994399D01*
X18085966Y96077260D01*
X18085967Y96077264D01*
X18089696Y96086266D01*
X18092946Y96084920D01*
X18114371Y96123189D01*
X18169933Y96148812D01*
X18181582Y96149500D01*
X20950500Y96149500D01*
X21008691Y96130593D01*
X21044655Y96081093D01*
X21049500Y96050500D01*
X21049500Y95775328D01*
X21049501Y95775316D01*
X21064033Y95702264D01*
X21064035Y95702258D01*
X21119397Y95619401D01*
X21119399Y95619399D01*
X21202260Y95564034D01*
X21257808Y95552985D01*
X21275315Y95549502D01*
X21275320Y95549502D01*
X21275326Y95549500D01*
X21275327Y95549500D01*
X23724673Y95549500D01*
X23724674Y95549500D01*
X23797740Y95564034D01*
X23880601Y95619399D01*
X23935966Y95702260D01*
X23950500Y95775326D01*
X23950500Y97118057D01*
X26000000Y97118057D01*
X26000000Y96881944D01*
X26036934Y96648748D01*
X26036935Y96648744D01*
X26109892Y96424207D01*
X26109894Y96424204D01*
X26217084Y96213831D01*
X26277339Y96130895D01*
X26898957Y96752514D01*
X26923978Y96692110D01*
X26995112Y96585649D01*
X27085649Y96495112D01*
X27192110Y96423978D01*
X27252511Y96398959D01*
X26630893Y95777341D01*
X26713825Y95717087D01*
X26713829Y95717085D01*
X26924203Y95609895D01*
X26924206Y95609893D01*
X27148743Y95536936D01*
X27148747Y95536935D01*
X27381944Y95500000D01*
X27618056Y95500000D01*
X27851252Y95536935D01*
X27851256Y95536936D01*
X28075793Y95609893D01*
X28075796Y95609895D01*
X28286170Y95717085D01*
X28286176Y95717089D01*
X28369105Y95777341D01*
X28369105Y95777342D01*
X27747488Y96398959D01*
X27807890Y96423978D01*
X27914351Y96495112D01*
X28004888Y96585649D01*
X28076022Y96692110D01*
X28101041Y96752512D01*
X28722658Y96130895D01*
X28722659Y96130895D01*
X28782911Y96213824D01*
X28782915Y96213830D01*
X28890105Y96424204D01*
X28890107Y96424207D01*
X28963064Y96648744D01*
X28963065Y96648748D01*
X29000000Y96881944D01*
X29000000Y97118057D01*
X28963065Y97351253D01*
X28963064Y97351257D01*
X28890107Y97575794D01*
X28890105Y97575797D01*
X28782915Y97786171D01*
X28782913Y97786175D01*
X28722659Y97869107D01*
X28101041Y97247489D01*
X28076022Y97307890D01*
X28004888Y97414351D01*
X27914351Y97504888D01*
X27807890Y97576022D01*
X27747486Y97601043D01*
X28369105Y98222661D01*
X28286169Y98282916D01*
X28075796Y98390106D01*
X28075793Y98390108D01*
X27851256Y98463065D01*
X27851252Y98463066D01*
X27618056Y98500000D01*
X27381944Y98500000D01*
X27148747Y98463066D01*
X27148743Y98463065D01*
X26924206Y98390108D01*
X26924203Y98390106D01*
X26713823Y98282912D01*
X26630893Y98222661D01*
X27252512Y97601042D01*
X27192110Y97576022D01*
X27085649Y97504888D01*
X26995112Y97414351D01*
X26923978Y97307890D01*
X26898958Y97247488D01*
X26277339Y97869107D01*
X26217088Y97786177D01*
X26109894Y97575797D01*
X26109892Y97575794D01*
X26036935Y97351257D01*
X26036934Y97351253D01*
X26000000Y97118057D01*
X23950500Y97118057D01*
X23950500Y98224674D01*
X23935966Y98297740D01*
X23880601Y98380601D01*
X23880599Y98380603D01*
X23797742Y98435965D01*
X23797740Y98435966D01*
X23797737Y98435967D01*
X23797736Y98435967D01*
X23724684Y98450499D01*
X23724674Y98450500D01*
X21275326Y98450500D01*
X21275325Y98450500D01*
X21275315Y98450499D01*
X21202263Y98435967D01*
X21202257Y98435965D01*
X21119400Y98380603D01*
X21119397Y98380600D01*
X21064035Y98297743D01*
X21064033Y98297737D01*
X21049501Y98224685D01*
X21049500Y98224673D01*
X21049500Y97949500D01*
X21030593Y97891309D01*
X20981093Y97855345D01*
X20950500Y97850500D01*
X18181582Y97850500D01*
X18123391Y97869407D01*
X18090840Y97914209D01*
X18089696Y97913734D01*
X18087721Y97918503D01*
X18087427Y97918907D01*
X18087212Y97919732D01*
X18085965Y97922742D01*
X18030602Y98005600D01*
X18030599Y98005603D01*
X17947742Y98060965D01*
X17947740Y98060966D01*
X17947737Y98060967D01*
X17947736Y98060967D01*
X17874684Y98075499D01*
X17874674Y98075500D01*
X16575326Y98075500D01*
X16575325Y98075500D01*
X16575315Y98075499D01*
X16502263Y98060967D01*
X16502257Y98060965D01*
X16419400Y98005603D01*
X16419397Y98005600D01*
X16364035Y97922743D01*
X16364033Y97922737D01*
X16349501Y97849685D01*
X16349500Y97849673D01*
X14650500Y97849673D01*
X14650500Y97849674D01*
X14635966Y97922740D01*
X14580601Y98005601D01*
X14580599Y98005603D01*
X14497742Y98060965D01*
X14497740Y98060966D01*
X14497737Y98060967D01*
X14497736Y98060967D01*
X14424684Y98075499D01*
X14424674Y98075500D01*
X13125326Y98075500D01*
X13125325Y98075500D01*
X13125315Y98075499D01*
X13052263Y98060967D01*
X13052257Y98060965D01*
X12969400Y98005603D01*
X12969397Y98005600D01*
X12914035Y97922743D01*
X12914033Y97922737D01*
X12899501Y97849685D01*
X12899500Y97849673D01*
X12899500Y97368297D01*
X12880593Y97310106D01*
X12870504Y97298293D01*
X12339376Y96767166D01*
X12339373Y96767162D01*
X12246299Y96627870D01*
X12246293Y96627859D01*
X12223759Y96573454D01*
X12182184Y96473084D01*
X12182184Y96473082D01*
X12149500Y96308770D01*
X12149500Y93199910D01*
X12130593Y93141719D01*
X12129754Y93140581D01*
X12056201Y93042328D01*
X12005910Y92907489D01*
X12005908Y92907478D01*
X11999500Y92847871D01*
X8500000Y92847871D01*
X8500000Y98901000D01*
X8518907Y98959191D01*
X8568407Y98995155D01*
X8599000Y99000000D01*
X40901000Y99000000D01*
X40959191Y98981093D01*
G37*
%TD.AperFunction*%
%TD*%
M02*
