%TF.GenerationSoftware,KiCad,Pcbnew,10.0.6*%
%TF.CreationDate,2026-10-08T10:25:58-04:00*%
%TF.ProjectId,PS-FLYBACK-5W,50532d46-4c59-4424-9143-4b2d35572e6b,A2-development*%
%TF.SameCoordinates,Original*%
%TF.FileFunction,Copper,L3,Inr*%
%TF.FilePolarity,Positive*%
%FSLAX46Y46*%
G04 Gerber Fmt 4.6, Leading zero omitted, Abs format (unit mm)*
G04 Created by KiCad (PCBNEW 10.0.6) date 2026-10-08 10:25:58*
%MOMM*%
%LPD*%
G01*
G04 APERTURE LIST*
%TA.AperFunction,ComponentPad*%
%ADD10R,2.400000X2.400000*%
%TD*%
%TA.AperFunction,ComponentPad*%
%ADD11C,2.400000*%
%TD*%
%TA.AperFunction,ComponentPad*%
%ADD12C,0.600000*%
%TD*%
%TA.AperFunction,ViaPad*%
%ADD13C,0.600000*%
%TD*%
%TA.AperFunction,ViaPad*%
%ADD14C,0.900000*%
%TD*%
%TA.AperFunction,ViaPad*%
%ADD15C,1.200000*%
%TD*%
%TA.AperFunction,ViaPad*%
%ADD16C,0.800000*%
%TD*%
%TA.AperFunction,Conductor*%
%ADD17C,1.300000*%
%TD*%
G04 APERTURE END LIST*
D10*
%TO.N,/VIN_RAW*%
%TO.C,J1*%
X22500000Y97000000D03*
D11*
%TO.N,/PGND*%
X27500000Y97000000D03*
%TD*%
D10*
%TO.N,/+5V_ISO*%
%TO.C,J2*%
X27500000Y8000000D03*
D11*
%TO.N,/GND_ISO*%
X22500000Y8000000D03*
%TD*%
D12*
%TO.N,/VIN*%
%TO.C,T1*%
X27871953Y65073763D03*
%TO.N,/SW*%
X22128047Y65073763D03*
%TO.N,/GND_ISO*%
X23540116Y38532645D03*
%TO.N,/SEC_A*%
X25775000Y42270417D03*
%TO.N,unconnected-(T1-P_MID-Pad5)*%
X25000000Y61800000D03*
%TD*%
D13*
%TO.N,/GND_ISO*%
X37000000Y9000000D03*
D14*
X13200000Y18500000D03*
D13*
X36000000Y25000000D03*
X17000000Y25000000D03*
D14*
X34000000Y17037500D03*
D13*
X12000000Y22000000D03*
X16000000Y7000000D03*
X19000000Y29000000D03*
X36000000Y29000000D03*
X32000000Y7000000D03*
D14*
X22269595Y30500000D03*
D13*
X24000000Y22000000D03*
X25000000Y5500000D03*
X20500000Y14200000D03*
D15*
X33200000Y23000000D03*
D13*
X36000000Y14000000D03*
X17000000Y14000000D03*
X25000000Y11000000D03*
X12000000Y29000000D03*
D14*
X32975000Y25880000D03*
X23169595Y30500000D03*
D13*
X15000000Y29000000D03*
D14*
X23200000Y18500000D03*
D13*
X32000000Y14000000D03*
X37500000Y22000000D03*
X12000000Y14000000D03*
%TO.N,/PGND*%
X29000000Y79475000D03*
X39000000Y79000000D03*
X24000000Y84500000D03*
X10000000Y85000000D03*
X9500000Y82000000D03*
X10725000Y78800000D03*
X10500000Y73600000D03*
X40000000Y83000000D03*
X15700000Y78550000D03*
X17300000Y77450000D03*
X9500000Y73000000D03*
X9500000Y97000000D03*
X15700000Y77450000D03*
X9500000Y94000000D03*
X25000000Y87000000D03*
X19325000Y86000000D03*
X39200000Y88000000D03*
X17300000Y78550000D03*
X39500000Y95000000D03*
X37000000Y74000000D03*
X13898500Y76095000D03*
X11500000Y83500000D03*
X22475000Y79200000D03*
X38000000Y83000000D03*
X39000000Y74000000D03*
X9025000Y76365000D03*
X28000000Y83000000D03*
X16000000Y74500000D03*
D15*
X17400000Y74350000D03*
D14*
%TO.N,/SEC_A*%
X26450000Y29862000D03*
X25550000Y29862000D03*
D16*
%TO.N,/VIN*%
X13000000Y90150000D03*
D13*
X14675000Y86000000D03*
D16*
X29000000Y76525000D03*
X11975000Y76365000D03*
%TD*%
%TO.N,/SEC_A*%
D17*
X25775000Y42270417D02*
X26075000Y34000000D01*
X26000000Y33925000D02*
X26000000Y29862000D01*
X26075000Y34000000D02*
X26000000Y33925000D01*
%TD*%
M02*
