%TF.GenerationSoftware,KiCad,Pcbnew,10.0.6*%
%TF.CreationDate,2026-10-08T12:10:17-04:00*%
%TF.ProjectId,PS-FLYBACK-5W,50532d46-4c59-4424-9143-4b2d35572e6b,A3-development*%
%TF.SameCoordinates,Original*%
%TF.FileFunction,Legend,Top*%
%TF.FilePolarity,Positive*%
%FSLAX46Y46*%
G04 Gerber Fmt 4.6, Leading zero omitted, Abs format (unit mm)*
G04 Created by KiCad (PCBNEW 10.0.6) date 2026-10-08 12:10:17*
%MOMM*%
%LPD*%
G01*
G04 APERTURE LIST*
G04 Aperture macros list*
%AMRoundRect*
0 Rectangle with rounded corners*
0 $1 Rounding radius*
0 $2 $3 $4 $5 $6 $7 $8 $9 X,Y pos of 4 corners*
0 Add a 4 corners polygon primitive as box body*
4,1,4,$2,$3,$4,$5,$6,$7,$8,$9,$2,$3,0*
0 Add four circle primitives for the rounded corners*
1,1,$1+$1,$2,$3*
1,1,$1+$1,$4,$5*
1,1,$1+$1,$6,$7*
1,1,$1+$1,$8,$9*
0 Add four rect primitives between the rounded corners*
20,1,$1+$1,$2,$3,$4,$5,0*
20,1,$1+$1,$4,$5,$6,$7,0*
20,1,$1+$1,$6,$7,$8,$9,0*
20,1,$1+$1,$8,$9,$2,$3,0*%
G04 Aperture macros list end*
%ADD10C,0.150000*%
%ADD11C,0.140000*%
%ADD12C,0.120000*%
%ADD13C,0.250000*%
%ADD14C,0.200000*%
%ADD15C,0.220000*%
%ADD16C,0.000000*%
%ADD17R,2.400000X2.400000*%
%ADD18C,2.400000*%
%ADD19RoundRect,0.250000X0.500000X-0.950000X0.500000X0.950000X-0.500000X0.950000X-0.500000X-0.950000X0*%
%ADD20RoundRect,0.250000X0.500000X-0.275000X0.500000X0.275000X-0.500000X0.275000X-0.500000X-0.275000X0*%
%ADD21C,0.600000*%
%ADD22C,3.200000*%
%ADD23RoundRect,0.250000X1.100000X-0.325000X1.100000X0.325000X-1.100000X0.325000X-1.100000X-0.325000X0*%
%ADD24R,3.500000X1.600000*%
%ADD25RoundRect,0.225000X0.225000X0.250000X-0.225000X0.250000X-0.225000X-0.250000X0.225000X-0.250000X0*%
%ADD26RoundRect,0.250000X-0.650000X1.000000X-0.650000X-1.000000X0.650000X-1.000000X0.650000X1.000000X0*%
%ADD27R,1.143000X0.760000*%
%ADD28R,2.260000X2.990000*%
%ADD29RoundRect,0.250000X0.325000X1.100000X-0.325000X1.100000X-0.325000X-1.100000X0.325000X-1.100000X0*%
%ADD30RoundRect,0.250000X-0.625000X0.312500X-0.625000X-0.312500X0.625000X-0.312500X0.625000X0.312500X0*%
%ADD31R,3.360000X4.860000*%
%ADD32R,1.390000X1.400000*%
%ADD33RoundRect,0.250000X-1.950000X-1.000000X1.950000X-1.000000X1.950000X1.000000X-1.950000X1.000000X0*%
%ADD34RoundRect,0.250000X-0.500000X0.950000X-0.500000X-0.950000X0.500000X-0.950000X0.500000X0.950000X0*%
%ADD35RoundRect,0.250000X-0.500000X0.275000X-0.500000X-0.275000X0.500000X-0.275000X0.500000X0.275000X0*%
%ADD36RoundRect,0.200000X0.200000X0.275000X-0.200000X0.275000X-0.200000X-0.275000X0.200000X-0.275000X0*%
%ADD37R,2.450000X3.700000*%
%ADD38RoundRect,0.200000X0.275000X-0.200000X0.275000X0.200000X-0.275000X0.200000X-0.275000X-0.200000X0*%
%ADD39RoundRect,0.250000X-0.325000X-1.100000X0.325000X-1.100000X0.325000X1.100000X-0.325000X1.100000X0*%
%ADD40RoundRect,0.200000X-0.200000X-0.275000X0.200000X-0.275000X0.200000X0.275000X-0.200000X0.275000X0*%
%ADD41RoundRect,0.250000X0.250000X0.475000X-0.250000X0.475000X-0.250000X-0.475000X0.250000X-0.475000X0*%
%ADD42R,1.250000X1.650000*%
%ADD43RoundRect,0.250000X0.312500X0.625000X-0.312500X0.625000X-0.312500X-0.625000X0.312500X-0.625000X0*%
%ADD44C,1.200000*%
G04 APERTURE END LIST*
D10*
X10571429Y63437705D02*
X10571429Y64237705D01*
X10571429Y64237705D02*
X10876191Y64237705D01*
X10876191Y64237705D02*
X10952381Y64199610D01*
X10952381Y64199610D02*
X10990476Y64161515D01*
X10990476Y64161515D02*
X11028572Y64085324D01*
X11028572Y64085324D02*
X11028572Y63971039D01*
X11028572Y63971039D02*
X10990476Y63894848D01*
X10990476Y63894848D02*
X10952381Y63856753D01*
X10952381Y63856753D02*
X10876191Y63818658D01*
X10876191Y63818658D02*
X10571429Y63818658D01*
X11790476Y64199610D02*
X11714286Y64237705D01*
X11714286Y64237705D02*
X11600000Y64237705D01*
X11600000Y64237705D02*
X11485714Y64199610D01*
X11485714Y64199610D02*
X11409524Y64123420D01*
X11409524Y64123420D02*
X11371429Y64047229D01*
X11371429Y64047229D02*
X11333333Y63894848D01*
X11333333Y63894848D02*
X11333333Y63780562D01*
X11333333Y63780562D02*
X11371429Y63628181D01*
X11371429Y63628181D02*
X11409524Y63551991D01*
X11409524Y63551991D02*
X11485714Y63475800D01*
X11485714Y63475800D02*
X11600000Y63437705D01*
X11600000Y63437705D02*
X11676191Y63437705D01*
X11676191Y63437705D02*
X11790476Y63475800D01*
X11790476Y63475800D02*
X11828572Y63513896D01*
X11828572Y63513896D02*
X11828572Y63780562D01*
X11828572Y63780562D02*
X11676191Y63780562D01*
X12171429Y63437705D02*
X12171429Y64237705D01*
X12171429Y64237705D02*
X12628572Y63437705D01*
X12628572Y63437705D02*
X12628572Y64237705D01*
X13009524Y63437705D02*
X13009524Y64237705D01*
X13009524Y64237705D02*
X13200000Y64237705D01*
X13200000Y64237705D02*
X13314286Y64199610D01*
X13314286Y64199610D02*
X13390476Y64123420D01*
X13390476Y64123420D02*
X13428571Y64047229D01*
X13428571Y64047229D02*
X13466667Y63894848D01*
X13466667Y63894848D02*
X13466667Y63780562D01*
X13466667Y63780562D02*
X13428571Y63628181D01*
X13428571Y63628181D02*
X13390476Y63551991D01*
X13390476Y63551991D02*
X13314286Y63475800D01*
X13314286Y63475800D02*
X13200000Y63437705D01*
X13200000Y63437705D02*
X13009524Y63437705D01*
X13371426Y56861515D02*
X13409522Y56899610D01*
X13409522Y56899610D02*
X13485712Y56937705D01*
X13485712Y56937705D02*
X13676188Y56937705D01*
X13676188Y56937705D02*
X13752379Y56899610D01*
X13752379Y56899610D02*
X13790474Y56861515D01*
X13790474Y56861515D02*
X13828569Y56785324D01*
X13828569Y56785324D02*
X13828569Y56709134D01*
X13828569Y56709134D02*
X13790474Y56594848D01*
X13790474Y56594848D02*
X13333331Y56137705D01*
X13333331Y56137705D02*
X13828569Y56137705D01*
X14704760Y56137705D02*
X15123808Y56671039D01*
X14704760Y56671039D02*
X15123808Y56137705D01*
X16190475Y56937705D02*
X16266665Y56937705D01*
X16266665Y56937705D02*
X16342856Y56899610D01*
X16342856Y56899610D02*
X16380951Y56861515D01*
X16380951Y56861515D02*
X16419046Y56785324D01*
X16419046Y56785324D02*
X16457141Y56632943D01*
X16457141Y56632943D02*
X16457141Y56442467D01*
X16457141Y56442467D02*
X16419046Y56290086D01*
X16419046Y56290086D02*
X16380951Y56213896D01*
X16380951Y56213896D02*
X16342856Y56175800D01*
X16342856Y56175800D02*
X16266665Y56137705D01*
X16266665Y56137705D02*
X16190475Y56137705D01*
X16190475Y56137705D02*
X16114284Y56175800D01*
X16114284Y56175800D02*
X16076189Y56213896D01*
X16076189Y56213896D02*
X16038094Y56290086D01*
X16038094Y56290086D02*
X15999998Y56442467D01*
X15999998Y56442467D02*
X15999998Y56632943D01*
X15999998Y56632943D02*
X16038094Y56785324D01*
X16038094Y56785324D02*
X16076189Y56861515D01*
X16076189Y56861515D02*
X16114284Y56899610D01*
X16114284Y56899610D02*
X16190475Y56937705D01*
X16799999Y56213896D02*
X16838094Y56175800D01*
X16838094Y56175800D02*
X16799999Y56137705D01*
X16799999Y56137705D02*
X16761903Y56175800D01*
X16761903Y56175800D02*
X16799999Y56213896D01*
X16799999Y56213896D02*
X16799999Y56137705D01*
X17333332Y56937705D02*
X17409522Y56937705D01*
X17409522Y56937705D02*
X17485713Y56899610D01*
X17485713Y56899610D02*
X17523808Y56861515D01*
X17523808Y56861515D02*
X17561903Y56785324D01*
X17561903Y56785324D02*
X17599998Y56632943D01*
X17599998Y56632943D02*
X17599998Y56442467D01*
X17599998Y56442467D02*
X17561903Y56290086D01*
X17561903Y56290086D02*
X17523808Y56213896D01*
X17523808Y56213896D02*
X17485713Y56175800D01*
X17485713Y56175800D02*
X17409522Y56137705D01*
X17409522Y56137705D02*
X17333332Y56137705D01*
X17333332Y56137705D02*
X17257141Y56175800D01*
X17257141Y56175800D02*
X17219046Y56213896D01*
X17219046Y56213896D02*
X17180951Y56290086D01*
X17180951Y56290086D02*
X17142855Y56442467D01*
X17142855Y56442467D02*
X17142855Y56632943D01*
X17142855Y56632943D02*
X17180951Y56785324D01*
X17180951Y56785324D02*
X17219046Y56861515D01*
X17219046Y56861515D02*
X17257141Y56899610D01*
X17257141Y56899610D02*
X17333332Y56937705D01*
X18323808Y56937705D02*
X17942856Y56937705D01*
X17942856Y56937705D02*
X17904760Y56556753D01*
X17904760Y56556753D02*
X17942856Y56594848D01*
X17942856Y56594848D02*
X18019046Y56632943D01*
X18019046Y56632943D02*
X18209522Y56632943D01*
X18209522Y56632943D02*
X18285713Y56594848D01*
X18285713Y56594848D02*
X18323808Y56556753D01*
X18323808Y56556753D02*
X18361903Y56480562D01*
X18361903Y56480562D02*
X18361903Y56290086D01*
X18361903Y56290086D02*
X18323808Y56213896D01*
X18323808Y56213896D02*
X18285713Y56175800D01*
X18285713Y56175800D02*
X18209522Y56137705D01*
X18209522Y56137705D02*
X18019046Y56137705D01*
X18019046Y56137705D02*
X17942856Y56175800D01*
X17942856Y56175800D02*
X17904760Y56213896D01*
X19314285Y56137705D02*
X19314285Y56671039D01*
X19314285Y56594848D02*
X19352380Y56632943D01*
X19352380Y56632943D02*
X19428570Y56671039D01*
X19428570Y56671039D02*
X19542856Y56671039D01*
X19542856Y56671039D02*
X19619047Y56632943D01*
X19619047Y56632943D02*
X19657142Y56556753D01*
X19657142Y56556753D02*
X19657142Y56137705D01*
X19657142Y56556753D02*
X19695237Y56632943D01*
X19695237Y56632943D02*
X19771428Y56671039D01*
X19771428Y56671039D02*
X19885713Y56671039D01*
X19885713Y56671039D02*
X19961904Y56632943D01*
X19961904Y56632943D02*
X19999999Y56556753D01*
X19999999Y56556753D02*
X19999999Y56137705D01*
X20380952Y56137705D02*
X20380952Y56671039D01*
X20380952Y56594848D02*
X20419047Y56632943D01*
X20419047Y56632943D02*
X20495237Y56671039D01*
X20495237Y56671039D02*
X20609523Y56671039D01*
X20609523Y56671039D02*
X20685714Y56632943D01*
X20685714Y56632943D02*
X20723809Y56556753D01*
X20723809Y56556753D02*
X20723809Y56137705D01*
X20723809Y56556753D02*
X20761904Y56632943D01*
X20761904Y56632943D02*
X20838095Y56671039D01*
X20838095Y56671039D02*
X20952380Y56671039D01*
X20952380Y56671039D02*
X21028571Y56632943D01*
X21028571Y56632943D02*
X21066666Y56556753D01*
X21066666Y56556753D02*
X21066666Y56137705D01*
X22476190Y56899610D02*
X22400000Y56937705D01*
X22400000Y56937705D02*
X22285714Y56937705D01*
X22285714Y56937705D02*
X22171428Y56899610D01*
X22171428Y56899610D02*
X22095238Y56823420D01*
X22095238Y56823420D02*
X22057143Y56747229D01*
X22057143Y56747229D02*
X22019047Y56594848D01*
X22019047Y56594848D02*
X22019047Y56480562D01*
X22019047Y56480562D02*
X22057143Y56328181D01*
X22057143Y56328181D02*
X22095238Y56251991D01*
X22095238Y56251991D02*
X22171428Y56175800D01*
X22171428Y56175800D02*
X22285714Y56137705D01*
X22285714Y56137705D02*
X22361905Y56137705D01*
X22361905Y56137705D02*
X22476190Y56175800D01*
X22476190Y56175800D02*
X22514286Y56213896D01*
X22514286Y56213896D02*
X22514286Y56480562D01*
X22514286Y56480562D02*
X22361905Y56480562D01*
X22819047Y56366277D02*
X23200000Y56366277D01*
X22742857Y56137705D02*
X23009524Y56937705D01*
X23009524Y56937705D02*
X23276190Y56137705D01*
X23542857Y56137705D02*
X23542857Y56937705D01*
X23542857Y56937705D02*
X23847619Y56937705D01*
X23847619Y56937705D02*
X23923809Y56899610D01*
X23923809Y56899610D02*
X23961904Y56861515D01*
X23961904Y56861515D02*
X24000000Y56785324D01*
X24000000Y56785324D02*
X24000000Y56671039D01*
X24000000Y56671039D02*
X23961904Y56594848D01*
X23961904Y56594848D02*
X23923809Y56556753D01*
X23923809Y56556753D02*
X23847619Y56518658D01*
X23847619Y56518658D02*
X23542857Y56518658D01*
X24342857Y56137705D02*
X24342857Y56937705D01*
X24342857Y56937705D02*
X24647619Y56937705D01*
X24647619Y56937705D02*
X24723809Y56899610D01*
X24723809Y56899610D02*
X24761904Y56861515D01*
X24761904Y56861515D02*
X24800000Y56785324D01*
X24800000Y56785324D02*
X24800000Y56671039D01*
X24800000Y56671039D02*
X24761904Y56594848D01*
X24761904Y56594848D02*
X24723809Y56556753D01*
X24723809Y56556753D02*
X24647619Y56518658D01*
X24647619Y56518658D02*
X24342857Y56518658D01*
X25142857Y56556753D02*
X25409523Y56556753D01*
X25523809Y56137705D02*
X25142857Y56137705D01*
X25142857Y56137705D02*
X25142857Y56937705D01*
X25142857Y56937705D02*
X25523809Y56937705D01*
X25866667Y56137705D02*
X25866667Y56937705D01*
X25866667Y56937705D02*
X26057143Y56937705D01*
X26057143Y56937705D02*
X26171429Y56899610D01*
X26171429Y56899610D02*
X26247619Y56823420D01*
X26247619Y56823420D02*
X26285714Y56747229D01*
X26285714Y56747229D02*
X26323810Y56594848D01*
X26323810Y56594848D02*
X26323810Y56480562D01*
X26323810Y56480562D02*
X26285714Y56328181D01*
X26285714Y56328181D02*
X26247619Y56251991D01*
X26247619Y56251991D02*
X26171429Y56175800D01*
X26171429Y56175800D02*
X26057143Y56137705D01*
X26057143Y56137705D02*
X25866667Y56137705D01*
X27276191Y56556753D02*
X27542857Y56556753D01*
X27657143Y56137705D02*
X27276191Y56137705D01*
X27276191Y56137705D02*
X27276191Y56937705D01*
X27276191Y56937705D02*
X27657143Y56937705D01*
X28380953Y56137705D02*
X28000001Y56137705D01*
X28000001Y56137705D02*
X28000001Y56937705D01*
X28647620Y56137705D02*
X28647620Y56937705D01*
X28647620Y56937705D02*
X28952382Y56937705D01*
X28952382Y56937705D02*
X29028572Y56899610D01*
X29028572Y56899610D02*
X29066667Y56861515D01*
X29066667Y56861515D02*
X29104763Y56785324D01*
X29104763Y56785324D02*
X29104763Y56671039D01*
X29104763Y56671039D02*
X29066667Y56594848D01*
X29066667Y56594848D02*
X29028572Y56556753D01*
X29028572Y56556753D02*
X28952382Y56518658D01*
X28952382Y56518658D02*
X28647620Y56518658D01*
X29409524Y56861515D02*
X29447620Y56899610D01*
X29447620Y56899610D02*
X29523810Y56937705D01*
X29523810Y56937705D02*
X29714286Y56937705D01*
X29714286Y56937705D02*
X29790477Y56899610D01*
X29790477Y56899610D02*
X29828572Y56861515D01*
X29828572Y56861515D02*
X29866667Y56785324D01*
X29866667Y56785324D02*
X29866667Y56709134D01*
X29866667Y56709134D02*
X29828572Y56594848D01*
X29828572Y56594848D02*
X29371429Y56137705D01*
X29371429Y56137705D02*
X29866667Y56137705D01*
X30171429Y56861515D02*
X30209525Y56899610D01*
X30209525Y56899610D02*
X30285715Y56937705D01*
X30285715Y56937705D02*
X30476191Y56937705D01*
X30476191Y56937705D02*
X30552382Y56899610D01*
X30552382Y56899610D02*
X30590477Y56861515D01*
X30590477Y56861515D02*
X30628572Y56785324D01*
X30628572Y56785324D02*
X30628572Y56709134D01*
X30628572Y56709134D02*
X30590477Y56594848D01*
X30590477Y56594848D02*
X30133334Y56137705D01*
X30133334Y56137705D02*
X30628572Y56137705D01*
X29142856Y84637705D02*
X28685713Y84637705D01*
X28914285Y84637705D02*
X28914285Y85437705D01*
X28914285Y85437705D02*
X28838094Y85323420D01*
X28838094Y85323420D02*
X28761904Y85247229D01*
X28761904Y85247229D02*
X28685713Y85209134D01*
X29599999Y85094848D02*
X29523809Y85132943D01*
X29523809Y85132943D02*
X29485714Y85171039D01*
X29485714Y85171039D02*
X29447618Y85247229D01*
X29447618Y85247229D02*
X29447618Y85285324D01*
X29447618Y85285324D02*
X29485714Y85361515D01*
X29485714Y85361515D02*
X29523809Y85399610D01*
X29523809Y85399610D02*
X29599999Y85437705D01*
X29599999Y85437705D02*
X29752380Y85437705D01*
X29752380Y85437705D02*
X29828571Y85399610D01*
X29828571Y85399610D02*
X29866666Y85361515D01*
X29866666Y85361515D02*
X29904761Y85285324D01*
X29904761Y85285324D02*
X29904761Y85247229D01*
X29904761Y85247229D02*
X29866666Y85171039D01*
X29866666Y85171039D02*
X29828571Y85132943D01*
X29828571Y85132943D02*
X29752380Y85094848D01*
X29752380Y85094848D02*
X29599999Y85094848D01*
X29599999Y85094848D02*
X29523809Y85056753D01*
X29523809Y85056753D02*
X29485714Y85018658D01*
X29485714Y85018658D02*
X29447618Y84942467D01*
X29447618Y84942467D02*
X29447618Y84790086D01*
X29447618Y84790086D02*
X29485714Y84713896D01*
X29485714Y84713896D02*
X29523809Y84675800D01*
X29523809Y84675800D02*
X29599999Y84637705D01*
X29599999Y84637705D02*
X29752380Y84637705D01*
X29752380Y84637705D02*
X29828571Y84675800D01*
X29828571Y84675800D02*
X29866666Y84713896D01*
X29866666Y84713896D02*
X29904761Y84790086D01*
X29904761Y84790086D02*
X29904761Y84942467D01*
X29904761Y84942467D02*
X29866666Y85018658D01*
X29866666Y85018658D02*
X29828571Y85056753D01*
X29828571Y85056753D02*
X29752380Y85094848D01*
X30247619Y84942467D02*
X30857143Y84942467D01*
X31161904Y85437705D02*
X31657142Y85437705D01*
X31657142Y85437705D02*
X31390476Y85132943D01*
X31390476Y85132943D02*
X31504761Y85132943D01*
X31504761Y85132943D02*
X31580952Y85094848D01*
X31580952Y85094848D02*
X31619047Y85056753D01*
X31619047Y85056753D02*
X31657142Y84980562D01*
X31657142Y84980562D02*
X31657142Y84790086D01*
X31657142Y84790086D02*
X31619047Y84713896D01*
X31619047Y84713896D02*
X31580952Y84675800D01*
X31580952Y84675800D02*
X31504761Y84637705D01*
X31504761Y84637705D02*
X31276190Y84637705D01*
X31276190Y84637705D02*
X31199999Y84675800D01*
X31199999Y84675800D02*
X31161904Y84713896D01*
X32342857Y85437705D02*
X32190476Y85437705D01*
X32190476Y85437705D02*
X32114285Y85399610D01*
X32114285Y85399610D02*
X32076190Y85361515D01*
X32076190Y85361515D02*
X32000000Y85247229D01*
X32000000Y85247229D02*
X31961904Y85094848D01*
X31961904Y85094848D02*
X31961904Y84790086D01*
X31961904Y84790086D02*
X32000000Y84713896D01*
X32000000Y84713896D02*
X32038095Y84675800D01*
X32038095Y84675800D02*
X32114285Y84637705D01*
X32114285Y84637705D02*
X32266666Y84637705D01*
X32266666Y84637705D02*
X32342857Y84675800D01*
X32342857Y84675800D02*
X32380952Y84713896D01*
X32380952Y84713896D02*
X32419047Y84790086D01*
X32419047Y84790086D02*
X32419047Y84980562D01*
X32419047Y84980562D02*
X32380952Y85056753D01*
X32380952Y85056753D02*
X32342857Y85094848D01*
X32342857Y85094848D02*
X32266666Y85132943D01*
X32266666Y85132943D02*
X32114285Y85132943D01*
X32114285Y85132943D02*
X32038095Y85094848D01*
X32038095Y85094848D02*
X32000000Y85056753D01*
X32000000Y85056753D02*
X31961904Y84980562D01*
X32647619Y85437705D02*
X32914286Y84637705D01*
X32914286Y84637705D02*
X33180952Y85437705D01*
X34057143Y84637705D02*
X34057143Y85437705D01*
X34057143Y85437705D02*
X34247619Y85437705D01*
X34247619Y85437705D02*
X34361905Y85399610D01*
X34361905Y85399610D02*
X34438095Y85323420D01*
X34438095Y85323420D02*
X34476190Y85247229D01*
X34476190Y85247229D02*
X34514286Y85094848D01*
X34514286Y85094848D02*
X34514286Y84980562D01*
X34514286Y84980562D02*
X34476190Y84828181D01*
X34476190Y84828181D02*
X34438095Y84751991D01*
X34438095Y84751991D02*
X34361905Y84675800D01*
X34361905Y84675800D02*
X34247619Y84637705D01*
X34247619Y84637705D02*
X34057143Y84637705D01*
X35314286Y84713896D02*
X35276190Y84675800D01*
X35276190Y84675800D02*
X35161905Y84637705D01*
X35161905Y84637705D02*
X35085714Y84637705D01*
X35085714Y84637705D02*
X34971428Y84675800D01*
X34971428Y84675800D02*
X34895238Y84751991D01*
X34895238Y84751991D02*
X34857143Y84828181D01*
X34857143Y84828181D02*
X34819047Y84980562D01*
X34819047Y84980562D02*
X34819047Y85094848D01*
X34819047Y85094848D02*
X34857143Y85247229D01*
X34857143Y85247229D02*
X34895238Y85323420D01*
X34895238Y85323420D02*
X34971428Y85399610D01*
X34971428Y85399610D02*
X35085714Y85437705D01*
X35085714Y85437705D02*
X35161905Y85437705D01*
X35161905Y85437705D02*
X35276190Y85399610D01*
X35276190Y85399610D02*
X35314286Y85361515D01*
X31176191Y21337705D02*
X31176191Y22137705D01*
X31519047Y21375800D02*
X31633333Y21337705D01*
X31633333Y21337705D02*
X31823809Y21337705D01*
X31823809Y21337705D02*
X31900000Y21375800D01*
X31900000Y21375800D02*
X31938095Y21413896D01*
X31938095Y21413896D02*
X31976190Y21490086D01*
X31976190Y21490086D02*
X31976190Y21566277D01*
X31976190Y21566277D02*
X31938095Y21642467D01*
X31938095Y21642467D02*
X31900000Y21680562D01*
X31900000Y21680562D02*
X31823809Y21718658D01*
X31823809Y21718658D02*
X31671428Y21756753D01*
X31671428Y21756753D02*
X31595238Y21794848D01*
X31595238Y21794848D02*
X31557143Y21832943D01*
X31557143Y21832943D02*
X31519047Y21909134D01*
X31519047Y21909134D02*
X31519047Y21985324D01*
X31519047Y21985324D02*
X31557143Y22061515D01*
X31557143Y22061515D02*
X31595238Y22099610D01*
X31595238Y22099610D02*
X31671428Y22137705D01*
X31671428Y22137705D02*
X31861905Y22137705D01*
X31861905Y22137705D02*
X31976190Y22099610D01*
X32471429Y22137705D02*
X32623810Y22137705D01*
X32623810Y22137705D02*
X32700000Y22099610D01*
X32700000Y22099610D02*
X32776191Y22023420D01*
X32776191Y22023420D02*
X32814286Y21871039D01*
X32814286Y21871039D02*
X32814286Y21604372D01*
X32814286Y21604372D02*
X32776191Y21451991D01*
X32776191Y21451991D02*
X32700000Y21375800D01*
X32700000Y21375800D02*
X32623810Y21337705D01*
X32623810Y21337705D02*
X32471429Y21337705D01*
X32471429Y21337705D02*
X32395238Y21375800D01*
X32395238Y21375800D02*
X32319048Y21451991D01*
X32319048Y21451991D02*
X32280952Y21604372D01*
X32280952Y21604372D02*
X32280952Y21871039D01*
X32280952Y21871039D02*
X32319048Y22023420D01*
X32319048Y22023420D02*
X32395238Y22099610D01*
X32395238Y22099610D02*
X32471429Y22137705D01*
X34185714Y22099610D02*
X34109524Y22137705D01*
X34109524Y22137705D02*
X33995238Y22137705D01*
X33995238Y22137705D02*
X33880952Y22099610D01*
X33880952Y22099610D02*
X33804762Y22023420D01*
X33804762Y22023420D02*
X33766667Y21947229D01*
X33766667Y21947229D02*
X33728571Y21794848D01*
X33728571Y21794848D02*
X33728571Y21680562D01*
X33728571Y21680562D02*
X33766667Y21528181D01*
X33766667Y21528181D02*
X33804762Y21451991D01*
X33804762Y21451991D02*
X33880952Y21375800D01*
X33880952Y21375800D02*
X33995238Y21337705D01*
X33995238Y21337705D02*
X34071429Y21337705D01*
X34071429Y21337705D02*
X34185714Y21375800D01*
X34185714Y21375800D02*
X34223810Y21413896D01*
X34223810Y21413896D02*
X34223810Y21680562D01*
X34223810Y21680562D02*
X34071429Y21680562D01*
X34566667Y21337705D02*
X34566667Y22137705D01*
X34566667Y22137705D02*
X35023810Y21337705D01*
X35023810Y21337705D02*
X35023810Y22137705D01*
X35404762Y21337705D02*
X35404762Y22137705D01*
X35404762Y22137705D02*
X35595238Y22137705D01*
X35595238Y22137705D02*
X35709524Y22099610D01*
X35709524Y22099610D02*
X35785714Y22023420D01*
X35785714Y22023420D02*
X35823809Y21947229D01*
X35823809Y21947229D02*
X35861905Y21794848D01*
X35861905Y21794848D02*
X35861905Y21680562D01*
X35861905Y21680562D02*
X35823809Y21528181D01*
X35823809Y21528181D02*
X35785714Y21451991D01*
X35785714Y21451991D02*
X35709524Y21375800D01*
X35709524Y21375800D02*
X35595238Y21337705D01*
X35595238Y21337705D02*
X35404762Y21337705D01*
X33819047Y10437705D02*
X33438095Y10437705D01*
X33438095Y10437705D02*
X33399999Y10056753D01*
X33399999Y10056753D02*
X33438095Y10094848D01*
X33438095Y10094848D02*
X33514285Y10132943D01*
X33514285Y10132943D02*
X33704761Y10132943D01*
X33704761Y10132943D02*
X33780952Y10094848D01*
X33780952Y10094848D02*
X33819047Y10056753D01*
X33819047Y10056753D02*
X33857142Y9980562D01*
X33857142Y9980562D02*
X33857142Y9790086D01*
X33857142Y9790086D02*
X33819047Y9713896D01*
X33819047Y9713896D02*
X33780952Y9675800D01*
X33780952Y9675800D02*
X33704761Y9637705D01*
X33704761Y9637705D02*
X33514285Y9637705D01*
X33514285Y9637705D02*
X33438095Y9675800D01*
X33438095Y9675800D02*
X33399999Y9713896D01*
X34085714Y10437705D02*
X34352381Y9637705D01*
X34352381Y9637705D02*
X34619047Y10437705D01*
X35914285Y9637705D02*
X35457142Y9637705D01*
X35685714Y9637705D02*
X35685714Y10437705D01*
X35685714Y10437705D02*
X35609523Y10323420D01*
X35609523Y10323420D02*
X35533333Y10247229D01*
X35533333Y10247229D02*
X35457142Y10209134D01*
X36219047Y9866277D02*
X36600000Y9866277D01*
X36142857Y9637705D02*
X36409524Y10437705D01*
X36409524Y10437705D02*
X36676190Y9637705D01*
X18883333Y91614573D02*
X18883333Y92464573D01*
X19288095Y91614573D02*
X19288095Y92464573D01*
X19288095Y92464573D02*
X19773810Y91614573D01*
X19773810Y91614573D02*
X19773810Y92464573D01*
X20826190Y91938383D02*
X21473810Y91938383D01*
X21150000Y91614573D02*
X21150000Y92262192D01*
X24469047Y91938383D02*
X25116667Y91938383D01*
X18478571Y2464573D02*
X18640476Y2464573D01*
X18640476Y2464573D02*
X18721428Y2424097D01*
X18721428Y2424097D02*
X18802381Y2343145D01*
X18802381Y2343145D02*
X18842857Y2181240D01*
X18842857Y2181240D02*
X18842857Y1897907D01*
X18842857Y1897907D02*
X18802381Y1736002D01*
X18802381Y1736002D02*
X18721428Y1655049D01*
X18721428Y1655049D02*
X18640476Y1614573D01*
X18640476Y1614573D02*
X18478571Y1614573D01*
X18478571Y1614573D02*
X18397619Y1655049D01*
X18397619Y1655049D02*
X18316666Y1736002D01*
X18316666Y1736002D02*
X18276190Y1897907D01*
X18276190Y1897907D02*
X18276190Y2181240D01*
X18276190Y2181240D02*
X18316666Y2343145D01*
X18316666Y2343145D02*
X18397619Y2424097D01*
X18397619Y2424097D02*
X18478571Y2464573D01*
X19207142Y2464573D02*
X19207142Y1776478D01*
X19207142Y1776478D02*
X19247619Y1695526D01*
X19247619Y1695526D02*
X19288095Y1655049D01*
X19288095Y1655049D02*
X19369047Y1614573D01*
X19369047Y1614573D02*
X19530952Y1614573D01*
X19530952Y1614573D02*
X19611904Y1655049D01*
X19611904Y1655049D02*
X19652381Y1695526D01*
X19652381Y1695526D02*
X19692857Y1776478D01*
X19692857Y1776478D02*
X19692857Y2464573D01*
X19976190Y2464573D02*
X20461904Y2464573D01*
X20219047Y1614573D02*
X20219047Y2464573D01*
X21392856Y1938383D02*
X22040476Y1938383D01*
X25035713Y1938383D02*
X25683333Y1938383D01*
X25359523Y1614573D02*
X25359523Y2262192D01*
X15400000Y57498920D02*
X15400000Y58598920D01*
X15400000Y58598920D02*
X15819048Y58598920D01*
X15819048Y58598920D02*
X15923810Y58546539D01*
X15923810Y58546539D02*
X15976191Y58494158D01*
X15976191Y58494158D02*
X16028572Y58389396D01*
X16028572Y58389396D02*
X16028572Y58232253D01*
X16028572Y58232253D02*
X15976191Y58127491D01*
X15976191Y58127491D02*
X15923810Y58075110D01*
X15923810Y58075110D02*
X15819048Y58022729D01*
X15819048Y58022729D02*
X15400000Y58022729D01*
X17128572Y57603681D02*
X17076191Y57551300D01*
X17076191Y57551300D02*
X16919048Y57498920D01*
X16919048Y57498920D02*
X16814286Y57498920D01*
X16814286Y57498920D02*
X16657143Y57551300D01*
X16657143Y57551300D02*
X16552381Y57656062D01*
X16552381Y57656062D02*
X16500000Y57760824D01*
X16500000Y57760824D02*
X16447619Y57970348D01*
X16447619Y57970348D02*
X16447619Y58127491D01*
X16447619Y58127491D02*
X16500000Y58337015D01*
X16500000Y58337015D02*
X16552381Y58441777D01*
X16552381Y58441777D02*
X16657143Y58546539D01*
X16657143Y58546539D02*
X16814286Y58598920D01*
X16814286Y58598920D02*
X16919048Y58598920D01*
X16919048Y58598920D02*
X17076191Y58546539D01*
X17076191Y58546539D02*
X17128572Y58494158D01*
X17966667Y58075110D02*
X18123810Y58022729D01*
X18123810Y58022729D02*
X18176191Y57970348D01*
X18176191Y57970348D02*
X18228572Y57865586D01*
X18228572Y57865586D02*
X18228572Y57708443D01*
X18228572Y57708443D02*
X18176191Y57603681D01*
X18176191Y57603681D02*
X18123810Y57551300D01*
X18123810Y57551300D02*
X18019048Y57498920D01*
X18019048Y57498920D02*
X17600000Y57498920D01*
X17600000Y57498920D02*
X17600000Y58598920D01*
X17600000Y58598920D02*
X17966667Y58598920D01*
X17966667Y58598920D02*
X18071429Y58546539D01*
X18071429Y58546539D02*
X18123810Y58494158D01*
X18123810Y58494158D02*
X18176191Y58389396D01*
X18176191Y58389396D02*
X18176191Y58284634D01*
X18176191Y58284634D02*
X18123810Y58179872D01*
X18123810Y58179872D02*
X18071429Y58127491D01*
X18071429Y58127491D02*
X17966667Y58075110D01*
X17966667Y58075110D02*
X17600000Y58075110D01*
X19538095Y57498920D02*
X19538095Y58598920D01*
X19538095Y58598920D02*
X19957143Y58598920D01*
X19957143Y58598920D02*
X20061905Y58546539D01*
X20061905Y58546539D02*
X20114286Y58494158D01*
X20114286Y58494158D02*
X20166667Y58389396D01*
X20166667Y58389396D02*
X20166667Y58232253D01*
X20166667Y58232253D02*
X20114286Y58127491D01*
X20114286Y58127491D02*
X20061905Y58075110D01*
X20061905Y58075110D02*
X19957143Y58022729D01*
X19957143Y58022729D02*
X19538095Y58022729D01*
X21161905Y57498920D02*
X20638095Y57498920D01*
X20638095Y57498920D02*
X20638095Y58598920D01*
X21476190Y57813205D02*
X22000000Y57813205D01*
X21371428Y57498920D02*
X21738095Y58598920D01*
X21738095Y58598920D02*
X22104762Y57498920D01*
X22471428Y57498920D02*
X22471428Y58598920D01*
X22471428Y58598920D02*
X23100000Y57498920D01*
X23100000Y57498920D02*
X23100000Y58598920D01*
X23571428Y57813205D02*
X24095238Y57813205D01*
X23466666Y57498920D02*
X23833333Y58598920D01*
X23833333Y58598920D02*
X24200000Y57498920D01*
X25195238Y57498920D02*
X24828571Y58022729D01*
X24566666Y57498920D02*
X24566666Y58598920D01*
X24566666Y58598920D02*
X24985714Y58598920D01*
X24985714Y58598920D02*
X25090476Y58546539D01*
X25090476Y58546539D02*
X25142857Y58494158D01*
X25142857Y58494158D02*
X25195238Y58389396D01*
X25195238Y58389396D02*
X25195238Y58232253D01*
X25195238Y58232253D02*
X25142857Y58127491D01*
X25142857Y58127491D02*
X25090476Y58075110D01*
X25090476Y58075110D02*
X24985714Y58022729D01*
X24985714Y58022729D02*
X24566666Y58022729D01*
X26976190Y58232253D02*
X26976190Y57498920D01*
X26714285Y58651300D02*
X26452380Y57865586D01*
X26452380Y57865586D02*
X27133333Y57865586D01*
X27552380Y57603681D02*
X27604761Y57551300D01*
X27604761Y57551300D02*
X27552380Y57498920D01*
X27552380Y57498920D02*
X27499999Y57551300D01*
X27499999Y57551300D02*
X27552380Y57603681D01*
X27552380Y57603681D02*
X27552380Y57498920D01*
X27552380Y58179872D02*
X27604761Y58127491D01*
X27604761Y58127491D02*
X27552380Y58075110D01*
X27552380Y58075110D02*
X27499999Y58127491D01*
X27499999Y58127491D02*
X27552380Y58179872D01*
X27552380Y58179872D02*
X27552380Y58075110D01*
X28023809Y58494158D02*
X28076190Y58546539D01*
X28076190Y58546539D02*
X28180952Y58598920D01*
X28180952Y58598920D02*
X28442857Y58598920D01*
X28442857Y58598920D02*
X28547619Y58546539D01*
X28547619Y58546539D02*
X28600000Y58494158D01*
X28600000Y58494158D02*
X28652381Y58389396D01*
X28652381Y58389396D02*
X28652381Y58284634D01*
X28652381Y58284634D02*
X28600000Y58127491D01*
X28600000Y58127491D02*
X27971428Y57498920D01*
X27971428Y57498920D02*
X28652381Y57498920D01*
D11*
X15700000Y8490923D02*
X15700000Y7848066D01*
X15700000Y7848066D02*
X15657143Y7719495D01*
X15657143Y7719495D02*
X15571429Y7633780D01*
X15571429Y7633780D02*
X15442857Y7590923D01*
X15442857Y7590923D02*
X15357143Y7590923D01*
X16085714Y8405209D02*
X16128571Y8448066D01*
X16128571Y8448066D02*
X16214286Y8490923D01*
X16214286Y8490923D02*
X16428571Y8490923D01*
X16428571Y8490923D02*
X16514286Y8448066D01*
X16514286Y8448066D02*
X16557143Y8405209D01*
X16557143Y8405209D02*
X16600000Y8319495D01*
X16600000Y8319495D02*
X16600000Y8233780D01*
X16600000Y8233780D02*
X16557143Y8105209D01*
X16557143Y8105209D02*
X16042857Y7590923D01*
X16042857Y7590923D02*
X16600000Y7590923D01*
X21335714Y70890923D02*
X21335714Y71790923D01*
X21335714Y71790923D02*
X21550000Y71790923D01*
X21550000Y71790923D02*
X21678571Y71748066D01*
X21678571Y71748066D02*
X21764286Y71662352D01*
X21764286Y71662352D02*
X21807143Y71576638D01*
X21807143Y71576638D02*
X21850000Y71405209D01*
X21850000Y71405209D02*
X21850000Y71276638D01*
X21850000Y71276638D02*
X21807143Y71105209D01*
X21807143Y71105209D02*
X21764286Y71019495D01*
X21764286Y71019495D02*
X21678571Y70933780D01*
X21678571Y70933780D02*
X21550000Y70890923D01*
X21550000Y70890923D02*
X21335714Y70890923D01*
X22150000Y71790923D02*
X22707143Y71790923D01*
X22707143Y71790923D02*
X22407143Y71448066D01*
X22407143Y71448066D02*
X22535714Y71448066D01*
X22535714Y71448066D02*
X22621429Y71405209D01*
X22621429Y71405209D02*
X22664286Y71362352D01*
X22664286Y71362352D02*
X22707143Y71276638D01*
X22707143Y71276638D02*
X22707143Y71062352D01*
X22707143Y71062352D02*
X22664286Y70976638D01*
X22664286Y70976638D02*
X22621429Y70933780D01*
X22621429Y70933780D02*
X22535714Y70890923D01*
X22535714Y70890923D02*
X22278571Y70890923D01*
X22278571Y70890923D02*
X22192857Y70933780D01*
X22192857Y70933780D02*
X22150000Y70976638D01*
D12*
X17628570Y61659955D02*
X17666666Y61698050D01*
X17666666Y61698050D02*
X17742856Y61736145D01*
X17742856Y61736145D02*
X17933332Y61736145D01*
X17933332Y61736145D02*
X18009523Y61698050D01*
X18009523Y61698050D02*
X18047618Y61659955D01*
X18047618Y61659955D02*
X18085713Y61583764D01*
X18085713Y61583764D02*
X18085713Y61507574D01*
X18085713Y61507574D02*
X18047618Y61393288D01*
X18047618Y61393288D02*
X17590475Y60936145D01*
X17590475Y60936145D02*
X18085713Y60936145D01*
X18999999Y60974240D02*
X19114285Y60936145D01*
X19114285Y60936145D02*
X19304761Y60936145D01*
X19304761Y60936145D02*
X19380952Y60974240D01*
X19380952Y60974240D02*
X19419047Y61012336D01*
X19419047Y61012336D02*
X19457142Y61088526D01*
X19457142Y61088526D02*
X19457142Y61164717D01*
X19457142Y61164717D02*
X19419047Y61240907D01*
X19419047Y61240907D02*
X19380952Y61279002D01*
X19380952Y61279002D02*
X19304761Y61317098D01*
X19304761Y61317098D02*
X19152380Y61355193D01*
X19152380Y61355193D02*
X19076190Y61393288D01*
X19076190Y61393288D02*
X19038095Y61431383D01*
X19038095Y61431383D02*
X18999999Y61507574D01*
X18999999Y61507574D02*
X18999999Y61583764D01*
X18999999Y61583764D02*
X19038095Y61659955D01*
X19038095Y61659955D02*
X19076190Y61698050D01*
X19076190Y61698050D02*
X19152380Y61736145D01*
X19152380Y61736145D02*
X19342857Y61736145D01*
X19342857Y61736145D02*
X19457142Y61698050D01*
X19723809Y61736145D02*
X19914285Y60936145D01*
X19914285Y60936145D02*
X20066666Y61507574D01*
X20066666Y61507574D02*
X20219047Y60936145D01*
X20219047Y60936145D02*
X20409524Y61736145D01*
X17209523Y32536145D02*
X17704761Y32536145D01*
X17704761Y32536145D02*
X17438095Y32231383D01*
X17438095Y32231383D02*
X17552380Y32231383D01*
X17552380Y32231383D02*
X17628571Y32193288D01*
X17628571Y32193288D02*
X17666666Y32155193D01*
X17666666Y32155193D02*
X17704761Y32079002D01*
X17704761Y32079002D02*
X17704761Y31888526D01*
X17704761Y31888526D02*
X17666666Y31812336D01*
X17666666Y31812336D02*
X17628571Y31774240D01*
X17628571Y31774240D02*
X17552380Y31736145D01*
X17552380Y31736145D02*
X17323809Y31736145D01*
X17323809Y31736145D02*
X17247618Y31774240D01*
X17247618Y31774240D02*
X17209523Y31812336D01*
X19076190Y32498050D02*
X19000000Y32536145D01*
X19000000Y32536145D02*
X18885714Y32536145D01*
X18885714Y32536145D02*
X18771428Y32498050D01*
X18771428Y32498050D02*
X18695238Y32421860D01*
X18695238Y32421860D02*
X18657143Y32345669D01*
X18657143Y32345669D02*
X18619047Y32193288D01*
X18619047Y32193288D02*
X18619047Y32079002D01*
X18619047Y32079002D02*
X18657143Y31926621D01*
X18657143Y31926621D02*
X18695238Y31850431D01*
X18695238Y31850431D02*
X18771428Y31774240D01*
X18771428Y31774240D02*
X18885714Y31736145D01*
X18885714Y31736145D02*
X18961905Y31736145D01*
X18961905Y31736145D02*
X19076190Y31774240D01*
X19076190Y31774240D02*
X19114286Y31812336D01*
X19114286Y31812336D02*
X19114286Y32079002D01*
X19114286Y32079002D02*
X18961905Y32079002D01*
X19457143Y31736145D02*
X19457143Y32536145D01*
X19457143Y32536145D02*
X19914286Y31736145D01*
X19914286Y31736145D02*
X19914286Y32536145D01*
X20295238Y31736145D02*
X20295238Y32536145D01*
X20295238Y32536145D02*
X20485714Y32536145D01*
X20485714Y32536145D02*
X20600000Y32498050D01*
X20600000Y32498050D02*
X20676190Y32421860D01*
X20676190Y32421860D02*
X20714285Y32345669D01*
X20714285Y32345669D02*
X20752381Y32193288D01*
X20752381Y32193288D02*
X20752381Y32079002D01*
X20752381Y32079002D02*
X20714285Y31926621D01*
X20714285Y31926621D02*
X20676190Y31850431D01*
X20676190Y31850431D02*
X20600000Y31774240D01*
X20600000Y31774240D02*
X20485714Y31736145D01*
X20485714Y31736145D02*
X20295238Y31736145D01*
X23971428Y60936145D02*
X23514285Y60936145D01*
X23742857Y60936145D02*
X23742857Y61736145D01*
X23742857Y61736145D02*
X23666666Y61621860D01*
X23666666Y61621860D02*
X23590476Y61545669D01*
X23590476Y61545669D02*
X23514285Y61507574D01*
X24809524Y61736145D02*
X25076191Y60936145D01*
X25076191Y60936145D02*
X25342857Y61736145D01*
X25609524Y60936145D02*
X25609524Y61736145D01*
X25990476Y60936145D02*
X25990476Y61736145D01*
X25990476Y61736145D02*
X26447619Y60936145D01*
X26447619Y60936145D02*
X26447619Y61736145D01*
X23704761Y36869479D02*
X23704761Y36336145D01*
X23514285Y37174240D02*
X23323808Y36602812D01*
X23323808Y36602812D02*
X23819047Y36602812D01*
X24695237Y36374240D02*
X24809523Y36336145D01*
X24809523Y36336145D02*
X24999999Y36336145D01*
X24999999Y36336145D02*
X25076190Y36374240D01*
X25076190Y36374240D02*
X25114285Y36412336D01*
X25114285Y36412336D02*
X25152380Y36488526D01*
X25152380Y36488526D02*
X25152380Y36564717D01*
X25152380Y36564717D02*
X25114285Y36640907D01*
X25114285Y36640907D02*
X25076190Y36679002D01*
X25076190Y36679002D02*
X24999999Y36717098D01*
X24999999Y36717098D02*
X24847618Y36755193D01*
X24847618Y36755193D02*
X24771428Y36793288D01*
X24771428Y36793288D02*
X24733333Y36831383D01*
X24733333Y36831383D02*
X24695237Y36907574D01*
X24695237Y36907574D02*
X24695237Y36983764D01*
X24695237Y36983764D02*
X24733333Y37059955D01*
X24733333Y37059955D02*
X24771428Y37098050D01*
X24771428Y37098050D02*
X24847618Y37136145D01*
X24847618Y37136145D02*
X25038095Y37136145D01*
X25038095Y37136145D02*
X25152380Y37098050D01*
X25495238Y36755193D02*
X25761904Y36755193D01*
X25876190Y36336145D02*
X25495238Y36336145D01*
X25495238Y36336145D02*
X25495238Y37136145D01*
X25495238Y37136145D02*
X25876190Y37136145D01*
X26676191Y36412336D02*
X26638095Y36374240D01*
X26638095Y36374240D02*
X26523810Y36336145D01*
X26523810Y36336145D02*
X26447619Y36336145D01*
X26447619Y36336145D02*
X26333333Y36374240D01*
X26333333Y36374240D02*
X26257143Y36450431D01*
X26257143Y36450431D02*
X26219048Y36526621D01*
X26219048Y36526621D02*
X26180952Y36679002D01*
X26180952Y36679002D02*
X26180952Y36793288D01*
X26180952Y36793288D02*
X26219048Y36945669D01*
X26219048Y36945669D02*
X26257143Y37021860D01*
X26257143Y37021860D02*
X26333333Y37098050D01*
X26333333Y37098050D02*
X26447619Y37136145D01*
X26447619Y37136145D02*
X26523810Y37136145D01*
X26523810Y37136145D02*
X26638095Y37098050D01*
X26638095Y37098050D02*
X26676191Y37059955D01*
D11*
X38814285Y84690923D02*
X38814285Y85590923D01*
X38814285Y85162352D02*
X39328571Y85162352D01*
X39328571Y84690923D02*
X39328571Y85590923D01*
X39714285Y85505209D02*
X39757142Y85548066D01*
X39757142Y85548066D02*
X39842857Y85590923D01*
X39842857Y85590923D02*
X40057142Y85590923D01*
X40057142Y85590923D02*
X40142857Y85548066D01*
X40142857Y85548066D02*
X40185714Y85505209D01*
X40185714Y85505209D02*
X40228571Y85419495D01*
X40228571Y85419495D02*
X40228571Y85333780D01*
X40228571Y85333780D02*
X40185714Y85205209D01*
X40185714Y85205209D02*
X39671428Y84690923D01*
X39671428Y84690923D02*
X40228571Y84690923D01*
X25850000Y70876638D02*
X25807143Y70833780D01*
X25807143Y70833780D02*
X25678571Y70790923D01*
X25678571Y70790923D02*
X25592857Y70790923D01*
X25592857Y70790923D02*
X25464286Y70833780D01*
X25464286Y70833780D02*
X25378571Y70919495D01*
X25378571Y70919495D02*
X25335714Y71005209D01*
X25335714Y71005209D02*
X25292857Y71176638D01*
X25292857Y71176638D02*
X25292857Y71305209D01*
X25292857Y71305209D02*
X25335714Y71476638D01*
X25335714Y71476638D02*
X25378571Y71562352D01*
X25378571Y71562352D02*
X25464286Y71648066D01*
X25464286Y71648066D02*
X25592857Y71690923D01*
X25592857Y71690923D02*
X25678571Y71690923D01*
X25678571Y71690923D02*
X25807143Y71648066D01*
X25807143Y71648066D02*
X25850000Y71605209D01*
X26192857Y71605209D02*
X26235714Y71648066D01*
X26235714Y71648066D02*
X26321429Y71690923D01*
X26321429Y71690923D02*
X26535714Y71690923D01*
X26535714Y71690923D02*
X26621429Y71648066D01*
X26621429Y71648066D02*
X26664286Y71605209D01*
X26664286Y71605209D02*
X26707143Y71519495D01*
X26707143Y71519495D02*
X26707143Y71433780D01*
X26707143Y71433780D02*
X26664286Y71305209D01*
X26664286Y71305209D02*
X26150000Y70790923D01*
X26150000Y70790923D02*
X26707143Y70790923D01*
X18850000Y14076638D02*
X18807143Y14033780D01*
X18807143Y14033780D02*
X18678571Y13990923D01*
X18678571Y13990923D02*
X18592857Y13990923D01*
X18592857Y13990923D02*
X18464286Y14033780D01*
X18464286Y14033780D02*
X18378571Y14119495D01*
X18378571Y14119495D02*
X18335714Y14205209D01*
X18335714Y14205209D02*
X18292857Y14376638D01*
X18292857Y14376638D02*
X18292857Y14505209D01*
X18292857Y14505209D02*
X18335714Y14676638D01*
X18335714Y14676638D02*
X18378571Y14762352D01*
X18378571Y14762352D02*
X18464286Y14848066D01*
X18464286Y14848066D02*
X18592857Y14890923D01*
X18592857Y14890923D02*
X18678571Y14890923D01*
X18678571Y14890923D02*
X18807143Y14848066D01*
X18807143Y14848066D02*
X18850000Y14805209D01*
X19150000Y14890923D02*
X19707143Y14890923D01*
X19707143Y14890923D02*
X19407143Y14548066D01*
X19407143Y14548066D02*
X19535714Y14548066D01*
X19535714Y14548066D02*
X19621429Y14505209D01*
X19621429Y14505209D02*
X19664286Y14462352D01*
X19664286Y14462352D02*
X19707143Y14376638D01*
X19707143Y14376638D02*
X19707143Y14162352D01*
X19707143Y14162352D02*
X19664286Y14076638D01*
X19664286Y14076638D02*
X19621429Y14033780D01*
X19621429Y14033780D02*
X19535714Y13990923D01*
X19535714Y13990923D02*
X19278571Y13990923D01*
X19278571Y13990923D02*
X19192857Y14033780D01*
X19192857Y14033780D02*
X19150000Y14076638D01*
X6450000Y69376638D02*
X6407143Y69333780D01*
X6407143Y69333780D02*
X6278571Y69290923D01*
X6278571Y69290923D02*
X6192857Y69290923D01*
X6192857Y69290923D02*
X6064286Y69333780D01*
X6064286Y69333780D02*
X5978571Y69419495D01*
X5978571Y69419495D02*
X5935714Y69505209D01*
X5935714Y69505209D02*
X5892857Y69676638D01*
X5892857Y69676638D02*
X5892857Y69805209D01*
X5892857Y69805209D02*
X5935714Y69976638D01*
X5935714Y69976638D02*
X5978571Y70062352D01*
X5978571Y70062352D02*
X6064286Y70148066D01*
X6064286Y70148066D02*
X6192857Y70190923D01*
X6192857Y70190923D02*
X6278571Y70190923D01*
X6278571Y70190923D02*
X6407143Y70148066D01*
X6407143Y70148066D02*
X6450000Y70105209D01*
X7264286Y70190923D02*
X6835714Y70190923D01*
X6835714Y70190923D02*
X6792857Y69762352D01*
X6792857Y69762352D02*
X6835714Y69805209D01*
X6835714Y69805209D02*
X6921429Y69848066D01*
X6921429Y69848066D02*
X7135714Y69848066D01*
X7135714Y69848066D02*
X7221429Y69805209D01*
X7221429Y69805209D02*
X7264286Y69762352D01*
X7264286Y69762352D02*
X7307143Y69676638D01*
X7307143Y69676638D02*
X7307143Y69462352D01*
X7307143Y69462352D02*
X7264286Y69376638D01*
X7264286Y69376638D02*
X7221429Y69333780D01*
X7221429Y69333780D02*
X7135714Y69290923D01*
X7135714Y69290923D02*
X6921429Y69290923D01*
X6921429Y69290923D02*
X6835714Y69333780D01*
X6835714Y69333780D02*
X6792857Y69376638D01*
X30200000Y88990923D02*
X30200000Y88348066D01*
X30200000Y88348066D02*
X30157143Y88219495D01*
X30157143Y88219495D02*
X30071429Y88133780D01*
X30071429Y88133780D02*
X29942857Y88090923D01*
X29942857Y88090923D02*
X29857143Y88090923D01*
X31100000Y88090923D02*
X30585714Y88090923D01*
X30842857Y88090923D02*
X30842857Y88990923D01*
X30842857Y88990923D02*
X30757143Y88862352D01*
X30757143Y88862352D02*
X30671428Y88776638D01*
X30671428Y88776638D02*
X30585714Y88733780D01*
X33635714Y65690923D02*
X33635714Y66590923D01*
X33635714Y66590923D02*
X33850000Y66590923D01*
X33850000Y66590923D02*
X33978571Y66548066D01*
X33978571Y66548066D02*
X34064286Y66462352D01*
X34064286Y66462352D02*
X34107143Y66376638D01*
X34107143Y66376638D02*
X34150000Y66205209D01*
X34150000Y66205209D02*
X34150000Y66076638D01*
X34150000Y66076638D02*
X34107143Y65905209D01*
X34107143Y65905209D02*
X34064286Y65819495D01*
X34064286Y65819495D02*
X33978571Y65733780D01*
X33978571Y65733780D02*
X33850000Y65690923D01*
X33850000Y65690923D02*
X33635714Y65690923D01*
X34921429Y66290923D02*
X34921429Y65690923D01*
X34707143Y66633780D02*
X34492857Y65990923D01*
X34492857Y65990923D02*
X35050000Y65990923D01*
X3814285Y84690923D02*
X3814285Y85590923D01*
X3814285Y85162352D02*
X4328571Y85162352D01*
X4328571Y84690923D02*
X4328571Y85590923D01*
X5228571Y84690923D02*
X4714285Y84690923D01*
X4971428Y84690923D02*
X4971428Y85590923D01*
X4971428Y85590923D02*
X4885714Y85462352D01*
X4885714Y85462352D02*
X4799999Y85376638D01*
X4799999Y85376638D02*
X4714285Y85333780D01*
X12814285Y72690923D02*
X12814285Y71962352D01*
X12814285Y71962352D02*
X12857142Y71876638D01*
X12857142Y71876638D02*
X12900000Y71833780D01*
X12900000Y71833780D02*
X12985714Y71790923D01*
X12985714Y71790923D02*
X13157142Y71790923D01*
X13157142Y71790923D02*
X13242857Y71833780D01*
X13242857Y71833780D02*
X13285714Y71876638D01*
X13285714Y71876638D02*
X13328571Y71962352D01*
X13328571Y71962352D02*
X13328571Y72690923D01*
X14228571Y71790923D02*
X13714285Y71790923D01*
X13971428Y71790923D02*
X13971428Y72690923D01*
X13971428Y72690923D02*
X13885714Y72562352D01*
X13885714Y72562352D02*
X13799999Y72476638D01*
X13799999Y72476638D02*
X13714285Y72433780D01*
X6050000Y63876638D02*
X6007143Y63833780D01*
X6007143Y63833780D02*
X5878571Y63790923D01*
X5878571Y63790923D02*
X5792857Y63790923D01*
X5792857Y63790923D02*
X5664286Y63833780D01*
X5664286Y63833780D02*
X5578571Y63919495D01*
X5578571Y63919495D02*
X5535714Y64005209D01*
X5535714Y64005209D02*
X5492857Y64176638D01*
X5492857Y64176638D02*
X5492857Y64305209D01*
X5492857Y64305209D02*
X5535714Y64476638D01*
X5535714Y64476638D02*
X5578571Y64562352D01*
X5578571Y64562352D02*
X5664286Y64648066D01*
X5664286Y64648066D02*
X5792857Y64690923D01*
X5792857Y64690923D02*
X5878571Y64690923D01*
X5878571Y64690923D02*
X6007143Y64648066D01*
X6007143Y64648066D02*
X6050000Y64605209D01*
X6907143Y63790923D02*
X6392857Y63790923D01*
X6650000Y63790923D02*
X6650000Y64690923D01*
X6650000Y64690923D02*
X6564286Y64562352D01*
X6564286Y64562352D02*
X6478571Y64476638D01*
X6478571Y64476638D02*
X6392857Y64433780D01*
X33550000Y18090923D02*
X33250000Y18519495D01*
X33035714Y18090923D02*
X33035714Y18990923D01*
X33035714Y18990923D02*
X33378571Y18990923D01*
X33378571Y18990923D02*
X33464286Y18948066D01*
X33464286Y18948066D02*
X33507143Y18905209D01*
X33507143Y18905209D02*
X33550000Y18819495D01*
X33550000Y18819495D02*
X33550000Y18690923D01*
X33550000Y18690923D02*
X33507143Y18605209D01*
X33507143Y18605209D02*
X33464286Y18562352D01*
X33464286Y18562352D02*
X33378571Y18519495D01*
X33378571Y18519495D02*
X33035714Y18519495D01*
X33850000Y18990923D02*
X34450000Y18990923D01*
X34450000Y18990923D02*
X34064286Y18090923D01*
X19135714Y26590923D02*
X19135714Y27490923D01*
X19135714Y27490923D02*
X19350000Y27490923D01*
X19350000Y27490923D02*
X19478571Y27448066D01*
X19478571Y27448066D02*
X19564286Y27362352D01*
X19564286Y27362352D02*
X19607143Y27276638D01*
X19607143Y27276638D02*
X19650000Y27105209D01*
X19650000Y27105209D02*
X19650000Y26976638D01*
X19650000Y26976638D02*
X19607143Y26805209D01*
X19607143Y26805209D02*
X19564286Y26719495D01*
X19564286Y26719495D02*
X19478571Y26633780D01*
X19478571Y26633780D02*
X19350000Y26590923D01*
X19350000Y26590923D02*
X19135714Y26590923D01*
X19992857Y27405209D02*
X20035714Y27448066D01*
X20035714Y27448066D02*
X20121429Y27490923D01*
X20121429Y27490923D02*
X20335714Y27490923D01*
X20335714Y27490923D02*
X20421429Y27448066D01*
X20421429Y27448066D02*
X20464286Y27405209D01*
X20464286Y27405209D02*
X20507143Y27319495D01*
X20507143Y27319495D02*
X20507143Y27233780D01*
X20507143Y27233780D02*
X20464286Y27105209D01*
X20464286Y27105209D02*
X19950000Y26590923D01*
X19950000Y26590923D02*
X20507143Y26590923D01*
X32850000Y72176638D02*
X32807143Y72133780D01*
X32807143Y72133780D02*
X32678571Y72090923D01*
X32678571Y72090923D02*
X32592857Y72090923D01*
X32592857Y72090923D02*
X32464286Y72133780D01*
X32464286Y72133780D02*
X32378571Y72219495D01*
X32378571Y72219495D02*
X32335714Y72305209D01*
X32335714Y72305209D02*
X32292857Y72476638D01*
X32292857Y72476638D02*
X32292857Y72605209D01*
X32292857Y72605209D02*
X32335714Y72776638D01*
X32335714Y72776638D02*
X32378571Y72862352D01*
X32378571Y72862352D02*
X32464286Y72948066D01*
X32464286Y72948066D02*
X32592857Y72990923D01*
X32592857Y72990923D02*
X32678571Y72990923D01*
X32678571Y72990923D02*
X32807143Y72948066D01*
X32807143Y72948066D02*
X32850000Y72905209D01*
X33150000Y72990923D02*
X33750000Y72990923D01*
X33750000Y72990923D02*
X33364286Y72090923D01*
X11850000Y13876638D02*
X11807143Y13833780D01*
X11807143Y13833780D02*
X11678571Y13790923D01*
X11678571Y13790923D02*
X11592857Y13790923D01*
X11592857Y13790923D02*
X11464286Y13833780D01*
X11464286Y13833780D02*
X11378571Y13919495D01*
X11378571Y13919495D02*
X11335714Y14005209D01*
X11335714Y14005209D02*
X11292857Y14176638D01*
X11292857Y14176638D02*
X11292857Y14305209D01*
X11292857Y14305209D02*
X11335714Y14476638D01*
X11335714Y14476638D02*
X11378571Y14562352D01*
X11378571Y14562352D02*
X11464286Y14648066D01*
X11464286Y14648066D02*
X11592857Y14690923D01*
X11592857Y14690923D02*
X11678571Y14690923D01*
X11678571Y14690923D02*
X11807143Y14648066D01*
X11807143Y14648066D02*
X11850000Y14605209D01*
X12364286Y14305209D02*
X12278571Y14348066D01*
X12278571Y14348066D02*
X12235714Y14390923D01*
X12235714Y14390923D02*
X12192857Y14476638D01*
X12192857Y14476638D02*
X12192857Y14519495D01*
X12192857Y14519495D02*
X12235714Y14605209D01*
X12235714Y14605209D02*
X12278571Y14648066D01*
X12278571Y14648066D02*
X12364286Y14690923D01*
X12364286Y14690923D02*
X12535714Y14690923D01*
X12535714Y14690923D02*
X12621429Y14648066D01*
X12621429Y14648066D02*
X12664286Y14605209D01*
X12664286Y14605209D02*
X12707143Y14519495D01*
X12707143Y14519495D02*
X12707143Y14476638D01*
X12707143Y14476638D02*
X12664286Y14390923D01*
X12664286Y14390923D02*
X12621429Y14348066D01*
X12621429Y14348066D02*
X12535714Y14305209D01*
X12535714Y14305209D02*
X12364286Y14305209D01*
X12364286Y14305209D02*
X12278571Y14262352D01*
X12278571Y14262352D02*
X12235714Y14219495D01*
X12235714Y14219495D02*
X12192857Y14133780D01*
X12192857Y14133780D02*
X12192857Y13962352D01*
X12192857Y13962352D02*
X12235714Y13876638D01*
X12235714Y13876638D02*
X12278571Y13833780D01*
X12278571Y13833780D02*
X12364286Y13790923D01*
X12364286Y13790923D02*
X12535714Y13790923D01*
X12535714Y13790923D02*
X12621429Y13833780D01*
X12621429Y13833780D02*
X12664286Y13876638D01*
X12664286Y13876638D02*
X12707143Y13962352D01*
X12707143Y13962352D02*
X12707143Y14133780D01*
X12707143Y14133780D02*
X12664286Y14219495D01*
X12664286Y14219495D02*
X12621429Y14262352D01*
X12621429Y14262352D02*
X12535714Y14305209D01*
X5835714Y80590923D02*
X5835714Y81490923D01*
X5835714Y81490923D02*
X6050000Y81490923D01*
X6050000Y81490923D02*
X6178571Y81448066D01*
X6178571Y81448066D02*
X6264286Y81362352D01*
X6264286Y81362352D02*
X6307143Y81276638D01*
X6307143Y81276638D02*
X6350000Y81105209D01*
X6350000Y81105209D02*
X6350000Y80976638D01*
X6350000Y80976638D02*
X6307143Y80805209D01*
X6307143Y80805209D02*
X6264286Y80719495D01*
X6264286Y80719495D02*
X6178571Y80633780D01*
X6178571Y80633780D02*
X6050000Y80590923D01*
X6050000Y80590923D02*
X5835714Y80590923D01*
X7207143Y80590923D02*
X6692857Y80590923D01*
X6950000Y80590923D02*
X6950000Y81490923D01*
X6950000Y81490923D02*
X6864286Y81362352D01*
X6864286Y81362352D02*
X6778571Y81276638D01*
X6778571Y81276638D02*
X6692857Y81233780D01*
X18500000Y65490923D02*
X18200000Y65919495D01*
X17985714Y65490923D02*
X17985714Y66390923D01*
X17985714Y66390923D02*
X18328571Y66390923D01*
X18328571Y66390923D02*
X18414286Y66348066D01*
X18414286Y66348066D02*
X18457143Y66305209D01*
X18457143Y66305209D02*
X18500000Y66219495D01*
X18500000Y66219495D02*
X18500000Y66090923D01*
X18500000Y66090923D02*
X18457143Y66005209D01*
X18457143Y66005209D02*
X18414286Y65962352D01*
X18414286Y65962352D02*
X18328571Y65919495D01*
X18328571Y65919495D02*
X17985714Y65919495D01*
X18800000Y66390923D02*
X19357143Y66390923D01*
X19357143Y66390923D02*
X19057143Y66048066D01*
X19057143Y66048066D02*
X19185714Y66048066D01*
X19185714Y66048066D02*
X19271429Y66005209D01*
X19271429Y66005209D02*
X19314286Y65962352D01*
X19314286Y65962352D02*
X19357143Y65876638D01*
X19357143Y65876638D02*
X19357143Y65662352D01*
X19357143Y65662352D02*
X19314286Y65576638D01*
X19314286Y65576638D02*
X19271429Y65533780D01*
X19271429Y65533780D02*
X19185714Y65490923D01*
X19185714Y65490923D02*
X18928571Y65490923D01*
X18928571Y65490923D02*
X18842857Y65533780D01*
X18842857Y65533780D02*
X18800000Y65576638D01*
X20850000Y76790923D02*
X20550000Y77219495D01*
X20335714Y76790923D02*
X20335714Y77690923D01*
X20335714Y77690923D02*
X20678571Y77690923D01*
X20678571Y77690923D02*
X20764286Y77648066D01*
X20764286Y77648066D02*
X20807143Y77605209D01*
X20807143Y77605209D02*
X20850000Y77519495D01*
X20850000Y77519495D02*
X20850000Y77390923D01*
X20850000Y77390923D02*
X20807143Y77305209D01*
X20807143Y77305209D02*
X20764286Y77262352D01*
X20764286Y77262352D02*
X20678571Y77219495D01*
X20678571Y77219495D02*
X20335714Y77219495D01*
X21364286Y77305209D02*
X21278571Y77348066D01*
X21278571Y77348066D02*
X21235714Y77390923D01*
X21235714Y77390923D02*
X21192857Y77476638D01*
X21192857Y77476638D02*
X21192857Y77519495D01*
X21192857Y77519495D02*
X21235714Y77605209D01*
X21235714Y77605209D02*
X21278571Y77648066D01*
X21278571Y77648066D02*
X21364286Y77690923D01*
X21364286Y77690923D02*
X21535714Y77690923D01*
X21535714Y77690923D02*
X21621429Y77648066D01*
X21621429Y77648066D02*
X21664286Y77605209D01*
X21664286Y77605209D02*
X21707143Y77519495D01*
X21707143Y77519495D02*
X21707143Y77476638D01*
X21707143Y77476638D02*
X21664286Y77390923D01*
X21664286Y77390923D02*
X21621429Y77348066D01*
X21621429Y77348066D02*
X21535714Y77305209D01*
X21535714Y77305209D02*
X21364286Y77305209D01*
X21364286Y77305209D02*
X21278571Y77262352D01*
X21278571Y77262352D02*
X21235714Y77219495D01*
X21235714Y77219495D02*
X21192857Y77133780D01*
X21192857Y77133780D02*
X21192857Y76962352D01*
X21192857Y76962352D02*
X21235714Y76876638D01*
X21235714Y76876638D02*
X21278571Y76833780D01*
X21278571Y76833780D02*
X21364286Y76790923D01*
X21364286Y76790923D02*
X21535714Y76790923D01*
X21535714Y76790923D02*
X21621429Y76833780D01*
X21621429Y76833780D02*
X21664286Y76876638D01*
X21664286Y76876638D02*
X21707143Y76962352D01*
X21707143Y76962352D02*
X21707143Y77133780D01*
X21707143Y77133780D02*
X21664286Y77219495D01*
X21664286Y77219495D02*
X21621429Y77262352D01*
X21621429Y77262352D02*
X21535714Y77305209D01*
X3814285Y8490923D02*
X3814285Y9390923D01*
X3814285Y8962352D02*
X4328571Y8962352D01*
X4328571Y8490923D02*
X4328571Y9390923D01*
X4671428Y9390923D02*
X5228571Y9390923D01*
X5228571Y9390923D02*
X4928571Y9048066D01*
X4928571Y9048066D02*
X5057142Y9048066D01*
X5057142Y9048066D02*
X5142857Y9005209D01*
X5142857Y9005209D02*
X5185714Y8962352D01*
X5185714Y8962352D02*
X5228571Y8876638D01*
X5228571Y8876638D02*
X5228571Y8662352D01*
X5228571Y8662352D02*
X5185714Y8576638D01*
X5185714Y8576638D02*
X5142857Y8533780D01*
X5142857Y8533780D02*
X5057142Y8490923D01*
X5057142Y8490923D02*
X4799999Y8490923D01*
X4799999Y8490923D02*
X4714285Y8533780D01*
X4714285Y8533780D02*
X4671428Y8576638D01*
X18050000Y72090923D02*
X17750000Y72519495D01*
X17535714Y72090923D02*
X17535714Y72990923D01*
X17535714Y72990923D02*
X17878571Y72990923D01*
X17878571Y72990923D02*
X17964286Y72948066D01*
X17964286Y72948066D02*
X18007143Y72905209D01*
X18007143Y72905209D02*
X18050000Y72819495D01*
X18050000Y72819495D02*
X18050000Y72690923D01*
X18050000Y72690923D02*
X18007143Y72605209D01*
X18007143Y72605209D02*
X17964286Y72562352D01*
X17964286Y72562352D02*
X17878571Y72519495D01*
X17878571Y72519495D02*
X17535714Y72519495D01*
X18864286Y72990923D02*
X18435714Y72990923D01*
X18435714Y72990923D02*
X18392857Y72562352D01*
X18392857Y72562352D02*
X18435714Y72605209D01*
X18435714Y72605209D02*
X18521429Y72648066D01*
X18521429Y72648066D02*
X18735714Y72648066D01*
X18735714Y72648066D02*
X18821429Y72605209D01*
X18821429Y72605209D02*
X18864286Y72562352D01*
X18864286Y72562352D02*
X18907143Y72476638D01*
X18907143Y72476638D02*
X18907143Y72262352D01*
X18907143Y72262352D02*
X18864286Y72176638D01*
X18864286Y72176638D02*
X18821429Y72133780D01*
X18821429Y72133780D02*
X18735714Y72090923D01*
X18735714Y72090923D02*
X18521429Y72090923D01*
X18521429Y72090923D02*
X18435714Y72133780D01*
X18435714Y72133780D02*
X18392857Y72176638D01*
X28350000Y27676638D02*
X28307143Y27633780D01*
X28307143Y27633780D02*
X28178571Y27590923D01*
X28178571Y27590923D02*
X28092857Y27590923D01*
X28092857Y27590923D02*
X27964286Y27633780D01*
X27964286Y27633780D02*
X27878571Y27719495D01*
X27878571Y27719495D02*
X27835714Y27805209D01*
X27835714Y27805209D02*
X27792857Y27976638D01*
X27792857Y27976638D02*
X27792857Y28105209D01*
X27792857Y28105209D02*
X27835714Y28276638D01*
X27835714Y28276638D02*
X27878571Y28362352D01*
X27878571Y28362352D02*
X27964286Y28448066D01*
X27964286Y28448066D02*
X28092857Y28490923D01*
X28092857Y28490923D02*
X28178571Y28490923D01*
X28178571Y28490923D02*
X28307143Y28448066D01*
X28307143Y28448066D02*
X28350000Y28405209D01*
X29121429Y28190923D02*
X29121429Y27590923D01*
X28907143Y28533780D02*
X28692857Y27890923D01*
X28692857Y27890923D02*
X29250000Y27890923D01*
X20150000Y69890923D02*
X19850000Y70319495D01*
X19635714Y69890923D02*
X19635714Y70790923D01*
X19635714Y70790923D02*
X19978571Y70790923D01*
X19978571Y70790923D02*
X20064286Y70748066D01*
X20064286Y70748066D02*
X20107143Y70705209D01*
X20107143Y70705209D02*
X20150000Y70619495D01*
X20150000Y70619495D02*
X20150000Y70490923D01*
X20150000Y70490923D02*
X20107143Y70405209D01*
X20107143Y70405209D02*
X20064286Y70362352D01*
X20064286Y70362352D02*
X19978571Y70319495D01*
X19978571Y70319495D02*
X19635714Y70319495D01*
X20921429Y70490923D02*
X20921429Y69890923D01*
X20707143Y70833780D02*
X20492857Y70190923D01*
X20492857Y70190923D02*
X21050000Y70190923D01*
X38814285Y8490923D02*
X38814285Y9390923D01*
X38814285Y8962352D02*
X39328571Y8962352D01*
X39328571Y8490923D02*
X39328571Y9390923D01*
X40142857Y9090923D02*
X40142857Y8490923D01*
X39928571Y9433780D02*
X39714285Y8790923D01*
X39714285Y8790923D02*
X40271428Y8790923D01*
X21850000Y61476638D02*
X21807143Y61433780D01*
X21807143Y61433780D02*
X21678571Y61390923D01*
X21678571Y61390923D02*
X21592857Y61390923D01*
X21592857Y61390923D02*
X21464286Y61433780D01*
X21464286Y61433780D02*
X21378571Y61519495D01*
X21378571Y61519495D02*
X21335714Y61605209D01*
X21335714Y61605209D02*
X21292857Y61776638D01*
X21292857Y61776638D02*
X21292857Y61905209D01*
X21292857Y61905209D02*
X21335714Y62076638D01*
X21335714Y62076638D02*
X21378571Y62162352D01*
X21378571Y62162352D02*
X21464286Y62248066D01*
X21464286Y62248066D02*
X21592857Y62290923D01*
X21592857Y62290923D02*
X21678571Y62290923D01*
X21678571Y62290923D02*
X21807143Y62248066D01*
X21807143Y62248066D02*
X21850000Y62205209D01*
X22621429Y62290923D02*
X22450000Y62290923D01*
X22450000Y62290923D02*
X22364286Y62248066D01*
X22364286Y62248066D02*
X22321429Y62205209D01*
X22321429Y62205209D02*
X22235714Y62076638D01*
X22235714Y62076638D02*
X22192857Y61905209D01*
X22192857Y61905209D02*
X22192857Y61562352D01*
X22192857Y61562352D02*
X22235714Y61476638D01*
X22235714Y61476638D02*
X22278571Y61433780D01*
X22278571Y61433780D02*
X22364286Y61390923D01*
X22364286Y61390923D02*
X22535714Y61390923D01*
X22535714Y61390923D02*
X22621429Y61433780D01*
X22621429Y61433780D02*
X22664286Y61476638D01*
X22664286Y61476638D02*
X22707143Y61562352D01*
X22707143Y61562352D02*
X22707143Y61776638D01*
X22707143Y61776638D02*
X22664286Y61862352D01*
X22664286Y61862352D02*
X22621429Y61905209D01*
X22621429Y61905209D02*
X22535714Y61948066D01*
X22535714Y61948066D02*
X22364286Y61948066D01*
X22364286Y61948066D02*
X22278571Y61905209D01*
X22278571Y61905209D02*
X22235714Y61862352D01*
X22235714Y61862352D02*
X22192857Y61776638D01*
X12199999Y89262352D02*
X11899999Y89262352D01*
X11899999Y88790923D02*
X11899999Y89690923D01*
X11899999Y89690923D02*
X12328571Y89690923D01*
X13142857Y88790923D02*
X12628571Y88790923D01*
X12885714Y88790923D02*
X12885714Y89690923D01*
X12885714Y89690923D02*
X12800000Y89562352D01*
X12800000Y89562352D02*
X12714285Y89476638D01*
X12714285Y89476638D02*
X12628571Y89433780D01*
X15350000Y77090923D02*
X15050000Y77519495D01*
X14835714Y77090923D02*
X14835714Y77990923D01*
X14835714Y77990923D02*
X15178571Y77990923D01*
X15178571Y77990923D02*
X15264286Y77948066D01*
X15264286Y77948066D02*
X15307143Y77905209D01*
X15307143Y77905209D02*
X15350000Y77819495D01*
X15350000Y77819495D02*
X15350000Y77690923D01*
X15350000Y77690923D02*
X15307143Y77605209D01*
X15307143Y77605209D02*
X15264286Y77562352D01*
X15264286Y77562352D02*
X15178571Y77519495D01*
X15178571Y77519495D02*
X14835714Y77519495D01*
X15692857Y77905209D02*
X15735714Y77948066D01*
X15735714Y77948066D02*
X15821429Y77990923D01*
X15821429Y77990923D02*
X16035714Y77990923D01*
X16035714Y77990923D02*
X16121429Y77948066D01*
X16121429Y77948066D02*
X16164286Y77905209D01*
X16164286Y77905209D02*
X16207143Y77819495D01*
X16207143Y77819495D02*
X16207143Y77733780D01*
X16207143Y77733780D02*
X16164286Y77605209D01*
X16164286Y77605209D02*
X15650000Y77090923D01*
X15650000Y77090923D02*
X16207143Y77090923D01*
X12350000Y77090923D02*
X12050000Y77519495D01*
X11835714Y77090923D02*
X11835714Y77990923D01*
X11835714Y77990923D02*
X12178571Y77990923D01*
X12178571Y77990923D02*
X12264286Y77948066D01*
X12264286Y77948066D02*
X12307143Y77905209D01*
X12307143Y77905209D02*
X12350000Y77819495D01*
X12350000Y77819495D02*
X12350000Y77690923D01*
X12350000Y77690923D02*
X12307143Y77605209D01*
X12307143Y77605209D02*
X12264286Y77562352D01*
X12264286Y77562352D02*
X12178571Y77519495D01*
X12178571Y77519495D02*
X11835714Y77519495D01*
X13207143Y77090923D02*
X12692857Y77090923D01*
X12950000Y77090923D02*
X12950000Y77990923D01*
X12950000Y77990923D02*
X12864286Y77862352D01*
X12864286Y77862352D02*
X12778571Y77776638D01*
X12778571Y77776638D02*
X12692857Y77733780D01*
X28850000Y61290923D02*
X28550000Y61719495D01*
X28335714Y61290923D02*
X28335714Y62190923D01*
X28335714Y62190923D02*
X28678571Y62190923D01*
X28678571Y62190923D02*
X28764286Y62148066D01*
X28764286Y62148066D02*
X28807143Y62105209D01*
X28807143Y62105209D02*
X28850000Y62019495D01*
X28850000Y62019495D02*
X28850000Y61890923D01*
X28850000Y61890923D02*
X28807143Y61805209D01*
X28807143Y61805209D02*
X28764286Y61762352D01*
X28764286Y61762352D02*
X28678571Y61719495D01*
X28678571Y61719495D02*
X28335714Y61719495D01*
X29621429Y62190923D02*
X29450000Y62190923D01*
X29450000Y62190923D02*
X29364286Y62148066D01*
X29364286Y62148066D02*
X29321429Y62105209D01*
X29321429Y62105209D02*
X29235714Y61976638D01*
X29235714Y61976638D02*
X29192857Y61805209D01*
X29192857Y61805209D02*
X29192857Y61462352D01*
X29192857Y61462352D02*
X29235714Y61376638D01*
X29235714Y61376638D02*
X29278571Y61333780D01*
X29278571Y61333780D02*
X29364286Y61290923D01*
X29364286Y61290923D02*
X29535714Y61290923D01*
X29535714Y61290923D02*
X29621429Y61333780D01*
X29621429Y61333780D02*
X29664286Y61376638D01*
X29664286Y61376638D02*
X29707143Y61462352D01*
X29707143Y61462352D02*
X29707143Y61676638D01*
X29707143Y61676638D02*
X29664286Y61762352D01*
X29664286Y61762352D02*
X29621429Y61805209D01*
X29621429Y61805209D02*
X29535714Y61848066D01*
X29535714Y61848066D02*
X29364286Y61848066D01*
X29364286Y61848066D02*
X29278571Y61805209D01*
X29278571Y61805209D02*
X29235714Y61762352D01*
X29235714Y61762352D02*
X29192857Y61676638D01*
%TO.C,J2*%
D10*
X16900000Y12100000D02*
X27100000Y12100000D01*
X16900000Y4300000D02*
X16900000Y12100000D01*
D13*
X20300000Y4800000D02*
X18700000Y4800000D01*
X25300000Y4800000D02*
X23700000Y4800000D01*
D10*
X27100000Y12100000D02*
X27100000Y4300000D01*
X27100000Y4300000D02*
X16900000Y4300000D01*
%TO.C,D3*%
D12*
X20990000Y69610000D02*
X20990000Y66300000D01*
X20990000Y69610000D02*
X23010000Y69610000D01*
X23010000Y66300000D02*
X23010000Y69610000D01*
%TO.C,C2*%
X24640000Y67288748D02*
X24640000Y68711252D01*
X27360000Y67288748D02*
X27360000Y68711252D01*
%TO.C,C3*%
D10*
X26300000Y21900000D02*
X19700000Y21900000D01*
X26300000Y15100000D02*
X19700000Y15100000D01*
D14*
X26500000Y16000000D02*
X26500000Y17000000D01*
X27000000Y16500000D02*
X26000000Y16500000D01*
%TO.C,C5*%
D12*
X8640580Y69310000D02*
X8359420Y69310000D01*
X8640580Y68290000D02*
X8359420Y68290000D01*
%TO.C,J1*%
D10*
X16900000Y90700000D02*
X27100000Y90700000D01*
X16900000Y82900000D02*
X16900000Y90700000D01*
D13*
X18700000Y90200000D02*
X20300000Y90200000D01*
X23700000Y90200000D02*
X25300000Y90200000D01*
D10*
X27100000Y90700000D02*
X27100000Y82900000D01*
X27100000Y82900000D02*
X16900000Y82900000D01*
%TO.C,D4*%
D12*
X29350000Y69610000D02*
X29350000Y64100000D01*
X32650000Y69610000D02*
X29350000Y69610000D01*
X32650000Y69610000D02*
X32650000Y64100000D01*
%TO.C,U1*%
D15*
X10200000Y70450000D02*
X10700000Y70450000D01*
D10*
X11700000Y70650000D02*
X15300000Y70650000D01*
X11700000Y65350000D02*
X15300000Y65350000D01*
%TO.C,C1*%
D12*
X8211252Y67725000D02*
X6788748Y67725000D01*
X8211252Y65005000D02*
X6788748Y65005000D01*
%TO.C,R7*%
X30090000Y19227064D02*
X30090000Y17772936D01*
X31910000Y19227064D02*
X31910000Y17772936D01*
%TO.C,D2*%
X20875000Y28000000D02*
X20875000Y23190000D01*
X25125000Y23190000D02*
X20875000Y23190000D01*
X25125000Y23190000D02*
X25125000Y28000000D01*
%TO.C,C7*%
X26900000Y80510000D02*
X27900000Y80510000D01*
X27400000Y81010000D02*
X27400000Y80010000D01*
X28140000Y81295563D02*
X28140000Y79510000D01*
X28140000Y81295563D02*
X29204437Y82360000D01*
X28140000Y74704437D02*
X28140000Y76490000D01*
X28140000Y74704437D02*
X29204437Y73640000D01*
X29204437Y82360000D02*
X36860000Y82360000D01*
X29204437Y73640000D02*
X36860000Y73640000D01*
X36860000Y82360000D02*
X36860000Y79510000D01*
X36860000Y73640000D02*
X36860000Y76490000D01*
%TO.C,C8*%
D10*
X16300000Y21900000D02*
X9700000Y21900000D01*
X16300000Y15100000D02*
X9700000Y15100000D01*
D14*
X16500000Y16000000D02*
X16500000Y17000000D01*
X17000000Y16500000D02*
X16000000Y16500000D01*
%TO.C,D1*%
D12*
X8990000Y82000000D02*
X8990000Y78690000D01*
X11010000Y78690000D02*
X8990000Y78690000D01*
X11010000Y78690000D02*
X11010000Y82000000D01*
%TO.C,R3*%
X18887258Y67887500D02*
X18412742Y67887500D01*
X18887258Y66842500D02*
X18412742Y66842500D01*
%TO.C,R8*%
X18900000Y81750000D02*
X21100000Y81750000D01*
X18900000Y78250000D02*
X21100000Y78250000D01*
%TO.C,R5*%
X15579000Y72262742D02*
X15579000Y72737258D01*
X16624000Y72262742D02*
X16624000Y72737258D01*
%TO.C,C4*%
X27788748Y27240000D02*
X29211252Y27240000D01*
X27788748Y24520000D02*
X29211252Y24520000D01*
%TO.C,R4*%
X18412742Y69722500D02*
X18887258Y69722500D01*
X18412742Y68677500D02*
X18887258Y68677500D01*
%TO.C,C6*%
X22261252Y64335000D02*
X21738748Y64335000D01*
X22261252Y62865000D02*
X21738748Y62865000D01*
%TO.C,F1*%
X13350000Y87940000D02*
X11650000Y87940000D01*
X13350000Y86060000D02*
X11650000Y86060000D01*
%TO.C,R2*%
X15262742Y76522500D02*
X15737258Y76522500D01*
X15262742Y75477500D02*
X15737258Y75477500D01*
%TO.C,R1*%
X12262742Y76522500D02*
X12737258Y76522500D01*
X12262742Y75477500D02*
X12737258Y75477500D01*
%TO.C,R6*%
X26727064Y64510000D02*
X25272936Y64510000D01*
X26727064Y62690000D02*
X25272936Y62690000D01*
%TD*%
%LPC*%
D16*
%TO.C,H2*%
G36*
X47700000Y86300000D02*
G01*
X39500000Y86300000D01*
X39290710Y86306851D01*
X39082316Y86327376D01*
X38875711Y86361487D01*
X38671779Y86409037D01*
X38471394Y86469824D01*
X38275413Y86543585D01*
X38084676Y86630007D01*
X37900000Y86728719D01*
X37722175Y86839297D01*
X37551963Y86961269D01*
X37390093Y87094113D01*
X37237258Y87237258D01*
X37094113Y87390093D01*
X36961269Y87551963D01*
X36839297Y87722175D01*
X36728719Y87900000D01*
X36630007Y88084676D01*
X36543585Y88275413D01*
X36469824Y88471394D01*
X36409037Y88671779D01*
X36361487Y88875711D01*
X36327376Y89082316D01*
X36306851Y89290710D01*
X36300000Y89500000D01*
X36306851Y89709290D01*
X36327376Y89917684D01*
X36361487Y90124289D01*
X36409037Y90328221D01*
X36469824Y90528606D01*
X36543585Y90724587D01*
X36630007Y90915324D01*
X36728719Y91100000D01*
X36839297Y91277825D01*
X36961269Y91448037D01*
X37094113Y91609907D01*
X37237258Y91762742D01*
X37390093Y91905887D01*
X37551963Y92038731D01*
X37722175Y92160703D01*
X37900000Y92271281D01*
X38084676Y92369993D01*
X38275413Y92456415D01*
X38471394Y92530176D01*
X38671779Y92590963D01*
X38875711Y92638513D01*
X39082316Y92672624D01*
X39290710Y92693149D01*
X39500000Y92700000D01*
X47700000Y92700000D01*
X47700000Y86300000D01*
G37*
%TO.C,H1*%
G36*
X4709290Y92693149D02*
G01*
X4917684Y92672624D01*
X5124289Y92638513D01*
X5328221Y92590963D01*
X5528606Y92530176D01*
X5724587Y92456415D01*
X5915324Y92369993D01*
X6100000Y92271281D01*
X6277825Y92160703D01*
X6448037Y92038731D01*
X6609907Y91905887D01*
X6762742Y91762742D01*
X6905887Y91609907D01*
X7038731Y91448037D01*
X7160703Y91277825D01*
X7271281Y91100000D01*
X7369993Y90915324D01*
X7456415Y90724587D01*
X7530176Y90528606D01*
X7590963Y90328221D01*
X7638513Y90124289D01*
X7672624Y89917684D01*
X7693149Y89709290D01*
X7700000Y89500000D01*
X7693149Y89290710D01*
X7672624Y89082316D01*
X7638513Y88875711D01*
X7590963Y88671779D01*
X7530176Y88471394D01*
X7456415Y88275413D01*
X7369993Y88084676D01*
X7271281Y87900000D01*
X7160703Y87722175D01*
X7038731Y87551963D01*
X6905887Y87390093D01*
X6762742Y87237258D01*
X6609907Y87094113D01*
X6448037Y86961269D01*
X6277825Y86839297D01*
X6100000Y86728719D01*
X5915324Y86630007D01*
X5724587Y86543585D01*
X5528606Y86469824D01*
X5328221Y86409037D01*
X5124289Y86361487D01*
X4917684Y86327376D01*
X4709290Y86306851D01*
X4500000Y86300000D01*
X-3700000Y86300000D01*
X-3700000Y92700000D01*
X4500000Y92700000D01*
X4709290Y92693149D01*
G37*
%TO.C,H3*%
G36*
X4709290Y7693149D02*
G01*
X4917684Y7672624D01*
X5124289Y7638513D01*
X5328221Y7590963D01*
X5528606Y7530176D01*
X5724587Y7456415D01*
X5915324Y7369993D01*
X6100000Y7271281D01*
X6277825Y7160703D01*
X6448037Y7038731D01*
X6609907Y6905887D01*
X6762742Y6762742D01*
X6905887Y6609907D01*
X7038731Y6448037D01*
X7160703Y6277825D01*
X7271281Y6100000D01*
X7369993Y5915324D01*
X7456415Y5724587D01*
X7530176Y5528606D01*
X7590963Y5328221D01*
X7638513Y5124289D01*
X7672624Y4917684D01*
X7693149Y4709290D01*
X7700000Y4500000D01*
X7693149Y4290710D01*
X7672624Y4082316D01*
X7638513Y3875711D01*
X7590963Y3671779D01*
X7530176Y3471394D01*
X7456415Y3275413D01*
X7369993Y3084676D01*
X7271281Y2900000D01*
X7160703Y2722175D01*
X7038731Y2551963D01*
X6905887Y2390093D01*
X6762742Y2237258D01*
X6609907Y2094113D01*
X6448037Y1961269D01*
X6277825Y1839297D01*
X6100000Y1728719D01*
X5915324Y1630007D01*
X5724587Y1543585D01*
X5528606Y1469824D01*
X5328221Y1409037D01*
X5124289Y1361487D01*
X4917684Y1327376D01*
X4709290Y1306851D01*
X4500000Y1300000D01*
X-3700000Y1300000D01*
X-3700000Y7700000D01*
X4500000Y7700000D01*
X4709290Y7693149D01*
G37*
%TO.C,H4*%
G36*
X47700000Y1300000D02*
G01*
X39500000Y1300000D01*
X39290710Y1306851D01*
X39082316Y1327376D01*
X38875711Y1361487D01*
X38671779Y1409037D01*
X38471394Y1469824D01*
X38275413Y1543585D01*
X38084676Y1630007D01*
X37900000Y1728719D01*
X37722175Y1839297D01*
X37551963Y1961269D01*
X37390093Y2094113D01*
X37237258Y2237258D01*
X37094113Y2390093D01*
X36961269Y2551963D01*
X36839297Y2722175D01*
X36728719Y2900000D01*
X36630007Y3084676D01*
X36543585Y3275413D01*
X36469824Y3471394D01*
X36409037Y3671779D01*
X36361487Y3875711D01*
X36327376Y4082316D01*
X36306851Y4290710D01*
X36300000Y4500000D01*
X36306851Y4709290D01*
X36327376Y4917684D01*
X36361487Y5124289D01*
X36409037Y5328221D01*
X36469824Y5528606D01*
X36543585Y5724587D01*
X36630007Y5915324D01*
X36728719Y6100000D01*
X36839297Y6277825D01*
X36961269Y6448037D01*
X37094113Y6609907D01*
X37237258Y6762742D01*
X37390093Y6905887D01*
X37551963Y7038731D01*
X37722175Y7160703D01*
X37900000Y7271281D01*
X38084676Y7369993D01*
X38275413Y7456415D01*
X38471394Y7530176D01*
X38671779Y7590963D01*
X38875711Y7638513D01*
X39082316Y7672624D01*
X39290710Y7693149D01*
X39500000Y7700000D01*
X47700000Y7700000D01*
X47700000Y1300000D01*
G37*
%TD*%
D17*
%TO.C,J2*%
X24500000Y8000000D03*
D18*
X19500000Y8000000D03*
%TD*%
D19*
%TO.C,D3*%
X22000000Y68150000D03*
D20*
X22000000Y65775000D03*
%TD*%
D21*
%TO.C,T1*%
X24871953Y60073763D03*
X19128047Y60073763D03*
X20540116Y33532645D03*
X22775000Y37270417D03*
%TD*%
D22*
%TO.C,H2*%
X39500000Y89500000D03*
%TD*%
D23*
%TO.C,C2*%
X26000000Y66525000D03*
X26000000Y69475000D03*
%TD*%
D24*
%TO.C,C3*%
X25800000Y18500000D03*
X20200000Y18500000D03*
%TD*%
D25*
%TO.C,C5*%
X9275000Y68800000D03*
X7725000Y68800000D03*
%TD*%
D17*
%TO.C,J1*%
X19500000Y87000000D03*
D18*
X24500000Y87000000D03*
%TD*%
D26*
%TO.C,D4*%
X31000000Y68100000D03*
X31000000Y64100000D03*
%TD*%
D22*
%TO.C,H1*%
X4500000Y89500000D03*
%TD*%
D27*
%TO.C,U1*%
X10898500Y69905000D03*
X10898500Y68635000D03*
X10898500Y67365000D03*
X10898500Y66095000D03*
X16101500Y66095000D03*
X16101500Y67365000D03*
X16101500Y68635000D03*
X16101500Y69905000D03*
D28*
X13500000Y68000000D03*
%TD*%
D29*
%TO.C,C1*%
X8975000Y66365000D03*
X6025000Y66365000D03*
%TD*%
D30*
%TO.C,R7*%
X31000000Y19962500D03*
X31000000Y17037500D03*
%TD*%
D31*
%TO.C,D2*%
X23000000Y25880000D03*
D32*
X22080000Y29862000D03*
X23920000Y29862000D03*
%TD*%
D33*
%TO.C,C7*%
X28800000Y78000000D03*
X36200000Y78000000D03*
%TD*%
D24*
%TO.C,C8*%
X15800000Y18500000D03*
X10200000Y18500000D03*
%TD*%
D34*
%TO.C,D1*%
X10000000Y80150000D03*
D35*
X10000000Y82525000D03*
%TD*%
D36*
%TO.C,R3*%
X19475000Y67365000D03*
X17825000Y67365000D03*
%TD*%
D37*
%TO.C,R8*%
X17425000Y80000000D03*
X22575000Y80000000D03*
%TD*%
D22*
%TO.C,H3*%
X4500000Y4500000D03*
%TD*%
D38*
%TO.C,R5*%
X16101500Y71675000D03*
X16101500Y73325000D03*
%TD*%
D39*
%TO.C,C4*%
X27025000Y25880000D03*
X29975000Y25880000D03*
%TD*%
D40*
%TO.C,R4*%
X17825000Y69200000D03*
X19475000Y69200000D03*
%TD*%
D22*
%TO.C,H4*%
X39500000Y4500000D03*
%TD*%
D41*
%TO.C,C6*%
X22950000Y63600000D03*
X21050000Y63600000D03*
%TD*%
D42*
%TO.C,F1*%
X14225000Y87000000D03*
X10775000Y87000000D03*
%TD*%
D40*
%TO.C,R2*%
X14675000Y76000000D03*
X16325000Y76000000D03*
%TD*%
%TO.C,R1*%
X11675000Y76000000D03*
X13325000Y76000000D03*
%TD*%
D43*
%TO.C,R6*%
X27462500Y63600000D03*
X24537500Y63600000D03*
%TD*%
D44*
X30200000Y23000000D03*
X14400000Y64350000D03*
%LPD*%
M02*
