M48
; DRILL file KiCad 10.0.6 date 2026-10-08T12:10:18
; FORMAT={-:-/ absolute / metric / decimal}
; #@! TF.CreationDate,2026-10-08T12:10:18-04:00
; #@! TF.GenerationSoftware,Kicad,Pcbnew,10.0.6
; #@! TF.FileFunction,Plated,1,6,PTH
FMAT,2
METRIC
; #@! TA.AperFunction,Plated,PTH,ViaDrill
T1C0.300
; #@! TA.AperFunction,Plated,PTH,ComponentDrill
T2C0.300
; #@! TA.AperFunction,Plated,PTH,ViaDrill
T3C0.400
; #@! TA.AperFunction,Plated,PTH,ViaDrill
T4C0.450
; #@! TA.AperFunction,Plated,PTH,ComponentDrill
T5C1.300
%
G90
G05
T1
X6.025Y66.365
X6.5Y84.0
X6.5Y72.0
X6.5Y63.0
X7.0Y75.0
X7.5Y63.6
X7.725Y68.8
X8.0Y85.0
X8.5Y73.5
X9.0Y29.0
X9.0Y22.0
X9.0Y14.0
X10.899Y66.095
X11.675Y76.0
X12.0Y29.0
X12.7Y68.55
X12.7Y67.45
X13.0Y64.5
X13.0Y7.0
X14.0Y25.0
X14.0Y14.0
X14.3Y68.55
X14.3Y67.45
X14.4Y64.35
X16.0Y29.0
X16.325Y76.0
X17.5Y14.2
X19.475Y69.2
X21.0Y74.5
X21.0Y22.0
X22.0Y77.0
X22.0Y11.0
X22.0Y5.5
X25.0Y73.0
X26.0Y69.475
X29.0Y14.0
X29.0Y7.0
X30.2Y23.0
X33.0Y29.0
X33.0Y25.0
X33.0Y14.0
X34.0Y64.0
X34.0Y9.0
X34.5Y22.0
X35.0Y73.0
X36.0Y69.0
X36.0Y64.0
X36.2Y78.0
X36.5Y85.0
X37.0Y73.0
T2
X19.128Y60.074
X20.54Y33.533
X22.0Y56.8
X22.775Y37.27
X24.872Y60.074
T3
X8.975Y66.365
X10.0Y80.15
X26.0Y66.525
T4
X10.2Y18.5
X19.27Y30.5
X20.17Y30.5
X20.2Y18.5
X22.55Y29.862
X23.45Y29.862
X29.975Y25.88
X31.0Y17.037
T5
X19.5Y87.0
X19.5Y8.0
X24.5Y87.0
X24.5Y8.0
M30
