%TF.GenerationSoftware,KiCad,Pcbnew,10.0.6*%
%TF.CreationDate,2026-10-09T22:44:17+08:00*%
%TF.ProjectId,PS-FLYBACK-5W,50532d46-4c59-4424-9143-4b2d35572e6b,A5-development*%
%TF.SameCoordinates,Original*%
%TF.FileFunction,Copper,L2,Inr*%
%TF.FilePolarity,Positive*%
%FSLAX46Y46*%
G04 Gerber Fmt 4.6, Leading zero omitted, Abs format (unit mm)*
G04 Created by KiCad (PCBNEW 10.0.6) date 2026-10-09 22:44:17*
%MOMM*%
%LPD*%
G01*
G04 APERTURE LIST*
%TA.AperFunction,EtchedComponent*%
%ADD10C,0.000000*%
%TD*%
%TA.AperFunction,ComponentPad*%
%ADD11R,2.400000X2.400000*%
%TD*%
%TA.AperFunction,ComponentPad*%
%ADD12C,2.400000*%
%TD*%
%TA.AperFunction,ComponentPad*%
%ADD13C,0.600000*%
%TD*%
%TA.AperFunction,ViaPad*%
%ADD14C,0.600000*%
%TD*%
%TA.AperFunction,ViaPad*%
%ADD15C,1.200000*%
%TD*%
%TA.AperFunction,ViaPad*%
%ADD16C,0.900000*%
%TD*%
%TA.AperFunction,ViaPad*%
%ADD17C,0.800000*%
%TD*%
G04 APERTURE END LIST*
D10*
%TA.AperFunction,EtchedComponent*%
%TO.C,T1*%
G36*
X28520378Y59299302D02*
G01*
X28520437Y59299303D01*
X28520456Y59299300D01*
X28520495Y59299299D01*
X28543394Y59295910D01*
X28567007Y59292421D01*
X28567035Y59292412D01*
X28567063Y59292408D01*
X28587647Y59285950D01*
X28611927Y59278339D01*
X28611956Y59278324D01*
X28611980Y59278317D01*
X28629261Y59269732D01*
X28654091Y59257403D01*
X28654117Y59257384D01*
X28654140Y59257373D01*
X28671700Y59244885D01*
X28692460Y59230129D01*
X28692481Y59230108D01*
X28692504Y59230092D01*
X28708425Y59214490D01*
X28726091Y59197188D01*
X28726109Y59197163D01*
X28726129Y59197144D01*
X28741129Y59176933D01*
X28754154Y59159392D01*
X28754165Y59159370D01*
X28754185Y59159344D01*
X28766329Y59136095D01*
X28775959Y59117671D01*
X28775967Y59117645D01*
X28775982Y59117618D01*
X28783998Y59093773D01*
X28790970Y59073053D01*
X28790974Y59073026D01*
X28790984Y59072998D01*
X28794931Y59049612D01*
X28798815Y59026636D01*
X28798816Y59026597D01*
X28798820Y59026579D01*
X28798820Y59026524D01*
X28799984Y59003109D01*
X28806231Y58400316D01*
X28812481Y57848065D01*
X28812480Y57848051D01*
X28818723Y57338591D01*
X28818724Y57338583D01*
X28824974Y56863814D01*
X28831216Y56419152D01*
X28831217Y56419140D01*
X28837467Y55998827D01*
X28843709Y55599881D01*
X28843710Y55599872D01*
X28849956Y55218206D01*
X28849957Y55218202D01*
X28856203Y54851142D01*
X28862451Y54496141D01*
X28868698Y54150947D01*
X28868699Y54150940D01*
X28874947Y53813501D01*
X28881197Y53481889D01*
X28881196Y53481873D01*
X28887443Y53154583D01*
X28893694Y52829701D01*
X28893637Y52826906D01*
X28893750Y52824096D01*
X28899998Y41502948D01*
X28906194Y41181232D01*
X28906193Y41181217D01*
X28906195Y41181194D01*
X28912445Y40854463D01*
X28912444Y40854427D01*
X28912446Y40854397D01*
X28918695Y40523873D01*
X28918694Y40523832D01*
X28918697Y40523782D01*
X28924948Y40187786D01*
X28924946Y40187725D01*
X28924950Y40187668D01*
X28931200Y39844421D01*
X28931198Y39844355D01*
X28931203Y39844278D01*
X28937453Y39491857D01*
X28937451Y39491776D01*
X28937456Y39491691D01*
X28943706Y39127983D01*
X28943703Y39127888D01*
X28943709Y39127796D01*
X28949958Y38750447D01*
X28949955Y38750341D01*
X28949961Y38750243D01*
X28956211Y38356591D01*
X28956208Y38356487D01*
X28956215Y38356368D01*
X28962465Y37943360D01*
X28962461Y37943234D01*
X28962468Y37943121D01*
X28968718Y37507207D01*
X28968715Y37507088D01*
X28968722Y37506955D01*
X28974972Y37043958D01*
X28974968Y37043821D01*
X28974975Y37043695D01*
X28981225Y36548636D01*
X28981221Y36548497D01*
X28981228Y36548365D01*
X28987478Y36015227D01*
X28987474Y36015089D01*
X28987481Y36014952D01*
X28993732Y35436380D01*
X28993728Y35436242D01*
X28993735Y35436100D01*
X28999984Y34802961D01*
X28999294Y34779505D01*
X28999295Y34779469D01*
X28999293Y34779458D01*
X28999292Y34779415D01*
X28995520Y34753981D01*
X28992399Y34732901D01*
X28992391Y34732876D01*
X28992387Y34732848D01*
X28983816Y34705558D01*
X28978302Y34687987D01*
X28978293Y34687971D01*
X28978283Y34687936D01*
X28964974Y34661166D01*
X28957353Y34645829D01*
X28957340Y34645813D01*
X28957326Y34645782D01*
X28940697Y34622414D01*
X28930067Y34607469D01*
X28930051Y34607454D01*
X28930033Y34607427D01*
X28911704Y34588734D01*
X28897116Y34573848D01*
X28897095Y34573833D01*
X28897075Y34573812D01*
X28877389Y34559210D01*
X28859312Y34545796D01*
X28859288Y34545784D01*
X28859266Y34545767D01*
X28836414Y34533838D01*
X28817584Y34524004D01*
X28817561Y34523997D01*
X28817534Y34523982D01*
X28790791Y34515001D01*
X28772961Y34509008D01*
X28772940Y34509005D01*
X28772909Y34508994D01*
X28746441Y34504535D01*
X28726541Y34501177D01*
X28726508Y34501176D01*
X28726488Y34501172D01*
X28726427Y34501172D01*
X28703014Y34500015D01*
X28081260Y34493766D01*
X27512355Y34487521D01*
X26986799Y34481275D01*
X26986795Y34481274D01*
X26497331Y34475024D01*
X26497318Y34475025D01*
X26038889Y34468782D01*
X26038882Y34468781D01*
X25605595Y34462531D01*
X25605580Y34462532D01*
X25194323Y34456289D01*
X25194319Y34456288D01*
X24800894Y34450042D01*
X24800894Y34450041D01*
X24422377Y34443791D01*
X24422373Y34443792D01*
X24056661Y34437547D01*
X24056649Y34437546D01*
X23700875Y34431299D01*
X23700872Y34431298D01*
X23353020Y34425048D01*
X23353014Y34425049D01*
X23011466Y34418802D01*
X23011459Y34418801D01*
X22674066Y34412551D01*
X22674061Y34412552D01*
X22339355Y34406302D01*
X22339337Y34406303D01*
X22300000Y34405566D01*
X22300000Y33400000D01*
X22299075Y33376462D01*
X22298808Y33374779D01*
X22298789Y33373075D01*
X22295127Y33351537D01*
X22291711Y33329966D01*
X22291184Y33328347D01*
X22290899Y33326665D01*
X22283902Y33305934D01*
X22277164Y33285195D01*
X22276392Y33283680D01*
X22275846Y33282062D01*
X22265691Y33262680D01*
X22255792Y33243250D01*
X22254791Y33241874D01*
X22254000Y33240362D01*
X22240951Y33222825D01*
X22228122Y33205166D01*
X22226917Y33203962D01*
X22225900Y33202594D01*
X22210273Y33187318D01*
X22194834Y33171878D01*
X22193456Y33170878D01*
X22192237Y33169685D01*
X22174399Y33157031D01*
X22156750Y33144208D01*
X22155234Y33143436D01*
X22153842Y33142448D01*
X22134251Y33132745D01*
X22114805Y33122836D01*
X22113183Y33122310D01*
X22111657Y33121553D01*
X22090806Y33115039D01*
X22070034Y33108289D01*
X22068351Y33108023D01*
X22066724Y33107514D01*
X22045081Y33104338D01*
X22023538Y33100925D01*
X22021837Y33100925D01*
X22020148Y33100677D01*
X21996601Y33100019D01*
X21813129Y33102098D01*
X21809734Y33102271D01*
X21806337Y33102252D01*
X21622959Y33108485D01*
X21619566Y33108735D01*
X21616169Y33108793D01*
X21432979Y33119179D01*
X21429604Y33119504D01*
X21426200Y33119640D01*
X21243292Y33134172D01*
X21239919Y33134574D01*
X21236523Y33134787D01*
X21053991Y33153459D01*
X21050626Y33153938D01*
X21047240Y33154227D01*
X20865178Y33177028D01*
X20861821Y33177584D01*
X20858445Y33177949D01*
X20676946Y33204868D01*
X20673610Y33205498D01*
X20670234Y33205941D01*
X20489392Y33236965D01*
X20466349Y33241857D01*
X20421768Y33256977D01*
X20380101Y33278884D01*
X20342374Y33307041D01*
X20309517Y33340752D01*
X20282336Y33379189D01*
X20261504Y33421403D01*
X20247532Y33466358D01*
X20240765Y33512944D01*
X20241368Y33560015D01*
X20249328Y33606414D01*
X20264448Y33650995D01*
X20286355Y33692662D01*
X20314512Y33730389D01*
X20348223Y33763246D01*
X20386660Y33790427D01*
X20428874Y33811259D01*
X20473829Y33825231D01*
X20520415Y33831998D01*
X20567486Y33831395D01*
X20590842Y33828327D01*
X20768349Y33797876D01*
X20943102Y33771957D01*
X21118427Y33750000D01*
X21294202Y33732019D01*
X21470352Y33718024D01*
X21646731Y33708024D01*
X21700000Y33706214D01*
X21700000Y34700000D01*
X21700592Y34715043D01*
X21700537Y34717934D01*
X21700771Y34719613D01*
X21700925Y34723538D01*
X21704171Y34744030D01*
X21707029Y34764560D01*
X21707849Y34767253D01*
X21708289Y34770034D01*
X21714697Y34789753D01*
X21720735Y34809596D01*
X21721967Y34812130D01*
X21722836Y34814805D01*
X21732250Y34833280D01*
X21741318Y34851933D01*
X21742930Y34854241D01*
X21744208Y34856750D01*
X21756397Y34873526D01*
X21768270Y34890529D01*
X21770225Y34892558D01*
X21771878Y34894834D01*
X21786540Y34909496D01*
X21800929Y34924434D01*
X21803175Y34926131D01*
X21805166Y34928122D01*
X21821946Y34940314D01*
X21838488Y34952812D01*
X21840972Y34954137D01*
X21843250Y34955792D01*
X21861733Y34965210D01*
X21880026Y34974966D01*
X21882687Y34975886D01*
X21885195Y34977164D01*
X21904912Y34983571D01*
X21924517Y34990349D01*
X21927291Y34990842D01*
X21929966Y34991711D01*
X21950442Y34994954D01*
X21970867Y34998582D01*
X21974786Y34998810D01*
X21976462Y34999075D01*
X21979360Y34999075D01*
X21994383Y34999947D01*
X22328137Y35006197D01*
X22328155Y35006198D01*
X22662910Y35012448D01*
X22662929Y35012448D01*
X22662954Y35012449D01*
X23000347Y35018699D01*
X23000385Y35018699D01*
X23000417Y35018700D01*
X23342145Y35024950D01*
X23342190Y35024950D01*
X23342242Y35024952D01*
X23690094Y35031202D01*
X23690156Y35031201D01*
X23690215Y35031204D01*
X24046114Y35037454D01*
X24046193Y35037453D01*
X24046259Y35037456D01*
X24412302Y35043706D01*
X24412384Y35043705D01*
X24412471Y35043709D01*
X24790989Y35049959D01*
X24791084Y35049957D01*
X24791178Y35049962D01*
X25184793Y35056212D01*
X25184900Y35056210D01*
X25185002Y35056215D01*
X25596714Y35062465D01*
X25596819Y35062463D01*
X25596941Y35062469D01*
X26030228Y35068719D01*
X26030354Y35068716D01*
X26030470Y35068722D01*
X26489416Y35074972D01*
X26489535Y35074969D01*
X26489671Y35074976D01*
X26979134Y35081226D01*
X26979269Y35081223D01*
X26979399Y35081229D01*
X27505240Y35087479D01*
X27505378Y35087476D01*
X27505513Y35087482D01*
X28074897Y35093732D01*
X28075035Y35093729D01*
X28075175Y35093735D01*
X28397053Y35096971D01*
X28393765Y35430178D01*
X28387517Y36008470D01*
X28381270Y36541331D01*
X28375026Y37035859D01*
X28368776Y37498857D01*
X28368776Y37498867D01*
X28362533Y37934281D01*
X28356283Y38347290D01*
X28356283Y38347302D01*
X28350037Y38740717D01*
X28343791Y39117862D01*
X28337544Y39481383D01*
X28337544Y39481385D01*
X28331297Y39833640D01*
X28331297Y39833650D01*
X28325050Y40176744D01*
X28318801Y40512622D01*
X28318801Y40512630D01*
X28312554Y40843055D01*
X28306305Y41169718D01*
X28306305Y41169725D01*
X28300056Y41494224D01*
X28300111Y41497024D01*
X28300000Y41499834D01*
X28293751Y52820989D01*
X28287555Y53143041D01*
X28287555Y53143062D01*
X28287554Y53143087D01*
X28281305Y53470511D01*
X28281305Y53470538D01*
X28281303Y53470583D01*
X28275053Y53802195D01*
X28275053Y53802242D01*
X28275051Y53802294D01*
X28268801Y54139832D01*
X28268802Y54139898D01*
X28268799Y54139957D01*
X28262549Y54485283D01*
X28262550Y54485353D01*
X28262546Y54485433D01*
X28256295Y54840584D01*
X28256296Y54840671D01*
X28256292Y54840759D01*
X28250043Y55207994D01*
X28250045Y55208094D01*
X28250040Y55208189D01*
X28243790Y55590054D01*
X28243792Y55590167D01*
X28243787Y55590269D01*
X28237537Y55989672D01*
X28237539Y55989783D01*
X28237533Y55989906D01*
X28231283Y56410220D01*
X28231286Y56410352D01*
X28231280Y56410469D01*
X28225030Y56855654D01*
X28225033Y56855779D01*
X28225026Y56855916D01*
X28218776Y57330685D01*
X28218779Y57330827D01*
X28218773Y57330958D01*
X28212523Y57840994D01*
X28212526Y57841125D01*
X28212519Y57841275D01*
X28206269Y58393526D01*
X28206273Y58393670D01*
X28206266Y58393813D01*
X28203124Y58696965D01*
X27888857Y58693768D01*
X27327781Y58687522D01*
X27327777Y58687522D01*
X26810734Y58681275D01*
X26810725Y58681275D01*
X26330359Y58675025D01*
X26330352Y58675025D01*
X25881392Y58668779D01*
X25881388Y58668779D01*
X25458971Y58662535D01*
X25458956Y58662535D01*
X25058256Y58656286D01*
X25058250Y58656286D01*
X24676586Y58650040D01*
X24676576Y58650040D01*
X24310929Y58643797D01*
X24310923Y58643797D01*
X23958278Y58637550D01*
X23616428Y58631300D01*
X23616421Y58631300D01*
X23283771Y58625055D01*
X23283764Y58625055D01*
X22957884Y58618805D01*
X22957880Y58618805D01*
X22637501Y58612558D01*
X22637493Y58612558D01*
X22320634Y58606308D01*
X22320628Y58606308D01*
X22005973Y58600059D01*
X22005968Y58600059D01*
X21691864Y58593809D01*
X21691852Y58593809D01*
X21691847Y58593809D01*
X21376838Y58587559D01*
X21376817Y58587559D01*
X21376793Y58587558D01*
X21059336Y58581308D01*
X21059294Y58581308D01*
X21059262Y58581307D01*
X20737765Y58575057D01*
X20737715Y58575058D01*
X20737663Y58575055D01*
X20410441Y58568805D01*
X20410384Y58568806D01*
X20410312Y58568802D01*
X20075557Y58562552D01*
X20075483Y58562553D01*
X20075403Y58562549D01*
X19731144Y58556299D01*
X19731052Y58556300D01*
X19730965Y58556296D01*
X19375011Y58550046D01*
X19374905Y58550048D01*
X19374810Y58550043D01*
X19004695Y58543793D01*
X19004589Y58543795D01*
X19004473Y58543789D01*
X18617379Y58537539D01*
X18617262Y58537541D01*
X18617139Y58537535D01*
X18209797Y58531285D01*
X18209671Y58531288D01*
X18209540Y58531281D01*
X17778117Y58525031D01*
X17777972Y58525034D01*
X17777846Y58525028D01*
X17317771Y58518778D01*
X17317635Y58518781D01*
X17317490Y58518774D01*
X16823259Y58512524D01*
X16823120Y58512527D01*
X16822969Y58512520D01*
X16287853Y58506270D01*
X16287701Y58506274D01*
X16287557Y58506267D01*
X16003131Y58503224D01*
X16006231Y58207770D01*
X16006231Y58207767D01*
X16012478Y57663764D01*
X16012478Y57663755D01*
X16018724Y57162518D01*
X16024970Y56697125D01*
X16031216Y56261917D01*
X16037462Y55852202D01*
X16043708Y55464050D01*
X16049954Y55094118D01*
X16056201Y54739543D01*
X16056201Y54739531D01*
X16062447Y54397788D01*
X16062447Y54397783D01*
X16068694Y54066657D01*
X16074944Y53744039D01*
X16081189Y53428501D01*
X16087439Y53117992D01*
X16087439Y53117983D01*
X16093687Y52811042D01*
X16099938Y52506149D01*
X16099882Y52503156D01*
X16100001Y52500166D01*
X16106249Y41198870D01*
X16112437Y40896729D01*
X16112437Y40896707D01*
X16112438Y40896683D01*
X16118689Y40589196D01*
X16118689Y40589163D01*
X16118691Y40589118D01*
X16124940Y40277736D01*
X16124939Y40277684D01*
X16124942Y40277633D01*
X16131193Y39960725D01*
X16131192Y39960651D01*
X16131195Y39960591D01*
X16137444Y39636409D01*
X16137443Y39636330D01*
X16137447Y39636250D01*
X16143697Y39302882D01*
X16143696Y39302798D01*
X16143701Y39302698D01*
X16149951Y38958026D01*
X16149949Y38957913D01*
X16149954Y38957818D01*
X16156204Y38599455D01*
X16156202Y38599341D01*
X16156208Y38599225D01*
X16162458Y38224440D01*
X16162456Y38224316D01*
X16162462Y38224192D01*
X16168712Y37829824D01*
X16168709Y37829692D01*
X16168716Y37829560D01*
X16174966Y37411895D01*
X16174963Y37411755D01*
X16174970Y37411615D01*
X16181220Y36966235D01*
X16181217Y36966091D01*
X16181224Y36965945D01*
X16187474Y36487520D01*
X16187471Y36487374D01*
X16187478Y36487221D01*
X16193728Y35969237D01*
X16193725Y35969092D01*
X16193732Y35968933D01*
X16196668Y35703232D01*
X16473382Y35706229D01*
X16473390Y35706229D01*
X17000561Y35712480D01*
X17000564Y35712480D01*
X17485862Y35718724D01*
X17936379Y35724968D01*
X18357808Y35731213D01*
X18357810Y35731213D01*
X18754538Y35737459D01*
X18754541Y35737459D01*
X19130622Y35743710D01*
X19130641Y35743710D01*
X19488583Y35749951D01*
X19831831Y35756196D01*
X19831849Y35756197D01*
X20162882Y35762447D01*
X20162894Y35762447D01*
X20483247Y35768690D01*
X20483248Y35768690D01*
X20795551Y35774940D01*
X20795560Y35774940D01*
X21100965Y35781185D01*
X21100967Y35781185D01*
X21401499Y35787434D01*
X21401512Y35787434D01*
X21698623Y35793684D01*
X21698625Y35793684D01*
X21993647Y35799933D01*
X21993666Y35799933D01*
X22288087Y35806182D01*
X22288088Y35806182D01*
X22288105Y35806183D01*
X22583368Y35812433D01*
X22583392Y35812433D01*
X22583416Y35812434D01*
X22880934Y35818684D01*
X22880981Y35818684D01*
X22881012Y35818685D01*
X23182279Y35824935D01*
X23182323Y35824935D01*
X23182387Y35824938D01*
X23488980Y35831188D01*
X23489057Y35831187D01*
X23489116Y35831190D01*
X23802726Y35837440D01*
X23802798Y35837439D01*
X23802891Y35837444D01*
X24125367Y35843694D01*
X24125470Y35843692D01*
X24125557Y35843697D01*
X24458947Y35849947D01*
X24459053Y35849945D01*
X24459161Y35849951D01*
X24805775Y35856201D01*
X24805895Y35856199D01*
X24806012Y35856205D01*
X25168487Y35862455D01*
X25168606Y35862453D01*
X25168743Y35862460D01*
X25550138Y35868710D01*
X25550279Y35868707D01*
X25550412Y35868714D01*
X25954316Y35874964D01*
X25954464Y35874961D01*
X25954605Y35874968D01*
X26385291Y35881218D01*
X26385430Y35881215D01*
X26385591Y35881223D01*
X26848210Y35887473D01*
X26848365Y35887469D01*
X26848520Y35887477D01*
X27349369Y35893727D01*
X27349536Y35893723D01*
X27349684Y35893730D01*
X27596660Y35896553D01*
X27593768Y36154858D01*
X27593768Y36154861D01*
X27587522Y36664578D01*
X27581276Y37134178D01*
X27575034Y37569855D01*
X27568784Y37977811D01*
X27568784Y37977820D01*
X27562543Y38361275D01*
X27556293Y38725047D01*
X27556293Y38725058D01*
X27550048Y39071443D01*
X27543803Y39403431D01*
X27537556Y39723357D01*
X27537556Y39723363D01*
X27531311Y40033304D01*
X27525063Y40335127D01*
X27525063Y40335132D01*
X27518817Y40630528D01*
X27512569Y40921069D01*
X27512569Y40921078D01*
X27506320Y41208231D01*
X27506320Y41208233D01*
X27500072Y41493429D01*
X27500127Y41496632D01*
X27500000Y41499834D01*
X27493750Y52781268D01*
X27487572Y53063451D01*
X27487572Y53063475D01*
X27487571Y53063499D01*
X27481321Y53351048D01*
X27481321Y53351084D01*
X27481319Y53351128D01*
X27475068Y53642278D01*
X27475069Y53642340D01*
X27475066Y53642392D01*
X27468817Y53938670D01*
X27468818Y53938738D01*
X27468814Y53938809D01*
X27462563Y54241848D01*
X27462564Y54241926D01*
X27462559Y54242019D01*
X27456310Y54553604D01*
X27456311Y54553699D01*
X27456306Y54553799D01*
X27450056Y54875907D01*
X27450058Y54876020D01*
X27450052Y54876129D01*
X27443802Y55210993D01*
X27443804Y55211120D01*
X27443798Y55211237D01*
X27437548Y55561403D01*
X27437550Y55561530D01*
X27437543Y55561668D01*
X27431293Y55930090D01*
X27431296Y55930227D01*
X27431288Y55930374D01*
X27425038Y56320517D01*
X27425041Y56320674D01*
X27425034Y56320815D01*
X27418784Y56736807D01*
X27418787Y56736956D01*
X27418779Y56737118D01*
X27412529Y57183931D01*
X27412533Y57184094D01*
X27412525Y57184251D01*
X27406275Y57667967D01*
X27406279Y57668130D01*
X27406271Y57668293D01*
X27403569Y57896545D01*
X27164145Y57893771D01*
X26671741Y57887528D01*
X26671739Y57887528D01*
X26217631Y57881277D01*
X26217623Y57881277D01*
X25796359Y57875033D01*
X25796356Y57875033D01*
X25402473Y57868788D01*
X25032021Y57862548D01*
X25032003Y57862547D01*
X24680541Y57856297D01*
X24680538Y57856297D01*
X24345904Y57850052D01*
X24345897Y57850052D01*
X24025435Y57843811D01*
X24025428Y57843811D01*
X23716314Y57837563D01*
X23416812Y57831315D01*
X23416802Y57831315D01*
X23125449Y57825072D01*
X22840151Y57818824D01*
X22840141Y57818824D01*
X22559462Y57812574D01*
X22559456Y57812574D01*
X22282225Y57806327D01*
X22282223Y57806327D01*
X22006806Y57800077D01*
X22006789Y57800077D01*
X21732018Y57793828D01*
X21732001Y57793827D01*
X21456484Y57787577D01*
X21456457Y57787577D01*
X21456433Y57787576D01*
X21178853Y57781326D01*
X21178814Y57781326D01*
X21178770Y57781324D01*
X20897734Y57775074D01*
X20897670Y57775075D01*
X20897619Y57775072D01*
X20611656Y57768822D01*
X20611595Y57768823D01*
X20611511Y57768818D01*
X20319045Y57762568D01*
X20318948Y57762569D01*
X20318869Y57762565D01*
X20018176Y57756315D01*
X20018073Y57756316D01*
X20017973Y57756311D01*
X19707146Y57750061D01*
X19707037Y57750063D01*
X19706916Y57750056D01*
X19383804Y57743806D01*
X19383681Y57743808D01*
X19383551Y57743801D01*
X19045694Y57737551D01*
X19045557Y57737553D01*
X19045419Y57737546D01*
X18689971Y57731296D01*
X18689825Y57731299D01*
X18689678Y57731291D01*
X18313295Y57725041D01*
X18313141Y57725044D01*
X18312986Y57725036D01*
X17911689Y57718786D01*
X17911517Y57718790D01*
X17911366Y57718782D01*
X17480359Y57712532D01*
X17480198Y57712535D01*
X17480027Y57712527D01*
X17013444Y57706277D01*
X17013272Y57706281D01*
X17013107Y57706273D01*
X16803579Y57703701D01*
X16806225Y57483187D01*
X16806225Y57483185D01*
X16812471Y57007761D01*
X16812471Y57007751D01*
X16818716Y56569780D01*
X16824961Y56163206D01*
X16831211Y55782770D01*
X16831211Y55782754D01*
X16837450Y55425297D01*
X16837450Y55425295D01*
X16843695Y55086416D01*
X16843695Y55086415D01*
X16849940Y54763516D01*
X16856184Y54454087D01*
X16862430Y54155942D01*
X16862430Y54155935D01*
X16868677Y53867118D01*
X16874923Y53585916D01*
X16874923Y53585909D01*
X16881171Y53310718D01*
X16887418Y53040092D01*
X16893667Y52772655D01*
X16893667Y52772651D01*
X16899918Y52507058D01*
X16899864Y52503611D01*
X16900001Y52500166D01*
X16906249Y41238635D01*
X16912418Y40976435D01*
X16912418Y40976405D01*
X16912419Y40976381D01*
X16918668Y40708770D01*
X16918668Y40708729D01*
X16918670Y40708686D01*
X16924920Y40437766D01*
X16924920Y40437711D01*
X16924923Y40437648D01*
X16931174Y40162000D01*
X16931173Y40161919D01*
X16931177Y40161848D01*
X16937426Y39879953D01*
X16937425Y39879865D01*
X16937430Y39879774D01*
X16943681Y39589974D01*
X16943680Y39589874D01*
X16943686Y39589761D01*
X16949935Y39290215D01*
X16949933Y39290100D01*
X16949940Y39289979D01*
X16956190Y38978615D01*
X16956188Y38978483D01*
X16956195Y38978353D01*
X16962445Y38652805D01*
X16962443Y38652659D01*
X16962450Y38652521D01*
X16968700Y38310046D01*
X16968697Y38309889D01*
X16968705Y38309742D01*
X16974955Y37947119D01*
X16974952Y37946967D01*
X16974961Y37946798D01*
X16981211Y37560196D01*
X16981208Y37560027D01*
X16981216Y37559862D01*
X16987466Y37144659D01*
X16987462Y37144488D01*
X16987471Y37144315D01*
X16993721Y36694868D01*
X16993717Y36694697D01*
X16993726Y36694517D01*
X16996157Y36503711D01*
X17198291Y36506227D01*
X17198296Y36506227D01*
X17656422Y36512470D01*
X18078377Y36518712D01*
X18078378Y36518712D01*
X18470577Y36524963D01*
X18470586Y36524963D01*
X18836590Y36531201D01*
X18836601Y36531201D01*
X19181704Y36537451D01*
X19181709Y36537451D01*
X19507948Y36543690D01*
X19507959Y36543690D01*
X19819359Y36549940D01*
X19819372Y36549940D01*
X20117255Y36556180D01*
X20404701Y36562429D01*
X20404708Y36562429D01*
X20682723Y36568670D01*
X20682725Y36568670D01*
X20953603Y36574917D01*
X20953615Y36574917D01*
X21218804Y36581167D01*
X21218807Y36581167D01*
X21479336Y36587412D01*
X21479338Y36587412D01*
X21700000Y36592766D01*
X21700000Y37200000D01*
X21700703Y37217882D01*
X21700677Y37220147D01*
X21700834Y37221215D01*
X21700925Y37223538D01*
X21704340Y37245095D01*
X21707514Y37266723D01*
X21708023Y37268350D01*
X21708289Y37270034D01*
X21715047Y37290832D01*
X21721553Y37311656D01*
X21722309Y37313181D01*
X21722836Y37314805D01*
X21732763Y37334287D01*
X21742448Y37353841D01*
X21743435Y37355232D01*
X21744208Y37356750D01*
X21757039Y37374410D01*
X21769684Y37392236D01*
X21770878Y37393457D01*
X21771878Y37394834D01*
X21787317Y37410273D01*
X21802593Y37425899D01*
X21803961Y37426917D01*
X21805166Y37428122D01*
X21822840Y37440963D01*
X21840361Y37453999D01*
X21841871Y37454791D01*
X21843250Y37455792D01*
X21862713Y37465709D01*
X21882061Y37475845D01*
X21883677Y37476391D01*
X21885195Y37477164D01*
X21905987Y37483920D01*
X21926664Y37490898D01*
X21928342Y37491184D01*
X21929966Y37491711D01*
X21951563Y37495132D01*
X21973074Y37498789D01*
X21975401Y37498907D01*
X21976462Y37499075D01*
X21978719Y37499075D01*
X21996600Y37499981D01*
X22090607Y37501047D01*
X22181174Y37504126D01*
X22271642Y37509254D01*
X22361914Y37516427D01*
X22452091Y37525651D01*
X22541983Y37536909D01*
X22631636Y37550206D01*
X22724277Y37566098D01*
X22747632Y37569166D01*
X22794704Y37569769D01*
X22841290Y37563001D01*
X22886244Y37549029D01*
X22928458Y37528197D01*
X22966895Y37501016D01*
X23000606Y37468159D01*
X23028762Y37430431D01*
X23050670Y37388764D01*
X23065789Y37344183D01*
X23073749Y37297785D01*
X23074352Y37250713D01*
X23067584Y37204127D01*
X23053612Y37159172D01*
X23032779Y37116958D01*
X23005599Y37078521D01*
X22972741Y37044810D01*
X22935014Y37016654D01*
X22893347Y36994747D01*
X22848765Y36979627D01*
X22825723Y36974736D01*
X22729720Y36958267D01*
X22726354Y36957825D01*
X22723012Y36957194D01*
X22626660Y36942903D01*
X22623275Y36942537D01*
X22619924Y36941982D01*
X22523274Y36929878D01*
X22519890Y36929589D01*
X22516524Y36929110D01*
X22419624Y36919198D01*
X22416219Y36918985D01*
X22412858Y36918584D01*
X22315759Y36910869D01*
X22312364Y36910733D01*
X22308976Y36910407D01*
X22300000Y36909899D01*
X22300000Y36300000D01*
X22299484Y36286876D01*
X22299560Y36283775D01*
X22299279Y36281676D01*
X22299075Y36276462D01*
X22295959Y36256794D01*
X22293334Y36237113D01*
X22292286Y36233599D01*
X22291711Y36229966D01*
X22285563Y36211047D01*
X22279886Y36192000D01*
X22278298Y36188687D01*
X22277164Y36185195D01*
X22268136Y36167479D01*
X22259545Y36149546D01*
X22257460Y36146524D01*
X22255792Y36143250D01*
X22244095Y36127151D01*
X22232813Y36110797D01*
X22230282Y36108141D01*
X22228122Y36105166D01*
X22214044Y36091089D01*
X22200348Y36076706D01*
X22197434Y36074479D01*
X22194834Y36071878D01*
X22178734Y36060181D01*
X22162952Y36048114D01*
X22159723Y36046369D01*
X22156750Y36044208D01*
X22139026Y36035178D01*
X22121541Y36025723D01*
X22118077Y36024504D01*
X22114805Y36022836D01*
X22095891Y36016691D01*
X22077139Y36010087D01*
X22073527Y36009425D01*
X22070034Y36008289D01*
X22050396Y36005179D01*
X22030837Y36001589D01*
X22025636Y36001258D01*
X22023538Y36000925D01*
X22020423Y36000925D01*
X22007328Y36000090D01*
X21751563Y35993840D01*
X21751546Y35993841D01*
X21751510Y35993838D01*
X21493890Y35987588D01*
X21493846Y35987589D01*
X21493803Y35987586D01*
X21233061Y35981336D01*
X21233003Y35981337D01*
X21232941Y35981333D01*
X20967751Y35975083D01*
X20967668Y35975085D01*
X20967599Y35975080D01*
X20696557Y35968830D01*
X20696464Y35968832D01*
X20696374Y35968826D01*
X20417955Y35962576D01*
X20417853Y35962578D01*
X20417743Y35962571D01*
X20130278Y35956321D01*
X20130158Y35956324D01*
X20130039Y35956316D01*
X19831662Y35950066D01*
X19831539Y35950069D01*
X19831399Y35950060D01*
X19519999Y35943810D01*
X19519850Y35943813D01*
X19519715Y35943805D01*
X19192872Y35937555D01*
X19192726Y35937558D01*
X19192569Y35937549D01*
X18847465Y35931299D01*
X18847297Y35931303D01*
X18847145Y35931294D01*
X18480470Y35925045D01*
X18480312Y35925049D01*
X18480139Y35925039D01*
X18087940Y35918788D01*
X18087765Y35918793D01*
X18087596Y35918783D01*
X17665098Y35912533D01*
X17664924Y35912538D01*
X17664749Y35912528D01*
X17206113Y35906278D01*
X17205941Y35906283D01*
X17205759Y35906273D01*
X16703734Y35900024D01*
X16680366Y35900652D01*
X16680273Y35900650D01*
X16680243Y35900655D01*
X16680186Y35900656D01*
X16656889Y35904050D01*
X16633687Y35907422D01*
X16633647Y35907435D01*
X16633602Y35907441D01*
X16612147Y35914119D01*
X16588734Y35921397D01*
X16588690Y35921419D01*
X16588654Y35921430D01*
X16570218Y35930536D01*
X16546520Y35942233D01*
X16546481Y35942262D01*
X16546446Y35942278D01*
X16528767Y35954790D01*
X16508087Y35969416D01*
X16508055Y35969448D01*
X16508020Y35969472D01*
X16492126Y35984976D01*
X16474378Y36002277D01*
X16474350Y36002316D01*
X16474321Y36002343D01*
X16460875Y36020374D01*
X16446225Y36040006D01*
X16446205Y36040045D01*
X16446179Y36040079D01*
X16434806Y36061731D01*
X16424321Y36081675D01*
X16424309Y36081713D01*
X16424286Y36081755D01*
X16416193Y36105649D01*
X16409205Y36126257D01*
X16409199Y36126298D01*
X16409183Y36126342D01*
X16405022Y36150654D01*
X16401249Y36172656D01*
X16401247Y36172713D01*
X16401241Y36172742D01*
X16401240Y36172831D01*
X16400024Y36196180D01*
X16393774Y36686875D01*
X16393775Y36686879D01*
X16387529Y37135973D01*
X16381284Y37550832D01*
X16375039Y37937100D01*
X16375040Y37937112D01*
X16368800Y38299098D01*
X16362550Y38641573D01*
X16356305Y38966837D01*
X16350060Y39277937D01*
X16350061Y39277939D01*
X16343816Y39577247D01*
X16343817Y39577258D01*
X16337570Y39866834D01*
X16337571Y39866836D01*
X16331325Y40148550D01*
X16325077Y40424046D01*
X16325078Y40424054D01*
X16318830Y40694848D01*
X16318831Y40694849D01*
X16312583Y40962375D01*
X16306333Y41227966D01*
X16306388Y41231412D01*
X16306250Y41234856D01*
X16300003Y52496386D01*
X16293833Y52758533D01*
X16293834Y52758561D01*
X16293832Y52758584D01*
X16287582Y53026076D01*
X16287583Y53026118D01*
X16287580Y53026161D01*
X16281331Y53296872D01*
X16281332Y53296923D01*
X16281328Y53296985D01*
X16275077Y53572289D01*
X16275079Y53572367D01*
X16275074Y53572438D01*
X16268825Y53853796D01*
X16268827Y53853879D01*
X16268821Y53853969D01*
X16262570Y54142959D01*
X16262572Y54143066D01*
X16262566Y54143164D01*
X16256316Y54441521D01*
X16256319Y54441632D01*
X16256311Y54441751D01*
X16250062Y54751410D01*
X16250065Y54751535D01*
X16250057Y54751662D01*
X16243807Y55074813D01*
X16243810Y55074951D01*
X16243802Y55075086D01*
X16237552Y55414239D01*
X16237556Y55414388D01*
X16237547Y55414531D01*
X16231297Y55772606D01*
X16231301Y55772750D01*
X16231291Y55772914D01*
X16225041Y56153350D01*
X16225045Y56153511D01*
X16225036Y56153670D01*
X16218786Y56560564D01*
X16218791Y56560740D01*
X16218782Y56560894D01*
X16212531Y56999197D01*
X16212536Y56999372D01*
X16212527Y56999533D01*
X16206277Y57475303D01*
X16206282Y57475476D01*
X16206273Y57475643D01*
X16200023Y57996399D01*
X16200661Y58019794D01*
X16200660Y58019866D01*
X16200664Y58019889D01*
X16200665Y58019946D01*
X16204079Y58043307D01*
X16207453Y58066449D01*
X16207466Y58066488D01*
X16207471Y58066527D01*
X16214282Y58088379D01*
X16221449Y58111395D01*
X16221467Y58111431D01*
X16221479Y58111470D01*
X16232033Y58132811D01*
X16242305Y58153599D01*
X16242328Y58153631D01*
X16242346Y58153668D01*
X16256631Y58173833D01*
X16269506Y58192019D01*
X16269532Y58192045D01*
X16269557Y58192081D01*
X16287121Y58210071D01*
X16302383Y58225713D01*
X16302414Y58225735D01*
X16302443Y58225766D01*
X16321131Y58239688D01*
X16340124Y58253848D01*
X16340163Y58253868D01*
X16340193Y58253891D01*
X16359484Y58264013D01*
X16381804Y58275734D01*
X16381847Y58275748D01*
X16381878Y58275765D01*
X16403349Y58283027D01*
X16426393Y58290829D01*
X16426432Y58290835D01*
X16426471Y58290849D01*
X16449354Y58294754D01*
X16472795Y58298763D01*
X16472853Y58298765D01*
X16472876Y58298770D01*
X16472948Y58298770D01*
X16496320Y58299976D01*
X17005405Y58306222D01*
X17005408Y58306223D01*
X17471991Y58312473D01*
X17471996Y58312472D01*
X17902329Y58318713D01*
X17902345Y58318714D01*
X18303500Y58324961D01*
X18679561Y58331206D01*
X19034776Y58337452D01*
X19372453Y58343699D01*
X19372456Y58343698D01*
X19695313Y58349944D01*
X19695323Y58349943D01*
X20005706Y58356184D01*
X20005708Y58356185D01*
X20306209Y58362430D01*
X20306225Y58362432D01*
X20598692Y58368682D01*
X20598713Y58368681D01*
X20884382Y58374925D01*
X20884394Y58374926D01*
X21165429Y58381176D01*
X21165433Y58381175D01*
X21442873Y58387422D01*
X21442876Y58387423D01*
X21718393Y58393673D01*
X21718409Y58393672D01*
X21993178Y58399921D01*
X21993194Y58399923D01*
X22268611Y58406173D01*
X22268636Y58406172D01*
X22268659Y58406174D01*
X22546024Y58412424D01*
X22546061Y58412423D01*
X22546104Y58412426D01*
X22826784Y58418676D01*
X22826844Y58418674D01*
X22826894Y58418678D01*
X23112314Y58424928D01*
X23112385Y58424926D01*
X23112455Y58424931D01*
X23404127Y58431181D01*
X23404206Y58431179D01*
X23404296Y58431185D01*
X23703858Y58437435D01*
X23703956Y58437433D01*
X23704054Y58437439D01*
X24013304Y58443689D01*
X24013419Y58443686D01*
X24013525Y58443693D01*
X24334465Y58449943D01*
X24334581Y58449940D01*
X24334708Y58449948D01*
X24669609Y58456198D01*
X24669738Y58456195D01*
X24669873Y58456203D01*
X25021335Y58462453D01*
X25021486Y58462449D01*
X25021616Y58462457D01*
X25392665Y58468707D01*
X25392811Y58468703D01*
X25392961Y58468712D01*
X25787158Y58474962D01*
X25787309Y58474958D01*
X25787467Y58474967D01*
X26209055Y58481216D01*
X26209208Y58481212D01*
X26209373Y58481221D01*
X26663481Y58487472D01*
X26663647Y58487467D01*
X26663806Y58487476D01*
X27156711Y58493726D01*
X27156874Y58493721D01*
X27157039Y58493730D01*
X27696525Y58499979D01*
X27719923Y58499331D01*
X27719997Y58499332D01*
X27720021Y58499328D01*
X27720072Y58499327D01*
X27744702Y58495717D01*
X27766577Y58492518D01*
X27766609Y58492507D01*
X27766650Y58492502D01*
X27790159Y58485163D01*
X27811517Y58478502D01*
X27811550Y58478485D01*
X27811587Y58478474D01*
X27832345Y58468198D01*
X27853712Y58457628D01*
X27853743Y58457605D01*
X27853777Y58457589D01*
X27873201Y58443817D01*
X27892121Y58430410D01*
X27892146Y58430384D01*
X27892179Y58430362D01*
X27908535Y58414380D01*
X27925801Y58397519D01*
X27925825Y58397485D01*
X27925850Y58397462D01*
X27938799Y58380065D01*
X27953919Y58359765D01*
X27953937Y58359730D01*
X27953959Y58359701D01*
X27964275Y58340020D01*
X27975786Y58318076D01*
X27975799Y58318037D01*
X27975815Y58318007D01*
X27982735Y58297519D01*
X27990862Y58273480D01*
X27990868Y58273440D01*
X27990880Y58273407D01*
X27994434Y58252533D01*
X27998776Y58227074D01*
X27998778Y58227017D01*
X27998782Y58226999D01*
X27998782Y58226944D01*
X27999979Y58203549D01*
X28006225Y57675719D01*
X28012470Y57192326D01*
X28012471Y57192323D01*
X28018721Y56745510D01*
X28024961Y56330138D01*
X28024962Y56330127D01*
X28031207Y55940268D01*
X28037457Y55571846D01*
X28043697Y55222197D01*
X28043698Y55222189D01*
X28049943Y54887550D01*
X28049944Y54887547D01*
X28056190Y54565634D01*
X28062439Y54254050D01*
X28068683Y53951322D01*
X28074929Y53655168D01*
X28074930Y53655158D01*
X28081179Y53364086D01*
X28087427Y53076586D01*
X28087428Y53076585D01*
X28093677Y52791196D01*
X28093621Y52787995D01*
X28093749Y52784794D01*
X28099998Y41503366D01*
X28106177Y41221329D01*
X28106176Y41221308D01*
X28106178Y41221285D01*
X28112429Y40934046D01*
X28112428Y40934012D01*
X28112431Y40933969D01*
X28118681Y40643320D01*
X28118679Y40643263D01*
X28118683Y40643212D01*
X28124932Y40347678D01*
X28124930Y40347615D01*
X28124935Y40347545D01*
X28131186Y40045556D01*
X28131184Y40045470D01*
X28131189Y40045392D01*
X28137438Y39735258D01*
X28137436Y39735169D01*
X28137442Y39735071D01*
X28143693Y39414930D01*
X28143690Y39414821D01*
X28143697Y39414715D01*
X28149946Y39082493D01*
X28149943Y39082372D01*
X28149950Y39082259D01*
X28156200Y38735609D01*
X28156197Y38735489D01*
X28156205Y38735355D01*
X28162455Y38371582D01*
X28162451Y38371440D01*
X28162459Y38371311D01*
X28168709Y37987289D01*
X28168705Y37987153D01*
X28168714Y37987003D01*
X28174964Y37579046D01*
X28174960Y37578892D01*
X28174968Y37578748D01*
X28181218Y37142465D01*
X28181214Y37142309D01*
X28181222Y37142158D01*
X28187472Y36672243D01*
X28187467Y36672087D01*
X28187476Y36671930D01*
X28193726Y36161893D01*
X28193721Y36161739D01*
X28193730Y36161576D01*
X28199980Y35603359D01*
X28199323Y35579959D01*
X28199324Y35579881D01*
X28199320Y35579856D01*
X28199319Y35579812D01*
X28196175Y35558414D01*
X28192492Y35533304D01*
X28192480Y35533268D01*
X28192476Y35533236D01*
X28185747Y35511711D01*
X28178457Y35488370D01*
X28178441Y35488339D01*
X28178431Y35488305D01*
X28168460Y35468183D01*
X28157566Y35446183D01*
X28157543Y35446152D01*
X28157530Y35446124D01*
X28144837Y35428237D01*
X28130333Y35407786D01*
X28130308Y35407762D01*
X28130288Y35407732D01*
X28114079Y35391157D01*
X28097427Y35374119D01*
X28097397Y35374098D01*
X28097375Y35374074D01*
X28079348Y35360666D01*
X28059662Y35346016D01*
X28059630Y35346000D01*
X28059603Y35345979D01*
X28039499Y35335451D01*
X28017964Y35324166D01*
X28017928Y35324155D01*
X28017900Y35324139D01*
X27996056Y35316770D01*
X27973362Y35309108D01*
X27973328Y35309103D01*
X27973295Y35309091D01*
X27948143Y35304819D01*
X27926953Y35301214D01*
X27926913Y35301212D01*
X27926884Y35301207D01*
X27926795Y35301207D01*
X27903428Y35300020D01*
X27356869Y35293774D01*
X27356855Y35293773D01*
X26856175Y35287526D01*
X26393697Y35281277D01*
X26393680Y35281278D01*
X25963603Y35275037D01*
X25963599Y35275036D01*
X25559974Y35268791D01*
X25559969Y35268790D01*
X25178575Y35262540D01*
X25178560Y35262541D01*
X24816593Y35256300D01*
X24816592Y35256299D01*
X24469995Y35250050D01*
X24137008Y35243807D01*
X24136994Y35243806D01*
X23814517Y35237556D01*
X23814498Y35237557D01*
X23501227Y35231314D01*
X23501209Y35231312D01*
X23194615Y35225062D01*
X23194596Y35225063D01*
X22893551Y35218817D01*
X22893535Y35218816D01*
X22596066Y35212568D01*
X22596066Y35212567D01*
X22300803Y35206317D01*
X22300786Y35206318D01*
X22006371Y35200069D01*
X22006353Y35200067D01*
X21711285Y35193817D01*
X21711265Y35193818D01*
X21711242Y35193816D01*
X21414130Y35187566D01*
X21414087Y35187567D01*
X21414057Y35187565D01*
X21113439Y35181315D01*
X21113386Y35181316D01*
X21113336Y35181313D01*
X20807686Y35175063D01*
X20807626Y35175065D01*
X20807556Y35175060D01*
X20495254Y35168810D01*
X20495174Y35168812D01*
X20495096Y35168807D01*
X20174390Y35162557D01*
X20174306Y35162559D01*
X20174208Y35162553D01*
X19843175Y35156303D01*
X19843063Y35156306D01*
X19842970Y35156300D01*
X19499466Y35150050D01*
X19499351Y35150053D01*
X19499237Y35150046D01*
X19140838Y35143797D01*
X19140727Y35143800D01*
X19140594Y35143792D01*
X18764513Y35137541D01*
X18764378Y35137545D01*
X18764249Y35137537D01*
X18367254Y35131287D01*
X18367113Y35131291D01*
X18366977Y35131283D01*
X17945261Y35125033D01*
X17945115Y35125037D01*
X17944972Y35125029D01*
X17493995Y35118779D01*
X17493847Y35118783D01*
X17493697Y35118775D01*
X17007977Y35112526D01*
X17007830Y35112530D01*
X17007675Y35112522D01*
X16480504Y35106271D01*
X16480344Y35106276D01*
X16480196Y35106268D01*
X15903249Y35100019D01*
X15879848Y35100685D01*
X15879768Y35100684D01*
X15879742Y35100688D01*
X15879703Y35100689D01*
X15858774Y35103772D01*
X15833193Y35107534D01*
X15833160Y35107545D01*
X15833129Y35107549D01*
X15813104Y35113817D01*
X15788264Y35121585D01*
X15788230Y35121602D01*
X15788204Y35121610D01*
X15769999Y35130640D01*
X15746086Y35142492D01*
X15746057Y35142513D01*
X15746030Y35142526D01*
X15728030Y35155309D01*
X15707698Y35169740D01*
X15707674Y35169764D01*
X15707648Y35169782D01*
X15691994Y35185102D01*
X15674045Y35202658D01*
X15674024Y35202688D01*
X15674002Y35202708D01*
X15660884Y35220359D01*
X15645956Y35240434D01*
X15645941Y35240465D01*
X15645921Y35240490D01*
X15636094Y35259272D01*
X15624121Y35282140D01*
X15624109Y35282178D01*
X15624096Y35282201D01*
X15617440Y35301956D01*
X15609081Y35326748D01*
X15609076Y35326782D01*
X15609065Y35326812D01*
X15605157Y35349869D01*
X15601203Y35373159D01*
X15601201Y35373203D01*
X15601197Y35373225D01*
X15601197Y35373293D01*
X15600018Y35396686D01*
X15593768Y35962303D01*
X15593769Y35962311D01*
X15587522Y36479981D01*
X15587523Y36479984D01*
X15581276Y36958107D01*
X15575030Y37403197D01*
X15568784Y37820582D01*
X15562538Y38214684D01*
X15556292Y38589221D01*
X15556293Y38589222D01*
X15550050Y38947133D01*
X15550049Y38947148D01*
X15543799Y39291820D01*
X15543800Y39291834D01*
X15537553Y39625004D01*
X15531310Y39948877D01*
X15531309Y39948892D01*
X15525058Y40265801D01*
X15518811Y40577080D01*
X15518812Y40577090D01*
X15512562Y40884487D01*
X15512563Y40884489D01*
X15506313Y41189577D01*
X15506370Y41192565D01*
X15506250Y41195555D01*
X15500003Y52496843D01*
X15493813Y52798744D01*
X15493814Y52798763D01*
X15493812Y52798787D01*
X15487563Y53105771D01*
X15487564Y53105810D01*
X15487562Y53105840D01*
X15481311Y53416427D01*
X15481312Y53416476D01*
X15481309Y53416527D01*
X15475059Y53732292D01*
X15475061Y53732348D01*
X15475056Y53732418D01*
X15468806Y54055035D01*
X15468808Y54055109D01*
X15468803Y54055187D01*
X15462553Y54386465D01*
X15462555Y54386557D01*
X15462550Y54386642D01*
X15456301Y54728567D01*
X15456304Y54728673D01*
X15456298Y54728765D01*
X15450048Y55083550D01*
X15450051Y55083656D01*
X15450044Y55083769D01*
X15443794Y55453920D01*
X15443797Y55454038D01*
X15443790Y55454158D01*
X15437540Y55842548D01*
X15437543Y55842674D01*
X15437536Y55842802D01*
X15431286Y56252771D01*
X15431290Y56252904D01*
X15431282Y56253039D01*
X15425032Y56688515D01*
X15425036Y56688652D01*
X15425028Y56688794D01*
X15418778Y57154466D01*
X15418782Y57154606D01*
X15418774Y57154754D01*
X15412524Y57656279D01*
X15412529Y57656432D01*
X15412521Y57656572D01*
X15406271Y58200877D01*
X15406276Y58201028D01*
X15406268Y58201174D01*
X15400018Y58796852D01*
X15400692Y58820255D01*
X15400691Y58820338D01*
X15400696Y58820365D01*
X15400696Y58820399D01*
X15404067Y58843231D01*
X15407558Y58866910D01*
X15407566Y58866935D01*
X15407571Y58866970D01*
X15415019Y58890736D01*
X15421625Y58911834D01*
X15421639Y58911862D01*
X15421648Y58911891D01*
X15431708Y58932155D01*
X15442547Y58954005D01*
X15442566Y58954031D01*
X15442579Y58954058D01*
X15456253Y58973300D01*
X15469808Y58992383D01*
X15469829Y58992403D01*
X15469847Y58992430D01*
X15486505Y59009440D01*
X15502738Y59026025D01*
X15502764Y59026043D01*
X15502784Y59026065D01*
X15520442Y59039179D01*
X15540524Y59054101D01*
X15540555Y59054116D01*
X15540576Y59054133D01*
X15560421Y59064508D01*
X15582238Y59075920D01*
X15582267Y59075929D01*
X15582294Y59075944D01*
X15605204Y59083654D01*
X15626851Y59090945D01*
X15626881Y59090949D01*
X15626910Y59090960D01*
X15652259Y59095248D01*
X15673266Y59098806D01*
X15673301Y59098807D01*
X15673326Y59098812D01*
X15673402Y59098812D01*
X15696792Y59099983D01*
X16280842Y59106229D01*
X16280845Y59106230D01*
X16815962Y59112480D01*
X16815971Y59112479D01*
X17309903Y59118726D01*
X17309908Y59118725D01*
X17769409Y59124968D01*
X17769425Y59124969D01*
X18200849Y59131219D01*
X18200851Y59131218D01*
X18607934Y59137465D01*
X18607937Y59137464D01*
X18994786Y59143711D01*
X18994793Y59143710D01*
X19364467Y59149953D01*
X19364477Y59149954D01*
X19720249Y59156200D01*
X19720252Y59156201D01*
X20064512Y59162451D01*
X20064515Y59162450D01*
X20399112Y59168698D01*
X20399126Y59168697D01*
X20726205Y59174945D01*
X20726206Y59174944D01*
X21047515Y59181191D01*
X21047526Y59181192D01*
X21364982Y59187442D01*
X21364985Y59187441D01*
X21679920Y59193690D01*
X21679928Y59193691D01*
X21994032Y59199941D01*
X21994041Y59199940D01*
X21994043Y59199941D01*
X22308761Y59206191D01*
X22308779Y59206190D01*
X22308802Y59206192D01*
X22625660Y59212442D01*
X22625698Y59212441D01*
X22625728Y59212443D01*
X22946283Y59218693D01*
X22946328Y59218692D01*
X22946378Y59218695D01*
X23272258Y59224945D01*
X23272323Y59224943D01*
X23272380Y59224947D01*
X23605314Y59231197D01*
X23605383Y59231195D01*
X23605460Y59231200D01*
X23947310Y59237450D01*
X23947395Y59237448D01*
X23947480Y59237453D01*
X24300296Y59243703D01*
X24300397Y59243700D01*
X24300489Y59243706D01*
X24666555Y59249956D01*
X24666655Y59249953D01*
X24666768Y59249960D01*
X25048669Y59256210D01*
X25048780Y59256207D01*
X25048900Y59256214D01*
X25449600Y59262463D01*
X25449731Y59262459D01*
X25449845Y59262466D01*
X25872785Y59268717D01*
X25872912Y59268713D01*
X25873046Y59268721D01*
X26322282Y59274971D01*
X26322413Y59274967D01*
X26322553Y59274975D01*
X26802919Y59281225D01*
X26803064Y59281221D01*
X26803198Y59281228D01*
X27320529Y59287478D01*
X27320675Y59287474D01*
X27320814Y59287481D01*
X27882252Y59293731D01*
X27882396Y59293726D01*
X27882539Y59293734D01*
X28496949Y59299984D01*
X28520378Y59299302D01*
G37*
%TD.AperFunction*%
%TD*%
D11*
%TO.N,/VIN_RAW*%
%TO.C,J1*%
X19500000Y87000000D03*
D12*
%TO.N,/PGND*%
X24500000Y87000000D03*
%TD*%
D13*
%TO.N,/VIN*%
%TO.C,T1*%
X24871953Y60073763D03*
%TO.N,/SW*%
X19128047Y60073763D03*
%TO.N,/GND_ISO*%
X20540116Y33532645D03*
%TO.N,/SEC_A*%
X22775000Y37270417D03*
%TO.N,unconnected-(T1-P_MID-Pad5)*%
X22000000Y56800000D03*
%TD*%
D11*
%TO.N,/+5V_ISO*%
%TO.C,J2*%
X24500000Y8000000D03*
D12*
%TO.N,/GND_ISO*%
X19500000Y8000000D03*
%TD*%
D14*
%TO.N,/GND_ISO*%
X17500000Y14200000D03*
X33000000Y14000000D03*
X34000000Y9000000D03*
X29000000Y14000000D03*
D15*
X30200000Y23000000D03*
D14*
X22000000Y11000000D03*
D16*
X10200000Y18500000D03*
D14*
X9000000Y14000000D03*
X33000000Y25000000D03*
D16*
X20200000Y18500000D03*
D14*
X29000000Y7000000D03*
X22000000Y5500000D03*
X21000000Y22000000D03*
X12000000Y29000000D03*
X14000000Y25000000D03*
D16*
X29975000Y25880000D03*
D14*
X9000000Y29000000D03*
X13000000Y7000000D03*
X33000000Y29000000D03*
D16*
X31000000Y17037500D03*
D14*
X16000000Y29000000D03*
X9000000Y22000000D03*
D16*
X20169595Y30500000D03*
D14*
X14000000Y14000000D03*
X34500000Y22000000D03*
D16*
X19269595Y30500000D03*
D14*
%TO.N,/PGND*%
X37000000Y73000000D03*
X12700000Y67450000D03*
X6500000Y63000000D03*
X13000000Y64500000D03*
D15*
X14400000Y64350000D03*
D14*
X36200000Y78000000D03*
X7500000Y63600000D03*
X12700000Y68550000D03*
X7000000Y75000000D03*
X6500000Y72000000D03*
X21000000Y74500000D03*
X37500000Y64000000D03*
X10898500Y66095000D03*
X8000000Y85000000D03*
X14300000Y67450000D03*
X37500000Y69000000D03*
X6025000Y66365000D03*
X22000000Y77000000D03*
X37500000Y63000000D03*
X7725000Y68800000D03*
X14300000Y68550000D03*
X6500000Y84000000D03*
X36500000Y85000000D03*
X25000000Y73000000D03*
X8500000Y73500000D03*
X19475000Y69200000D03*
X16325000Y76000000D03*
X26000000Y69475000D03*
X35000000Y73000000D03*
D16*
%TO.N,/SEC_A*%
X23450000Y29862000D03*
X22550000Y29862000D03*
D17*
%TO.N,/VIN*%
X8975000Y66365000D03*
D14*
X11675000Y76000000D03*
D17*
X26000000Y66525000D03*
X10000000Y80150000D03*
%TD*%
M02*
