%TF.GenerationSoftware,KiCad,Pcbnew,10.0.6*%
%TF.CreationDate,2026-09-29T19:19:49-04:00*%
%TF.ProjectId,PS-FLYBACK-5W,50532d46-4c59-4424-9143-4b2d35572e6b,A1-development*%
%TF.SameCoordinates,Original*%
%TF.FileFunction,Profile,NP*%
%FSLAX46Y46*%
G04 Gerber Fmt 4.6, Leading zero omitted, Abs format (unit mm)*
G04 Created by KiCad (PCBNEW 10.0.6) date 2026-09-29 19:19:49*
%MOMM*%
%LPD*%
G01*
G04 APERTURE LIST*
%TA.AperFunction,Profile*%
%ADD10C,0.050000*%
%TD*%
G04 APERTURE END LIST*
D10*
X0Y102000000D02*
G75*
G02*
X2000000Y104000000I2000000J0D01*
G01*
X0Y2000000D02*
X0Y102000000D01*
X2000000Y104000000D02*
X48000000Y104000000D01*
X2000000Y0D02*
G75*
G02*
X0Y2000000I0J2000000D01*
G01*
X8550000Y62125000D02*
G75*
G02*
X9050000Y62625000I500000J0D01*
G01*
X8550000Y41875000D02*
X8550000Y62125000D01*
X9050000Y62625000D02*
X12300000Y62625000D01*
X9050000Y41375000D02*
G75*
G02*
X8550000Y41875000I0J500000D01*
G01*
X12300000Y62625000D02*
G75*
G02*
X12800000Y62125000I0J-500000D01*
G01*
X12300000Y41375000D02*
X9050000Y41375000D01*
X12800000Y62125000D02*
X12800000Y41875000D01*
X12800000Y41875000D02*
G75*
G02*
X12300000Y41375000I-500000J0D01*
G01*
X21500000Y62125000D02*
G75*
G02*
X22000000Y62625000I500000J0D01*
G01*
X21500000Y41875000D02*
X21500000Y62125000D01*
X22000000Y62625000D02*
X28000000Y62625000D01*
X22000000Y41375000D02*
G75*
G02*
X21500000Y41875000I0J500000D01*
G01*
X28000000Y62625000D02*
G75*
G02*
X28500000Y62125000I0J-500000D01*
G01*
X28000000Y41375000D02*
X22000000Y41375000D01*
X28500000Y62125000D02*
X28500000Y41875000D01*
X28500000Y41875000D02*
G75*
G02*
X28000000Y41375000I-500000J0D01*
G01*
X37200000Y62125000D02*
G75*
G02*
X37700000Y62625000I500000J0D01*
G01*
X37200000Y41875000D02*
X37200000Y62125000D01*
X37700000Y62625000D02*
X40950000Y62625000D01*
X37700000Y41375000D02*
G75*
G02*
X37200000Y41875000I0J500000D01*
G01*
X40950000Y62625000D02*
G75*
G02*
X41450000Y62125000I0J-500000D01*
G01*
X40950000Y41375000D02*
X37700000Y41375000D01*
X41450000Y62125000D02*
X41450000Y41875000D01*
X41450000Y41875000D02*
G75*
G02*
X40950000Y41375000I-500000J0D01*
G01*
X48000000Y104000000D02*
G75*
G02*
X50000000Y102000000I0J-2000000D01*
G01*
X48000000Y0D02*
X2000000Y0D01*
X50000000Y102000000D02*
X50000000Y2000000D01*
X50000000Y2000000D02*
G75*
G02*
X48000000Y0I-2000000J0D01*
G01*
M02*
