%TF.GenerationSoftware,KiCad,Pcbnew,10.0.6*%
%TF.CreationDate,2026-09-30T10:28:14-04:00*%
%TF.ProjectId,PS-FLYBACK-5W,50532d46-4c59-4424-9143-4b2d35572e6b,A1-development*%
%TF.SameCoordinates,Original*%
%TF.FileFunction,Copper,L4,Inr*%
%TF.FilePolarity,Positive*%
%FSLAX46Y46*%
G04 Gerber Fmt 4.6, Leading zero omitted, Abs format (unit mm)*
G04 Created by KiCad (PCBNEW 10.0.6) date 2026-09-30 10:28:14*
%MOMM*%
%LPD*%
G01*
G04 APERTURE LIST*
%TA.AperFunction,ComponentPad*%
%ADD10C,0.800000*%
%TD*%
%TA.AperFunction,ComponentPad*%
%ADD11R,2.400000X2.400000*%
%TD*%
%TA.AperFunction,ComponentPad*%
%ADD12C,2.400000*%
%TD*%
%TA.AperFunction,ViaPad*%
%ADD13C,0.900000*%
%TD*%
%TA.AperFunction,ViaPad*%
%ADD14C,0.600000*%
%TD*%
%TA.AperFunction,ViaPad*%
%ADD15C,1.200000*%
%TD*%
%TA.AperFunction,ViaPad*%
%ADD16C,0.800000*%
%TD*%
%TA.AperFunction,Conductor*%
%ADD17C,1.500000*%
%TD*%
%TA.AperFunction,Conductor*%
%ADD18C,0.300000*%
%TD*%
%TA.AperFunction,Conductor*%
%ADD19C,1.300000*%
%TD*%
G04 APERTURE END LIST*
D10*
%TO.N,/VIN*%
%TO.C,T1*%
X28621977Y71193193D03*
%TO.N,/SW*%
X21378023Y71193193D03*
%TO.N,/GND_ISO*%
X23169595Y32408661D03*
%TO.N,/SEC_A*%
X26075000Y37553499D03*
%TO.N,unconnected-(T1-P_MID-Pad5)*%
X25000000Y66525000D03*
%TD*%
D11*
%TO.N,/+5V_ISO*%
%TO.C,J2*%
X27500000Y8000000D03*
D12*
%TO.N,/GND_ISO*%
X22500000Y8000000D03*
%TD*%
D11*
%TO.N,/VIN_RAW*%
%TO.C,J1*%
X22500000Y97000000D03*
D12*
%TO.N,/PGND*%
X27500000Y97000000D03*
%TD*%
D13*
%TO.N,/GND_ISO*%
X13200000Y18500000D03*
D14*
X15000000Y29000000D03*
X12000000Y14000000D03*
X37000000Y9000000D03*
X17000000Y14000000D03*
X25000000Y11000000D03*
X24000000Y22000000D03*
D13*
X32975000Y25880000D03*
D14*
X36000000Y25000000D03*
X19000000Y29000000D03*
D13*
X23200000Y18500000D03*
D14*
X32000000Y14000000D03*
X37500000Y22000000D03*
X36000000Y29000000D03*
X12000000Y22000000D03*
X16000000Y7000000D03*
X36000000Y14000000D03*
D13*
X34000000Y17037500D03*
D15*
X33200000Y23000000D03*
D14*
X17000000Y25000000D03*
D13*
X23169595Y30500000D03*
X22269595Y30500000D03*
D14*
X25000000Y5500000D03*
X32000000Y7000000D03*
X12000000Y29000000D03*
X20500000Y14200000D03*
%TO.N,/PGND*%
X17300000Y77450000D03*
X13898500Y76095000D03*
X15700000Y78550000D03*
X16000000Y74500000D03*
X10000000Y85000000D03*
X10725000Y78800000D03*
X28000000Y83000000D03*
X37000000Y74000000D03*
X15700000Y77450000D03*
X38000000Y83000000D03*
X9500000Y97000000D03*
X22475000Y79200000D03*
X19325000Y86000000D03*
X9025000Y76365000D03*
X29000000Y79475000D03*
X11500000Y83500000D03*
X9500000Y94000000D03*
X39500000Y95000000D03*
X39000000Y74000000D03*
X9500000Y73000000D03*
X24000000Y84500000D03*
X25000000Y87000000D03*
X39000000Y79000000D03*
X9500000Y82000000D03*
X17300000Y78550000D03*
X10500000Y73600000D03*
X40000000Y83000000D03*
X39200000Y88000000D03*
D15*
X17400000Y74350000D03*
D13*
%TO.N,/SEC_A*%
X25550000Y29862000D03*
X26450000Y29862000D03*
D16*
%TO.N,/VIN*%
X11975000Y76365000D03*
X13000000Y90150000D03*
D14*
X14675000Y86000000D03*
D16*
X29000000Y76525000D03*
%TD*%
%TO.N,/VIN*%
D17*
X11975000Y76365000D02*
X11975000Y75000000D01*
D18*
X14675000Y86000000D02*
X14800000Y86000000D01*
D19*
X13800000Y83300000D02*
X13800000Y78190000D01*
D17*
X11975000Y75000000D02*
X14275000Y72700000D01*
D19*
X13800000Y78190000D02*
X11975000Y76365000D01*
D17*
X14275000Y72700000D02*
X25175000Y72700000D01*
D19*
X13000000Y90150000D02*
X14800000Y88350000D01*
D17*
X25175000Y72700000D02*
X29000000Y76525000D01*
D19*
X14800000Y84300000D02*
X13800000Y83300000D01*
X14800000Y88350000D02*
X14800000Y84300000D01*
%TD*%
M02*
