%TF.GenerationSoftware,KiCad,Pcbnew,10.0.6*%
%TF.CreationDate,2026-10-08T12:10:17-04:00*%
%TF.ProjectId,PS-FLYBACK-5W,50532d46-4c59-4424-9143-4b2d35572e6b,A3-development*%
%TF.SameCoordinates,Original*%
%TF.FileFunction,Soldermask,Bot*%
%TF.FilePolarity,Negative*%
%FSLAX46Y46*%
G04 Gerber Fmt 4.6, Leading zero omitted, Abs format (unit mm)*
G04 Created by KiCad (PCBNEW 10.0.6) date 2026-10-08 12:10:17*
%MOMM*%
%LPD*%
G01*
G04 APERTURE LIST*
%ADD10C,0.000000*%
%ADD11R,2.400000X2.400000*%
%ADD12C,2.400000*%
%ADD13C,0.600000*%
%ADD14C,3.200000*%
G04 APERTURE END LIST*
D10*
%TO.C,H2*%
G36*
X47700000Y86300000D02*
G01*
X39500000Y86300000D01*
X39290710Y86306851D01*
X39082316Y86327376D01*
X38875711Y86361487D01*
X38671779Y86409037D01*
X38471394Y86469824D01*
X38275413Y86543585D01*
X38084676Y86630007D01*
X37900000Y86728719D01*
X37722175Y86839297D01*
X37551963Y86961269D01*
X37390093Y87094113D01*
X37237258Y87237258D01*
X37094113Y87390093D01*
X36961269Y87551963D01*
X36839297Y87722175D01*
X36728719Y87900000D01*
X36630007Y88084676D01*
X36543585Y88275413D01*
X36469824Y88471394D01*
X36409037Y88671779D01*
X36361487Y88875711D01*
X36327376Y89082316D01*
X36306851Y89290710D01*
X36300000Y89500000D01*
X36306851Y89709290D01*
X36327376Y89917684D01*
X36361487Y90124289D01*
X36409037Y90328221D01*
X36469824Y90528606D01*
X36543585Y90724587D01*
X36630007Y90915324D01*
X36728719Y91100000D01*
X36839297Y91277825D01*
X36961269Y91448037D01*
X37094113Y91609907D01*
X37237258Y91762742D01*
X37390093Y91905887D01*
X37551963Y92038731D01*
X37722175Y92160703D01*
X37900000Y92271281D01*
X38084676Y92369993D01*
X38275413Y92456415D01*
X38471394Y92530176D01*
X38671779Y92590963D01*
X38875711Y92638513D01*
X39082316Y92672624D01*
X39290710Y92693149D01*
X39500000Y92700000D01*
X47700000Y92700000D01*
X47700000Y86300000D01*
G37*
%TO.C,H1*%
G36*
X4709290Y92693149D02*
G01*
X4917684Y92672624D01*
X5124289Y92638513D01*
X5328221Y92590963D01*
X5528606Y92530176D01*
X5724587Y92456415D01*
X5915324Y92369993D01*
X6100000Y92271281D01*
X6277825Y92160703D01*
X6448037Y92038731D01*
X6609907Y91905887D01*
X6762742Y91762742D01*
X6905887Y91609907D01*
X7038731Y91448037D01*
X7160703Y91277825D01*
X7271281Y91100000D01*
X7369993Y90915324D01*
X7456415Y90724587D01*
X7530176Y90528606D01*
X7590963Y90328221D01*
X7638513Y90124289D01*
X7672624Y89917684D01*
X7693149Y89709290D01*
X7700000Y89500000D01*
X7693149Y89290710D01*
X7672624Y89082316D01*
X7638513Y88875711D01*
X7590963Y88671779D01*
X7530176Y88471394D01*
X7456415Y88275413D01*
X7369993Y88084676D01*
X7271281Y87900000D01*
X7160703Y87722175D01*
X7038731Y87551963D01*
X6905887Y87390093D01*
X6762742Y87237258D01*
X6609907Y87094113D01*
X6448037Y86961269D01*
X6277825Y86839297D01*
X6100000Y86728719D01*
X5915324Y86630007D01*
X5724587Y86543585D01*
X5528606Y86469824D01*
X5328221Y86409037D01*
X5124289Y86361487D01*
X4917684Y86327376D01*
X4709290Y86306851D01*
X4500000Y86300000D01*
X-3700000Y86300000D01*
X-3700000Y92700000D01*
X4500000Y92700000D01*
X4709290Y92693149D01*
G37*
%TO.C,H3*%
G36*
X4709290Y7693149D02*
G01*
X4917684Y7672624D01*
X5124289Y7638513D01*
X5328221Y7590963D01*
X5528606Y7530176D01*
X5724587Y7456415D01*
X5915324Y7369993D01*
X6100000Y7271281D01*
X6277825Y7160703D01*
X6448037Y7038731D01*
X6609907Y6905887D01*
X6762742Y6762742D01*
X6905887Y6609907D01*
X7038731Y6448037D01*
X7160703Y6277825D01*
X7271281Y6100000D01*
X7369993Y5915324D01*
X7456415Y5724587D01*
X7530176Y5528606D01*
X7590963Y5328221D01*
X7638513Y5124289D01*
X7672624Y4917684D01*
X7693149Y4709290D01*
X7700000Y4500000D01*
X7693149Y4290710D01*
X7672624Y4082316D01*
X7638513Y3875711D01*
X7590963Y3671779D01*
X7530176Y3471394D01*
X7456415Y3275413D01*
X7369993Y3084676D01*
X7271281Y2900000D01*
X7160703Y2722175D01*
X7038731Y2551963D01*
X6905887Y2390093D01*
X6762742Y2237258D01*
X6609907Y2094113D01*
X6448037Y1961269D01*
X6277825Y1839297D01*
X6100000Y1728719D01*
X5915324Y1630007D01*
X5724587Y1543585D01*
X5528606Y1469824D01*
X5328221Y1409037D01*
X5124289Y1361487D01*
X4917684Y1327376D01*
X4709290Y1306851D01*
X4500000Y1300000D01*
X-3700000Y1300000D01*
X-3700000Y7700000D01*
X4500000Y7700000D01*
X4709290Y7693149D01*
G37*
%TO.C,H4*%
G36*
X47700000Y1300000D02*
G01*
X39500000Y1300000D01*
X39290710Y1306851D01*
X39082316Y1327376D01*
X38875711Y1361487D01*
X38671779Y1409037D01*
X38471394Y1469824D01*
X38275413Y1543585D01*
X38084676Y1630007D01*
X37900000Y1728719D01*
X37722175Y1839297D01*
X37551963Y1961269D01*
X37390093Y2094113D01*
X37237258Y2237258D01*
X37094113Y2390093D01*
X36961269Y2551963D01*
X36839297Y2722175D01*
X36728719Y2900000D01*
X36630007Y3084676D01*
X36543585Y3275413D01*
X36469824Y3471394D01*
X36409037Y3671779D01*
X36361487Y3875711D01*
X36327376Y4082316D01*
X36306851Y4290710D01*
X36300000Y4500000D01*
X36306851Y4709290D01*
X36327376Y4917684D01*
X36361487Y5124289D01*
X36409037Y5328221D01*
X36469824Y5528606D01*
X36543585Y5724587D01*
X36630007Y5915324D01*
X36728719Y6100000D01*
X36839297Y6277825D01*
X36961269Y6448037D01*
X37094113Y6609907D01*
X37237258Y6762742D01*
X37390093Y6905887D01*
X37551963Y7038731D01*
X37722175Y7160703D01*
X37900000Y7271281D01*
X38084676Y7369993D01*
X38275413Y7456415D01*
X38471394Y7530176D01*
X38671779Y7590963D01*
X38875711Y7638513D01*
X39082316Y7672624D01*
X39290710Y7693149D01*
X39500000Y7700000D01*
X47700000Y7700000D01*
X47700000Y1300000D01*
G37*
%TD*%
D11*
%TO.C,J2*%
X24500000Y8000000D03*
D12*
X19500000Y8000000D03*
%TD*%
D13*
%TO.C,T1*%
X24871953Y60073763D03*
X19128047Y60073763D03*
X20540116Y33532645D03*
X22775000Y37270417D03*
%TD*%
D14*
%TO.C,H2*%
X39500000Y89500000D03*
%TD*%
D11*
%TO.C,J1*%
X19500000Y87000000D03*
D12*
X24500000Y87000000D03*
%TD*%
D14*
%TO.C,H1*%
X4500000Y89500000D03*
%TD*%
%TO.C,H3*%
X4500000Y4500000D03*
%TD*%
%TO.C,H4*%
X39500000Y4500000D03*
%TD*%
M02*
