%TF.GenerationSoftware,KiCad,Pcbnew,10.0.6*%
%TF.CreationDate,2026-10-08T10:25:58-04:00*%
%TF.ProjectId,PS-FLYBACK-5W,50532d46-4c59-4424-9143-4b2d35572e6b,A2-development*%
%TF.SameCoordinates,Original*%
%TF.FileFunction,Copper,L6,Bot*%
%TF.FilePolarity,Positive*%
%FSLAX46Y46*%
G04 Gerber Fmt 4.6, Leading zero omitted, Abs format (unit mm)*
G04 Created by KiCad (PCBNEW 10.0.6) date 2026-10-08 10:25:58*
%MOMM*%
%LPD*%
G01*
G04 APERTURE LIST*
%TA.AperFunction,EtchedComponent*%
%ADD10C,0.000000*%
%TD*%
%TA.AperFunction,ComponentPad*%
%ADD11R,2.400000X2.400000*%
%TD*%
%TA.AperFunction,ComponentPad*%
%ADD12C,2.400000*%
%TD*%
%TA.AperFunction,ComponentPad*%
%ADD13C,0.600000*%
%TD*%
%TA.AperFunction,ViaPad*%
%ADD14C,0.600000*%
%TD*%
%TA.AperFunction,ViaPad*%
%ADD15C,0.900000*%
%TD*%
%TA.AperFunction,ViaPad*%
%ADD16C,1.200000*%
%TD*%
%TA.AperFunction,ViaPad*%
%ADD17C,0.800000*%
%TD*%
G04 APERTURE END LIST*
D10*
%TA.AperFunction,EtchedComponent*%
%TO.C,T1*%
G36*
X25019922Y65899338D02*
G01*
X25021723Y65899075D01*
X25023538Y65899075D01*
X25044984Y65895678D01*
X25066504Y65892536D01*
X25068239Y65891995D01*
X25070034Y65891711D01*
X25090706Y65884994D01*
X25111447Y65878531D01*
X25113074Y65877726D01*
X25114805Y65877164D01*
X25134202Y65867280D01*
X25153647Y65857667D01*
X25155126Y65856619D01*
X25156750Y65855792D01*
X25174348Y65843005D01*
X25192063Y65830460D01*
X25193364Y65829189D01*
X25194834Y65828122D01*
X25210205Y65812750D01*
X25225751Y65797576D01*
X25226835Y65796120D01*
X25228122Y65794834D01*
X25240894Y65777254D01*
X25253879Y65759830D01*
X25254723Y65758219D01*
X25255792Y65756750D01*
X25265663Y65737376D01*
X25275756Y65718146D01*
X25276337Y65716426D01*
X25277164Y65714805D01*
X25283888Y65694108D01*
X25290843Y65673554D01*
X25291148Y65671765D01*
X25291711Y65670034D01*
X25295118Y65648520D01*
X25298768Y65627150D01*
X25298789Y65625338D01*
X25299075Y65623538D01*
X25300000Y65600000D01*
X25300000Y64594433D01*
X25339337Y64593697D01*
X25339355Y64593698D01*
X25674061Y64587448D01*
X25674066Y64587449D01*
X26011459Y64581199D01*
X26011466Y64581198D01*
X26353014Y64574951D01*
X26353020Y64574952D01*
X26700872Y64568702D01*
X26700875Y64568701D01*
X27056649Y64562454D01*
X27056661Y64562453D01*
X27422373Y64556208D01*
X27422377Y64556209D01*
X27800894Y64549959D01*
X27800894Y64549958D01*
X28194319Y64543712D01*
X28194323Y64543711D01*
X28605580Y64537468D01*
X28605595Y64537469D01*
X29038882Y64531219D01*
X29038889Y64531218D01*
X29497318Y64524975D01*
X29497331Y64524976D01*
X29986795Y64518726D01*
X29986799Y64518725D01*
X30512355Y64512479D01*
X31081260Y64506234D01*
X31703014Y64499985D01*
X31726427Y64498828D01*
X31726488Y64498828D01*
X31726508Y64498824D01*
X31726541Y64498823D01*
X31746441Y64495465D01*
X31772909Y64491006D01*
X31772940Y64490995D01*
X31772961Y64490992D01*
X31790791Y64484999D01*
X31817534Y64476018D01*
X31817561Y64476003D01*
X31817584Y64475996D01*
X31836414Y64466162D01*
X31859266Y64454233D01*
X31859288Y64454216D01*
X31859312Y64454204D01*
X31877389Y64440790D01*
X31897075Y64426188D01*
X31897095Y64426167D01*
X31897116Y64426152D01*
X31911704Y64411266D01*
X31930033Y64392573D01*
X31930051Y64392546D01*
X31930067Y64392531D01*
X31940697Y64377586D01*
X31957326Y64354218D01*
X31957340Y64354187D01*
X31957353Y64354171D01*
X31964974Y64338834D01*
X31978283Y64312064D01*
X31978293Y64312029D01*
X31978302Y64312013D01*
X31983816Y64294442D01*
X31992387Y64267152D01*
X31992391Y64267124D01*
X31992399Y64267099D01*
X31995520Y64246019D01*
X31999292Y64220585D01*
X31999293Y64220542D01*
X31999295Y64220531D01*
X31999294Y64220495D01*
X31999984Y64197039D01*
X31993735Y63563900D01*
X31993728Y63563758D01*
X31993732Y63563620D01*
X31987481Y62985048D01*
X31987474Y62984911D01*
X31987478Y62984773D01*
X31981228Y62451635D01*
X31981221Y62451503D01*
X31981225Y62451365D01*
X31974976Y61956305D01*
X31974969Y61956179D01*
X31974973Y61956042D01*
X31968723Y61493045D01*
X31968716Y61492912D01*
X31968719Y61492793D01*
X31962469Y61056879D01*
X31962462Y61056766D01*
X31962466Y61056640D01*
X31956216Y60643632D01*
X31956209Y60643513D01*
X31956212Y60643408D01*
X31949961Y60249757D01*
X31949955Y60249659D01*
X31949958Y60249553D01*
X31943709Y59872204D01*
X31943703Y59872112D01*
X31943706Y59872017D01*
X31937456Y59508309D01*
X31937451Y59508224D01*
X31937453Y59508143D01*
X31931203Y59155722D01*
X31931198Y59155645D01*
X31931200Y59155579D01*
X31924950Y58812332D01*
X31924946Y58812275D01*
X31924948Y58812214D01*
X31918697Y58476218D01*
X31918694Y58476168D01*
X31918695Y58476127D01*
X31912446Y58145603D01*
X31912444Y58145573D01*
X31912445Y58145537D01*
X31906247Y57821530D01*
X31900000Y51999678D01*
X31893750Y46175748D01*
X31893639Y46173013D01*
X31893694Y46170299D01*
X31887443Y45845467D01*
X31887444Y45845464D01*
X31881196Y45518127D01*
X31881197Y45518111D01*
X31874948Y45186602D01*
X31874949Y45186598D01*
X31868701Y44849186D01*
X31862453Y44504017D01*
X31862454Y44504009D01*
X31856206Y44149033D01*
X31849960Y43781992D01*
X31843710Y43400128D01*
X31837466Y43001182D01*
X31837467Y43001173D01*
X31831217Y42580860D01*
X31824972Y42136194D01*
X31824973Y42136186D01*
X31818723Y41661417D01*
X31812479Y41151949D01*
X31812480Y41151935D01*
X31806234Y40599970D01*
X31799984Y39996891D01*
X31798820Y39973476D01*
X31798820Y39973421D01*
X31798816Y39973403D01*
X31798815Y39973364D01*
X31794931Y39950388D01*
X31790984Y39927002D01*
X31790974Y39926974D01*
X31790970Y39926947D01*
X31784945Y39909040D01*
X31775982Y39882382D01*
X31775967Y39882355D01*
X31775959Y39882329D01*
X31766329Y39863905D01*
X31754185Y39840656D01*
X31754165Y39840630D01*
X31754154Y39840608D01*
X31742606Y39825055D01*
X31726129Y39802856D01*
X31726109Y39802837D01*
X31726091Y39802812D01*
X31710517Y39787558D01*
X31692504Y39769908D01*
X31692481Y39769892D01*
X31692460Y39769871D01*
X31671700Y39755115D01*
X31654140Y39742627D01*
X31654117Y39742616D01*
X31654091Y39742597D01*
X31631313Y39731287D01*
X31611980Y39721683D01*
X31611956Y39721676D01*
X31611927Y39721661D01*
X31587647Y39714050D01*
X31567063Y39707592D01*
X31567035Y39707588D01*
X31567007Y39707579D01*
X31543394Y39704090D01*
X31520495Y39700701D01*
X31520456Y39700700D01*
X31520437Y39700697D01*
X31520378Y39700698D01*
X31496949Y39700016D01*
X30882539Y39706266D01*
X30882396Y39706274D01*
X30882252Y39706269D01*
X30320814Y39712519D01*
X30320675Y39712526D01*
X30320529Y39712522D01*
X29803198Y39718772D01*
X29803064Y39718779D01*
X29802919Y39718775D01*
X29322553Y39725025D01*
X29322413Y39725033D01*
X29322282Y39725029D01*
X28873046Y39731279D01*
X28872912Y39731287D01*
X28872786Y39731283D01*
X28449845Y39737533D01*
X28449731Y39737540D01*
X28449600Y39737536D01*
X28048899Y39743786D01*
X28048779Y39743793D01*
X28048669Y39743790D01*
X27666768Y39750040D01*
X27666655Y39750047D01*
X27666555Y39750044D01*
X27300489Y39756294D01*
X27300397Y39756300D01*
X27300296Y39756297D01*
X26947480Y39762547D01*
X26947395Y39762552D01*
X26947310Y39762550D01*
X26605460Y39768800D01*
X26605383Y39768805D01*
X26605314Y39768803D01*
X26272380Y39775053D01*
X26272323Y39775057D01*
X26272258Y39775055D01*
X25946378Y39781305D01*
X25946328Y39781308D01*
X25946283Y39781307D01*
X25625728Y39787557D01*
X25625698Y39787559D01*
X25625660Y39787558D01*
X25308802Y39793808D01*
X25308779Y39793810D01*
X25308761Y39793809D01*
X24994043Y39800059D01*
X24994041Y39800060D01*
X24994032Y39800059D01*
X24679928Y39806309D01*
X24679920Y39806310D01*
X24364985Y39812559D01*
X24364982Y39812558D01*
X24047526Y39818808D01*
X24047515Y39818809D01*
X23726206Y39825056D01*
X23726205Y39825055D01*
X23399126Y39831303D01*
X23399112Y39831302D01*
X23064515Y39837550D01*
X23064512Y39837549D01*
X22720252Y39843799D01*
X22720249Y39843800D01*
X22364477Y39850046D01*
X22364467Y39850047D01*
X21994793Y39856290D01*
X21994786Y39856289D01*
X21607937Y39862536D01*
X21607934Y39862535D01*
X21200851Y39868782D01*
X21200849Y39868781D01*
X20769425Y39875031D01*
X20769409Y39875032D01*
X20309908Y39881275D01*
X20309903Y39881274D01*
X19815971Y39887521D01*
X19815962Y39887520D01*
X19280845Y39893770D01*
X19280842Y39893771D01*
X18696792Y39900017D01*
X18673402Y39901188D01*
X18673327Y39901188D01*
X18673303Y39901193D01*
X18673266Y39901194D01*
X18651403Y39904897D01*
X18626911Y39909040D01*
X18626883Y39909050D01*
X18626851Y39909055D01*
X18603703Y39916851D01*
X18582295Y39924056D01*
X18582270Y39924070D01*
X18582238Y39924080D01*
X18561411Y39934974D01*
X18540576Y39945866D01*
X18540550Y39945886D01*
X18540524Y39945899D01*
X18522391Y39959373D01*
X18502785Y39973934D01*
X18502764Y39973957D01*
X18502738Y39973975D01*
X18485214Y39991879D01*
X18469848Y40007570D01*
X18469833Y40007593D01*
X18469808Y40007617D01*
X18455139Y40028270D01*
X18442579Y40045942D01*
X18442566Y40045969D01*
X18442547Y40045995D01*
X18431708Y40067845D01*
X18421648Y40088109D01*
X18421639Y40088138D01*
X18421625Y40088166D01*
X18415019Y40109264D01*
X18407571Y40133030D01*
X18407566Y40133065D01*
X18407558Y40133090D01*
X18404067Y40156769D01*
X18400696Y40179601D01*
X18400696Y40179635D01*
X18400691Y40179662D01*
X18400692Y40179745D01*
X18400018Y40203147D01*
X18406267Y40798825D01*
X18406275Y40798971D01*
X18406270Y40799123D01*
X18412520Y41343428D01*
X18412528Y41343568D01*
X18412523Y41343721D01*
X18418773Y41845246D01*
X18418781Y41845394D01*
X18418777Y41845535D01*
X18425028Y42311207D01*
X18425036Y42311348D01*
X18425032Y42311485D01*
X18431281Y42746961D01*
X18431289Y42747096D01*
X18431285Y42747229D01*
X18437535Y43157198D01*
X18437542Y43157326D01*
X18437539Y43157452D01*
X18443789Y43545842D01*
X18443796Y43545962D01*
X18443793Y43546080D01*
X18450043Y43916231D01*
X18450050Y43916344D01*
X18450047Y43916451D01*
X18456298Y44271236D01*
X18456304Y44271328D01*
X18456301Y44271433D01*
X18462550Y44613358D01*
X18462555Y44613443D01*
X18462553Y44613535D01*
X18468803Y44944813D01*
X18468808Y44944891D01*
X18468806Y44944965D01*
X18475056Y45267582D01*
X18475061Y45267652D01*
X18475059Y45267708D01*
X18481309Y45583473D01*
X18481312Y45583524D01*
X18481311Y45583573D01*
X18487562Y45894160D01*
X18487564Y45894190D01*
X18487563Y45894229D01*
X18493812Y46201213D01*
X18493814Y46201237D01*
X18493813Y46201256D01*
X18500003Y46503157D01*
X18506250Y57804445D01*
X18506370Y57807435D01*
X18506313Y57810423D01*
X18512563Y58115559D01*
X18518813Y58422999D01*
X18525060Y58734303D01*
X18525061Y58734304D01*
X18531309Y59051108D01*
X18531310Y59051123D01*
X18537556Y59375155D01*
X18543800Y59708167D01*
X18543799Y59708181D01*
X18550050Y60052853D01*
X18550051Y60052869D01*
X18556296Y60411007D01*
X18562543Y60785565D01*
X18568788Y61179683D01*
X18575034Y61597083D01*
X18581281Y62042184D01*
X18587526Y62520317D01*
X18593768Y63037697D01*
X18600018Y63603314D01*
X18601197Y63626707D01*
X18601197Y63626775D01*
X18601201Y63626797D01*
X18601203Y63626841D01*
X18605813Y63654002D01*
X18609065Y63673188D01*
X18609076Y63673218D01*
X18609081Y63673252D01*
X18617692Y63698793D01*
X18624096Y63717799D01*
X18624109Y63717822D01*
X18624121Y63717860D01*
X18637649Y63743700D01*
X18645921Y63759510D01*
X18645941Y63759535D01*
X18645956Y63759566D01*
X18660884Y63779641D01*
X18674002Y63797292D01*
X18674024Y63797312D01*
X18674045Y63797342D01*
X18691994Y63814898D01*
X18707648Y63830218D01*
X18707674Y63830236D01*
X18707698Y63830260D01*
X18728030Y63844691D01*
X18746030Y63857474D01*
X18746057Y63857487D01*
X18746086Y63857508D01*
X18769999Y63869360D01*
X18788204Y63878390D01*
X18788230Y63878398D01*
X18788264Y63878415D01*
X18813104Y63886183D01*
X18833129Y63892451D01*
X18833160Y63892455D01*
X18833193Y63892466D01*
X18858774Y63896228D01*
X18879703Y63899311D01*
X18879742Y63899312D01*
X18879768Y63899316D01*
X18879848Y63899315D01*
X18903249Y63899981D01*
X19480196Y63893732D01*
X19480344Y63893724D01*
X19480503Y63893729D01*
X20007674Y63887479D01*
X20007830Y63887471D01*
X20007978Y63887475D01*
X20493698Y63881225D01*
X20493847Y63881217D01*
X20493995Y63881221D01*
X20944972Y63874971D01*
X20945115Y63874963D01*
X20945261Y63874967D01*
X21366977Y63868717D01*
X21367113Y63868709D01*
X21367254Y63868713D01*
X21764249Y63862463D01*
X21764378Y63862455D01*
X21764512Y63862459D01*
X22140593Y63856209D01*
X22140727Y63856201D01*
X22140839Y63856204D01*
X22499238Y63849954D01*
X22499352Y63849947D01*
X22499466Y63849950D01*
X22842970Y63843700D01*
X22843063Y63843694D01*
X22843175Y63843697D01*
X23174208Y63837447D01*
X23174306Y63837441D01*
X23174390Y63837443D01*
X23495096Y63831193D01*
X23495174Y63831188D01*
X23495254Y63831190D01*
X23807556Y63824940D01*
X23807626Y63824935D01*
X23807686Y63824937D01*
X24113336Y63818687D01*
X24113386Y63818684D01*
X24113439Y63818685D01*
X24414057Y63812435D01*
X24414087Y63812433D01*
X24414130Y63812434D01*
X24711242Y63806184D01*
X24711265Y63806182D01*
X24711285Y63806183D01*
X25006353Y63799933D01*
X25006371Y63799931D01*
X25300786Y63793682D01*
X25300803Y63793683D01*
X25596066Y63787433D01*
X25893535Y63781184D01*
X25893551Y63781183D01*
X26194596Y63774937D01*
X26194615Y63774938D01*
X26501209Y63768688D01*
X26501227Y63768686D01*
X26814498Y63762443D01*
X26814517Y63762444D01*
X27136994Y63756194D01*
X27137008Y63756193D01*
X27469995Y63749950D01*
X27816592Y63743701D01*
X27816593Y63743700D01*
X28178560Y63737459D01*
X28178575Y63737460D01*
X28559969Y63731210D01*
X28559974Y63731209D01*
X28963599Y63724964D01*
X28963603Y63724963D01*
X29393680Y63718722D01*
X29393697Y63718723D01*
X29856175Y63712474D01*
X30356855Y63706227D01*
X30356869Y63706226D01*
X30903428Y63699980D01*
X30926795Y63698793D01*
X30926883Y63698793D01*
X30926911Y63698788D01*
X30926953Y63698786D01*
X30948906Y63695051D01*
X30973294Y63690909D01*
X30973326Y63690898D01*
X30973362Y63690892D01*
X30995414Y63683446D01*
X31017899Y63675862D01*
X31017931Y63675844D01*
X31017964Y63675834D01*
X31039649Y63664470D01*
X31059602Y63654021D01*
X31059627Y63654002D01*
X31059662Y63653984D01*
X31079936Y63638896D01*
X31097374Y63625927D01*
X31097397Y63625902D01*
X31097427Y63625881D01*
X31114101Y63608820D01*
X31130288Y63592268D01*
X31130308Y63592238D01*
X31130333Y63592214D01*
X31144058Y63572861D01*
X31157530Y63553877D01*
X31157545Y63553846D01*
X31157566Y63553817D01*
X31168064Y63532616D01*
X31178431Y63511695D01*
X31178441Y63511661D01*
X31178457Y63511630D01*
X31185747Y63488289D01*
X31192476Y63466764D01*
X31192480Y63466732D01*
X31192492Y63466696D01*
X31196127Y63441913D01*
X31199319Y63420189D01*
X31199320Y63420144D01*
X31199324Y63420119D01*
X31199323Y63420042D01*
X31199980Y63396642D01*
X31193731Y62838425D01*
X31193722Y62838262D01*
X31193727Y62838106D01*
X31187476Y62328069D01*
X31187467Y62327912D01*
X31187472Y62327757D01*
X31181223Y61857843D01*
X31181215Y61857692D01*
X31181219Y61857535D01*
X31174969Y61421252D01*
X31174961Y61421108D01*
X31174965Y61420953D01*
X31168714Y61012997D01*
X31168705Y61012848D01*
X31168709Y61012712D01*
X31162460Y60628690D01*
X31162452Y60628560D01*
X31162456Y60628417D01*
X31156205Y60264645D01*
X31156197Y60264511D01*
X31156200Y60264392D01*
X31149951Y59917742D01*
X31149944Y59917628D01*
X31149947Y59917506D01*
X31143697Y59585284D01*
X31143690Y59585178D01*
X31143693Y59585070D01*
X31137442Y59264929D01*
X31137436Y59264831D01*
X31137438Y59264742D01*
X31131189Y58954608D01*
X31131184Y58954530D01*
X31131186Y58954444D01*
X31124935Y58652455D01*
X31124930Y58652385D01*
X31124932Y58652322D01*
X31118683Y58356788D01*
X31118679Y58356737D01*
X31118681Y58356680D01*
X31112431Y58066031D01*
X31112428Y58065988D01*
X31112429Y58065954D01*
X31106178Y57778715D01*
X31106176Y57778692D01*
X31106177Y57778671D01*
X31099998Y57496634D01*
X31093749Y46215206D01*
X31093621Y46212005D01*
X31093677Y46208804D01*
X31087429Y45923463D01*
X31081180Y45636001D01*
X31081181Y45635993D01*
X31074932Y45344956D01*
X31068685Y45048819D01*
X31068686Y45048817D01*
X31062438Y44745962D01*
X31062439Y44745950D01*
X31056193Y44434564D01*
X31056194Y44434561D01*
X31049948Y44112673D01*
X31043697Y43777810D01*
X31037456Y43428162D01*
X31037457Y43428154D01*
X31031210Y43060021D01*
X31031211Y43060016D01*
X31024962Y42669873D01*
X31018720Y42254499D01*
X31018721Y42254490D01*
X31012474Y41807997D01*
X31006229Y41324607D01*
X30999978Y40796451D01*
X30998781Y40773080D01*
X30998781Y40773001D01*
X30998776Y40772975D01*
X30998774Y40772925D01*
X30994690Y40748976D01*
X30990879Y40726593D01*
X30990867Y40726560D01*
X30990861Y40726520D01*
X30982734Y40702481D01*
X30975814Y40681993D01*
X30975798Y40681963D01*
X30975785Y40681924D01*
X30964274Y40659980D01*
X30953958Y40640299D01*
X30953936Y40640270D01*
X30953918Y40640235D01*
X30939792Y40621270D01*
X30925849Y40602538D01*
X30925821Y40602511D01*
X30925799Y40602481D01*
X30908455Y40585544D01*
X30892178Y40569638D01*
X30892149Y40569618D01*
X30892120Y40569589D01*
X30871897Y40555260D01*
X30853776Y40542411D01*
X30853742Y40542395D01*
X30853711Y40542372D01*
X30832344Y40531802D01*
X30811586Y40521526D01*
X30811549Y40521515D01*
X30811516Y40521498D01*
X30790158Y40514837D01*
X30766649Y40507498D01*
X30766608Y40507493D01*
X30766576Y40507482D01*
X30744701Y40504283D01*
X30720071Y40500673D01*
X30720020Y40500672D01*
X30719996Y40500668D01*
X30719922Y40500669D01*
X30696524Y40500021D01*
X30157039Y40506270D01*
X30156874Y40506279D01*
X30156711Y40506274D01*
X29663806Y40512524D01*
X29663647Y40512533D01*
X29663481Y40512528D01*
X29209373Y40518778D01*
X29209208Y40518787D01*
X29209055Y40518783D01*
X28787466Y40525033D01*
X28787308Y40525042D01*
X28787158Y40525038D01*
X28392961Y40531288D01*
X28392811Y40531297D01*
X28392665Y40531293D01*
X28021616Y40537543D01*
X28021486Y40537551D01*
X28021335Y40537547D01*
X27669873Y40543797D01*
X27669738Y40543805D01*
X27669609Y40543802D01*
X27334708Y40550052D01*
X27334581Y40550060D01*
X27334465Y40550057D01*
X27013525Y40556307D01*
X27013419Y40556314D01*
X27013304Y40556311D01*
X26704054Y40562561D01*
X26703956Y40562567D01*
X26703858Y40562565D01*
X26404296Y40568815D01*
X26404206Y40568821D01*
X26404127Y40568819D01*
X26112455Y40575069D01*
X26112385Y40575074D01*
X26112314Y40575072D01*
X25826894Y40581322D01*
X25826844Y40581326D01*
X25826784Y40581324D01*
X25546104Y40587574D01*
X25546061Y40587577D01*
X25546024Y40587576D01*
X25268659Y40593826D01*
X25268636Y40593828D01*
X25268611Y40593827D01*
X24993194Y40600077D01*
X24993178Y40600079D01*
X24718409Y40606328D01*
X24718393Y40606327D01*
X24442876Y40612577D01*
X24442873Y40612578D01*
X24165433Y40618825D01*
X24165429Y40618824D01*
X23884394Y40625074D01*
X23884382Y40625075D01*
X23598713Y40631319D01*
X23598692Y40631318D01*
X23306225Y40637568D01*
X23306209Y40637570D01*
X23005708Y40643815D01*
X23005706Y40643816D01*
X22695323Y40650057D01*
X22695313Y40650056D01*
X22372456Y40656302D01*
X22372453Y40656301D01*
X22034776Y40662548D01*
X21679561Y40668794D01*
X21303500Y40675039D01*
X20902345Y40681286D01*
X20902329Y40681287D01*
X20471996Y40687528D01*
X20471991Y40687527D01*
X20005408Y40693777D01*
X20005405Y40693778D01*
X19496319Y40700024D01*
X19472947Y40701230D01*
X19472874Y40701230D01*
X19472850Y40701235D01*
X19472794Y40701237D01*
X19447763Y40705517D01*
X19426470Y40709152D01*
X19426437Y40709164D01*
X19426392Y40709171D01*
X19401740Y40717517D01*
X19381877Y40724235D01*
X19381846Y40724252D01*
X19381803Y40724266D01*
X19360259Y40735579D01*
X19340191Y40746109D01*
X19340158Y40746134D01*
X19340123Y40746152D01*
X19322002Y40759662D01*
X19302442Y40774234D01*
X19302413Y40774265D01*
X19302382Y40774287D01*
X19287120Y40789929D01*
X19269556Y40807919D01*
X19269531Y40807955D01*
X19269505Y40807981D01*
X19255988Y40827074D01*
X19242345Y40846333D01*
X19242329Y40846367D01*
X19242304Y40846401D01*
X19231294Y40868683D01*
X19221478Y40888531D01*
X19221467Y40888568D01*
X19221448Y40888605D01*
X19214637Y40910479D01*
X19207469Y40933473D01*
X19207463Y40933518D01*
X19207452Y40933551D01*
X19204355Y40954793D01*
X19200664Y40980054D01*
X19200663Y40980111D01*
X19200659Y40980134D01*
X19200660Y40980206D01*
X19200022Y41003602D01*
X19206273Y41524357D01*
X19206282Y41524524D01*
X19206277Y41524696D01*
X19212526Y42000466D01*
X19212536Y42000640D01*
X19212531Y42000804D01*
X19218782Y42439107D01*
X19218791Y42439260D01*
X19218786Y42439435D01*
X19225035Y42846329D01*
X19225044Y42846489D01*
X19225040Y42846650D01*
X19231290Y43227086D01*
X19231300Y43227250D01*
X19231296Y43227394D01*
X19237547Y43585470D01*
X19237556Y43585613D01*
X19237552Y43585760D01*
X19243801Y43924913D01*
X19243809Y43925048D01*
X19243806Y43925188D01*
X19250057Y44248339D01*
X19250065Y44248465D01*
X19250062Y44248590D01*
X19256311Y44558249D01*
X19256319Y44558368D01*
X19256316Y44558479D01*
X19262566Y44856836D01*
X19262572Y44856934D01*
X19262570Y44857041D01*
X19268821Y45146031D01*
X19268827Y45146121D01*
X19268825Y45146204D01*
X19275074Y45427562D01*
X19275079Y45427633D01*
X19275077Y45427711D01*
X19281328Y45703015D01*
X19281332Y45703077D01*
X19281331Y45703128D01*
X19287580Y45973839D01*
X19287583Y45973882D01*
X19287582Y45973924D01*
X19293832Y46241416D01*
X19293834Y46241439D01*
X19293833Y46241467D01*
X19300003Y46503614D01*
X19306250Y57765144D01*
X19306388Y57768588D01*
X19306333Y57772034D01*
X19312584Y58037680D01*
X19312585Y58037687D01*
X19318832Y58305236D01*
X19325080Y58576072D01*
X19331328Y58851603D01*
X19331329Y58851612D01*
X19337574Y59133344D01*
X19343816Y59422753D01*
X19350065Y59722299D01*
X19356310Y60033426D01*
X19356311Y60033426D01*
X19362556Y60358712D01*
X19362557Y60358717D01*
X19368800Y60700901D01*
X19368801Y60700906D01*
X19375040Y61062900D01*
X19381289Y61449502D01*
X19381290Y61449502D01*
X19387534Y61864371D01*
X19393775Y62313124D01*
X19400024Y62803819D01*
X19401240Y62827169D01*
X19401241Y62827258D01*
X19401247Y62827287D01*
X19401249Y62827344D01*
X19405729Y62853476D01*
X19409183Y62873658D01*
X19409197Y62873697D01*
X19409204Y62873742D01*
X19416872Y62896356D01*
X19424286Y62918245D01*
X19424307Y62918283D01*
X19424320Y62918324D01*
X19435619Y62939819D01*
X19446179Y62959921D01*
X19446205Y62959955D01*
X19446225Y62959994D01*
X19460231Y62978763D01*
X19474321Y62997657D01*
X19474353Y62997687D01*
X19474378Y62997722D01*
X19491275Y63014193D01*
X19508020Y63030528D01*
X19508055Y63030552D01*
X19508087Y63030584D01*
X19528767Y63045210D01*
X19546446Y63057722D01*
X19546481Y63057738D01*
X19546520Y63057767D01*
X19570356Y63069531D01*
X19588654Y63078570D01*
X19588690Y63078581D01*
X19588734Y63078603D01*
X19612624Y63086030D01*
X19633602Y63092559D01*
X19633646Y63092565D01*
X19633686Y63092578D01*
X19657399Y63096024D01*
X19680186Y63099344D01*
X19680241Y63099345D01*
X19680272Y63099350D01*
X19680366Y63099348D01*
X19703734Y63099976D01*
X20205759Y63093727D01*
X20205941Y63093717D01*
X20206113Y63093722D01*
X20664749Y63087472D01*
X20664924Y63087462D01*
X20665098Y63087467D01*
X21087596Y63081217D01*
X21087764Y63081207D01*
X21087939Y63081212D01*
X21480138Y63074962D01*
X21480311Y63074952D01*
X21480471Y63074956D01*
X21847146Y63068706D01*
X21847298Y63068697D01*
X21847465Y63068701D01*
X22192569Y63062451D01*
X22192726Y63062442D01*
X22192872Y63062445D01*
X22519715Y63056195D01*
X22519850Y63056187D01*
X22519999Y63056190D01*
X22831399Y63049940D01*
X22831539Y63049931D01*
X22831662Y63049934D01*
X23130039Y63043684D01*
X23130158Y63043676D01*
X23130278Y63043679D01*
X23417743Y63037429D01*
X23417853Y63037422D01*
X23417955Y63037424D01*
X23696374Y63031174D01*
X23696464Y63031168D01*
X23696557Y63031170D01*
X23967599Y63024920D01*
X23967668Y63024915D01*
X23967751Y63024917D01*
X24232941Y63018667D01*
X24233003Y63018663D01*
X24233061Y63018664D01*
X24493803Y63012414D01*
X24493846Y63012411D01*
X24493890Y63012412D01*
X24751510Y63006162D01*
X24751546Y63006159D01*
X24751563Y63006160D01*
X25007328Y62999910D01*
X25020423Y62999075D01*
X25023538Y62999075D01*
X25025636Y62998742D01*
X25030837Y62998411D01*
X25050396Y62994821D01*
X25070034Y62991711D01*
X25073527Y62990575D01*
X25077139Y62989913D01*
X25095891Y62983309D01*
X25114805Y62977164D01*
X25118077Y62975496D01*
X25121541Y62974277D01*
X25139026Y62964822D01*
X25156750Y62955792D01*
X25159723Y62953631D01*
X25162952Y62951886D01*
X25178734Y62939819D01*
X25194834Y62928122D01*
X25197434Y62925521D01*
X25200348Y62923294D01*
X25214044Y62908911D01*
X25228122Y62894834D01*
X25230282Y62891859D01*
X25232813Y62889203D01*
X25244095Y62872849D01*
X25255792Y62856750D01*
X25257460Y62853476D01*
X25259545Y62850454D01*
X25268136Y62832521D01*
X25277164Y62814805D01*
X25278298Y62811313D01*
X25279886Y62808000D01*
X25285563Y62788953D01*
X25291711Y62770034D01*
X25292286Y62766401D01*
X25293334Y62762887D01*
X25295959Y62743206D01*
X25299075Y62723538D01*
X25299279Y62718324D01*
X25299560Y62716225D01*
X25299484Y62713124D01*
X25300000Y62700000D01*
X25300000Y61800000D01*
X25299075Y61776462D01*
X25291711Y61729966D01*
X25277164Y61685195D01*
X25255792Y61643250D01*
X25228122Y61605166D01*
X25194834Y61571878D01*
X25156750Y61544208D01*
X25114805Y61522836D01*
X25070034Y61508289D01*
X25023538Y61500925D01*
X25000000Y61500000D01*
X24976462Y61500925D01*
X24929966Y61508289D01*
X24885195Y61522836D01*
X24843250Y61544208D01*
X24805166Y61571878D01*
X24771878Y61605166D01*
X24744208Y61643250D01*
X24722836Y61685195D01*
X24708289Y61729966D01*
X24700925Y61776462D01*
X24700000Y61800000D01*
X24700000Y62407234D01*
X24479338Y62412588D01*
X24479336Y62412588D01*
X24218807Y62418833D01*
X24218804Y62418833D01*
X23953615Y62425083D01*
X23953603Y62425083D01*
X23682725Y62431330D01*
X23682723Y62431330D01*
X23404708Y62437571D01*
X23404701Y62437571D01*
X23117255Y62443820D01*
X22819372Y62450060D01*
X22819359Y62450060D01*
X22507959Y62456310D01*
X22507948Y62456310D01*
X22181709Y62462549D01*
X22181704Y62462549D01*
X21836601Y62468799D01*
X21836591Y62468799D01*
X21470587Y62475038D01*
X21470578Y62475038D01*
X21078379Y62481288D01*
X21078378Y62481288D01*
X20656422Y62487530D01*
X20198296Y62493773D01*
X20198291Y62493773D01*
X19996157Y62496289D01*
X19993727Y62305484D01*
X19993718Y62305303D01*
X19993722Y62305131D01*
X19987471Y61855684D01*
X19987462Y61855512D01*
X19987466Y61855341D01*
X19981216Y61440138D01*
X19981208Y61439974D01*
X19981211Y61439805D01*
X19974962Y61053202D01*
X19974953Y61053033D01*
X19974956Y61052880D01*
X19968705Y60690257D01*
X19968697Y60690110D01*
X19968700Y60689955D01*
X19962451Y60347480D01*
X19962444Y60347341D01*
X19962446Y60347194D01*
X19956195Y60021646D01*
X19956188Y60021517D01*
X19956190Y60021385D01*
X19949940Y59710021D01*
X19949933Y59709900D01*
X19949935Y59709785D01*
X19943686Y59410239D01*
X19943680Y59410126D01*
X19943681Y59410026D01*
X19937430Y59120226D01*
X19937425Y59120135D01*
X19937426Y59120047D01*
X19931177Y58838152D01*
X19931173Y58838081D01*
X19931174Y58838000D01*
X19924923Y58562352D01*
X19924920Y58562289D01*
X19924920Y58562234D01*
X19918670Y58291314D01*
X19918668Y58291271D01*
X19918668Y58291230D01*
X19912419Y58023619D01*
X19912418Y58023595D01*
X19912418Y58023565D01*
X19906249Y57761365D01*
X19900001Y46499834D01*
X19899864Y46496389D01*
X19899918Y46492942D01*
X19893668Y46227400D01*
X19887420Y45959994D01*
X19887420Y45959993D01*
X19881174Y45689405D01*
X19881174Y45689395D01*
X19874926Y45414239D01*
X19868681Y45133060D01*
X19868681Y45133056D01*
X19862434Y44844270D01*
X19856189Y44546148D01*
X19856189Y44546143D01*
X19849945Y44236734D01*
X19843699Y43913860D01*
X19837455Y43574997D01*
X19831210Y43217246D01*
X19831210Y43217230D01*
X19824965Y42837115D01*
X19818721Y42430550D01*
X19812474Y41992591D01*
X19812474Y41992586D01*
X19806229Y41517156D01*
X19803578Y41296299D01*
X20013107Y41293727D01*
X20013272Y41293719D01*
X20013444Y41293723D01*
X20480027Y41287473D01*
X20480198Y41287465D01*
X20480359Y41287468D01*
X20911366Y41281218D01*
X20911517Y41281210D01*
X20911689Y41281214D01*
X21312986Y41274964D01*
X21313141Y41274956D01*
X21313295Y41274959D01*
X21689678Y41268709D01*
X21689825Y41268701D01*
X21689971Y41268704D01*
X22045419Y41262454D01*
X22045557Y41262447D01*
X22045694Y41262449D01*
X22383551Y41256199D01*
X22383681Y41256192D01*
X22383804Y41256194D01*
X22706916Y41249944D01*
X22707037Y41249937D01*
X22707146Y41249939D01*
X23017973Y41243689D01*
X23018073Y41243684D01*
X23018176Y41243685D01*
X23318869Y41237435D01*
X23318948Y41237431D01*
X23319045Y41237432D01*
X23611511Y41231182D01*
X23611595Y41231177D01*
X23611656Y41231178D01*
X23897619Y41224928D01*
X23897670Y41224925D01*
X23897734Y41224926D01*
X24178770Y41218676D01*
X24178814Y41218674D01*
X24178853Y41218674D01*
X24456433Y41212424D01*
X24456457Y41212423D01*
X24456484Y41212423D01*
X24732001Y41206173D01*
X24732018Y41206172D01*
X25006789Y41199923D01*
X25006806Y41199923D01*
X25282223Y41193673D01*
X25282225Y41193673D01*
X25559456Y41187426D01*
X25559462Y41187426D01*
X25840141Y41181176D01*
X25840151Y41181176D01*
X26125448Y41174929D01*
X26416802Y41168685D01*
X26416812Y41168685D01*
X26716314Y41162437D01*
X27025428Y41156189D01*
X27025435Y41156189D01*
X27345897Y41149948D01*
X27345904Y41149948D01*
X27680538Y41143703D01*
X27680541Y41143703D01*
X28032003Y41137453D01*
X28032021Y41137452D01*
X28402473Y41131212D01*
X28796357Y41124967D01*
X28796360Y41124967D01*
X29217623Y41118722D01*
X29217631Y41118722D01*
X29671739Y41112472D01*
X29671741Y41112472D01*
X30164145Y41106229D01*
X30403569Y41103456D01*
X30406271Y41331707D01*
X30406279Y41331870D01*
X30406275Y41332032D01*
X30412524Y41815748D01*
X30412532Y41815905D01*
X30412528Y41816070D01*
X30418779Y42262883D01*
X30418787Y42263045D01*
X30418784Y42263193D01*
X30425034Y42679185D01*
X30425041Y42679326D01*
X30425038Y42679483D01*
X30431287Y43069626D01*
X30431295Y43069773D01*
X30431292Y43069910D01*
X30437543Y43438332D01*
X30437550Y43438470D01*
X30437548Y43438596D01*
X30443797Y43788762D01*
X30443803Y43788879D01*
X30443801Y43789008D01*
X30450052Y44123872D01*
X30450058Y44123980D01*
X30450056Y44124093D01*
X30456306Y44446201D01*
X30456311Y44446301D01*
X30456310Y44446396D01*
X30462559Y44757981D01*
X30462564Y44758074D01*
X30462563Y44758152D01*
X30468814Y45061191D01*
X30468818Y45061262D01*
X30468817Y45061330D01*
X30475066Y45357608D01*
X30475069Y45357660D01*
X30475068Y45357722D01*
X30481319Y45648872D01*
X30481321Y45648916D01*
X30481321Y45648952D01*
X30487571Y45936501D01*
X30487572Y45936525D01*
X30487572Y45936549D01*
X30493750Y46218732D01*
X30500000Y57500166D01*
X30500127Y57503368D01*
X30500072Y57506571D01*
X30506321Y57791812D01*
X30512571Y58079008D01*
X30518819Y58369579D01*
X30518819Y58369585D01*
X30525066Y58665006D01*
X30531314Y58966861D01*
X30531314Y58966869D01*
X30537560Y59276830D01*
X30543807Y59596784D01*
X30550053Y59928792D01*
X30550053Y59928798D01*
X30556293Y60274953D01*
X30562544Y60638726D01*
X30562544Y60638737D01*
X30568784Y61022189D01*
X30575035Y61430145D01*
X30575035Y61430152D01*
X30581281Y61866129D01*
X30581281Y61866131D01*
X30587526Y62335736D01*
X30593773Y62845459D01*
X30596660Y63103447D01*
X30349684Y63106270D01*
X30349536Y63106277D01*
X30349369Y63106273D01*
X29848520Y63112523D01*
X29848365Y63112531D01*
X29848210Y63112527D01*
X29385591Y63118777D01*
X29385430Y63118785D01*
X29385291Y63118782D01*
X28954605Y63125032D01*
X28954464Y63125039D01*
X28954316Y63125036D01*
X28550412Y63131286D01*
X28550279Y63131293D01*
X28550138Y63131290D01*
X28168743Y63137540D01*
X28168606Y63137547D01*
X28168487Y63137545D01*
X27806012Y63143795D01*
X27805895Y63143801D01*
X27805775Y63143799D01*
X27459161Y63150049D01*
X27459053Y63150055D01*
X27458947Y63150053D01*
X27125557Y63156303D01*
X27125470Y63156308D01*
X27125367Y63156306D01*
X26802891Y63162556D01*
X26802798Y63162561D01*
X26802726Y63162560D01*
X26489116Y63168810D01*
X26489057Y63168813D01*
X26488980Y63168812D01*
X26182387Y63175062D01*
X26182323Y63175065D01*
X26182279Y63175065D01*
X25881012Y63181315D01*
X25880981Y63181316D01*
X25880934Y63181316D01*
X25583416Y63187566D01*
X25583392Y63187567D01*
X25583368Y63187567D01*
X25288105Y63193817D01*
X25288088Y63193818D01*
X25288087Y63193818D01*
X24993666Y63200067D01*
X24993647Y63200067D01*
X24698625Y63206316D01*
X24698623Y63206316D01*
X24401512Y63212566D01*
X24401499Y63212566D01*
X24100967Y63218815D01*
X24100965Y63218815D01*
X23795560Y63225060D01*
X23795551Y63225060D01*
X23483248Y63231310D01*
X23483247Y63231310D01*
X23162894Y63237553D01*
X23162882Y63237553D01*
X22831849Y63243803D01*
X22831831Y63243804D01*
X22488605Y63250049D01*
X22130641Y63256291D01*
X22130623Y63256291D01*
X21754542Y63262541D01*
X21754539Y63262541D01*
X21357810Y63268787D01*
X21357808Y63268787D01*
X20936379Y63275032D01*
X20485861Y63281276D01*
X20000564Y63287521D01*
X20000561Y63287521D01*
X19473391Y63293771D01*
X19473383Y63293771D01*
X19196668Y63296768D01*
X19193732Y63031067D01*
X19193725Y63030908D01*
X19193728Y63030763D01*
X19187478Y62512779D01*
X19187471Y62512626D01*
X19187474Y62512481D01*
X19181225Y62034056D01*
X19181218Y62033909D01*
X19181221Y62033764D01*
X19174970Y61588384D01*
X19174963Y61588245D01*
X19174966Y61588105D01*
X19168716Y61170440D01*
X19168709Y61170308D01*
X19168712Y61170176D01*
X19162463Y60775809D01*
X19162457Y60775684D01*
X19162459Y60775559D01*
X19156208Y60400774D01*
X19156202Y60400658D01*
X19156204Y60400546D01*
X19149955Y60042183D01*
X19149950Y60042087D01*
X19149952Y60041973D01*
X19143701Y59697301D01*
X19143696Y59697201D01*
X19143697Y59697118D01*
X19137447Y59363750D01*
X19137443Y59363670D01*
X19137444Y59363591D01*
X19131195Y59039409D01*
X19131192Y59039349D01*
X19131193Y59039275D01*
X19124942Y58722367D01*
X19124939Y58722316D01*
X19124940Y58722264D01*
X19118691Y58410882D01*
X19118689Y58410837D01*
X19118689Y58410804D01*
X19112438Y58103317D01*
X19112437Y58103293D01*
X19112437Y58103271D01*
X19106249Y57801130D01*
X19100001Y46499834D01*
X19099882Y46496844D01*
X19099938Y46493851D01*
X19093688Y46189005D01*
X19093688Y46189002D01*
X19087440Y45882086D01*
X19081192Y45571599D01*
X19081191Y45571599D01*
X19074944Y45255974D01*
X19074944Y45255961D01*
X19068697Y44933497D01*
X19068697Y44933495D01*
X19062450Y44602394D01*
X19056201Y44260469D01*
X19049957Y43906105D01*
X19049957Y43906101D01*
X19043712Y43536188D01*
X19043711Y43536188D01*
X19037465Y43148052D01*
X19031219Y42738352D01*
X19024974Y42303154D01*
X19024974Y42303153D01*
X19018727Y41837773D01*
X19018727Y41837770D01*
X19012477Y41336245D01*
X19006233Y40792531D01*
X19003131Y40496776D01*
X19287557Y40493733D01*
X19287701Y40493726D01*
X19287853Y40493730D01*
X19822969Y40487480D01*
X19823120Y40487473D01*
X19823259Y40487476D01*
X20317490Y40481226D01*
X20317635Y40481219D01*
X20317771Y40481222D01*
X20777846Y40474972D01*
X20777972Y40474966D01*
X20778117Y40474969D01*
X21209540Y40468719D01*
X21209671Y40468712D01*
X21209797Y40468715D01*
X21617139Y40462465D01*
X21617262Y40462459D01*
X21617379Y40462461D01*
X22004473Y40456211D01*
X22004589Y40456205D01*
X22004695Y40456207D01*
X22374810Y40449957D01*
X22374905Y40449952D01*
X22375011Y40449954D01*
X22730965Y40443704D01*
X22731052Y40443700D01*
X22731144Y40443701D01*
X23075403Y40437451D01*
X23075483Y40437447D01*
X23075557Y40437448D01*
X23410312Y40431198D01*
X23410384Y40431194D01*
X23410441Y40431195D01*
X23737663Y40424945D01*
X23737715Y40424942D01*
X23737765Y40424943D01*
X24059262Y40418693D01*
X24059294Y40418692D01*
X24059336Y40418692D01*
X24376793Y40412442D01*
X24376817Y40412441D01*
X24376838Y40412441D01*
X24691847Y40406191D01*
X24691852Y40406191D01*
X24691864Y40406191D01*
X25005968Y40399941D01*
X25005973Y40399941D01*
X25320628Y40393692D01*
X25320634Y40393692D01*
X25637493Y40387442D01*
X25637501Y40387442D01*
X25957880Y40381195D01*
X25957884Y40381195D01*
X26283764Y40374945D01*
X26283771Y40374945D01*
X26616421Y40368700D01*
X26616428Y40368700D01*
X26958278Y40362450D01*
X27310923Y40356203D01*
X27310929Y40356203D01*
X27676576Y40349960D01*
X27676586Y40349960D01*
X28058251Y40343714D01*
X28058257Y40343714D01*
X28458957Y40337464D01*
X28458972Y40337464D01*
X28881388Y40331221D01*
X28881392Y40331221D01*
X29330352Y40324975D01*
X29330359Y40324975D01*
X29810725Y40318725D01*
X29810734Y40318725D01*
X30327777Y40312478D01*
X30327781Y40312478D01*
X30888857Y40306232D01*
X31203124Y40303036D01*
X31206266Y40606187D01*
X31206273Y40606329D01*
X31206269Y40606473D01*
X31212518Y41158724D01*
X31212525Y41158874D01*
X31212522Y41159006D01*
X31218772Y41669042D01*
X31218778Y41669173D01*
X31218775Y41669315D01*
X31225025Y42144084D01*
X31225032Y42144221D01*
X31225029Y42144347D01*
X31231280Y42589532D01*
X31231286Y42589649D01*
X31231283Y42589780D01*
X31237533Y43010094D01*
X31237539Y43010217D01*
X31237537Y43010328D01*
X31243787Y43409731D01*
X31243792Y43409833D01*
X31243790Y43409946D01*
X31250040Y43791811D01*
X31250045Y43791906D01*
X31250043Y43792006D01*
X31256292Y44159241D01*
X31256296Y44159329D01*
X31256295Y44159416D01*
X31262546Y44514567D01*
X31262550Y44514647D01*
X31262549Y44514717D01*
X31268799Y44860043D01*
X31268802Y44860102D01*
X31268801Y44860168D01*
X31275051Y45197706D01*
X31275053Y45197758D01*
X31275053Y45197805D01*
X31281303Y45529417D01*
X31281305Y45529462D01*
X31281305Y45529489D01*
X31287554Y45856913D01*
X31287555Y45856938D01*
X31287555Y45856959D01*
X31293752Y46179081D01*
X31300000Y52000322D01*
X31306250Y57824866D01*
X31306359Y57827579D01*
X31306305Y57830282D01*
X31312555Y58157012D01*
X31312555Y58157018D01*
X31318803Y58487469D01*
X31325052Y58823374D01*
X31325052Y58823377D01*
X31331300Y59166503D01*
X31337547Y59518782D01*
X31343794Y59882326D01*
X31343794Y59882328D01*
X31350040Y60259488D01*
X31350040Y60259494D01*
X31356284Y60652710D01*
X31362534Y61065719D01*
X31362534Y61065729D01*
X31368777Y61501143D01*
X31375027Y61964141D01*
X31375027Y61964148D01*
X31381273Y62458938D01*
X31381273Y62458941D01*
X31387520Y62991806D01*
X31393768Y63570102D01*
X31397053Y63903029D01*
X31075175Y63906265D01*
X31075035Y63906271D01*
X31074897Y63906268D01*
X30505513Y63912518D01*
X30505378Y63912524D01*
X30505240Y63912521D01*
X29979399Y63918771D01*
X29979269Y63918777D01*
X29979134Y63918774D01*
X29489671Y63925024D01*
X29489535Y63925031D01*
X29489416Y63925028D01*
X29030470Y63931278D01*
X29030354Y63931284D01*
X29030228Y63931281D01*
X28596941Y63937531D01*
X28596819Y63937537D01*
X28596714Y63937535D01*
X28185002Y63943785D01*
X28184900Y63943790D01*
X28184793Y63943788D01*
X27791178Y63950038D01*
X27791084Y63950043D01*
X27790989Y63950041D01*
X27412471Y63956291D01*
X27412384Y63956295D01*
X27412302Y63956294D01*
X27046259Y63962544D01*
X27046193Y63962547D01*
X27046114Y63962546D01*
X26690215Y63968796D01*
X26690156Y63968799D01*
X26690094Y63968798D01*
X26342242Y63975048D01*
X26342190Y63975050D01*
X26342145Y63975050D01*
X26000417Y63981300D01*
X26000385Y63981301D01*
X26000347Y63981301D01*
X25662954Y63987551D01*
X25662929Y63987552D01*
X25662910Y63987552D01*
X25328155Y63993802D01*
X25328137Y63993803D01*
X24994383Y64000053D01*
X24979360Y64000925D01*
X24976462Y64000925D01*
X24974786Y64001190D01*
X24970867Y64001418D01*
X24950442Y64005046D01*
X24929966Y64008289D01*
X24927291Y64009158D01*
X24924517Y64009651D01*
X24904912Y64016429D01*
X24885195Y64022836D01*
X24882687Y64024114D01*
X24880026Y64025034D01*
X24861733Y64034790D01*
X24843250Y64044208D01*
X24840972Y64045863D01*
X24838488Y64047188D01*
X24821946Y64059686D01*
X24805166Y64071878D01*
X24803175Y64073869D01*
X24800929Y64075566D01*
X24786540Y64090504D01*
X24771878Y64105166D01*
X24770225Y64107442D01*
X24768270Y64109471D01*
X24756397Y64126474D01*
X24744208Y64143250D01*
X24742930Y64145759D01*
X24741318Y64148067D01*
X24732250Y64166720D01*
X24722836Y64185195D01*
X24721967Y64187870D01*
X24720735Y64190404D01*
X24714697Y64210247D01*
X24708289Y64229966D01*
X24707849Y64232747D01*
X24707029Y64235440D01*
X24704171Y64255970D01*
X24700925Y64276462D01*
X24700771Y64280387D01*
X24700537Y64282066D01*
X24700592Y64284957D01*
X24700000Y64300000D01*
X24700000Y65293655D01*
X24623212Y65290871D01*
X24435076Y65279492D01*
X24247269Y65263571D01*
X24059956Y65243123D01*
X23873107Y65218145D01*
X23686999Y65188672D01*
X23501602Y65154700D01*
X23317104Y65116265D01*
X23133544Y65073373D01*
X22951163Y65026082D01*
X22769932Y64974385D01*
X22589957Y64918310D01*
X22411440Y64857921D01*
X22231020Y64791988D01*
X22208594Y64784777D01*
X22162395Y64775735D01*
X22115351Y64774031D01*
X22068618Y64779707D01*
X22023351Y64792624D01*
X21980659Y64812464D01*
X21941598Y64838737D01*
X21907127Y64870798D01*
X21878097Y64907855D01*
X21855221Y64948999D01*
X21839062Y64993215D01*
X21830020Y65039414D01*
X21828316Y65086458D01*
X21833992Y65133191D01*
X21846909Y65178458D01*
X21866749Y65221150D01*
X21893022Y65260211D01*
X21925083Y65294682D01*
X21962140Y65323712D01*
X22003284Y65346588D01*
X22025074Y65355536D01*
X22208900Y65422714D01*
X22212357Y65423825D01*
X22215740Y65425120D01*
X22401135Y65487836D01*
X22404603Y65488859D01*
X22408028Y65490076D01*
X22594884Y65548295D01*
X22598390Y65549237D01*
X22601830Y65550367D01*
X22790039Y65604055D01*
X22793565Y65604912D01*
X22797034Y65605959D01*
X22986484Y65655083D01*
X22990016Y65655852D01*
X22993521Y65656818D01*
X23184103Y65701351D01*
X23187667Y65702037D01*
X23191182Y65702915D01*
X23382785Y65742830D01*
X23386364Y65743429D01*
X23389897Y65744222D01*
X23582408Y65779497D01*
X23586005Y65780011D01*
X23589554Y65780717D01*
X23782861Y65811330D01*
X23786453Y65811754D01*
X23790035Y65812378D01*
X23984025Y65838311D01*
X23987645Y65838650D01*
X23991220Y65839184D01*
X24185780Y65860423D01*
X24189389Y65860674D01*
X24192995Y65861123D01*
X24388011Y65877655D01*
X24391633Y65877819D01*
X24395240Y65878180D01*
X24590599Y65889996D01*
X24594228Y65890072D01*
X24597840Y65890346D01*
X24793429Y65897438D01*
X24797057Y65897427D01*
X24800674Y65897613D01*
X24996375Y65899978D01*
X25019922Y65899338D01*
G37*
%TD.AperFunction*%
%TD*%
D11*
%TO.P,J1,1*%
%TO.N,/VIN_RAW*%
X22500000Y97000000D03*
D12*
%TO.P,J1,2*%
%TO.N,/PGND*%
X27500000Y97000000D03*
%TD*%
D11*
%TO.P,J2,1*%
%TO.N,/+5V_ISO*%
X27500000Y8000000D03*
D12*
%TO.P,J2,2*%
%TO.N,/GND_ISO*%
X22500000Y8000000D03*
%TD*%
D13*
%TO.P,T1,1*%
%TO.N,/VIN*%
X27871953Y65073763D03*
%TO.P,T1,2*%
%TO.N,/SW*%
X22128047Y65073763D03*
%TO.P,T1,3*%
%TO.N,/GND_ISO*%
X23540116Y38532645D03*
%TO.P,T1,4*%
%TO.N,/SEC_A*%
X25775000Y42270417D03*
%TO.P,T1,5*%
%TO.N,unconnected-(T1-P_MID-Pad5)*%
X25000000Y61800000D03*
%TD*%
D14*
%TO.N,/GND_ISO*%
X37000000Y9000000D03*
D15*
X13200000Y18500000D03*
D14*
X36000000Y25000000D03*
X17000000Y25000000D03*
D15*
X34000000Y17037500D03*
D14*
X12000000Y22000000D03*
X16000000Y7000000D03*
X19000000Y29000000D03*
X36000000Y29000000D03*
X32000000Y7000000D03*
D15*
X22269595Y30500000D03*
D14*
X24000000Y22000000D03*
X25000000Y5500000D03*
X20500000Y14200000D03*
D16*
X33200000Y23000000D03*
D14*
X36000000Y14000000D03*
X17000000Y14000000D03*
X25000000Y11000000D03*
X12000000Y29000000D03*
D15*
X32975000Y25880000D03*
X23169595Y30500000D03*
D14*
X15000000Y29000000D03*
D15*
X23200000Y18500000D03*
D14*
X32000000Y14000000D03*
X37500000Y22000000D03*
X12000000Y14000000D03*
%TO.N,/PGND*%
X29000000Y79475000D03*
X39000000Y79000000D03*
X24000000Y84500000D03*
X10000000Y85000000D03*
X9500000Y82000000D03*
X10725000Y78800000D03*
X10500000Y73600000D03*
X40000000Y83000000D03*
X15700000Y78550000D03*
X17300000Y77450000D03*
X9500000Y73000000D03*
X9500000Y97000000D03*
X15700000Y77450000D03*
X9500000Y94000000D03*
X25000000Y87000000D03*
X19325000Y86000000D03*
X39200000Y88000000D03*
X17300000Y78550000D03*
X39500000Y95000000D03*
X37000000Y74000000D03*
X13898500Y76095000D03*
X11500000Y83500000D03*
X22475000Y79200000D03*
X38000000Y83000000D03*
X39000000Y74000000D03*
X9025000Y76365000D03*
X28000000Y83000000D03*
X16000000Y74500000D03*
D16*
X17400000Y74350000D03*
D15*
%TO.N,/SEC_A*%
X26450000Y29862000D03*
X25550000Y29862000D03*
D17*
%TO.N,/VIN*%
X13000000Y90150000D03*
D14*
X14675000Y86000000D03*
D17*
X29000000Y76525000D03*
X11975000Y76365000D03*
%TD*%
%TA.AperFunction,Conductor*%
%TO.N,/PGND*%
G36*
X40959191Y98981093D02*
G01*
X40995155Y98931593D01*
X41000000Y98901000D01*
X41000000Y72599000D01*
X40981093Y72540809D01*
X40931593Y72504845D01*
X40901000Y72500000D01*
X8599000Y72500000D01*
X8540809Y72518907D01*
X8504845Y72568407D01*
X8500000Y72599000D01*
X8500000Y76429069D01*
X11324500Y76429069D01*
X11324500Y76300931D01*
X11341220Y76216875D01*
X11349499Y76175258D01*
X11349500Y76175253D01*
X11398534Y76056875D01*
X11398538Y76056867D01*
X11423354Y76019728D01*
X11469724Y75950331D01*
X11560331Y75859724D01*
X11623848Y75817283D01*
X11666866Y75788539D01*
X11666870Y75788537D01*
X11666873Y75788535D01*
X11785256Y75739499D01*
X11910931Y75714500D01*
X11910932Y75714500D01*
X12039068Y75714500D01*
X12039069Y75714500D01*
X12164744Y75739499D01*
X12283127Y75788535D01*
X12389669Y75859724D01*
X12480276Y75950331D01*
X12551465Y76056873D01*
X12600501Y76175256D01*
X12625500Y76300931D01*
X12625500Y76429069D01*
X12600501Y76554744D01*
X12586283Y76589070D01*
X28349500Y76589070D01*
X28349500Y76460931D01*
X28374499Y76335258D01*
X28374500Y76335253D01*
X28423534Y76216875D01*
X28423538Y76216867D01*
X28466365Y76152774D01*
X28494724Y76110331D01*
X28585331Y76019724D01*
X28648848Y75977283D01*
X28691866Y75948539D01*
X28691870Y75948537D01*
X28691873Y75948535D01*
X28810256Y75899499D01*
X28935931Y75874500D01*
X28935932Y75874500D01*
X29064068Y75874500D01*
X29064069Y75874500D01*
X29189744Y75899499D01*
X29308127Y75948535D01*
X29414669Y76019724D01*
X29505276Y76110331D01*
X29576465Y76216873D01*
X29625501Y76335256D01*
X29650500Y76460931D01*
X29650500Y76589069D01*
X29625501Y76714744D01*
X29576465Y76833127D01*
X29576463Y76833130D01*
X29576461Y76833134D01*
X29547717Y76876152D01*
X29505276Y76939669D01*
X29414669Y77030276D01*
X29372226Y77058635D01*
X29308133Y77101462D01*
X29308125Y77101466D01*
X29189747Y77150500D01*
X29189745Y77150501D01*
X29189744Y77150501D01*
X29064069Y77175500D01*
X28935931Y77175500D01*
X28935930Y77175500D01*
X28873093Y77163001D01*
X28810256Y77150501D01*
X28810255Y77150501D01*
X28810252Y77150500D01*
X28691874Y77101466D01*
X28691866Y77101462D01*
X28585331Y77030276D01*
X28585327Y77030273D01*
X28494727Y76939673D01*
X28494724Y76939669D01*
X28423538Y76833134D01*
X28423534Y76833126D01*
X28374500Y76714748D01*
X28374499Y76714745D01*
X28374499Y76714744D01*
X28361999Y76651907D01*
X28349500Y76589070D01*
X12586283Y76589070D01*
X12551465Y76673127D01*
X12551463Y76673130D01*
X12551461Y76673134D01*
X12522717Y76716152D01*
X12480276Y76779669D01*
X12389669Y76870276D01*
X12347226Y76898635D01*
X12283133Y76941462D01*
X12283125Y76941466D01*
X12164747Y76990500D01*
X12164745Y76990501D01*
X12164744Y76990501D01*
X12039069Y77015500D01*
X11910931Y77015500D01*
X11910930Y77015500D01*
X11848093Y77003001D01*
X11785256Y76990501D01*
X11785255Y76990501D01*
X11785252Y76990500D01*
X11666874Y76941466D01*
X11666866Y76941462D01*
X11560331Y76870276D01*
X11560327Y76870273D01*
X11469727Y76779673D01*
X11469724Y76779669D01*
X11398538Y76673134D01*
X11398534Y76673126D01*
X11349500Y76554748D01*
X11349499Y76554745D01*
X11349499Y76554744D01*
X11324500Y76429069D01*
X8500000Y76429069D01*
X8500000Y86072475D01*
X14124500Y86072475D01*
X14124500Y85927526D01*
X14162017Y85787511D01*
X14234487Y85661990D01*
X14234489Y85661988D01*
X14234491Y85661985D01*
X14336985Y85559491D01*
X14336987Y85559490D01*
X14336989Y85559488D01*
X14462511Y85487018D01*
X14462512Y85487018D01*
X14462515Y85487016D01*
X14602525Y85449500D01*
X14602526Y85449500D01*
X14747474Y85449500D01*
X14747475Y85449500D01*
X14887485Y85487016D01*
X14887487Y85487018D01*
X14887489Y85487018D01*
X15013010Y85559488D01*
X15013010Y85559489D01*
X15013015Y85559491D01*
X15115509Y85661985D01*
X15187984Y85787515D01*
X15225500Y85927525D01*
X15225500Y86072475D01*
X15187984Y86212485D01*
X15187982Y86212488D01*
X15187982Y86212490D01*
X15115512Y86338011D01*
X15115510Y86338013D01*
X15115509Y86338015D01*
X15013015Y86440509D01*
X15013012Y86440511D01*
X15013010Y86440513D01*
X14887488Y86512983D01*
X14887489Y86512983D01*
X14857896Y86520913D01*
X14747475Y86550500D01*
X14602525Y86550500D01*
X14540790Y86533959D01*
X14462510Y86512983D01*
X14336989Y86440513D01*
X14234487Y86338011D01*
X14162017Y86212490D01*
X14124500Y86072475D01*
X8500000Y86072475D01*
X8500000Y90214070D01*
X12349500Y90214070D01*
X12349500Y90085931D01*
X12374499Y89960258D01*
X12374500Y89960253D01*
X12423534Y89841875D01*
X12423538Y89841867D01*
X12466365Y89777774D01*
X12494724Y89735331D01*
X12585331Y89644724D01*
X12648848Y89602283D01*
X12691866Y89573539D01*
X12691870Y89573537D01*
X12691873Y89573535D01*
X12810256Y89524499D01*
X12935931Y89499500D01*
X12935932Y89499500D01*
X13064068Y89499500D01*
X13064069Y89499500D01*
X13189744Y89524499D01*
X13308127Y89573535D01*
X13414669Y89644724D01*
X13505276Y89735331D01*
X13576465Y89841873D01*
X13625501Y89960256D01*
X13650500Y90085931D01*
X13650500Y90214069D01*
X13625501Y90339744D01*
X13576465Y90458127D01*
X13576463Y90458130D01*
X13576461Y90458134D01*
X13547717Y90501152D01*
X13505276Y90564669D01*
X13414669Y90655276D01*
X13372226Y90683635D01*
X13308133Y90726462D01*
X13308125Y90726466D01*
X13189747Y90775500D01*
X13189745Y90775501D01*
X13189744Y90775501D01*
X13064069Y90800500D01*
X12935931Y90800500D01*
X12935930Y90800500D01*
X12873093Y90788001D01*
X12810256Y90775501D01*
X12810255Y90775501D01*
X12810252Y90775500D01*
X12691874Y90726466D01*
X12691866Y90726462D01*
X12585331Y90655276D01*
X12585327Y90655273D01*
X12494727Y90564673D01*
X12494724Y90564669D01*
X12423538Y90458134D01*
X12423534Y90458126D01*
X12374500Y90339748D01*
X12374499Y90339743D01*
X12349500Y90214070D01*
X8500000Y90214070D01*
X8500000Y98224673D01*
X21049500Y98224673D01*
X21049500Y95775328D01*
X21049501Y95775316D01*
X21064033Y95702264D01*
X21064035Y95702258D01*
X21119397Y95619401D01*
X21119399Y95619399D01*
X21202260Y95564034D01*
X21257808Y95552985D01*
X21275315Y95549502D01*
X21275320Y95549502D01*
X21275326Y95549500D01*
X21275327Y95549500D01*
X23724673Y95549500D01*
X23724674Y95549500D01*
X23797740Y95564034D01*
X23880601Y95619399D01*
X23935966Y95702260D01*
X23950500Y95775326D01*
X23950500Y97118057D01*
X26000000Y97118057D01*
X26000000Y96881944D01*
X26036934Y96648748D01*
X26036935Y96648744D01*
X26109892Y96424207D01*
X26109894Y96424204D01*
X26217084Y96213831D01*
X26277339Y96130895D01*
X26898957Y96752514D01*
X26923978Y96692110D01*
X26995112Y96585649D01*
X27085649Y96495112D01*
X27192110Y96423978D01*
X27252511Y96398959D01*
X26630893Y95777341D01*
X26713825Y95717087D01*
X26713829Y95717085D01*
X26924203Y95609895D01*
X26924206Y95609893D01*
X27148743Y95536936D01*
X27148747Y95536935D01*
X27381944Y95500000D01*
X27618056Y95500000D01*
X27851252Y95536935D01*
X27851256Y95536936D01*
X28075793Y95609893D01*
X28075796Y95609895D01*
X28286170Y95717085D01*
X28286176Y95717089D01*
X28369105Y95777341D01*
X28369105Y95777342D01*
X27747488Y96398959D01*
X27807890Y96423978D01*
X27914351Y96495112D01*
X28004888Y96585649D01*
X28076022Y96692110D01*
X28101041Y96752512D01*
X28722658Y96130895D01*
X28722659Y96130895D01*
X28782911Y96213824D01*
X28782915Y96213830D01*
X28890105Y96424204D01*
X28890107Y96424207D01*
X28963064Y96648744D01*
X28963065Y96648748D01*
X29000000Y96881944D01*
X29000000Y97118057D01*
X28963065Y97351253D01*
X28963064Y97351257D01*
X28890107Y97575794D01*
X28890105Y97575797D01*
X28782915Y97786171D01*
X28782913Y97786175D01*
X28722659Y97869107D01*
X28101041Y97247489D01*
X28076022Y97307890D01*
X28004888Y97414351D01*
X27914351Y97504888D01*
X27807890Y97576022D01*
X27747486Y97601043D01*
X28369105Y98222661D01*
X28286169Y98282916D01*
X28075796Y98390106D01*
X28075793Y98390108D01*
X27851256Y98463065D01*
X27851252Y98463066D01*
X27618056Y98500000D01*
X27381944Y98500000D01*
X27148747Y98463066D01*
X27148743Y98463065D01*
X26924206Y98390108D01*
X26924203Y98390106D01*
X26713823Y98282912D01*
X26630893Y98222661D01*
X27252512Y97601042D01*
X27192110Y97576022D01*
X27085649Y97504888D01*
X26995112Y97414351D01*
X26923978Y97307890D01*
X26898958Y97247488D01*
X26277339Y97869107D01*
X26217088Y97786177D01*
X26109894Y97575797D01*
X26109892Y97575794D01*
X26036935Y97351257D01*
X26036934Y97351253D01*
X26000000Y97118057D01*
X23950500Y97118057D01*
X23950500Y98224674D01*
X23935966Y98297740D01*
X23880601Y98380601D01*
X23880599Y98380603D01*
X23797742Y98435965D01*
X23797740Y98435966D01*
X23797737Y98435967D01*
X23797736Y98435967D01*
X23724684Y98450499D01*
X23724674Y98450500D01*
X21275326Y98450500D01*
X21275325Y98450500D01*
X21275315Y98450499D01*
X21202263Y98435967D01*
X21202257Y98435965D01*
X21119400Y98380603D01*
X21119397Y98380600D01*
X21064035Y98297743D01*
X21064033Y98297737D01*
X21049501Y98224685D01*
X21049500Y98224673D01*
X8500000Y98224673D01*
X8500000Y98901000D01*
X8518907Y98959191D01*
X8568407Y98995155D01*
X8599000Y99000000D01*
X40901000Y99000000D01*
X40959191Y98981093D01*
G37*
%TD.AperFunction*%
%TD*%
%TA.AperFunction,Conductor*%
%TO.N,/GND_ISO*%
G36*
X38959191Y30981093D02*
G01*
X38995155Y30931593D01*
X39000000Y30901000D01*
X39000000Y5099000D01*
X38981093Y5040809D01*
X38931593Y5004845D01*
X38901000Y5000000D01*
X11099000Y5000000D01*
X11040809Y5018907D01*
X11004845Y5068407D01*
X11000000Y5099000D01*
X11000000Y8118057D01*
X21000000Y8118057D01*
X21000000Y7881944D01*
X21036934Y7648748D01*
X21036935Y7648744D01*
X21109892Y7424207D01*
X21109894Y7424204D01*
X21217084Y7213831D01*
X21277339Y7130895D01*
X21898957Y7752514D01*
X21923978Y7692110D01*
X21995112Y7585649D01*
X22085649Y7495112D01*
X22192110Y7423978D01*
X22252511Y7398959D01*
X21630893Y6777341D01*
X21713825Y6717087D01*
X21713829Y6717085D01*
X21924203Y6609895D01*
X21924206Y6609893D01*
X22148743Y6536936D01*
X22148747Y6536935D01*
X22381944Y6500000D01*
X22618056Y6500000D01*
X22851252Y6536935D01*
X22851256Y6536936D01*
X23075793Y6609893D01*
X23075796Y6609895D01*
X23286170Y6717085D01*
X23286176Y6717089D01*
X23369105Y6777341D01*
X23369105Y6777342D01*
X22747488Y7398959D01*
X22807890Y7423978D01*
X22914351Y7495112D01*
X23004888Y7585649D01*
X23076022Y7692110D01*
X23101041Y7752512D01*
X23722658Y7130895D01*
X23722659Y7130895D01*
X23782911Y7213824D01*
X23782915Y7213830D01*
X23890105Y7424204D01*
X23890107Y7424207D01*
X23963064Y7648744D01*
X23963065Y7648748D01*
X24000000Y7881944D01*
X24000000Y8118057D01*
X23963065Y8351253D01*
X23963064Y8351257D01*
X23890107Y8575794D01*
X23890105Y8575797D01*
X23782915Y8786171D01*
X23782913Y8786175D01*
X23722659Y8869107D01*
X23101041Y8247489D01*
X23076022Y8307890D01*
X23004888Y8414351D01*
X22914351Y8504888D01*
X22807890Y8576022D01*
X22747486Y8601043D01*
X23369105Y9222661D01*
X23366336Y9224673D01*
X26049500Y9224673D01*
X26049500Y6775328D01*
X26049501Y6775316D01*
X26064033Y6702264D01*
X26064035Y6702258D01*
X26119397Y6619401D01*
X26119399Y6619399D01*
X26202260Y6564034D01*
X26257808Y6552985D01*
X26275315Y6549502D01*
X26275320Y6549502D01*
X26275326Y6549500D01*
X26275327Y6549500D01*
X28724673Y6549500D01*
X28724674Y6549500D01*
X28797740Y6564034D01*
X28880601Y6619399D01*
X28935966Y6702260D01*
X28950500Y6775326D01*
X28950500Y9224674D01*
X28935966Y9297740D01*
X28880601Y9380601D01*
X28880599Y9380603D01*
X28797742Y9435965D01*
X28797740Y9435966D01*
X28797737Y9435967D01*
X28797736Y9435967D01*
X28724684Y9450499D01*
X28724674Y9450500D01*
X26275326Y9450500D01*
X26275325Y9450500D01*
X26275315Y9450499D01*
X26202263Y9435967D01*
X26202257Y9435965D01*
X26119400Y9380603D01*
X26119397Y9380600D01*
X26064035Y9297743D01*
X26064033Y9297737D01*
X26049501Y9224685D01*
X26049500Y9224673D01*
X23366336Y9224673D01*
X23286169Y9282916D01*
X23075796Y9390106D01*
X23075793Y9390108D01*
X22851256Y9463065D01*
X22851252Y9463066D01*
X22618056Y9500000D01*
X22381944Y9500000D01*
X22148747Y9463066D01*
X22148743Y9463065D01*
X21924206Y9390108D01*
X21924203Y9390106D01*
X21713823Y9282912D01*
X21630893Y9222661D01*
X22252512Y8601042D01*
X22192110Y8576022D01*
X22085649Y8504888D01*
X21995112Y8414351D01*
X21923978Y8307890D01*
X21898958Y8247488D01*
X21277339Y8869107D01*
X21217088Y8786177D01*
X21109894Y8575797D01*
X21109892Y8575794D01*
X21036935Y8351257D01*
X21036934Y8351253D01*
X21000000Y8118057D01*
X11000000Y8118057D01*
X11000000Y29930996D01*
X24849500Y29930996D01*
X24849500Y29793005D01*
X24876420Y29657673D01*
X24876420Y29657671D01*
X24929222Y29530194D01*
X24929228Y29530183D01*
X25005885Y29415459D01*
X25103458Y29317886D01*
X25218182Y29241229D01*
X25218193Y29241223D01*
X25265283Y29221718D01*
X25345672Y29188420D01*
X25481007Y29161500D01*
X25481008Y29161500D01*
X25618992Y29161500D01*
X25618993Y29161500D01*
X25754328Y29188420D01*
X25881811Y29241225D01*
X25945000Y29283447D01*
X26003885Y29300055D01*
X26054999Y29283448D01*
X26105630Y29249617D01*
X26118187Y29241226D01*
X26118193Y29241223D01*
X26165283Y29221718D01*
X26245672Y29188420D01*
X26381007Y29161500D01*
X26381008Y29161500D01*
X26518992Y29161500D01*
X26518993Y29161500D01*
X26654328Y29188420D01*
X26781811Y29241225D01*
X26896542Y29317886D01*
X26994114Y29415458D01*
X27070775Y29530189D01*
X27123580Y29657672D01*
X27150500Y29793007D01*
X27150500Y29930993D01*
X27123580Y30066328D01*
X27070775Y30193811D01*
X27070774Y30193813D01*
X27070771Y30193818D01*
X26994114Y30308542D01*
X26896541Y30406115D01*
X26781817Y30482772D01*
X26781806Y30482778D01*
X26654328Y30535580D01*
X26518995Y30562500D01*
X26518993Y30562500D01*
X26381007Y30562500D01*
X26381004Y30562500D01*
X26245672Y30535580D01*
X26245670Y30535580D01*
X26118193Y30482778D01*
X26118181Y30482772D01*
X26055002Y30440555D01*
X25996114Y30423946D01*
X25944998Y30440555D01*
X25881818Y30482772D01*
X25881806Y30482778D01*
X25754328Y30535580D01*
X25618995Y30562500D01*
X25618993Y30562500D01*
X25481007Y30562500D01*
X25481004Y30562500D01*
X25345672Y30535580D01*
X25345670Y30535580D01*
X25218193Y30482778D01*
X25218182Y30482772D01*
X25103458Y30406115D01*
X25005885Y30308542D01*
X24929228Y30193818D01*
X24929222Y30193807D01*
X24876420Y30066330D01*
X24876420Y30066328D01*
X24849500Y29930996D01*
X11000000Y29930996D01*
X11000000Y30901000D01*
X11018907Y30959191D01*
X11068407Y30995155D01*
X11099000Y31000000D01*
X38901000Y31000000D01*
X38959191Y30981093D01*
G37*
%TD.AperFunction*%
%TD*%
M02*
