%TF.GenerationSoftware,KiCad,Pcbnew,10.0.6*%
%TF.CreationDate,2026-10-08T10:25:58-04:00*%
%TF.ProjectId,PS-FLYBACK-5W,50532d46-4c59-4424-9143-4b2d35572e6b,A2-development*%
%TF.SameCoordinates,Original*%
%TF.FileFunction,Profile,NP*%
%FSLAX46Y46*%
G04 Gerber Fmt 4.6, Leading zero omitted, Abs format (unit mm)*
G04 Created by KiCad (PCBNEW 10.0.6) date 2026-10-08 10:25:58*
%MOMM*%
%LPD*%
G01*
G04 APERTURE LIST*
%TA.AperFunction,Profile*%
%ADD10C,0.050000*%
%TD*%
G04 APERTURE END LIST*
D10*
X0Y102000000D02*
G75*
G02*
X2000000Y104000000I2000000J0D01*
G01*
X0Y2000000D02*
X0Y102000000D01*
X2000000Y104000000D02*
X48000000Y104000000D01*
X2000000Y0D02*
G75*
G02*
X0Y2000000I0J2000000D01*
G01*
X11900000Y60050000D02*
G75*
G02*
X12400000Y60550000I500000J0D01*
G01*
X11900000Y43950000D02*
X11900000Y60050000D01*
X12400000Y60550000D02*
X16800000Y60550000D01*
X12400000Y43450000D02*
G75*
G02*
X11900000Y43950000I0J500000D01*
G01*
X16800000Y60550000D02*
G75*
G02*
X17300000Y60050000I0J-500000D01*
G01*
X16800000Y43450000D02*
X12400000Y43450000D01*
X17300000Y60050000D02*
X17300000Y43950000D01*
X17300000Y43950000D02*
G75*
G02*
X16800000Y43450000I-500000J0D01*
G01*
X21950000Y60050000D02*
G75*
G02*
X22450000Y60550000I500000J0D01*
G01*
X21950000Y43950000D02*
X21950000Y60050000D01*
X22450000Y60550000D02*
X27550000Y60550000D01*
X22450000Y43450000D02*
G75*
G02*
X21950000Y43950000I0J500000D01*
G01*
X27550000Y60550000D02*
G75*
G02*
X28050000Y60050000I0J-500000D01*
G01*
X27550000Y43450000D02*
X22450000Y43450000D01*
X28050000Y60050000D02*
X28050000Y43950000D01*
X28050000Y43950000D02*
G75*
G02*
X27550000Y43450000I-500000J0D01*
G01*
X32700000Y60050000D02*
G75*
G02*
X33200000Y60550000I500000J0D01*
G01*
X32700000Y43950000D02*
X32700000Y60050000D01*
X33200000Y60550000D02*
X37600000Y60550000D01*
X33200000Y43450000D02*
G75*
G02*
X32700000Y43950000I0J500000D01*
G01*
X37600000Y60550000D02*
G75*
G02*
X38100000Y60050000I0J-500000D01*
G01*
X37600000Y43450000D02*
X33200000Y43450000D01*
X38100000Y60050000D02*
X38100000Y43950000D01*
X38100000Y43950000D02*
G75*
G02*
X37600000Y43450000I-500000J0D01*
G01*
X48000000Y104000000D02*
G75*
G02*
X50000000Y102000000I0J-2000000D01*
G01*
X48000000Y0D02*
X2000000Y0D01*
X50000000Y102000000D02*
X50000000Y2000000D01*
X50000000Y2000000D02*
G75*
G02*
X48000000Y0I-2000000J0D01*
G01*
M02*
