%TF.GenerationSoftware,KiCad,Pcbnew,10.0.6*%
%TF.CreationDate,2026-10-09T21:31:32+08:00*%
%TF.ProjectId,PS-FLYBACK-5W,50532d46-4c59-4424-9143-4b2d35572e6b,A4-development*%
%TF.SameCoordinates,Original*%
%TF.FileFunction,Legend,Bot*%
%TF.FilePolarity,Positive*%
%FSLAX46Y46*%
G04 Gerber Fmt 4.6, Leading zero omitted, Abs format (unit mm)*
G04 Created by KiCad (PCBNEW 10.0.6) date 2026-10-09 21:31:32*
%MOMM*%
%LPD*%
G01*
G04 APERTURE LIST*
%ADD10C,0.150000*%
%ADD11C,0.000000*%
%ADD12C,3.200000*%
%ADD13R,2.400000X2.400000*%
%ADD14C,2.400000*%
%ADD15C,0.600000*%
G04 APERTURE END LIST*
D10*
X30023809Y30568991D02*
X30357142Y30568991D01*
X30357142Y30045181D02*
X30357142Y31045181D01*
X30357142Y31045181D02*
X29880952Y31045181D01*
X29499999Y31045181D02*
X29499999Y30235658D01*
X29499999Y30235658D02*
X29452380Y30140420D01*
X29452380Y30140420D02*
X29404761Y30092800D01*
X29404761Y30092800D02*
X29309523Y30045181D01*
X29309523Y30045181D02*
X29119047Y30045181D01*
X29119047Y30045181D02*
X29023809Y30092800D01*
X29023809Y30092800D02*
X28976190Y30140420D01*
X28976190Y30140420D02*
X28928571Y30235658D01*
X28928571Y30235658D02*
X28928571Y31045181D01*
X28452380Y30045181D02*
X28452380Y31045181D01*
X28452380Y31045181D02*
X27880952Y30045181D01*
X27880952Y30045181D02*
X27880952Y31045181D01*
X26833333Y30140420D02*
X26880952Y30092800D01*
X26880952Y30092800D02*
X27023809Y30045181D01*
X27023809Y30045181D02*
X27119047Y30045181D01*
X27119047Y30045181D02*
X27261904Y30092800D01*
X27261904Y30092800D02*
X27357142Y30188039D01*
X27357142Y30188039D02*
X27404761Y30283277D01*
X27404761Y30283277D02*
X27452380Y30473753D01*
X27452380Y30473753D02*
X27452380Y30616610D01*
X27452380Y30616610D02*
X27404761Y30807086D01*
X27404761Y30807086D02*
X27357142Y30902324D01*
X27357142Y30902324D02*
X27261904Y30997562D01*
X27261904Y30997562D02*
X27119047Y31045181D01*
X27119047Y31045181D02*
X27023809Y31045181D01*
X27023809Y31045181D02*
X26880952Y30997562D01*
X26880952Y30997562D02*
X26833333Y30949943D01*
X26547618Y31045181D02*
X25976190Y31045181D01*
X26261904Y30045181D02*
X26261904Y31045181D01*
X25642856Y30045181D02*
X25642856Y31045181D01*
X24976190Y31045181D02*
X24785714Y31045181D01*
X24785714Y31045181D02*
X24690476Y30997562D01*
X24690476Y30997562D02*
X24595238Y30902324D01*
X24595238Y30902324D02*
X24547619Y30711848D01*
X24547619Y30711848D02*
X24547619Y30378515D01*
X24547619Y30378515D02*
X24595238Y30188039D01*
X24595238Y30188039D02*
X24690476Y30092800D01*
X24690476Y30092800D02*
X24785714Y30045181D01*
X24785714Y30045181D02*
X24976190Y30045181D01*
X24976190Y30045181D02*
X25071428Y30092800D01*
X25071428Y30092800D02*
X25166666Y30188039D01*
X25166666Y30188039D02*
X25214285Y30378515D01*
X25214285Y30378515D02*
X25214285Y30711848D01*
X25214285Y30711848D02*
X25166666Y30902324D01*
X25166666Y30902324D02*
X25071428Y30997562D01*
X25071428Y30997562D02*
X24976190Y31045181D01*
X24119047Y30045181D02*
X24119047Y31045181D01*
X24119047Y31045181D02*
X23547619Y30045181D01*
X23547619Y30045181D02*
X23547619Y31045181D01*
X23119047Y30330896D02*
X22642857Y30330896D01*
X23214285Y30045181D02*
X22880952Y31045181D01*
X22880952Y31045181D02*
X22547619Y30045181D01*
X21738095Y30045181D02*
X22214285Y30045181D01*
X22214285Y30045181D02*
X22214285Y31045181D01*
X20642856Y30045181D02*
X20642856Y31045181D01*
X20214285Y30092800D02*
X20071428Y30045181D01*
X20071428Y30045181D02*
X19833333Y30045181D01*
X19833333Y30045181D02*
X19738095Y30092800D01*
X19738095Y30092800D02*
X19690476Y30140420D01*
X19690476Y30140420D02*
X19642857Y30235658D01*
X19642857Y30235658D02*
X19642857Y30330896D01*
X19642857Y30330896D02*
X19690476Y30426134D01*
X19690476Y30426134D02*
X19738095Y30473753D01*
X19738095Y30473753D02*
X19833333Y30521372D01*
X19833333Y30521372D02*
X20023809Y30568991D01*
X20023809Y30568991D02*
X20119047Y30616610D01*
X20119047Y30616610D02*
X20166666Y30664229D01*
X20166666Y30664229D02*
X20214285Y30759467D01*
X20214285Y30759467D02*
X20214285Y30854705D01*
X20214285Y30854705D02*
X20166666Y30949943D01*
X20166666Y30949943D02*
X20119047Y30997562D01*
X20119047Y30997562D02*
X20023809Y31045181D01*
X20023809Y31045181D02*
X19785714Y31045181D01*
X19785714Y31045181D02*
X19642857Y30997562D01*
X19023809Y31045181D02*
X18833333Y31045181D01*
X18833333Y31045181D02*
X18738095Y30997562D01*
X18738095Y30997562D02*
X18642857Y30902324D01*
X18642857Y30902324D02*
X18595238Y30711848D01*
X18595238Y30711848D02*
X18595238Y30378515D01*
X18595238Y30378515D02*
X18642857Y30188039D01*
X18642857Y30188039D02*
X18738095Y30092800D01*
X18738095Y30092800D02*
X18833333Y30045181D01*
X18833333Y30045181D02*
X19023809Y30045181D01*
X19023809Y30045181D02*
X19119047Y30092800D01*
X19119047Y30092800D02*
X19214285Y30188039D01*
X19214285Y30188039D02*
X19261904Y30378515D01*
X19261904Y30378515D02*
X19261904Y30711848D01*
X19261904Y30711848D02*
X19214285Y30902324D01*
X19214285Y30902324D02*
X19119047Y30997562D01*
X19119047Y30997562D02*
X19023809Y31045181D01*
X17690476Y30045181D02*
X18166666Y30045181D01*
X18166666Y30045181D02*
X18166666Y31045181D01*
X17404761Y30330896D02*
X16928571Y30330896D01*
X17499999Y30045181D02*
X17166666Y31045181D01*
X17166666Y31045181D02*
X16833333Y30045181D01*
X16642856Y31045181D02*
X16071428Y31045181D01*
X16357142Y30045181D02*
X16357142Y31045181D01*
X15738094Y30045181D02*
X15738094Y31045181D01*
X15071428Y31045181D02*
X14880952Y31045181D01*
X14880952Y31045181D02*
X14785714Y30997562D01*
X14785714Y30997562D02*
X14690476Y30902324D01*
X14690476Y30902324D02*
X14642857Y30711848D01*
X14642857Y30711848D02*
X14642857Y30378515D01*
X14642857Y30378515D02*
X14690476Y30188039D01*
X14690476Y30188039D02*
X14785714Y30092800D01*
X14785714Y30092800D02*
X14880952Y30045181D01*
X14880952Y30045181D02*
X15071428Y30045181D01*
X15071428Y30045181D02*
X15166666Y30092800D01*
X15166666Y30092800D02*
X15261904Y30188039D01*
X15261904Y30188039D02*
X15309523Y30378515D01*
X15309523Y30378515D02*
X15309523Y30711848D01*
X15309523Y30711848D02*
X15261904Y30902324D01*
X15261904Y30902324D02*
X15166666Y30997562D01*
X15166666Y30997562D02*
X15071428Y31045181D01*
X14214285Y30045181D02*
X14214285Y31045181D01*
X14214285Y31045181D02*
X13642857Y30045181D01*
X13642857Y30045181D02*
X13642857Y31045181D01*
X32571428Y2830896D02*
X32095238Y2830896D01*
X32666666Y2545181D02*
X32333333Y3545181D01*
X32333333Y3545181D02*
X32000000Y2545181D01*
X31238095Y3211848D02*
X31238095Y2545181D01*
X31476190Y3592800D02*
X31714285Y2878515D01*
X31714285Y2878515D02*
X31095238Y2878515D01*
X29952380Y3068991D02*
X29619047Y3068991D01*
X29476190Y2545181D02*
X29952380Y2545181D01*
X29952380Y2545181D02*
X29952380Y3545181D01*
X29952380Y3545181D02*
X29476190Y3545181D01*
X29047618Y2545181D02*
X29047618Y3545181D01*
X29047618Y3545181D02*
X28476190Y2545181D01*
X28476190Y2545181D02*
X28476190Y3545181D01*
X27476190Y3497562D02*
X27571428Y3545181D01*
X27571428Y3545181D02*
X27714285Y3545181D01*
X27714285Y3545181D02*
X27857142Y3497562D01*
X27857142Y3497562D02*
X27952380Y3402324D01*
X27952380Y3402324D02*
X27999999Y3307086D01*
X27999999Y3307086D02*
X28047618Y3116610D01*
X28047618Y3116610D02*
X28047618Y2973753D01*
X28047618Y2973753D02*
X27999999Y2783277D01*
X27999999Y2783277D02*
X27952380Y2688039D01*
X27952380Y2688039D02*
X27857142Y2592800D01*
X27857142Y2592800D02*
X27714285Y2545181D01*
X27714285Y2545181D02*
X27619047Y2545181D01*
X27619047Y2545181D02*
X27476190Y2592800D01*
X27476190Y2592800D02*
X27428571Y2640420D01*
X27428571Y2640420D02*
X27428571Y2973753D01*
X27428571Y2973753D02*
X27619047Y2973753D01*
X26999999Y2545181D02*
X26999999Y3545181D01*
X26523809Y2545181D02*
X26523809Y3545181D01*
X26523809Y3545181D02*
X25952381Y2545181D01*
X25952381Y2545181D02*
X25952381Y3545181D01*
X25476190Y3068991D02*
X25142857Y3068991D01*
X25000000Y2545181D02*
X25476190Y2545181D01*
X25476190Y2545181D02*
X25476190Y3545181D01*
X25476190Y3545181D02*
X25000000Y3545181D01*
X24571428Y3068991D02*
X24238095Y3068991D01*
X24095238Y2545181D02*
X24571428Y2545181D01*
X24571428Y2545181D02*
X24571428Y3545181D01*
X24571428Y3545181D02*
X24095238Y3545181D01*
X23095238Y2545181D02*
X23428571Y3021372D01*
X23666666Y2545181D02*
X23666666Y3545181D01*
X23666666Y3545181D02*
X23285714Y3545181D01*
X23285714Y3545181D02*
X23190476Y3497562D01*
X23190476Y3497562D02*
X23142857Y3449943D01*
X23142857Y3449943D02*
X23095238Y3354705D01*
X23095238Y3354705D02*
X23095238Y3211848D01*
X23095238Y3211848D02*
X23142857Y3116610D01*
X23142857Y3116610D02*
X23190476Y3068991D01*
X23190476Y3068991D02*
X23285714Y3021372D01*
X23285714Y3021372D02*
X23666666Y3021372D01*
X22666666Y2545181D02*
X22666666Y3545181D01*
X22190476Y2545181D02*
X22190476Y3545181D01*
X22190476Y3545181D02*
X21619048Y2545181D01*
X21619048Y2545181D02*
X21619048Y3545181D01*
X20619048Y3497562D02*
X20714286Y3545181D01*
X20714286Y3545181D02*
X20857143Y3545181D01*
X20857143Y3545181D02*
X21000000Y3497562D01*
X21000000Y3497562D02*
X21095238Y3402324D01*
X21095238Y3402324D02*
X21142857Y3307086D01*
X21142857Y3307086D02*
X21190476Y3116610D01*
X21190476Y3116610D02*
X21190476Y2973753D01*
X21190476Y2973753D02*
X21142857Y2783277D01*
X21142857Y2783277D02*
X21095238Y2688039D01*
X21095238Y2688039D02*
X21000000Y2592800D01*
X21000000Y2592800D02*
X20857143Y2545181D01*
X20857143Y2545181D02*
X20761905Y2545181D01*
X20761905Y2545181D02*
X20619048Y2592800D01*
X20619048Y2592800D02*
X20571429Y2640420D01*
X20571429Y2640420D02*
X20571429Y2973753D01*
X20571429Y2973753D02*
X20761905Y2973753D01*
X19380952Y2545181D02*
X19380952Y3545181D01*
X19380952Y3545181D02*
X19000000Y3545181D01*
X19000000Y3545181D02*
X18904762Y3497562D01*
X18904762Y3497562D02*
X18857143Y3449943D01*
X18857143Y3449943D02*
X18809524Y3354705D01*
X18809524Y3354705D02*
X18809524Y3211848D01*
X18809524Y3211848D02*
X18857143Y3116610D01*
X18857143Y3116610D02*
X18904762Y3068991D01*
X18904762Y3068991D02*
X19000000Y3021372D01*
X19000000Y3021372D02*
X19380952Y3021372D01*
X17809524Y2545181D02*
X18142857Y3021372D01*
X18380952Y2545181D02*
X18380952Y3545181D01*
X18380952Y3545181D02*
X18000000Y3545181D01*
X18000000Y3545181D02*
X17904762Y3497562D01*
X17904762Y3497562D02*
X17857143Y3449943D01*
X17857143Y3449943D02*
X17809524Y3354705D01*
X17809524Y3354705D02*
X17809524Y3211848D01*
X17809524Y3211848D02*
X17857143Y3116610D01*
X17857143Y3116610D02*
X17904762Y3068991D01*
X17904762Y3068991D02*
X18000000Y3021372D01*
X18000000Y3021372D02*
X18380952Y3021372D01*
X17190476Y3545181D02*
X17000000Y3545181D01*
X17000000Y3545181D02*
X16904762Y3497562D01*
X16904762Y3497562D02*
X16809524Y3402324D01*
X16809524Y3402324D02*
X16761905Y3211848D01*
X16761905Y3211848D02*
X16761905Y2878515D01*
X16761905Y2878515D02*
X16809524Y2688039D01*
X16809524Y2688039D02*
X16904762Y2592800D01*
X16904762Y2592800D02*
X17000000Y2545181D01*
X17000000Y2545181D02*
X17190476Y2545181D01*
X17190476Y2545181D02*
X17285714Y2592800D01*
X17285714Y2592800D02*
X17380952Y2688039D01*
X17380952Y2688039D02*
X17428571Y2878515D01*
X17428571Y2878515D02*
X17428571Y3211848D01*
X17428571Y3211848D02*
X17380952Y3402324D01*
X17380952Y3402324D02*
X17285714Y3497562D01*
X17285714Y3497562D02*
X17190476Y3545181D01*
X16476190Y3545181D02*
X15904762Y3545181D01*
X16190476Y2545181D02*
X16190476Y3545181D01*
X15380952Y3545181D02*
X15190476Y3545181D01*
X15190476Y3545181D02*
X15095238Y3497562D01*
X15095238Y3497562D02*
X15000000Y3402324D01*
X15000000Y3402324D02*
X14952381Y3211848D01*
X14952381Y3211848D02*
X14952381Y2878515D01*
X14952381Y2878515D02*
X15000000Y2688039D01*
X15000000Y2688039D02*
X15095238Y2592800D01*
X15095238Y2592800D02*
X15190476Y2545181D01*
X15190476Y2545181D02*
X15380952Y2545181D01*
X15380952Y2545181D02*
X15476190Y2592800D01*
X15476190Y2592800D02*
X15571428Y2688039D01*
X15571428Y2688039D02*
X15619047Y2878515D01*
X15619047Y2878515D02*
X15619047Y3211848D01*
X15619047Y3211848D02*
X15571428Y3402324D01*
X15571428Y3402324D02*
X15476190Y3497562D01*
X15476190Y3497562D02*
X15380952Y3545181D01*
X14666666Y3545181D02*
X14095238Y3545181D01*
X14380952Y2545181D02*
X14380952Y3545181D01*
X13571428Y3021372D02*
X13571428Y2545181D01*
X13904761Y3545181D02*
X13571428Y3021372D01*
X13571428Y3021372D02*
X13238095Y3545181D01*
X12904761Y2545181D02*
X12904761Y3545181D01*
X12904761Y3545181D02*
X12523809Y3545181D01*
X12523809Y3545181D02*
X12428571Y3497562D01*
X12428571Y3497562D02*
X12380952Y3449943D01*
X12380952Y3449943D02*
X12333333Y3354705D01*
X12333333Y3354705D02*
X12333333Y3211848D01*
X12333333Y3211848D02*
X12380952Y3116610D01*
X12380952Y3116610D02*
X12428571Y3068991D01*
X12428571Y3068991D02*
X12523809Y3021372D01*
X12523809Y3021372D02*
X12904761Y3021372D01*
X11904761Y3068991D02*
X11571428Y3068991D01*
X11428571Y2545181D02*
X11904761Y2545181D01*
X11904761Y2545181D02*
X11904761Y3545181D01*
X11904761Y3545181D02*
X11428571Y3545181D01*
%LPC*%
D11*
%TO.C,H4*%
G36*
X47700000Y1300000D02*
G01*
X39500000Y1300000D01*
X39290710Y1306851D01*
X39082316Y1327376D01*
X38875711Y1361487D01*
X38671779Y1409037D01*
X38471394Y1469824D01*
X38275413Y1543585D01*
X38084676Y1630007D01*
X37900000Y1728719D01*
X37722175Y1839297D01*
X37551963Y1961269D01*
X37390093Y2094113D01*
X37237258Y2237258D01*
X37094113Y2390093D01*
X36961269Y2551963D01*
X36839297Y2722175D01*
X36728719Y2900000D01*
X36630007Y3084676D01*
X36543585Y3275413D01*
X36469824Y3471394D01*
X36409037Y3671779D01*
X36361487Y3875711D01*
X36327376Y4082316D01*
X36306851Y4290710D01*
X36300000Y4500000D01*
X36306851Y4709290D01*
X36327376Y4917684D01*
X36361487Y5124289D01*
X36409037Y5328221D01*
X36469824Y5528606D01*
X36543585Y5724587D01*
X36630007Y5915324D01*
X36728719Y6100000D01*
X36839297Y6277825D01*
X36961269Y6448037D01*
X37094113Y6609907D01*
X37237258Y6762742D01*
X37390093Y6905887D01*
X37551963Y7038731D01*
X37722175Y7160703D01*
X37900000Y7271281D01*
X38084676Y7369993D01*
X38275413Y7456415D01*
X38471394Y7530176D01*
X38671779Y7590963D01*
X38875711Y7638513D01*
X39082316Y7672624D01*
X39290710Y7693149D01*
X39500000Y7700000D01*
X47700000Y7700000D01*
X47700000Y1300000D01*
G37*
%TO.C,H3*%
G36*
X4709290Y7693149D02*
G01*
X4917684Y7672624D01*
X5124289Y7638513D01*
X5328221Y7590963D01*
X5528606Y7530176D01*
X5724587Y7456415D01*
X5915324Y7369993D01*
X6100000Y7271281D01*
X6277825Y7160703D01*
X6448037Y7038731D01*
X6609907Y6905887D01*
X6762742Y6762742D01*
X6905887Y6609907D01*
X7038731Y6448037D01*
X7160703Y6277825D01*
X7271281Y6100000D01*
X7369993Y5915324D01*
X7456415Y5724587D01*
X7530176Y5528606D01*
X7590963Y5328221D01*
X7638513Y5124289D01*
X7672624Y4917684D01*
X7693149Y4709290D01*
X7700000Y4500000D01*
X7693149Y4290710D01*
X7672624Y4082316D01*
X7638513Y3875711D01*
X7590963Y3671779D01*
X7530176Y3471394D01*
X7456415Y3275413D01*
X7369993Y3084676D01*
X7271281Y2900000D01*
X7160703Y2722175D01*
X7038731Y2551963D01*
X6905887Y2390093D01*
X6762742Y2237258D01*
X6609907Y2094113D01*
X6448037Y1961269D01*
X6277825Y1839297D01*
X6100000Y1728719D01*
X5915324Y1630007D01*
X5724587Y1543585D01*
X5528606Y1469824D01*
X5328221Y1409037D01*
X5124289Y1361487D01*
X4917684Y1327376D01*
X4709290Y1306851D01*
X4500000Y1300000D01*
X-3700000Y1300000D01*
X-3700000Y7700000D01*
X4500000Y7700000D01*
X4709290Y7693149D01*
G37*
%TO.C,H1*%
G36*
X4709290Y92693149D02*
G01*
X4917684Y92672624D01*
X5124289Y92638513D01*
X5328221Y92590963D01*
X5528606Y92530176D01*
X5724587Y92456415D01*
X5915324Y92369993D01*
X6100000Y92271281D01*
X6277825Y92160703D01*
X6448037Y92038731D01*
X6609907Y91905887D01*
X6762742Y91762742D01*
X6905887Y91609907D01*
X7038731Y91448037D01*
X7160703Y91277825D01*
X7271281Y91100000D01*
X7369993Y90915324D01*
X7456415Y90724587D01*
X7530176Y90528606D01*
X7590963Y90328221D01*
X7638513Y90124289D01*
X7672624Y89917684D01*
X7693149Y89709290D01*
X7700000Y89500000D01*
X7693149Y89290710D01*
X7672624Y89082316D01*
X7638513Y88875711D01*
X7590963Y88671779D01*
X7530176Y88471394D01*
X7456415Y88275413D01*
X7369993Y88084676D01*
X7271281Y87900000D01*
X7160703Y87722175D01*
X7038731Y87551963D01*
X6905887Y87390093D01*
X6762742Y87237258D01*
X6609907Y87094113D01*
X6448037Y86961269D01*
X6277825Y86839297D01*
X6100000Y86728719D01*
X5915324Y86630007D01*
X5724587Y86543585D01*
X5528606Y86469824D01*
X5328221Y86409037D01*
X5124289Y86361487D01*
X4917684Y86327376D01*
X4709290Y86306851D01*
X4500000Y86300000D01*
X-3700000Y86300000D01*
X-3700000Y92700000D01*
X4500000Y92700000D01*
X4709290Y92693149D01*
G37*
%TO.C,H2*%
G36*
X47700000Y86300000D02*
G01*
X39500000Y86300000D01*
X39290710Y86306851D01*
X39082316Y86327376D01*
X38875711Y86361487D01*
X38671779Y86409037D01*
X38471394Y86469824D01*
X38275413Y86543585D01*
X38084676Y86630007D01*
X37900000Y86728719D01*
X37722175Y86839297D01*
X37551963Y86961269D01*
X37390093Y87094113D01*
X37237258Y87237258D01*
X37094113Y87390093D01*
X36961269Y87551963D01*
X36839297Y87722175D01*
X36728719Y87900000D01*
X36630007Y88084676D01*
X36543585Y88275413D01*
X36469824Y88471394D01*
X36409037Y88671779D01*
X36361487Y88875711D01*
X36327376Y89082316D01*
X36306851Y89290710D01*
X36300000Y89500000D01*
X36306851Y89709290D01*
X36327376Y89917684D01*
X36361487Y90124289D01*
X36409037Y90328221D01*
X36469824Y90528606D01*
X36543585Y90724587D01*
X36630007Y90915324D01*
X36728719Y91100000D01*
X36839297Y91277825D01*
X36961269Y91448037D01*
X37094113Y91609907D01*
X37237258Y91762742D01*
X37390093Y91905887D01*
X37551963Y92038731D01*
X37722175Y92160703D01*
X37900000Y92271281D01*
X38084676Y92369993D01*
X38275413Y92456415D01*
X38471394Y92530176D01*
X38671779Y92590963D01*
X38875711Y92638513D01*
X39082316Y92672624D01*
X39290710Y92693149D01*
X39500000Y92700000D01*
X47700000Y92700000D01*
X47700000Y86300000D01*
G37*
%TD*%
D12*
%TO.C,H4*%
X39500000Y4500000D03*
%TD*%
%TO.C,H3*%
X4500000Y4500000D03*
%TD*%
%TO.C,H1*%
X4500000Y89500000D03*
%TD*%
%TO.C,H2*%
X39500000Y89500000D03*
%TD*%
D13*
%TO.C,J2*%
X24500000Y8000000D03*
D14*
X19500000Y8000000D03*
%TD*%
D15*
%TO.C,T1*%
X24871953Y60073763D03*
X19128047Y60073763D03*
X20540116Y33532645D03*
X22775000Y37270417D03*
%TD*%
D13*
%TO.C,J1*%
X19500000Y87000000D03*
D14*
X24500000Y87000000D03*
%TD*%
%LPD*%
M02*
