%TF.GenerationSoftware,KiCad,Pcbnew,10.0.6*%
%TF.CreationDate,2026-10-08T11:56:37-04:00*%
%TF.ProjectId,PS-FLYBACK-5W,50532d46-4c59-4424-9143-4b2d35572e6b,A3-development*%
%TF.SameCoordinates,Original*%
%TF.FileFunction,Copper,L1,Top*%
%TF.FilePolarity,Positive*%
%FSLAX46Y46*%
G04 Gerber Fmt 4.6, Leading zero omitted, Abs format (unit mm)*
G04 Created by KiCad (PCBNEW 10.0.6) date 2026-10-08 11:56:37*
%MOMM*%
%LPD*%
G01*
G04 APERTURE LIST*
G04 Aperture macros list*
%AMRoundRect*
0 Rectangle with rounded corners*
0 $1 Rounding radius*
0 $2 $3 $4 $5 $6 $7 $8 $9 X,Y pos of 4 corners*
0 Add a 4 corners polygon primitive as box body*
4,1,4,$2,$3,$4,$5,$6,$7,$8,$9,$2,$3,0*
0 Add four circle primitives for the rounded corners*
1,1,$1+$1,$2,$3*
1,1,$1+$1,$4,$5*
1,1,$1+$1,$6,$7*
1,1,$1+$1,$8,$9*
0 Add four rect primitives between the rounded corners*
20,1,$1+$1,$2,$3,$4,$5,0*
20,1,$1+$1,$4,$5,$6,$7,0*
20,1,$1+$1,$6,$7,$8,$9,0*
20,1,$1+$1,$8,$9,$2,$3,0*%
G04 Aperture macros list end*
%TA.AperFunction,EtchedComponent*%
%ADD10C,0.000000*%
%TD*%
%TA.AperFunction,SMDPad,CuDef*%
%ADD11RoundRect,0.250000X-0.650000X1.000000X-0.650000X-1.000000X0.650000X-1.000000X0.650000X1.000000X0*%
%TD*%
%TA.AperFunction,SMDPad,CuDef*%
%ADD12RoundRect,0.200000X-0.200000X-0.275000X0.200000X-0.275000X0.200000X0.275000X-0.200000X0.275000X0*%
%TD*%
%TA.AperFunction,SMDPad,CuDef*%
%ADD13R,2.450000X3.700000*%
%TD*%
%TA.AperFunction,SMDPad,CuDef*%
%ADD14RoundRect,0.250000X1.100000X-0.325000X1.100000X0.325000X-1.100000X0.325000X-1.100000X-0.325000X0*%
%TD*%
%TA.AperFunction,SMDPad,CuDef*%
%ADD15R,1.250000X1.650000*%
%TD*%
%TA.AperFunction,SMDPad,CuDef*%
%ADD16R,1.143000X0.760000*%
%TD*%
%TA.AperFunction,SMDPad,CuDef*%
%ADD17R,2.260000X2.990000*%
%TD*%
%TA.AperFunction,SMDPad,CuDef*%
%ADD18R,3.360000X4.860000*%
%TD*%
%TA.AperFunction,SMDPad,CuDef*%
%ADD19R,1.390000X1.400000*%
%TD*%
%TA.AperFunction,SMDPad,CuDef*%
%ADD20RoundRect,0.250000X0.325000X1.100000X-0.325000X1.100000X-0.325000X-1.100000X0.325000X-1.100000X0*%
%TD*%
%TA.AperFunction,SMDPad,CuDef*%
%ADD21RoundRect,0.225000X0.225000X0.250000X-0.225000X0.250000X-0.225000X-0.250000X0.225000X-0.250000X0*%
%TD*%
%TA.AperFunction,SMDPad,CuDef*%
%ADD22R,3.500000X1.600000*%
%TD*%
%TA.AperFunction,SMDPad,CuDef*%
%ADD23RoundRect,0.250000X-0.500000X0.950000X-0.500000X-0.950000X0.500000X-0.950000X0.500000X0.950000X0*%
%TD*%
%TA.AperFunction,SMDPad,CuDef*%
%ADD24RoundRect,0.250000X-0.500000X0.275000X-0.500000X-0.275000X0.500000X-0.275000X0.500000X0.275000X0*%
%TD*%
%TA.AperFunction,SMDPad,CuDef*%
%ADD25RoundRect,0.250000X-1.950000X-1.000000X1.950000X-1.000000X1.950000X1.000000X-1.950000X1.000000X0*%
%TD*%
%TA.AperFunction,ComponentPad*%
%ADD26R,2.400000X2.400000*%
%TD*%
%TA.AperFunction,ComponentPad*%
%ADD27C,2.400000*%
%TD*%
%TA.AperFunction,SMDPad,CuDef*%
%ADD28RoundRect,0.200000X0.200000X0.275000X-0.200000X0.275000X-0.200000X-0.275000X0.200000X-0.275000X0*%
%TD*%
%TA.AperFunction,ComponentPad*%
%ADD29C,0.600000*%
%TD*%
%TA.AperFunction,SMDPad,CuDef*%
%ADD30RoundRect,0.200000X0.275000X-0.200000X0.275000X0.200000X-0.275000X0.200000X-0.275000X-0.200000X0*%
%TD*%
%TA.AperFunction,SMDPad,CuDef*%
%ADD31RoundRect,0.250000X0.500000X-0.950000X0.500000X0.950000X-0.500000X0.950000X-0.500000X-0.950000X0*%
%TD*%
%TA.AperFunction,SMDPad,CuDef*%
%ADD32RoundRect,0.250000X0.500000X-0.275000X0.500000X0.275000X-0.500000X0.275000X-0.500000X-0.275000X0*%
%TD*%
%TA.AperFunction,SMDPad,CuDef*%
%ADD33RoundRect,0.250000X0.312500X0.625000X-0.312500X0.625000X-0.312500X-0.625000X0.312500X-0.625000X0*%
%TD*%
%TA.AperFunction,SMDPad,CuDef*%
%ADD34RoundRect,0.250000X0.250000X0.475000X-0.250000X0.475000X-0.250000X-0.475000X0.250000X-0.475000X0*%
%TD*%
%TA.AperFunction,SMDPad,CuDef*%
%ADD35RoundRect,0.250000X-0.625000X0.312500X-0.625000X-0.312500X0.625000X-0.312500X0.625000X0.312500X0*%
%TD*%
%TA.AperFunction,SMDPad,CuDef*%
%ADD36RoundRect,0.250000X-0.325000X-1.100000X0.325000X-1.100000X0.325000X1.100000X-0.325000X1.100000X0*%
%TD*%
%TA.AperFunction,ViaPad*%
%ADD37C,0.900000*%
%TD*%
%TA.AperFunction,ViaPad*%
%ADD38C,0.600000*%
%TD*%
%TA.AperFunction,ViaPad*%
%ADD39C,1.200000*%
%TD*%
%TA.AperFunction,ViaPad*%
%ADD40C,0.800000*%
%TD*%
%TA.AperFunction,Conductor*%
%ADD41C,1.000000*%
%TD*%
%TA.AperFunction,Conductor*%
%ADD42C,2.000000*%
%TD*%
%TA.AperFunction,Conductor*%
%ADD43C,1.500000*%
%TD*%
%TA.AperFunction,Conductor*%
%ADD44C,0.600000*%
%TD*%
%TA.AperFunction,Conductor*%
%ADD45C,1.300000*%
%TD*%
%TA.AperFunction,Conductor*%
%ADD46C,0.400000*%
%TD*%
%TA.AperFunction,Conductor*%
%ADD47C,0.250000*%
%TD*%
%TA.AperFunction,Conductor*%
%ADD48C,1.100000*%
%TD*%
%TA.AperFunction,Conductor*%
%ADD49C,0.350000*%
%TD*%
%TA.AperFunction,Conductor*%
%ADD50C,0.800000*%
%TD*%
%TA.AperFunction,Conductor*%
%ADD51C,1.200000*%
%TD*%
%TA.AperFunction,Conductor*%
%ADD52C,0.900000*%
%TD*%
G04 APERTURE END LIST*
D10*
%TA.AperFunction,EtchedComponent*%
%TO.C,T1*%
G36*
X22199326Y60897613D02*
G01*
X22202943Y60897427D01*
X22206572Y60897438D01*
X22402160Y60890346D01*
X22405772Y60890072D01*
X22409401Y60889996D01*
X22604760Y60878180D01*
X22608367Y60877819D01*
X22611989Y60877655D01*
X22807004Y60861123D01*
X22810608Y60860674D01*
X22814220Y60860423D01*
X23008780Y60839184D01*
X23012356Y60838650D01*
X23015975Y60838311D01*
X23209965Y60812378D01*
X23213547Y60811754D01*
X23217139Y60811330D01*
X23410446Y60780717D01*
X23413995Y60780011D01*
X23417592Y60779497D01*
X23610103Y60744222D01*
X23613636Y60743429D01*
X23617215Y60742830D01*
X23808817Y60702915D01*
X23812328Y60702038D01*
X23815897Y60701351D01*
X24006479Y60656818D01*
X24009984Y60655852D01*
X24013516Y60655083D01*
X24202966Y60605959D01*
X24206433Y60604912D01*
X24209961Y60604055D01*
X24398171Y60550367D01*
X24401614Y60549236D01*
X24405116Y60548295D01*
X24591973Y60490076D01*
X24595402Y60488857D01*
X24598865Y60487836D01*
X24784261Y60425120D01*
X24787646Y60423824D01*
X24791100Y60422714D01*
X24974925Y60355536D01*
X24996716Y60346588D01*
X25037859Y60323712D01*
X25074917Y60294682D01*
X25106978Y60260211D01*
X25133251Y60221150D01*
X25153091Y60178458D01*
X25166008Y60133191D01*
X25171684Y60086458D01*
X25169980Y60039414D01*
X25160937Y59993215D01*
X25144779Y59948999D01*
X25121903Y59907856D01*
X25092872Y59870798D01*
X25058401Y59838737D01*
X25019340Y59812464D01*
X24976649Y59792624D01*
X24931381Y59779707D01*
X24884649Y59774031D01*
X24837605Y59775735D01*
X24791406Y59784778D01*
X24768980Y59791988D01*
X24588546Y59857926D01*
X24410055Y59918306D01*
X24230078Y59974382D01*
X24048847Y60026079D01*
X23866455Y60073373D01*
X23682895Y60116265D01*
X23498389Y60154702D01*
X23313000Y60188672D01*
X23126892Y60218145D01*
X22940044Y60243123D01*
X22752730Y60263571D01*
X22564919Y60279492D01*
X22376784Y60290871D01*
X22300000Y60293655D01*
X22300000Y59300000D01*
X22299409Y59284974D01*
X22299464Y59282066D01*
X22299228Y59280377D01*
X22299075Y59276462D01*
X22295837Y59256022D01*
X22292972Y59235440D01*
X22292150Y59232740D01*
X22291711Y59229966D01*
X22285310Y59210268D01*
X22279265Y59190404D01*
X22278033Y59187870D01*
X22277164Y59185195D01*
X22267750Y59166720D01*
X22258682Y59148067D01*
X22257070Y59145759D01*
X22255792Y59143250D01*
X22243603Y59126474D01*
X22231730Y59109471D01*
X22229775Y59107442D01*
X22228122Y59105166D01*
X22213460Y59090504D01*
X22199071Y59075566D01*
X22196825Y59073869D01*
X22194834Y59071878D01*
X22178054Y59059686D01*
X22161512Y59047188D01*
X22159028Y59045863D01*
X22156750Y59044208D01*
X22138280Y59034797D01*
X22119975Y59025034D01*
X22117311Y59024112D01*
X22114805Y59022836D01*
X22095105Y59016435D01*
X22075484Y59009651D01*
X22072708Y59009157D01*
X22070034Y59008289D01*
X22049567Y59005047D01*
X22029134Y59001418D01*
X22025214Y59001190D01*
X22023538Y59000925D01*
X22020640Y59000925D01*
X22005617Y59000053D01*
X21671862Y58993803D01*
X21671845Y58993802D01*
X21337090Y58987552D01*
X21337071Y58987552D01*
X21337046Y58987551D01*
X20999653Y58981301D01*
X20999615Y58981301D01*
X20999583Y58981300D01*
X20657855Y58975050D01*
X20657810Y58975050D01*
X20657758Y58975048D01*
X20309906Y58968798D01*
X20309844Y58968799D01*
X20309785Y58968796D01*
X19953887Y58962546D01*
X19953807Y58962547D01*
X19953740Y58962544D01*
X19587698Y58956294D01*
X19587616Y58956295D01*
X19587529Y58956291D01*
X19209012Y58950041D01*
X19208916Y58950043D01*
X19208822Y58950038D01*
X18815207Y58943788D01*
X18815099Y58943790D01*
X18814997Y58943785D01*
X18403286Y58937535D01*
X18403181Y58937537D01*
X18403059Y58937531D01*
X17969772Y58931281D01*
X17969647Y58931284D01*
X17969531Y58931278D01*
X17510584Y58925028D01*
X17510466Y58925031D01*
X17510330Y58925024D01*
X17020866Y58918774D01*
X17020731Y58918777D01*
X17020601Y58918771D01*
X16494759Y58912521D01*
X16494622Y58912524D01*
X16494487Y58912518D01*
X15925103Y58906268D01*
X15924965Y58906271D01*
X15924825Y58906265D01*
X15602947Y58903029D01*
X15606232Y58570102D01*
X15612480Y57991806D01*
X15618727Y57458943D01*
X15618727Y57458939D01*
X15624973Y56964148D01*
X15624973Y56964141D01*
X15631223Y56501144D01*
X15637466Y56065729D01*
X15637466Y56065719D01*
X15643716Y55652711D01*
X15649960Y55259492D01*
X15649960Y55259487D01*
X15656206Y54882327D01*
X15656206Y54882325D01*
X15662453Y54518782D01*
X15668700Y54166503D01*
X15674948Y53823377D01*
X15674948Y53823374D01*
X15681197Y53487469D01*
X15687445Y53157018D01*
X15687445Y53157012D01*
X15693694Y52830320D01*
X15699944Y52505776D01*
X15699889Y52502976D01*
X15700000Y52500166D01*
X15706249Y41179011D01*
X15712445Y40856959D01*
X15712445Y40856938D01*
X15712446Y40856913D01*
X15718695Y40529488D01*
X15718695Y40529461D01*
X15718697Y40529417D01*
X15724947Y40197805D01*
X15724947Y40197758D01*
X15724949Y40197706D01*
X15731199Y39860168D01*
X15731198Y39860102D01*
X15731201Y39860043D01*
X15737451Y39514716D01*
X15737450Y39514646D01*
X15737454Y39514567D01*
X15743705Y39159416D01*
X15743704Y39159329D01*
X15743708Y39159241D01*
X15749957Y38792006D01*
X15749955Y38791906D01*
X15749960Y38791811D01*
X15756210Y38409947D01*
X15756208Y38409834D01*
X15756213Y38409731D01*
X15762463Y38010328D01*
X15762461Y38010217D01*
X15762467Y38010094D01*
X15768717Y37589781D01*
X15768714Y37589649D01*
X15768720Y37589532D01*
X15774971Y37144347D01*
X15774968Y37144221D01*
X15774975Y37144084D01*
X15781225Y36669315D01*
X15781222Y36669173D01*
X15781228Y36669042D01*
X15787478Y36159006D01*
X15787475Y36158874D01*
X15787482Y36158724D01*
X15793731Y35606474D01*
X15793727Y35606330D01*
X15793734Y35606188D01*
X15796876Y35303035D01*
X16111144Y35306232D01*
X16672219Y35312478D01*
X16672223Y35312478D01*
X17189266Y35318725D01*
X17189275Y35318725D01*
X17669641Y35324975D01*
X17669648Y35324975D01*
X18118607Y35331221D01*
X18118612Y35331221D01*
X18541028Y35337464D01*
X18541043Y35337464D01*
X18941744Y35343714D01*
X18941750Y35343714D01*
X19323414Y35349960D01*
X19323424Y35349960D01*
X19689070Y35356203D01*
X19689076Y35356203D01*
X20041722Y35362450D01*
X20383572Y35368700D01*
X20383579Y35368700D01*
X20716229Y35374945D01*
X20716236Y35374945D01*
X21042116Y35381195D01*
X21042120Y35381195D01*
X21362500Y35387442D01*
X21362508Y35387442D01*
X21679366Y35393692D01*
X21679371Y35393692D01*
X21994027Y35399941D01*
X21994032Y35399941D01*
X22308136Y35406191D01*
X22308148Y35406191D01*
X22308153Y35406191D01*
X22623162Y35412441D01*
X22623183Y35412441D01*
X22623208Y35412442D01*
X22940664Y35418692D01*
X22940706Y35418692D01*
X22940738Y35418693D01*
X23262235Y35424943D01*
X23262285Y35424942D01*
X23262337Y35424945D01*
X23589559Y35431195D01*
X23589616Y35431194D01*
X23589688Y35431198D01*
X23924443Y35437448D01*
X23924517Y35437447D01*
X23924597Y35437451D01*
X24268857Y35443701D01*
X24268948Y35443700D01*
X24269035Y35443704D01*
X24624989Y35449954D01*
X24625096Y35449952D01*
X24625191Y35449957D01*
X24995305Y35456207D01*
X24995411Y35456205D01*
X24995527Y35456211D01*
X25382620Y35462461D01*
X25382738Y35462459D01*
X25382862Y35462465D01*
X25790203Y35468715D01*
X25790328Y35468712D01*
X25790459Y35468719D01*
X26221883Y35474969D01*
X26222028Y35474966D01*
X26222154Y35474972D01*
X26682229Y35481222D01*
X26682366Y35481219D01*
X26682511Y35481226D01*
X27176741Y35487476D01*
X27176879Y35487473D01*
X27177030Y35487480D01*
X27712147Y35493730D01*
X27712298Y35493726D01*
X27712442Y35493733D01*
X27996869Y35496776D01*
X27993767Y35792531D01*
X27987523Y36336245D01*
X27981273Y36837770D01*
X27981273Y36837773D01*
X27975026Y37303153D01*
X27975026Y37303154D01*
X27968781Y37738351D01*
X27962535Y38148052D01*
X27956289Y38536188D01*
X27950043Y38906101D01*
X27950043Y38906105D01*
X27943799Y39260469D01*
X27937550Y39602394D01*
X27931303Y39933495D01*
X27931303Y39933497D01*
X27925056Y40255960D01*
X27925056Y40255973D01*
X27918809Y40571599D01*
X27912560Y40882086D01*
X27906312Y41189001D01*
X27906312Y41189005D01*
X27900062Y41493851D01*
X27900118Y41496844D01*
X27899999Y41499834D01*
X27893751Y52801130D01*
X27887563Y53103271D01*
X27887563Y53103293D01*
X27887562Y53103317D01*
X27881311Y53410803D01*
X27881311Y53410836D01*
X27881309Y53410881D01*
X27875060Y53722264D01*
X27875060Y53722315D01*
X27875058Y53722366D01*
X27868807Y54039275D01*
X27868808Y54039349D01*
X27868805Y54039409D01*
X27862556Y54363591D01*
X27862557Y54363670D01*
X27862553Y54363749D01*
X27856303Y54697118D01*
X27856304Y54697201D01*
X27856299Y54697301D01*
X27850048Y55041973D01*
X27850050Y55042087D01*
X27850045Y55042183D01*
X27843796Y55400547D01*
X27843798Y55400658D01*
X27843792Y55400774D01*
X27837541Y55775559D01*
X27837543Y55775684D01*
X27837537Y55775808D01*
X27831288Y56170176D01*
X27831291Y56170308D01*
X27831284Y56170440D01*
X27825034Y56588105D01*
X27825037Y56588245D01*
X27825030Y56588384D01*
X27818779Y57033764D01*
X27818782Y57033909D01*
X27818775Y57034056D01*
X27812526Y57512481D01*
X27812529Y57512626D01*
X27812522Y57512779D01*
X27806272Y58030762D01*
X27806275Y58030908D01*
X27806268Y58031067D01*
X27803332Y58296768D01*
X27526617Y58293771D01*
X27526609Y58293771D01*
X26999438Y58287521D01*
X26999435Y58287521D01*
X26514139Y58281276D01*
X26063620Y58275032D01*
X25642192Y58268787D01*
X25642190Y58268787D01*
X25245461Y58262541D01*
X25245458Y58262541D01*
X24869377Y58256291D01*
X24869358Y58256291D01*
X24511394Y58250048D01*
X24168169Y58243804D01*
X24168151Y58243803D01*
X23837118Y58237553D01*
X23837106Y58237553D01*
X23516753Y58231310D01*
X23516752Y58231310D01*
X23204450Y58225060D01*
X23204441Y58225060D01*
X22899035Y58218815D01*
X22899033Y58218815D01*
X22598502Y58212566D01*
X22598489Y58212566D01*
X22301377Y58206316D01*
X22301375Y58206316D01*
X22006353Y58200067D01*
X22006334Y58200067D01*
X21711912Y58193818D01*
X21711895Y58193817D01*
X21416632Y58187567D01*
X21416608Y58187567D01*
X21416584Y58187566D01*
X21119067Y58181316D01*
X21119020Y58181316D01*
X21118989Y58181315D01*
X20817721Y58175065D01*
X20817678Y58175065D01*
X20817614Y58175062D01*
X20511020Y58168812D01*
X20510942Y58168813D01*
X20510883Y58168810D01*
X20197274Y58162560D01*
X20197202Y58162561D01*
X20197110Y58162556D01*
X19874633Y58156306D01*
X19874530Y58156308D01*
X19874443Y58156303D01*
X19541053Y58150053D01*
X19540946Y58150055D01*
X19540838Y58150049D01*
X19194225Y58143799D01*
X19194105Y58143801D01*
X19193988Y58143795D01*
X18831513Y58137545D01*
X18831394Y58137547D01*
X18831256Y58137540D01*
X18449862Y58131290D01*
X18449720Y58131293D01*
X18449587Y58131286D01*
X18045684Y58125036D01*
X18045536Y58125039D01*
X18045395Y58125032D01*
X17614709Y58118782D01*
X17614569Y58118785D01*
X17614408Y58118777D01*
X17151790Y58112527D01*
X17151635Y58112531D01*
X17151480Y58112523D01*
X16650631Y58106273D01*
X16650465Y58106277D01*
X16650317Y58106270D01*
X16403340Y58103447D01*
X16406227Y57845460D01*
X16412474Y57335735D01*
X16418719Y56866131D01*
X16418719Y56866129D01*
X16424965Y56430152D01*
X16424965Y56430145D01*
X16431216Y56022189D01*
X16437456Y55638735D01*
X16437456Y55638725D01*
X16443707Y55274953D01*
X16449947Y54928798D01*
X16449947Y54928792D01*
X16456193Y54596784D01*
X16462440Y54276830D01*
X16468686Y53966869D01*
X16468686Y53966861D01*
X16474934Y53665006D01*
X16481181Y53369587D01*
X16481181Y53369580D01*
X16487429Y53079008D01*
X16493679Y52791813D01*
X16499928Y52506571D01*
X16499873Y52503368D01*
X16500000Y52500166D01*
X16506250Y41218732D01*
X16512428Y40936550D01*
X16512428Y40936525D01*
X16512429Y40936501D01*
X16518679Y40648952D01*
X16518679Y40648917D01*
X16518681Y40648873D01*
X16524932Y40357722D01*
X16524931Y40357660D01*
X16524934Y40357608D01*
X16531183Y40061330D01*
X16531182Y40061262D01*
X16531186Y40061191D01*
X16537437Y39758152D01*
X16537436Y39758073D01*
X16537441Y39757980D01*
X16543690Y39446396D01*
X16543689Y39446301D01*
X16543694Y39446201D01*
X16549944Y39124093D01*
X16549942Y39123980D01*
X16549948Y39123872D01*
X16556199Y38789009D01*
X16556197Y38788879D01*
X16556203Y38788762D01*
X16562452Y38438596D01*
X16562450Y38438470D01*
X16562457Y38438332D01*
X16568708Y38069910D01*
X16568705Y38069773D01*
X16568713Y38069626D01*
X16574962Y37679483D01*
X16574959Y37679326D01*
X16574966Y37679185D01*
X16581216Y37263193D01*
X16581213Y37263045D01*
X16581221Y37262883D01*
X16587472Y36816069D01*
X16587468Y36815905D01*
X16587476Y36815748D01*
X16593725Y36332033D01*
X16593721Y36331870D01*
X16593729Y36331707D01*
X16596431Y36103455D01*
X16835855Y36106229D01*
X17328258Y36112472D01*
X17328261Y36112472D01*
X17782369Y36118722D01*
X17782377Y36118722D01*
X18203640Y36124967D01*
X18203643Y36124967D01*
X18597509Y36131212D01*
X18967979Y36137452D01*
X18967997Y36137453D01*
X19319459Y36143703D01*
X19319461Y36143703D01*
X19654096Y36149948D01*
X19654103Y36149948D01*
X19974565Y36156189D01*
X19974572Y36156189D01*
X20283686Y36162437D01*
X20583188Y36168685D01*
X20583198Y36168685D01*
X20874550Y36174928D01*
X21159849Y36181176D01*
X21159859Y36181176D01*
X21440539Y36187426D01*
X21440544Y36187426D01*
X21717776Y36193673D01*
X21717777Y36193673D01*
X21993194Y36199923D01*
X21993211Y36199923D01*
X22267982Y36206172D01*
X22267999Y36206173D01*
X22543516Y36212423D01*
X22543543Y36212423D01*
X22543567Y36212424D01*
X22821147Y36218674D01*
X22821186Y36218674D01*
X22821230Y36218676D01*
X23102265Y36224926D01*
X23102330Y36224925D01*
X23102381Y36224928D01*
X23388343Y36231178D01*
X23388405Y36231177D01*
X23388489Y36231182D01*
X23680956Y36237432D01*
X23681052Y36237431D01*
X23681131Y36237435D01*
X23981824Y36243685D01*
X23981927Y36243684D01*
X23982027Y36243689D01*
X24292854Y36249939D01*
X24292962Y36249937D01*
X24293083Y36249944D01*
X24616196Y36256194D01*
X24616319Y36256192D01*
X24616449Y36256199D01*
X24954306Y36262449D01*
X24954443Y36262447D01*
X24954581Y36262454D01*
X25310029Y36268704D01*
X25310175Y36268701D01*
X25310322Y36268709D01*
X25686705Y36274959D01*
X25686859Y36274956D01*
X25687014Y36274964D01*
X26088312Y36281214D01*
X26088483Y36281210D01*
X26088633Y36281218D01*
X26519641Y36287468D01*
X26519802Y36287465D01*
X26519973Y36287473D01*
X26986556Y36293723D01*
X26986728Y36293719D01*
X26986893Y36293727D01*
X27196422Y36296299D01*
X27193771Y36517155D01*
X27187526Y36992586D01*
X27187526Y36992591D01*
X27181284Y37430204D01*
X27181284Y37430221D01*
X27175035Y37837115D01*
X27168790Y38217230D01*
X27168790Y38217246D01*
X27162545Y38574997D01*
X27156301Y38913859D01*
X27150055Y39236735D01*
X27143811Y39546143D01*
X27143811Y39546148D01*
X27137566Y39844270D01*
X27131319Y40133055D01*
X27131319Y40133059D01*
X27125074Y40414240D01*
X27118826Y40689395D01*
X27118826Y40689405D01*
X27112580Y40959993D01*
X27112580Y40959994D01*
X27106332Y41227400D01*
X27100082Y41492941D01*
X27100136Y41496388D01*
X27099999Y41499833D01*
X27093751Y52761364D01*
X27087582Y53023565D01*
X27087582Y53023595D01*
X27087581Y53023619D01*
X27081332Y53291230D01*
X27081332Y53291271D01*
X27081330Y53291314D01*
X27075080Y53562234D01*
X27075080Y53562288D01*
X27075077Y53562351D01*
X27068826Y53838000D01*
X27068827Y53838082D01*
X27068823Y53838153D01*
X27062574Y54120047D01*
X27062575Y54120136D01*
X27062570Y54120227D01*
X27056319Y54410026D01*
X27056320Y54410126D01*
X27056314Y54410239D01*
X27050065Y54709785D01*
X27050067Y54709900D01*
X27050060Y54710021D01*
X27043810Y55021384D01*
X27043812Y55021516D01*
X27043805Y55021646D01*
X27037554Y55347194D01*
X27037556Y55347341D01*
X27037549Y55347480D01*
X27031300Y55689955D01*
X27031303Y55690110D01*
X27031295Y55690257D01*
X27025044Y56052880D01*
X27025047Y56053033D01*
X27025038Y56053202D01*
X27018789Y56439804D01*
X27018792Y56439973D01*
X27018784Y56440138D01*
X27012534Y56855341D01*
X27012538Y56855512D01*
X27012529Y56855684D01*
X27006278Y57305132D01*
X27006282Y57305304D01*
X27006273Y57305484D01*
X27003843Y57496289D01*
X26801709Y57493773D01*
X26801704Y57493773D01*
X26343566Y57487529D01*
X25921622Y57481288D01*
X25921621Y57481288D01*
X25529422Y57475038D01*
X25529413Y57475038D01*
X25163411Y57468799D01*
X25163400Y57468799D01*
X24818296Y57462549D01*
X24818291Y57462549D01*
X24492051Y57456310D01*
X24492041Y57456310D01*
X24180641Y57450060D01*
X24180628Y57450060D01*
X23882745Y57443820D01*
X23595299Y57437571D01*
X23595292Y57437571D01*
X23317277Y57431330D01*
X23317275Y57431330D01*
X23046399Y57425083D01*
X23046386Y57425083D01*
X22781196Y57418833D01*
X22781193Y57418833D01*
X22520664Y57412588D01*
X22520662Y57412588D01*
X22300000Y57407234D01*
X22300000Y56800000D01*
X22299075Y56776462D01*
X22291711Y56729966D01*
X22277164Y56685195D01*
X22255792Y56643250D01*
X22228122Y56605166D01*
X22194834Y56571878D01*
X22156750Y56544208D01*
X22114805Y56522836D01*
X22070034Y56508289D01*
X22023538Y56500925D01*
X22000000Y56500000D01*
X21976462Y56500925D01*
X21929966Y56508289D01*
X21885195Y56522836D01*
X21843250Y56544208D01*
X21805166Y56571878D01*
X21771878Y56605166D01*
X21744208Y56643250D01*
X21722836Y56685195D01*
X21708289Y56729966D01*
X21700925Y56776462D01*
X21700000Y56800000D01*
X21700000Y57700000D01*
X21700516Y57713108D01*
X21700439Y57716225D01*
X21700721Y57718334D01*
X21700925Y57723538D01*
X21704034Y57743166D01*
X21706665Y57762887D01*
X21707715Y57766408D01*
X21708289Y57770034D01*
X21714432Y57788937D01*
X21720114Y57808000D01*
X21721702Y57811313D01*
X21722836Y57814805D01*
X21731864Y57832521D01*
X21740455Y57850454D01*
X21742541Y57853476D01*
X21744208Y57856750D01*
X21755894Y57872833D01*
X21767186Y57889203D01*
X21769721Y57891864D01*
X21771878Y57894834D01*
X21785935Y57908890D01*
X21799651Y57923294D01*
X21802569Y57925524D01*
X21805166Y57928122D01*
X21821258Y57939813D01*
X21837048Y57951886D01*
X21840278Y57953631D01*
X21843250Y57955792D01*
X21860964Y57964817D01*
X21878458Y57974277D01*
X21881926Y57975497D01*
X21885195Y57977164D01*
X21904104Y57983307D01*
X21922861Y57989913D01*
X21926473Y57990575D01*
X21929966Y57991711D01*
X21949604Y57994821D01*
X21969163Y57998411D01*
X21974364Y57998742D01*
X21976462Y57999075D01*
X21979576Y57999075D01*
X21992671Y57999910D01*
X22248437Y58006160D01*
X22248454Y58006159D01*
X22248490Y58006162D01*
X22506110Y58012412D01*
X22506154Y58012411D01*
X22506197Y58012414D01*
X22766939Y58018664D01*
X22766997Y58018663D01*
X22767060Y58018667D01*
X23032249Y58024917D01*
X23032332Y58024915D01*
X23032401Y58024920D01*
X23303443Y58031170D01*
X23303536Y58031168D01*
X23303626Y58031174D01*
X23582045Y58037424D01*
X23582147Y58037422D01*
X23582257Y58037429D01*
X23869722Y58043679D01*
X23869842Y58043676D01*
X23869960Y58043684D01*
X24168338Y58049934D01*
X24168461Y58049931D01*
X24168601Y58049940D01*
X24480001Y58056190D01*
X24480150Y58056187D01*
X24480285Y58056195D01*
X24807129Y58062445D01*
X24807275Y58062442D01*
X24807432Y58062451D01*
X25152535Y58068701D01*
X25152702Y58068697D01*
X25152854Y58068706D01*
X25519529Y58074956D01*
X25519689Y58074952D01*
X25519862Y58074962D01*
X25912061Y58081212D01*
X25912236Y58081207D01*
X25912404Y58081217D01*
X26334901Y58087467D01*
X26335075Y58087462D01*
X26335251Y58087472D01*
X26793888Y58093722D01*
X26794059Y58093717D01*
X26794241Y58093727D01*
X27296266Y58099976D01*
X27319659Y58099348D01*
X27319728Y58099349D01*
X27319750Y58099345D01*
X27319814Y58099344D01*
X27344260Y58095783D01*
X27366314Y58092578D01*
X27366354Y58092565D01*
X27366398Y58092559D01*
X27388854Y58085569D01*
X27411266Y58078602D01*
X27411304Y58078582D01*
X27411346Y58078570D01*
X27432466Y58068138D01*
X27453480Y58057766D01*
X27453514Y58057741D01*
X27453554Y58057722D01*
X27472453Y58044347D01*
X27491913Y58030584D01*
X27491945Y58030552D01*
X27491980Y58030528D01*
X27508725Y58014193D01*
X27525622Y57997722D01*
X27525647Y57997687D01*
X27525679Y57997657D01*
X27539769Y57978763D01*
X27553775Y57959994D01*
X27553795Y57959955D01*
X27553821Y57959921D01*
X27564837Y57938949D01*
X27575680Y57918324D01*
X27575693Y57918283D01*
X27575714Y57918245D01*
X27583128Y57896356D01*
X27590796Y57873742D01*
X27590803Y57873697D01*
X27590817Y57873658D01*
X27594744Y57850713D01*
X27598751Y57827344D01*
X27598753Y57827287D01*
X27598759Y57827258D01*
X27598760Y57827169D01*
X27599976Y57803819D01*
X27606225Y57313124D01*
X27612466Y56864371D01*
X27618710Y56449502D01*
X27618711Y56449502D01*
X27624960Y56062899D01*
X27631199Y55700906D01*
X27631200Y55700901D01*
X27637443Y55358717D01*
X27637444Y55358712D01*
X27643689Y55033426D01*
X27643690Y55033426D01*
X27649935Y54722299D01*
X27656184Y54422753D01*
X27662426Y54133345D01*
X27668671Y53851611D01*
X27668672Y53851602D01*
X27674920Y53576072D01*
X27681168Y53305236D01*
X27687415Y53037685D01*
X27687416Y53037679D01*
X27693667Y52772034D01*
X27693612Y52768587D01*
X27693750Y52765143D01*
X27699997Y41503614D01*
X27706167Y41241466D01*
X27706166Y41241439D01*
X27706168Y41241416D01*
X27712418Y40973924D01*
X27712417Y40973882D01*
X27712420Y40973839D01*
X27718669Y40703128D01*
X27718668Y40703077D01*
X27718672Y40703015D01*
X27724923Y40427711D01*
X27724921Y40427633D01*
X27724926Y40427562D01*
X27731175Y40146205D01*
X27731173Y40146121D01*
X27731179Y40146031D01*
X27737430Y39857040D01*
X27737428Y39856934D01*
X27737434Y39856836D01*
X27743684Y39558479D01*
X27743681Y39558368D01*
X27743689Y39558249D01*
X27749938Y39248590D01*
X27749935Y39248465D01*
X27749943Y39248339D01*
X27756194Y38925189D01*
X27756191Y38925049D01*
X27756199Y38924913D01*
X27762448Y38585759D01*
X27762444Y38585612D01*
X27762453Y38585469D01*
X27768704Y38227394D01*
X27768700Y38227250D01*
X27768710Y38227086D01*
X27774960Y37846650D01*
X27774956Y37846489D01*
X27774965Y37846329D01*
X27781214Y37439435D01*
X27781209Y37439260D01*
X27781218Y37439106D01*
X27787470Y37000804D01*
X27787465Y37000627D01*
X27787474Y37000466D01*
X27793723Y36524696D01*
X27793718Y36524524D01*
X27793727Y36524357D01*
X27799978Y36003601D01*
X27799340Y35980206D01*
X27799341Y35980134D01*
X27799337Y35980111D01*
X27799336Y35980054D01*
X27795645Y35954793D01*
X27792548Y35933551D01*
X27792537Y35933518D01*
X27792531Y35933473D01*
X27784820Y35908737D01*
X27778551Y35888605D01*
X27778534Y35888573D01*
X27778522Y35888531D01*
X27767610Y35866465D01*
X27757696Y35846401D01*
X27757673Y35846369D01*
X27757655Y35846332D01*
X27743370Y35826167D01*
X27730495Y35807981D01*
X27730469Y35807955D01*
X27730444Y35807919D01*
X27712880Y35789929D01*
X27697618Y35774287D01*
X27697587Y35774265D01*
X27697558Y35774234D01*
X27675594Y35757870D01*
X27659876Y35746152D01*
X27659849Y35746138D01*
X27659809Y35746108D01*
X27636360Y35733804D01*
X27618197Y35724266D01*
X27618160Y35724254D01*
X27618123Y35724234D01*
X27594920Y35716387D01*
X27573608Y35709171D01*
X27573569Y35709165D01*
X27573530Y35709151D01*
X27550053Y35705144D01*
X27527205Y35701237D01*
X27527150Y35701235D01*
X27527126Y35701230D01*
X27527052Y35701230D01*
X27503681Y35700024D01*
X26994595Y35693778D01*
X26994592Y35693777D01*
X26528009Y35687527D01*
X26528004Y35687528D01*
X26097671Y35681287D01*
X26097655Y35681286D01*
X25696484Y35675038D01*
X25320439Y35668794D01*
X24965224Y35662548D01*
X24627547Y35656301D01*
X24627543Y35656302D01*
X24304687Y35650056D01*
X24304677Y35650057D01*
X23994294Y35643816D01*
X23994292Y35643815D01*
X23693791Y35637570D01*
X23693775Y35637568D01*
X23401309Y35631318D01*
X23401288Y35631319D01*
X23115618Y35625075D01*
X23115606Y35625074D01*
X22834570Y35618824D01*
X22834566Y35618825D01*
X22557127Y35612578D01*
X22557124Y35612577D01*
X22281607Y35606327D01*
X22281591Y35606328D01*
X22006822Y35600079D01*
X22006806Y35600077D01*
X21731389Y35593827D01*
X21731364Y35593828D01*
X21731341Y35593826D01*
X21453975Y35587576D01*
X21453939Y35587577D01*
X21453896Y35587574D01*
X21173217Y35581324D01*
X21173155Y35581326D01*
X21173105Y35581322D01*
X20887686Y35575072D01*
X20887615Y35575074D01*
X20887545Y35575069D01*
X20595873Y35568819D01*
X20595794Y35568821D01*
X20595704Y35568815D01*
X20296142Y35562565D01*
X20296044Y35562567D01*
X20295946Y35562561D01*
X19986696Y35556311D01*
X19986581Y35556314D01*
X19986475Y35556307D01*
X19665535Y35550057D01*
X19665418Y35550060D01*
X19665291Y35550052D01*
X19330391Y35543802D01*
X19330262Y35543805D01*
X19330127Y35543797D01*
X18978665Y35537547D01*
X18978514Y35537551D01*
X18978384Y35537543D01*
X18607336Y35531293D01*
X18607190Y35531297D01*
X18607039Y35531288D01*
X18212843Y35525038D01*
X18212692Y35525042D01*
X18212534Y35525033D01*
X17790945Y35518783D01*
X17790792Y35518787D01*
X17790627Y35518778D01*
X17336519Y35512528D01*
X17336353Y35512533D01*
X17336194Y35512524D01*
X16843290Y35506274D01*
X16843126Y35506279D01*
X16842961Y35506270D01*
X16303476Y35500021D01*
X16280078Y35500669D01*
X16280004Y35500668D01*
X16279980Y35500672D01*
X16279929Y35500673D01*
X16254976Y35504330D01*
X16233424Y35507482D01*
X16233393Y35507492D01*
X16233350Y35507498D01*
X16209337Y35514995D01*
X16188484Y35521498D01*
X16188451Y35521515D01*
X16188414Y35521526D01*
X16167656Y35531802D01*
X16146289Y35542372D01*
X16146258Y35542395D01*
X16146224Y35542411D01*
X16128103Y35555260D01*
X16107880Y35569589D01*
X16107851Y35569618D01*
X16107822Y35569638D01*
X16091545Y35585544D01*
X16074201Y35602481D01*
X16074179Y35602511D01*
X16074151Y35602538D01*
X16060208Y35621270D01*
X16046082Y35640235D01*
X16046064Y35640270D01*
X16046042Y35640299D01*
X16034908Y35661539D01*
X16024215Y35681924D01*
X16024204Y35681958D01*
X16024185Y35681993D01*
X16016656Y35704287D01*
X16009139Y35726520D01*
X16009133Y35726560D01*
X16009121Y35726593D01*
X16005310Y35748976D01*
X16001226Y35772925D01*
X16001224Y35772975D01*
X16001219Y35773001D01*
X16001219Y35773080D01*
X16000022Y35796451D01*
X15993771Y36324607D01*
X15987530Y36807676D01*
X15981279Y37254489D01*
X15981280Y37254498D01*
X15975038Y37669873D01*
X15968789Y38060016D01*
X15968790Y38060021D01*
X15962543Y38428154D01*
X15962544Y38428162D01*
X15956303Y38777810D01*
X15950052Y39112674D01*
X15943806Y39434561D01*
X15943807Y39434563D01*
X15937561Y39745950D01*
X15937562Y39745962D01*
X15931314Y40048817D01*
X15931315Y40048819D01*
X15925068Y40344956D01*
X15918819Y40635993D01*
X15918820Y40636001D01*
X15912571Y40923463D01*
X15906323Y41208805D01*
X15906379Y41212005D01*
X15906251Y41215206D01*
X15900002Y52496635D01*
X15893823Y52778671D01*
X15893824Y52778692D01*
X15893822Y52778715D01*
X15887571Y53065954D01*
X15887572Y53065989D01*
X15887569Y53066032D01*
X15881319Y53356680D01*
X15881321Y53356737D01*
X15881317Y53356788D01*
X15875068Y53652322D01*
X15875070Y53652385D01*
X15875065Y53652455D01*
X15868814Y53954443D01*
X15868816Y53954530D01*
X15868811Y53954608D01*
X15862562Y54264742D01*
X15862564Y54264831D01*
X15862558Y54264929D01*
X15856307Y54585070D01*
X15856310Y54585178D01*
X15856303Y54585284D01*
X15850053Y54917506D01*
X15850056Y54917628D01*
X15850049Y54917742D01*
X15843800Y55264392D01*
X15843803Y55264510D01*
X15843795Y55264644D01*
X15837544Y55628417D01*
X15837548Y55628560D01*
X15837540Y55628690D01*
X15831291Y56012712D01*
X15831295Y56012848D01*
X15831286Y56012997D01*
X15825035Y56420953D01*
X15825039Y56421108D01*
X15825031Y56421252D01*
X15818781Y56857535D01*
X15818785Y56857691D01*
X15818777Y56857842D01*
X15812528Y57327757D01*
X15812533Y57327913D01*
X15812524Y57328070D01*
X15806273Y57838106D01*
X15806278Y57838262D01*
X15806269Y57838425D01*
X15800020Y58396642D01*
X15800678Y58420067D01*
X15800677Y58420119D01*
X15800680Y58420136D01*
X15800681Y58420189D01*
X15804479Y58446037D01*
X15807509Y58466696D01*
X15807519Y58466726D01*
X15807524Y58466764D01*
X15814864Y58490244D01*
X15821543Y58511630D01*
X15821559Y58511661D01*
X15821569Y58511695D01*
X15831936Y58532616D01*
X15842434Y58553817D01*
X15842455Y58553846D01*
X15842470Y58553877D01*
X15855942Y58572861D01*
X15869667Y58592214D01*
X15869692Y58592238D01*
X15869712Y58592268D01*
X15885899Y58608820D01*
X15902573Y58625881D01*
X15902603Y58625902D01*
X15902626Y58625927D01*
X15920064Y58638896D01*
X15940338Y58653984D01*
X15940373Y58654002D01*
X15940398Y58654021D01*
X15960351Y58664470D01*
X15982036Y58675834D01*
X15982069Y58675844D01*
X15982101Y58675862D01*
X16004586Y58683446D01*
X16026638Y58690892D01*
X16026674Y58690898D01*
X16026706Y58690909D01*
X16051094Y58695051D01*
X16073047Y58698786D01*
X16073089Y58698788D01*
X16073117Y58698793D01*
X16073205Y58698793D01*
X16096573Y58699980D01*
X16643131Y58706226D01*
X16643145Y58706227D01*
X17143812Y58712474D01*
X17606303Y58718723D01*
X17606320Y58718722D01*
X18036396Y58724963D01*
X18036400Y58724964D01*
X18440025Y58731209D01*
X18440030Y58731210D01*
X18821425Y58737460D01*
X18821440Y58737459D01*
X19183405Y58743700D01*
X19183407Y58743701D01*
X19530005Y58749950D01*
X19862993Y58756193D01*
X19863007Y58756194D01*
X20185483Y58762444D01*
X20185501Y58762443D01*
X20498775Y58768686D01*
X20498792Y58768688D01*
X20805385Y58774938D01*
X20805405Y58774937D01*
X21106449Y58781183D01*
X21106465Y58781184D01*
X21403934Y58787432D01*
X21403934Y58787433D01*
X21699197Y58793683D01*
X21699214Y58793682D01*
X21993630Y58799931D01*
X21993647Y58799933D01*
X22288715Y58806183D01*
X22288736Y58806182D01*
X22288759Y58806184D01*
X22585870Y58812434D01*
X22585913Y58812433D01*
X22585943Y58812435D01*
X22886561Y58818685D01*
X22886614Y58818684D01*
X22886664Y58818687D01*
X23192314Y58824937D01*
X23192374Y58824935D01*
X23192444Y58824940D01*
X23504747Y58831190D01*
X23504826Y58831188D01*
X23504904Y58831193D01*
X23825610Y58837443D01*
X23825694Y58837441D01*
X23825792Y58837447D01*
X24156825Y58843697D01*
X24156937Y58843694D01*
X24157030Y58843700D01*
X24500535Y58849950D01*
X24500648Y58849947D01*
X24500761Y58849954D01*
X24859161Y58856204D01*
X24859273Y58856201D01*
X24859407Y58856209D01*
X25235488Y58862459D01*
X25235622Y58862455D01*
X25235751Y58862463D01*
X25632745Y58868713D01*
X25632886Y58868709D01*
X25633022Y58868717D01*
X26054739Y58874967D01*
X26054885Y58874963D01*
X26055028Y58874971D01*
X26506004Y58881221D01*
X26506152Y58881217D01*
X26506302Y58881225D01*
X26992022Y58887475D01*
X26992170Y58887471D01*
X26992326Y58887479D01*
X27519496Y58893729D01*
X27519656Y58893724D01*
X27519804Y58893732D01*
X28096751Y58899981D01*
X28120152Y58899315D01*
X28120232Y58899316D01*
X28120258Y58899312D01*
X28120298Y58899311D01*
X28141593Y58896174D01*
X28166807Y58892466D01*
X28166840Y58892455D01*
X28166871Y58892451D01*
X28187469Y58886003D01*
X28211736Y58878415D01*
X28211768Y58878398D01*
X28211797Y58878390D01*
X28233926Y58867414D01*
X28253914Y58857507D01*
X28253936Y58857491D01*
X28253971Y58857474D01*
X28274461Y58842922D01*
X28292302Y58830260D01*
X28292326Y58830236D01*
X28292352Y58830218D01*
X28309111Y58813817D01*
X28325955Y58797342D01*
X28325973Y58797316D01*
X28325999Y58797292D01*
X28340228Y58778145D01*
X28354044Y58759566D01*
X28354059Y58759535D01*
X28354079Y58759510D01*
X28365257Y58738146D01*
X28375879Y58717859D01*
X28375888Y58717830D01*
X28375905Y58717799D01*
X28384285Y58692925D01*
X28390919Y58673252D01*
X28390923Y58673224D01*
X28390936Y58673188D01*
X28395258Y58647688D01*
X28398797Y58626840D01*
X28398799Y58626797D01*
X28398803Y58626775D01*
X28398803Y58626706D01*
X28399982Y58603314D01*
X28406232Y58037696D01*
X28412474Y57520317D01*
X28418719Y57042184D01*
X28424966Y56597083D01*
X28431212Y56179682D01*
X28437457Y55785565D01*
X28443704Y55411007D01*
X28449949Y55052869D01*
X28449950Y55052853D01*
X28456201Y54708181D01*
X28456200Y54708166D01*
X28462444Y54375155D01*
X28468690Y54051121D01*
X28468691Y54051107D01*
X28474939Y53734302D01*
X28474940Y53734302D01*
X28481187Y53422999D01*
X28487437Y53115559D01*
X28493687Y52810423D01*
X28493630Y52807435D01*
X28493750Y52804445D01*
X28499997Y41503157D01*
X28506187Y41201256D01*
X28506186Y41201237D01*
X28506188Y41201213D01*
X28512437Y40894228D01*
X28512436Y40894190D01*
X28512438Y40894160D01*
X28518689Y40583573D01*
X28518688Y40583524D01*
X28518691Y40583473D01*
X28524941Y40267708D01*
X28524939Y40267652D01*
X28524944Y40267582D01*
X28531194Y39944964D01*
X28531192Y39944890D01*
X28531197Y39944813D01*
X28537447Y39613535D01*
X28537445Y39613443D01*
X28537450Y39613358D01*
X28543699Y39271433D01*
X28543696Y39271328D01*
X28543702Y39271236D01*
X28549953Y38916451D01*
X28549950Y38916344D01*
X28549957Y38916231D01*
X28556207Y38546080D01*
X28556204Y38545962D01*
X28556211Y38545842D01*
X28562461Y38157452D01*
X28562458Y38157326D01*
X28562465Y38157198D01*
X28568715Y37747229D01*
X28568711Y37747096D01*
X28568719Y37746961D01*
X28574968Y37311484D01*
X28574964Y37311348D01*
X28574972Y37311207D01*
X28581223Y36845535D01*
X28581219Y36845394D01*
X28581227Y36845246D01*
X28587477Y36343721D01*
X28587472Y36343568D01*
X28587480Y36343428D01*
X28593730Y35799122D01*
X28593725Y35798971D01*
X28593733Y35798825D01*
X28599982Y35203147D01*
X28599307Y35179719D01*
X28599308Y35179662D01*
X28599305Y35179644D01*
X28599304Y35179600D01*
X28595501Y35153845D01*
X28592442Y35133090D01*
X28592434Y35133065D01*
X28592429Y35133030D01*
X28584981Y35109264D01*
X28578375Y35088166D01*
X28578361Y35088138D01*
X28578352Y35088109D01*
X28567282Y35065809D01*
X28557452Y35045995D01*
X28557436Y35045974D01*
X28557421Y35045942D01*
X28541728Y35023861D01*
X28530191Y35007617D01*
X28530173Y35007599D01*
X28530152Y35007569D01*
X28511167Y34988182D01*
X28497261Y34973975D01*
X28497239Y34973960D01*
X28497215Y34973934D01*
X28475212Y34957593D01*
X28459475Y34945899D01*
X28459452Y34945888D01*
X28459424Y34945866D01*
X28434570Y34932873D01*
X28417761Y34924080D01*
X28417738Y34924073D01*
X28417705Y34924055D01*
X28390338Y34914845D01*
X28373148Y34909055D01*
X28373124Y34909052D01*
X28373089Y34909039D01*
X28346118Y34904478D01*
X28326734Y34901194D01*
X28326697Y34901193D01*
X28326673Y34901188D01*
X28326598Y34901188D01*
X28303207Y34900017D01*
X27719157Y34893771D01*
X27719154Y34893770D01*
X27184038Y34887520D01*
X27184029Y34887521D01*
X26690097Y34881274D01*
X26690092Y34881275D01*
X26230590Y34875032D01*
X26230574Y34875031D01*
X25799151Y34868781D01*
X25799149Y34868782D01*
X25392066Y34862535D01*
X25392063Y34862536D01*
X25005213Y34856289D01*
X25005207Y34856290D01*
X24635533Y34850047D01*
X24635523Y34850046D01*
X24279751Y34843800D01*
X24279748Y34843799D01*
X23935489Y34837549D01*
X23935485Y34837550D01*
X23600888Y34831302D01*
X23600874Y34831303D01*
X23273795Y34825055D01*
X23273794Y34825056D01*
X22952486Y34818809D01*
X22952475Y34818808D01*
X22635018Y34812558D01*
X22635015Y34812559D01*
X22320080Y34806310D01*
X22320072Y34806309D01*
X22005968Y34800059D01*
X22005958Y34800060D01*
X22005956Y34800059D01*
X21691239Y34793809D01*
X21691222Y34793810D01*
X21691199Y34793808D01*
X21374340Y34787558D01*
X21374302Y34787559D01*
X21374272Y34787557D01*
X21053717Y34781307D01*
X21053672Y34781308D01*
X21053622Y34781305D01*
X20727742Y34775055D01*
X20727677Y34775057D01*
X20727620Y34775053D01*
X20394687Y34768803D01*
X20394617Y34768805D01*
X20394540Y34768800D01*
X20052690Y34762550D01*
X20052604Y34762552D01*
X20052519Y34762547D01*
X19699704Y34756297D01*
X19699603Y34756300D01*
X19699511Y34756294D01*
X19333444Y34750044D01*
X19333344Y34750047D01*
X19333232Y34750040D01*
X18951331Y34743790D01*
X18951221Y34743793D01*
X18951101Y34743786D01*
X18550401Y34737536D01*
X18550269Y34737540D01*
X18550155Y34737533D01*
X18127214Y34731283D01*
X18127088Y34731287D01*
X18126954Y34731279D01*
X17677717Y34725029D01*
X17677587Y34725033D01*
X17677447Y34725025D01*
X17197081Y34718775D01*
X17196936Y34718779D01*
X17196802Y34718772D01*
X16679471Y34712522D01*
X16679326Y34712526D01*
X16679187Y34712519D01*
X16117748Y34706269D01*
X16117604Y34706274D01*
X16117461Y34706266D01*
X15503052Y34700016D01*
X15479597Y34700699D01*
X15479563Y34700698D01*
X15479552Y34700700D01*
X15479505Y34700701D01*
X15454312Y34704430D01*
X15432993Y34707579D01*
X15432965Y34707588D01*
X15432937Y34707592D01*
X15410045Y34714774D01*
X15388073Y34721662D01*
X15388050Y34721674D01*
X15388020Y34721683D01*
X15365575Y34732834D01*
X15345909Y34742598D01*
X15345888Y34742614D01*
X15345860Y34742627D01*
X15326003Y34756748D01*
X15307540Y34769872D01*
X15307520Y34769892D01*
X15307497Y34769908D01*
X15291522Y34785562D01*
X15273909Y34802813D01*
X15273891Y34802838D01*
X15273872Y34802856D01*
X15260588Y34820754D01*
X15245846Y34840608D01*
X15245833Y34840634D01*
X15245816Y34840656D01*
X15234675Y34861983D01*
X15224041Y34882329D01*
X15224033Y34882355D01*
X15224018Y34882382D01*
X15216002Y34906227D01*
X15209030Y34926947D01*
X15209026Y34926974D01*
X15209016Y34927002D01*
X15205069Y34950388D01*
X15201185Y34973364D01*
X15201184Y34973403D01*
X15201180Y34973421D01*
X15201180Y34973476D01*
X15200016Y34996892D01*
X15193766Y35599970D01*
X15187520Y36151936D01*
X15187521Y36151950D01*
X15181277Y36661417D01*
X15175027Y37136186D01*
X15175028Y37136194D01*
X15168783Y37580860D01*
X15162533Y38001174D01*
X15162534Y38001183D01*
X15156290Y38400128D01*
X15150040Y38781993D01*
X15143794Y39149033D01*
X15137546Y39504009D01*
X15137547Y39504017D01*
X15131299Y39849185D01*
X15125051Y40186598D01*
X15125052Y40186602D01*
X15118803Y40518111D01*
X15118804Y40518127D01*
X15112556Y40845463D01*
X15112557Y40845466D01*
X15106306Y41170299D01*
X15106363Y41173094D01*
X15106250Y41175904D01*
X15100002Y52497052D01*
X15093806Y52818768D01*
X15093807Y52818783D01*
X15093805Y52818806D01*
X15087555Y53145536D01*
X15087556Y53145573D01*
X15087554Y53145603D01*
X15081305Y53476127D01*
X15081306Y53476168D01*
X15081303Y53476218D01*
X15075052Y53812214D01*
X15075054Y53812275D01*
X15075050Y53812332D01*
X15068800Y54155579D01*
X15068802Y54155645D01*
X15068797Y54155722D01*
X15062547Y54508144D01*
X15062549Y54508224D01*
X15062544Y54508308D01*
X15056294Y54872017D01*
X15056297Y54872111D01*
X15056291Y54872203D01*
X15050042Y55249553D01*
X15050045Y55249658D01*
X15050039Y55249756D01*
X15043788Y55643408D01*
X15043791Y55643513D01*
X15043784Y55643632D01*
X15037534Y56056641D01*
X15037538Y56056766D01*
X15037531Y56056879D01*
X15031281Y56492793D01*
X15031284Y56492912D01*
X15031277Y56493045D01*
X15025027Y56956043D01*
X15025031Y56956180D01*
X15025024Y56956306D01*
X15018775Y57451365D01*
X15018779Y57451503D01*
X15018772Y57451635D01*
X15012522Y57984772D01*
X15012526Y57984911D01*
X15012519Y57985048D01*
X15006268Y58563620D01*
X15006272Y58563758D01*
X15006265Y58563900D01*
X15000016Y59197039D01*
X15000706Y59220495D01*
X15000705Y59220531D01*
X15000707Y59220542D01*
X15000708Y59220585D01*
X15004480Y59246019D01*
X15007601Y59267099D01*
X15007609Y59267124D01*
X15007613Y59267152D01*
X15015188Y59291273D01*
X15021697Y59312013D01*
X15021708Y59312034D01*
X15021717Y59312064D01*
X15032928Y59334613D01*
X15042646Y59354171D01*
X15042662Y59354192D01*
X15042674Y59354218D01*
X15056718Y59373953D01*
X15069932Y59392531D01*
X15069951Y59392550D01*
X15069967Y59392573D01*
X15087068Y59410014D01*
X15102884Y59426152D01*
X15102905Y59426167D01*
X15102925Y59426188D01*
X15122611Y59440790D01*
X15140688Y59454204D01*
X15140712Y59454216D01*
X15140734Y59454233D01*
X15161321Y59464979D01*
X15182416Y59475996D01*
X15182444Y59476005D01*
X15182466Y59476017D01*
X15206878Y59484216D01*
X15227039Y59490992D01*
X15227060Y59490995D01*
X15227091Y59491006D01*
X15253080Y59495385D01*
X15273458Y59498823D01*
X15273493Y59498824D01*
X15273512Y59498828D01*
X15273572Y59498828D01*
X15296986Y59499985D01*
X15918751Y59506234D01*
X16487645Y59512479D01*
X17013203Y59518725D01*
X17013206Y59518726D01*
X17502669Y59524976D01*
X17502683Y59524975D01*
X17961111Y59531218D01*
X17961118Y59531219D01*
X18394405Y59537469D01*
X18394419Y59537468D01*
X18805677Y59543711D01*
X18805681Y59543712D01*
X19199106Y59549958D01*
X19199106Y59549959D01*
X19577624Y59556209D01*
X19577627Y59556208D01*
X19943339Y59562453D01*
X19943351Y59562454D01*
X20299125Y59568701D01*
X20299128Y59568702D01*
X20646980Y59574952D01*
X20646986Y59574951D01*
X20988534Y59581198D01*
X20988541Y59581199D01*
X21325934Y59587449D01*
X21325939Y59587448D01*
X21660645Y59593698D01*
X21660663Y59593697D01*
X21700000Y59594434D01*
X21700000Y60600000D01*
X21700925Y60623538D01*
X21701210Y60625331D01*
X21701231Y60627150D01*
X21704889Y60648563D01*
X21708289Y60670034D01*
X21708852Y60671764D01*
X21709157Y60673554D01*
X21716112Y60694108D01*
X21722836Y60714805D01*
X21723663Y60716426D01*
X21724244Y60718146D01*
X21734337Y60737376D01*
X21744208Y60756750D01*
X21745277Y60758219D01*
X21746121Y60759830D01*
X21759106Y60777254D01*
X21771878Y60794834D01*
X21773165Y60796120D01*
X21774249Y60797576D01*
X21789795Y60812750D01*
X21805166Y60828122D01*
X21806636Y60829189D01*
X21807937Y60830460D01*
X21825670Y60843018D01*
X21843250Y60855792D01*
X21844871Y60856617D01*
X21846352Y60857667D01*
X21865816Y60867289D01*
X21885195Y60877164D01*
X21886925Y60877726D01*
X21888553Y60878531D01*
X21909294Y60884994D01*
X21929966Y60891711D01*
X21931761Y60891995D01*
X21933496Y60892536D01*
X21955016Y60895678D01*
X21976462Y60899075D01*
X21978277Y60899075D01*
X21980078Y60899338D01*
X22003625Y60899978D01*
X22199326Y60897613D01*
G37*
%TD.AperFunction*%
%TD*%
D11*
%TO.P,D4,1*%
%TO.N,/CLAMP*%
X31000000Y68100000D03*
%TO.P,D4,2*%
%TO.N,/VIN*%
X31000000Y64100000D03*
%TD*%
D12*
%TO.P,R4,1*%
%TO.N,/RREF*%
X17825000Y69200000D03*
%TO.P,R4,2*%
%TO.N,/PGND*%
X19475000Y69200000D03*
%TD*%
D13*
%TO.P,R8,1*%
%TO.N,/VIN*%
X17425000Y80000000D03*
%TO.P,R8,2*%
%TO.N,/VIN_DAMP*%
X22575000Y80000000D03*
%TD*%
D14*
%TO.P,C2,1*%
%TO.N,/VIN*%
X26000000Y66525000D03*
%TO.P,C2,2*%
%TO.N,/PGND*%
X26000000Y69475000D03*
%TD*%
D15*
%TO.P,F1,1*%
%TO.N,/VIN_RAW*%
X14225000Y87000000D03*
%TO.P,F1,2*%
%TO.N,/VIN_FUSED*%
X10775000Y87000000D03*
%TD*%
D16*
%TO.P,U1,1*%
%TO.N,/UVLO*%
X10898500Y69905000D03*
%TO.P,U1,2*%
%TO.N,/INTVCC*%
X10898500Y68635000D03*
%TO.P,U1,3*%
%TO.N,/VIN*%
X10898500Y67365000D03*
%TO.P,U1,4*%
%TO.N,/PGND*%
X10898500Y66095000D03*
%TO.P,U1,5*%
%TO.N,/SW*%
X16101500Y66095000D03*
%TO.P,U1,6*%
%TO.N,/RFB*%
X16101500Y67365000D03*
%TO.P,U1,7*%
%TO.N,/RREF*%
X16101500Y68635000D03*
%TO.P,U1,8*%
%TO.N,/TC*%
X16101500Y69905000D03*
D17*
%TO.P,U1,9*%
%TO.N,/PGND*%
X13500000Y68000000D03*
%TD*%
D18*
%TO.P,D2,1*%
%TO.N,/+5V_ISO*%
X23000000Y25880000D03*
D19*
%TO.P,D2,2*%
%TO.N,/SEC_A*%
X22080000Y29862000D03*
X23920000Y29862000D03*
%TD*%
D20*
%TO.P,C1,1*%
%TO.N,/VIN*%
X8975000Y66365000D03*
%TO.P,C1,2*%
%TO.N,/PGND*%
X6025000Y66365000D03*
%TD*%
D12*
%TO.P,R2,1*%
%TO.N,/UVLO*%
X14675000Y76000000D03*
%TO.P,R2,2*%
%TO.N,/PGND*%
X16325000Y76000000D03*
%TD*%
D21*
%TO.P,C5,1*%
%TO.N,/INTVCC*%
X9275000Y68800000D03*
%TO.P,C5,2*%
%TO.N,/PGND*%
X7725000Y68800000D03*
%TD*%
D22*
%TO.P,C8,1*%
%TO.N,/+5V_ISO*%
X15800000Y18500000D03*
%TO.P,C8,2*%
%TO.N,/GND_ISO*%
X10200000Y18500000D03*
%TD*%
D23*
%TO.P,D1,1*%
%TO.N,/VIN*%
X10000000Y80150000D03*
D24*
%TO.P,D1,2*%
%TO.N,/VIN_FUSED*%
X10000000Y82525000D03*
%TD*%
D25*
%TO.P,C7,1*%
%TO.N,/VIN_DAMP*%
X28800000Y78000000D03*
%TO.P,C7,2*%
%TO.N,/PGND*%
X36200000Y78000000D03*
%TD*%
D26*
%TO.P,J2,1*%
%TO.N,/+5V_ISO*%
X24500000Y8000000D03*
D27*
%TO.P,J2,2*%
%TO.N,/GND_ISO*%
X19500000Y8000000D03*
%TD*%
D12*
%TO.P,R1,1*%
%TO.N,/VIN*%
X11675000Y76000000D03*
%TO.P,R1,2*%
%TO.N,/UVLO*%
X13325000Y76000000D03*
%TD*%
D26*
%TO.P,J1,1*%
%TO.N,/VIN_RAW*%
X19500000Y87000000D03*
D27*
%TO.P,J1,2*%
%TO.N,/PGND*%
X24500000Y87000000D03*
%TD*%
D28*
%TO.P,R3,1*%
%TO.N,/SW*%
X19475000Y67365000D03*
%TO.P,R3,2*%
%TO.N,/RFB*%
X17825000Y67365000D03*
%TD*%
D29*
%TO.P,T1,1*%
%TO.N,/VIN*%
X24871953Y60073763D03*
%TO.P,T1,2*%
%TO.N,/SW*%
X19128047Y60073763D03*
%TO.P,T1,3*%
%TO.N,/GND_ISO*%
X20540116Y33532645D03*
%TO.P,T1,4*%
%TO.N,/SEC_A*%
X22775000Y37270417D03*
%TO.P,T1,5*%
%TO.N,unconnected-(T1-P_MID-Pad5)*%
X22000000Y56800000D03*
%TD*%
D30*
%TO.P,R5,1*%
%TO.N,/TC*%
X16101500Y71675000D03*
%TO.P,R5,2*%
%TO.N,/RREF*%
X16101500Y73325000D03*
%TD*%
D31*
%TO.P,D3,1*%
%TO.N,/CLAMP*%
X22000000Y68150000D03*
D32*
%TO.P,D3,2*%
%TO.N,/SW*%
X22000000Y65775000D03*
%TD*%
D22*
%TO.P,C3,1*%
%TO.N,/+5V_ISO*%
X25800000Y18500000D03*
%TO.P,C3,2*%
%TO.N,/GND_ISO*%
X20200000Y18500000D03*
%TD*%
D33*
%TO.P,R6,1*%
%TO.N,/VIN*%
X27462500Y63600000D03*
%TO.P,R6,2*%
%TO.N,/SNUB*%
X24537500Y63600000D03*
%TD*%
D34*
%TO.P,C6,1*%
%TO.N,/SNUB*%
X22950000Y63600000D03*
%TO.P,C6,2*%
%TO.N,/SW*%
X21050000Y63600000D03*
%TD*%
D35*
%TO.P,R7,1*%
%TO.N,/+5V_ISO*%
X31000000Y19962500D03*
%TO.P,R7,2*%
%TO.N,/GND_ISO*%
X31000000Y17037500D03*
%TD*%
D36*
%TO.P,C4,1*%
%TO.N,/+5V_ISO*%
X27025000Y25880000D03*
%TO.P,C4,2*%
%TO.N,/GND_ISO*%
X29975000Y25880000D03*
%TD*%
D37*
%TO.N,/GND_ISO*%
X31000000Y17037500D03*
X20200000Y18500000D03*
D38*
X12000000Y29000000D03*
X9000000Y29000000D03*
X33000000Y14000000D03*
X13000000Y7000000D03*
X33000000Y29000000D03*
X34500000Y22000000D03*
X17500000Y14200000D03*
X21000000Y22000000D03*
X22000000Y5500000D03*
X9000000Y22000000D03*
X33000000Y25000000D03*
D37*
X10200000Y18500000D03*
D38*
X14000000Y25000000D03*
D39*
X30200000Y23000000D03*
D38*
X29000000Y14000000D03*
D37*
X20169595Y30500000D03*
D38*
X16000000Y29000000D03*
X22000000Y11000000D03*
D37*
X29975000Y25880000D03*
D38*
X34000000Y9000000D03*
D37*
X19269595Y30500000D03*
D38*
X14000000Y14000000D03*
X29000000Y7000000D03*
X9000000Y14000000D03*
%TO.N,/PGND*%
X8500000Y73500000D03*
X7500000Y87000000D03*
X7500000Y63600000D03*
D39*
X14400000Y64350000D03*
D38*
X10898500Y66095000D03*
X26000000Y69475000D03*
X14300000Y68550000D03*
X7000000Y75000000D03*
X6500000Y72000000D03*
X36000000Y64000000D03*
X25000000Y73000000D03*
X13000000Y64500000D03*
X12700000Y67450000D03*
X35000000Y73000000D03*
X22000000Y77000000D03*
X6500000Y63000000D03*
X36200000Y78000000D03*
X36000000Y69000000D03*
X37000000Y73000000D03*
X12700000Y68550000D03*
X6025000Y66365000D03*
X6500000Y84000000D03*
X34000000Y64000000D03*
X7725000Y68800000D03*
X14300000Y67450000D03*
X36500000Y85000000D03*
X21000000Y74500000D03*
X19475000Y69200000D03*
X16325000Y76000000D03*
D37*
%TO.N,/SEC_A*%
X22550000Y29862000D03*
X23450000Y29862000D03*
D38*
%TO.N,/VIN*%
X11675000Y76000000D03*
D40*
X8975000Y66365000D03*
X10000000Y80150000D03*
X26000000Y66525000D03*
%TD*%
%TO.N,/+5V_ISO*%
D41*
X25800000Y18500000D02*
X29537500Y18500000D01*
D42*
X25800000Y18500000D02*
X25800000Y9300000D01*
D43*
X27025000Y25880000D02*
X27025000Y19725000D01*
X15800000Y22655000D02*
X15800000Y18500000D01*
X23000000Y25880000D02*
X19025000Y25880000D01*
D42*
X25800000Y9300000D02*
X24500000Y8000000D01*
D43*
X27025000Y19725000D02*
X25800000Y18500000D01*
D41*
X29537500Y18500000D02*
X31000000Y19962500D01*
D43*
X19025000Y25880000D02*
X15800000Y22655000D01*
X23000000Y25880000D02*
X27025000Y25880000D01*
%TO.N,/CLAMP*%
D44*
X30900000Y68000000D02*
X31000000Y68100000D01*
X22150000Y68000000D02*
X30900000Y68000000D01*
X22000000Y68150000D02*
X22150000Y68000000D01*
%TO.N,/GND_ISO*%
D43*
X20540116Y33532645D02*
X20169595Y30500000D01*
D45*
X19269595Y30500000D02*
X20169595Y30500000D01*
%TO.N,/INTVCC*%
D46*
X9440000Y68635000D02*
X10898500Y68635000D01*
X9275000Y68800000D02*
X9440000Y68635000D01*
%TO.N,/RFB*%
D47*
X17825000Y67365000D02*
X16101500Y67365000D01*
%TO.N,/RREF*%
X16101500Y73325000D02*
X18650000Y73325000D01*
X18650000Y73325000D02*
X18650000Y70025000D01*
X16101500Y68635000D02*
X17260000Y68635000D01*
X18650000Y70025000D02*
X17825000Y69200000D01*
X17260000Y68635000D02*
X17825000Y69200000D01*
%TO.N,/SEC_A*%
D48*
X23000000Y29862000D02*
X23450000Y29862000D01*
X23450000Y29862000D02*
X23920000Y29862000D01*
X22550000Y29862000D02*
X23000000Y29862000D01*
X22080000Y29862000D02*
X22550000Y29862000D01*
%TO.N,/SNUB*%
D44*
X24537500Y63600000D02*
X22950000Y63600000D01*
%TO.N,/SW*%
D49*
X19475000Y64125000D02*
X20000000Y63600000D01*
D50*
X22000000Y65775000D02*
X21050000Y64825000D01*
X19128047Y60073763D02*
X18378023Y61850000D01*
D49*
X19475000Y67365000D02*
X19475000Y64125000D01*
X20000000Y63600000D02*
X20128023Y63600000D01*
D51*
X16101500Y63469716D02*
X19128047Y60073763D01*
X16101500Y66095000D02*
X16101500Y63469716D01*
D50*
X21050000Y64825000D02*
X21050000Y63600000D01*
X20128023Y63600000D02*
X21050000Y63600000D01*
X18378023Y61850000D02*
X20128023Y63600000D01*
%TO.N,/TC*%
D47*
X16101500Y69905000D02*
X16101500Y71675000D01*
%TO.N,/UVLO*%
X13325000Y76000000D02*
X14675000Y76000000D01*
X11500000Y70506500D02*
X10898500Y69905000D01*
X11500000Y74175000D02*
X11500000Y70506500D01*
X13325000Y76000000D02*
X11500000Y74175000D01*
%TO.N,/VIN*%
D52*
X8975000Y67365000D02*
X10898500Y67365000D01*
D51*
X27462500Y63033716D02*
X24871953Y60073763D01*
D41*
X10000000Y80150000D02*
X10000000Y78500000D01*
X10000000Y78500000D02*
X15925000Y78500000D01*
D51*
X26000000Y66525000D02*
X26000000Y65062500D01*
D52*
X8975000Y66365000D02*
X8975000Y67365000D01*
D51*
X26000000Y65062500D02*
X27462500Y63600000D01*
D41*
X30500000Y63600000D02*
X27462500Y63600000D01*
D51*
X27462500Y63600000D02*
X27462500Y63033716D01*
D41*
X31000000Y64100000D02*
X30500000Y63600000D01*
X15925000Y78500000D02*
X17425000Y80000000D01*
%TO.N,/VIN_DAMP*%
X22575000Y80000000D02*
X26800000Y80000000D01*
X26800000Y80000000D02*
X28800000Y78000000D01*
%TO.N,/VIN_FUSED*%
D51*
X10775000Y87000000D02*
X10000000Y86225000D01*
X10000000Y86225000D02*
X10000000Y82525000D01*
%TO.N,/VIN_RAW*%
X19500000Y87000000D02*
X14225000Y87000000D01*
%TD*%
%TA.AperFunction,Conductor*%
%TO.N,/PGND*%
G36*
X36109280Y88981093D02*
G01*
X36145244Y88931593D01*
X36148187Y88920314D01*
X36197431Y88672746D01*
X36294414Y88353033D01*
X36422273Y88044355D01*
X36422286Y88044328D01*
X36579773Y87749688D01*
X36695965Y87575797D01*
X36765399Y87471882D01*
X36977357Y87213610D01*
X37213610Y86977357D01*
X37471882Y86765399D01*
X37646462Y86648748D01*
X37749677Y86579781D01*
X37749690Y86579773D01*
X37811310Y86546837D01*
X37947669Y86473952D01*
X37990075Y86429848D01*
X38000000Y86386643D01*
X38000000Y62599000D01*
X37981093Y62540809D01*
X37931593Y62504845D01*
X37901000Y62500000D01*
X31981114Y62500000D01*
X31922923Y62518907D01*
X31886959Y62568407D01*
X31886959Y62629593D01*
X31921785Y62678253D01*
X31945100Y62695708D01*
X32007546Y62742454D01*
X32093796Y62857669D01*
X32097472Y62867523D01*
X32144089Y62992512D01*
X32144088Y62992512D01*
X32144091Y62992517D01*
X32150500Y63052127D01*
X32150499Y65147872D01*
X32144091Y65207483D01*
X32140493Y65217130D01*
X32093797Y65342330D01*
X32007549Y65457542D01*
X32007548Y65457543D01*
X32007546Y65457546D01*
X32007541Y65457550D01*
X31892329Y65543798D01*
X31757488Y65594090D01*
X31757483Y65594091D01*
X31757481Y65594092D01*
X31757477Y65594092D01*
X31726249Y65597450D01*
X31697873Y65600500D01*
X31697870Y65600500D01*
X30302133Y65600500D01*
X30302129Y65600500D01*
X30302128Y65600499D01*
X30294949Y65599728D01*
X30242519Y65594092D01*
X30242514Y65594091D01*
X30107670Y65543798D01*
X29992458Y65457550D01*
X29992450Y65457542D01*
X29906202Y65342330D01*
X29855910Y65207489D01*
X29855908Y65207478D01*
X29849500Y65147871D01*
X29849500Y64449500D01*
X29830593Y64391309D01*
X29781093Y64355345D01*
X29750500Y64350500D01*
X28331108Y64350500D01*
X28272917Y64369407D01*
X28238350Y64414902D01*
X28218796Y64467331D01*
X28183449Y64514548D01*
X28132549Y64582542D01*
X28132548Y64582543D01*
X28132546Y64582546D01*
X28132541Y64582550D01*
X28017329Y64668798D01*
X27882488Y64719090D01*
X27882483Y64719091D01*
X27882481Y64719092D01*
X27882477Y64719092D01*
X27851249Y64722450D01*
X27822873Y64725500D01*
X27822870Y64725500D01*
X27580796Y64725500D01*
X27522605Y64744407D01*
X27510792Y64754496D01*
X26879496Y65385793D01*
X26851719Y65440310D01*
X26850500Y65455797D01*
X26850500Y65600501D01*
X26869407Y65658692D01*
X26918907Y65694656D01*
X26949500Y65699501D01*
X27147867Y65699501D01*
X27147872Y65699501D01*
X27207483Y65705909D01*
X27286697Y65735454D01*
X27342329Y65756203D01*
X27342329Y65756204D01*
X27342331Y65756204D01*
X27457546Y65842454D01*
X27543796Y65957669D01*
X27594091Y66092517D01*
X27600500Y66152127D01*
X27600499Y66897872D01*
X27594091Y66957483D01*
X27589201Y66970593D01*
X27543797Y67092330D01*
X27457549Y67207542D01*
X27457548Y67207543D01*
X27457546Y67207546D01*
X27372453Y67271247D01*
X27337200Y67321256D01*
X27338074Y67382435D01*
X27374742Y67431416D01*
X27431782Y67449500D01*
X29750501Y67449500D01*
X29808692Y67430593D01*
X29844656Y67381093D01*
X29849501Y67350500D01*
X29849501Y67052130D01*
X29855908Y66992520D01*
X29855909Y66992515D01*
X29906202Y66857671D01*
X29987528Y66749034D01*
X29992454Y66742454D01*
X29992457Y66742452D01*
X29992458Y66742451D01*
X30107670Y66656203D01*
X30242511Y66605911D01*
X30242512Y66605911D01*
X30242517Y66605909D01*
X30302127Y66599500D01*
X31697872Y66599501D01*
X31757483Y66605909D01*
X31890712Y66655600D01*
X31892329Y66656203D01*
X31892329Y66656204D01*
X31892331Y66656204D01*
X32007546Y66742454D01*
X32093796Y66857669D01*
X32144091Y66992517D01*
X32150500Y67052127D01*
X32150499Y69147872D01*
X32144091Y69207483D01*
X32122452Y69265500D01*
X32093797Y69342330D01*
X32007549Y69457542D01*
X32007548Y69457543D01*
X32007546Y69457546D01*
X32007541Y69457550D01*
X31892329Y69543798D01*
X31757488Y69594090D01*
X31757483Y69594091D01*
X31757481Y69594092D01*
X31757477Y69594092D01*
X31726249Y69597450D01*
X31697873Y69600500D01*
X31697870Y69600500D01*
X30302133Y69600500D01*
X30302129Y69600500D01*
X30302128Y69600499D01*
X30294949Y69599728D01*
X30242519Y69594092D01*
X30242514Y69594091D01*
X30107670Y69543798D01*
X29992458Y69457550D01*
X29992450Y69457542D01*
X29906202Y69342330D01*
X29855910Y69207489D01*
X29855908Y69207478D01*
X29849500Y69147871D01*
X29849500Y68649500D01*
X29830593Y68591309D01*
X29781093Y68555345D01*
X29750500Y68550500D01*
X23099499Y68550500D01*
X23041308Y68569407D01*
X23005344Y68618907D01*
X23000499Y68649500D01*
X23000499Y69147867D01*
X23000499Y69147872D01*
X22994091Y69207483D01*
X22972452Y69265500D01*
X22943797Y69342330D01*
X22857549Y69457542D01*
X22857548Y69457543D01*
X22857546Y69457546D01*
X22857541Y69457550D01*
X22742329Y69543798D01*
X22607488Y69594090D01*
X22607483Y69594091D01*
X22607481Y69594092D01*
X22607477Y69594092D01*
X22576249Y69597450D01*
X22547873Y69600500D01*
X22547870Y69600500D01*
X21452133Y69600500D01*
X21452129Y69600500D01*
X21452128Y69600499D01*
X21444949Y69599728D01*
X21392519Y69594092D01*
X21392514Y69594091D01*
X21257670Y69543798D01*
X21142458Y69457550D01*
X21142450Y69457542D01*
X21056202Y69342330D01*
X21005910Y69207489D01*
X21005908Y69207478D01*
X20999500Y69147871D01*
X20999500Y67152134D01*
X20999501Y67152130D01*
X21005908Y67092520D01*
X21005909Y67092515D01*
X21056202Y66957671D01*
X21131064Y66857669D01*
X21142454Y66842454D01*
X21142457Y66842452D01*
X21142458Y66842451D01*
X21257670Y66756203D01*
X21360747Y66717758D01*
X21408662Y66679708D01*
X21425060Y66620761D01*
X21403678Y66563433D01*
X21360747Y66532242D01*
X21257670Y66493798D01*
X21142458Y66407550D01*
X21142450Y66407542D01*
X21056202Y66292330D01*
X21005910Y66157489D01*
X21005908Y66157478D01*
X20999500Y66097871D01*
X20999500Y65735454D01*
X20980593Y65677263D01*
X20970504Y65665451D01*
X20544720Y65239667D01*
X20489833Y65157519D01*
X20489832Y65157518D01*
X20473536Y65133131D01*
X20473535Y65133128D01*
X20424500Y65014748D01*
X20424499Y65014745D01*
X20424499Y65014744D01*
X20417336Y64978733D01*
X20399500Y64889070D01*
X20399500Y64408118D01*
X20380593Y64349927D01*
X20379790Y64348839D01*
X20356204Y64317331D01*
X20356202Y64317328D01*
X20355298Y64314903D01*
X20353951Y64313208D01*
X20352809Y64311115D01*
X20352446Y64311313D01*
X20317247Y64266988D01*
X20262540Y64250500D01*
X20063948Y64250500D01*
X20021846Y64242125D01*
X19961085Y64249317D01*
X19932529Y64269219D01*
X19929496Y64272252D01*
X19901719Y64326769D01*
X19900500Y64342256D01*
X19900500Y66646542D01*
X19919407Y66704733D01*
X19940712Y66726197D01*
X19962746Y66742459D01*
X19997150Y66767850D01*
X19997151Y66767852D01*
X19997152Y66767852D01*
X20063439Y66857669D01*
X20077793Y66877118D01*
X20122646Y67005301D01*
X20125499Y67035727D01*
X20125500Y67035727D01*
X20125500Y67694273D01*
X20125499Y67694275D01*
X20122646Y67724695D01*
X20122646Y67724699D01*
X20077793Y67852882D01*
X20077790Y67852886D01*
X19997154Y67962145D01*
X19997152Y67962147D01*
X19997150Y67962150D01*
X19997146Y67962153D01*
X19997144Y67962155D01*
X19887883Y68042793D01*
X19759703Y68087645D01*
X19759694Y68087647D01*
X19729274Y68090500D01*
X19729266Y68090500D01*
X19220734Y68090500D01*
X19220725Y68090500D01*
X19190305Y68087647D01*
X19190296Y68087645D01*
X19062116Y68042793D01*
X18952855Y67962155D01*
X18952845Y67962145D01*
X18872207Y67852884D01*
X18827355Y67724704D01*
X18827353Y67724695D01*
X18824500Y67694275D01*
X18824500Y67035726D01*
X18827353Y67005306D01*
X18827355Y67005297D01*
X18872207Y66877117D01*
X18952847Y66767852D01*
X18952849Y66767851D01*
X18952850Y66767850D01*
X18968630Y66756204D01*
X19009288Y66726197D01*
X19044881Y66676430D01*
X19049500Y66646542D01*
X19049500Y64181018D01*
X19049500Y64068982D01*
X19075072Y63973545D01*
X19078498Y63960759D01*
X19134513Y63863740D01*
X19134515Y63863737D01*
X19233161Y63765091D01*
X19260937Y63710576D01*
X19251366Y63650144D01*
X19233160Y63625085D01*
X18180585Y62572510D01*
X18126068Y62544733D01*
X18065636Y62554304D01*
X18036673Y62576646D01*
X18015490Y62600414D01*
X17461846Y63221634D01*
X16977092Y63765555D01*
X16952491Y63821576D01*
X16952000Y63831423D01*
X16952000Y66178767D01*
X16951999Y66178770D01*
X16925402Y66312486D01*
X16923500Y66331800D01*
X16923500Y66499673D01*
X16923498Y66499685D01*
X16917022Y66532242D01*
X16908966Y66572740D01*
X16864359Y66639500D01*
X16853602Y66655600D01*
X16849206Y66659996D01*
X16821429Y66714513D01*
X16831000Y66774945D01*
X16849206Y66800004D01*
X16853597Y66804397D01*
X16853601Y66804399D01*
X16908966Y66887260D01*
X16913453Y66909815D01*
X16943350Y66963199D01*
X16998915Y66988814D01*
X17010550Y66989500D01*
X17112639Y66989500D01*
X17170830Y66970593D01*
X17206082Y66923199D01*
X17214947Y66897867D01*
X17222208Y66877115D01*
X17302845Y66767856D01*
X17302847Y66767854D01*
X17302850Y66767850D01*
X17302853Y66767848D01*
X17302855Y66767846D01*
X17412116Y66687208D01*
X17412117Y66687208D01*
X17412118Y66687207D01*
X17540301Y66642354D01*
X17570725Y66639501D01*
X17570727Y66639500D01*
X17570734Y66639500D01*
X18079273Y66639500D01*
X18079273Y66639501D01*
X18109699Y66642354D01*
X18237882Y66687207D01*
X18347150Y66767850D01*
X18427793Y66877118D01*
X18472646Y67005301D01*
X18475499Y67035727D01*
X18475500Y67035727D01*
X18475500Y67694273D01*
X18475499Y67694275D01*
X18472646Y67724695D01*
X18472646Y67724699D01*
X18427793Y67852882D01*
X18427790Y67852886D01*
X18347154Y67962145D01*
X18347152Y67962147D01*
X18347150Y67962150D01*
X18347146Y67962153D01*
X18347144Y67962155D01*
X18237883Y68042793D01*
X18109703Y68087645D01*
X18109694Y68087647D01*
X18079274Y68090500D01*
X18079266Y68090500D01*
X17570734Y68090500D01*
X17570725Y68090500D01*
X17540305Y68087647D01*
X17540296Y68087645D01*
X17412116Y68042793D01*
X17302855Y67962155D01*
X17302845Y67962145D01*
X17222208Y67852886D01*
X17222207Y67852882D01*
X17206082Y67806802D01*
X17169018Y67758122D01*
X17112639Y67740500D01*
X17010550Y67740500D01*
X16952359Y67759407D01*
X16916395Y67808907D01*
X16913453Y67820185D01*
X16911527Y67829863D01*
X16908966Y67842740D01*
X16853601Y67925601D01*
X16849206Y67929996D01*
X16821429Y67984513D01*
X16831000Y68044945D01*
X16849206Y68070004D01*
X16853597Y68074397D01*
X16853601Y68074399D01*
X16908966Y68157260D01*
X16913453Y68179815D01*
X16943350Y68233199D01*
X16998915Y68258814D01*
X17010550Y68259500D01*
X17309435Y68259500D01*
X17309436Y68259500D01*
X17365457Y68274511D01*
X17404938Y68285090D01*
X17490562Y68334525D01*
X17560475Y68404438D01*
X17560474Y68404438D01*
X17601541Y68445505D01*
X17656057Y68473281D01*
X17671544Y68474500D01*
X18079273Y68474500D01*
X18079273Y68474501D01*
X18109699Y68477354D01*
X18237882Y68522207D01*
X18347150Y68602850D01*
X18427793Y68712118D01*
X18472646Y68840301D01*
X18475499Y68870727D01*
X18475500Y68870727D01*
X18475500Y69278455D01*
X18494407Y69336646D01*
X18504496Y69348459D01*
X18950474Y69794437D01*
X18950475Y69794437D01*
X18999908Y69880059D01*
X18999910Y69880062D01*
X19012705Y69927814D01*
X19025500Y69975564D01*
X19025500Y70074436D01*
X19025500Y73374435D01*
X18999910Y73469938D01*
X18999908Y73469941D01*
X18999908Y73469943D01*
X18950476Y73555560D01*
X18950475Y73555562D01*
X18880562Y73625475D01*
X18880559Y73625477D01*
X18794941Y73674909D01*
X18794943Y73674909D01*
X18757885Y73684839D01*
X18699435Y73700500D01*
X18699433Y73700500D01*
X16856859Y73700500D01*
X16798668Y73719407D01*
X16777208Y73740707D01*
X16698650Y73847150D01*
X16698646Y73847153D01*
X16698644Y73847155D01*
X16589383Y73927793D01*
X16461203Y73972645D01*
X16461194Y73972647D01*
X16430774Y73975500D01*
X16430766Y73975500D01*
X15772234Y73975500D01*
X15772225Y73975500D01*
X15741805Y73972647D01*
X15741796Y73972645D01*
X15613616Y73927793D01*
X15504355Y73847155D01*
X15504345Y73847145D01*
X15423707Y73737884D01*
X15378855Y73609704D01*
X15378853Y73609695D01*
X15376000Y73579275D01*
X15376000Y73070726D01*
X15378853Y73040306D01*
X15378855Y73040297D01*
X15423707Y72912117D01*
X15504345Y72802856D01*
X15504347Y72802854D01*
X15504350Y72802850D01*
X15504353Y72802848D01*
X15504355Y72802846D01*
X15613616Y72722208D01*
X15613617Y72722208D01*
X15613618Y72722207D01*
X15741801Y72677354D01*
X15772225Y72674501D01*
X15772227Y72674500D01*
X15772234Y72674500D01*
X16430773Y72674500D01*
X16430773Y72674501D01*
X16461199Y72677354D01*
X16589382Y72722207D01*
X16698650Y72802850D01*
X16777205Y72909291D01*
X16826971Y72944881D01*
X16856859Y72949500D01*
X18175500Y72949500D01*
X18233691Y72930593D01*
X18269655Y72881093D01*
X18274500Y72850500D01*
X18274500Y70221545D01*
X18255593Y70163354D01*
X18245504Y70151541D01*
X18048459Y69954496D01*
X17993942Y69926719D01*
X17978455Y69925500D01*
X17570725Y69925500D01*
X17540305Y69922647D01*
X17540296Y69922645D01*
X17412116Y69877793D01*
X17302855Y69797155D01*
X17302845Y69797145D01*
X17222207Y69687884D01*
X17177355Y69559704D01*
X17177353Y69559695D01*
X17174500Y69529275D01*
X17174500Y69121545D01*
X17155593Y69063354D01*
X17145506Y69051544D01*
X17133462Y69039499D01*
X17078947Y69011719D01*
X17063456Y69010500D01*
X17010550Y69010500D01*
X16952359Y69029407D01*
X16916395Y69078907D01*
X16913453Y69090185D01*
X16911527Y69099863D01*
X16908966Y69112740D01*
X16853601Y69195601D01*
X16849206Y69199996D01*
X16821429Y69254513D01*
X16831000Y69314945D01*
X16849206Y69340004D01*
X16853597Y69344397D01*
X16853601Y69344399D01*
X16908966Y69427260D01*
X16923500Y69500326D01*
X16923500Y70309674D01*
X16923500Y70309677D01*
X16923498Y70309685D01*
X16913179Y70361559D01*
X16908966Y70382740D01*
X16908964Y70382743D01*
X16853602Y70465600D01*
X16853599Y70465603D01*
X16770742Y70520965D01*
X16770740Y70520966D01*
X16770737Y70520967D01*
X16770736Y70520967D01*
X16697684Y70535499D01*
X16697674Y70535500D01*
X16697673Y70535500D01*
X16576000Y70535500D01*
X16517809Y70554407D01*
X16481845Y70603907D01*
X16477000Y70634500D01*
X16477000Y70962639D01*
X16495907Y71020830D01*
X16543301Y71056083D01*
X16589382Y71072207D01*
X16698650Y71152850D01*
X16779293Y71262118D01*
X16824146Y71390301D01*
X16826999Y71420727D01*
X16827000Y71420727D01*
X16827000Y71929273D01*
X16826999Y71929275D01*
X16824146Y71959695D01*
X16824146Y71959699D01*
X16779293Y72087882D01*
X16698650Y72197150D01*
X16698646Y72197153D01*
X16698644Y72197155D01*
X16589383Y72277793D01*
X16461203Y72322645D01*
X16461194Y72322647D01*
X16430774Y72325500D01*
X16430766Y72325500D01*
X15772234Y72325500D01*
X15772225Y72325500D01*
X15741805Y72322647D01*
X15741796Y72322645D01*
X15613616Y72277793D01*
X15504355Y72197155D01*
X15504345Y72197145D01*
X15423707Y72087884D01*
X15378855Y71959704D01*
X15378853Y71959695D01*
X15376000Y71929275D01*
X15376000Y71420726D01*
X15378853Y71390306D01*
X15378855Y71390297D01*
X15423707Y71262117D01*
X15504345Y71152856D01*
X15504347Y71152854D01*
X15504350Y71152850D01*
X15504353Y71152848D01*
X15504355Y71152846D01*
X15613614Y71072209D01*
X15613616Y71072209D01*
X15613618Y71072207D01*
X15659698Y71056083D01*
X15708378Y71019018D01*
X15726000Y70962639D01*
X15726000Y70634500D01*
X15707093Y70576309D01*
X15657593Y70540345D01*
X15627000Y70535500D01*
X15505326Y70535500D01*
X15505325Y70535500D01*
X15505315Y70535499D01*
X15432263Y70520967D01*
X15432257Y70520965D01*
X15349400Y70465603D01*
X15349397Y70465600D01*
X15294035Y70382743D01*
X15294033Y70382737D01*
X15279501Y70309685D01*
X15279500Y70309677D01*
X15279500Y69500328D01*
X15279501Y69500316D01*
X15294033Y69427264D01*
X15294035Y69427258D01*
X15349397Y69344401D01*
X15353794Y69340004D01*
X15381571Y69285487D01*
X15372000Y69225055D01*
X15353794Y69199996D01*
X15349397Y69195600D01*
X15294035Y69112743D01*
X15294033Y69112737D01*
X15279501Y69039685D01*
X15279500Y69039673D01*
X15279500Y68230328D01*
X15279501Y68230316D01*
X15294033Y68157264D01*
X15294035Y68157258D01*
X15349397Y68074401D01*
X15353794Y68070004D01*
X15381571Y68015487D01*
X15372000Y67955055D01*
X15353794Y67929996D01*
X15349397Y67925600D01*
X15294035Y67842743D01*
X15294033Y67842737D01*
X15279501Y67769685D01*
X15279500Y67769673D01*
X15279500Y66960328D01*
X15279501Y66960316D01*
X15294033Y66887264D01*
X15294035Y66887258D01*
X15349397Y66804401D01*
X15353794Y66800004D01*
X15381571Y66745487D01*
X15372000Y66685055D01*
X15353794Y66659996D01*
X15349397Y66655600D01*
X15294035Y66572743D01*
X15294033Y66572737D01*
X15279501Y66499685D01*
X15279500Y66499673D01*
X15279500Y66331800D01*
X15277598Y66312486D01*
X15251000Y66178770D01*
X15251000Y63496995D01*
X15250837Y63491311D01*
X15247594Y63434925D01*
X15250047Y63417377D01*
X15251000Y63403672D01*
X15251000Y63385944D01*
X15262019Y63330548D01*
X15262967Y63324943D01*
X15270787Y63269007D01*
X15270789Y63269000D01*
X15276617Y63252271D01*
X15280225Y63239019D01*
X15283682Y63221640D01*
X15283684Y63221633D01*
X15305300Y63169447D01*
X15307324Y63164134D01*
X15325906Y63110799D01*
X15334892Y63095518D01*
X15341016Y63083224D01*
X15343541Y63077127D01*
X15347796Y63066856D01*
X15347799Y63066849D01*
X15379174Y63019893D01*
X15382195Y63015077D01*
X15410830Y62966384D01*
X15422624Y62953150D01*
X15431027Y62942289D01*
X15440872Y62927555D01*
X15480810Y62887617D01*
X15484714Y62883482D01*
X15617611Y62734364D01*
X15679548Y62664868D01*
X15704149Y62608847D01*
X15691123Y62549064D01*
X15645446Y62508355D01*
X15605640Y62500000D01*
X5599000Y62500000D01*
X5540809Y62518907D01*
X5504845Y62568407D01*
X5500000Y62599000D01*
X5500000Y67512871D01*
X8149500Y67512871D01*
X8149500Y65217134D01*
X8149500Y65217131D01*
X8149501Y65217128D01*
X8150538Y65207483D01*
X8155908Y65157520D01*
X8155908Y65157519D01*
X8155909Y65157517D01*
X8165006Y65133127D01*
X8206202Y65022671D01*
X8239096Y64978731D01*
X8292454Y64907454D01*
X8292457Y64907452D01*
X8292458Y64907451D01*
X8407670Y64821203D01*
X8542511Y64770911D01*
X8542512Y64770911D01*
X8542517Y64770909D01*
X8602127Y64764500D01*
X9347872Y64764501D01*
X9407483Y64770909D01*
X9474907Y64796057D01*
X9542329Y64821203D01*
X9542329Y64821204D01*
X9542331Y64821204D01*
X9657546Y64907454D01*
X9743796Y65022669D01*
X9794091Y65157517D01*
X9800500Y65217127D01*
X9800499Y66565501D01*
X9819406Y66623691D01*
X9868906Y66659655D01*
X9899499Y66664500D01*
X10967492Y66664500D01*
X10967493Y66664500D01*
X11102828Y66691420D01*
X11188640Y66726965D01*
X11226524Y66734500D01*
X11494673Y66734500D01*
X11494674Y66734500D01*
X11567740Y66749034D01*
X11650601Y66804399D01*
X11705966Y66887260D01*
X11720500Y66960326D01*
X11720500Y67769674D01*
X11705966Y67842740D01*
X11650601Y67925601D01*
X11646206Y67929996D01*
X11618429Y67984513D01*
X11628000Y68044945D01*
X11646206Y68070004D01*
X11650597Y68074397D01*
X11650601Y68074399D01*
X11705966Y68157260D01*
X11720500Y68230326D01*
X11720500Y69039674D01*
X11705966Y69112740D01*
X11650601Y69195601D01*
X11646206Y69199996D01*
X11618429Y69254513D01*
X11628000Y69314945D01*
X11646206Y69340004D01*
X11650597Y69344397D01*
X11650601Y69344399D01*
X11705966Y69427260D01*
X11720500Y69500326D01*
X11720500Y70154956D01*
X11739407Y70213147D01*
X11749490Y70224954D01*
X11800474Y70275937D01*
X11819952Y70309674D01*
X11849910Y70361562D01*
X11875500Y70457065D01*
X11875500Y73978455D01*
X11894407Y74036646D01*
X11904496Y74048459D01*
X13101542Y75245504D01*
X13156059Y75273281D01*
X13171546Y75274500D01*
X13579273Y75274500D01*
X13579273Y75274501D01*
X13609699Y75277354D01*
X13737882Y75322207D01*
X13847150Y75402850D01*
X13920345Y75502026D01*
X13970112Y75537619D01*
X14031296Y75537161D01*
X14079655Y75502026D01*
X14152845Y75402856D01*
X14152850Y75402850D01*
X14152853Y75402848D01*
X14152855Y75402846D01*
X14262116Y75322208D01*
X14262117Y75322208D01*
X14262118Y75322207D01*
X14390301Y75277354D01*
X14420725Y75274501D01*
X14420727Y75274500D01*
X14420734Y75274500D01*
X14929273Y75274500D01*
X14929273Y75274501D01*
X14959699Y75277354D01*
X15087882Y75322207D01*
X15197150Y75402850D01*
X15277793Y75512118D01*
X15322646Y75640301D01*
X15325499Y75670727D01*
X15325500Y75670727D01*
X15325500Y76329273D01*
X15325499Y76329275D01*
X15322646Y76359695D01*
X15322646Y76359699D01*
X15277793Y76487882D01*
X15270344Y76497975D01*
X15197154Y76597145D01*
X15197152Y76597147D01*
X15197150Y76597150D01*
X15197146Y76597153D01*
X15197144Y76597155D01*
X15087883Y76677793D01*
X14959703Y76722645D01*
X14959694Y76722647D01*
X14929274Y76725500D01*
X14929266Y76725500D01*
X14420734Y76725500D01*
X14420725Y76725500D01*
X14390305Y76722647D01*
X14390296Y76722645D01*
X14262116Y76677793D01*
X14152855Y76597155D01*
X14152845Y76597145D01*
X14079655Y76497975D01*
X14029887Y76462382D01*
X13968704Y76462840D01*
X13920345Y76497975D01*
X13847154Y76597145D01*
X13847152Y76597147D01*
X13847150Y76597150D01*
X13847146Y76597153D01*
X13847144Y76597155D01*
X13737883Y76677793D01*
X13609703Y76722645D01*
X13609694Y76722647D01*
X13579274Y76725500D01*
X13579266Y76725500D01*
X13070734Y76725500D01*
X13070725Y76725500D01*
X13040305Y76722647D01*
X13040296Y76722645D01*
X12912116Y76677793D01*
X12802855Y76597155D01*
X12802845Y76597145D01*
X12722207Y76487884D01*
X12677355Y76359704D01*
X12677353Y76359695D01*
X12674500Y76329275D01*
X12674500Y75921546D01*
X12655593Y75863355D01*
X12645504Y75851542D01*
X12494504Y75700542D01*
X12439987Y75672765D01*
X12379555Y75682336D01*
X12336290Y75725601D01*
X12325500Y75770546D01*
X12325500Y76329273D01*
X12325499Y76329275D01*
X12322646Y76359695D01*
X12322646Y76359699D01*
X12277793Y76487882D01*
X12270344Y76497975D01*
X12197154Y76597145D01*
X12197152Y76597147D01*
X12197150Y76597150D01*
X12197146Y76597153D01*
X12197144Y76597155D01*
X12087883Y76677793D01*
X11959703Y76722645D01*
X11959694Y76722647D01*
X11929274Y76725500D01*
X11929266Y76725500D01*
X11420734Y76725500D01*
X11420725Y76725500D01*
X11390305Y76722647D01*
X11390296Y76722645D01*
X11262116Y76677793D01*
X11152855Y76597155D01*
X11152845Y76597145D01*
X11072207Y76487884D01*
X11027355Y76359704D01*
X11027353Y76359695D01*
X11024500Y76329275D01*
X11024500Y75670726D01*
X11027353Y75640306D01*
X11027355Y75640297D01*
X11072207Y75512117D01*
X11152845Y75402856D01*
X11152846Y75402855D01*
X11152850Y75402850D01*
X11152853Y75402848D01*
X11152855Y75402846D01*
X11262116Y75322208D01*
X11262117Y75322208D01*
X11262118Y75322207D01*
X11390301Y75277354D01*
X11420725Y75274501D01*
X11420727Y75274500D01*
X11829455Y75274500D01*
X11887646Y75255593D01*
X11923610Y75206093D01*
X11923610Y75144907D01*
X11899461Y75105500D01*
X11269438Y74475475D01*
X11269437Y74475476D01*
X11199524Y74405562D01*
X11150091Y74319943D01*
X11124500Y74224434D01*
X11124500Y70703045D01*
X11105593Y70644854D01*
X11095504Y70633041D01*
X11026959Y70564496D01*
X10972442Y70536719D01*
X10956955Y70535500D01*
X10302326Y70535500D01*
X10302325Y70535500D01*
X10302315Y70535499D01*
X10229263Y70520967D01*
X10229257Y70520965D01*
X10146400Y70465603D01*
X10146397Y70465600D01*
X10091035Y70382743D01*
X10091033Y70382737D01*
X10076501Y70309685D01*
X10076500Y70309677D01*
X10076500Y69500328D01*
X10076501Y69500316D01*
X10091033Y69427264D01*
X10091035Y69427258D01*
X10146397Y69344401D01*
X10150794Y69340004D01*
X10178571Y69285487D01*
X10169000Y69225055D01*
X10150794Y69199996D01*
X10146394Y69195597D01*
X10129876Y69170875D01*
X10081827Y69132995D01*
X10020688Y69130593D01*
X9969815Y69164586D01*
X9954805Y69191274D01*
X9921628Y69280226D01*
X9839687Y69389687D01*
X9749043Y69457542D01*
X9730228Y69471627D01*
X9730226Y69471628D01*
X9602114Y69519412D01*
X9602113Y69519413D01*
X9563895Y69523521D01*
X9545485Y69525500D01*
X9545481Y69525500D01*
X9004521Y69525500D01*
X9004515Y69525499D01*
X8947888Y69519413D01*
X8947886Y69519412D01*
X8819774Y69471628D01*
X8819773Y69471628D01*
X8819772Y69471627D01*
X8710315Y69389689D01*
X8710311Y69389685D01*
X8628373Y69280229D01*
X8580587Y69152113D01*
X8574500Y69095482D01*
X8574500Y68504522D01*
X8574501Y68504516D01*
X8580587Y68447889D01*
X8580587Y68447888D01*
X8580588Y68447886D01*
X8628372Y68319774D01*
X8710313Y68210313D01*
X8740325Y68187846D01*
X8775579Y68137839D01*
X8774705Y68076660D01*
X8738039Y68027678D01*
X8718884Y68017129D01*
X8714920Y68015487D01*
X8643189Y67985775D01*
X8643187Y67985775D01*
X8643185Y67985773D01*
X8635117Y67980383D01*
X8590708Y67964272D01*
X8549687Y67959862D01*
X8542517Y67959091D01*
X8542514Y67959091D01*
X8407670Y67908798D01*
X8292458Y67822550D01*
X8292450Y67822542D01*
X8206202Y67707330D01*
X8155910Y67572489D01*
X8155908Y67572478D01*
X8149500Y67512871D01*
X5500000Y67512871D01*
X5500000Y82847871D01*
X8999500Y82847871D01*
X8999500Y82202134D01*
X8999501Y82202130D01*
X9005908Y82142520D01*
X9005909Y82142515D01*
X9056202Y82007671D01*
X9101067Y81947740D01*
X9142454Y81892454D01*
X9142457Y81892452D01*
X9142458Y81892451D01*
X9257670Y81806203D01*
X9360747Y81767758D01*
X9408662Y81729708D01*
X9425060Y81670761D01*
X9403678Y81613433D01*
X9360747Y81582242D01*
X9257670Y81543798D01*
X9142458Y81457550D01*
X9142450Y81457542D01*
X9056202Y81342330D01*
X9005910Y81207489D01*
X9005908Y81207478D01*
X8999500Y81147871D01*
X8999500Y79152134D01*
X8999501Y79152130D01*
X9005908Y79092520D01*
X9005909Y79092515D01*
X9056202Y78957671D01*
X9142450Y78842459D01*
X9142454Y78842454D01*
X9209829Y78792018D01*
X9245082Y78742010D01*
X9249500Y78712765D01*
X9249500Y78573918D01*
X9249500Y78426082D01*
X9278342Y78281087D01*
X9334916Y78144505D01*
X9417049Y78021584D01*
X9521584Y77917049D01*
X9644505Y77834916D01*
X9781087Y77778342D01*
X9926082Y77749500D01*
X9926083Y77749500D01*
X15998917Y77749500D01*
X15998918Y77749500D01*
X16143913Y77778342D01*
X16280495Y77834916D01*
X16329729Y77867814D01*
X16352188Y77882821D01*
X16407183Y77899500D01*
X18674673Y77899500D01*
X18674674Y77899500D01*
X18747740Y77914034D01*
X18830601Y77969399D01*
X18885966Y78052260D01*
X18900500Y78125326D01*
X18900500Y81874673D01*
X21099500Y81874673D01*
X21099500Y78125328D01*
X21099501Y78125316D01*
X21114033Y78052264D01*
X21114035Y78052258D01*
X21169397Y77969401D01*
X21169399Y77969399D01*
X21252260Y77914034D01*
X21307808Y77902985D01*
X21325315Y77899502D01*
X21325320Y77899502D01*
X21325326Y77899500D01*
X21325327Y77899500D01*
X23824673Y77899500D01*
X23824674Y77899500D01*
X23897740Y77914034D01*
X23980601Y77969399D01*
X24035966Y78052260D01*
X24050500Y78125326D01*
X24050500Y79150500D01*
X24069407Y79208691D01*
X24118907Y79244655D01*
X24149500Y79249500D01*
X26266292Y79249500D01*
X26324483Y79230593D01*
X26360447Y79181093D01*
X26360447Y79119907D01*
X26359057Y79115926D01*
X26355910Y79107486D01*
X26355910Y79107485D01*
X26355908Y79107478D01*
X26349500Y79047871D01*
X26349500Y76952134D01*
X26349501Y76952130D01*
X26355908Y76892520D01*
X26355909Y76892515D01*
X26406202Y76757671D01*
X26432421Y76722647D01*
X26492454Y76642454D01*
X26492457Y76642452D01*
X26492458Y76642451D01*
X26607670Y76556203D01*
X26742511Y76505911D01*
X26742512Y76505911D01*
X26742517Y76505909D01*
X26802127Y76499500D01*
X30797872Y76499501D01*
X30857483Y76505909D01*
X30924907Y76531057D01*
X30992329Y76556203D01*
X30992329Y76556204D01*
X30992331Y76556204D01*
X31107546Y76642454D01*
X31193796Y76757669D01*
X31244091Y76892517D01*
X31250500Y76952127D01*
X31250499Y79047872D01*
X31244091Y79107483D01*
X31227439Y79152130D01*
X31193797Y79242330D01*
X31107549Y79357542D01*
X31107548Y79357543D01*
X31107546Y79357546D01*
X31107541Y79357550D01*
X30992329Y79443798D01*
X30857488Y79494090D01*
X30857483Y79494091D01*
X30857481Y79494092D01*
X30857477Y79494092D01*
X30826249Y79497450D01*
X30797873Y79500500D01*
X30797870Y79500500D01*
X28401876Y79500500D01*
X28343685Y79519407D01*
X28331872Y79529496D01*
X28234492Y79626876D01*
X27278416Y80582952D01*
X27204729Y80632187D01*
X27155495Y80665084D01*
X27155494Y80665085D01*
X27155492Y80665086D01*
X27018914Y80721658D01*
X26873918Y80750500D01*
X24149500Y80750500D01*
X24091309Y80769407D01*
X24055345Y80818907D01*
X24050500Y80849500D01*
X24050500Y81874673D01*
X24050498Y81874685D01*
X24046962Y81892459D01*
X24035966Y81947740D01*
X24035964Y81947743D01*
X23980602Y82030600D01*
X23980599Y82030603D01*
X23897742Y82085965D01*
X23897740Y82085966D01*
X23897737Y82085967D01*
X23897736Y82085967D01*
X23824684Y82100499D01*
X23824674Y82100500D01*
X21325326Y82100500D01*
X21325325Y82100500D01*
X21325315Y82100499D01*
X21252263Y82085967D01*
X21252257Y82085965D01*
X21169400Y82030603D01*
X21169397Y82030600D01*
X21114035Y81947743D01*
X21114033Y81947737D01*
X21099501Y81874685D01*
X21099500Y81874673D01*
X18900500Y81874673D01*
X18900500Y81874674D01*
X18885966Y81947740D01*
X18885964Y81947743D01*
X18830602Y82030600D01*
X18830599Y82030603D01*
X18747742Y82085965D01*
X18747740Y82085966D01*
X18747737Y82085967D01*
X18747736Y82085967D01*
X18674684Y82100499D01*
X18674674Y82100500D01*
X16175326Y82100500D01*
X16175325Y82100500D01*
X16175315Y82100499D01*
X16102263Y82085967D01*
X16102257Y82085965D01*
X16019400Y82030603D01*
X16019397Y82030600D01*
X15964035Y81947743D01*
X15964033Y81947737D01*
X15949501Y81874685D01*
X15949500Y81874673D01*
X15949500Y79626876D01*
X15930593Y79568685D01*
X15920504Y79556872D01*
X15643128Y79279496D01*
X15588611Y79251719D01*
X15573124Y79250500D01*
X11099500Y79250500D01*
X11041309Y79269407D01*
X11005345Y79318907D01*
X11000500Y79349500D01*
X11000499Y81147867D01*
X11000499Y81147872D01*
X10994091Y81207483D01*
X10994089Y81207489D01*
X10943797Y81342330D01*
X10857549Y81457542D01*
X10857548Y81457543D01*
X10857546Y81457546D01*
X10857541Y81457550D01*
X10742329Y81543798D01*
X10639252Y81582242D01*
X10591337Y81620292D01*
X10574939Y81679239D01*
X10596320Y81736567D01*
X10639252Y81767758D01*
X10742329Y81806203D01*
X10742329Y81806204D01*
X10742331Y81806204D01*
X10857546Y81892454D01*
X10943796Y82007669D01*
X10972999Y82085965D01*
X10994089Y82142512D01*
X10994090Y82142515D01*
X10994091Y82142517D01*
X11000500Y82202127D01*
X11000499Y82847872D01*
X10994091Y82907483D01*
X10994089Y82907489D01*
X10943798Y83042328D01*
X10870246Y83140581D01*
X10850510Y83198496D01*
X10850500Y83199910D01*
X10850500Y85825500D01*
X10869407Y85883691D01*
X10918907Y85919655D01*
X10949500Y85924500D01*
X11424673Y85924500D01*
X11424674Y85924500D01*
X11497740Y85939034D01*
X11580601Y85994399D01*
X11635966Y86077260D01*
X11650500Y86150326D01*
X11650500Y87849673D01*
X13349500Y87849673D01*
X13349500Y86150328D01*
X13349501Y86150316D01*
X13364033Y86077264D01*
X13364035Y86077258D01*
X13419397Y85994401D01*
X13419399Y85994399D01*
X13502260Y85939034D01*
X13557808Y85927985D01*
X13575315Y85924502D01*
X13575320Y85924502D01*
X13575326Y85924500D01*
X13575327Y85924500D01*
X14874673Y85924500D01*
X14874674Y85924500D01*
X14947740Y85939034D01*
X15030601Y85994399D01*
X15085966Y86077260D01*
X15085967Y86077264D01*
X15089696Y86086266D01*
X15092946Y86084920D01*
X15114371Y86123189D01*
X15169933Y86148812D01*
X15181582Y86149500D01*
X17950500Y86149500D01*
X18008691Y86130593D01*
X18044655Y86081093D01*
X18049500Y86050500D01*
X18049500Y85775328D01*
X18049501Y85775316D01*
X18064033Y85702264D01*
X18064035Y85702258D01*
X18119397Y85619401D01*
X18119399Y85619399D01*
X18202260Y85564034D01*
X18257808Y85552985D01*
X18275315Y85549502D01*
X18275320Y85549502D01*
X18275326Y85549500D01*
X18275327Y85549500D01*
X20724673Y85549500D01*
X20724674Y85549500D01*
X20797740Y85564034D01*
X20880601Y85619399D01*
X20935966Y85702260D01*
X20950500Y85775326D01*
X20950500Y87118057D01*
X23000000Y87118057D01*
X23000000Y86881944D01*
X23036934Y86648748D01*
X23036935Y86648744D01*
X23109892Y86424207D01*
X23109894Y86424204D01*
X23217084Y86213831D01*
X23277339Y86130895D01*
X23898957Y86752514D01*
X23923978Y86692110D01*
X23995112Y86585649D01*
X24085649Y86495112D01*
X24192110Y86423978D01*
X24252511Y86398959D01*
X23630893Y85777341D01*
X23713825Y85717087D01*
X23713829Y85717085D01*
X23924203Y85609895D01*
X23924206Y85609893D01*
X24148743Y85536936D01*
X24148747Y85536935D01*
X24381944Y85500000D01*
X24618056Y85500000D01*
X24851252Y85536935D01*
X24851256Y85536936D01*
X25075793Y85609893D01*
X25075796Y85609895D01*
X25286170Y85717085D01*
X25286176Y85717089D01*
X25369105Y85777341D01*
X25369105Y85777342D01*
X24747488Y86398959D01*
X24807890Y86423978D01*
X24914351Y86495112D01*
X25004888Y86585649D01*
X25076022Y86692110D01*
X25101041Y86752512D01*
X25722658Y86130895D01*
X25722659Y86130895D01*
X25782911Y86213824D01*
X25782915Y86213830D01*
X25890105Y86424204D01*
X25890107Y86424207D01*
X25963064Y86648744D01*
X25963065Y86648748D01*
X26000000Y86881944D01*
X26000000Y87118057D01*
X25963065Y87351253D01*
X25963064Y87351257D01*
X25890107Y87575794D01*
X25890105Y87575797D01*
X25782915Y87786171D01*
X25782913Y87786175D01*
X25722659Y87869107D01*
X25101041Y87247489D01*
X25076022Y87307890D01*
X25004888Y87414351D01*
X24914351Y87504888D01*
X24807890Y87576022D01*
X24747486Y87601043D01*
X25369105Y88222661D01*
X25286169Y88282916D01*
X25075796Y88390106D01*
X25075793Y88390108D01*
X24851256Y88463065D01*
X24851252Y88463066D01*
X24618056Y88500000D01*
X24381944Y88500000D01*
X24148747Y88463066D01*
X24148743Y88463065D01*
X23924206Y88390108D01*
X23924203Y88390106D01*
X23713823Y88282912D01*
X23630893Y88222661D01*
X24252512Y87601042D01*
X24192110Y87576022D01*
X24085649Y87504888D01*
X23995112Y87414351D01*
X23923978Y87307890D01*
X23898958Y87247488D01*
X23277339Y87869107D01*
X23217088Y87786177D01*
X23109894Y87575797D01*
X23109892Y87575794D01*
X23036935Y87351257D01*
X23036934Y87351253D01*
X23000000Y87118057D01*
X20950500Y87118057D01*
X20950500Y88224674D01*
X20935966Y88297740D01*
X20880601Y88380601D01*
X20880599Y88380603D01*
X20797742Y88435965D01*
X20797740Y88435966D01*
X20797737Y88435967D01*
X20797736Y88435967D01*
X20724684Y88450499D01*
X20724674Y88450500D01*
X18275326Y88450500D01*
X18275325Y88450500D01*
X18275315Y88450499D01*
X18202263Y88435967D01*
X18202257Y88435965D01*
X18119400Y88380603D01*
X18119397Y88380600D01*
X18064035Y88297743D01*
X18064033Y88297737D01*
X18049501Y88224685D01*
X18049500Y88224673D01*
X18049500Y87949500D01*
X18030593Y87891309D01*
X17981093Y87855345D01*
X17950500Y87850500D01*
X15181582Y87850500D01*
X15123391Y87869407D01*
X15090840Y87914209D01*
X15089696Y87913734D01*
X15087721Y87918503D01*
X15087427Y87918907D01*
X15087212Y87919732D01*
X15085965Y87922742D01*
X15030602Y88005600D01*
X15030599Y88005603D01*
X14947742Y88060965D01*
X14947740Y88060966D01*
X14947737Y88060967D01*
X14947736Y88060967D01*
X14874684Y88075499D01*
X14874674Y88075500D01*
X13575326Y88075500D01*
X13575325Y88075500D01*
X13575315Y88075499D01*
X13502263Y88060967D01*
X13502257Y88060965D01*
X13419400Y88005603D01*
X13419397Y88005600D01*
X13364035Y87922743D01*
X13364033Y87922737D01*
X13349501Y87849685D01*
X13349500Y87849673D01*
X11650500Y87849673D01*
X11650500Y87849674D01*
X11635966Y87922740D01*
X11580601Y88005601D01*
X11580599Y88005603D01*
X11497742Y88060965D01*
X11497740Y88060966D01*
X11497737Y88060967D01*
X11497736Y88060967D01*
X11424684Y88075499D01*
X11424674Y88075500D01*
X10125326Y88075500D01*
X10125325Y88075500D01*
X10125315Y88075499D01*
X10052263Y88060967D01*
X10052257Y88060965D01*
X9969400Y88005603D01*
X9969397Y88005600D01*
X9914035Y87922743D01*
X9914033Y87922737D01*
X9899501Y87849685D01*
X9899500Y87849673D01*
X9899500Y87368297D01*
X9880593Y87310106D01*
X9870504Y87298293D01*
X9339376Y86767166D01*
X9339373Y86767162D01*
X9246299Y86627870D01*
X9246293Y86627859D01*
X9223759Y86573454D01*
X9182184Y86473084D01*
X9182184Y86473082D01*
X9149500Y86308770D01*
X9149500Y83199910D01*
X9130593Y83141719D01*
X9129754Y83140581D01*
X9056201Y83042328D01*
X9005910Y82907489D01*
X9005908Y82907478D01*
X8999500Y82847871D01*
X5500000Y82847871D01*
X5500000Y86176411D01*
X5518907Y86234602D01*
X5568407Y86270566D01*
X5570122Y86271105D01*
X5646976Y86294418D01*
X5955654Y86422277D01*
X6099640Y86499240D01*
X6250312Y86579774D01*
X6250322Y86579781D01*
X6528118Y86765399D01*
X6786390Y86977357D01*
X7022643Y87213610D01*
X7234601Y87471882D01*
X7420224Y87749685D01*
X7439729Y87786175D01*
X7512723Y87922740D01*
X7577723Y88044346D01*
X7705582Y88353024D01*
X7713948Y88380601D01*
X7802568Y88672746D01*
X7851813Y88920314D01*
X7881710Y88973698D01*
X7937275Y88999314D01*
X7948911Y89000000D01*
X36051089Y89000000D01*
X36109280Y88981093D01*
G37*
%TD.AperFunction*%
%TD*%
%TA.AperFunction,Conductor*%
%TO.N,/GND_ISO*%
G36*
X21355980Y30981093D02*
G01*
X21391944Y30931593D01*
X21391944Y30870407D01*
X21355980Y30820907D01*
X21317105Y30803903D01*
X21287262Y30797967D01*
X21287257Y30797965D01*
X21204400Y30742603D01*
X21204397Y30742600D01*
X21149035Y30659743D01*
X21149033Y30659737D01*
X21134501Y30586685D01*
X21134500Y30586673D01*
X21134500Y29137328D01*
X21134501Y29137316D01*
X21149033Y29064264D01*
X21149035Y29064258D01*
X21204397Y28981401D01*
X21204399Y28981399D01*
X21287260Y28926034D01*
X21342808Y28914985D01*
X21360315Y28911502D01*
X21360320Y28911502D01*
X21360326Y28911500D01*
X21360327Y28911500D01*
X22799673Y28911500D01*
X22799674Y28911500D01*
X22872740Y28926034D01*
X22944999Y28974315D01*
X23003887Y28990923D01*
X23055001Y28974315D01*
X23127260Y28926034D01*
X23182808Y28914985D01*
X23200315Y28911502D01*
X23200320Y28911502D01*
X23200326Y28911500D01*
X23200327Y28911500D01*
X24639673Y28911500D01*
X24639674Y28911500D01*
X24712740Y28926034D01*
X24795601Y28981399D01*
X24850966Y29064260D01*
X24865500Y29137326D01*
X24865500Y30586674D01*
X24850966Y30659740D01*
X24795601Y30742601D01*
X24795599Y30742603D01*
X24712742Y30797965D01*
X24712737Y30797967D01*
X24682895Y30803903D01*
X24629512Y30833800D01*
X24603897Y30889365D01*
X24615835Y30949375D01*
X24660765Y30990907D01*
X24702211Y31000000D01*
X35901000Y31000000D01*
X35959191Y30981093D01*
X35995155Y30931593D01*
X36000000Y30901000D01*
X36000000Y5099000D01*
X35981093Y5040809D01*
X35931593Y5004845D01*
X35901000Y5000000D01*
X8099000Y5000000D01*
X8040809Y5018907D01*
X8004845Y5068407D01*
X8000000Y5099000D01*
X8000000Y8118057D01*
X18000000Y8118057D01*
X18000000Y7881944D01*
X18036934Y7648748D01*
X18036935Y7648744D01*
X18109892Y7424207D01*
X18109894Y7424204D01*
X18217084Y7213831D01*
X18277339Y7130895D01*
X18898957Y7752514D01*
X18923978Y7692110D01*
X18995112Y7585649D01*
X19085649Y7495112D01*
X19192110Y7423978D01*
X19252511Y7398959D01*
X18630893Y6777341D01*
X18713825Y6717087D01*
X18713829Y6717085D01*
X18924203Y6609895D01*
X18924206Y6609893D01*
X19148743Y6536936D01*
X19148747Y6536935D01*
X19381944Y6500000D01*
X19618056Y6500000D01*
X19851252Y6536935D01*
X19851256Y6536936D01*
X20075793Y6609893D01*
X20075796Y6609895D01*
X20286170Y6717085D01*
X20286176Y6717089D01*
X20369105Y6777341D01*
X20369105Y6777342D01*
X19747488Y7398959D01*
X19807890Y7423978D01*
X19914351Y7495112D01*
X20004888Y7585649D01*
X20076022Y7692110D01*
X20101041Y7752512D01*
X20722658Y7130895D01*
X20722659Y7130895D01*
X20782911Y7213824D01*
X20782915Y7213830D01*
X20890105Y7424204D01*
X20890107Y7424207D01*
X20963064Y7648744D01*
X20963065Y7648748D01*
X21000000Y7881944D01*
X21000000Y8118057D01*
X20963065Y8351253D01*
X20963064Y8351257D01*
X20890107Y8575794D01*
X20890105Y8575797D01*
X20782915Y8786171D01*
X20782913Y8786175D01*
X20722659Y8869107D01*
X20101041Y8247489D01*
X20076022Y8307890D01*
X20004888Y8414351D01*
X19914351Y8504888D01*
X19807890Y8576022D01*
X19747486Y8601043D01*
X20369105Y9222661D01*
X20286169Y9282916D01*
X20075796Y9390106D01*
X20075793Y9390108D01*
X19851256Y9463065D01*
X19851252Y9463066D01*
X19618056Y9500000D01*
X19381944Y9500000D01*
X19148747Y9463066D01*
X19148743Y9463065D01*
X18924206Y9390108D01*
X18924203Y9390106D01*
X18713823Y9282912D01*
X18630893Y9222661D01*
X19252512Y8601042D01*
X19192110Y8576022D01*
X19085649Y8504888D01*
X18995112Y8414351D01*
X18923978Y8307890D01*
X18898958Y8247488D01*
X18277339Y8869107D01*
X18217088Y8786177D01*
X18109894Y8575797D01*
X18109892Y8575794D01*
X18036935Y8351257D01*
X18036934Y8351253D01*
X18000000Y8118057D01*
X8000000Y8118057D01*
X8000000Y19324673D01*
X13799500Y19324673D01*
X13799500Y17675328D01*
X13799501Y17675316D01*
X13814033Y17602264D01*
X13814035Y17602258D01*
X13869397Y17519401D01*
X13869399Y17519399D01*
X13952260Y17464034D01*
X14007808Y17452985D01*
X14025315Y17449502D01*
X14025320Y17449502D01*
X14025326Y17449500D01*
X14025327Y17449500D01*
X17574673Y17449500D01*
X17574674Y17449500D01*
X17647740Y17464034D01*
X17730601Y17519399D01*
X17785966Y17602260D01*
X17800500Y17675326D01*
X17800500Y19324674D01*
X17785966Y19397740D01*
X17730601Y19480601D01*
X17730599Y19480603D01*
X17647742Y19535965D01*
X17647740Y19535966D01*
X17647737Y19535967D01*
X17647736Y19535967D01*
X17574684Y19550499D01*
X17574674Y19550500D01*
X17574673Y19550500D01*
X16899500Y19550500D01*
X16841309Y19569407D01*
X16805345Y19618907D01*
X16800500Y19649500D01*
X16800500Y22199572D01*
X16819407Y22257763D01*
X16829496Y22269576D01*
X19410425Y24850504D01*
X19464942Y24878281D01*
X19480429Y24879500D01*
X20970500Y24879500D01*
X21028691Y24860593D01*
X21064655Y24811093D01*
X21069500Y24780500D01*
X21069500Y23425328D01*
X21069501Y23425316D01*
X21084033Y23352264D01*
X21084035Y23352258D01*
X21139397Y23269401D01*
X21139399Y23269399D01*
X21222260Y23214034D01*
X21277808Y23202985D01*
X21295315Y23199502D01*
X21295320Y23199502D01*
X21295326Y23199500D01*
X21295327Y23199500D01*
X24704673Y23199500D01*
X24704674Y23199500D01*
X24777740Y23214034D01*
X24860601Y23269399D01*
X24915966Y23352260D01*
X24930500Y23425326D01*
X24930500Y24780500D01*
X24949407Y24838691D01*
X24998907Y24874655D01*
X25029500Y24879500D01*
X25925500Y24879500D01*
X25983691Y24860593D01*
X26019655Y24811093D01*
X26024500Y24780500D01*
X26024500Y20180429D01*
X26005593Y20122238D01*
X25995503Y20110425D01*
X25645901Y19760824D01*
X25591385Y19733047D01*
X25507178Y19719711D01*
X25319974Y19658884D01*
X25144596Y19569525D01*
X25144595Y19569524D01*
X25144439Y19569411D01*
X25144377Y19569391D01*
X25141281Y19567493D01*
X25140825Y19568237D01*
X25086250Y19550500D01*
X24025326Y19550500D01*
X24025325Y19550500D01*
X24025315Y19550499D01*
X23952263Y19535967D01*
X23952257Y19535965D01*
X23869400Y19480603D01*
X23869397Y19480600D01*
X23814035Y19397743D01*
X23814033Y19397737D01*
X23799501Y19324685D01*
X23799500Y19324673D01*
X23799500Y17675328D01*
X23799501Y17675316D01*
X23814033Y17602264D01*
X23814035Y17602258D01*
X23869397Y17519401D01*
X23869399Y17519399D01*
X23952260Y17464034D01*
X24007808Y17452985D01*
X24025315Y17449502D01*
X24025320Y17449502D01*
X24025326Y17449500D01*
X24450500Y17449500D01*
X24508691Y17430593D01*
X24544655Y17381093D01*
X24549500Y17350500D01*
X24549500Y9858982D01*
X24530593Y9800791D01*
X24520504Y9788978D01*
X24211022Y9479496D01*
X24156505Y9451719D01*
X24141018Y9450500D01*
X23275326Y9450500D01*
X23275325Y9450500D01*
X23275315Y9450499D01*
X23202263Y9435967D01*
X23202257Y9435965D01*
X23119400Y9380603D01*
X23119397Y9380600D01*
X23064035Y9297743D01*
X23064033Y9297737D01*
X23049501Y9224685D01*
X23049500Y9224673D01*
X23049500Y6775328D01*
X23049501Y6775316D01*
X23064033Y6702264D01*
X23064035Y6702258D01*
X23119397Y6619401D01*
X23119399Y6619399D01*
X23202260Y6564034D01*
X23257808Y6552985D01*
X23275315Y6549502D01*
X23275320Y6549502D01*
X23275326Y6549500D01*
X23275327Y6549500D01*
X25724673Y6549500D01*
X25724674Y6549500D01*
X25797740Y6564034D01*
X25880601Y6619399D01*
X25935966Y6702260D01*
X25950500Y6775326D01*
X25950500Y7641019D01*
X25969407Y7699210D01*
X25979490Y7711017D01*
X26753829Y8485355D01*
X26869524Y8644595D01*
X26958884Y8819974D01*
X27019709Y9007174D01*
X27050500Y9201584D01*
X27050500Y9398417D01*
X27050500Y17350500D01*
X27069407Y17408691D01*
X27118907Y17444655D01*
X27149500Y17449500D01*
X27574673Y17449500D01*
X27574674Y17449500D01*
X27647740Y17464034D01*
X27730601Y17519399D01*
X27785966Y17602260D01*
X27790903Y17627084D01*
X27799405Y17669816D01*
X27829302Y17723199D01*
X27884868Y17748814D01*
X27896502Y17749500D01*
X29611417Y17749500D01*
X29611418Y17749500D01*
X29756413Y17778342D01*
X29892995Y17834916D01*
X29942229Y17867814D01*
X30015916Y17917048D01*
X31219371Y19120506D01*
X31273888Y19148282D01*
X31289375Y19149501D01*
X31672867Y19149501D01*
X31672872Y19149501D01*
X31732483Y19155909D01*
X31799907Y19181057D01*
X31867329Y19206203D01*
X31867329Y19206204D01*
X31867331Y19206204D01*
X31982546Y19292454D01*
X32068796Y19407669D01*
X32078306Y19433165D01*
X32119089Y19542512D01*
X32119088Y19542512D01*
X32119091Y19542517D01*
X32125500Y19602127D01*
X32125499Y20322872D01*
X32119091Y20382483D01*
X32119089Y20382489D01*
X32068797Y20517330D01*
X31982549Y20632542D01*
X31982548Y20632543D01*
X31982546Y20632546D01*
X31982541Y20632550D01*
X31867329Y20718798D01*
X31732488Y20769090D01*
X31732483Y20769091D01*
X31732481Y20769092D01*
X31732477Y20769092D01*
X31701249Y20772450D01*
X31672873Y20775500D01*
X31672870Y20775500D01*
X30327133Y20775500D01*
X30327129Y20775500D01*
X30327128Y20775499D01*
X30319949Y20774728D01*
X30267519Y20769092D01*
X30267514Y20769091D01*
X30132670Y20718798D01*
X30017458Y20632550D01*
X30017450Y20632542D01*
X29931202Y20517330D01*
X29880910Y20382489D01*
X29880908Y20382478D01*
X29874500Y20322871D01*
X29874500Y19939377D01*
X29855593Y19881186D01*
X29845504Y19869373D01*
X29255628Y19279496D01*
X29201111Y19251719D01*
X29185624Y19250500D01*
X28059553Y19250500D01*
X28001362Y19269407D01*
X27965398Y19318907D01*
X27965398Y19380093D01*
X27968083Y19387373D01*
X27987052Y19433165D01*
X28025501Y19626460D01*
X28025501Y19823541D01*
X28025501Y19827618D01*
X28025500Y19827644D01*
X28025500Y25978540D01*
X28025499Y25978544D01*
X27987051Y26171835D01*
X27911632Y26353914D01*
X27867183Y26420436D01*
X27850499Y26475437D01*
X27850499Y27027867D01*
X27850499Y27027872D01*
X27844091Y27087483D01*
X27844089Y27087489D01*
X27793797Y27222330D01*
X27707549Y27337542D01*
X27707548Y27337543D01*
X27707546Y27337546D01*
X27707541Y27337550D01*
X27592329Y27423798D01*
X27457488Y27474090D01*
X27457483Y27474091D01*
X27457481Y27474092D01*
X27457477Y27474092D01*
X27426249Y27477450D01*
X27397873Y27480500D01*
X27397870Y27480500D01*
X26652133Y27480500D01*
X26652129Y27480500D01*
X26652128Y27480499D01*
X26644949Y27479728D01*
X26592519Y27474092D01*
X26592514Y27474091D01*
X26457670Y27423798D01*
X26342458Y27337550D01*
X26342450Y27337542D01*
X26256202Y27222330D01*
X26205910Y27087489D01*
X26205908Y27087478D01*
X26199500Y27027871D01*
X26199500Y26979500D01*
X26180593Y26921309D01*
X26131093Y26885345D01*
X26100500Y26880500D01*
X25029500Y26880500D01*
X24971309Y26899407D01*
X24935345Y26948907D01*
X24930500Y26979500D01*
X24930500Y28334673D01*
X24930498Y28334685D01*
X24927015Y28352192D01*
X24915966Y28407740D01*
X24860601Y28490601D01*
X24860599Y28490603D01*
X24777742Y28545965D01*
X24777740Y28545966D01*
X24777737Y28545967D01*
X24777736Y28545967D01*
X24704684Y28560499D01*
X24704674Y28560500D01*
X21295326Y28560500D01*
X21295325Y28560500D01*
X21295315Y28560499D01*
X21222263Y28545967D01*
X21222257Y28545965D01*
X21139400Y28490603D01*
X21139397Y28490600D01*
X21084035Y28407743D01*
X21084033Y28407737D01*
X21069501Y28334685D01*
X21069500Y28334673D01*
X21069500Y26979500D01*
X21050593Y26921309D01*
X21001093Y26885345D01*
X20970500Y26880500D01*
X18926456Y26880500D01*
X18829812Y26861277D01*
X18829812Y26861276D01*
X18805650Y26856470D01*
X18733161Y26842051D01*
X18733158Y26842050D01*
X18679834Y26819963D01*
X18679834Y26819962D01*
X18615460Y26793297D01*
X18551085Y26766632D01*
X18489566Y26725526D01*
X18428046Y26684420D01*
X18403571Y26668067D01*
X18387218Y26657140D01*
X15022864Y23292786D01*
X15022861Y23292782D01*
X14913367Y23128914D01*
X14837949Y22946837D01*
X14837949Y22946835D01*
X14799500Y22753544D01*
X14799500Y19649500D01*
X14780593Y19591309D01*
X14731093Y19555345D01*
X14700500Y19550500D01*
X14025326Y19550500D01*
X14025325Y19550500D01*
X14025315Y19550499D01*
X13952263Y19535967D01*
X13952257Y19535965D01*
X13869400Y19480603D01*
X13869397Y19480600D01*
X13814035Y19397743D01*
X13814033Y19397737D01*
X13799501Y19324685D01*
X13799500Y19324673D01*
X8000000Y19324673D01*
X8000000Y30901000D01*
X8018907Y30959191D01*
X8068407Y30995155D01*
X8099000Y31000000D01*
X21297789Y31000000D01*
X21355980Y30981093D01*
G37*
%TD.AperFunction*%
%TD*%
M02*
