%TF.GenerationSoftware,KiCad,Pcbnew,10.0.6*%
%TF.CreationDate,2026-09-29T19:43:40-04:00*%
%TF.ProjectId,PS-FLYBACK-5W,50532d46-4c59-4424-9143-4b2d35572e6b,A1-development*%
%TF.SameCoordinates,Original*%
%TF.FileFunction,Soldermask,Top*%
%TF.FilePolarity,Negative*%
%FSLAX46Y46*%
G04 Gerber Fmt 4.6, Leading zero omitted, Abs format (unit mm)*
G04 Created by KiCad (PCBNEW 10.0.6) date 2026-09-29 19:43:40*
%MOMM*%
%LPD*%
G01*
G04 APERTURE LIST*
G04 Aperture macros list*
%AMRoundRect*
0 Rectangle with rounded corners*
0 $1 Rounding radius*
0 $2 $3 $4 $5 $6 $7 $8 $9 X,Y pos of 4 corners*
0 Add a 4 corners polygon primitive as box body*
4,1,4,$2,$3,$4,$5,$6,$7,$8,$9,$2,$3,0*
0 Add four circle primitives for the rounded corners*
1,1,$1+$1,$2,$3*
1,1,$1+$1,$4,$5*
1,1,$1+$1,$6,$7*
1,1,$1+$1,$8,$9*
0 Add four rect primitives between the rounded corners*
20,1,$1+$1,$2,$3,$4,$5,0*
20,1,$1+$1,$4,$5,$6,$7,0*
20,1,$1+$1,$6,$7,$8,$9,0*
20,1,$1+$1,$8,$9,$2,$3,0*%
G04 Aperture macros list end*
%ADD10C,0.000000*%
%ADD11RoundRect,0.250000X0.375000X0.625000X-0.375000X0.625000X-0.375000X-0.625000X0.375000X-0.625000X0*%
%ADD12RoundRect,0.250000X-0.650000X1.000000X-0.650000X-1.000000X0.650000X-1.000000X0.650000X1.000000X0*%
%ADD13RoundRect,0.250000X1.100000X-0.325000X1.100000X0.325000X-1.100000X0.325000X-1.100000X-0.325000X0*%
%ADD14RoundRect,0.200000X-0.200000X-0.275000X0.200000X-0.275000X0.200000X0.275000X-0.200000X0.275000X0*%
%ADD15R,3.500000X1.600000*%
%ADD16C,0.800000*%
%ADD17R,2.400000X2.400000*%
%ADD18C,2.400000*%
%ADD19RoundRect,0.250000X0.312500X0.625000X-0.312500X0.625000X-0.312500X-0.625000X0.312500X-0.625000X0*%
%ADD20R,1.143000X0.760000*%
%ADD21R,2.260000X2.990000*%
%ADD22RoundRect,0.250000X0.500000X-0.950000X0.500000X0.950000X-0.500000X0.950000X-0.500000X-0.950000X0*%
%ADD23RoundRect,0.250000X0.500000X-0.275000X0.500000X0.275000X-0.500000X0.275000X-0.500000X-0.275000X0*%
%ADD24RoundRect,0.200000X0.275000X-0.200000X0.275000X0.200000X-0.275000X0.200000X-0.275000X-0.200000X0*%
%ADD25C,3.200000*%
%ADD26RoundRect,0.250000X0.325000X1.100000X-0.325000X1.100000X-0.325000X-1.100000X0.325000X-1.100000X0*%
%ADD27RoundRect,0.250000X-0.500000X0.950000X-0.500000X-0.950000X0.500000X-0.950000X0.500000X0.950000X0*%
%ADD28RoundRect,0.250000X-0.500000X0.275000X-0.500000X-0.275000X0.500000X-0.275000X0.500000X0.275000X0*%
%ADD29RoundRect,0.250000X0.250000X0.475000X-0.250000X0.475000X-0.250000X-0.475000X0.250000X-0.475000X0*%
%ADD30RoundRect,0.200000X0.200000X0.275000X-0.200000X0.275000X-0.200000X-0.275000X0.200000X-0.275000X0*%
%ADD31R,3.360000X4.860000*%
%ADD32R,1.390000X1.400000*%
%ADD33RoundRect,0.250000X-0.625000X0.312500X-0.625000X-0.312500X0.625000X-0.312500X0.625000X0.312500X0*%
%ADD34RoundRect,0.250000X-0.362500X-1.425000X0.362500X-1.425000X0.362500X1.425000X-0.362500X1.425000X0*%
%ADD35RoundRect,0.250000X-1.950000X-1.000000X1.950000X-1.000000X1.950000X1.000000X-1.950000X1.000000X0*%
%ADD36RoundRect,0.250000X-0.325000X-1.100000X0.325000X-1.100000X0.325000X1.100000X-0.325000X1.100000X0*%
%ADD37RoundRect,0.225000X0.225000X0.250000X-0.225000X0.250000X-0.225000X-0.250000X0.225000X-0.250000X0*%
%ADD38C,1.200000*%
G04 APERTURE END LIST*
D10*
%TO.C,H3*%
G36*
X4709290Y7693149D02*
G01*
X4917684Y7672624D01*
X5124289Y7638513D01*
X5328221Y7590963D01*
X5528606Y7530176D01*
X5724587Y7456415D01*
X5915324Y7369993D01*
X6100000Y7271281D01*
X6277825Y7160703D01*
X6448037Y7038731D01*
X6609907Y6905887D01*
X6762742Y6762742D01*
X6905887Y6609907D01*
X7038731Y6448037D01*
X7160703Y6277825D01*
X7271281Y6100000D01*
X7369993Y5915324D01*
X7456415Y5724587D01*
X7530176Y5528606D01*
X7590963Y5328221D01*
X7638513Y5124289D01*
X7672624Y4917684D01*
X7693149Y4709290D01*
X7700000Y4500000D01*
X7693149Y4290710D01*
X7672624Y4082316D01*
X7638513Y3875711D01*
X7590963Y3671779D01*
X7530176Y3471394D01*
X7456415Y3275413D01*
X7369993Y3084676D01*
X7271281Y2900000D01*
X7160703Y2722175D01*
X7038731Y2551963D01*
X6905887Y2390093D01*
X6762742Y2237258D01*
X6609907Y2094113D01*
X6448037Y1961269D01*
X6277825Y1839297D01*
X6100000Y1728719D01*
X5915324Y1630007D01*
X5724587Y1543585D01*
X5528606Y1469824D01*
X5328221Y1409037D01*
X5124289Y1361487D01*
X4917684Y1327376D01*
X4709290Y1306851D01*
X4500000Y1300000D01*
X-3700000Y1300000D01*
X-3700000Y7700000D01*
X4500000Y7700000D01*
X4709290Y7693149D01*
G37*
%TO.C,H2*%
G36*
X53700000Y96300000D02*
G01*
X45500000Y96300000D01*
X45290710Y96306851D01*
X45082316Y96327376D01*
X44875711Y96361487D01*
X44671779Y96409037D01*
X44471394Y96469824D01*
X44275413Y96543585D01*
X44084676Y96630007D01*
X43900000Y96728719D01*
X43722175Y96839297D01*
X43551963Y96961269D01*
X43390093Y97094113D01*
X43237258Y97237258D01*
X43094113Y97390093D01*
X42961269Y97551963D01*
X42839297Y97722175D01*
X42728719Y97900000D01*
X42630007Y98084676D01*
X42543585Y98275413D01*
X42469824Y98471394D01*
X42409037Y98671779D01*
X42361487Y98875711D01*
X42327376Y99082316D01*
X42306851Y99290710D01*
X42300000Y99500000D01*
X42306851Y99709290D01*
X42327376Y99917684D01*
X42361487Y100124289D01*
X42409037Y100328221D01*
X42469824Y100528606D01*
X42543585Y100724587D01*
X42630007Y100915324D01*
X42728719Y101100000D01*
X42839297Y101277825D01*
X42961269Y101448037D01*
X43094113Y101609907D01*
X43237258Y101762742D01*
X43390093Y101905887D01*
X43551963Y102038731D01*
X43722175Y102160703D01*
X43900000Y102271281D01*
X44084676Y102369993D01*
X44275413Y102456415D01*
X44471394Y102530176D01*
X44671779Y102590963D01*
X44875711Y102638513D01*
X45082316Y102672624D01*
X45290710Y102693149D01*
X45500000Y102700000D01*
X53700000Y102700000D01*
X53700000Y96300000D01*
G37*
%TO.C,H1*%
G36*
X4709290Y102693149D02*
G01*
X4917684Y102672624D01*
X5124289Y102638513D01*
X5328221Y102590963D01*
X5528606Y102530176D01*
X5724587Y102456415D01*
X5915324Y102369993D01*
X6100000Y102271281D01*
X6277825Y102160703D01*
X6448037Y102038731D01*
X6609907Y101905887D01*
X6762742Y101762742D01*
X6905887Y101609907D01*
X7038731Y101448037D01*
X7160703Y101277825D01*
X7271281Y101100000D01*
X7369993Y100915324D01*
X7456415Y100724587D01*
X7530176Y100528606D01*
X7590963Y100328221D01*
X7638513Y100124289D01*
X7672624Y99917684D01*
X7693149Y99709290D01*
X7700000Y99500000D01*
X7693149Y99290710D01*
X7672624Y99082316D01*
X7638513Y98875711D01*
X7590963Y98671779D01*
X7530176Y98471394D01*
X7456415Y98275413D01*
X7369993Y98084676D01*
X7271281Y97900000D01*
X7160703Y97722175D01*
X7038731Y97551963D01*
X6905887Y97390093D01*
X6762742Y97237258D01*
X6609907Y97094113D01*
X6448037Y96961269D01*
X6277825Y96839297D01*
X6100000Y96728719D01*
X5915324Y96630007D01*
X5724587Y96543585D01*
X5528606Y96469824D01*
X5328221Y96409037D01*
X5124289Y96361487D01*
X4917684Y96327376D01*
X4709290Y96306851D01*
X4500000Y96300000D01*
X-3700000Y96300000D01*
X-3700000Y102700000D01*
X4500000Y102700000D01*
X4709290Y102693149D01*
G37*
%TO.C,H4*%
G36*
X53700000Y1300000D02*
G01*
X45500000Y1300000D01*
X45290710Y1306851D01*
X45082316Y1327376D01*
X44875711Y1361487D01*
X44671779Y1409037D01*
X44471394Y1469824D01*
X44275413Y1543585D01*
X44084676Y1630007D01*
X43900000Y1728719D01*
X43722175Y1839297D01*
X43551963Y1961269D01*
X43390093Y2094113D01*
X43237258Y2237258D01*
X43094113Y2390093D01*
X42961269Y2551963D01*
X42839297Y2722175D01*
X42728719Y2900000D01*
X42630007Y3084676D01*
X42543585Y3275413D01*
X42469824Y3471394D01*
X42409037Y3671779D01*
X42361487Y3875711D01*
X42327376Y4082316D01*
X42306851Y4290710D01*
X42300000Y4500000D01*
X42306851Y4709290D01*
X42327376Y4917684D01*
X42361487Y5124289D01*
X42409037Y5328221D01*
X42469824Y5528606D01*
X42543585Y5724587D01*
X42630007Y5915324D01*
X42728719Y6100000D01*
X42839297Y6277825D01*
X42961269Y6448037D01*
X43094113Y6609907D01*
X43237258Y6762742D01*
X43390093Y6905887D01*
X43551963Y7038731D01*
X43722175Y7160703D01*
X43900000Y7271281D01*
X44084676Y7369993D01*
X44275413Y7456415D01*
X44471394Y7530176D01*
X44671779Y7590963D01*
X44875711Y7638513D01*
X45082316Y7672624D01*
X45290710Y7693149D01*
X45500000Y7700000D01*
X53700000Y7700000D01*
X53700000Y1300000D01*
G37*
%TD*%
D11*
%TO.C,F1*%
X16900000Y97000000D03*
X14100000Y97000000D03*
%TD*%
D12*
%TO.C,D4*%
X34000000Y78100000D03*
X34000000Y74100000D03*
%TD*%
D13*
%TO.C,C2*%
X29000000Y76525000D03*
X29000000Y79475000D03*
%TD*%
D14*
%TO.C,R4*%
X20825000Y79200000D03*
X22475000Y79200000D03*
%TD*%
D15*
%TO.C,C3*%
X28800000Y18500000D03*
X23200000Y18500000D03*
%TD*%
D16*
%TO.C,T1*%
X28621977Y71193193D03*
X21378023Y71193193D03*
X23169595Y32408661D03*
X26075000Y37553499D03*
%TD*%
D17*
%TO.C,J2*%
X27500000Y8000000D03*
D18*
X22500000Y8000000D03*
%TD*%
D17*
%TO.C,J1*%
X22500000Y97000000D03*
D18*
X27500000Y97000000D03*
%TD*%
D19*
%TO.C,R6*%
X30462500Y73600000D03*
X27537500Y73600000D03*
%TD*%
D20*
%TO.C,U1*%
X13898500Y79905000D03*
X13898500Y78635000D03*
X13898500Y77365000D03*
X13898500Y76095000D03*
X19101500Y76095000D03*
X19101500Y77365000D03*
X19101500Y78635000D03*
X19101500Y79905000D03*
D21*
X16500000Y78000000D03*
%TD*%
D22*
%TO.C,D3*%
X25000000Y78150000D03*
D23*
X25000000Y75775000D03*
%TD*%
D24*
%TO.C,R5*%
X19101500Y81675000D03*
X19101500Y83325000D03*
%TD*%
D25*
%TO.C,H3*%
X4500000Y4500000D03*
%TD*%
%TO.C,H2*%
X45500000Y99500000D03*
%TD*%
D14*
%TO.C,R2*%
X17675000Y86000000D03*
X19325000Y86000000D03*
%TD*%
D26*
%TO.C,C1*%
X11975000Y76365000D03*
X9025000Y76365000D03*
%TD*%
D15*
%TO.C,C8*%
X18800000Y18500000D03*
X13200000Y18500000D03*
%TD*%
D27*
%TO.C,D1*%
X13000000Y90150000D03*
D28*
X13000000Y92525000D03*
%TD*%
D14*
%TO.C,R1*%
X14675000Y86000000D03*
X16325000Y86000000D03*
%TD*%
D29*
%TO.C,C6*%
X25950000Y73600000D03*
X24050000Y73600000D03*
%TD*%
D30*
%TO.C,R3*%
X22475000Y77365000D03*
X20825000Y77365000D03*
%TD*%
D31*
%TO.C,D2*%
X26000000Y25880000D03*
D32*
X25080000Y29862000D03*
X26920000Y29862000D03*
%TD*%
D33*
%TO.C,R7*%
X34000000Y19962500D03*
X34000000Y17037500D03*
%TD*%
D25*
%TO.C,H1*%
X4500000Y99500000D03*
%TD*%
D34*
%TO.C,R8*%
X20037500Y90000000D03*
X25962500Y90000000D03*
%TD*%
D25*
%TO.C,H4*%
X45500000Y4500000D03*
%TD*%
D35*
%TO.C,C7*%
X31800000Y88000000D03*
X39200000Y88000000D03*
%TD*%
D36*
%TO.C,C4*%
X30025000Y25880000D03*
X32975000Y25880000D03*
%TD*%
D37*
%TO.C,C5*%
X12275000Y78800000D03*
X10725000Y78800000D03*
%TD*%
D38*
X33200000Y23000000D03*
X17400000Y74350000D03*
M02*
