%TF.GenerationSoftware,KiCad,Pcbnew,10.0.6*%
%TF.CreationDate,2026-09-29T14:16:39-04:00*%
%TF.ProjectId,PS-FLYBACK-5W,50532d46-4c59-4424-9143-4b2d35572e6b,A0-development*%
%TF.SameCoordinates,Original*%
%TF.FileFunction,Legend,Top*%
%TF.FilePolarity,Positive*%
%FSLAX46Y46*%
G04 Gerber Fmt 4.6, Leading zero omitted, Abs format (unit mm)*
G04 Created by KiCad (PCBNEW 10.0.6) date 2026-09-29 14:16:39*
%MOMM*%
%LPD*%
G01*
G04 APERTURE LIST*
G04 Aperture macros list*
%AMRoundRect*
0 Rectangle with rounded corners*
0 $1 Rounding radius*
0 $2 $3 $4 $5 $6 $7 $8 $9 X,Y pos of 4 corners*
0 Add a 4 corners polygon primitive as box body*
4,1,4,$2,$3,$4,$5,$6,$7,$8,$9,$2,$3,0*
0 Add four circle primitives for the rounded corners*
1,1,$1+$1,$2,$3*
1,1,$1+$1,$4,$5*
1,1,$1+$1,$6,$7*
1,1,$1+$1,$8,$9*
0 Add four rect primitives between the rounded corners*
20,1,$1+$1,$2,$3,$4,$5,0*
20,1,$1+$1,$4,$5,$6,$7,0*
20,1,$1+$1,$6,$7,$8,$9,0*
20,1,$1+$1,$8,$9,$2,$3,0*%
G04 Aperture macros list end*
%ADD10C,0.150000*%
%ADD11C,0.140000*%
%ADD12C,0.120000*%
%ADD13C,0.200000*%
%ADD14C,0.250000*%
%ADD15C,0.220000*%
%ADD16RoundRect,0.200000X-0.275000X0.200000X-0.275000X-0.200000X0.275000X-0.200000X0.275000X0.200000X0*%
%ADD17R,3.500000X1.600000*%
%ADD18R,2.400000X2.400000*%
%ADD19C,2.400000*%
%ADD20RoundRect,0.200000X-0.200000X-0.275000X0.200000X-0.275000X0.200000X0.275000X-0.200000X0.275000X0*%
%ADD21RoundRect,0.250000X-0.250000X-0.475000X0.250000X-0.475000X0.250000X0.475000X-0.250000X0.475000X0*%
%ADD22RoundRect,0.250000X-0.375000X-0.625000X0.375000X-0.625000X0.375000X0.625000X-0.375000X0.625000X0*%
%ADD23RoundRect,0.250000X0.500000X-0.950000X0.500000X0.950000X-0.500000X0.950000X-0.500000X-0.950000X0*%
%ADD24RoundRect,0.250000X0.500000X-0.275000X0.500000X0.275000X-0.500000X0.275000X-0.500000X-0.275000X0*%
%ADD25RoundRect,0.250000X1.000000X0.650000X-1.000000X0.650000X-1.000000X-0.650000X1.000000X-0.650000X0*%
%ADD26RoundRect,0.250000X-1.100000X0.325000X-1.100000X-0.325000X1.100000X-0.325000X1.100000X0.325000X0*%
%ADD27RoundRect,0.225000X0.250000X-0.225000X0.250000X0.225000X-0.250000X0.225000X-0.250000X-0.225000X0*%
%ADD28RoundRect,0.250000X-0.625000X0.312500X-0.625000X-0.312500X0.625000X-0.312500X0.625000X0.312500X0*%
%ADD29C,0.800000*%
%ADD30RoundRect,0.250000X0.650000X-1.000000X0.650000X1.000000X-0.650000X1.000000X-0.650000X-1.000000X0*%
%ADD31R,4.860000X3.360000*%
%ADD32R,1.400000X1.390000*%
%ADD33RoundRect,0.200000X0.275000X-0.200000X0.275000X0.200000X-0.275000X0.200000X-0.275000X-0.200000X0*%
%ADD34R,0.760000X1.143000*%
%ADD35R,2.990000X2.260000*%
G04 APERTURE END LIST*
D10*
X16657142Y63937705D02*
X16733332Y63937705D01*
X16733332Y63937705D02*
X16809523Y63899610D01*
X16809523Y63899610D02*
X16847618Y63861515D01*
X16847618Y63861515D02*
X16885713Y63785324D01*
X16885713Y63785324D02*
X16923808Y63632943D01*
X16923808Y63632943D02*
X16923808Y63442467D01*
X16923808Y63442467D02*
X16885713Y63290086D01*
X16885713Y63290086D02*
X16847618Y63213896D01*
X16847618Y63213896D02*
X16809523Y63175800D01*
X16809523Y63175800D02*
X16733332Y63137705D01*
X16733332Y63137705D02*
X16657142Y63137705D01*
X16657142Y63137705D02*
X16580951Y63175800D01*
X16580951Y63175800D02*
X16542856Y63213896D01*
X16542856Y63213896D02*
X16504761Y63290086D01*
X16504761Y63290086D02*
X16466665Y63442467D01*
X16466665Y63442467D02*
X16466665Y63632943D01*
X16466665Y63632943D02*
X16504761Y63785324D01*
X16504761Y63785324D02*
X16542856Y63861515D01*
X16542856Y63861515D02*
X16580951Y63899610D01*
X16580951Y63899610D02*
X16657142Y63937705D01*
X17266666Y63213896D02*
X17304761Y63175800D01*
X17304761Y63175800D02*
X17266666Y63137705D01*
X17266666Y63137705D02*
X17228570Y63175800D01*
X17228570Y63175800D02*
X17266666Y63213896D01*
X17266666Y63213896D02*
X17266666Y63137705D01*
X17609522Y63861515D02*
X17647618Y63899610D01*
X17647618Y63899610D02*
X17723808Y63937705D01*
X17723808Y63937705D02*
X17914284Y63937705D01*
X17914284Y63937705D02*
X17990475Y63899610D01*
X17990475Y63899610D02*
X18028570Y63861515D01*
X18028570Y63861515D02*
X18066665Y63785324D01*
X18066665Y63785324D02*
X18066665Y63709134D01*
X18066665Y63709134D02*
X18028570Y63594848D01*
X18028570Y63594848D02*
X17571427Y63137705D01*
X17571427Y63137705D02*
X18066665Y63137705D01*
X18828570Y63137705D02*
X18371427Y63137705D01*
X18599999Y63137705D02*
X18599999Y63937705D01*
X18599999Y63937705D02*
X18523808Y63823420D01*
X18523808Y63823420D02*
X18447618Y63747229D01*
X18447618Y63747229D02*
X18371427Y63709134D01*
X19780952Y63137705D02*
X19780952Y63671039D01*
X19780952Y63594848D02*
X19819047Y63632943D01*
X19819047Y63632943D02*
X19895237Y63671039D01*
X19895237Y63671039D02*
X20009523Y63671039D01*
X20009523Y63671039D02*
X20085714Y63632943D01*
X20085714Y63632943D02*
X20123809Y63556753D01*
X20123809Y63556753D02*
X20123809Y63137705D01*
X20123809Y63556753D02*
X20161904Y63632943D01*
X20161904Y63632943D02*
X20238095Y63671039D01*
X20238095Y63671039D02*
X20352380Y63671039D01*
X20352380Y63671039D02*
X20428571Y63632943D01*
X20428571Y63632943D02*
X20466666Y63556753D01*
X20466666Y63556753D02*
X20466666Y63137705D01*
X20847619Y63137705D02*
X20847619Y63671039D01*
X20847619Y63594848D02*
X20885714Y63632943D01*
X20885714Y63632943D02*
X20961904Y63671039D01*
X20961904Y63671039D02*
X21076190Y63671039D01*
X21076190Y63671039D02*
X21152381Y63632943D01*
X21152381Y63632943D02*
X21190476Y63556753D01*
X21190476Y63556753D02*
X21190476Y63137705D01*
X21190476Y63556753D02*
X21228571Y63632943D01*
X21228571Y63632943D02*
X21304762Y63671039D01*
X21304762Y63671039D02*
X21419047Y63671039D01*
X21419047Y63671039D02*
X21495238Y63632943D01*
X21495238Y63632943D02*
X21533333Y63556753D01*
X21533333Y63556753D02*
X21533333Y63137705D01*
X22942857Y63899610D02*
X22866667Y63937705D01*
X22866667Y63937705D02*
X22752381Y63937705D01*
X22752381Y63937705D02*
X22638095Y63899610D01*
X22638095Y63899610D02*
X22561905Y63823420D01*
X22561905Y63823420D02*
X22523810Y63747229D01*
X22523810Y63747229D02*
X22485714Y63594848D01*
X22485714Y63594848D02*
X22485714Y63480562D01*
X22485714Y63480562D02*
X22523810Y63328181D01*
X22523810Y63328181D02*
X22561905Y63251991D01*
X22561905Y63251991D02*
X22638095Y63175800D01*
X22638095Y63175800D02*
X22752381Y63137705D01*
X22752381Y63137705D02*
X22828572Y63137705D01*
X22828572Y63137705D02*
X22942857Y63175800D01*
X22942857Y63175800D02*
X22980953Y63213896D01*
X22980953Y63213896D02*
X22980953Y63480562D01*
X22980953Y63480562D02*
X22828572Y63480562D01*
X23285714Y63366277D02*
X23666667Y63366277D01*
X23209524Y63137705D02*
X23476191Y63937705D01*
X23476191Y63937705D02*
X23742857Y63137705D01*
X24009524Y63137705D02*
X24009524Y63937705D01*
X24009524Y63937705D02*
X24314286Y63937705D01*
X24314286Y63937705D02*
X24390476Y63899610D01*
X24390476Y63899610D02*
X24428571Y63861515D01*
X24428571Y63861515D02*
X24466667Y63785324D01*
X24466667Y63785324D02*
X24466667Y63671039D01*
X24466667Y63671039D02*
X24428571Y63594848D01*
X24428571Y63594848D02*
X24390476Y63556753D01*
X24390476Y63556753D02*
X24314286Y63518658D01*
X24314286Y63518658D02*
X24009524Y63518658D01*
X24809524Y63137705D02*
X24809524Y63937705D01*
X24809524Y63937705D02*
X25114286Y63937705D01*
X25114286Y63937705D02*
X25190476Y63899610D01*
X25190476Y63899610D02*
X25228571Y63861515D01*
X25228571Y63861515D02*
X25266667Y63785324D01*
X25266667Y63785324D02*
X25266667Y63671039D01*
X25266667Y63671039D02*
X25228571Y63594848D01*
X25228571Y63594848D02*
X25190476Y63556753D01*
X25190476Y63556753D02*
X25114286Y63518658D01*
X25114286Y63518658D02*
X24809524Y63518658D01*
X25609524Y63556753D02*
X25876190Y63556753D01*
X25990476Y63137705D02*
X25609524Y63137705D01*
X25609524Y63137705D02*
X25609524Y63937705D01*
X25609524Y63937705D02*
X25990476Y63937705D01*
X26333334Y63137705D02*
X26333334Y63937705D01*
X26333334Y63937705D02*
X26523810Y63937705D01*
X26523810Y63937705D02*
X26638096Y63899610D01*
X26638096Y63899610D02*
X26714286Y63823420D01*
X26714286Y63823420D02*
X26752381Y63747229D01*
X26752381Y63747229D02*
X26790477Y63594848D01*
X26790477Y63594848D02*
X26790477Y63480562D01*
X26790477Y63480562D02*
X26752381Y63328181D01*
X26752381Y63328181D02*
X26714286Y63251991D01*
X26714286Y63251991D02*
X26638096Y63175800D01*
X26638096Y63175800D02*
X26523810Y63137705D01*
X26523810Y63137705D02*
X26333334Y63137705D01*
X27742858Y63137705D02*
X27742858Y63937705D01*
X27742858Y63937705D02*
X28200001Y63137705D01*
X28200001Y63137705D02*
X28200001Y63937705D01*
X28695238Y63594848D02*
X28619048Y63632943D01*
X28619048Y63632943D02*
X28580953Y63671039D01*
X28580953Y63671039D02*
X28542857Y63747229D01*
X28542857Y63747229D02*
X28542857Y63785324D01*
X28542857Y63785324D02*
X28580953Y63861515D01*
X28580953Y63861515D02*
X28619048Y63899610D01*
X28619048Y63899610D02*
X28695238Y63937705D01*
X28695238Y63937705D02*
X28847619Y63937705D01*
X28847619Y63937705D02*
X28923810Y63899610D01*
X28923810Y63899610D02*
X28961905Y63861515D01*
X28961905Y63861515D02*
X29000000Y63785324D01*
X29000000Y63785324D02*
X29000000Y63747229D01*
X29000000Y63747229D02*
X28961905Y63671039D01*
X28961905Y63671039D02*
X28923810Y63632943D01*
X28923810Y63632943D02*
X28847619Y63594848D01*
X28847619Y63594848D02*
X28695238Y63594848D01*
X28695238Y63594848D02*
X28619048Y63556753D01*
X28619048Y63556753D02*
X28580953Y63518658D01*
X28580953Y63518658D02*
X28542857Y63442467D01*
X28542857Y63442467D02*
X28542857Y63290086D01*
X28542857Y63290086D02*
X28580953Y63213896D01*
X28580953Y63213896D02*
X28619048Y63175800D01*
X28619048Y63175800D02*
X28695238Y63137705D01*
X28695238Y63137705D02*
X28847619Y63137705D01*
X28847619Y63137705D02*
X28923810Y63175800D01*
X28923810Y63175800D02*
X28961905Y63213896D01*
X28961905Y63213896D02*
X29000000Y63290086D01*
X29000000Y63290086D02*
X29000000Y63442467D01*
X29000000Y63442467D02*
X28961905Y63518658D01*
X28961905Y63518658D02*
X28923810Y63556753D01*
X28923810Y63556753D02*
X28847619Y63594848D01*
X29266667Y63937705D02*
X29800001Y63937705D01*
X29800001Y63937705D02*
X29457143Y63137705D01*
X31171430Y63213896D02*
X31133334Y63175800D01*
X31133334Y63175800D02*
X31019049Y63137705D01*
X31019049Y63137705D02*
X30942858Y63137705D01*
X30942858Y63137705D02*
X30828572Y63175800D01*
X30828572Y63175800D02*
X30752382Y63251991D01*
X30752382Y63251991D02*
X30714287Y63328181D01*
X30714287Y63328181D02*
X30676191Y63480562D01*
X30676191Y63480562D02*
X30676191Y63594848D01*
X30676191Y63594848D02*
X30714287Y63747229D01*
X30714287Y63747229D02*
X30752382Y63823420D01*
X30752382Y63823420D02*
X30828572Y63899610D01*
X30828572Y63899610D02*
X30942858Y63937705D01*
X30942858Y63937705D02*
X31019049Y63937705D01*
X31019049Y63937705D02*
X31133334Y63899610D01*
X31133334Y63899610D02*
X31171430Y63861515D01*
X31666668Y63937705D02*
X31819049Y63937705D01*
X31819049Y63937705D02*
X31895239Y63899610D01*
X31895239Y63899610D02*
X31971430Y63823420D01*
X31971430Y63823420D02*
X32009525Y63671039D01*
X32009525Y63671039D02*
X32009525Y63404372D01*
X32009525Y63404372D02*
X31971430Y63251991D01*
X31971430Y63251991D02*
X31895239Y63175800D01*
X31895239Y63175800D02*
X31819049Y63137705D01*
X31819049Y63137705D02*
X31666668Y63137705D01*
X31666668Y63137705D02*
X31590477Y63175800D01*
X31590477Y63175800D02*
X31514287Y63251991D01*
X31514287Y63251991D02*
X31476191Y63404372D01*
X31476191Y63404372D02*
X31476191Y63671039D01*
X31476191Y63671039D02*
X31514287Y63823420D01*
X31514287Y63823420D02*
X31590477Y63899610D01*
X31590477Y63899610D02*
X31666668Y63937705D01*
X32809525Y63137705D02*
X32542858Y63518658D01*
X32352382Y63137705D02*
X32352382Y63937705D01*
X32352382Y63937705D02*
X32657144Y63937705D01*
X32657144Y63937705D02*
X32733334Y63899610D01*
X32733334Y63899610D02*
X32771429Y63861515D01*
X32771429Y63861515D02*
X32809525Y63785324D01*
X32809525Y63785324D02*
X32809525Y63671039D01*
X32809525Y63671039D02*
X32771429Y63594848D01*
X32771429Y63594848D02*
X32733334Y63556753D01*
X32733334Y63556753D02*
X32657144Y63518658D01*
X32657144Y63518658D02*
X32352382Y63518658D01*
X33152382Y63556753D02*
X33419048Y63556753D01*
X33533334Y63137705D02*
X33152382Y63137705D01*
X33152382Y63137705D02*
X33152382Y63937705D01*
X33152382Y63937705D02*
X33533334Y63937705D01*
X18580953Y35556753D02*
X18314287Y35556753D01*
X18314287Y35137705D02*
X18314287Y35937705D01*
X18314287Y35937705D02*
X18695239Y35937705D01*
X19000001Y35937705D02*
X19000001Y35290086D01*
X19000001Y35290086D02*
X19038096Y35213896D01*
X19038096Y35213896D02*
X19076191Y35175800D01*
X19076191Y35175800D02*
X19152382Y35137705D01*
X19152382Y35137705D02*
X19304763Y35137705D01*
X19304763Y35137705D02*
X19380953Y35175800D01*
X19380953Y35175800D02*
X19419048Y35213896D01*
X19419048Y35213896D02*
X19457144Y35290086D01*
X19457144Y35290086D02*
X19457144Y35937705D01*
X19838096Y35137705D02*
X19838096Y35937705D01*
X19838096Y35937705D02*
X20295239Y35137705D01*
X20295239Y35137705D02*
X20295239Y35937705D01*
X21133334Y35213896D02*
X21095238Y35175800D01*
X21095238Y35175800D02*
X20980953Y35137705D01*
X20980953Y35137705D02*
X20904762Y35137705D01*
X20904762Y35137705D02*
X20790476Y35175800D01*
X20790476Y35175800D02*
X20714286Y35251991D01*
X20714286Y35251991D02*
X20676191Y35328181D01*
X20676191Y35328181D02*
X20638095Y35480562D01*
X20638095Y35480562D02*
X20638095Y35594848D01*
X20638095Y35594848D02*
X20676191Y35747229D01*
X20676191Y35747229D02*
X20714286Y35823420D01*
X20714286Y35823420D02*
X20790476Y35899610D01*
X20790476Y35899610D02*
X20904762Y35937705D01*
X20904762Y35937705D02*
X20980953Y35937705D01*
X20980953Y35937705D02*
X21095238Y35899610D01*
X21095238Y35899610D02*
X21133334Y35861515D01*
X21361905Y35937705D02*
X21819048Y35937705D01*
X21590476Y35137705D02*
X21590476Y35937705D01*
X22085715Y35137705D02*
X22085715Y35937705D01*
X22619048Y35937705D02*
X22771429Y35937705D01*
X22771429Y35937705D02*
X22847619Y35899610D01*
X22847619Y35899610D02*
X22923810Y35823420D01*
X22923810Y35823420D02*
X22961905Y35671039D01*
X22961905Y35671039D02*
X22961905Y35404372D01*
X22961905Y35404372D02*
X22923810Y35251991D01*
X22923810Y35251991D02*
X22847619Y35175800D01*
X22847619Y35175800D02*
X22771429Y35137705D01*
X22771429Y35137705D02*
X22619048Y35137705D01*
X22619048Y35137705D02*
X22542857Y35175800D01*
X22542857Y35175800D02*
X22466667Y35251991D01*
X22466667Y35251991D02*
X22428571Y35404372D01*
X22428571Y35404372D02*
X22428571Y35671039D01*
X22428571Y35671039D02*
X22466667Y35823420D01*
X22466667Y35823420D02*
X22542857Y35899610D01*
X22542857Y35899610D02*
X22619048Y35937705D01*
X23304762Y35137705D02*
X23304762Y35937705D01*
X23304762Y35937705D02*
X23761905Y35137705D01*
X23761905Y35137705D02*
X23761905Y35937705D01*
X24104761Y35366277D02*
X24485714Y35366277D01*
X24028571Y35137705D02*
X24295238Y35937705D01*
X24295238Y35937705D02*
X24561904Y35137705D01*
X25209523Y35137705D02*
X24828571Y35137705D01*
X24828571Y35137705D02*
X24828571Y35937705D01*
X26085714Y35137705D02*
X26085714Y35937705D01*
X26428570Y35175800D02*
X26542856Y35137705D01*
X26542856Y35137705D02*
X26733332Y35137705D01*
X26733332Y35137705D02*
X26809523Y35175800D01*
X26809523Y35175800D02*
X26847618Y35213896D01*
X26847618Y35213896D02*
X26885713Y35290086D01*
X26885713Y35290086D02*
X26885713Y35366277D01*
X26885713Y35366277D02*
X26847618Y35442467D01*
X26847618Y35442467D02*
X26809523Y35480562D01*
X26809523Y35480562D02*
X26733332Y35518658D01*
X26733332Y35518658D02*
X26580951Y35556753D01*
X26580951Y35556753D02*
X26504761Y35594848D01*
X26504761Y35594848D02*
X26466666Y35632943D01*
X26466666Y35632943D02*
X26428570Y35709134D01*
X26428570Y35709134D02*
X26428570Y35785324D01*
X26428570Y35785324D02*
X26466666Y35861515D01*
X26466666Y35861515D02*
X26504761Y35899610D01*
X26504761Y35899610D02*
X26580951Y35937705D01*
X26580951Y35937705D02*
X26771428Y35937705D01*
X26771428Y35937705D02*
X26885713Y35899610D01*
X27380952Y35937705D02*
X27533333Y35937705D01*
X27533333Y35937705D02*
X27609523Y35899610D01*
X27609523Y35899610D02*
X27685714Y35823420D01*
X27685714Y35823420D02*
X27723809Y35671039D01*
X27723809Y35671039D02*
X27723809Y35404372D01*
X27723809Y35404372D02*
X27685714Y35251991D01*
X27685714Y35251991D02*
X27609523Y35175800D01*
X27609523Y35175800D02*
X27533333Y35137705D01*
X27533333Y35137705D02*
X27380952Y35137705D01*
X27380952Y35137705D02*
X27304761Y35175800D01*
X27304761Y35175800D02*
X27228571Y35251991D01*
X27228571Y35251991D02*
X27190475Y35404372D01*
X27190475Y35404372D02*
X27190475Y35671039D01*
X27190475Y35671039D02*
X27228571Y35823420D01*
X27228571Y35823420D02*
X27304761Y35899610D01*
X27304761Y35899610D02*
X27380952Y35937705D01*
X28447618Y35137705D02*
X28066666Y35137705D01*
X28066666Y35137705D02*
X28066666Y35937705D01*
X28676189Y35366277D02*
X29057142Y35366277D01*
X28599999Y35137705D02*
X28866666Y35937705D01*
X28866666Y35937705D02*
X29133332Y35137705D01*
X29285713Y35937705D02*
X29742856Y35937705D01*
X29514284Y35137705D02*
X29514284Y35937705D01*
X30009523Y35137705D02*
X30009523Y35937705D01*
X30542856Y35937705D02*
X30695237Y35937705D01*
X30695237Y35937705D02*
X30771427Y35899610D01*
X30771427Y35899610D02*
X30847618Y35823420D01*
X30847618Y35823420D02*
X30885713Y35671039D01*
X30885713Y35671039D02*
X30885713Y35404372D01*
X30885713Y35404372D02*
X30847618Y35251991D01*
X30847618Y35251991D02*
X30771427Y35175800D01*
X30771427Y35175800D02*
X30695237Y35137705D01*
X30695237Y35137705D02*
X30542856Y35137705D01*
X30542856Y35137705D02*
X30466665Y35175800D01*
X30466665Y35175800D02*
X30390475Y35251991D01*
X30390475Y35251991D02*
X30352379Y35404372D01*
X30352379Y35404372D02*
X30352379Y35671039D01*
X30352379Y35671039D02*
X30390475Y35823420D01*
X30390475Y35823420D02*
X30466665Y35899610D01*
X30466665Y35899610D02*
X30542856Y35937705D01*
X31228570Y35137705D02*
X31228570Y35937705D01*
X31228570Y35937705D02*
X31685713Y35137705D01*
X31685713Y35137705D02*
X31685713Y35937705D01*
X7513095Y101814573D02*
X7513095Y102664573D01*
X7917857Y101814573D02*
X7917857Y102664573D01*
X7917857Y102664573D02*
X8403572Y101814573D01*
X8403572Y101814573D02*
X8403572Y102664573D01*
X8808333Y101814573D02*
X8808333Y102664573D01*
X8808333Y102664573D02*
X9132143Y102664573D01*
X9132143Y102664573D02*
X9213095Y102624097D01*
X9213095Y102624097D02*
X9253572Y102583621D01*
X9253572Y102583621D02*
X9294048Y102502669D01*
X9294048Y102502669D02*
X9294048Y102381240D01*
X9294048Y102381240D02*
X9253572Y102300288D01*
X9253572Y102300288D02*
X9213095Y102259811D01*
X9213095Y102259811D02*
X9132143Y102219335D01*
X9132143Y102219335D02*
X8808333Y102219335D01*
X9658333Y102664573D02*
X9658333Y101976478D01*
X9658333Y101976478D02*
X9698810Y101895526D01*
X9698810Y101895526D02*
X9739286Y101855049D01*
X9739286Y101855049D02*
X9820238Y101814573D01*
X9820238Y101814573D02*
X9982143Y101814573D01*
X9982143Y101814573D02*
X10063095Y101855049D01*
X10063095Y101855049D02*
X10103572Y101895526D01*
X10103572Y101895526D02*
X10144048Y101976478D01*
X10144048Y101976478D02*
X10144048Y102664573D01*
X10427381Y102664573D02*
X10913095Y102664573D01*
X10670238Y101814573D02*
X10670238Y102664573D01*
X11844047Y102138383D02*
X12491667Y102138383D01*
X12167857Y101814573D02*
X12167857Y102462192D01*
X14839285Y102138383D02*
X15486905Y102138383D01*
X21978571Y2464573D02*
X22140476Y2464573D01*
X22140476Y2464573D02*
X22221428Y2424097D01*
X22221428Y2424097D02*
X22302381Y2343145D01*
X22302381Y2343145D02*
X22342857Y2181240D01*
X22342857Y2181240D02*
X22342857Y1897907D01*
X22342857Y1897907D02*
X22302381Y1736002D01*
X22302381Y1736002D02*
X22221428Y1655049D01*
X22221428Y1655049D02*
X22140476Y1614573D01*
X22140476Y1614573D02*
X21978571Y1614573D01*
X21978571Y1614573D02*
X21897619Y1655049D01*
X21897619Y1655049D02*
X21816666Y1736002D01*
X21816666Y1736002D02*
X21776190Y1897907D01*
X21776190Y1897907D02*
X21776190Y2181240D01*
X21776190Y2181240D02*
X21816666Y2343145D01*
X21816666Y2343145D02*
X21897619Y2424097D01*
X21897619Y2424097D02*
X21978571Y2464573D01*
X22707142Y2464573D02*
X22707142Y1776478D01*
X22707142Y1776478D02*
X22747619Y1695526D01*
X22747619Y1695526D02*
X22788095Y1655049D01*
X22788095Y1655049D02*
X22869047Y1614573D01*
X22869047Y1614573D02*
X23030952Y1614573D01*
X23030952Y1614573D02*
X23111904Y1655049D01*
X23111904Y1655049D02*
X23152381Y1695526D01*
X23152381Y1695526D02*
X23192857Y1776478D01*
X23192857Y1776478D02*
X23192857Y2464573D01*
X23476190Y2464573D02*
X23961904Y2464573D01*
X23719047Y1614573D02*
X23719047Y2464573D01*
X24892856Y1938383D02*
X25540476Y1938383D01*
X28535713Y1938383D02*
X29183333Y1938383D01*
X28859523Y1614573D02*
X28859523Y2262192D01*
X7428571Y90045181D02*
X6857143Y90045181D01*
X7142857Y90045181D02*
X7142857Y91045181D01*
X7142857Y91045181D02*
X7047619Y90902324D01*
X7047619Y90902324D02*
X6952381Y90807086D01*
X6952381Y90807086D02*
X6857143Y90759467D01*
X8000000Y90616610D02*
X7904762Y90664229D01*
X7904762Y90664229D02*
X7857143Y90711848D01*
X7857143Y90711848D02*
X7809524Y90807086D01*
X7809524Y90807086D02*
X7809524Y90854705D01*
X7809524Y90854705D02*
X7857143Y90949943D01*
X7857143Y90949943D02*
X7904762Y90997562D01*
X7904762Y90997562D02*
X8000000Y91045181D01*
X8000000Y91045181D02*
X8190476Y91045181D01*
X8190476Y91045181D02*
X8285714Y90997562D01*
X8285714Y90997562D02*
X8333333Y90949943D01*
X8333333Y90949943D02*
X8380952Y90854705D01*
X8380952Y90854705D02*
X8380952Y90807086D01*
X8380952Y90807086D02*
X8333333Y90711848D01*
X8333333Y90711848D02*
X8285714Y90664229D01*
X8285714Y90664229D02*
X8190476Y90616610D01*
X8190476Y90616610D02*
X8000000Y90616610D01*
X8000000Y90616610D02*
X7904762Y90568991D01*
X7904762Y90568991D02*
X7857143Y90521372D01*
X7857143Y90521372D02*
X7809524Y90426134D01*
X7809524Y90426134D02*
X7809524Y90235658D01*
X7809524Y90235658D02*
X7857143Y90140420D01*
X7857143Y90140420D02*
X7904762Y90092800D01*
X7904762Y90092800D02*
X8000000Y90045181D01*
X8000000Y90045181D02*
X8190476Y90045181D01*
X8190476Y90045181D02*
X8285714Y90092800D01*
X8285714Y90092800D02*
X8333333Y90140420D01*
X8333333Y90140420D02*
X8380952Y90235658D01*
X8380952Y90235658D02*
X8380952Y90426134D01*
X8380952Y90426134D02*
X8333333Y90521372D01*
X8333333Y90521372D02*
X8285714Y90568991D01*
X8285714Y90568991D02*
X8190476Y90616610D01*
X8809524Y90426134D02*
X9571429Y90426134D01*
X9952381Y91045181D02*
X10571428Y91045181D01*
X10571428Y91045181D02*
X10238095Y90664229D01*
X10238095Y90664229D02*
X10380952Y90664229D01*
X10380952Y90664229D02*
X10476190Y90616610D01*
X10476190Y90616610D02*
X10523809Y90568991D01*
X10523809Y90568991D02*
X10571428Y90473753D01*
X10571428Y90473753D02*
X10571428Y90235658D01*
X10571428Y90235658D02*
X10523809Y90140420D01*
X10523809Y90140420D02*
X10476190Y90092800D01*
X10476190Y90092800D02*
X10380952Y90045181D01*
X10380952Y90045181D02*
X10095238Y90045181D01*
X10095238Y90045181D02*
X10000000Y90092800D01*
X10000000Y90092800D02*
X9952381Y90140420D01*
X11428571Y91045181D02*
X11238095Y91045181D01*
X11238095Y91045181D02*
X11142857Y90997562D01*
X11142857Y90997562D02*
X11095238Y90949943D01*
X11095238Y90949943D02*
X11000000Y90807086D01*
X11000000Y90807086D02*
X10952381Y90616610D01*
X10952381Y90616610D02*
X10952381Y90235658D01*
X10952381Y90235658D02*
X11000000Y90140420D01*
X11000000Y90140420D02*
X11047619Y90092800D01*
X11047619Y90092800D02*
X11142857Y90045181D01*
X11142857Y90045181D02*
X11333333Y90045181D01*
X11333333Y90045181D02*
X11428571Y90092800D01*
X11428571Y90092800D02*
X11476190Y90140420D01*
X11476190Y90140420D02*
X11523809Y90235658D01*
X11523809Y90235658D02*
X11523809Y90473753D01*
X11523809Y90473753D02*
X11476190Y90568991D01*
X11476190Y90568991D02*
X11428571Y90616610D01*
X11428571Y90616610D02*
X11333333Y90664229D01*
X11333333Y90664229D02*
X11142857Y90664229D01*
X11142857Y90664229D02*
X11047619Y90616610D01*
X11047619Y90616610D02*
X11000000Y90568991D01*
X11000000Y90568991D02*
X10952381Y90473753D01*
X11809524Y91045181D02*
X12142857Y90045181D01*
X12142857Y90045181D02*
X12476190Y91045181D01*
X13571429Y90045181D02*
X13571429Y91045181D01*
X13571429Y91045181D02*
X13809524Y91045181D01*
X13809524Y91045181D02*
X13952381Y90997562D01*
X13952381Y90997562D02*
X14047619Y90902324D01*
X14047619Y90902324D02*
X14095238Y90807086D01*
X14095238Y90807086D02*
X14142857Y90616610D01*
X14142857Y90616610D02*
X14142857Y90473753D01*
X14142857Y90473753D02*
X14095238Y90283277D01*
X14095238Y90283277D02*
X14047619Y90188039D01*
X14047619Y90188039D02*
X13952381Y90092800D01*
X13952381Y90092800D02*
X13809524Y90045181D01*
X13809524Y90045181D02*
X13571429Y90045181D01*
X15142857Y90140420D02*
X15095238Y90092800D01*
X15095238Y90092800D02*
X14952381Y90045181D01*
X14952381Y90045181D02*
X14857143Y90045181D01*
X14857143Y90045181D02*
X14714286Y90092800D01*
X14714286Y90092800D02*
X14619048Y90188039D01*
X14619048Y90188039D02*
X14571429Y90283277D01*
X14571429Y90283277D02*
X14523810Y90473753D01*
X14523810Y90473753D02*
X14523810Y90616610D01*
X14523810Y90616610D02*
X14571429Y90807086D01*
X14571429Y90807086D02*
X14619048Y90902324D01*
X14619048Y90902324D02*
X14714286Y90997562D01*
X14714286Y90997562D02*
X14857143Y91045181D01*
X14857143Y91045181D02*
X14952381Y91045181D01*
X14952381Y91045181D02*
X15095238Y90997562D01*
X15095238Y90997562D02*
X15142857Y90949943D01*
X24023809Y15545181D02*
X23547619Y15545181D01*
X23547619Y15545181D02*
X23500000Y15068991D01*
X23500000Y15068991D02*
X23547619Y15116610D01*
X23547619Y15116610D02*
X23642857Y15164229D01*
X23642857Y15164229D02*
X23880952Y15164229D01*
X23880952Y15164229D02*
X23976190Y15116610D01*
X23976190Y15116610D02*
X24023809Y15068991D01*
X24023809Y15068991D02*
X24071428Y14973753D01*
X24071428Y14973753D02*
X24071428Y14735658D01*
X24071428Y14735658D02*
X24023809Y14640420D01*
X24023809Y14640420D02*
X23976190Y14592800D01*
X23976190Y14592800D02*
X23880952Y14545181D01*
X23880952Y14545181D02*
X23642857Y14545181D01*
X23642857Y14545181D02*
X23547619Y14592800D01*
X23547619Y14592800D02*
X23500000Y14640420D01*
X24357143Y15545181D02*
X24690476Y14545181D01*
X24690476Y14545181D02*
X25023809Y15545181D01*
X26642857Y14545181D02*
X26071429Y14545181D01*
X26357143Y14545181D02*
X26357143Y15545181D01*
X26357143Y15545181D02*
X26261905Y15402324D01*
X26261905Y15402324D02*
X26166667Y15307086D01*
X26166667Y15307086D02*
X26071429Y15259467D01*
X27023810Y14830896D02*
X27500000Y14830896D01*
X26928572Y14545181D02*
X27261905Y15545181D01*
X27261905Y15545181D02*
X27595238Y14545181D01*
X18400000Y64498920D02*
X18400000Y65598920D01*
X18400000Y65598920D02*
X18819048Y65598920D01*
X18819048Y65598920D02*
X18923810Y65546539D01*
X18923810Y65546539D02*
X18976191Y65494158D01*
X18976191Y65494158D02*
X19028572Y65389396D01*
X19028572Y65389396D02*
X19028572Y65232253D01*
X19028572Y65232253D02*
X18976191Y65127491D01*
X18976191Y65127491D02*
X18923810Y65075110D01*
X18923810Y65075110D02*
X18819048Y65022729D01*
X18819048Y65022729D02*
X18400000Y65022729D01*
X20128572Y64603681D02*
X20076191Y64551300D01*
X20076191Y64551300D02*
X19919048Y64498920D01*
X19919048Y64498920D02*
X19814286Y64498920D01*
X19814286Y64498920D02*
X19657143Y64551300D01*
X19657143Y64551300D02*
X19552381Y64656062D01*
X19552381Y64656062D02*
X19500000Y64760824D01*
X19500000Y64760824D02*
X19447619Y64970348D01*
X19447619Y64970348D02*
X19447619Y65127491D01*
X19447619Y65127491D02*
X19500000Y65337015D01*
X19500000Y65337015D02*
X19552381Y65441777D01*
X19552381Y65441777D02*
X19657143Y65546539D01*
X19657143Y65546539D02*
X19814286Y65598920D01*
X19814286Y65598920D02*
X19919048Y65598920D01*
X19919048Y65598920D02*
X20076191Y65546539D01*
X20076191Y65546539D02*
X20128572Y65494158D01*
X20966667Y65075110D02*
X21123810Y65022729D01*
X21123810Y65022729D02*
X21176191Y64970348D01*
X21176191Y64970348D02*
X21228572Y64865586D01*
X21228572Y64865586D02*
X21228572Y64708443D01*
X21228572Y64708443D02*
X21176191Y64603681D01*
X21176191Y64603681D02*
X21123810Y64551300D01*
X21123810Y64551300D02*
X21019048Y64498920D01*
X21019048Y64498920D02*
X20600000Y64498920D01*
X20600000Y64498920D02*
X20600000Y65598920D01*
X20600000Y65598920D02*
X20966667Y65598920D01*
X20966667Y65598920D02*
X21071429Y65546539D01*
X21071429Y65546539D02*
X21123810Y65494158D01*
X21123810Y65494158D02*
X21176191Y65389396D01*
X21176191Y65389396D02*
X21176191Y65284634D01*
X21176191Y65284634D02*
X21123810Y65179872D01*
X21123810Y65179872D02*
X21071429Y65127491D01*
X21071429Y65127491D02*
X20966667Y65075110D01*
X20966667Y65075110D02*
X20600000Y65075110D01*
X22538095Y64498920D02*
X22538095Y65598920D01*
X22538095Y65598920D02*
X22957143Y65598920D01*
X22957143Y65598920D02*
X23061905Y65546539D01*
X23061905Y65546539D02*
X23114286Y65494158D01*
X23114286Y65494158D02*
X23166667Y65389396D01*
X23166667Y65389396D02*
X23166667Y65232253D01*
X23166667Y65232253D02*
X23114286Y65127491D01*
X23114286Y65127491D02*
X23061905Y65075110D01*
X23061905Y65075110D02*
X22957143Y65022729D01*
X22957143Y65022729D02*
X22538095Y65022729D01*
X24161905Y64498920D02*
X23638095Y64498920D01*
X23638095Y64498920D02*
X23638095Y65598920D01*
X24476190Y64813205D02*
X25000000Y64813205D01*
X24371428Y64498920D02*
X24738095Y65598920D01*
X24738095Y65598920D02*
X25104762Y64498920D01*
X25471428Y64498920D02*
X25471428Y65598920D01*
X25471428Y65598920D02*
X26100000Y64498920D01*
X26100000Y64498920D02*
X26100000Y65598920D01*
X26571428Y64813205D02*
X27095238Y64813205D01*
X26466666Y64498920D02*
X26833333Y65598920D01*
X26833333Y65598920D02*
X27200000Y64498920D01*
X28195238Y64498920D02*
X27828571Y65022729D01*
X27566666Y64498920D02*
X27566666Y65598920D01*
X27566666Y65598920D02*
X27985714Y65598920D01*
X27985714Y65598920D02*
X28090476Y65546539D01*
X28090476Y65546539D02*
X28142857Y65494158D01*
X28142857Y65494158D02*
X28195238Y65389396D01*
X28195238Y65389396D02*
X28195238Y65232253D01*
X28195238Y65232253D02*
X28142857Y65127491D01*
X28142857Y65127491D02*
X28090476Y65075110D01*
X28090476Y65075110D02*
X27985714Y65022729D01*
X27985714Y65022729D02*
X27566666Y65022729D01*
X29976190Y65232253D02*
X29976190Y64498920D01*
X29714285Y65651300D02*
X29452380Y64865586D01*
X29452380Y64865586D02*
X30133333Y64865586D01*
X30552380Y64603681D02*
X30604761Y64551300D01*
X30604761Y64551300D02*
X30552380Y64498920D01*
X30552380Y64498920D02*
X30499999Y64551300D01*
X30499999Y64551300D02*
X30552380Y64603681D01*
X30552380Y64603681D02*
X30552380Y64498920D01*
X30552380Y65179872D02*
X30604761Y65127491D01*
X30604761Y65127491D02*
X30552380Y65075110D01*
X30552380Y65075110D02*
X30499999Y65127491D01*
X30499999Y65127491D02*
X30552380Y65179872D01*
X30552380Y65179872D02*
X30552380Y65075110D01*
X31023809Y65494158D02*
X31076190Y65546539D01*
X31076190Y65546539D02*
X31180952Y65598920D01*
X31180952Y65598920D02*
X31442857Y65598920D01*
X31442857Y65598920D02*
X31547619Y65546539D01*
X31547619Y65546539D02*
X31600000Y65494158D01*
X31600000Y65494158D02*
X31652381Y65389396D01*
X31652381Y65389396D02*
X31652381Y65284634D01*
X31652381Y65284634D02*
X31600000Y65127491D01*
X31600000Y65127491D02*
X30971428Y64498920D01*
X30971428Y64498920D02*
X31652381Y64498920D01*
X18542858Y100952658D02*
X18542858Y102152658D01*
X18542858Y102152658D02*
X19000001Y102152658D01*
X19000001Y102152658D02*
X19114286Y102095515D01*
X19114286Y102095515D02*
X19171429Y102038372D01*
X19171429Y102038372D02*
X19228572Y101924086D01*
X19228572Y101924086D02*
X19228572Y101752658D01*
X19228572Y101752658D02*
X19171429Y101638372D01*
X19171429Y101638372D02*
X19114286Y101581229D01*
X19114286Y101581229D02*
X19000001Y101524086D01*
X19000001Y101524086D02*
X18542858Y101524086D01*
X19685715Y101009800D02*
X19857144Y100952658D01*
X19857144Y100952658D02*
X20142858Y100952658D01*
X20142858Y100952658D02*
X20257144Y101009800D01*
X20257144Y101009800D02*
X20314286Y101066943D01*
X20314286Y101066943D02*
X20371429Y101181229D01*
X20371429Y101181229D02*
X20371429Y101295515D01*
X20371429Y101295515D02*
X20314286Y101409800D01*
X20314286Y101409800D02*
X20257144Y101466943D01*
X20257144Y101466943D02*
X20142858Y101524086D01*
X20142858Y101524086D02*
X19914286Y101581229D01*
X19914286Y101581229D02*
X19800001Y101638372D01*
X19800001Y101638372D02*
X19742858Y101695515D01*
X19742858Y101695515D02*
X19685715Y101809800D01*
X19685715Y101809800D02*
X19685715Y101924086D01*
X19685715Y101924086D02*
X19742858Y102038372D01*
X19742858Y102038372D02*
X19800001Y102095515D01*
X19800001Y102095515D02*
X19914286Y102152658D01*
X19914286Y102152658D02*
X20200001Y102152658D01*
X20200001Y102152658D02*
X20371429Y102095515D01*
X20885715Y101409800D02*
X21800001Y101409800D01*
X22771429Y101581229D02*
X22371429Y101581229D01*
X22371429Y100952658D02*
X22371429Y102152658D01*
X22371429Y102152658D02*
X22942857Y102152658D01*
X23971428Y100952658D02*
X23400000Y100952658D01*
X23400000Y100952658D02*
X23400000Y102152658D01*
X24600000Y101524086D02*
X24600000Y100952658D01*
X24200000Y102152658D02*
X24600000Y101524086D01*
X24600000Y101524086D02*
X25000000Y102152658D01*
X25800000Y101581229D02*
X25971428Y101524086D01*
X25971428Y101524086D02*
X26028571Y101466943D01*
X26028571Y101466943D02*
X26085714Y101352658D01*
X26085714Y101352658D02*
X26085714Y101181229D01*
X26085714Y101181229D02*
X26028571Y101066943D01*
X26028571Y101066943D02*
X25971428Y101009800D01*
X25971428Y101009800D02*
X25857143Y100952658D01*
X25857143Y100952658D02*
X25400000Y100952658D01*
X25400000Y100952658D02*
X25400000Y102152658D01*
X25400000Y102152658D02*
X25800000Y102152658D01*
X25800000Y102152658D02*
X25914286Y102095515D01*
X25914286Y102095515D02*
X25971428Y102038372D01*
X25971428Y102038372D02*
X26028571Y101924086D01*
X26028571Y101924086D02*
X26028571Y101809800D01*
X26028571Y101809800D02*
X25971428Y101695515D01*
X25971428Y101695515D02*
X25914286Y101638372D01*
X25914286Y101638372D02*
X25800000Y101581229D01*
X25800000Y101581229D02*
X25400000Y101581229D01*
X26542857Y101295515D02*
X27114286Y101295515D01*
X26428571Y100952658D02*
X26828571Y102152658D01*
X26828571Y102152658D02*
X27228571Y100952658D01*
X28314285Y101066943D02*
X28257142Y101009800D01*
X28257142Y101009800D02*
X28085714Y100952658D01*
X28085714Y100952658D02*
X27971428Y100952658D01*
X27971428Y100952658D02*
X27799999Y101009800D01*
X27799999Y101009800D02*
X27685714Y101124086D01*
X27685714Y101124086D02*
X27628571Y101238372D01*
X27628571Y101238372D02*
X27571428Y101466943D01*
X27571428Y101466943D02*
X27571428Y101638372D01*
X27571428Y101638372D02*
X27628571Y101866943D01*
X27628571Y101866943D02*
X27685714Y101981229D01*
X27685714Y101981229D02*
X27799999Y102095515D01*
X27799999Y102095515D02*
X27971428Y102152658D01*
X27971428Y102152658D02*
X28085714Y102152658D01*
X28085714Y102152658D02*
X28257142Y102095515D01*
X28257142Y102095515D02*
X28314285Y102038372D01*
X28828571Y100952658D02*
X28828571Y102152658D01*
X29514285Y100952658D02*
X28999999Y101638372D01*
X29514285Y102152658D02*
X28828571Y101466943D01*
X30028571Y101409800D02*
X30942857Y101409800D01*
X32085713Y102152658D02*
X31514285Y102152658D01*
X31514285Y102152658D02*
X31457142Y101581229D01*
X31457142Y101581229D02*
X31514285Y101638372D01*
X31514285Y101638372D02*
X31628571Y101695515D01*
X31628571Y101695515D02*
X31914285Y101695515D01*
X31914285Y101695515D02*
X32028571Y101638372D01*
X32028571Y101638372D02*
X32085713Y101581229D01*
X32085713Y101581229D02*
X32142856Y101466943D01*
X32142856Y101466943D02*
X32142856Y101181229D01*
X32142856Y101181229D02*
X32085713Y101066943D01*
X32085713Y101066943D02*
X32028571Y101009800D01*
X32028571Y101009800D02*
X31914285Y100952658D01*
X31914285Y100952658D02*
X31628571Y100952658D01*
X31628571Y100952658D02*
X31514285Y101009800D01*
X31514285Y101009800D02*
X31457142Y101066943D01*
X32542856Y102152658D02*
X32828570Y100952658D01*
X32828570Y100952658D02*
X33057142Y101809800D01*
X33057142Y101809800D02*
X33285713Y100952658D01*
X33285713Y100952658D02*
X33571428Y102152658D01*
X35800000Y101295515D02*
X36371429Y101295515D01*
X35685714Y100952658D02*
X36085714Y102152658D01*
X36085714Y102152658D02*
X36485714Y100952658D01*
X37114285Y102152658D02*
X37228571Y102152658D01*
X37228571Y102152658D02*
X37342857Y102095515D01*
X37342857Y102095515D02*
X37400000Y102038372D01*
X37400000Y102038372D02*
X37457142Y101924086D01*
X37457142Y101924086D02*
X37514285Y101695515D01*
X37514285Y101695515D02*
X37514285Y101409800D01*
X37514285Y101409800D02*
X37457142Y101181229D01*
X37457142Y101181229D02*
X37400000Y101066943D01*
X37400000Y101066943D02*
X37342857Y101009800D01*
X37342857Y101009800D02*
X37228571Y100952658D01*
X37228571Y100952658D02*
X37114285Y100952658D01*
X37114285Y100952658D02*
X37000000Y101009800D01*
X37000000Y101009800D02*
X36942857Y101066943D01*
X36942857Y101066943D02*
X36885714Y101181229D01*
X36885714Y101181229D02*
X36828571Y101409800D01*
X36828571Y101409800D02*
X36828571Y101695515D01*
X36828571Y101695515D02*
X36885714Y101924086D01*
X36885714Y101924086D02*
X36942857Y102038372D01*
X36942857Y102038372D02*
X37000000Y102095515D01*
X37000000Y102095515D02*
X37114285Y102152658D01*
D11*
X28780000Y74590923D02*
X28480000Y75019495D01*
X28265714Y74590923D02*
X28265714Y75490923D01*
X28265714Y75490923D02*
X28608571Y75490923D01*
X28608571Y75490923D02*
X28694286Y75448066D01*
X28694286Y75448066D02*
X28737143Y75405209D01*
X28737143Y75405209D02*
X28780000Y75319495D01*
X28780000Y75319495D02*
X28780000Y75190923D01*
X28780000Y75190923D02*
X28737143Y75105209D01*
X28737143Y75105209D02*
X28694286Y75062352D01*
X28694286Y75062352D02*
X28608571Y75019495D01*
X28608571Y75019495D02*
X28265714Y75019495D01*
X29551429Y75190923D02*
X29551429Y74590923D01*
X29337143Y75533780D02*
X29122857Y74890923D01*
X29122857Y74890923D02*
X29680000Y74890923D01*
X18850000Y23676638D02*
X18807143Y23633780D01*
X18807143Y23633780D02*
X18678571Y23590923D01*
X18678571Y23590923D02*
X18592857Y23590923D01*
X18592857Y23590923D02*
X18464286Y23633780D01*
X18464286Y23633780D02*
X18378571Y23719495D01*
X18378571Y23719495D02*
X18335714Y23805209D01*
X18335714Y23805209D02*
X18292857Y23976638D01*
X18292857Y23976638D02*
X18292857Y24105209D01*
X18292857Y24105209D02*
X18335714Y24276638D01*
X18335714Y24276638D02*
X18378571Y24362352D01*
X18378571Y24362352D02*
X18464286Y24448066D01*
X18464286Y24448066D02*
X18592857Y24490923D01*
X18592857Y24490923D02*
X18678571Y24490923D01*
X18678571Y24490923D02*
X18807143Y24448066D01*
X18807143Y24448066D02*
X18850000Y24405209D01*
X19150000Y24490923D02*
X19707143Y24490923D01*
X19707143Y24490923D02*
X19407143Y24148066D01*
X19407143Y24148066D02*
X19535714Y24148066D01*
X19535714Y24148066D02*
X19621429Y24105209D01*
X19621429Y24105209D02*
X19664286Y24062352D01*
X19664286Y24062352D02*
X19707143Y23976638D01*
X19707143Y23976638D02*
X19707143Y23762352D01*
X19707143Y23762352D02*
X19664286Y23676638D01*
X19664286Y23676638D02*
X19621429Y23633780D01*
X19621429Y23633780D02*
X19535714Y23590923D01*
X19535714Y23590923D02*
X19278571Y23590923D01*
X19278571Y23590923D02*
X19192857Y23633780D01*
X19192857Y23633780D02*
X19150000Y23676638D01*
X2700000Y98490923D02*
X2700000Y97848066D01*
X2700000Y97848066D02*
X2657143Y97719495D01*
X2657143Y97719495D02*
X2571429Y97633780D01*
X2571429Y97633780D02*
X2442857Y97590923D01*
X2442857Y97590923D02*
X2357143Y97590923D01*
X3600000Y97590923D02*
X3085714Y97590923D01*
X3342857Y97590923D02*
X3342857Y98490923D01*
X3342857Y98490923D02*
X3257143Y98362352D01*
X3257143Y98362352D02*
X3171428Y98276638D01*
X3171428Y98276638D02*
X3085714Y98233780D01*
X32550000Y82090923D02*
X32250000Y82519495D01*
X32035714Y82090923D02*
X32035714Y82990923D01*
X32035714Y82990923D02*
X32378571Y82990923D01*
X32378571Y82990923D02*
X32464286Y82948066D01*
X32464286Y82948066D02*
X32507143Y82905209D01*
X32507143Y82905209D02*
X32550000Y82819495D01*
X32550000Y82819495D02*
X32550000Y82690923D01*
X32550000Y82690923D02*
X32507143Y82605209D01*
X32507143Y82605209D02*
X32464286Y82562352D01*
X32464286Y82562352D02*
X32378571Y82519495D01*
X32378571Y82519495D02*
X32035714Y82519495D01*
X32892857Y82905209D02*
X32935714Y82948066D01*
X32935714Y82948066D02*
X33021429Y82990923D01*
X33021429Y82990923D02*
X33235714Y82990923D01*
X33235714Y82990923D02*
X33321429Y82948066D01*
X33321429Y82948066D02*
X33364286Y82905209D01*
X33364286Y82905209D02*
X33407143Y82819495D01*
X33407143Y82819495D02*
X33407143Y82733780D01*
X33407143Y82733780D02*
X33364286Y82605209D01*
X33364286Y82605209D02*
X32850000Y82090923D01*
X32850000Y82090923D02*
X33407143Y82090923D01*
X37850000Y74576638D02*
X37807143Y74533780D01*
X37807143Y74533780D02*
X37678571Y74490923D01*
X37678571Y74490923D02*
X37592857Y74490923D01*
X37592857Y74490923D02*
X37464286Y74533780D01*
X37464286Y74533780D02*
X37378571Y74619495D01*
X37378571Y74619495D02*
X37335714Y74705209D01*
X37335714Y74705209D02*
X37292857Y74876638D01*
X37292857Y74876638D02*
X37292857Y75005209D01*
X37292857Y75005209D02*
X37335714Y75176638D01*
X37335714Y75176638D02*
X37378571Y75262352D01*
X37378571Y75262352D02*
X37464286Y75348066D01*
X37464286Y75348066D02*
X37592857Y75390923D01*
X37592857Y75390923D02*
X37678571Y75390923D01*
X37678571Y75390923D02*
X37807143Y75348066D01*
X37807143Y75348066D02*
X37850000Y75305209D01*
X38621429Y75390923D02*
X38450000Y75390923D01*
X38450000Y75390923D02*
X38364286Y75348066D01*
X38364286Y75348066D02*
X38321429Y75305209D01*
X38321429Y75305209D02*
X38235714Y75176638D01*
X38235714Y75176638D02*
X38192857Y75005209D01*
X38192857Y75005209D02*
X38192857Y74662352D01*
X38192857Y74662352D02*
X38235714Y74576638D01*
X38235714Y74576638D02*
X38278571Y74533780D01*
X38278571Y74533780D02*
X38364286Y74490923D01*
X38364286Y74490923D02*
X38535714Y74490923D01*
X38535714Y74490923D02*
X38621429Y74533780D01*
X38621429Y74533780D02*
X38664286Y74576638D01*
X38664286Y74576638D02*
X38707143Y74662352D01*
X38707143Y74662352D02*
X38707143Y74876638D01*
X38707143Y74876638D02*
X38664286Y74962352D01*
X38664286Y74962352D02*
X38621429Y75005209D01*
X38621429Y75005209D02*
X38535714Y75048066D01*
X38535714Y75048066D02*
X38364286Y75048066D01*
X38364286Y75048066D02*
X38278571Y75005209D01*
X38278571Y75005209D02*
X38235714Y74962352D01*
X38235714Y74962352D02*
X38192857Y74876638D01*
X29850000Y79020923D02*
X29550000Y79449495D01*
X29335714Y79020923D02*
X29335714Y79920923D01*
X29335714Y79920923D02*
X29678571Y79920923D01*
X29678571Y79920923D02*
X29764286Y79878066D01*
X29764286Y79878066D02*
X29807143Y79835209D01*
X29807143Y79835209D02*
X29850000Y79749495D01*
X29850000Y79749495D02*
X29850000Y79620923D01*
X29850000Y79620923D02*
X29807143Y79535209D01*
X29807143Y79535209D02*
X29764286Y79492352D01*
X29764286Y79492352D02*
X29678571Y79449495D01*
X29678571Y79449495D02*
X29335714Y79449495D01*
X30664286Y79920923D02*
X30235714Y79920923D01*
X30235714Y79920923D02*
X30192857Y79492352D01*
X30192857Y79492352D02*
X30235714Y79535209D01*
X30235714Y79535209D02*
X30321429Y79578066D01*
X30321429Y79578066D02*
X30535714Y79578066D01*
X30535714Y79578066D02*
X30621429Y79535209D01*
X30621429Y79535209D02*
X30664286Y79492352D01*
X30664286Y79492352D02*
X30707143Y79406638D01*
X30707143Y79406638D02*
X30707143Y79192352D01*
X30707143Y79192352D02*
X30664286Y79106638D01*
X30664286Y79106638D02*
X30621429Y79063780D01*
X30621429Y79063780D02*
X30535714Y79020923D01*
X30535714Y79020923D02*
X30321429Y79020923D01*
X30321429Y79020923D02*
X30235714Y79063780D01*
X30235714Y79063780D02*
X30192857Y79106638D01*
X27700000Y3490923D02*
X27700000Y2848066D01*
X27700000Y2848066D02*
X27657143Y2719495D01*
X27657143Y2719495D02*
X27571429Y2633780D01*
X27571429Y2633780D02*
X27442857Y2590923D01*
X27442857Y2590923D02*
X27357143Y2590923D01*
X28085714Y3405209D02*
X28128571Y3448066D01*
X28128571Y3448066D02*
X28214286Y3490923D01*
X28214286Y3490923D02*
X28428571Y3490923D01*
X28428571Y3490923D02*
X28514286Y3448066D01*
X28514286Y3448066D02*
X28557143Y3405209D01*
X28557143Y3405209D02*
X28600000Y3319495D01*
X28600000Y3319495D02*
X28600000Y3233780D01*
X28600000Y3233780D02*
X28557143Y3105209D01*
X28557143Y3105209D02*
X28042857Y2590923D01*
X28042857Y2590923D02*
X28600000Y2590923D01*
X19699999Y98892352D02*
X19399999Y98892352D01*
X19399999Y98420923D02*
X19399999Y99320923D01*
X19399999Y99320923D02*
X19828571Y99320923D01*
X20642857Y98420923D02*
X20128571Y98420923D01*
X20385714Y98420923D02*
X20385714Y99320923D01*
X20385714Y99320923D02*
X20300000Y99192352D01*
X20300000Y99192352D02*
X20214285Y99106638D01*
X20214285Y99106638D02*
X20128571Y99063780D01*
X19635714Y75690923D02*
X19635714Y76590923D01*
X19635714Y76590923D02*
X19850000Y76590923D01*
X19850000Y76590923D02*
X19978571Y76548066D01*
X19978571Y76548066D02*
X20064286Y76462352D01*
X20064286Y76462352D02*
X20107143Y76376638D01*
X20107143Y76376638D02*
X20150000Y76205209D01*
X20150000Y76205209D02*
X20150000Y76076638D01*
X20150000Y76076638D02*
X20107143Y75905209D01*
X20107143Y75905209D02*
X20064286Y75819495D01*
X20064286Y75819495D02*
X19978571Y75733780D01*
X19978571Y75733780D02*
X19850000Y75690923D01*
X19850000Y75690923D02*
X19635714Y75690923D01*
X20450000Y76590923D02*
X21007143Y76590923D01*
X21007143Y76590923D02*
X20707143Y76248066D01*
X20707143Y76248066D02*
X20835714Y76248066D01*
X20835714Y76248066D02*
X20921429Y76205209D01*
X20921429Y76205209D02*
X20964286Y76162352D01*
X20964286Y76162352D02*
X21007143Y76076638D01*
X21007143Y76076638D02*
X21007143Y75862352D01*
X21007143Y75862352D02*
X20964286Y75776638D01*
X20964286Y75776638D02*
X20921429Y75733780D01*
X20921429Y75733780D02*
X20835714Y75690923D01*
X20835714Y75690923D02*
X20578571Y75690923D01*
X20578571Y75690923D02*
X20492857Y75733780D01*
X20492857Y75733780D02*
X20450000Y75776638D01*
X26335714Y97590923D02*
X26335714Y98490923D01*
X26335714Y98490923D02*
X26550000Y98490923D01*
X26550000Y98490923D02*
X26678571Y98448066D01*
X26678571Y98448066D02*
X26764286Y98362352D01*
X26764286Y98362352D02*
X26807143Y98276638D01*
X26807143Y98276638D02*
X26850000Y98105209D01*
X26850000Y98105209D02*
X26850000Y97976638D01*
X26850000Y97976638D02*
X26807143Y97805209D01*
X26807143Y97805209D02*
X26764286Y97719495D01*
X26764286Y97719495D02*
X26678571Y97633780D01*
X26678571Y97633780D02*
X26550000Y97590923D01*
X26550000Y97590923D02*
X26335714Y97590923D01*
X27707143Y97590923D02*
X27192857Y97590923D01*
X27450000Y97590923D02*
X27450000Y98490923D01*
X27450000Y98490923D02*
X27364286Y98362352D01*
X27364286Y98362352D02*
X27278571Y98276638D01*
X27278571Y98276638D02*
X27192857Y98233780D01*
X23150000Y88676638D02*
X23107143Y88633780D01*
X23107143Y88633780D02*
X22978571Y88590923D01*
X22978571Y88590923D02*
X22892857Y88590923D01*
X22892857Y88590923D02*
X22764286Y88633780D01*
X22764286Y88633780D02*
X22678571Y88719495D01*
X22678571Y88719495D02*
X22635714Y88805209D01*
X22635714Y88805209D02*
X22592857Y88976638D01*
X22592857Y88976638D02*
X22592857Y89105209D01*
X22592857Y89105209D02*
X22635714Y89276638D01*
X22635714Y89276638D02*
X22678571Y89362352D01*
X22678571Y89362352D02*
X22764286Y89448066D01*
X22764286Y89448066D02*
X22892857Y89490923D01*
X22892857Y89490923D02*
X22978571Y89490923D01*
X22978571Y89490923D02*
X23107143Y89448066D01*
X23107143Y89448066D02*
X23150000Y89405209D01*
X24007143Y88590923D02*
X23492857Y88590923D01*
X23750000Y88590923D02*
X23750000Y89490923D01*
X23750000Y89490923D02*
X23664286Y89362352D01*
X23664286Y89362352D02*
X23578571Y89276638D01*
X23578571Y89276638D02*
X23492857Y89233780D01*
X31150000Y89676638D02*
X31107143Y89633780D01*
X31107143Y89633780D02*
X30978571Y89590923D01*
X30978571Y89590923D02*
X30892857Y89590923D01*
X30892857Y89590923D02*
X30764286Y89633780D01*
X30764286Y89633780D02*
X30678571Y89719495D01*
X30678571Y89719495D02*
X30635714Y89805209D01*
X30635714Y89805209D02*
X30592857Y89976638D01*
X30592857Y89976638D02*
X30592857Y90105209D01*
X30592857Y90105209D02*
X30635714Y90276638D01*
X30635714Y90276638D02*
X30678571Y90362352D01*
X30678571Y90362352D02*
X30764286Y90448066D01*
X30764286Y90448066D02*
X30892857Y90490923D01*
X30892857Y90490923D02*
X30978571Y90490923D01*
X30978571Y90490923D02*
X31107143Y90448066D01*
X31107143Y90448066D02*
X31150000Y90405209D01*
X31492857Y90405209D02*
X31535714Y90448066D01*
X31535714Y90448066D02*
X31621429Y90490923D01*
X31621429Y90490923D02*
X31835714Y90490923D01*
X31835714Y90490923D02*
X31921429Y90448066D01*
X31921429Y90448066D02*
X31964286Y90405209D01*
X31964286Y90405209D02*
X32007143Y90319495D01*
X32007143Y90319495D02*
X32007143Y90233780D01*
X32007143Y90233780D02*
X31964286Y90105209D01*
X31964286Y90105209D02*
X31450000Y89590923D01*
X31450000Y89590923D02*
X32007143Y89590923D01*
X24055000Y86176638D02*
X24012143Y86133780D01*
X24012143Y86133780D02*
X23883571Y86090923D01*
X23883571Y86090923D02*
X23797857Y86090923D01*
X23797857Y86090923D02*
X23669286Y86133780D01*
X23669286Y86133780D02*
X23583571Y86219495D01*
X23583571Y86219495D02*
X23540714Y86305209D01*
X23540714Y86305209D02*
X23497857Y86476638D01*
X23497857Y86476638D02*
X23497857Y86605209D01*
X23497857Y86605209D02*
X23540714Y86776638D01*
X23540714Y86776638D02*
X23583571Y86862352D01*
X23583571Y86862352D02*
X23669286Y86948066D01*
X23669286Y86948066D02*
X23797857Y86990923D01*
X23797857Y86990923D02*
X23883571Y86990923D01*
X23883571Y86990923D02*
X24012143Y86948066D01*
X24012143Y86948066D02*
X24055000Y86905209D01*
X24869286Y86990923D02*
X24440714Y86990923D01*
X24440714Y86990923D02*
X24397857Y86562352D01*
X24397857Y86562352D02*
X24440714Y86605209D01*
X24440714Y86605209D02*
X24526429Y86648066D01*
X24526429Y86648066D02*
X24740714Y86648066D01*
X24740714Y86648066D02*
X24826429Y86605209D01*
X24826429Y86605209D02*
X24869286Y86562352D01*
X24869286Y86562352D02*
X24912143Y86476638D01*
X24912143Y86476638D02*
X24912143Y86262352D01*
X24912143Y86262352D02*
X24869286Y86176638D01*
X24869286Y86176638D02*
X24826429Y86133780D01*
X24826429Y86133780D02*
X24740714Y86090923D01*
X24740714Y86090923D02*
X24526429Y86090923D01*
X24526429Y86090923D02*
X24440714Y86133780D01*
X24440714Y86133780D02*
X24397857Y86176638D01*
X35680000Y20590923D02*
X35380000Y21019495D01*
X35165714Y20590923D02*
X35165714Y21490923D01*
X35165714Y21490923D02*
X35508571Y21490923D01*
X35508571Y21490923D02*
X35594286Y21448066D01*
X35594286Y21448066D02*
X35637143Y21405209D01*
X35637143Y21405209D02*
X35680000Y21319495D01*
X35680000Y21319495D02*
X35680000Y21190923D01*
X35680000Y21190923D02*
X35637143Y21105209D01*
X35637143Y21105209D02*
X35594286Y21062352D01*
X35594286Y21062352D02*
X35508571Y21019495D01*
X35508571Y21019495D02*
X35165714Y21019495D01*
X35980000Y21490923D02*
X36580000Y21490923D01*
X36580000Y21490923D02*
X36194286Y20590923D01*
D12*
X18628570Y73359955D02*
X18666666Y73398050D01*
X18666666Y73398050D02*
X18742856Y73436145D01*
X18742856Y73436145D02*
X18933332Y73436145D01*
X18933332Y73436145D02*
X19009523Y73398050D01*
X19009523Y73398050D02*
X19047618Y73359955D01*
X19047618Y73359955D02*
X19085713Y73283764D01*
X19085713Y73283764D02*
X19085713Y73207574D01*
X19085713Y73207574D02*
X19047618Y73093288D01*
X19047618Y73093288D02*
X18590475Y72636145D01*
X18590475Y72636145D02*
X19085713Y72636145D01*
X19999999Y72674240D02*
X20114285Y72636145D01*
X20114285Y72636145D02*
X20304761Y72636145D01*
X20304761Y72636145D02*
X20380952Y72674240D01*
X20380952Y72674240D02*
X20419047Y72712336D01*
X20419047Y72712336D02*
X20457142Y72788526D01*
X20457142Y72788526D02*
X20457142Y72864717D01*
X20457142Y72864717D02*
X20419047Y72940907D01*
X20419047Y72940907D02*
X20380952Y72979002D01*
X20380952Y72979002D02*
X20304761Y73017098D01*
X20304761Y73017098D02*
X20152380Y73055193D01*
X20152380Y73055193D02*
X20076190Y73093288D01*
X20076190Y73093288D02*
X20038095Y73131383D01*
X20038095Y73131383D02*
X19999999Y73207574D01*
X19999999Y73207574D02*
X19999999Y73283764D01*
X19999999Y73283764D02*
X20038095Y73359955D01*
X20038095Y73359955D02*
X20076190Y73398050D01*
X20076190Y73398050D02*
X20152380Y73436145D01*
X20152380Y73436145D02*
X20342857Y73436145D01*
X20342857Y73436145D02*
X20457142Y73398050D01*
X20723809Y73436145D02*
X20914285Y72636145D01*
X20914285Y72636145D02*
X21066666Y73207574D01*
X21066666Y73207574D02*
X21219047Y72636145D01*
X21219047Y72636145D02*
X21409524Y73436145D01*
X20209523Y31436145D02*
X20704761Y31436145D01*
X20704761Y31436145D02*
X20438095Y31131383D01*
X20438095Y31131383D02*
X20552380Y31131383D01*
X20552380Y31131383D02*
X20628571Y31093288D01*
X20628571Y31093288D02*
X20666666Y31055193D01*
X20666666Y31055193D02*
X20704761Y30979002D01*
X20704761Y30979002D02*
X20704761Y30788526D01*
X20704761Y30788526D02*
X20666666Y30712336D01*
X20666666Y30712336D02*
X20628571Y30674240D01*
X20628571Y30674240D02*
X20552380Y30636145D01*
X20552380Y30636145D02*
X20323809Y30636145D01*
X20323809Y30636145D02*
X20247618Y30674240D01*
X20247618Y30674240D02*
X20209523Y30712336D01*
X22076190Y31398050D02*
X22000000Y31436145D01*
X22000000Y31436145D02*
X21885714Y31436145D01*
X21885714Y31436145D02*
X21771428Y31398050D01*
X21771428Y31398050D02*
X21695238Y31321860D01*
X21695238Y31321860D02*
X21657143Y31245669D01*
X21657143Y31245669D02*
X21619047Y31093288D01*
X21619047Y31093288D02*
X21619047Y30979002D01*
X21619047Y30979002D02*
X21657143Y30826621D01*
X21657143Y30826621D02*
X21695238Y30750431D01*
X21695238Y30750431D02*
X21771428Y30674240D01*
X21771428Y30674240D02*
X21885714Y30636145D01*
X21885714Y30636145D02*
X21961905Y30636145D01*
X21961905Y30636145D02*
X22076190Y30674240D01*
X22076190Y30674240D02*
X22114286Y30712336D01*
X22114286Y30712336D02*
X22114286Y30979002D01*
X22114286Y30979002D02*
X21961905Y30979002D01*
X22457143Y30636145D02*
X22457143Y31436145D01*
X22457143Y31436145D02*
X22914286Y30636145D01*
X22914286Y30636145D02*
X22914286Y31436145D01*
X23295238Y30636145D02*
X23295238Y31436145D01*
X23295238Y31436145D02*
X23485714Y31436145D01*
X23485714Y31436145D02*
X23600000Y31398050D01*
X23600000Y31398050D02*
X23676190Y31321860D01*
X23676190Y31321860D02*
X23714285Y31245669D01*
X23714285Y31245669D02*
X23752381Y31093288D01*
X23752381Y31093288D02*
X23752381Y30979002D01*
X23752381Y30979002D02*
X23714285Y30826621D01*
X23714285Y30826621D02*
X23676190Y30750431D01*
X23676190Y30750431D02*
X23600000Y30674240D01*
X23600000Y30674240D02*
X23485714Y30636145D01*
X23485714Y30636145D02*
X23295238Y30636145D01*
X27971428Y72636145D02*
X27514285Y72636145D01*
X27742857Y72636145D02*
X27742857Y73436145D01*
X27742857Y73436145D02*
X27666666Y73321860D01*
X27666666Y73321860D02*
X27590476Y73245669D01*
X27590476Y73245669D02*
X27514285Y73207574D01*
X28809524Y73436145D02*
X29076191Y72636145D01*
X29076191Y72636145D02*
X29342857Y73436145D01*
X29609524Y72636145D02*
X29609524Y73436145D01*
X29990476Y72636145D02*
X29990476Y73436145D01*
X29990476Y73436145D02*
X30447619Y72636145D01*
X30447619Y72636145D02*
X30447619Y73436145D01*
X27704761Y39369479D02*
X27704761Y38836145D01*
X27514285Y39674240D02*
X27323808Y39102812D01*
X27323808Y39102812D02*
X27819047Y39102812D01*
X28695237Y38874240D02*
X28809523Y38836145D01*
X28809523Y38836145D02*
X28999999Y38836145D01*
X28999999Y38836145D02*
X29076190Y38874240D01*
X29076190Y38874240D02*
X29114285Y38912336D01*
X29114285Y38912336D02*
X29152380Y38988526D01*
X29152380Y38988526D02*
X29152380Y39064717D01*
X29152380Y39064717D02*
X29114285Y39140907D01*
X29114285Y39140907D02*
X29076190Y39179002D01*
X29076190Y39179002D02*
X28999999Y39217098D01*
X28999999Y39217098D02*
X28847618Y39255193D01*
X28847618Y39255193D02*
X28771428Y39293288D01*
X28771428Y39293288D02*
X28733333Y39331383D01*
X28733333Y39331383D02*
X28695237Y39407574D01*
X28695237Y39407574D02*
X28695237Y39483764D01*
X28695237Y39483764D02*
X28733333Y39559955D01*
X28733333Y39559955D02*
X28771428Y39598050D01*
X28771428Y39598050D02*
X28847618Y39636145D01*
X28847618Y39636145D02*
X29038095Y39636145D01*
X29038095Y39636145D02*
X29152380Y39598050D01*
X29495238Y39255193D02*
X29761904Y39255193D01*
X29876190Y38836145D02*
X29495238Y38836145D01*
X29495238Y38836145D02*
X29495238Y39636145D01*
X29495238Y39636145D02*
X29876190Y39636145D01*
X30676191Y38912336D02*
X30638095Y38874240D01*
X30638095Y38874240D02*
X30523810Y38836145D01*
X30523810Y38836145D02*
X30447619Y38836145D01*
X30447619Y38836145D02*
X30333333Y38874240D01*
X30333333Y38874240D02*
X30257143Y38950431D01*
X30257143Y38950431D02*
X30219048Y39026621D01*
X30219048Y39026621D02*
X30180952Y39179002D01*
X30180952Y39179002D02*
X30180952Y39293288D01*
X30180952Y39293288D02*
X30219048Y39445669D01*
X30219048Y39445669D02*
X30257143Y39521860D01*
X30257143Y39521860D02*
X30333333Y39598050D01*
X30333333Y39598050D02*
X30447619Y39636145D01*
X30447619Y39636145D02*
X30523810Y39636145D01*
X30523810Y39636145D02*
X30638095Y39598050D01*
X30638095Y39598050D02*
X30676191Y39559955D01*
D11*
X10135714Y81090923D02*
X10135714Y81990923D01*
X10135714Y81990923D02*
X10350000Y81990923D01*
X10350000Y81990923D02*
X10478571Y81948066D01*
X10478571Y81948066D02*
X10564286Y81862352D01*
X10564286Y81862352D02*
X10607143Y81776638D01*
X10607143Y81776638D02*
X10650000Y81605209D01*
X10650000Y81605209D02*
X10650000Y81476638D01*
X10650000Y81476638D02*
X10607143Y81305209D01*
X10607143Y81305209D02*
X10564286Y81219495D01*
X10564286Y81219495D02*
X10478571Y81133780D01*
X10478571Y81133780D02*
X10350000Y81090923D01*
X10350000Y81090923D02*
X10135714Y81090923D01*
X11421429Y81690923D02*
X11421429Y81090923D01*
X11207143Y82033780D02*
X10992857Y81390923D01*
X10992857Y81390923D02*
X11550000Y81390923D01*
X31850000Y78590923D02*
X31550000Y79019495D01*
X31335714Y78590923D02*
X31335714Y79490923D01*
X31335714Y79490923D02*
X31678571Y79490923D01*
X31678571Y79490923D02*
X31764286Y79448066D01*
X31764286Y79448066D02*
X31807143Y79405209D01*
X31807143Y79405209D02*
X31850000Y79319495D01*
X31850000Y79319495D02*
X31850000Y79190923D01*
X31850000Y79190923D02*
X31807143Y79105209D01*
X31807143Y79105209D02*
X31764286Y79062352D01*
X31764286Y79062352D02*
X31678571Y79019495D01*
X31678571Y79019495D02*
X31335714Y79019495D01*
X32621429Y79490923D02*
X32450000Y79490923D01*
X32450000Y79490923D02*
X32364286Y79448066D01*
X32364286Y79448066D02*
X32321429Y79405209D01*
X32321429Y79405209D02*
X32235714Y79276638D01*
X32235714Y79276638D02*
X32192857Y79105209D01*
X32192857Y79105209D02*
X32192857Y78762352D01*
X32192857Y78762352D02*
X32235714Y78676638D01*
X32235714Y78676638D02*
X32278571Y78633780D01*
X32278571Y78633780D02*
X32364286Y78590923D01*
X32364286Y78590923D02*
X32535714Y78590923D01*
X32535714Y78590923D02*
X32621429Y78633780D01*
X32621429Y78633780D02*
X32664286Y78676638D01*
X32664286Y78676638D02*
X32707143Y78762352D01*
X32707143Y78762352D02*
X32707143Y78976638D01*
X32707143Y78976638D02*
X32664286Y79062352D01*
X32664286Y79062352D02*
X32621429Y79105209D01*
X32621429Y79105209D02*
X32535714Y79148066D01*
X32535714Y79148066D02*
X32364286Y79148066D01*
X32364286Y79148066D02*
X32278571Y79105209D01*
X32278571Y79105209D02*
X32235714Y79062352D01*
X32235714Y79062352D02*
X32192857Y78976638D01*
X34280000Y86590923D02*
X33980000Y87019495D01*
X33765714Y86590923D02*
X33765714Y87490923D01*
X33765714Y87490923D02*
X34108571Y87490923D01*
X34108571Y87490923D02*
X34194286Y87448066D01*
X34194286Y87448066D02*
X34237143Y87405209D01*
X34237143Y87405209D02*
X34280000Y87319495D01*
X34280000Y87319495D02*
X34280000Y87190923D01*
X34280000Y87190923D02*
X34237143Y87105209D01*
X34237143Y87105209D02*
X34194286Y87062352D01*
X34194286Y87062352D02*
X34108571Y87019495D01*
X34108571Y87019495D02*
X33765714Y87019495D01*
X35137143Y86590923D02*
X34622857Y86590923D01*
X34880000Y86590923D02*
X34880000Y87490923D01*
X34880000Y87490923D02*
X34794286Y87362352D01*
X34794286Y87362352D02*
X34708571Y87276638D01*
X34708571Y87276638D02*
X34622857Y87233780D01*
X25335714Y29590923D02*
X25335714Y30490923D01*
X25335714Y30490923D02*
X25550000Y30490923D01*
X25550000Y30490923D02*
X25678571Y30448066D01*
X25678571Y30448066D02*
X25764286Y30362352D01*
X25764286Y30362352D02*
X25807143Y30276638D01*
X25807143Y30276638D02*
X25850000Y30105209D01*
X25850000Y30105209D02*
X25850000Y29976638D01*
X25850000Y29976638D02*
X25807143Y29805209D01*
X25807143Y29805209D02*
X25764286Y29719495D01*
X25764286Y29719495D02*
X25678571Y29633780D01*
X25678571Y29633780D02*
X25550000Y29590923D01*
X25550000Y29590923D02*
X25335714Y29590923D01*
X26192857Y30405209D02*
X26235714Y30448066D01*
X26235714Y30448066D02*
X26321429Y30490923D01*
X26321429Y30490923D02*
X26535714Y30490923D01*
X26535714Y30490923D02*
X26621429Y30448066D01*
X26621429Y30448066D02*
X26664286Y30405209D01*
X26664286Y30405209D02*
X26707143Y30319495D01*
X26707143Y30319495D02*
X26707143Y30233780D01*
X26707143Y30233780D02*
X26664286Y30105209D01*
X26664286Y30105209D02*
X26150000Y29590923D01*
X26150000Y29590923D02*
X26707143Y29590923D01*
X22785000Y75090923D02*
X22485000Y75519495D01*
X22270714Y75090923D02*
X22270714Y75990923D01*
X22270714Y75990923D02*
X22613571Y75990923D01*
X22613571Y75990923D02*
X22699286Y75948066D01*
X22699286Y75948066D02*
X22742143Y75905209D01*
X22742143Y75905209D02*
X22785000Y75819495D01*
X22785000Y75819495D02*
X22785000Y75690923D01*
X22785000Y75690923D02*
X22742143Y75605209D01*
X22742143Y75605209D02*
X22699286Y75562352D01*
X22699286Y75562352D02*
X22613571Y75519495D01*
X22613571Y75519495D02*
X22270714Y75519495D01*
X23085000Y75990923D02*
X23642143Y75990923D01*
X23642143Y75990923D02*
X23342143Y75648066D01*
X23342143Y75648066D02*
X23470714Y75648066D01*
X23470714Y75648066D02*
X23556429Y75605209D01*
X23556429Y75605209D02*
X23599286Y75562352D01*
X23599286Y75562352D02*
X23642143Y75476638D01*
X23642143Y75476638D02*
X23642143Y75262352D01*
X23642143Y75262352D02*
X23599286Y75176638D01*
X23599286Y75176638D02*
X23556429Y75133780D01*
X23556429Y75133780D02*
X23470714Y75090923D01*
X23470714Y75090923D02*
X23213571Y75090923D01*
X23213571Y75090923D02*
X23127857Y75133780D01*
X23127857Y75133780D02*
X23085000Y75176638D01*
X28314285Y81490923D02*
X28314285Y80762352D01*
X28314285Y80762352D02*
X28357142Y80676638D01*
X28357142Y80676638D02*
X28400000Y80633780D01*
X28400000Y80633780D02*
X28485714Y80590923D01*
X28485714Y80590923D02*
X28657142Y80590923D01*
X28657142Y80590923D02*
X28742857Y80633780D01*
X28742857Y80633780D02*
X28785714Y80676638D01*
X28785714Y80676638D02*
X28828571Y80762352D01*
X28828571Y80762352D02*
X28828571Y81490923D01*
X29728571Y80590923D02*
X29214285Y80590923D01*
X29471428Y80590923D02*
X29471428Y81490923D01*
X29471428Y81490923D02*
X29385714Y81362352D01*
X29385714Y81362352D02*
X29299999Y81276638D01*
X29299999Y81276638D02*
X29214285Y81233780D01*
X29150000Y20676638D02*
X29107143Y20633780D01*
X29107143Y20633780D02*
X28978571Y20590923D01*
X28978571Y20590923D02*
X28892857Y20590923D01*
X28892857Y20590923D02*
X28764286Y20633780D01*
X28764286Y20633780D02*
X28678571Y20719495D01*
X28678571Y20719495D02*
X28635714Y20805209D01*
X28635714Y20805209D02*
X28592857Y20976638D01*
X28592857Y20976638D02*
X28592857Y21105209D01*
X28592857Y21105209D02*
X28635714Y21276638D01*
X28635714Y21276638D02*
X28678571Y21362352D01*
X28678571Y21362352D02*
X28764286Y21448066D01*
X28764286Y21448066D02*
X28892857Y21490923D01*
X28892857Y21490923D02*
X28978571Y21490923D01*
X28978571Y21490923D02*
X29107143Y21448066D01*
X29107143Y21448066D02*
X29150000Y21405209D01*
X29921429Y21190923D02*
X29921429Y20590923D01*
X29707143Y21533780D02*
X29492857Y20890923D01*
X29492857Y20890923D02*
X30050000Y20890923D01*
%TO.C,R4*%
D12*
X26977500Y75237258D02*
X26977500Y74762742D01*
X28022500Y75237258D02*
X28022500Y74762742D01*
%TO.C,C3*%
D13*
X15000000Y22000000D02*
X16000000Y22000000D01*
X15500000Y22500000D02*
X15500000Y21500000D01*
D10*
X15700000Y23400000D02*
X22300000Y23400000D01*
X15700000Y16600000D02*
X22300000Y16600000D01*
%TO.C,J1*%
X5900000Y100700000D02*
X16100000Y100700000D01*
X5900000Y92900000D02*
X5900000Y100700000D01*
D14*
X7700000Y100200000D02*
X9300000Y100200000D01*
X12700000Y100200000D02*
X14300000Y100200000D01*
D10*
X16100000Y100700000D02*
X16100000Y92900000D01*
X16100000Y92900000D02*
X5900000Y92900000D01*
%TO.C,R2*%
D12*
X30462742Y83022500D02*
X30937258Y83022500D01*
X30462742Y81977500D02*
X30937258Y81977500D01*
%TO.C,C6*%
X34238748Y75635000D02*
X34761252Y75635000D01*
X34238748Y74165000D02*
X34761252Y74165000D01*
%TO.C,R5*%
X29762742Y78522500D02*
X30237258Y78522500D01*
X29762742Y77477500D02*
X30237258Y77477500D01*
%TO.C,J2*%
D10*
X20400000Y12100000D02*
X30600000Y12100000D01*
X20400000Y4300000D02*
X20400000Y12100000D01*
D14*
X23800000Y4800000D02*
X22200000Y4800000D01*
X28800000Y4800000D02*
X27200000Y4800000D01*
D10*
X30600000Y12100000D02*
X30600000Y4300000D01*
X30600000Y4300000D02*
X20400000Y4300000D01*
%TO.C,F1*%
D12*
X19397936Y97910000D02*
X20602064Y97910000D01*
X19397936Y96090000D02*
X20602064Y96090000D01*
%TO.C,D3*%
X17290000Y78410000D02*
X17290000Y75100000D01*
X17290000Y78410000D02*
X19310000Y78410000D01*
X19310000Y75100000D02*
X19310000Y78410000D01*
%TO.C,D1*%
X30510000Y97150000D02*
X25000000Y97150000D01*
X30510000Y93850000D02*
X25000000Y93850000D01*
X30510000Y93850000D02*
X30510000Y97150000D01*
%TO.C,C1*%
X19640000Y89711252D02*
X19640000Y88288748D01*
X22360000Y89711252D02*
X22360000Y88288748D01*
%TO.C,C2*%
X27640000Y90711252D02*
X27640000Y89288748D01*
X30360000Y90711252D02*
X30360000Y89288748D01*
%TO.C,C5*%
X25125000Y86359420D02*
X25125000Y86640580D01*
X26145000Y86359420D02*
X26145000Y86640580D01*
%TO.C,R7*%
X33090000Y21727064D02*
X33090000Y20272936D01*
X34910000Y21727064D02*
X34910000Y20272936D01*
%TO.C,D4*%
X12350000Y77990000D02*
X12350000Y83500000D01*
X12350000Y77990000D02*
X15650000Y77990000D01*
X15650000Y77990000D02*
X15650000Y83500000D01*
%TO.C,R6*%
X33590000Y79727064D02*
X33590000Y78272936D01*
X35410000Y79727064D02*
X35410000Y78272936D01*
%TO.C,R1*%
X32477500Y87237258D02*
X32477500Y86762742D01*
X33522500Y87237258D02*
X33522500Y86762742D01*
%TO.C,D2*%
X22190000Y24875000D02*
X22190000Y29125000D01*
X22190000Y24875000D02*
X27000000Y24875000D01*
X27000000Y29125000D02*
X22190000Y29125000D01*
%TO.C,R3*%
X23842500Y75262742D02*
X23842500Y75737258D01*
X24887500Y75262742D02*
X24887500Y75737258D01*
%TO.C,U1*%
D10*
X22350000Y82800000D02*
X22350000Y79200000D01*
D15*
X27450000Y84300000D02*
X27450000Y83800000D01*
D10*
X27650000Y82800000D02*
X27650000Y79200000D01*
%TO.C,C4*%
D12*
X25640000Y21711252D02*
X25640000Y20288748D01*
X28360000Y21711252D02*
X28360000Y20288748D01*
%TD*%
%LPC*%
D16*
%TO.C,R4*%
X27500000Y75825000D03*
X27500000Y74175000D03*
%TD*%
D17*
%TO.C,C3*%
X16200000Y20000000D03*
X21800000Y20000000D03*
%TD*%
D18*
%TO.C,J1*%
X8500000Y97000000D03*
D19*
X13500000Y97000000D03*
%TD*%
D20*
%TO.C,R2*%
X29875000Y82500000D03*
X31525000Y82500000D03*
%TD*%
D21*
%TO.C,C6*%
X33550000Y74900000D03*
X35450000Y74900000D03*
%TD*%
D20*
%TO.C,R5*%
X29175000Y78000000D03*
X30825000Y78000000D03*
%TD*%
D18*
%TO.C,J2*%
X28000000Y8000000D03*
D19*
X23000000Y8000000D03*
%TD*%
D22*
%TO.C,F1*%
X18600000Y97000000D03*
X21400000Y97000000D03*
%TD*%
D23*
%TO.C,D3*%
X18300000Y76950000D03*
D24*
X18300000Y74575000D03*
%TD*%
D25*
%TO.C,D1*%
X29000000Y95500000D03*
X25000000Y95500000D03*
%TD*%
D26*
%TO.C,C1*%
X21000000Y90475000D03*
X21000000Y87525000D03*
%TD*%
%TO.C,C2*%
X29000000Y91475000D03*
X29000000Y88525000D03*
%TD*%
D27*
%TO.C,C5*%
X25635000Y85725000D03*
X25635000Y87275000D03*
%TD*%
D28*
%TO.C,R7*%
X34000000Y22462500D03*
X34000000Y19537500D03*
%TD*%
D29*
%TO.C,T1*%
X28621977Y71193193D03*
X21378023Y71193193D03*
X23169595Y32408661D03*
X26075000Y37553499D03*
%TD*%
D30*
%TO.C,D4*%
X14000000Y79500000D03*
X14000000Y83500000D03*
%TD*%
D28*
%TO.C,R6*%
X34500000Y80462500D03*
X34500000Y77537500D03*
%TD*%
D16*
%TO.C,R1*%
X33000000Y87825000D03*
X33000000Y86175000D03*
%TD*%
D31*
%TO.C,D2*%
X24880000Y27000000D03*
D32*
X28862000Y27920000D03*
X28862000Y26080000D03*
%TD*%
D33*
%TO.C,R3*%
X24365000Y74675000D03*
X24365000Y76325000D03*
%TD*%
D34*
%TO.C,U1*%
X26905000Y83601500D03*
X25635000Y83601500D03*
X24365000Y83601500D03*
X23095000Y83601500D03*
X23095000Y78398500D03*
X24365000Y78398500D03*
X25635000Y78398500D03*
X26905000Y78398500D03*
D35*
X25000000Y81000000D03*
%TD*%
D26*
%TO.C,C4*%
X27000000Y22475000D03*
X27000000Y19525000D03*
%TD*%
%LPD*%
M02*
