%TF.GenerationSoftware,KiCad,Pcbnew,10.0.6*%
%TF.CreationDate,2026-10-08T11:56:37-04:00*%
%TF.ProjectId,PS-FLYBACK-5W,50532d46-4c59-4424-9143-4b2d35572e6b,A3-development*%
%TF.SameCoordinates,Original*%
%TF.FileFunction,Copper,L6,Bot*%
%TF.FilePolarity,Positive*%
%FSLAX46Y46*%
G04 Gerber Fmt 4.6, Leading zero omitted, Abs format (unit mm)*
G04 Created by KiCad (PCBNEW 10.0.6) date 2026-10-08 11:56:37*
%MOMM*%
%LPD*%
G01*
G04 APERTURE LIST*
%TA.AperFunction,EtchedComponent*%
%ADD10C,0.000000*%
%TD*%
%TA.AperFunction,ComponentPad*%
%ADD11R,2.400000X2.400000*%
%TD*%
%TA.AperFunction,ComponentPad*%
%ADD12C,2.400000*%
%TD*%
%TA.AperFunction,ComponentPad*%
%ADD13C,0.600000*%
%TD*%
%TA.AperFunction,ViaPad*%
%ADD14C,0.900000*%
%TD*%
%TA.AperFunction,ViaPad*%
%ADD15C,0.600000*%
%TD*%
%TA.AperFunction,ViaPad*%
%ADD16C,1.200000*%
%TD*%
%TA.AperFunction,ViaPad*%
%ADD17C,0.800000*%
%TD*%
G04 APERTURE END LIST*
D10*
%TA.AperFunction,EtchedComponent*%
%TO.C,T1*%
G36*
X22019922Y60899338D02*
G01*
X22021723Y60899075D01*
X22023538Y60899075D01*
X22044984Y60895678D01*
X22066504Y60892536D01*
X22068239Y60891995D01*
X22070034Y60891711D01*
X22090706Y60884994D01*
X22111447Y60878531D01*
X22113074Y60877726D01*
X22114805Y60877164D01*
X22134202Y60867280D01*
X22153647Y60857667D01*
X22155126Y60856619D01*
X22156750Y60855792D01*
X22174348Y60843005D01*
X22192063Y60830460D01*
X22193364Y60829189D01*
X22194834Y60828122D01*
X22210205Y60812750D01*
X22225751Y60797576D01*
X22226835Y60796120D01*
X22228122Y60794834D01*
X22240894Y60777254D01*
X22253879Y60759830D01*
X22254723Y60758219D01*
X22255792Y60756750D01*
X22265663Y60737376D01*
X22275756Y60718146D01*
X22276337Y60716426D01*
X22277164Y60714805D01*
X22283888Y60694108D01*
X22290843Y60673554D01*
X22291148Y60671765D01*
X22291711Y60670034D01*
X22295118Y60648520D01*
X22298768Y60627150D01*
X22298789Y60625338D01*
X22299075Y60623538D01*
X22300000Y60600000D01*
X22300000Y59594433D01*
X22339337Y59593697D01*
X22339355Y59593698D01*
X22674061Y59587448D01*
X22674066Y59587449D01*
X23011459Y59581199D01*
X23011466Y59581198D01*
X23353014Y59574951D01*
X23353020Y59574952D01*
X23700872Y59568702D01*
X23700875Y59568701D01*
X24056649Y59562454D01*
X24056661Y59562453D01*
X24422373Y59556208D01*
X24422377Y59556209D01*
X24800894Y59549959D01*
X24800894Y59549958D01*
X25194319Y59543712D01*
X25194323Y59543711D01*
X25605580Y59537468D01*
X25605595Y59537469D01*
X26038882Y59531219D01*
X26038889Y59531218D01*
X26497318Y59524975D01*
X26497331Y59524976D01*
X26986795Y59518726D01*
X26986799Y59518725D01*
X27512355Y59512479D01*
X28081260Y59506234D01*
X28703014Y59499985D01*
X28726427Y59498828D01*
X28726488Y59498828D01*
X28726508Y59498824D01*
X28726541Y59498823D01*
X28746441Y59495465D01*
X28772909Y59491006D01*
X28772940Y59490995D01*
X28772961Y59490992D01*
X28790791Y59484999D01*
X28817534Y59476018D01*
X28817561Y59476003D01*
X28817584Y59475996D01*
X28836414Y59466162D01*
X28859266Y59454233D01*
X28859288Y59454216D01*
X28859312Y59454204D01*
X28877389Y59440790D01*
X28897075Y59426188D01*
X28897095Y59426167D01*
X28897116Y59426152D01*
X28911704Y59411266D01*
X28930033Y59392573D01*
X28930051Y59392546D01*
X28930067Y59392531D01*
X28940697Y59377586D01*
X28957326Y59354218D01*
X28957340Y59354187D01*
X28957353Y59354171D01*
X28964974Y59338834D01*
X28978283Y59312064D01*
X28978293Y59312029D01*
X28978302Y59312013D01*
X28983816Y59294442D01*
X28992387Y59267152D01*
X28992391Y59267124D01*
X28992399Y59267099D01*
X28995520Y59246019D01*
X28999292Y59220585D01*
X28999293Y59220542D01*
X28999295Y59220531D01*
X28999294Y59220495D01*
X28999984Y59197039D01*
X28993735Y58563900D01*
X28993728Y58563758D01*
X28993732Y58563620D01*
X28987481Y57985048D01*
X28987474Y57984911D01*
X28987478Y57984773D01*
X28981228Y57451635D01*
X28981221Y57451503D01*
X28981225Y57451365D01*
X28974976Y56956305D01*
X28974969Y56956179D01*
X28974973Y56956042D01*
X28968723Y56493045D01*
X28968716Y56492912D01*
X28968719Y56492793D01*
X28962469Y56056879D01*
X28962462Y56056766D01*
X28962466Y56056640D01*
X28956216Y55643632D01*
X28956209Y55643513D01*
X28956212Y55643408D01*
X28949961Y55249757D01*
X28949955Y55249659D01*
X28949958Y55249553D01*
X28943709Y54872204D01*
X28943703Y54872112D01*
X28943706Y54872017D01*
X28937456Y54508309D01*
X28937451Y54508224D01*
X28937453Y54508143D01*
X28931203Y54155722D01*
X28931198Y54155645D01*
X28931200Y54155579D01*
X28924950Y53812332D01*
X28924946Y53812275D01*
X28924948Y53812214D01*
X28918697Y53476218D01*
X28918694Y53476168D01*
X28918695Y53476127D01*
X28912446Y53145603D01*
X28912444Y53145573D01*
X28912445Y53145537D01*
X28906247Y52821530D01*
X28900000Y46999678D01*
X28893750Y41175748D01*
X28893639Y41173013D01*
X28893694Y41170299D01*
X28887443Y40845467D01*
X28887444Y40845464D01*
X28881196Y40518127D01*
X28881197Y40518111D01*
X28874948Y40186602D01*
X28874949Y40186598D01*
X28868701Y39849186D01*
X28862453Y39504017D01*
X28862454Y39504009D01*
X28856206Y39149033D01*
X28849960Y38781992D01*
X28843710Y38400128D01*
X28837466Y38001182D01*
X28837467Y38001173D01*
X28831217Y37580860D01*
X28824972Y37136194D01*
X28824973Y37136186D01*
X28818723Y36661417D01*
X28812479Y36151949D01*
X28812480Y36151935D01*
X28806234Y35599970D01*
X28799984Y34996891D01*
X28798820Y34973476D01*
X28798820Y34973421D01*
X28798816Y34973403D01*
X28798815Y34973364D01*
X28794931Y34950388D01*
X28790984Y34927002D01*
X28790974Y34926974D01*
X28790970Y34926947D01*
X28784945Y34909040D01*
X28775982Y34882382D01*
X28775967Y34882355D01*
X28775959Y34882329D01*
X28766329Y34863905D01*
X28754185Y34840656D01*
X28754165Y34840630D01*
X28754154Y34840608D01*
X28742606Y34825055D01*
X28726129Y34802856D01*
X28726109Y34802837D01*
X28726091Y34802812D01*
X28710517Y34787558D01*
X28692504Y34769908D01*
X28692481Y34769892D01*
X28692460Y34769871D01*
X28671700Y34755115D01*
X28654140Y34742627D01*
X28654117Y34742616D01*
X28654091Y34742597D01*
X28631313Y34731287D01*
X28611980Y34721683D01*
X28611956Y34721676D01*
X28611927Y34721661D01*
X28587647Y34714050D01*
X28567063Y34707592D01*
X28567035Y34707588D01*
X28567007Y34707579D01*
X28543394Y34704090D01*
X28520495Y34700701D01*
X28520456Y34700700D01*
X28520437Y34700697D01*
X28520378Y34700698D01*
X28496949Y34700016D01*
X27882539Y34706266D01*
X27882396Y34706274D01*
X27882252Y34706269D01*
X27320814Y34712519D01*
X27320675Y34712526D01*
X27320529Y34712522D01*
X26803198Y34718772D01*
X26803064Y34718779D01*
X26802919Y34718775D01*
X26322553Y34725025D01*
X26322413Y34725033D01*
X26322282Y34725029D01*
X25873046Y34731279D01*
X25872912Y34731287D01*
X25872786Y34731283D01*
X25449845Y34737533D01*
X25449731Y34737540D01*
X25449600Y34737536D01*
X25048899Y34743786D01*
X25048779Y34743793D01*
X25048669Y34743790D01*
X24666768Y34750040D01*
X24666655Y34750047D01*
X24666555Y34750044D01*
X24300489Y34756294D01*
X24300397Y34756300D01*
X24300296Y34756297D01*
X23947480Y34762547D01*
X23947395Y34762552D01*
X23947310Y34762550D01*
X23605460Y34768800D01*
X23605383Y34768805D01*
X23605314Y34768803D01*
X23272380Y34775053D01*
X23272323Y34775057D01*
X23272258Y34775055D01*
X22946378Y34781305D01*
X22946328Y34781308D01*
X22946283Y34781307D01*
X22625728Y34787557D01*
X22625698Y34787559D01*
X22625660Y34787558D01*
X22308802Y34793808D01*
X22308779Y34793810D01*
X22308761Y34793809D01*
X21994043Y34800059D01*
X21994041Y34800060D01*
X21994032Y34800059D01*
X21679928Y34806309D01*
X21679920Y34806310D01*
X21364985Y34812559D01*
X21364982Y34812558D01*
X21047526Y34818808D01*
X21047515Y34818809D01*
X20726206Y34825056D01*
X20726205Y34825055D01*
X20399126Y34831303D01*
X20399112Y34831302D01*
X20064515Y34837550D01*
X20064512Y34837549D01*
X19720252Y34843799D01*
X19720249Y34843800D01*
X19364477Y34850046D01*
X19364467Y34850047D01*
X18994793Y34856290D01*
X18994786Y34856289D01*
X18607937Y34862536D01*
X18607934Y34862535D01*
X18200851Y34868782D01*
X18200849Y34868781D01*
X17769425Y34875031D01*
X17769409Y34875032D01*
X17309908Y34881275D01*
X17309903Y34881274D01*
X16815971Y34887521D01*
X16815962Y34887520D01*
X16280845Y34893770D01*
X16280842Y34893771D01*
X15696792Y34900017D01*
X15673402Y34901188D01*
X15673327Y34901188D01*
X15673303Y34901193D01*
X15673266Y34901194D01*
X15651403Y34904897D01*
X15626911Y34909040D01*
X15626883Y34909050D01*
X15626851Y34909055D01*
X15603703Y34916851D01*
X15582295Y34924056D01*
X15582270Y34924070D01*
X15582238Y34924080D01*
X15561411Y34934974D01*
X15540576Y34945866D01*
X15540550Y34945886D01*
X15540524Y34945899D01*
X15522391Y34959373D01*
X15502785Y34973934D01*
X15502764Y34973957D01*
X15502738Y34973975D01*
X15485214Y34991879D01*
X15469848Y35007570D01*
X15469833Y35007593D01*
X15469808Y35007617D01*
X15455139Y35028270D01*
X15442579Y35045942D01*
X15442566Y35045969D01*
X15442547Y35045995D01*
X15431708Y35067845D01*
X15421648Y35088109D01*
X15421639Y35088138D01*
X15421625Y35088166D01*
X15415019Y35109264D01*
X15407571Y35133030D01*
X15407566Y35133065D01*
X15407558Y35133090D01*
X15404067Y35156769D01*
X15400696Y35179601D01*
X15400696Y35179635D01*
X15400691Y35179662D01*
X15400692Y35179745D01*
X15400018Y35203147D01*
X15406267Y35798825D01*
X15406275Y35798971D01*
X15406270Y35799123D01*
X15412520Y36343428D01*
X15412528Y36343568D01*
X15412523Y36343721D01*
X15418773Y36845246D01*
X15418781Y36845394D01*
X15418777Y36845535D01*
X15425028Y37311207D01*
X15425036Y37311348D01*
X15425032Y37311485D01*
X15431281Y37746961D01*
X15431289Y37747096D01*
X15431285Y37747229D01*
X15437535Y38157198D01*
X15437542Y38157326D01*
X15437539Y38157452D01*
X15443789Y38545842D01*
X15443796Y38545962D01*
X15443793Y38546080D01*
X15450043Y38916231D01*
X15450050Y38916344D01*
X15450047Y38916451D01*
X15456298Y39271236D01*
X15456304Y39271328D01*
X15456301Y39271433D01*
X15462550Y39613358D01*
X15462555Y39613443D01*
X15462553Y39613535D01*
X15468803Y39944813D01*
X15468808Y39944891D01*
X15468806Y39944965D01*
X15475056Y40267582D01*
X15475061Y40267652D01*
X15475059Y40267708D01*
X15481309Y40583473D01*
X15481312Y40583524D01*
X15481311Y40583573D01*
X15487562Y40894160D01*
X15487564Y40894190D01*
X15487563Y40894229D01*
X15493812Y41201213D01*
X15493814Y41201237D01*
X15493813Y41201256D01*
X15500003Y41503157D01*
X15506250Y52804445D01*
X15506370Y52807435D01*
X15506313Y52810423D01*
X15512563Y53115559D01*
X15518813Y53422999D01*
X15525060Y53734303D01*
X15525061Y53734304D01*
X15531309Y54051108D01*
X15531310Y54051123D01*
X15537556Y54375155D01*
X15543800Y54708167D01*
X15543799Y54708181D01*
X15550050Y55052853D01*
X15550051Y55052869D01*
X15556296Y55411007D01*
X15562543Y55785565D01*
X15568788Y56179683D01*
X15575034Y56597083D01*
X15581281Y57042184D01*
X15587526Y57520317D01*
X15593768Y58037697D01*
X15600018Y58603314D01*
X15601197Y58626707D01*
X15601197Y58626775D01*
X15601201Y58626797D01*
X15601203Y58626841D01*
X15605813Y58654002D01*
X15609065Y58673188D01*
X15609076Y58673218D01*
X15609081Y58673252D01*
X15617692Y58698793D01*
X15624096Y58717799D01*
X15624109Y58717822D01*
X15624121Y58717860D01*
X15637649Y58743700D01*
X15645921Y58759510D01*
X15645941Y58759535D01*
X15645956Y58759566D01*
X15660884Y58779641D01*
X15674002Y58797292D01*
X15674024Y58797312D01*
X15674045Y58797342D01*
X15691994Y58814898D01*
X15707648Y58830218D01*
X15707674Y58830236D01*
X15707698Y58830260D01*
X15728030Y58844691D01*
X15746030Y58857474D01*
X15746057Y58857487D01*
X15746086Y58857508D01*
X15769999Y58869360D01*
X15788204Y58878390D01*
X15788230Y58878398D01*
X15788264Y58878415D01*
X15813104Y58886183D01*
X15833129Y58892451D01*
X15833160Y58892455D01*
X15833193Y58892466D01*
X15858774Y58896228D01*
X15879703Y58899311D01*
X15879742Y58899312D01*
X15879768Y58899316D01*
X15879848Y58899315D01*
X15903249Y58899981D01*
X16480196Y58893732D01*
X16480344Y58893724D01*
X16480503Y58893729D01*
X17007674Y58887479D01*
X17007830Y58887471D01*
X17007978Y58887475D01*
X17493698Y58881225D01*
X17493847Y58881217D01*
X17493995Y58881221D01*
X17944972Y58874971D01*
X17945115Y58874963D01*
X17945261Y58874967D01*
X18366977Y58868717D01*
X18367113Y58868709D01*
X18367254Y58868713D01*
X18764249Y58862463D01*
X18764378Y58862455D01*
X18764512Y58862459D01*
X19140593Y58856209D01*
X19140727Y58856201D01*
X19140839Y58856204D01*
X19499238Y58849954D01*
X19499352Y58849947D01*
X19499466Y58849950D01*
X19842970Y58843700D01*
X19843063Y58843694D01*
X19843175Y58843697D01*
X20174208Y58837447D01*
X20174306Y58837441D01*
X20174390Y58837443D01*
X20495096Y58831193D01*
X20495174Y58831188D01*
X20495254Y58831190D01*
X20807556Y58824940D01*
X20807626Y58824935D01*
X20807686Y58824937D01*
X21113336Y58818687D01*
X21113386Y58818684D01*
X21113439Y58818685D01*
X21414057Y58812435D01*
X21414087Y58812433D01*
X21414130Y58812434D01*
X21711242Y58806184D01*
X21711265Y58806182D01*
X21711285Y58806183D01*
X22006353Y58799933D01*
X22006371Y58799931D01*
X22300786Y58793682D01*
X22300803Y58793683D01*
X22596066Y58787433D01*
X22893535Y58781184D01*
X22893551Y58781183D01*
X23194596Y58774937D01*
X23194615Y58774938D01*
X23501209Y58768688D01*
X23501227Y58768686D01*
X23814498Y58762443D01*
X23814517Y58762444D01*
X24136994Y58756194D01*
X24137008Y58756193D01*
X24469995Y58749950D01*
X24816592Y58743701D01*
X24816593Y58743700D01*
X25178560Y58737459D01*
X25178575Y58737460D01*
X25559969Y58731210D01*
X25559974Y58731209D01*
X25963599Y58724964D01*
X25963603Y58724963D01*
X26393680Y58718722D01*
X26393697Y58718723D01*
X26856175Y58712474D01*
X27356855Y58706227D01*
X27356869Y58706226D01*
X27903428Y58699980D01*
X27926795Y58698793D01*
X27926883Y58698793D01*
X27926911Y58698788D01*
X27926953Y58698786D01*
X27948906Y58695051D01*
X27973294Y58690909D01*
X27973326Y58690898D01*
X27973362Y58690892D01*
X27995414Y58683446D01*
X28017899Y58675862D01*
X28017931Y58675844D01*
X28017964Y58675834D01*
X28039649Y58664470D01*
X28059602Y58654021D01*
X28059627Y58654002D01*
X28059662Y58653984D01*
X28079936Y58638896D01*
X28097374Y58625927D01*
X28097397Y58625902D01*
X28097427Y58625881D01*
X28114101Y58608820D01*
X28130288Y58592268D01*
X28130308Y58592238D01*
X28130333Y58592214D01*
X28144058Y58572861D01*
X28157530Y58553877D01*
X28157545Y58553846D01*
X28157566Y58553817D01*
X28168064Y58532616D01*
X28178431Y58511695D01*
X28178441Y58511661D01*
X28178457Y58511630D01*
X28185747Y58488289D01*
X28192476Y58466764D01*
X28192480Y58466732D01*
X28192492Y58466696D01*
X28196127Y58441913D01*
X28199319Y58420189D01*
X28199320Y58420144D01*
X28199324Y58420119D01*
X28199323Y58420042D01*
X28199980Y58396642D01*
X28193731Y57838425D01*
X28193722Y57838262D01*
X28193727Y57838106D01*
X28187476Y57328069D01*
X28187467Y57327912D01*
X28187472Y57327757D01*
X28181223Y56857843D01*
X28181215Y56857692D01*
X28181219Y56857535D01*
X28174969Y56421252D01*
X28174961Y56421108D01*
X28174965Y56420953D01*
X28168714Y56012997D01*
X28168705Y56012848D01*
X28168709Y56012712D01*
X28162460Y55628690D01*
X28162452Y55628560D01*
X28162456Y55628417D01*
X28156205Y55264645D01*
X28156197Y55264511D01*
X28156200Y55264392D01*
X28149951Y54917742D01*
X28149944Y54917628D01*
X28149947Y54917506D01*
X28143697Y54585284D01*
X28143690Y54585178D01*
X28143693Y54585070D01*
X28137442Y54264929D01*
X28137436Y54264831D01*
X28137438Y54264742D01*
X28131189Y53954608D01*
X28131184Y53954530D01*
X28131186Y53954444D01*
X28124935Y53652455D01*
X28124930Y53652385D01*
X28124932Y53652322D01*
X28118683Y53356788D01*
X28118679Y53356737D01*
X28118681Y53356680D01*
X28112431Y53066031D01*
X28112428Y53065988D01*
X28112429Y53065954D01*
X28106178Y52778715D01*
X28106176Y52778692D01*
X28106177Y52778671D01*
X28099998Y52496634D01*
X28093749Y41215206D01*
X28093621Y41212005D01*
X28093677Y41208804D01*
X28087429Y40923463D01*
X28081180Y40636001D01*
X28081181Y40635993D01*
X28074932Y40344956D01*
X28068685Y40048819D01*
X28068686Y40048817D01*
X28062438Y39745962D01*
X28062439Y39745950D01*
X28056193Y39434564D01*
X28056194Y39434561D01*
X28049948Y39112673D01*
X28043697Y38777810D01*
X28037456Y38428162D01*
X28037457Y38428154D01*
X28031210Y38060021D01*
X28031211Y38060016D01*
X28024962Y37669873D01*
X28018720Y37254499D01*
X28018721Y37254490D01*
X28012474Y36807997D01*
X28006229Y36324607D01*
X27999978Y35796451D01*
X27998781Y35773080D01*
X27998781Y35773001D01*
X27998776Y35772975D01*
X27998774Y35772925D01*
X27994690Y35748976D01*
X27990879Y35726593D01*
X27990867Y35726560D01*
X27990861Y35726520D01*
X27982734Y35702481D01*
X27975814Y35681993D01*
X27975798Y35681963D01*
X27975785Y35681924D01*
X27964274Y35659980D01*
X27953958Y35640299D01*
X27953936Y35640270D01*
X27953918Y35640235D01*
X27939792Y35621270D01*
X27925849Y35602538D01*
X27925821Y35602511D01*
X27925799Y35602481D01*
X27908455Y35585544D01*
X27892178Y35569638D01*
X27892149Y35569618D01*
X27892120Y35569589D01*
X27871897Y35555260D01*
X27853776Y35542411D01*
X27853742Y35542395D01*
X27853711Y35542372D01*
X27832344Y35531802D01*
X27811586Y35521526D01*
X27811549Y35521515D01*
X27811516Y35521498D01*
X27790158Y35514837D01*
X27766649Y35507498D01*
X27766608Y35507493D01*
X27766576Y35507482D01*
X27744701Y35504283D01*
X27720071Y35500673D01*
X27720020Y35500672D01*
X27719996Y35500668D01*
X27719922Y35500669D01*
X27696524Y35500021D01*
X27157039Y35506270D01*
X27156874Y35506279D01*
X27156711Y35506274D01*
X26663806Y35512524D01*
X26663647Y35512533D01*
X26663481Y35512528D01*
X26209373Y35518778D01*
X26209208Y35518787D01*
X26209055Y35518783D01*
X25787466Y35525033D01*
X25787308Y35525042D01*
X25787158Y35525038D01*
X25392961Y35531288D01*
X25392811Y35531297D01*
X25392665Y35531293D01*
X25021616Y35537543D01*
X25021486Y35537551D01*
X25021335Y35537547D01*
X24669873Y35543797D01*
X24669738Y35543805D01*
X24669609Y35543802D01*
X24334708Y35550052D01*
X24334581Y35550060D01*
X24334465Y35550057D01*
X24013525Y35556307D01*
X24013419Y35556314D01*
X24013304Y35556311D01*
X23704054Y35562561D01*
X23703956Y35562567D01*
X23703858Y35562565D01*
X23404296Y35568815D01*
X23404206Y35568821D01*
X23404127Y35568819D01*
X23112455Y35575069D01*
X23112385Y35575074D01*
X23112314Y35575072D01*
X22826894Y35581322D01*
X22826844Y35581326D01*
X22826784Y35581324D01*
X22546104Y35587574D01*
X22546061Y35587577D01*
X22546024Y35587576D01*
X22268659Y35593826D01*
X22268636Y35593828D01*
X22268611Y35593827D01*
X21993194Y35600077D01*
X21993178Y35600079D01*
X21718409Y35606328D01*
X21718393Y35606327D01*
X21442876Y35612577D01*
X21442873Y35612578D01*
X21165433Y35618825D01*
X21165429Y35618824D01*
X20884394Y35625074D01*
X20884382Y35625075D01*
X20598713Y35631319D01*
X20598692Y35631318D01*
X20306225Y35637568D01*
X20306209Y35637570D01*
X20005708Y35643815D01*
X20005706Y35643816D01*
X19695323Y35650057D01*
X19695313Y35650056D01*
X19372456Y35656302D01*
X19372453Y35656301D01*
X19034776Y35662548D01*
X18679561Y35668794D01*
X18303500Y35675039D01*
X17902345Y35681286D01*
X17902329Y35681287D01*
X17471996Y35687528D01*
X17471991Y35687527D01*
X17005408Y35693777D01*
X17005405Y35693778D01*
X16496319Y35700024D01*
X16472947Y35701230D01*
X16472874Y35701230D01*
X16472850Y35701235D01*
X16472794Y35701237D01*
X16447763Y35705517D01*
X16426470Y35709152D01*
X16426437Y35709164D01*
X16426392Y35709171D01*
X16401740Y35717517D01*
X16381877Y35724235D01*
X16381846Y35724252D01*
X16381803Y35724266D01*
X16360259Y35735579D01*
X16340191Y35746109D01*
X16340158Y35746134D01*
X16340123Y35746152D01*
X16322002Y35759662D01*
X16302442Y35774234D01*
X16302413Y35774265D01*
X16302382Y35774287D01*
X16287120Y35789929D01*
X16269556Y35807919D01*
X16269531Y35807955D01*
X16269505Y35807981D01*
X16255988Y35827074D01*
X16242345Y35846333D01*
X16242329Y35846367D01*
X16242304Y35846401D01*
X16231294Y35868683D01*
X16221478Y35888531D01*
X16221467Y35888568D01*
X16221448Y35888605D01*
X16214637Y35910479D01*
X16207469Y35933473D01*
X16207463Y35933518D01*
X16207452Y35933551D01*
X16204355Y35954793D01*
X16200664Y35980054D01*
X16200663Y35980111D01*
X16200659Y35980134D01*
X16200660Y35980206D01*
X16200022Y36003602D01*
X16206273Y36524357D01*
X16206282Y36524524D01*
X16206277Y36524696D01*
X16212526Y37000466D01*
X16212536Y37000640D01*
X16212531Y37000804D01*
X16218782Y37439107D01*
X16218791Y37439260D01*
X16218786Y37439435D01*
X16225035Y37846329D01*
X16225044Y37846489D01*
X16225040Y37846650D01*
X16231290Y38227086D01*
X16231300Y38227250D01*
X16231296Y38227394D01*
X16237547Y38585470D01*
X16237556Y38585613D01*
X16237552Y38585760D01*
X16243801Y38924913D01*
X16243809Y38925048D01*
X16243806Y38925188D01*
X16250057Y39248339D01*
X16250065Y39248465D01*
X16250062Y39248590D01*
X16256311Y39558249D01*
X16256319Y39558368D01*
X16256316Y39558479D01*
X16262566Y39856836D01*
X16262572Y39856934D01*
X16262570Y39857041D01*
X16268821Y40146031D01*
X16268827Y40146121D01*
X16268825Y40146204D01*
X16275074Y40427562D01*
X16275079Y40427633D01*
X16275077Y40427711D01*
X16281328Y40703015D01*
X16281332Y40703077D01*
X16281331Y40703128D01*
X16287580Y40973839D01*
X16287583Y40973882D01*
X16287582Y40973924D01*
X16293832Y41241416D01*
X16293834Y41241439D01*
X16293833Y41241467D01*
X16300003Y41503614D01*
X16306250Y52765144D01*
X16306388Y52768588D01*
X16306333Y52772034D01*
X16312584Y53037680D01*
X16312585Y53037687D01*
X16318832Y53305236D01*
X16325080Y53576072D01*
X16331328Y53851603D01*
X16331329Y53851612D01*
X16337574Y54133344D01*
X16343816Y54422753D01*
X16350065Y54722299D01*
X16356310Y55033426D01*
X16356311Y55033426D01*
X16362556Y55358712D01*
X16362557Y55358717D01*
X16368800Y55700901D01*
X16368801Y55700906D01*
X16375040Y56062900D01*
X16381289Y56449502D01*
X16381290Y56449502D01*
X16387534Y56864371D01*
X16393775Y57313124D01*
X16400024Y57803819D01*
X16401240Y57827169D01*
X16401241Y57827258D01*
X16401247Y57827287D01*
X16401249Y57827344D01*
X16405729Y57853476D01*
X16409183Y57873658D01*
X16409197Y57873697D01*
X16409204Y57873742D01*
X16416872Y57896356D01*
X16424286Y57918245D01*
X16424307Y57918283D01*
X16424320Y57918324D01*
X16435619Y57939819D01*
X16446179Y57959921D01*
X16446205Y57959955D01*
X16446225Y57959994D01*
X16460231Y57978763D01*
X16474321Y57997657D01*
X16474353Y57997687D01*
X16474378Y57997722D01*
X16491275Y58014193D01*
X16508020Y58030528D01*
X16508055Y58030552D01*
X16508087Y58030584D01*
X16528767Y58045210D01*
X16546446Y58057722D01*
X16546481Y58057738D01*
X16546520Y58057767D01*
X16570356Y58069531D01*
X16588654Y58078570D01*
X16588690Y58078581D01*
X16588734Y58078603D01*
X16612624Y58086030D01*
X16633602Y58092559D01*
X16633646Y58092565D01*
X16633686Y58092578D01*
X16657399Y58096024D01*
X16680186Y58099344D01*
X16680241Y58099345D01*
X16680272Y58099350D01*
X16680366Y58099348D01*
X16703734Y58099976D01*
X17205759Y58093727D01*
X17205941Y58093717D01*
X17206113Y58093722D01*
X17664749Y58087472D01*
X17664924Y58087462D01*
X17665098Y58087467D01*
X18087596Y58081217D01*
X18087764Y58081207D01*
X18087939Y58081212D01*
X18480138Y58074962D01*
X18480311Y58074952D01*
X18480471Y58074956D01*
X18847146Y58068706D01*
X18847298Y58068697D01*
X18847465Y58068701D01*
X19192569Y58062451D01*
X19192726Y58062442D01*
X19192872Y58062445D01*
X19519715Y58056195D01*
X19519850Y58056187D01*
X19519999Y58056190D01*
X19831399Y58049940D01*
X19831539Y58049931D01*
X19831662Y58049934D01*
X20130039Y58043684D01*
X20130158Y58043676D01*
X20130278Y58043679D01*
X20417743Y58037429D01*
X20417853Y58037422D01*
X20417955Y58037424D01*
X20696374Y58031174D01*
X20696464Y58031168D01*
X20696557Y58031170D01*
X20967599Y58024920D01*
X20967668Y58024915D01*
X20967751Y58024917D01*
X21232941Y58018667D01*
X21233003Y58018663D01*
X21233061Y58018664D01*
X21493803Y58012414D01*
X21493846Y58012411D01*
X21493890Y58012412D01*
X21751510Y58006162D01*
X21751546Y58006159D01*
X21751563Y58006160D01*
X22007328Y57999910D01*
X22020423Y57999075D01*
X22023538Y57999075D01*
X22025636Y57998742D01*
X22030837Y57998411D01*
X22050396Y57994821D01*
X22070034Y57991711D01*
X22073527Y57990575D01*
X22077139Y57989913D01*
X22095891Y57983309D01*
X22114805Y57977164D01*
X22118077Y57975496D01*
X22121541Y57974277D01*
X22139026Y57964822D01*
X22156750Y57955792D01*
X22159723Y57953631D01*
X22162952Y57951886D01*
X22178734Y57939819D01*
X22194834Y57928122D01*
X22197434Y57925521D01*
X22200348Y57923294D01*
X22214044Y57908911D01*
X22228122Y57894834D01*
X22230282Y57891859D01*
X22232813Y57889203D01*
X22244095Y57872849D01*
X22255792Y57856750D01*
X22257460Y57853476D01*
X22259545Y57850454D01*
X22268136Y57832521D01*
X22277164Y57814805D01*
X22278298Y57811313D01*
X22279886Y57808000D01*
X22285563Y57788953D01*
X22291711Y57770034D01*
X22292286Y57766401D01*
X22293334Y57762887D01*
X22295959Y57743206D01*
X22299075Y57723538D01*
X22299279Y57718324D01*
X22299560Y57716225D01*
X22299484Y57713124D01*
X22300000Y57700000D01*
X22300000Y56800000D01*
X22299075Y56776462D01*
X22291711Y56729966D01*
X22277164Y56685195D01*
X22255792Y56643250D01*
X22228122Y56605166D01*
X22194834Y56571878D01*
X22156750Y56544208D01*
X22114805Y56522836D01*
X22070034Y56508289D01*
X22023538Y56500925D01*
X22000000Y56500000D01*
X21976462Y56500925D01*
X21929966Y56508289D01*
X21885195Y56522836D01*
X21843250Y56544208D01*
X21805166Y56571878D01*
X21771878Y56605166D01*
X21744208Y56643250D01*
X21722836Y56685195D01*
X21708289Y56729966D01*
X21700925Y56776462D01*
X21700000Y56800000D01*
X21700000Y57407234D01*
X21479338Y57412588D01*
X21479336Y57412588D01*
X21218807Y57418833D01*
X21218804Y57418833D01*
X20953615Y57425083D01*
X20953603Y57425083D01*
X20682725Y57431330D01*
X20682723Y57431330D01*
X20404708Y57437571D01*
X20404701Y57437571D01*
X20117255Y57443820D01*
X19819372Y57450060D01*
X19819359Y57450060D01*
X19507959Y57456310D01*
X19507948Y57456310D01*
X19181709Y57462549D01*
X19181704Y57462549D01*
X18836601Y57468799D01*
X18836591Y57468799D01*
X18470587Y57475038D01*
X18470578Y57475038D01*
X18078379Y57481288D01*
X18078378Y57481288D01*
X17656422Y57487530D01*
X17198296Y57493773D01*
X17198291Y57493773D01*
X16996157Y57496289D01*
X16993727Y57305484D01*
X16993718Y57305303D01*
X16993722Y57305131D01*
X16987471Y56855684D01*
X16987462Y56855512D01*
X16987466Y56855341D01*
X16981216Y56440138D01*
X16981208Y56439974D01*
X16981211Y56439805D01*
X16974962Y56053202D01*
X16974953Y56053033D01*
X16974956Y56052880D01*
X16968705Y55690257D01*
X16968697Y55690110D01*
X16968700Y55689955D01*
X16962451Y55347480D01*
X16962444Y55347341D01*
X16962446Y55347194D01*
X16956195Y55021646D01*
X16956188Y55021517D01*
X16956190Y55021385D01*
X16949940Y54710021D01*
X16949933Y54709900D01*
X16949935Y54709785D01*
X16943686Y54410239D01*
X16943680Y54410126D01*
X16943681Y54410026D01*
X16937430Y54120226D01*
X16937425Y54120135D01*
X16937426Y54120047D01*
X16931177Y53838152D01*
X16931173Y53838081D01*
X16931174Y53838000D01*
X16924923Y53562352D01*
X16924920Y53562289D01*
X16924920Y53562234D01*
X16918670Y53291314D01*
X16918668Y53291271D01*
X16918668Y53291230D01*
X16912419Y53023619D01*
X16912418Y53023595D01*
X16912418Y53023565D01*
X16906249Y52761365D01*
X16900001Y41499834D01*
X16899864Y41496389D01*
X16899918Y41492942D01*
X16893668Y41227400D01*
X16887420Y40959994D01*
X16887420Y40959993D01*
X16881174Y40689405D01*
X16881174Y40689395D01*
X16874926Y40414239D01*
X16868681Y40133060D01*
X16868681Y40133056D01*
X16862434Y39844270D01*
X16856189Y39546148D01*
X16856189Y39546143D01*
X16849945Y39236734D01*
X16843699Y38913860D01*
X16837455Y38574997D01*
X16831210Y38217246D01*
X16831210Y38217230D01*
X16824965Y37837115D01*
X16818721Y37430550D01*
X16812474Y36992591D01*
X16812474Y36992586D01*
X16806229Y36517156D01*
X16803578Y36296299D01*
X17013107Y36293727D01*
X17013272Y36293719D01*
X17013444Y36293723D01*
X17480027Y36287473D01*
X17480198Y36287465D01*
X17480359Y36287468D01*
X17911366Y36281218D01*
X17911517Y36281210D01*
X17911689Y36281214D01*
X18312986Y36274964D01*
X18313141Y36274956D01*
X18313295Y36274959D01*
X18689678Y36268709D01*
X18689825Y36268701D01*
X18689971Y36268704D01*
X19045419Y36262454D01*
X19045557Y36262447D01*
X19045694Y36262449D01*
X19383551Y36256199D01*
X19383681Y36256192D01*
X19383804Y36256194D01*
X19706916Y36249944D01*
X19707037Y36249937D01*
X19707146Y36249939D01*
X20017973Y36243689D01*
X20018073Y36243684D01*
X20018176Y36243685D01*
X20318869Y36237435D01*
X20318948Y36237431D01*
X20319045Y36237432D01*
X20611511Y36231182D01*
X20611595Y36231177D01*
X20611656Y36231178D01*
X20897619Y36224928D01*
X20897670Y36224925D01*
X20897734Y36224926D01*
X21178770Y36218676D01*
X21178814Y36218674D01*
X21178853Y36218674D01*
X21456433Y36212424D01*
X21456457Y36212423D01*
X21456484Y36212423D01*
X21732001Y36206173D01*
X21732018Y36206172D01*
X22006789Y36199923D01*
X22006806Y36199923D01*
X22282223Y36193673D01*
X22282225Y36193673D01*
X22559456Y36187426D01*
X22559462Y36187426D01*
X22840141Y36181176D01*
X22840151Y36181176D01*
X23125448Y36174929D01*
X23416802Y36168685D01*
X23416812Y36168685D01*
X23716314Y36162437D01*
X24025428Y36156189D01*
X24025435Y36156189D01*
X24345897Y36149948D01*
X24345904Y36149948D01*
X24680538Y36143703D01*
X24680541Y36143703D01*
X25032003Y36137453D01*
X25032021Y36137452D01*
X25402473Y36131212D01*
X25796357Y36124967D01*
X25796360Y36124967D01*
X26217623Y36118722D01*
X26217631Y36118722D01*
X26671739Y36112472D01*
X26671741Y36112472D01*
X27164145Y36106229D01*
X27403569Y36103456D01*
X27406271Y36331707D01*
X27406279Y36331870D01*
X27406275Y36332032D01*
X27412524Y36815748D01*
X27412532Y36815905D01*
X27412528Y36816070D01*
X27418779Y37262883D01*
X27418787Y37263045D01*
X27418784Y37263193D01*
X27425034Y37679185D01*
X27425041Y37679326D01*
X27425038Y37679483D01*
X27431287Y38069626D01*
X27431295Y38069773D01*
X27431292Y38069910D01*
X27437543Y38438332D01*
X27437550Y38438470D01*
X27437548Y38438596D01*
X27443797Y38788762D01*
X27443803Y38788879D01*
X27443801Y38789008D01*
X27450052Y39123872D01*
X27450058Y39123980D01*
X27450056Y39124093D01*
X27456306Y39446201D01*
X27456311Y39446301D01*
X27456310Y39446396D01*
X27462559Y39757981D01*
X27462564Y39758074D01*
X27462563Y39758152D01*
X27468814Y40061191D01*
X27468818Y40061262D01*
X27468817Y40061330D01*
X27475066Y40357608D01*
X27475069Y40357660D01*
X27475068Y40357722D01*
X27481319Y40648872D01*
X27481321Y40648916D01*
X27481321Y40648952D01*
X27487571Y40936501D01*
X27487572Y40936525D01*
X27487572Y40936549D01*
X27493750Y41218732D01*
X27500000Y52500166D01*
X27500127Y52503368D01*
X27500072Y52506571D01*
X27506321Y52791812D01*
X27512571Y53079008D01*
X27518819Y53369579D01*
X27518819Y53369585D01*
X27525066Y53665006D01*
X27531314Y53966861D01*
X27531314Y53966869D01*
X27537560Y54276830D01*
X27543807Y54596784D01*
X27550053Y54928792D01*
X27550053Y54928798D01*
X27556293Y55274953D01*
X27562544Y55638726D01*
X27562544Y55638737D01*
X27568784Y56022189D01*
X27575035Y56430145D01*
X27575035Y56430152D01*
X27581281Y56866129D01*
X27581281Y56866131D01*
X27587526Y57335736D01*
X27593773Y57845459D01*
X27596660Y58103447D01*
X27349684Y58106270D01*
X27349536Y58106277D01*
X27349369Y58106273D01*
X26848520Y58112523D01*
X26848365Y58112531D01*
X26848210Y58112527D01*
X26385591Y58118777D01*
X26385430Y58118785D01*
X26385291Y58118782D01*
X25954605Y58125032D01*
X25954464Y58125039D01*
X25954316Y58125036D01*
X25550412Y58131286D01*
X25550279Y58131293D01*
X25550138Y58131290D01*
X25168743Y58137540D01*
X25168606Y58137547D01*
X25168487Y58137545D01*
X24806012Y58143795D01*
X24805895Y58143801D01*
X24805775Y58143799D01*
X24459161Y58150049D01*
X24459053Y58150055D01*
X24458947Y58150053D01*
X24125557Y58156303D01*
X24125470Y58156308D01*
X24125367Y58156306D01*
X23802891Y58162556D01*
X23802798Y58162561D01*
X23802726Y58162560D01*
X23489116Y58168810D01*
X23489057Y58168813D01*
X23488980Y58168812D01*
X23182387Y58175062D01*
X23182323Y58175065D01*
X23182279Y58175065D01*
X22881012Y58181315D01*
X22880981Y58181316D01*
X22880934Y58181316D01*
X22583416Y58187566D01*
X22583392Y58187567D01*
X22583368Y58187567D01*
X22288105Y58193817D01*
X22288088Y58193818D01*
X22288087Y58193818D01*
X21993666Y58200067D01*
X21993647Y58200067D01*
X21698625Y58206316D01*
X21698623Y58206316D01*
X21401512Y58212566D01*
X21401499Y58212566D01*
X21100967Y58218815D01*
X21100965Y58218815D01*
X20795560Y58225060D01*
X20795551Y58225060D01*
X20483248Y58231310D01*
X20483247Y58231310D01*
X20162894Y58237553D01*
X20162882Y58237553D01*
X19831849Y58243803D01*
X19831831Y58243804D01*
X19488605Y58250049D01*
X19130641Y58256291D01*
X19130623Y58256291D01*
X18754542Y58262541D01*
X18754539Y58262541D01*
X18357810Y58268787D01*
X18357808Y58268787D01*
X17936379Y58275032D01*
X17485861Y58281276D01*
X17000564Y58287521D01*
X17000561Y58287521D01*
X16473391Y58293771D01*
X16473383Y58293771D01*
X16196668Y58296768D01*
X16193732Y58031067D01*
X16193725Y58030908D01*
X16193728Y58030763D01*
X16187478Y57512779D01*
X16187471Y57512626D01*
X16187474Y57512481D01*
X16181225Y57034056D01*
X16181218Y57033909D01*
X16181221Y57033764D01*
X16174970Y56588384D01*
X16174963Y56588245D01*
X16174966Y56588105D01*
X16168716Y56170440D01*
X16168709Y56170308D01*
X16168712Y56170176D01*
X16162463Y55775809D01*
X16162457Y55775684D01*
X16162459Y55775559D01*
X16156208Y55400774D01*
X16156202Y55400658D01*
X16156204Y55400546D01*
X16149955Y55042183D01*
X16149950Y55042087D01*
X16149952Y55041973D01*
X16143701Y54697301D01*
X16143696Y54697201D01*
X16143697Y54697118D01*
X16137447Y54363750D01*
X16137443Y54363670D01*
X16137444Y54363591D01*
X16131195Y54039409D01*
X16131192Y54039349D01*
X16131193Y54039275D01*
X16124942Y53722367D01*
X16124939Y53722316D01*
X16124940Y53722264D01*
X16118691Y53410882D01*
X16118689Y53410837D01*
X16118689Y53410804D01*
X16112438Y53103317D01*
X16112437Y53103293D01*
X16112437Y53103271D01*
X16106249Y52801130D01*
X16100001Y41499834D01*
X16099882Y41496844D01*
X16099938Y41493851D01*
X16093688Y41189005D01*
X16093688Y41189002D01*
X16087440Y40882086D01*
X16081192Y40571599D01*
X16081191Y40571599D01*
X16074944Y40255974D01*
X16074944Y40255961D01*
X16068697Y39933497D01*
X16068697Y39933495D01*
X16062450Y39602394D01*
X16056201Y39260469D01*
X16049957Y38906105D01*
X16049957Y38906101D01*
X16043712Y38536188D01*
X16043711Y38536188D01*
X16037465Y38148052D01*
X16031219Y37738352D01*
X16024974Y37303154D01*
X16024974Y37303153D01*
X16018727Y36837773D01*
X16018727Y36837770D01*
X16012477Y36336245D01*
X16006233Y35792531D01*
X16003131Y35496776D01*
X16287557Y35493733D01*
X16287701Y35493726D01*
X16287853Y35493730D01*
X16822969Y35487480D01*
X16823120Y35487473D01*
X16823259Y35487476D01*
X17317490Y35481226D01*
X17317635Y35481219D01*
X17317771Y35481222D01*
X17777846Y35474972D01*
X17777972Y35474966D01*
X17778117Y35474969D01*
X18209540Y35468719D01*
X18209671Y35468712D01*
X18209797Y35468715D01*
X18617139Y35462465D01*
X18617262Y35462459D01*
X18617379Y35462461D01*
X19004473Y35456211D01*
X19004589Y35456205D01*
X19004695Y35456207D01*
X19374810Y35449957D01*
X19374905Y35449952D01*
X19375011Y35449954D01*
X19730965Y35443704D01*
X19731052Y35443700D01*
X19731144Y35443701D01*
X20075403Y35437451D01*
X20075483Y35437447D01*
X20075557Y35437448D01*
X20410312Y35431198D01*
X20410384Y35431194D01*
X20410441Y35431195D01*
X20737663Y35424945D01*
X20737715Y35424942D01*
X20737765Y35424943D01*
X21059262Y35418693D01*
X21059294Y35418692D01*
X21059336Y35418692D01*
X21376793Y35412442D01*
X21376817Y35412441D01*
X21376838Y35412441D01*
X21691847Y35406191D01*
X21691852Y35406191D01*
X21691864Y35406191D01*
X22005968Y35399941D01*
X22005973Y35399941D01*
X22320628Y35393692D01*
X22320634Y35393692D01*
X22637493Y35387442D01*
X22637501Y35387442D01*
X22957880Y35381195D01*
X22957884Y35381195D01*
X23283764Y35374945D01*
X23283771Y35374945D01*
X23616421Y35368700D01*
X23616428Y35368700D01*
X23958278Y35362450D01*
X24310923Y35356203D01*
X24310929Y35356203D01*
X24676576Y35349960D01*
X24676586Y35349960D01*
X25058251Y35343714D01*
X25058257Y35343714D01*
X25458957Y35337464D01*
X25458972Y35337464D01*
X25881388Y35331221D01*
X25881392Y35331221D01*
X26330352Y35324975D01*
X26330359Y35324975D01*
X26810725Y35318725D01*
X26810734Y35318725D01*
X27327777Y35312478D01*
X27327781Y35312478D01*
X27888857Y35306232D01*
X28203124Y35303036D01*
X28206266Y35606187D01*
X28206273Y35606329D01*
X28206269Y35606473D01*
X28212518Y36158724D01*
X28212525Y36158874D01*
X28212522Y36159006D01*
X28218772Y36669042D01*
X28218778Y36669173D01*
X28218775Y36669315D01*
X28225025Y37144084D01*
X28225032Y37144221D01*
X28225029Y37144347D01*
X28231280Y37589532D01*
X28231286Y37589649D01*
X28231283Y37589780D01*
X28237533Y38010094D01*
X28237539Y38010217D01*
X28237537Y38010328D01*
X28243787Y38409731D01*
X28243792Y38409833D01*
X28243790Y38409946D01*
X28250040Y38791811D01*
X28250045Y38791906D01*
X28250043Y38792006D01*
X28256292Y39159241D01*
X28256296Y39159329D01*
X28256295Y39159416D01*
X28262546Y39514567D01*
X28262550Y39514647D01*
X28262549Y39514717D01*
X28268799Y39860043D01*
X28268802Y39860102D01*
X28268801Y39860168D01*
X28275051Y40197706D01*
X28275053Y40197758D01*
X28275053Y40197805D01*
X28281303Y40529417D01*
X28281305Y40529462D01*
X28281305Y40529489D01*
X28287554Y40856913D01*
X28287555Y40856938D01*
X28287555Y40856959D01*
X28293752Y41179081D01*
X28300000Y47000322D01*
X28306250Y52824866D01*
X28306359Y52827579D01*
X28306305Y52830282D01*
X28312555Y53157012D01*
X28312555Y53157018D01*
X28318803Y53487469D01*
X28325052Y53823374D01*
X28325052Y53823377D01*
X28331300Y54166503D01*
X28337547Y54518782D01*
X28343794Y54882326D01*
X28343794Y54882328D01*
X28350040Y55259488D01*
X28350040Y55259494D01*
X28356284Y55652710D01*
X28362534Y56065719D01*
X28362534Y56065729D01*
X28368777Y56501143D01*
X28375027Y56964141D01*
X28375027Y56964148D01*
X28381273Y57458938D01*
X28381273Y57458941D01*
X28387520Y57991806D01*
X28393768Y58570102D01*
X28397053Y58903029D01*
X28075175Y58906265D01*
X28075035Y58906271D01*
X28074897Y58906268D01*
X27505513Y58912518D01*
X27505378Y58912524D01*
X27505240Y58912521D01*
X26979399Y58918771D01*
X26979269Y58918777D01*
X26979134Y58918774D01*
X26489671Y58925024D01*
X26489535Y58925031D01*
X26489416Y58925028D01*
X26030470Y58931278D01*
X26030354Y58931284D01*
X26030228Y58931281D01*
X25596941Y58937531D01*
X25596819Y58937537D01*
X25596714Y58937535D01*
X25185002Y58943785D01*
X25184900Y58943790D01*
X25184793Y58943788D01*
X24791178Y58950038D01*
X24791084Y58950043D01*
X24790989Y58950041D01*
X24412471Y58956291D01*
X24412384Y58956295D01*
X24412302Y58956294D01*
X24046259Y58962544D01*
X24046193Y58962547D01*
X24046114Y58962546D01*
X23690215Y58968796D01*
X23690156Y58968799D01*
X23690094Y58968798D01*
X23342242Y58975048D01*
X23342190Y58975050D01*
X23342145Y58975050D01*
X23000417Y58981300D01*
X23000385Y58981301D01*
X23000347Y58981301D01*
X22662954Y58987551D01*
X22662929Y58987552D01*
X22662910Y58987552D01*
X22328155Y58993802D01*
X22328137Y58993803D01*
X21994383Y59000053D01*
X21979360Y59000925D01*
X21976462Y59000925D01*
X21974786Y59001190D01*
X21970867Y59001418D01*
X21950442Y59005046D01*
X21929966Y59008289D01*
X21927291Y59009158D01*
X21924517Y59009651D01*
X21904912Y59016429D01*
X21885195Y59022836D01*
X21882687Y59024114D01*
X21880026Y59025034D01*
X21861733Y59034790D01*
X21843250Y59044208D01*
X21840972Y59045863D01*
X21838488Y59047188D01*
X21821946Y59059686D01*
X21805166Y59071878D01*
X21803175Y59073869D01*
X21800929Y59075566D01*
X21786540Y59090504D01*
X21771878Y59105166D01*
X21770225Y59107442D01*
X21768270Y59109471D01*
X21756397Y59126474D01*
X21744208Y59143250D01*
X21742930Y59145759D01*
X21741318Y59148067D01*
X21732250Y59166720D01*
X21722836Y59185195D01*
X21721967Y59187870D01*
X21720735Y59190404D01*
X21714697Y59210247D01*
X21708289Y59229966D01*
X21707849Y59232747D01*
X21707029Y59235440D01*
X21704171Y59255970D01*
X21700925Y59276462D01*
X21700771Y59280387D01*
X21700537Y59282066D01*
X21700592Y59284957D01*
X21700000Y59300000D01*
X21700000Y60293655D01*
X21623212Y60290871D01*
X21435076Y60279492D01*
X21247269Y60263571D01*
X21059956Y60243123D01*
X20873107Y60218145D01*
X20686999Y60188672D01*
X20501602Y60154700D01*
X20317104Y60116265D01*
X20133544Y60073373D01*
X19951163Y60026082D01*
X19769932Y59974385D01*
X19589957Y59918310D01*
X19411440Y59857921D01*
X19231020Y59791988D01*
X19208594Y59784777D01*
X19162395Y59775735D01*
X19115351Y59774031D01*
X19068618Y59779707D01*
X19023351Y59792624D01*
X18980659Y59812464D01*
X18941598Y59838737D01*
X18907127Y59870798D01*
X18878097Y59907855D01*
X18855221Y59948999D01*
X18839062Y59993215D01*
X18830020Y60039414D01*
X18828316Y60086458D01*
X18833992Y60133191D01*
X18846909Y60178458D01*
X18866749Y60221150D01*
X18893022Y60260211D01*
X18925083Y60294682D01*
X18962140Y60323712D01*
X19003284Y60346588D01*
X19025074Y60355536D01*
X19208900Y60422714D01*
X19212357Y60423825D01*
X19215740Y60425120D01*
X19401135Y60487836D01*
X19404603Y60488859D01*
X19408028Y60490076D01*
X19594884Y60548295D01*
X19598390Y60549237D01*
X19601830Y60550367D01*
X19790039Y60604055D01*
X19793565Y60604912D01*
X19797034Y60605959D01*
X19986484Y60655083D01*
X19990016Y60655852D01*
X19993521Y60656818D01*
X20184103Y60701351D01*
X20187667Y60702037D01*
X20191182Y60702915D01*
X20382785Y60742830D01*
X20386364Y60743429D01*
X20389897Y60744222D01*
X20582408Y60779497D01*
X20586005Y60780011D01*
X20589554Y60780717D01*
X20782861Y60811330D01*
X20786453Y60811754D01*
X20790035Y60812378D01*
X20984025Y60838311D01*
X20987645Y60838650D01*
X20991220Y60839184D01*
X21185780Y60860423D01*
X21189389Y60860674D01*
X21192995Y60861123D01*
X21388011Y60877655D01*
X21391633Y60877819D01*
X21395240Y60878180D01*
X21590599Y60889996D01*
X21594228Y60890072D01*
X21597840Y60890346D01*
X21793429Y60897438D01*
X21797057Y60897427D01*
X21800674Y60897613D01*
X21996375Y60899978D01*
X22019922Y60899338D01*
G37*
%TD.AperFunction*%
%TD*%
D11*
%TO.P,J2,1*%
%TO.N,/+5V_ISO*%
X24500000Y8000000D03*
D12*
%TO.P,J2,2*%
%TO.N,/GND_ISO*%
X19500000Y8000000D03*
%TD*%
D11*
%TO.P,J1,1*%
%TO.N,/VIN_RAW*%
X19500000Y87000000D03*
D12*
%TO.P,J1,2*%
%TO.N,/PGND*%
X24500000Y87000000D03*
%TD*%
D13*
%TO.P,T1,1*%
%TO.N,/VIN*%
X24871953Y60073763D03*
%TO.P,T1,2*%
%TO.N,/SW*%
X19128047Y60073763D03*
%TO.P,T1,3*%
%TO.N,/GND_ISO*%
X20540116Y33532645D03*
%TO.P,T1,4*%
%TO.N,/SEC_A*%
X22775000Y37270417D03*
%TO.P,T1,5*%
%TO.N,unconnected-(T1-P_MID-Pad5)*%
X22000000Y56800000D03*
%TD*%
D14*
%TO.N,/GND_ISO*%
X31000000Y17037500D03*
X20200000Y18500000D03*
D15*
X12000000Y29000000D03*
X9000000Y29000000D03*
X33000000Y14000000D03*
X13000000Y7000000D03*
X33000000Y29000000D03*
X34500000Y22000000D03*
X17500000Y14200000D03*
X21000000Y22000000D03*
X22000000Y5500000D03*
X9000000Y22000000D03*
X33000000Y25000000D03*
D14*
X10200000Y18500000D03*
D15*
X14000000Y25000000D03*
D16*
X30200000Y23000000D03*
D15*
X29000000Y14000000D03*
D14*
X20169595Y30500000D03*
D15*
X16000000Y29000000D03*
X22000000Y11000000D03*
D14*
X29975000Y25880000D03*
D15*
X34000000Y9000000D03*
D14*
X19269595Y30500000D03*
D15*
X14000000Y14000000D03*
X29000000Y7000000D03*
X9000000Y14000000D03*
%TO.N,/PGND*%
X8500000Y73500000D03*
X7500000Y87000000D03*
X7500000Y63600000D03*
D16*
X14400000Y64350000D03*
D15*
X10898500Y66095000D03*
X26000000Y69475000D03*
X14300000Y68550000D03*
X7000000Y75000000D03*
X6500000Y72000000D03*
X36000000Y64000000D03*
X25000000Y73000000D03*
X13000000Y64500000D03*
X12700000Y67450000D03*
X35000000Y73000000D03*
X22000000Y77000000D03*
X6500000Y63000000D03*
X36200000Y78000000D03*
X36000000Y69000000D03*
X37000000Y73000000D03*
X12700000Y68550000D03*
X6025000Y66365000D03*
X6500000Y84000000D03*
X34000000Y64000000D03*
X7725000Y68800000D03*
X14300000Y67450000D03*
X36500000Y85000000D03*
X21000000Y74500000D03*
X19475000Y69200000D03*
X16325000Y76000000D03*
D14*
%TO.N,/SEC_A*%
X22550000Y29862000D03*
X23450000Y29862000D03*
D15*
%TO.N,/VIN*%
X11675000Y76000000D03*
D17*
X8975000Y66365000D03*
X10000000Y80150000D03*
X26000000Y66525000D03*
%TD*%
%TA.AperFunction,Conductor*%
%TO.N,/PGND*%
G36*
X36109280Y88981093D02*
G01*
X36145244Y88931593D01*
X36148187Y88920314D01*
X36197431Y88672746D01*
X36294414Y88353033D01*
X36422273Y88044355D01*
X36422286Y88044328D01*
X36579773Y87749688D01*
X36695965Y87575797D01*
X36765399Y87471882D01*
X36977357Y87213610D01*
X37213610Y86977357D01*
X37471882Y86765399D01*
X37646462Y86648748D01*
X37749677Y86579781D01*
X37749690Y86579773D01*
X37811310Y86546837D01*
X37947669Y86473952D01*
X37990075Y86429848D01*
X38000000Y86386643D01*
X38000000Y62599000D01*
X37981093Y62540809D01*
X37931593Y62504845D01*
X37901000Y62500000D01*
X5599000Y62500000D01*
X5540809Y62518907D01*
X5504845Y62568407D01*
X5500000Y62599000D01*
X5500000Y66429069D01*
X8324500Y66429069D01*
X8324500Y66300931D01*
X8341220Y66216875D01*
X8349499Y66175258D01*
X8349500Y66175253D01*
X8398534Y66056875D01*
X8398538Y66056867D01*
X8423354Y66019728D01*
X8469724Y65950331D01*
X8560331Y65859724D01*
X8623848Y65817283D01*
X8666866Y65788539D01*
X8666870Y65788537D01*
X8666873Y65788535D01*
X8785256Y65739499D01*
X8910931Y65714500D01*
X8910932Y65714500D01*
X9039068Y65714500D01*
X9039069Y65714500D01*
X9164744Y65739499D01*
X9283127Y65788535D01*
X9389669Y65859724D01*
X9480276Y65950331D01*
X9551465Y66056873D01*
X9600501Y66175256D01*
X9625500Y66300931D01*
X9625500Y66429069D01*
X9600501Y66554744D01*
X9586283Y66589070D01*
X25349500Y66589070D01*
X25349500Y66460931D01*
X25374499Y66335258D01*
X25374500Y66335253D01*
X25423534Y66216875D01*
X25423538Y66216867D01*
X25466365Y66152774D01*
X25494724Y66110331D01*
X25585331Y66019724D01*
X25648848Y65977283D01*
X25691866Y65948539D01*
X25691870Y65948537D01*
X25691873Y65948535D01*
X25810256Y65899499D01*
X25935931Y65874500D01*
X25935932Y65874500D01*
X26064068Y65874500D01*
X26064069Y65874500D01*
X26189744Y65899499D01*
X26308127Y65948535D01*
X26414669Y66019724D01*
X26505276Y66110331D01*
X26576465Y66216873D01*
X26625501Y66335256D01*
X26650500Y66460931D01*
X26650500Y66589069D01*
X26625501Y66714744D01*
X26576465Y66833127D01*
X26576463Y66833130D01*
X26576461Y66833134D01*
X26547717Y66876152D01*
X26505276Y66939669D01*
X26414669Y67030276D01*
X26372226Y67058635D01*
X26308133Y67101462D01*
X26308125Y67101466D01*
X26189747Y67150500D01*
X26189745Y67150501D01*
X26189744Y67150501D01*
X26064069Y67175500D01*
X25935931Y67175500D01*
X25935930Y67175500D01*
X25873093Y67163001D01*
X25810256Y67150501D01*
X25810255Y67150501D01*
X25810252Y67150500D01*
X25691874Y67101466D01*
X25691866Y67101462D01*
X25585331Y67030276D01*
X25585327Y67030273D01*
X25494727Y66939673D01*
X25494724Y66939669D01*
X25423538Y66833134D01*
X25423534Y66833126D01*
X25374500Y66714748D01*
X25374499Y66714745D01*
X25374499Y66714744D01*
X25361999Y66651907D01*
X25349500Y66589070D01*
X9586283Y66589070D01*
X9551465Y66673127D01*
X9551463Y66673130D01*
X9551461Y66673134D01*
X9522717Y66716152D01*
X9480276Y66779669D01*
X9389669Y66870276D01*
X9347226Y66898635D01*
X9283133Y66941462D01*
X9283125Y66941466D01*
X9164747Y66990500D01*
X9164745Y66990501D01*
X9164744Y66990501D01*
X9039069Y67015500D01*
X8910931Y67015500D01*
X8910930Y67015500D01*
X8848093Y67003001D01*
X8785256Y66990501D01*
X8785255Y66990501D01*
X8785252Y66990500D01*
X8666874Y66941466D01*
X8666866Y66941462D01*
X8560331Y66870276D01*
X8560327Y66870273D01*
X8469727Y66779673D01*
X8469724Y66779669D01*
X8398538Y66673134D01*
X8398534Y66673126D01*
X8349500Y66554748D01*
X8349499Y66554745D01*
X8349499Y66554744D01*
X8324500Y66429069D01*
X5500000Y66429069D01*
X5500000Y76072475D01*
X11124500Y76072475D01*
X11124500Y75927526D01*
X11162017Y75787511D01*
X11234487Y75661990D01*
X11234489Y75661988D01*
X11234491Y75661985D01*
X11336985Y75559491D01*
X11336987Y75559490D01*
X11336989Y75559488D01*
X11462511Y75487018D01*
X11462512Y75487018D01*
X11462515Y75487016D01*
X11602525Y75449500D01*
X11602526Y75449500D01*
X11747474Y75449500D01*
X11747475Y75449500D01*
X11887485Y75487016D01*
X11887487Y75487018D01*
X11887489Y75487018D01*
X12013010Y75559488D01*
X12013010Y75559489D01*
X12013015Y75559491D01*
X12115509Y75661985D01*
X12187984Y75787515D01*
X12225500Y75927525D01*
X12225500Y76072475D01*
X12187984Y76212485D01*
X12187982Y76212488D01*
X12187982Y76212490D01*
X12115512Y76338011D01*
X12115510Y76338013D01*
X12115509Y76338015D01*
X12013015Y76440509D01*
X12013012Y76440511D01*
X12013010Y76440513D01*
X11887488Y76512983D01*
X11887489Y76512983D01*
X11857896Y76520913D01*
X11747475Y76550500D01*
X11602525Y76550500D01*
X11540790Y76533959D01*
X11462510Y76512983D01*
X11336989Y76440513D01*
X11234487Y76338011D01*
X11162017Y76212490D01*
X11124500Y76072475D01*
X5500000Y76072475D01*
X5500000Y80214070D01*
X9349500Y80214070D01*
X9349500Y80085931D01*
X9374499Y79960258D01*
X9374500Y79960253D01*
X9423534Y79841875D01*
X9423538Y79841867D01*
X9466365Y79777774D01*
X9494724Y79735331D01*
X9585331Y79644724D01*
X9648848Y79602283D01*
X9691866Y79573539D01*
X9691870Y79573537D01*
X9691873Y79573535D01*
X9810256Y79524499D01*
X9935931Y79499500D01*
X9935932Y79499500D01*
X10064068Y79499500D01*
X10064069Y79499500D01*
X10189744Y79524499D01*
X10308127Y79573535D01*
X10414669Y79644724D01*
X10505276Y79735331D01*
X10576465Y79841873D01*
X10625501Y79960256D01*
X10650500Y80085931D01*
X10650500Y80214069D01*
X10625501Y80339744D01*
X10576465Y80458127D01*
X10576463Y80458130D01*
X10576461Y80458134D01*
X10547717Y80501152D01*
X10505276Y80564669D01*
X10414669Y80655276D01*
X10372226Y80683635D01*
X10308133Y80726462D01*
X10308125Y80726466D01*
X10189747Y80775500D01*
X10189745Y80775501D01*
X10189744Y80775501D01*
X10064069Y80800500D01*
X9935931Y80800500D01*
X9935930Y80800500D01*
X9873093Y80788001D01*
X9810256Y80775501D01*
X9810255Y80775501D01*
X9810252Y80775500D01*
X9691874Y80726466D01*
X9691866Y80726462D01*
X9585331Y80655276D01*
X9585327Y80655273D01*
X9494727Y80564673D01*
X9494724Y80564669D01*
X9423538Y80458134D01*
X9423534Y80458126D01*
X9374500Y80339748D01*
X9374499Y80339743D01*
X9349500Y80214070D01*
X5500000Y80214070D01*
X5500000Y86176411D01*
X5518907Y86234602D01*
X5568407Y86270566D01*
X5570122Y86271105D01*
X5646976Y86294418D01*
X5955654Y86422277D01*
X6099640Y86499240D01*
X6250312Y86579774D01*
X6250322Y86579781D01*
X6528118Y86765399D01*
X6786390Y86977357D01*
X7022643Y87213610D01*
X7234601Y87471882D01*
X7420224Y87749685D01*
X7439729Y87786175D01*
X7577713Y88044328D01*
X7577723Y88044346D01*
X7652417Y88224673D01*
X18049500Y88224673D01*
X18049500Y85775328D01*
X18049501Y85775316D01*
X18064033Y85702264D01*
X18064035Y85702258D01*
X18119397Y85619401D01*
X18119399Y85619399D01*
X18202260Y85564034D01*
X18257808Y85552985D01*
X18275315Y85549502D01*
X18275320Y85549502D01*
X18275326Y85549500D01*
X18275327Y85549500D01*
X20724673Y85549500D01*
X20724674Y85549500D01*
X20797740Y85564034D01*
X20880601Y85619399D01*
X20935966Y85702260D01*
X20950500Y85775326D01*
X20950500Y87118057D01*
X23000000Y87118057D01*
X23000000Y86881944D01*
X23036934Y86648748D01*
X23036935Y86648744D01*
X23109892Y86424207D01*
X23109894Y86424204D01*
X23217084Y86213831D01*
X23277339Y86130895D01*
X23898957Y86752514D01*
X23923978Y86692110D01*
X23995112Y86585649D01*
X24085649Y86495112D01*
X24192110Y86423978D01*
X24252511Y86398959D01*
X23630893Y85777341D01*
X23713825Y85717087D01*
X23713829Y85717085D01*
X23924203Y85609895D01*
X23924206Y85609893D01*
X24148743Y85536936D01*
X24148747Y85536935D01*
X24381944Y85500000D01*
X24618056Y85500000D01*
X24851252Y85536935D01*
X24851256Y85536936D01*
X25075793Y85609893D01*
X25075796Y85609895D01*
X25286170Y85717085D01*
X25286176Y85717089D01*
X25369105Y85777341D01*
X25369105Y85777342D01*
X24747488Y86398959D01*
X24807890Y86423978D01*
X24914351Y86495112D01*
X25004888Y86585649D01*
X25076022Y86692110D01*
X25101041Y86752512D01*
X25722658Y86130895D01*
X25722659Y86130895D01*
X25782911Y86213824D01*
X25782915Y86213830D01*
X25890105Y86424204D01*
X25890107Y86424207D01*
X25963064Y86648744D01*
X25963065Y86648748D01*
X26000000Y86881944D01*
X26000000Y87118057D01*
X25963065Y87351253D01*
X25963064Y87351257D01*
X25890107Y87575794D01*
X25890105Y87575797D01*
X25782915Y87786171D01*
X25782913Y87786175D01*
X25722659Y87869107D01*
X25101041Y87247489D01*
X25076022Y87307890D01*
X25004888Y87414351D01*
X24914351Y87504888D01*
X24807890Y87576022D01*
X24747486Y87601043D01*
X25369105Y88222661D01*
X25286169Y88282916D01*
X25075796Y88390106D01*
X25075793Y88390108D01*
X24851256Y88463065D01*
X24851252Y88463066D01*
X24618056Y88500000D01*
X24381944Y88500000D01*
X24148747Y88463066D01*
X24148743Y88463065D01*
X23924206Y88390108D01*
X23924203Y88390106D01*
X23713823Y88282912D01*
X23630893Y88222661D01*
X24252512Y87601042D01*
X24192110Y87576022D01*
X24085649Y87504888D01*
X23995112Y87414351D01*
X23923978Y87307890D01*
X23898958Y87247488D01*
X23277339Y87869107D01*
X23217088Y87786177D01*
X23109894Y87575797D01*
X23109892Y87575794D01*
X23036935Y87351257D01*
X23036934Y87351253D01*
X23000000Y87118057D01*
X20950500Y87118057D01*
X20950500Y88224674D01*
X20935966Y88297740D01*
X20880601Y88380601D01*
X20880599Y88380603D01*
X20797742Y88435965D01*
X20797740Y88435966D01*
X20797737Y88435967D01*
X20797736Y88435967D01*
X20724684Y88450499D01*
X20724674Y88450500D01*
X18275326Y88450500D01*
X18275325Y88450500D01*
X18275315Y88450499D01*
X18202263Y88435967D01*
X18202257Y88435965D01*
X18119400Y88380603D01*
X18119397Y88380600D01*
X18064035Y88297743D01*
X18064033Y88297737D01*
X18049501Y88224685D01*
X18049500Y88224673D01*
X7652417Y88224673D01*
X7705582Y88353024D01*
X7713948Y88380601D01*
X7802568Y88672746D01*
X7851813Y88920314D01*
X7881710Y88973698D01*
X7937275Y88999314D01*
X7948911Y89000000D01*
X36051089Y89000000D01*
X36109280Y88981093D01*
G37*
%TD.AperFunction*%
%TD*%
%TA.AperFunction,Conductor*%
%TO.N,/GND_ISO*%
G36*
X35959191Y30981093D02*
G01*
X35995155Y30931593D01*
X36000000Y30901000D01*
X36000000Y5099000D01*
X35981093Y5040809D01*
X35931593Y5004845D01*
X35901000Y5000000D01*
X8099000Y5000000D01*
X8040809Y5018907D01*
X8004845Y5068407D01*
X8000000Y5099000D01*
X8000000Y8118057D01*
X18000000Y8118057D01*
X18000000Y7881944D01*
X18036934Y7648748D01*
X18036935Y7648744D01*
X18109892Y7424207D01*
X18109894Y7424204D01*
X18217084Y7213831D01*
X18277339Y7130895D01*
X18898957Y7752514D01*
X18923978Y7692110D01*
X18995112Y7585649D01*
X19085649Y7495112D01*
X19192110Y7423978D01*
X19252511Y7398959D01*
X18630893Y6777341D01*
X18713825Y6717087D01*
X18713829Y6717085D01*
X18924203Y6609895D01*
X18924206Y6609893D01*
X19148743Y6536936D01*
X19148747Y6536935D01*
X19381944Y6500000D01*
X19618056Y6500000D01*
X19851252Y6536935D01*
X19851256Y6536936D01*
X20075793Y6609893D01*
X20075796Y6609895D01*
X20286170Y6717085D01*
X20286176Y6717089D01*
X20369105Y6777341D01*
X20369105Y6777342D01*
X19747488Y7398959D01*
X19807890Y7423978D01*
X19914351Y7495112D01*
X20004888Y7585649D01*
X20076022Y7692110D01*
X20101041Y7752512D01*
X20722658Y7130895D01*
X20722659Y7130895D01*
X20782911Y7213824D01*
X20782915Y7213830D01*
X20890105Y7424204D01*
X20890107Y7424207D01*
X20963064Y7648744D01*
X20963065Y7648748D01*
X21000000Y7881944D01*
X21000000Y8118057D01*
X20963065Y8351253D01*
X20963064Y8351257D01*
X20890107Y8575794D01*
X20890105Y8575797D01*
X20782915Y8786171D01*
X20782913Y8786175D01*
X20722659Y8869107D01*
X20101041Y8247489D01*
X20076022Y8307890D01*
X20004888Y8414351D01*
X19914351Y8504888D01*
X19807890Y8576022D01*
X19747486Y8601043D01*
X20369105Y9222661D01*
X20366336Y9224673D01*
X23049500Y9224673D01*
X23049500Y6775328D01*
X23049501Y6775316D01*
X23064033Y6702264D01*
X23064035Y6702258D01*
X23119397Y6619401D01*
X23119399Y6619399D01*
X23202260Y6564034D01*
X23257808Y6552985D01*
X23275315Y6549502D01*
X23275320Y6549502D01*
X23275326Y6549500D01*
X23275327Y6549500D01*
X25724673Y6549500D01*
X25724674Y6549500D01*
X25797740Y6564034D01*
X25880601Y6619399D01*
X25935966Y6702260D01*
X25950500Y6775326D01*
X25950500Y9224674D01*
X25935966Y9297740D01*
X25880601Y9380601D01*
X25880599Y9380603D01*
X25797742Y9435965D01*
X25797740Y9435966D01*
X25797737Y9435967D01*
X25797736Y9435967D01*
X25724684Y9450499D01*
X25724674Y9450500D01*
X23275326Y9450500D01*
X23275325Y9450500D01*
X23275315Y9450499D01*
X23202263Y9435967D01*
X23202257Y9435965D01*
X23119400Y9380603D01*
X23119397Y9380600D01*
X23064035Y9297743D01*
X23064033Y9297737D01*
X23049501Y9224685D01*
X23049500Y9224673D01*
X20366336Y9224673D01*
X20286169Y9282916D01*
X20075796Y9390106D01*
X20075793Y9390108D01*
X19851256Y9463065D01*
X19851252Y9463066D01*
X19618056Y9500000D01*
X19381944Y9500000D01*
X19148747Y9463066D01*
X19148743Y9463065D01*
X18924206Y9390108D01*
X18924203Y9390106D01*
X18713823Y9282912D01*
X18630893Y9222661D01*
X19252512Y8601042D01*
X19192110Y8576022D01*
X19085649Y8504888D01*
X18995112Y8414351D01*
X18923978Y8307890D01*
X18898958Y8247488D01*
X18277339Y8869107D01*
X18217088Y8786177D01*
X18109894Y8575797D01*
X18109892Y8575794D01*
X18036935Y8351257D01*
X18036934Y8351253D01*
X18000000Y8118057D01*
X8000000Y8118057D01*
X8000000Y29930996D01*
X21849500Y29930996D01*
X21849500Y29793005D01*
X21876420Y29657673D01*
X21876420Y29657671D01*
X21929222Y29530194D01*
X21929228Y29530183D01*
X22005885Y29415459D01*
X22103458Y29317886D01*
X22218182Y29241229D01*
X22218193Y29241223D01*
X22265283Y29221718D01*
X22345672Y29188420D01*
X22481007Y29161500D01*
X22481008Y29161500D01*
X22618992Y29161500D01*
X22618993Y29161500D01*
X22754328Y29188420D01*
X22881811Y29241225D01*
X22945000Y29283447D01*
X23003885Y29300055D01*
X23054999Y29283448D01*
X23105630Y29249617D01*
X23118187Y29241226D01*
X23118193Y29241223D01*
X23165283Y29221718D01*
X23245672Y29188420D01*
X23381007Y29161500D01*
X23381008Y29161500D01*
X23518992Y29161500D01*
X23518993Y29161500D01*
X23654328Y29188420D01*
X23781811Y29241225D01*
X23896542Y29317886D01*
X23994114Y29415458D01*
X24070775Y29530189D01*
X24123580Y29657672D01*
X24150500Y29793007D01*
X24150500Y29930993D01*
X24123580Y30066328D01*
X24070775Y30193811D01*
X24070774Y30193813D01*
X24070771Y30193818D01*
X23994114Y30308542D01*
X23896541Y30406115D01*
X23781817Y30482772D01*
X23781806Y30482778D01*
X23654328Y30535580D01*
X23518995Y30562500D01*
X23518993Y30562500D01*
X23381007Y30562500D01*
X23381004Y30562500D01*
X23245672Y30535580D01*
X23245670Y30535580D01*
X23118193Y30482778D01*
X23118181Y30482772D01*
X23055002Y30440555D01*
X22996114Y30423946D01*
X22944998Y30440555D01*
X22881818Y30482772D01*
X22881806Y30482778D01*
X22754328Y30535580D01*
X22618995Y30562500D01*
X22618993Y30562500D01*
X22481007Y30562500D01*
X22481004Y30562500D01*
X22345672Y30535580D01*
X22345670Y30535580D01*
X22218193Y30482778D01*
X22218182Y30482772D01*
X22103458Y30406115D01*
X22005885Y30308542D01*
X21929228Y30193818D01*
X21929222Y30193807D01*
X21876420Y30066330D01*
X21876420Y30066328D01*
X21849500Y29930996D01*
X8000000Y29930996D01*
X8000000Y30901000D01*
X8018907Y30959191D01*
X8068407Y30995155D01*
X8099000Y31000000D01*
X35901000Y31000000D01*
X35959191Y30981093D01*
G37*
%TD.AperFunction*%
%TD*%
M02*
