%TF.GenerationSoftware,KiCad,Pcbnew,10.0.6*%
%TF.CreationDate,2026-09-29T21:34:32-04:00*%
%TF.ProjectId,PS-FLYBACK-5W,50532d46-4c59-4424-9143-4b2d35572e6b,A1-development*%
%TF.SameCoordinates,Original*%
%TF.FileFunction,Copper,L2,Inr*%
%TF.FilePolarity,Positive*%
%FSLAX46Y46*%
G04 Gerber Fmt 4.6, Leading zero omitted, Abs format (unit mm)*
G04 Created by KiCad (PCBNEW 10.0.6) date 2026-09-29 21:34:32*
%MOMM*%
%LPD*%
G01*
G04 APERTURE LIST*
%TA.AperFunction,EtchedComponent*%
%ADD10C,0.000000*%
%TD*%
%TA.AperFunction,ComponentPad*%
%ADD11R,2.400000X2.400000*%
%TD*%
%TA.AperFunction,ComponentPad*%
%ADD12C,2.400000*%
%TD*%
%TA.AperFunction,ComponentPad*%
%ADD13C,0.800000*%
%TD*%
%TA.AperFunction,ViaPad*%
%ADD14C,0.600000*%
%TD*%
%TA.AperFunction,ViaPad*%
%ADD15C,0.900000*%
%TD*%
%TA.AperFunction,ViaPad*%
%ADD16C,1.200000*%
%TD*%
%TA.AperFunction,ViaPad*%
%ADD17C,0.800000*%
%TD*%
G04 APERTURE END LIST*
D10*
%TA.AperFunction,EtchedComponent*%
%TO.C,T1*%
G36*
X35573203Y70174456D02*
G01*
X35573256Y70174457D01*
X35573273Y70174455D01*
X35573338Y70174454D01*
X35603387Y70171354D01*
X35629032Y70168714D01*
X35629072Y70168705D01*
X35629113Y70168701D01*
X35656887Y70162635D01*
X35683813Y70156761D01*
X35683850Y70156748D01*
X35683893Y70156739D01*
X35710229Y70147800D01*
X35736912Y70138749D01*
X35736951Y70138730D01*
X35736988Y70138718D01*
X35761165Y70127353D01*
X35787660Y70114906D01*
X35787695Y70114884D01*
X35787732Y70114867D01*
X35810361Y70100943D01*
X35835420Y70085529D01*
X35835448Y70085506D01*
X35835487Y70085483D01*
X35856092Y70069364D01*
X35879590Y70050992D01*
X35879626Y70050956D01*
X35879651Y70050937D01*
X35897430Y70033489D01*
X35919615Y70011725D01*
X35919639Y70011695D01*
X35919671Y70011664D01*
X35938407Y69988616D01*
X35954992Y69968224D01*
X35955013Y69968190D01*
X35955040Y69968158D01*
X35971774Y69942073D01*
X35985277Y69921035D01*
X35985292Y69921004D01*
X35985318Y69920964D01*
X35998801Y69893625D01*
X36010088Y69870753D01*
X36010101Y69870715D01*
X36010120Y69870678D01*
X36020085Y69843034D01*
X36029112Y69818009D01*
X36029120Y69817972D01*
X36029136Y69817930D01*
X36035547Y69791009D01*
X36042112Y69763466D01*
X36042117Y69763420D01*
X36042126Y69763385D01*
X36045174Y69738437D01*
X36048922Y69707810D01*
X36048924Y69707750D01*
X36048927Y69707728D01*
X36048927Y69707660D01*
X36049977Y69679784D01*
X36059347Y68700692D01*
X36059348Y68700685D01*
X36068718Y67804207D01*
X36078088Y66976352D01*
X36087458Y66205825D01*
X36096828Y65483391D01*
X36106198Y64801387D01*
X36115568Y64153378D01*
X36124938Y63533883D01*
X36134308Y62938181D01*
X36134309Y62938173D01*
X36143680Y62362111D01*
X36153051Y61802035D01*
X36153052Y61802027D01*
X36162424Y61254616D01*
X36171797Y60716849D01*
X36181170Y60185915D01*
X36181171Y60185907D01*
X36190546Y59659093D01*
X36190501Y59654799D01*
X36190625Y59650513D01*
X36199997Y44879629D01*
X36209296Y44357791D01*
X36209295Y44357762D01*
X36209297Y44357733D01*
X36218672Y43828146D01*
X36218671Y43828082D01*
X36218673Y43828045D01*
X36228048Y43292383D01*
X36228047Y43292322D01*
X36228051Y43292241D01*
X36237426Y42747787D01*
X36237425Y42747696D01*
X36237429Y42747607D01*
X36246804Y42191476D01*
X36246802Y42191373D01*
X36246808Y42191257D01*
X36256183Y41620337D01*
X36256181Y41620209D01*
X36256187Y41620084D01*
X36265562Y41030953D01*
X36265560Y41030802D01*
X36265566Y41030667D01*
X36274941Y40419518D01*
X36274939Y40419364D01*
X36274946Y40419201D01*
X36284320Y39781723D01*
X36284317Y39781553D01*
X36284325Y39781380D01*
X36293700Y39112629D01*
X36293697Y39112446D01*
X36293705Y39112262D01*
X36303080Y38406498D01*
X36303077Y38406304D01*
X36303085Y38406110D01*
X36312460Y37656572D01*
X36312456Y37656372D01*
X36312465Y37656168D01*
X36321840Y36854800D01*
X36321836Y36854579D01*
X36321844Y36854383D01*
X36331219Y35991455D01*
X36331215Y35991252D01*
X36331224Y35991029D01*
X36340599Y35054637D01*
X36340595Y35054420D01*
X36340603Y35054206D01*
X36349978Y34029575D01*
X36349451Y34001701D01*
X36349452Y34001611D01*
X36349448Y34001582D01*
X36349448Y34001533D01*
X36346562Y33973631D01*
X36343693Y33945837D01*
X36343685Y33945802D01*
X36343681Y33945760D01*
X36337698Y33918400D01*
X36331725Y33891058D01*
X36331711Y33891019D01*
X36331704Y33890984D01*
X36324023Y33868372D01*
X36313700Y33837964D01*
X36313680Y33837922D01*
X36313670Y33837892D01*
X36303317Y33815883D01*
X36289843Y33787223D01*
X36289821Y33787189D01*
X36289806Y33787155D01*
X36276935Y33766251D01*
X36260454Y33739470D01*
X36260424Y33739433D01*
X36260409Y33739407D01*
X36245452Y33720296D01*
X36225904Y33695310D01*
X36225876Y33695282D01*
X36225853Y33695252D01*
X36207778Y33676845D01*
X36186627Y33655295D01*
X36186592Y33655268D01*
X36186569Y33655243D01*
X36165566Y33638177D01*
X36143117Y33619930D01*
X36143086Y33619911D01*
X36143054Y33619884D01*
X36118073Y33603868D01*
X36095919Y33589657D01*
X36095885Y33589641D01*
X36095852Y33589619D01*
X36072005Y33577866D01*
X36045631Y33564860D01*
X36045589Y33564846D01*
X36045559Y33564830D01*
X36017868Y33554856D01*
X35992881Y33545850D01*
X35992851Y33545843D01*
X35992807Y33545827D01*
X35962574Y33538636D01*
X35938335Y33532865D01*
X35938297Y33532861D01*
X35938258Y33532851D01*
X35910204Y33529431D01*
X35882678Y33526069D01*
X35882624Y33526068D01*
X35882600Y33526064D01*
X35882526Y33526064D01*
X35854651Y33525022D01*
X34847433Y33515651D01*
X33925263Y33506281D01*
X33925254Y33506280D01*
X33073269Y33496905D01*
X33073262Y33496906D01*
X32280705Y33487535D01*
X32280703Y33487536D01*
X31537650Y33478166D01*
X30836564Y33468801D01*
X30836541Y33468799D01*
X30169735Y33459424D01*
X30169726Y33459425D01*
X29532941Y33450059D01*
X29532930Y33450058D01*
X28920028Y33440683D01*
X28919998Y33440684D01*
X28327905Y33431317D01*
X28327885Y33431316D01*
X27751940Y33421945D01*
X27751938Y33421944D01*
X27188900Y33412569D01*
X27188883Y33412570D01*
X26635997Y33403197D01*
X26635993Y33403198D01*
X26090217Y33393826D01*
X26090211Y33393825D01*
X25548630Y33384451D01*
X25548614Y33384450D01*
X25500000Y33383606D01*
X25500000Y32275000D01*
X25499213Y32246965D01*
X25498872Y32243947D01*
X25498836Y32240901D01*
X25495732Y32216072D01*
X25492936Y32191247D01*
X25492259Y32188283D01*
X25491882Y32185263D01*
X25486017Y32160934D01*
X25480459Y32136582D01*
X25479455Y32133715D01*
X25478742Y32130754D01*
X25470189Y32107235D01*
X25461940Y32083658D01*
X25460620Y32080920D01*
X25459581Y32078059D01*
X25448451Y32055649D01*
X25437612Y32033141D01*
X25435995Y32030569D01*
X25434641Y32027841D01*
X25421054Y32006791D01*
X25407780Y31985664D01*
X25405889Y31983294D01*
X25404235Y31980730D01*
X25388378Y31961335D01*
X25372821Y31941827D01*
X25370672Y31939679D01*
X25368745Y31937321D01*
X25350827Y31919834D01*
X25333173Y31902179D01*
X25330799Y31900287D01*
X25328619Y31898158D01*
X25308849Y31882782D01*
X25289336Y31867220D01*
X25286764Y31865605D01*
X25284360Y31863734D01*
X25262994Y31850669D01*
X25241859Y31837388D01*
X25239123Y31836071D01*
X25236524Y31834481D01*
X25213842Y31823896D01*
X25191342Y31813060D01*
X25188472Y31812056D01*
X25185715Y31810769D01*
X25162022Y31802801D01*
X25138418Y31794541D01*
X25135449Y31793864D01*
X25132570Y31792895D01*
X25108157Y31787635D01*
X25083753Y31782064D01*
X25080727Y31781724D01*
X25077757Y31781083D01*
X25052878Y31778586D01*
X25028035Y31775787D01*
X25024996Y31775787D01*
X25021967Y31775483D01*
X24993925Y31775037D01*
X24687804Y31778757D01*
X24681741Y31779002D01*
X24675661Y31779052D01*
X24369721Y31790207D01*
X24363661Y31790599D01*
X24357587Y31790797D01*
X24052008Y31809382D01*
X24045955Y31809922D01*
X24039890Y31810267D01*
X23734854Y31836271D01*
X23728811Y31836958D01*
X23722763Y31837450D01*
X23418448Y31870857D01*
X23412430Y31871690D01*
X23406390Y31872329D01*
X23102976Y31913119D01*
X23075296Y31917634D01*
X23020911Y31931279D01*
X22968396Y31950928D01*
X22918411Y31976334D01*
X22871586Y32007176D01*
X22828507Y32043067D01*
X22789719Y32083555D01*
X22755707Y32128133D01*
X22726900Y32176237D01*
X22703660Y32227265D01*
X22686280Y32280573D01*
X22674977Y32335493D01*
X22669895Y32391333D01*
X22671098Y32447390D01*
X22678568Y32502960D01*
X22692213Y32557345D01*
X22711862Y32609860D01*
X22737268Y32659845D01*
X22768110Y32706670D01*
X22804001Y32749749D01*
X22844489Y32788537D01*
X22889067Y32822549D01*
X22937171Y32851356D01*
X22988199Y32874596D01*
X23041507Y32891976D01*
X23096427Y32903279D01*
X23152267Y32908361D01*
X23208324Y32907158D01*
X23236214Y32904203D01*
X23533620Y32864221D01*
X23825841Y32832142D01*
X24118771Y32807170D01*
X24412238Y32789322D01*
X24500000Y32786123D01*
X24500000Y33875000D01*
X24500441Y33890675D01*
X24500376Y33894364D01*
X24500614Y33896865D01*
X24500787Y33903035D01*
X24503440Y33926582D01*
X24505684Y33950183D01*
X24506579Y33954440D01*
X24507064Y33958753D01*
X24512334Y33981842D01*
X24517210Y34005056D01*
X24518575Y34009185D01*
X24519541Y34013418D01*
X24527368Y34035785D01*
X24534808Y34058294D01*
X24536625Y34062241D01*
X24538060Y34066342D01*
X24548346Y34087700D01*
X24558255Y34109225D01*
X24560503Y34112944D01*
X24562388Y34116859D01*
X24574995Y34136923D01*
X24587258Y34157213D01*
X24589910Y34160659D01*
X24592220Y34164336D01*
X24606998Y34182867D01*
X24621451Y34201650D01*
X24624469Y34204775D01*
X24627179Y34208173D01*
X24643941Y34224935D01*
X24660405Y34241981D01*
X24663756Y34244750D01*
X24666827Y34247821D01*
X24685360Y34262601D01*
X24703628Y34277695D01*
X24707265Y34280070D01*
X24710664Y34282780D01*
X24730739Y34295394D01*
X24750580Y34308347D01*
X24754462Y34310301D01*
X24758141Y34312612D01*
X24779480Y34322889D01*
X24800667Y34333549D01*
X24804748Y34335058D01*
X24808658Y34336940D01*
X24831007Y34344761D01*
X24853262Y34352984D01*
X24857485Y34354026D01*
X24861582Y34355459D01*
X24884672Y34360730D01*
X24907702Y34366408D01*
X24912013Y34366970D01*
X24916247Y34367936D01*
X24939805Y34370590D01*
X24963303Y34373651D01*
X24969463Y34373932D01*
X24971965Y34374213D01*
X24975662Y34374213D01*
X24991320Y34374925D01*
X25531253Y34384300D01*
X25531275Y34384300D01*
X25531281Y34384300D01*
X26072905Y34393675D01*
X26072942Y34393675D01*
X26072974Y34393676D01*
X26618938Y34403051D01*
X26618991Y34403051D01*
X26619049Y34403053D01*
X27172101Y34412428D01*
X27172168Y34412428D01*
X27172252Y34412431D01*
X27735290Y34421806D01*
X27735386Y34421805D01*
X27735479Y34421809D01*
X28311615Y34431184D01*
X28311739Y34431183D01*
X28311841Y34431187D01*
X28904472Y34440562D01*
X28904586Y34440561D01*
X28904734Y34440567D01*
X29517636Y34449942D01*
X29517790Y34449941D01*
X29517930Y34449946D01*
X30155353Y34459321D01*
X30155508Y34459319D01*
X30155677Y34459326D01*
X30822483Y34468701D01*
X30822673Y34468699D01*
X30822834Y34468705D01*
X31524657Y34478080D01*
X31524841Y34478078D01*
X31525031Y34478085D01*
X32268489Y34487460D01*
X32268682Y34487458D01*
X32268883Y34487465D01*
X33061856Y34496840D01*
X33062054Y34496837D01*
X33062265Y34496845D01*
X33914251Y34506220D01*
X33914469Y34506217D01*
X33914672Y34506224D01*
X34837283Y34515599D01*
X34837499Y34515596D01*
X34837711Y34515603D01*
X35345446Y34520327D01*
X35340645Y35045056D01*
X35331274Y35981017D01*
X35331274Y35981030D01*
X35321908Y36843084D01*
X35321908Y36843102D01*
X35312533Y37644470D01*
X35303163Y38393604D01*
X35293793Y39098980D01*
X35284423Y39767362D01*
X35275054Y40404497D01*
X35275054Y40404502D01*
X35265688Y41015042D01*
X35256313Y41604172D01*
X35246942Y42174839D01*
X35246942Y42174850D01*
X35237571Y42730751D01*
X35228199Y43275025D01*
X35228199Y43275044D01*
X35218829Y43810419D01*
X35218828Y43810446D01*
X35209453Y44340033D01*
X35200079Y44866092D01*
X35200123Y44870394D01*
X35200000Y44874683D01*
X35190627Y59645586D01*
X35181329Y60168115D01*
X35181329Y60168154D01*
X35181328Y60168185D01*
X35171953Y60699197D01*
X35171953Y60699252D01*
X35171951Y60699309D01*
X35162576Y61237190D01*
X35162576Y61237260D01*
X35162573Y61237344D01*
X35153198Y61784909D01*
X35153199Y61785011D01*
X35153195Y61785103D01*
X35143820Y62345381D01*
X35143821Y62345493D01*
X35143816Y62345613D01*
X35134441Y62921907D01*
X35134442Y62922046D01*
X35134437Y62922175D01*
X35125062Y63518155D01*
X35125063Y63518299D01*
X35125057Y63518457D01*
X35115682Y64138254D01*
X35115684Y64138419D01*
X35115677Y64138587D01*
X35106302Y64786929D01*
X35106304Y64787111D01*
X35106297Y64787290D01*
X35096922Y65469653D01*
X35096924Y65469847D01*
X35096917Y65470037D01*
X35087542Y66192857D01*
X35087545Y66193060D01*
X35087537Y66193261D01*
X35078162Y66964192D01*
X35078165Y66964401D01*
X35078157Y66964613D01*
X35068782Y67792889D01*
X35068785Y67793100D01*
X35068777Y67793322D01*
X35059402Y68690233D01*
X35059406Y68690461D01*
X35059398Y68690674D01*
X35054807Y69170318D01*
X34558618Y69165651D01*
X34558612Y69165651D01*
X33647920Y69156276D01*
X33647916Y69156276D01*
X32809313Y69146906D01*
X32030657Y69137540D01*
X31301760Y69128165D01*
X31301740Y69128165D01*
X30616240Y69118802D01*
X30616234Y69118802D01*
X29966305Y69109432D01*
X29966302Y69109432D01*
X29346667Y69100060D01*
X28752547Y69090687D01*
X28752541Y69090687D01*
X28180321Y69081321D01*
X28180312Y69081321D01*
X27625249Y69071946D01*
X27625244Y69071946D01*
X27085009Y69062578D01*
X27085002Y69062578D01*
X26555721Y69053203D01*
X26555707Y69053203D01*
X26035158Y69043831D01*
X26035153Y69043831D01*
X25520547Y69034459D01*
X25520544Y69034459D01*
X25009191Y69025084D01*
X25009181Y69025084D01*
X24498723Y69015709D01*
X24498701Y69015709D01*
X24498696Y69015709D01*
X23986691Y69006334D01*
X23986668Y69006334D01*
X23986619Y69006332D01*
X23470560Y68996957D01*
X23470501Y68996957D01*
X23470444Y68996955D01*
X22947737Y68987580D01*
X22947645Y68987580D01*
X22947580Y68987578D01*
X22415486Y68978203D01*
X22415396Y68978203D01*
X22415287Y68978199D01*
X21870867Y68968824D01*
X21870747Y68968825D01*
X21870628Y68968820D01*
X21310672Y68959445D01*
X21310525Y68959446D01*
X21310396Y68959441D01*
X20731339Y68950066D01*
X20731185Y68950067D01*
X20731028Y68950061D01*
X20128856Y68940686D01*
X20128700Y68940687D01*
X20128514Y68940680D01*
X19498636Y68931305D01*
X19498444Y68931307D01*
X19498265Y68931300D01*
X18835361Y68921925D01*
X18835156Y68921927D01*
X18834966Y68921920D01*
X18132788Y68912545D01*
X18132592Y68912547D01*
X18132372Y68912539D01*
X17383482Y68903164D01*
X17383262Y68903167D01*
X17383049Y68903159D01*
X16578481Y68893784D01*
X16578258Y68893787D01*
X16578035Y68893779D01*
X15706825Y68884404D01*
X15706604Y68884407D01*
X15706371Y68884399D01*
X15254818Y68879949D01*
X15259353Y68411401D01*
X15268718Y67527317D01*
X15278088Y66712250D01*
X15278088Y66712248D01*
X15287463Y65954963D01*
X15296827Y65247561D01*
X15296827Y65247546D01*
X15306202Y64580701D01*
X15315570Y63949267D01*
X15324934Y63347749D01*
X15324934Y63347741D01*
X15334304Y62770741D01*
X15343674Y62214556D01*
X15353045Y61675583D01*
X15362417Y61150605D01*
X15362417Y61150590D01*
X15371789Y60636632D01*
X15381162Y60130983D01*
X15390536Y59631084D01*
X15390536Y59631078D01*
X15399911Y59134437D01*
X15399870Y59129877D01*
X15400000Y59125318D01*
X15409373Y44384140D01*
X15418661Y43891511D01*
X15418661Y43891485D01*
X15418663Y43891437D01*
X15428038Y43390331D01*
X15428038Y43390269D01*
X15428040Y43390213D01*
X15437415Y42882679D01*
X15437415Y42882599D01*
X15437418Y42882517D01*
X15446793Y42365896D01*
X15446792Y42365782D01*
X15446796Y42365691D01*
X15456171Y41837129D01*
X15456170Y41837020D01*
X15456176Y41836884D01*
X15465551Y41293265D01*
X15465550Y41293110D01*
X15465555Y41292982D01*
X15474930Y40730848D01*
X15474929Y40730702D01*
X15474936Y40730528D01*
X15484311Y40145981D01*
X15484309Y40145796D01*
X15484316Y40145629D01*
X15493691Y39534214D01*
X15493689Y39534029D01*
X15493697Y39533832D01*
X15503072Y38890389D01*
X15503070Y38890189D01*
X15503078Y38889981D01*
X15512453Y38208444D01*
X15512450Y38208217D01*
X15512458Y38208015D01*
X15521833Y37481168D01*
X15521830Y37480953D01*
X15521839Y37480722D01*
X15531214Y36699862D01*
X15531211Y36699627D01*
X15531219Y36699403D01*
X15540594Y35853893D01*
X15540591Y35853660D01*
X15540599Y35853425D01*
X15544899Y35429960D01*
X15985224Y35434350D01*
X16843712Y35443715D01*
X16843714Y35443715D01*
X17635516Y35453090D01*
X17635523Y35453090D01*
X18369843Y35462455D01*
X18369864Y35462455D01*
X19057315Y35471828D01*
X19704281Y35481197D01*
X20317339Y35490567D01*
X20901625Y35499936D01*
X20901632Y35499936D01*
X21461338Y35509300D01*
X21461346Y35509300D01*
X22001462Y35518675D01*
X22001464Y35518675D01*
X22524532Y35528045D01*
X22524553Y35528045D01*
X23033785Y35537411D01*
X23033807Y35537412D01*
X23532743Y35546787D01*
X23532744Y35546787D01*
X24023274Y35556157D01*
X24023278Y35556157D01*
X24508437Y35565532D01*
X24508464Y35565532D01*
X24990243Y35574905D01*
X24990256Y35574905D01*
X25471238Y35584280D01*
X25471244Y35584280D01*
X25471267Y35584281D01*
X25953653Y35593656D01*
X25953699Y35593656D01*
X25953729Y35593657D01*
X26439879Y35603032D01*
X26439946Y35603032D01*
X26440001Y35603034D01*
X26932362Y35612409D01*
X26932430Y35612409D01*
X26932529Y35612413D01*
X27433678Y35621788D01*
X27433799Y35621787D01*
X27433889Y35621791D01*
X27946593Y35631166D01*
X27946710Y35631165D01*
X27946845Y35631171D01*
X28474126Y35640546D01*
X28474274Y35640545D01*
X28474419Y35640551D01*
X29019630Y35649926D01*
X29019786Y35649925D01*
X29019959Y35649932D01*
X29586881Y35659307D01*
X29587060Y35659305D01*
X29587244Y35659313D01*
X30180193Y35668688D01*
X30180391Y35668686D01*
X30180587Y35668694D01*
X30804571Y35678069D01*
X30804783Y35678067D01*
X30804991Y35678075D01*
X31465888Y35687450D01*
X31466110Y35687447D01*
X31466330Y35687456D01*
X32171135Y35696831D01*
X32171364Y35696828D01*
X32171596Y35696837D01*
X32928747Y35706212D01*
X32928995Y35706209D01*
X32929221Y35706217D01*
X33749030Y35715592D01*
X33749257Y35715589D01*
X33749511Y35715598D01*
X34144887Y35719739D01*
X34140650Y36132109D01*
X34140650Y36132128D01*
X34131286Y36964736D01*
X34121911Y37732830D01*
X34112542Y38445561D01*
X34103173Y39112082D01*
X34103173Y39112099D01*
X34093811Y39739156D01*
X34084437Y40334051D01*
X34075068Y40900640D01*
X34065699Y41443741D01*
X34065699Y41443748D01*
X34056330Y41967196D01*
X34046960Y42474398D01*
X34046960Y42474409D01*
X34037590Y42968391D01*
X34037590Y42968392D01*
X34028219Y43451949D01*
X34018847Y43927636D01*
X34009474Y44397871D01*
X34009474Y44397894D01*
X34000101Y44864968D01*
X34000139Y44869816D01*
X34000000Y44874681D01*
X33990628Y59586053D01*
X33981350Y60048798D01*
X33981350Y60048846D01*
X33981349Y60048875D01*
X33971974Y60520073D01*
X33971974Y60520126D01*
X33971971Y60520198D01*
X33962596Y60997387D01*
X33962596Y60997479D01*
X33962593Y60997559D01*
X33953218Y61483234D01*
X33953218Y61483345D01*
X33953214Y61483452D01*
X33943839Y61980297D01*
X33943840Y61980424D01*
X33943834Y61980557D01*
X33934459Y62491500D01*
X33934460Y62491659D01*
X33934454Y62491802D01*
X33925079Y63020090D01*
X33925080Y63020258D01*
X33925073Y63020430D01*
X33915698Y63569726D01*
X33915700Y63569917D01*
X33915692Y63570100D01*
X33906317Y64144587D01*
X33906319Y64144779D01*
X33906310Y64144992D01*
X33896935Y64749517D01*
X33896937Y64749742D01*
X33896929Y64749949D01*
X33887554Y65390205D01*
X33887556Y65390424D01*
X33887547Y65390662D01*
X33878172Y66073426D01*
X33878175Y66073668D01*
X33878166Y66073900D01*
X33868791Y66807343D01*
X33868794Y66807587D01*
X33868785Y66807832D01*
X33859410Y67601941D01*
X33859413Y67602181D01*
X33859404Y67602437D01*
X33855433Y67969726D01*
X33471150Y67965652D01*
X33471143Y67965652D01*
X32663996Y67956285D01*
X31920357Y67946920D01*
X31920354Y67946920D01*
X31229194Y67937546D01*
X31229188Y67937546D01*
X30583799Y67928183D01*
X30583781Y67928183D01*
X29975315Y67918808D01*
X29975313Y67918808D01*
X29399312Y67909441D01*
X29399307Y67909441D01*
X28850739Y67900078D01*
X28850730Y67900078D01*
X28324501Y67890709D01*
X27817088Y67881335D01*
X27817075Y67881335D01*
X27325779Y67871966D01*
X26847461Y67862600D01*
X26847455Y67862600D01*
X26379039Y67853227D01*
X26379030Y67853227D01*
X25918134Y67843853D01*
X25918115Y67843853D01*
X25462800Y67834482D01*
X25462785Y67834482D01*
X25010359Y67825107D01*
X25010338Y67825107D01*
X24558874Y67815733D01*
X24558868Y67815733D01*
X24558846Y67815732D01*
X24106078Y67806356D01*
X24106044Y67806356D01*
X24105997Y67806354D01*
X23649752Y67796981D01*
X23649696Y67796981D01*
X23649625Y67796978D01*
X23187610Y67787603D01*
X23187530Y67787603D01*
X23187433Y67787599D01*
X22717229Y67778224D01*
X22717110Y67778224D01*
X22717005Y67778220D01*
X22236018Y67768845D01*
X22235883Y67768846D01*
X22235751Y67768840D01*
X21741146Y67759464D01*
X21740993Y67759465D01*
X21740833Y67759458D01*
X21229466Y67750084D01*
X21229288Y67750085D01*
X21229118Y67750078D01*
X20697446Y67740703D01*
X20697259Y67740704D01*
X20697060Y67740696D01*
X20141037Y67731321D01*
X20140831Y67731323D01*
X20140619Y67731314D01*
X19555554Y67721939D01*
X19555332Y67721941D01*
X19555107Y67721932D01*
X18935491Y67712557D01*
X18935258Y67712560D01*
X18935021Y67712550D01*
X18274298Y67703175D01*
X18274040Y67703178D01*
X18273808Y67703169D01*
X17564074Y67693794D01*
X17563833Y67693797D01*
X17563570Y67693787D01*
X16795162Y67684412D01*
X16794905Y67684416D01*
X16794648Y67684406D01*
X16455446Y67680615D01*
X16459340Y67324936D01*
X16468709Y66543263D01*
X16468709Y66543259D01*
X16478077Y65823083D01*
X16487445Y65154450D01*
X16496813Y64529221D01*
X16506187Y63940215D01*
X16506187Y63940196D01*
X16515547Y63383106D01*
X16524915Y62851763D01*
X16534284Y62342506D01*
X16534284Y62342494D01*
X16543653Y61851698D01*
X16553023Y61376198D01*
X16553023Y61376191D01*
X16562398Y60912894D01*
X16571765Y60459891D01*
X16571765Y60459871D01*
X16581137Y60014053D01*
X16590510Y59573396D01*
X16599885Y59135708D01*
X16599851Y59130521D01*
X16600000Y59125319D01*
X16609372Y44443715D01*
X16618635Y44010975D01*
X16618635Y44010940D01*
X16618637Y44010894D01*
X16628012Y43569601D01*
X16628012Y43569540D01*
X16628015Y43569470D01*
X16637390Y43122628D01*
X16637390Y43122541D01*
X16637394Y43122446D01*
X16646769Y42667714D01*
X16646769Y42667587D01*
X16646773Y42667484D01*
X16656148Y42202354D01*
X16656147Y42202225D01*
X16656154Y42202077D01*
X16665529Y41723810D01*
X16665528Y41723647D01*
X16665535Y41723490D01*
X16674910Y41229044D01*
X16674909Y41228869D01*
X16674917Y41228683D01*
X16684292Y40714638D01*
X16684291Y40714437D01*
X16684299Y40714239D01*
X16693674Y40176680D01*
X16693672Y40176458D01*
X16693681Y40176248D01*
X16703056Y39610643D01*
X16703054Y39610423D01*
X16703064Y39610182D01*
X16712439Y39011206D01*
X16712436Y39010957D01*
X16712446Y39010720D01*
X16721821Y38372037D01*
X16721818Y38371781D01*
X16721828Y38371531D01*
X16731203Y37685505D01*
X16731200Y37685248D01*
X16731210Y37684984D01*
X16740585Y36942277D01*
X16740582Y36942022D01*
X16740592Y36941746D01*
X16744189Y36630629D01*
X17071763Y36634338D01*
X17071764Y36634338D01*
X17828144Y36643712D01*
X18524206Y36653075D01*
X19171251Y36662449D01*
X19171259Y36662449D01*
X19775802Y36671816D01*
X19775805Y36671816D01*
X20344388Y36681175D01*
X20344407Y36681175D01*
X20883909Y36690550D01*
X20883916Y36690550D01*
X21397179Y36699910D01*
X21397186Y36699910D01*
X21889781Y36709284D01*
X22364285Y36718653D01*
X22364303Y36718653D01*
X22823881Y36728021D01*
X22823890Y36728021D01*
X23271174Y36737385D01*
X23271201Y36737386D01*
X23709445Y36746761D01*
X23709448Y36746761D01*
X24140254Y36756132D01*
X24140260Y36756132D01*
X24500000Y36764051D01*
X24500000Y37475001D01*
X24500524Y37493646D01*
X24500483Y37496970D01*
X24500669Y37498820D01*
X24500787Y37503036D01*
X24503584Y37527864D01*
X24506083Y37552760D01*
X24506724Y37555733D01*
X24507064Y37558754D01*
X24512627Y37583125D01*
X24517895Y37607573D01*
X24518865Y37610457D01*
X24519541Y37613419D01*
X24527798Y37637016D01*
X24535770Y37660718D01*
X24537056Y37663474D01*
X24538060Y37666343D01*
X24548898Y37688848D01*
X24559482Y37711527D01*
X24561072Y37714126D01*
X24562388Y37716860D01*
X24575694Y37738036D01*
X24588736Y37759362D01*
X24590600Y37761758D01*
X24592220Y37764337D01*
X24607809Y37783885D01*
X24623159Y37803621D01*
X24625286Y37805801D01*
X24627179Y37808174D01*
X24644858Y37825853D01*
X24662323Y37843747D01*
X24664675Y37845670D01*
X24666827Y37847822D01*
X24686395Y37863427D01*
X24705732Y37879236D01*
X24708285Y37880884D01*
X24710664Y37882781D01*
X24731834Y37896083D01*
X24752843Y37909643D01*
X24755569Y37910997D01*
X24758141Y37912613D01*
X24780649Y37923453D01*
X24803061Y37934583D01*
X24805921Y37935623D01*
X24808658Y37936941D01*
X24832255Y37945198D01*
X24855756Y37953743D01*
X24858711Y37954456D01*
X24861582Y37955460D01*
X24885982Y37961030D01*
X24910266Y37966883D01*
X24913280Y37967260D01*
X24916247Y37967937D01*
X24941096Y37970737D01*
X24965903Y37973837D01*
X24970127Y37974007D01*
X24971965Y37974214D01*
X24975277Y37974214D01*
X24993927Y37974964D01*
X25167633Y37977075D01*
X25335169Y37983183D01*
X25502522Y37993361D01*
X25669562Y38007601D01*
X25836182Y38025892D01*
X26008378Y38049042D01*
X26036268Y38051997D01*
X26092326Y38053200D01*
X26148166Y38048118D01*
X26203085Y38036816D01*
X26256393Y38019436D01*
X26307422Y37996196D01*
X26355526Y37967390D01*
X26400104Y37933378D01*
X26440592Y37894590D01*
X26476484Y37851511D01*
X26507326Y37804686D01*
X26532731Y37754702D01*
X26552381Y37702186D01*
X26566026Y37647802D01*
X26573497Y37592232D01*
X26574700Y37536174D01*
X26569618Y37480334D01*
X26558316Y37425414D01*
X26540936Y37372106D01*
X26517696Y37321078D01*
X26488889Y37272974D01*
X26454878Y37228396D01*
X26416090Y37187908D01*
X26373011Y37152016D01*
X26326186Y37121174D01*
X26276201Y37095768D01*
X26223686Y37076119D01*
X26169302Y37062474D01*
X26141621Y37057958D01*
X25963426Y37034001D01*
X25957374Y37033360D01*
X25951365Y37032529D01*
X25772640Y37012909D01*
X25766592Y37012417D01*
X25760549Y37011730D01*
X25581401Y36996458D01*
X25575341Y36996113D01*
X25569285Y36995573D01*
X25500000Y36991360D01*
X25500000Y36275000D01*
X25499628Y36261782D01*
X25499712Y36258035D01*
X25499438Y36255009D01*
X25499213Y36246965D01*
X25496695Y36224619D01*
X25494671Y36202191D01*
X25493556Y36196756D01*
X25492936Y36191247D01*
X25487932Y36169325D01*
X25483409Y36147263D01*
X25481691Y36141984D01*
X25480459Y36136582D01*
X25473031Y36115356D01*
X25466067Y36093942D01*
X25463771Y36088893D01*
X25461940Y36083658D01*
X25452173Y36063379D01*
X25442864Y36042898D01*
X25440019Y36038140D01*
X25437612Y36033141D01*
X25425638Y36014085D01*
X25414092Y35994772D01*
X25410730Y35990360D01*
X25407780Y35985664D01*
X25393750Y35968072D01*
X25380113Y35950171D01*
X25376279Y35946164D01*
X25372821Y35941827D01*
X25356905Y35925912D01*
X25341353Y35909654D01*
X25337095Y35906102D01*
X25333173Y35902179D01*
X25315583Y35888152D01*
X25298302Y35873732D01*
X25293670Y35870677D01*
X25289336Y35867220D01*
X25270286Y35855251D01*
X25251497Y35842855D01*
X25246554Y35840339D01*
X25241859Y35837388D01*
X25221582Y35827624D01*
X25201532Y35817414D01*
X25196340Y35815468D01*
X25191342Y35813060D01*
X25170105Y35805630D01*
X25149031Y35797726D01*
X25143649Y35796372D01*
X25138418Y35794541D01*
X25116486Y35789536D01*
X25094656Y35784041D01*
X25089160Y35783299D01*
X25083753Y35782064D01*
X25061380Y35779544D01*
X25039091Y35776531D01*
X25031052Y35776127D01*
X25028035Y35775787D01*
X25024290Y35775787D01*
X25011080Y35775123D01*
X24588129Y35765748D01*
X24588096Y35765749D01*
X24588052Y35765746D01*
X24162131Y35756371D01*
X24162070Y35756372D01*
X24162002Y35756368D01*
X23731013Y35746993D01*
X23730925Y35746994D01*
X23730832Y35746989D01*
X23292589Y35737614D01*
X23292460Y35737615D01*
X23292360Y35737610D01*
X22844536Y35728235D01*
X22844405Y35728236D01*
X22844261Y35728229D01*
X22384346Y35718854D01*
X22384198Y35718856D01*
X22384028Y35718847D01*
X21909261Y35709472D01*
X21909083Y35709474D01*
X21908902Y35709465D01*
X21416210Y35700090D01*
X21416006Y35700092D01*
X21415814Y35700083D01*
X20901713Y35690708D01*
X20901505Y35690711D01*
X20901284Y35690700D01*
X20361781Y35681325D01*
X20361538Y35681328D01*
X20361322Y35681318D01*
X19791776Y35671944D01*
X19791542Y35671947D01*
X19791295Y35671936D01*
X19186240Y35662561D01*
X19185997Y35662565D01*
X19185737Y35662553D01*
X18538660Y35653178D01*
X18538397Y35653182D01*
X18538142Y35653171D01*
X17841174Y35643796D01*
X17840913Y35643800D01*
X17840645Y35643789D01*
X17084156Y35634414D01*
X17083883Y35634419D01*
X17083621Y35634408D01*
X16255661Y35625033D01*
X16227880Y35625499D01*
X16227738Y35625497D01*
X16227691Y35625502D01*
X16227619Y35625503D01*
X16200116Y35628287D01*
X16171951Y35631130D01*
X16171898Y35631142D01*
X16171834Y35631148D01*
X16144581Y35637045D01*
X16117145Y35642974D01*
X16117085Y35642995D01*
X16117031Y35643006D01*
X16090825Y35651845D01*
X16064011Y35660880D01*
X16063961Y35660904D01*
X16063900Y35660924D01*
X16036852Y35673576D01*
X16013216Y35684623D01*
X16013169Y35684653D01*
X16013111Y35684679D01*
X15988168Y35699962D01*
X15965397Y35713904D01*
X15965352Y35713940D01*
X15965300Y35713971D01*
X15943383Y35731048D01*
X15921159Y35748354D01*
X15921116Y35748397D01*
X15921070Y35748432D01*
X15900870Y35768180D01*
X15881055Y35787541D01*
X15881020Y35787585D01*
X15880975Y35787628D01*
X15862666Y35810062D01*
X15845592Y35830971D01*
X15845561Y35831020D01*
X15845522Y35831067D01*
X15829628Y35855739D01*
X15815213Y35878100D01*
X15815189Y35878150D01*
X15815154Y35878203D01*
X15801983Y35904781D01*
X15790303Y35928332D01*
X15790284Y35928385D01*
X15790256Y35928441D01*
X15780417Y35955572D01*
X15771173Y35981039D01*
X15771160Y35981097D01*
X15771139Y35981152D01*
X15764621Y36008292D01*
X15758065Y36035556D01*
X15758058Y36035616D01*
X15758044Y36035672D01*
X15754650Y36063014D01*
X15751144Y36091197D01*
X15751141Y36091278D01*
X15751136Y36091316D01*
X15751135Y36091432D01*
X15750033Y36119221D01*
X15740658Y36930186D01*
X15740659Y36930197D01*
X15731290Y37672362D01*
X15721922Y38357867D01*
X15712561Y38995556D01*
X15703186Y39594532D01*
X15703187Y39594544D01*
X15693826Y40159243D01*
X15684451Y40696801D01*
X15675083Y41210449D01*
X15675084Y41210454D01*
X15665715Y41704532D01*
X15656346Y42182479D01*
X15656347Y42182495D01*
X15646983Y42647080D01*
X15646981Y42647102D01*
X15637606Y43101834D01*
X15637607Y43101841D01*
X15628235Y43548494D01*
X15628236Y43548501D01*
X15618863Y43989654D01*
X15618864Y43989665D01*
X15609490Y44427531D01*
X15609525Y44432712D01*
X15609375Y44437913D01*
X15600004Y59119507D01*
X15590740Y59551982D01*
X15590741Y59552010D01*
X15590738Y59552055D01*
X15581363Y59992787D01*
X15581364Y59992841D01*
X15581360Y59992910D01*
X15571985Y60438853D01*
X15571986Y60438950D01*
X15571982Y60439026D01*
X15562607Y60892443D01*
X15562608Y60892544D01*
X15562602Y60892663D01*
X15553227Y61355959D01*
X15553229Y61356097D01*
X15553222Y61356225D01*
X15543847Y61831998D01*
X15543849Y61832150D01*
X15543841Y61832305D01*
X15534466Y62323408D01*
X15534468Y62323590D01*
X15534460Y62323755D01*
X15525085Y62833369D01*
X15525087Y62833557D01*
X15525078Y62833751D01*
X15515703Y63365478D01*
X15515706Y63365687D01*
X15515696Y63365892D01*
X15506321Y63923859D01*
X15506324Y63924067D01*
X15506313Y63924302D01*
X15496939Y64513309D01*
X15496942Y64513544D01*
X15496932Y64513774D01*
X15487557Y65139468D01*
X15487561Y65139711D01*
X15487550Y65139954D01*
X15478175Y65809073D01*
X15478179Y65809319D01*
X15478168Y65809574D01*
X15468793Y66530251D01*
X15468797Y66530514D01*
X15468787Y66530763D01*
X15459412Y67312952D01*
X15459417Y67313209D01*
X15459406Y67313469D01*
X15450031Y68169524D01*
X15450508Y68197344D01*
X15450506Y68197454D01*
X15450510Y68197490D01*
X15450511Y68197566D01*
X15453461Y68226601D01*
X15456160Y68253239D01*
X15456171Y68253289D01*
X15456177Y68253349D01*
X15462109Y68280713D01*
X15468025Y68308040D01*
X15468045Y68308096D01*
X15468055Y68308147D01*
X15477173Y68335149D01*
X15485952Y68361167D01*
X15485974Y68361212D01*
X15485993Y68361271D01*
X15498292Y68387540D01*
X15509714Y68411953D01*
X15509745Y68412002D01*
X15509767Y68412051D01*
X15524250Y68435670D01*
X15539014Y68459761D01*
X15539048Y68459804D01*
X15539077Y68459852D01*
X15555673Y68481136D01*
X15573480Y68503985D01*
X15573522Y68504027D01*
X15573554Y68504069D01*
X15592560Y68523495D01*
X15612683Y68544074D01*
X15612726Y68544108D01*
X15612765Y68544149D01*
X15634046Y68561504D01*
X15656127Y68579521D01*
X15656176Y68579552D01*
X15656217Y68579586D01*
X15679084Y68594305D01*
X15703267Y68609881D01*
X15703318Y68609905D01*
X15703364Y68609936D01*
X15728337Y68622300D01*
X15753509Y68634772D01*
X15753562Y68634791D01*
X15753612Y68634816D01*
X15779725Y68644275D01*
X15806223Y68653881D01*
X15806279Y68653894D01*
X15806330Y68653913D01*
X15833407Y68660405D01*
X15860745Y68666968D01*
X15860801Y68666974D01*
X15860855Y68666988D01*
X15887822Y68670325D01*
X15916390Y68673868D01*
X15916470Y68673871D01*
X15916501Y68673875D01*
X15916595Y68673876D01*
X15944414Y68674968D01*
X16783223Y68684341D01*
X17551370Y68693713D01*
X17551382Y68693712D01*
X18260094Y68703074D01*
X18260110Y68703075D01*
X18920700Y68712448D01*
X19539797Y68721815D01*
X20124540Y68731185D01*
X20680202Y68740554D01*
X20680209Y68740553D01*
X21211133Y68749915D01*
X21211138Y68749916D01*
X21722505Y68759290D01*
X21722508Y68759289D01*
X22216528Y68768654D01*
X22216530Y68768655D01*
X22697283Y68778025D01*
X22697295Y68778026D01*
X23167498Y68787401D01*
X23167514Y68787400D01*
X23629337Y68796772D01*
X23629351Y68796771D01*
X24085351Y68806140D01*
X24085374Y68806142D01*
X24538142Y68815518D01*
X24538157Y68815517D01*
X24989620Y68824892D01*
X24989621Y68824891D01*
X24989641Y68824893D01*
X25442068Y68834268D01*
X25442111Y68834267D01*
X25442139Y68834269D01*
X25897679Y68843644D01*
X25897730Y68843643D01*
X25897800Y68843647D01*
X26358695Y68853021D01*
X26358783Y68853020D01*
X26358860Y68853024D01*
X26827450Y68862400D01*
X26827560Y68862399D01*
X26827663Y68862404D01*
X27306432Y68871779D01*
X27306559Y68871777D01*
X27306688Y68871784D01*
X27798319Y68881159D01*
X27798459Y68881157D01*
X27798616Y68881165D01*
X28306057Y68890540D01*
X28306226Y68890538D01*
X28306393Y68890546D01*
X28832929Y68899920D01*
X28833121Y68899918D01*
X28833298Y68899926D01*
X29382650Y68909302D01*
X29382845Y68909299D01*
X29383052Y68909309D01*
X29959482Y68918683D01*
X29959691Y68918680D01*
X29959909Y68918690D01*
X30568375Y68928065D01*
X30568614Y68928061D01*
X30568826Y68928071D01*
X31215161Y68937447D01*
X31215389Y68937443D01*
X31215632Y68937454D01*
X31906793Y68946828D01*
X31907040Y68946824D01*
X31907276Y68946834D01*
X32651661Y68956209D01*
X32651908Y68956205D01*
X32652156Y68956215D01*
X33460047Y68965590D01*
X33460289Y68965586D01*
X33460548Y68965596D01*
X34344699Y68974971D01*
X34372524Y68974484D01*
X34372637Y68974486D01*
X34372674Y68974482D01*
X34372741Y68974481D01*
X34398454Y68971859D01*
X34428419Y68968812D01*
X34428475Y68968799D01*
X34428522Y68968795D01*
X34456003Y68962828D01*
X34483216Y68956926D01*
X34483259Y68956911D01*
X34483316Y68956899D01*
X34510996Y68947541D01*
X34536337Y68938981D01*
X34536384Y68938958D01*
X34536434Y68938942D01*
X34562882Y68926548D01*
X34587114Y68915200D01*
X34587154Y68915175D01*
X34587206Y68915151D01*
X34612046Y68899907D01*
X34634911Y68885883D01*
X34634952Y68885850D01*
X34634996Y68885824D01*
X34658571Y68867429D01*
X34679123Y68851400D01*
X34679155Y68851368D01*
X34679202Y68851332D01*
X34701368Y68829630D01*
X34719197Y68812183D01*
X34719227Y68812145D01*
X34719268Y68812106D01*
X34739068Y68787810D01*
X34754628Y68768726D01*
X34754652Y68768688D01*
X34754690Y68768642D01*
X34770227Y68744486D01*
X34784972Y68721575D01*
X34784997Y68721524D01*
X34785023Y68721484D01*
X34797934Y68695385D01*
X34809844Y68671324D01*
X34809859Y68671282D01*
X34809886Y68671228D01*
X34820153Y68642854D01*
X34828935Y68618603D01*
X34828947Y68618552D01*
X34828965Y68618503D01*
X34835829Y68589832D01*
X34842002Y68564076D01*
X34842007Y68564029D01*
X34842021Y68563974D01*
X34845604Y68534934D01*
X34848881Y68508429D01*
X34848883Y68508359D01*
X34848888Y68508325D01*
X34848889Y68508220D01*
X34849971Y68480404D01*
X34859346Y67613248D01*
X34868709Y66820125D01*
X34878077Y66087158D01*
X34878078Y66087156D01*
X34887453Y65404391D01*
X34896814Y64765034D01*
X34896815Y64765023D01*
X34906190Y64160498D01*
X34915551Y63586793D01*
X34915552Y63586790D01*
X34924921Y63037834D01*
X34934290Y62509857D01*
X34934291Y62509846D01*
X34943661Y61999163D01*
X34953031Y61502537D01*
X34953032Y61502534D01*
X34962403Y61017039D01*
X34962404Y61017029D01*
X34971779Y60539840D01*
X34971778Y60539821D01*
X34981149Y60068862D01*
X34981150Y60068844D01*
X34990525Y59601267D01*
X34990485Y59596404D01*
X34990625Y59591563D01*
X34999996Y44880153D01*
X35009274Y44417867D01*
X35009273Y44417845D01*
X35009276Y44417799D01*
X35018651Y43947449D01*
X35018650Y43947387D01*
X35018653Y43947334D01*
X35028028Y43471486D01*
X35028027Y43471403D01*
X35028031Y43471325D01*
X35037406Y42987562D01*
X35037405Y42987461D01*
X35037410Y42987357D01*
X35046785Y42493115D01*
X35046783Y42492999D01*
X35046790Y42492868D01*
X35056165Y41985379D01*
X35056163Y41985232D01*
X35056170Y41985092D01*
X35065545Y41461313D01*
X35065543Y41461157D01*
X35065551Y41460989D01*
X35074926Y40917530D01*
X35074924Y40917351D01*
X35074932Y40917172D01*
X35084307Y40350195D01*
X35084304Y40349997D01*
X35084313Y40349807D01*
X35093687Y39754912D01*
X35093684Y39754699D01*
X35093693Y39754498D01*
X35103068Y39126573D01*
X35103065Y39126367D01*
X35103075Y39126136D01*
X35112450Y38459160D01*
X35112446Y38458929D01*
X35112456Y38458705D01*
X35121831Y37745504D01*
X35121827Y37745270D01*
X35121837Y37745034D01*
X35131212Y36976941D01*
X35131208Y36976690D01*
X35131217Y36976461D01*
X35140592Y36142870D01*
X35140588Y36142642D01*
X35140598Y36142385D01*
X35149973Y35230138D01*
X35149477Y35202275D01*
X35149478Y35202194D01*
X35149475Y35202168D01*
X35149474Y35202097D01*
X35146442Y35172455D01*
X35143785Y35146413D01*
X35143775Y35146368D01*
X35143770Y35146317D01*
X35137667Y35118254D01*
X35131881Y35091621D01*
X35131865Y35091575D01*
X35131855Y35091527D01*
X35122403Y35063600D01*
X35113917Y35038506D01*
X35113898Y35038467D01*
X35113881Y35038415D01*
X35102007Y35013099D01*
X35090120Y34987737D01*
X35090091Y34987691D01*
X35090073Y34987651D01*
X35075528Y34963968D01*
X35060786Y34939950D01*
X35060758Y34939915D01*
X35060731Y34939870D01*
X35042984Y34917142D01*
X35026288Y34895749D01*
X35026253Y34895714D01*
X35026224Y34895676D01*
X35007673Y34876741D01*
X34987058Y34855688D01*
X34987016Y34855655D01*
X34986986Y34855623D01*
X34966875Y34839245D01*
X34943589Y34820272D01*
X34943546Y34820245D01*
X34943510Y34820215D01*
X34920766Y34805597D01*
X34896427Y34789945D01*
X34896382Y34789923D01*
X34896342Y34789897D01*
X34872313Y34778020D01*
X34846168Y34765089D01*
X34846119Y34765072D01*
X34846078Y34765051D01*
X34820169Y34755686D01*
X34793440Y34746017D01*
X34793394Y34746006D01*
X34793347Y34745989D01*
X34766607Y34739597D01*
X34738909Y34732968D01*
X34738857Y34732962D01*
X34738813Y34732951D01*
X34712968Y34729771D01*
X34683260Y34726108D01*
X34683189Y34726106D01*
X34683163Y34726102D01*
X34683083Y34726102D01*
X34655235Y34725027D01*
X33759983Y34715652D01*
X33759966Y34715653D01*
X32941142Y34706289D01*
X32941128Y34706288D01*
X32184105Y34696915D01*
X31479919Y34687548D01*
X30819526Y34678180D01*
X30195880Y34668811D01*
X29603078Y34659438D01*
X29036493Y34650068D01*
X29036481Y34650069D01*
X28491903Y34640705D01*
X28491903Y34640704D01*
X27964623Y34631329D01*
X27964609Y34631330D01*
X27452412Y34621964D01*
X27452382Y34621962D01*
X26951233Y34612587D01*
X26951203Y34612588D01*
X26459170Y34603219D01*
X26459160Y34603218D01*
X25973099Y34593845D01*
X25973084Y34593844D01*
X25490697Y34584469D01*
X25490680Y34584470D01*
X25009744Y34575095D01*
X25009727Y34575096D01*
X25009725Y34575095D01*
X24527822Y34565720D01*
X24527803Y34565721D01*
X24527757Y34565718D01*
X24042598Y34556343D01*
X24042541Y34556344D01*
X24042487Y34556341D01*
X23551685Y34546966D01*
X23551608Y34546967D01*
X23551529Y34546963D01*
X23052593Y34537588D01*
X23052482Y34537590D01*
X23052395Y34537585D01*
X22542682Y34528210D01*
X22542574Y34528212D01*
X22542442Y34528205D01*
X22019095Y34518830D01*
X22018958Y34518832D01*
X22018817Y34518825D01*
X21478700Y34509450D01*
X21478537Y34509452D01*
X21478386Y34509445D01*
X20918006Y34500070D01*
X20917839Y34500072D01*
X20917659Y34500064D01*
X20333056Y34490689D01*
X20332870Y34490692D01*
X20332680Y34490683D01*
X19719322Y34481309D01*
X19719123Y34481312D01*
X19718921Y34481303D01*
X19071536Y34471928D01*
X19071325Y34471931D01*
X19071112Y34471922D01*
X18383496Y34462547D01*
X18383262Y34462551D01*
X18383056Y34462542D01*
X17647812Y34453166D01*
X17647591Y34453170D01*
X17647355Y34453160D01*
X16855554Y34443785D01*
X16855316Y34443789D01*
X16855088Y34443780D01*
X15995797Y34434406D01*
X15995565Y34434410D01*
X15995328Y34434401D01*
X15054985Y34425026D01*
X15027118Y34425530D01*
X15027035Y34425529D01*
X15027008Y34425532D01*
X15026943Y34425533D01*
X14999716Y34428327D01*
X14971256Y34431240D01*
X14971207Y34431251D01*
X14971165Y34431255D01*
X14946481Y34436631D01*
X14916467Y34443161D01*
X14916419Y34443178D01*
X14916379Y34443186D01*
X14890961Y34451797D01*
X14863358Y34461142D01*
X14863319Y34461161D01*
X14863273Y34461176D01*
X14839115Y34472516D01*
X14812596Y34484956D01*
X14812552Y34484984D01*
X14812516Y34485000D01*
X14792169Y34497505D01*
X14764819Y34514304D01*
X14764778Y34514337D01*
X14764744Y34514357D01*
X14745330Y34529526D01*
X14720629Y34548816D01*
X14720594Y34548851D01*
X14720560Y34548877D01*
X14701450Y34567611D01*
X14680581Y34588060D01*
X14680552Y34588096D01*
X14680519Y34588128D01*
X14663385Y34609181D01*
X14645179Y34631539D01*
X14645153Y34631581D01*
X14645125Y34631614D01*
X14630723Y34654037D01*
X14614866Y34678711D01*
X14614845Y34678755D01*
X14614821Y34678791D01*
X14602987Y34702752D01*
X14590026Y34728978D01*
X14590010Y34729024D01*
X14589990Y34729063D01*
X14580908Y34754214D01*
X14570971Y34781712D01*
X14570960Y34781760D01*
X14570945Y34781800D01*
X14564281Y34809710D01*
X14557940Y34836247D01*
X14557935Y34836288D01*
X14557923Y34836338D01*
X14554354Y34865411D01*
X14551097Y34891899D01*
X14551095Y34891962D01*
X14551091Y34891991D01*
X14551091Y34892079D01*
X14550026Y34919924D01*
X14540651Y35843273D01*
X14531281Y36688315D01*
X14521911Y37468716D01*
X14521912Y37468725D01*
X14512548Y38194672D01*
X14512547Y38194689D01*
X14503172Y38876227D01*
X14503173Y38876230D01*
X14493803Y39519264D01*
X14493804Y39519269D01*
X14484439Y40129945D01*
X14475064Y40714492D01*
X14475065Y40714516D01*
X14465701Y41275997D01*
X14465699Y41276022D01*
X14456324Y41819640D01*
X14456325Y41819663D01*
X14446959Y42347730D01*
X14446957Y42347752D01*
X14437582Y42864373D01*
X14428210Y43371745D01*
X14418837Y43872731D01*
X14418838Y43872754D01*
X14409464Y44369854D01*
X14409506Y44374405D01*
X14409375Y44378962D01*
X14400003Y59120125D01*
X14390714Y59612204D01*
X14390715Y59612238D01*
X14390713Y59612267D01*
X14381338Y60112235D01*
X14381339Y60112288D01*
X14381336Y60112342D01*
X14371961Y60618098D01*
X14371962Y60618169D01*
X14371958Y60618249D01*
X14362583Y61132358D01*
X14362585Y61132462D01*
X14362580Y61132550D01*
X14353205Y61657735D01*
X14353207Y61657852D01*
X14353201Y61657967D01*
X14343826Y62197172D01*
X14343828Y62197299D01*
X14343821Y62197441D01*
X14334446Y62753895D01*
X14334448Y62754048D01*
X14334441Y62754200D01*
X14325066Y63331503D01*
X14325069Y63331677D01*
X14325061Y63331839D01*
X14315686Y63934067D01*
X14315689Y63934241D01*
X14315680Y63934432D01*
X14306306Y64566255D01*
X14306309Y64566441D01*
X14306300Y64566643D01*
X14296925Y65233488D01*
X14296929Y65233704D01*
X14296920Y65233899D01*
X14287545Y65942156D01*
X14287549Y65942361D01*
X14287539Y65942585D01*
X14278164Y66699870D01*
X14278168Y66700095D01*
X14278159Y66700311D01*
X14268784Y67515821D01*
X14268788Y67516046D01*
X14268779Y67516272D01*
X14259404Y68401265D01*
X14259408Y68401486D01*
X14259399Y68401721D01*
X14250024Y69370160D01*
X14250537Y69398029D01*
X14250536Y69398115D01*
X14250539Y69398143D01*
X14250540Y69398201D01*
X14253586Y69427807D01*
X14256264Y69453892D01*
X14256273Y69453929D01*
X14256277Y69453977D01*
X14262157Y69480937D01*
X14268201Y69508677D01*
X14268217Y69508724D01*
X14268225Y69508761D01*
X14276824Y69534118D01*
X14286198Y69561781D01*
X14286216Y69561818D01*
X14286230Y69561861D01*
X14298964Y69588971D01*
X14310027Y69612535D01*
X14310048Y69612568D01*
X14310068Y69612612D01*
X14325977Y69638483D01*
X14339390Y69660304D01*
X14339416Y69660336D01*
X14339439Y69660375D01*
X14357089Y69682951D01*
X14373915Y69704483D01*
X14373946Y69704514D01*
X14373972Y69704548D01*
X14393038Y69723986D01*
X14413171Y69744520D01*
X14413207Y69744548D01*
X14413235Y69744578D01*
X14434911Y69762210D01*
X14456661Y69779909D01*
X14456696Y69779931D01*
X14456731Y69779960D01*
X14480098Y69794959D01*
X14503842Y69810208D01*
X14503884Y69810228D01*
X14503917Y69810250D01*
X14528957Y69822608D01*
X14554117Y69835032D01*
X14554155Y69835045D01*
X14554196Y69835066D01*
X14581866Y69845050D01*
X14606856Y69854072D01*
X14606897Y69854081D01*
X14606939Y69854097D01*
X14633973Y69860543D01*
X14661395Y69867087D01*
X14661441Y69867092D01*
X14661480Y69867102D01*
X14686632Y69870182D01*
X14717049Y69873913D01*
X14717115Y69873915D01*
X14717135Y69873918D01*
X14717197Y69873918D01*
X14745075Y69874976D01*
X15696518Y69884351D01*
X15696523Y69884350D01*
X16567067Y69893718D01*
X17370963Y69903085D01*
X17370964Y69903086D01*
X18119855Y69912461D01*
X18119870Y69912460D01*
X18821212Y69921824D01*
X18821221Y69921825D01*
X19483746Y69931194D01*
X19483754Y69931195D01*
X20113632Y69940570D01*
X20113656Y69940569D01*
X20715406Y69949938D01*
X21293916Y69959304D01*
X21293932Y69959305D01*
X21853649Y69968676D01*
X22398069Y69978051D01*
X22398087Y69978050D01*
X22929778Y69987418D01*
X22929805Y69987420D01*
X23452394Y69996792D01*
X23452396Y69996793D01*
X23968455Y70006168D01*
X23968480Y70006167D01*
X24480343Y70015540D01*
X24480361Y70015541D01*
X24990819Y70024916D01*
X24990833Y70024915D01*
X24990835Y70024916D01*
X25502214Y70034291D01*
X25502246Y70034290D01*
X25502275Y70034292D01*
X26017052Y70043667D01*
X26017101Y70043666D01*
X26017156Y70043669D01*
X26537865Y70053044D01*
X26537931Y70053043D01*
X26538011Y70053047D01*
X27067292Y70062422D01*
X27067389Y70062420D01*
X27067478Y70062425D01*
X27608136Y70071800D01*
X27608245Y70071798D01*
X27608361Y70071804D01*
X28163424Y70081179D01*
X28163560Y70081177D01*
X28163685Y70081183D01*
X28736478Y70090558D01*
X28736620Y70090556D01*
X28736773Y70090563D01*
X29331000Y70099938D01*
X29331163Y70099935D01*
X29331326Y70099943D01*
X29951179Y70109318D01*
X29951359Y70109315D01*
X29951532Y70109323D01*
X30601819Y70118698D01*
X30602013Y70118695D01*
X30602197Y70118703D01*
X31288501Y70128077D01*
X31288687Y70128074D01*
X31288900Y70128083D01*
X32017796Y70137458D01*
X32018007Y70137454D01*
X32018213Y70137463D01*
X32797539Y70146838D01*
X32797753Y70146834D01*
X32797968Y70146843D01*
X33637187Y70156219D01*
X33637401Y70156215D01*
X33637626Y70156224D01*
X34548318Y70165599D01*
X34548546Y70165594D01*
X34548762Y70165603D01*
X35545297Y70174977D01*
X35573203Y70174456D01*
G37*
%TD.AperFunction*%
%TD*%
D11*
%TO.N,/+5V_ISO*%
%TO.C,J2*%
X27500000Y8000000D03*
D12*
%TO.N,/GND_ISO*%
X22500000Y8000000D03*
%TD*%
D13*
%TO.N,/VIN*%
%TO.C,T1*%
X28621977Y71193193D03*
%TO.N,/SW*%
X21378023Y71193193D03*
%TO.N,/GND_ISO*%
X23169595Y32408661D03*
%TO.N,/SEC_A*%
X26075000Y37553499D03*
%TO.N,unconnected-(T1-P_MID-Pad5)*%
X25000000Y66525000D03*
%TD*%
D11*
%TO.N,/VIN_RAW*%
%TO.C,J1*%
X22500000Y97000000D03*
D12*
%TO.N,/PGND*%
X27500000Y97000000D03*
%TD*%
D14*
%TO.N,/GND_ISO*%
X36000000Y25000000D03*
X32000000Y7000000D03*
X17000000Y14000000D03*
X32000000Y14000000D03*
X17000000Y25000000D03*
D15*
X23169595Y30500000D03*
D14*
X36000000Y29000000D03*
X15000000Y29000000D03*
D16*
X33200000Y23000000D03*
D15*
X13200000Y18500000D03*
D14*
X25000000Y11000000D03*
X19000000Y29000000D03*
X16000000Y7000000D03*
X37500000Y22000000D03*
X36000000Y14000000D03*
X12000000Y14000000D03*
D15*
X34000000Y17037500D03*
D14*
X24000000Y22000000D03*
X37000000Y9000000D03*
X12000000Y22000000D03*
X25000000Y5500000D03*
X20500000Y14200000D03*
D15*
X32975000Y25880000D03*
X22269595Y30500000D03*
D14*
X12000000Y29000000D03*
D15*
X23200000Y18500000D03*
D14*
%TO.N,/PGND*%
X39500000Y95000000D03*
X28000000Y83000000D03*
D16*
X17400000Y74350000D03*
D14*
X22475000Y79200000D03*
X13898500Y76095000D03*
X9500000Y82000000D03*
X10500000Y73600000D03*
X40000000Y83000000D03*
X9500000Y73000000D03*
X39200000Y88000000D03*
X29000000Y79475000D03*
X17300000Y78550000D03*
X9500000Y97000000D03*
X11500000Y83500000D03*
X16000000Y74500000D03*
X37000000Y74000000D03*
X38000000Y83000000D03*
X17300000Y77450000D03*
X24000000Y84500000D03*
X15700000Y77450000D03*
X25000000Y87000000D03*
X10725000Y78800000D03*
X39000000Y74000000D03*
X10000000Y85000000D03*
X15700000Y78550000D03*
X39000000Y79000000D03*
X9500000Y94000000D03*
X9025000Y76365000D03*
X19325000Y86000000D03*
D15*
%TO.N,/SEC_A*%
X25550000Y29862000D03*
X26450000Y29862000D03*
D17*
%TO.N,/VIN*%
X13000000Y90150000D03*
D14*
X14675000Y86000000D03*
D17*
X11975000Y76365000D03*
X29000000Y76525000D03*
%TD*%
M02*
