%TF.GenerationSoftware,KiCad,Pcbnew,10.0.6*%
%TF.CreationDate,2026-10-08T10:25:58-04:00*%
%TF.ProjectId,PS-FLYBACK-5W,50532d46-4c59-4424-9143-4b2d35572e6b,A2-development*%
%TF.SameCoordinates,Original*%
%TF.FileFunction,Copper,L5,Inr*%
%TF.FilePolarity,Positive*%
%FSLAX46Y46*%
G04 Gerber Fmt 4.6, Leading zero omitted, Abs format (unit mm)*
G04 Created by KiCad (PCBNEW 10.0.6) date 2026-10-08 10:25:58*
%MOMM*%
%LPD*%
G01*
G04 APERTURE LIST*
%TA.AperFunction,EtchedComponent*%
%ADD10C,0.000000*%
%TD*%
%TA.AperFunction,ComponentPad*%
%ADD11R,2.400000X2.400000*%
%TD*%
%TA.AperFunction,ComponentPad*%
%ADD12C,2.400000*%
%TD*%
%TA.AperFunction,ComponentPad*%
%ADD13C,0.600000*%
%TD*%
%TA.AperFunction,ViaPad*%
%ADD14C,0.600000*%
%TD*%
%TA.AperFunction,ViaPad*%
%ADD15C,0.900000*%
%TD*%
%TA.AperFunction,ViaPad*%
%ADD16C,1.200000*%
%TD*%
%TA.AperFunction,ViaPad*%
%ADD17C,0.800000*%
%TD*%
G04 APERTURE END LIST*
D10*
%TA.AperFunction,EtchedComponent*%
%TO.C,T1*%
G36*
X31520378Y64299302D02*
G01*
X31520437Y64299303D01*
X31520456Y64299300D01*
X31520495Y64299299D01*
X31543394Y64295910D01*
X31567007Y64292421D01*
X31567035Y64292412D01*
X31567063Y64292408D01*
X31587647Y64285950D01*
X31611927Y64278339D01*
X31611956Y64278324D01*
X31611980Y64278317D01*
X31629261Y64269732D01*
X31654091Y64257403D01*
X31654117Y64257384D01*
X31654140Y64257373D01*
X31671700Y64244885D01*
X31692460Y64230129D01*
X31692481Y64230108D01*
X31692504Y64230092D01*
X31708425Y64214490D01*
X31726091Y64197188D01*
X31726109Y64197163D01*
X31726129Y64197144D01*
X31741129Y64176933D01*
X31754154Y64159392D01*
X31754165Y64159370D01*
X31754185Y64159344D01*
X31766329Y64136095D01*
X31775959Y64117671D01*
X31775967Y64117645D01*
X31775982Y64117618D01*
X31783998Y64093773D01*
X31790970Y64073053D01*
X31790974Y64073026D01*
X31790984Y64072998D01*
X31794931Y64049612D01*
X31798815Y64026636D01*
X31798816Y64026597D01*
X31798820Y64026579D01*
X31798820Y64026524D01*
X31799984Y64003109D01*
X31806231Y63400316D01*
X31812481Y62848065D01*
X31812480Y62848051D01*
X31818723Y62338591D01*
X31818724Y62338583D01*
X31824974Y61863814D01*
X31831216Y61419152D01*
X31831217Y61419140D01*
X31837467Y60998827D01*
X31843709Y60599881D01*
X31843710Y60599872D01*
X31849956Y60218206D01*
X31849957Y60218202D01*
X31856203Y59851142D01*
X31862451Y59496141D01*
X31868698Y59150947D01*
X31868699Y59150940D01*
X31874947Y58813501D01*
X31881197Y58481889D01*
X31881196Y58481873D01*
X31887443Y58154583D01*
X31893694Y57829701D01*
X31893637Y57826906D01*
X31893750Y57824096D01*
X31899998Y46502948D01*
X31906194Y46181232D01*
X31906193Y46181217D01*
X31906195Y46181194D01*
X31912445Y45854463D01*
X31912444Y45854427D01*
X31912446Y45854397D01*
X31918695Y45523873D01*
X31918694Y45523832D01*
X31918697Y45523782D01*
X31924948Y45187786D01*
X31924946Y45187725D01*
X31924950Y45187668D01*
X31931200Y44844421D01*
X31931198Y44844355D01*
X31931203Y44844278D01*
X31937453Y44491857D01*
X31937451Y44491776D01*
X31937456Y44491691D01*
X31943706Y44127983D01*
X31943703Y44127888D01*
X31943709Y44127796D01*
X31949958Y43750447D01*
X31949955Y43750341D01*
X31949961Y43750243D01*
X31956211Y43356591D01*
X31956208Y43356487D01*
X31956215Y43356368D01*
X31962465Y42943360D01*
X31962461Y42943234D01*
X31962468Y42943121D01*
X31968718Y42507207D01*
X31968715Y42507088D01*
X31968722Y42506955D01*
X31974972Y42043958D01*
X31974968Y42043821D01*
X31974975Y42043695D01*
X31981225Y41548636D01*
X31981221Y41548497D01*
X31981228Y41548365D01*
X31987478Y41015227D01*
X31987474Y41015089D01*
X31987481Y41014952D01*
X31993732Y40436380D01*
X31993728Y40436242D01*
X31993735Y40436100D01*
X31999984Y39802961D01*
X31999294Y39779505D01*
X31999295Y39779469D01*
X31999293Y39779458D01*
X31999292Y39779415D01*
X31995520Y39753981D01*
X31992399Y39732901D01*
X31992391Y39732876D01*
X31992387Y39732848D01*
X31983816Y39705558D01*
X31978302Y39687987D01*
X31978293Y39687971D01*
X31978283Y39687936D01*
X31964974Y39661166D01*
X31957353Y39645829D01*
X31957340Y39645813D01*
X31957326Y39645782D01*
X31940697Y39622414D01*
X31930067Y39607469D01*
X31930051Y39607454D01*
X31930033Y39607427D01*
X31911704Y39588734D01*
X31897116Y39573848D01*
X31897095Y39573833D01*
X31897075Y39573812D01*
X31877389Y39559210D01*
X31859312Y39545796D01*
X31859288Y39545784D01*
X31859266Y39545767D01*
X31836414Y39533838D01*
X31817584Y39524004D01*
X31817561Y39523997D01*
X31817534Y39523982D01*
X31790791Y39515001D01*
X31772961Y39509008D01*
X31772940Y39509005D01*
X31772909Y39508994D01*
X31746441Y39504535D01*
X31726541Y39501177D01*
X31726508Y39501176D01*
X31726488Y39501172D01*
X31726427Y39501172D01*
X31703014Y39500015D01*
X31081260Y39493766D01*
X30512355Y39487521D01*
X29986799Y39481275D01*
X29986795Y39481274D01*
X29497331Y39475024D01*
X29497318Y39475025D01*
X29038889Y39468782D01*
X29038882Y39468781D01*
X28605595Y39462531D01*
X28605580Y39462532D01*
X28194323Y39456289D01*
X28194319Y39456288D01*
X27800894Y39450042D01*
X27800894Y39450041D01*
X27422377Y39443791D01*
X27422373Y39443792D01*
X27056661Y39437547D01*
X27056649Y39437546D01*
X26700875Y39431299D01*
X26700872Y39431298D01*
X26353020Y39425048D01*
X26353014Y39425049D01*
X26011466Y39418802D01*
X26011459Y39418801D01*
X25674066Y39412551D01*
X25674061Y39412552D01*
X25339355Y39406302D01*
X25339337Y39406303D01*
X25300000Y39405566D01*
X25300000Y38400000D01*
X25299075Y38376462D01*
X25298808Y38374779D01*
X25298789Y38373075D01*
X25295127Y38351537D01*
X25291711Y38329966D01*
X25291184Y38328347D01*
X25290899Y38326665D01*
X25283902Y38305934D01*
X25277164Y38285195D01*
X25276392Y38283680D01*
X25275846Y38282062D01*
X25265691Y38262680D01*
X25255792Y38243250D01*
X25254791Y38241874D01*
X25254000Y38240362D01*
X25240951Y38222825D01*
X25228122Y38205166D01*
X25226917Y38203962D01*
X25225900Y38202594D01*
X25210273Y38187318D01*
X25194834Y38171878D01*
X25193456Y38170878D01*
X25192237Y38169685D01*
X25174399Y38157031D01*
X25156750Y38144208D01*
X25155234Y38143436D01*
X25153842Y38142448D01*
X25134251Y38132745D01*
X25114805Y38122836D01*
X25113183Y38122310D01*
X25111657Y38121553D01*
X25090806Y38115039D01*
X25070034Y38108289D01*
X25068351Y38108023D01*
X25066724Y38107514D01*
X25045081Y38104338D01*
X25023538Y38100925D01*
X25021837Y38100925D01*
X25020148Y38100677D01*
X24996601Y38100019D01*
X24813129Y38102098D01*
X24809734Y38102271D01*
X24806337Y38102252D01*
X24622959Y38108485D01*
X24619566Y38108735D01*
X24616169Y38108793D01*
X24432979Y38119179D01*
X24429604Y38119504D01*
X24426200Y38119640D01*
X24243292Y38134172D01*
X24239919Y38134574D01*
X24236523Y38134787D01*
X24053991Y38153459D01*
X24050626Y38153938D01*
X24047240Y38154227D01*
X23865178Y38177028D01*
X23861821Y38177584D01*
X23858445Y38177949D01*
X23676946Y38204868D01*
X23673610Y38205498D01*
X23670234Y38205941D01*
X23489392Y38236965D01*
X23466349Y38241857D01*
X23421768Y38256977D01*
X23380101Y38278884D01*
X23342374Y38307041D01*
X23309517Y38340752D01*
X23282336Y38379189D01*
X23261504Y38421403D01*
X23247532Y38466358D01*
X23240765Y38512944D01*
X23241368Y38560015D01*
X23249328Y38606414D01*
X23264448Y38650995D01*
X23286355Y38692662D01*
X23314512Y38730389D01*
X23348223Y38763246D01*
X23386660Y38790427D01*
X23428874Y38811259D01*
X23473829Y38825231D01*
X23520415Y38831998D01*
X23567486Y38831395D01*
X23590842Y38828327D01*
X23768349Y38797876D01*
X23943102Y38771957D01*
X24118427Y38750000D01*
X24294202Y38732019D01*
X24470352Y38718024D01*
X24646731Y38708024D01*
X24700000Y38706214D01*
X24700000Y39700000D01*
X24700592Y39715043D01*
X24700537Y39717934D01*
X24700771Y39719613D01*
X24700925Y39723538D01*
X24704171Y39744030D01*
X24707029Y39764560D01*
X24707849Y39767253D01*
X24708289Y39770034D01*
X24714697Y39789753D01*
X24720735Y39809596D01*
X24721967Y39812130D01*
X24722836Y39814805D01*
X24732250Y39833280D01*
X24741318Y39851933D01*
X24742930Y39854241D01*
X24744208Y39856750D01*
X24756397Y39873526D01*
X24768270Y39890529D01*
X24770225Y39892558D01*
X24771878Y39894834D01*
X24786540Y39909496D01*
X24800929Y39924434D01*
X24803175Y39926131D01*
X24805166Y39928122D01*
X24821946Y39940314D01*
X24838488Y39952812D01*
X24840972Y39954137D01*
X24843250Y39955792D01*
X24861733Y39965210D01*
X24880026Y39974966D01*
X24882687Y39975886D01*
X24885195Y39977164D01*
X24904912Y39983571D01*
X24924517Y39990349D01*
X24927291Y39990842D01*
X24929966Y39991711D01*
X24950442Y39994954D01*
X24970867Y39998582D01*
X24974786Y39998810D01*
X24976462Y39999075D01*
X24979360Y39999075D01*
X24994383Y39999947D01*
X25328137Y40006197D01*
X25328155Y40006198D01*
X25662910Y40012448D01*
X25662929Y40012448D01*
X25662954Y40012449D01*
X26000347Y40018699D01*
X26000385Y40018699D01*
X26000417Y40018700D01*
X26342145Y40024950D01*
X26342190Y40024950D01*
X26342242Y40024952D01*
X26690094Y40031202D01*
X26690156Y40031201D01*
X26690215Y40031204D01*
X27046114Y40037454D01*
X27046193Y40037453D01*
X27046259Y40037456D01*
X27412302Y40043706D01*
X27412384Y40043705D01*
X27412471Y40043709D01*
X27790989Y40049959D01*
X27791084Y40049957D01*
X27791178Y40049962D01*
X28184793Y40056212D01*
X28184900Y40056210D01*
X28185002Y40056215D01*
X28596714Y40062465D01*
X28596819Y40062463D01*
X28596941Y40062469D01*
X29030228Y40068719D01*
X29030354Y40068716D01*
X29030470Y40068722D01*
X29489416Y40074972D01*
X29489535Y40074969D01*
X29489671Y40074976D01*
X29979134Y40081226D01*
X29979269Y40081223D01*
X29979399Y40081229D01*
X30505240Y40087479D01*
X30505378Y40087476D01*
X30505513Y40087482D01*
X31074897Y40093732D01*
X31075035Y40093729D01*
X31075175Y40093735D01*
X31397053Y40096971D01*
X31393765Y40430178D01*
X31387517Y41008470D01*
X31381270Y41541331D01*
X31375026Y42035859D01*
X31368776Y42498857D01*
X31368776Y42498867D01*
X31362533Y42934281D01*
X31356283Y43347290D01*
X31356283Y43347302D01*
X31350037Y43740717D01*
X31343791Y44117862D01*
X31337544Y44481383D01*
X31337544Y44481385D01*
X31331297Y44833640D01*
X31331297Y44833650D01*
X31325050Y45176744D01*
X31318801Y45512622D01*
X31318801Y45512630D01*
X31312554Y45843055D01*
X31306305Y46169718D01*
X31306305Y46169725D01*
X31300056Y46494224D01*
X31300111Y46497024D01*
X31300000Y46499834D01*
X31293751Y57820989D01*
X31287555Y58143041D01*
X31287555Y58143062D01*
X31287554Y58143087D01*
X31281305Y58470511D01*
X31281305Y58470538D01*
X31281303Y58470583D01*
X31275053Y58802195D01*
X31275053Y58802242D01*
X31275051Y58802294D01*
X31268801Y59139832D01*
X31268802Y59139898D01*
X31268799Y59139957D01*
X31262549Y59485283D01*
X31262550Y59485353D01*
X31262546Y59485433D01*
X31256295Y59840584D01*
X31256296Y59840671D01*
X31256292Y59840759D01*
X31250043Y60207994D01*
X31250045Y60208094D01*
X31250040Y60208189D01*
X31243790Y60590054D01*
X31243792Y60590167D01*
X31243787Y60590269D01*
X31237537Y60989672D01*
X31237539Y60989783D01*
X31237533Y60989906D01*
X31231283Y61410220D01*
X31231286Y61410352D01*
X31231280Y61410469D01*
X31225030Y61855654D01*
X31225033Y61855779D01*
X31225026Y61855916D01*
X31218776Y62330685D01*
X31218779Y62330827D01*
X31218773Y62330958D01*
X31212523Y62840994D01*
X31212526Y62841125D01*
X31212519Y62841275D01*
X31206269Y63393526D01*
X31206273Y63393670D01*
X31206266Y63393813D01*
X31203124Y63696965D01*
X30888857Y63693768D01*
X30327781Y63687522D01*
X30327777Y63687522D01*
X29810734Y63681275D01*
X29810725Y63681275D01*
X29330359Y63675025D01*
X29330352Y63675025D01*
X28881392Y63668779D01*
X28881388Y63668779D01*
X28458971Y63662535D01*
X28458956Y63662535D01*
X28058256Y63656286D01*
X28058250Y63656286D01*
X27676586Y63650040D01*
X27676576Y63650040D01*
X27310929Y63643797D01*
X27310923Y63643797D01*
X26958278Y63637550D01*
X26616428Y63631300D01*
X26616421Y63631300D01*
X26283771Y63625055D01*
X26283764Y63625055D01*
X25957884Y63618805D01*
X25957880Y63618805D01*
X25637501Y63612558D01*
X25637493Y63612558D01*
X25320634Y63606308D01*
X25320628Y63606308D01*
X25005973Y63600059D01*
X25005968Y63600059D01*
X24691864Y63593809D01*
X24691852Y63593809D01*
X24691847Y63593809D01*
X24376838Y63587559D01*
X24376817Y63587559D01*
X24376793Y63587558D01*
X24059336Y63581308D01*
X24059294Y63581308D01*
X24059262Y63581307D01*
X23737765Y63575057D01*
X23737715Y63575058D01*
X23737663Y63575055D01*
X23410441Y63568805D01*
X23410384Y63568806D01*
X23410312Y63568802D01*
X23075557Y63562552D01*
X23075483Y63562553D01*
X23075403Y63562549D01*
X22731144Y63556299D01*
X22731052Y63556300D01*
X22730965Y63556296D01*
X22375011Y63550046D01*
X22374905Y63550048D01*
X22374810Y63550043D01*
X22004695Y63543793D01*
X22004589Y63543795D01*
X22004473Y63543789D01*
X21617379Y63537539D01*
X21617262Y63537541D01*
X21617139Y63537535D01*
X21209797Y63531285D01*
X21209671Y63531288D01*
X21209540Y63531281D01*
X20778117Y63525031D01*
X20777972Y63525034D01*
X20777846Y63525028D01*
X20317771Y63518778D01*
X20317635Y63518781D01*
X20317490Y63518774D01*
X19823259Y63512524D01*
X19823120Y63512527D01*
X19822969Y63512520D01*
X19287853Y63506270D01*
X19287701Y63506274D01*
X19287557Y63506267D01*
X19003131Y63503224D01*
X19006231Y63207770D01*
X19006231Y63207767D01*
X19012478Y62663764D01*
X19012478Y62663755D01*
X19018724Y62162518D01*
X19024970Y61697125D01*
X19031216Y61261917D01*
X19037462Y60852202D01*
X19043708Y60464050D01*
X19049954Y60094118D01*
X19056201Y59739543D01*
X19056201Y59739531D01*
X19062447Y59397788D01*
X19062447Y59397783D01*
X19068694Y59066657D01*
X19074944Y58744039D01*
X19081189Y58428501D01*
X19087439Y58117992D01*
X19087439Y58117983D01*
X19093687Y57811042D01*
X19099938Y57506149D01*
X19099882Y57503156D01*
X19100001Y57500166D01*
X19106249Y46198870D01*
X19112437Y45896729D01*
X19112437Y45896707D01*
X19112438Y45896683D01*
X19118689Y45589196D01*
X19118689Y45589163D01*
X19118691Y45589118D01*
X19124940Y45277736D01*
X19124939Y45277684D01*
X19124942Y45277633D01*
X19131193Y44960725D01*
X19131192Y44960651D01*
X19131195Y44960591D01*
X19137444Y44636409D01*
X19137443Y44636330D01*
X19137447Y44636250D01*
X19143697Y44302882D01*
X19143696Y44302798D01*
X19143701Y44302698D01*
X19149951Y43958026D01*
X19149949Y43957913D01*
X19149954Y43957818D01*
X19156204Y43599455D01*
X19156202Y43599341D01*
X19156208Y43599225D01*
X19162458Y43224440D01*
X19162456Y43224316D01*
X19162462Y43224192D01*
X19168712Y42829824D01*
X19168709Y42829692D01*
X19168716Y42829560D01*
X19174966Y42411895D01*
X19174963Y42411755D01*
X19174970Y42411615D01*
X19181220Y41966235D01*
X19181217Y41966091D01*
X19181224Y41965945D01*
X19187474Y41487520D01*
X19187471Y41487374D01*
X19187478Y41487221D01*
X19193728Y40969237D01*
X19193725Y40969092D01*
X19193732Y40968933D01*
X19196668Y40703232D01*
X19473382Y40706229D01*
X19473390Y40706229D01*
X20000561Y40712480D01*
X20000564Y40712480D01*
X20485862Y40718724D01*
X20936379Y40724968D01*
X21357808Y40731213D01*
X21357810Y40731213D01*
X21754538Y40737459D01*
X21754541Y40737459D01*
X22130622Y40743710D01*
X22130641Y40743710D01*
X22488583Y40749951D01*
X22831831Y40756196D01*
X22831849Y40756197D01*
X23162882Y40762447D01*
X23162894Y40762447D01*
X23483247Y40768690D01*
X23483248Y40768690D01*
X23795551Y40774940D01*
X23795560Y40774940D01*
X24100965Y40781185D01*
X24100967Y40781185D01*
X24401499Y40787434D01*
X24401512Y40787434D01*
X24698623Y40793684D01*
X24698625Y40793684D01*
X24993647Y40799933D01*
X24993666Y40799933D01*
X25288087Y40806182D01*
X25288088Y40806182D01*
X25288105Y40806183D01*
X25583368Y40812433D01*
X25583392Y40812433D01*
X25583416Y40812434D01*
X25880934Y40818684D01*
X25880981Y40818684D01*
X25881012Y40818685D01*
X26182279Y40824935D01*
X26182323Y40824935D01*
X26182387Y40824938D01*
X26488980Y40831188D01*
X26489057Y40831187D01*
X26489116Y40831190D01*
X26802726Y40837440D01*
X26802798Y40837439D01*
X26802891Y40837444D01*
X27125367Y40843694D01*
X27125470Y40843692D01*
X27125557Y40843697D01*
X27458947Y40849947D01*
X27459053Y40849945D01*
X27459161Y40849951D01*
X27805775Y40856201D01*
X27805895Y40856199D01*
X27806012Y40856205D01*
X28168487Y40862455D01*
X28168606Y40862453D01*
X28168743Y40862460D01*
X28550138Y40868710D01*
X28550279Y40868707D01*
X28550412Y40868714D01*
X28954316Y40874964D01*
X28954464Y40874961D01*
X28954605Y40874968D01*
X29385291Y40881218D01*
X29385430Y40881215D01*
X29385591Y40881223D01*
X29848210Y40887473D01*
X29848365Y40887469D01*
X29848520Y40887477D01*
X30349369Y40893727D01*
X30349536Y40893723D01*
X30349684Y40893730D01*
X30596660Y40896553D01*
X30593768Y41154858D01*
X30593768Y41154861D01*
X30587522Y41664578D01*
X30581276Y42134178D01*
X30575034Y42569855D01*
X30568784Y42977811D01*
X30568784Y42977820D01*
X30562543Y43361275D01*
X30556293Y43725047D01*
X30556293Y43725058D01*
X30550048Y44071443D01*
X30543803Y44403431D01*
X30537556Y44723357D01*
X30537556Y44723363D01*
X30531311Y45033304D01*
X30525063Y45335127D01*
X30525063Y45335132D01*
X30518817Y45630528D01*
X30512569Y45921069D01*
X30512569Y45921078D01*
X30506320Y46208231D01*
X30506320Y46208233D01*
X30500072Y46493429D01*
X30500127Y46496632D01*
X30500000Y46499834D01*
X30493750Y57781268D01*
X30487572Y58063451D01*
X30487572Y58063475D01*
X30487571Y58063499D01*
X30481321Y58351048D01*
X30481321Y58351084D01*
X30481319Y58351128D01*
X30475068Y58642278D01*
X30475069Y58642340D01*
X30475066Y58642392D01*
X30468817Y58938670D01*
X30468818Y58938738D01*
X30468814Y58938809D01*
X30462563Y59241848D01*
X30462564Y59241926D01*
X30462559Y59242019D01*
X30456310Y59553604D01*
X30456311Y59553699D01*
X30456306Y59553799D01*
X30450056Y59875907D01*
X30450058Y59876020D01*
X30450052Y59876129D01*
X30443802Y60210993D01*
X30443804Y60211120D01*
X30443798Y60211237D01*
X30437548Y60561403D01*
X30437550Y60561530D01*
X30437543Y60561668D01*
X30431293Y60930090D01*
X30431296Y60930227D01*
X30431288Y60930374D01*
X30425038Y61320517D01*
X30425041Y61320674D01*
X30425034Y61320815D01*
X30418784Y61736807D01*
X30418787Y61736956D01*
X30418779Y61737118D01*
X30412529Y62183931D01*
X30412533Y62184094D01*
X30412525Y62184251D01*
X30406275Y62667967D01*
X30406279Y62668130D01*
X30406271Y62668293D01*
X30403569Y62896545D01*
X30164145Y62893771D01*
X29671741Y62887528D01*
X29671739Y62887528D01*
X29217631Y62881277D01*
X29217623Y62881277D01*
X28796359Y62875033D01*
X28796356Y62875033D01*
X28402473Y62868788D01*
X28032021Y62862548D01*
X28032003Y62862547D01*
X27680541Y62856297D01*
X27680538Y62856297D01*
X27345904Y62850052D01*
X27345897Y62850052D01*
X27025435Y62843811D01*
X27025428Y62843811D01*
X26716314Y62837563D01*
X26416812Y62831315D01*
X26416802Y62831315D01*
X26125449Y62825072D01*
X25840151Y62818824D01*
X25840141Y62818824D01*
X25559462Y62812574D01*
X25559456Y62812574D01*
X25282225Y62806327D01*
X25282223Y62806327D01*
X25006806Y62800077D01*
X25006789Y62800077D01*
X24732018Y62793828D01*
X24732001Y62793827D01*
X24456484Y62787577D01*
X24456457Y62787577D01*
X24456433Y62787576D01*
X24178853Y62781326D01*
X24178814Y62781326D01*
X24178770Y62781324D01*
X23897734Y62775074D01*
X23897670Y62775075D01*
X23897619Y62775072D01*
X23611656Y62768822D01*
X23611595Y62768823D01*
X23611511Y62768818D01*
X23319045Y62762568D01*
X23318948Y62762569D01*
X23318869Y62762565D01*
X23018176Y62756315D01*
X23018073Y62756316D01*
X23017973Y62756311D01*
X22707146Y62750061D01*
X22707037Y62750063D01*
X22706916Y62750056D01*
X22383804Y62743806D01*
X22383681Y62743808D01*
X22383551Y62743801D01*
X22045694Y62737551D01*
X22045557Y62737553D01*
X22045419Y62737546D01*
X21689971Y62731296D01*
X21689825Y62731299D01*
X21689678Y62731291D01*
X21313295Y62725041D01*
X21313141Y62725044D01*
X21312986Y62725036D01*
X20911689Y62718786D01*
X20911517Y62718790D01*
X20911366Y62718782D01*
X20480359Y62712532D01*
X20480198Y62712535D01*
X20480027Y62712527D01*
X20013444Y62706277D01*
X20013272Y62706281D01*
X20013107Y62706273D01*
X19803579Y62703701D01*
X19806225Y62483187D01*
X19806225Y62483185D01*
X19812471Y62007761D01*
X19812471Y62007751D01*
X19818716Y61569780D01*
X19824961Y61163206D01*
X19831211Y60782770D01*
X19831211Y60782754D01*
X19837450Y60425297D01*
X19837450Y60425295D01*
X19843695Y60086416D01*
X19843695Y60086415D01*
X19849940Y59763516D01*
X19856184Y59454087D01*
X19862430Y59155942D01*
X19862430Y59155935D01*
X19868677Y58867118D01*
X19874923Y58585916D01*
X19874923Y58585909D01*
X19881171Y58310718D01*
X19887418Y58040092D01*
X19893667Y57772655D01*
X19893667Y57772651D01*
X19899918Y57507058D01*
X19899864Y57503611D01*
X19900001Y57500166D01*
X19906249Y46238635D01*
X19912418Y45976435D01*
X19912418Y45976405D01*
X19912419Y45976381D01*
X19918668Y45708770D01*
X19918668Y45708729D01*
X19918670Y45708686D01*
X19924920Y45437766D01*
X19924920Y45437711D01*
X19924923Y45437648D01*
X19931174Y45162000D01*
X19931173Y45161919D01*
X19931177Y45161848D01*
X19937426Y44879953D01*
X19937425Y44879865D01*
X19937430Y44879774D01*
X19943681Y44589974D01*
X19943680Y44589874D01*
X19943686Y44589761D01*
X19949935Y44290215D01*
X19949933Y44290100D01*
X19949940Y44289979D01*
X19956190Y43978615D01*
X19956188Y43978483D01*
X19956195Y43978353D01*
X19962445Y43652805D01*
X19962443Y43652659D01*
X19962450Y43652521D01*
X19968700Y43310046D01*
X19968697Y43309889D01*
X19968705Y43309742D01*
X19974955Y42947119D01*
X19974952Y42946967D01*
X19974961Y42946798D01*
X19981211Y42560196D01*
X19981208Y42560027D01*
X19981216Y42559862D01*
X19987466Y42144659D01*
X19987462Y42144488D01*
X19987471Y42144315D01*
X19993721Y41694868D01*
X19993717Y41694697D01*
X19993726Y41694517D01*
X19996157Y41503711D01*
X20198291Y41506227D01*
X20198296Y41506227D01*
X20656422Y41512470D01*
X21078377Y41518712D01*
X21078378Y41518712D01*
X21470577Y41524963D01*
X21470586Y41524963D01*
X21836590Y41531201D01*
X21836601Y41531201D01*
X22181704Y41537451D01*
X22181709Y41537451D01*
X22507948Y41543690D01*
X22507959Y41543690D01*
X22819359Y41549940D01*
X22819372Y41549940D01*
X23117255Y41556180D01*
X23404701Y41562429D01*
X23404708Y41562429D01*
X23682723Y41568670D01*
X23682725Y41568670D01*
X23953603Y41574917D01*
X23953615Y41574917D01*
X24218804Y41581167D01*
X24218807Y41581167D01*
X24479336Y41587412D01*
X24479338Y41587412D01*
X24700000Y41592766D01*
X24700000Y42200000D01*
X24700703Y42217882D01*
X24700677Y42220147D01*
X24700834Y42221215D01*
X24700925Y42223538D01*
X24704340Y42245095D01*
X24707514Y42266723D01*
X24708023Y42268350D01*
X24708289Y42270034D01*
X24715047Y42290832D01*
X24721553Y42311656D01*
X24722309Y42313181D01*
X24722836Y42314805D01*
X24732763Y42334287D01*
X24742448Y42353841D01*
X24743435Y42355232D01*
X24744208Y42356750D01*
X24757039Y42374410D01*
X24769684Y42392236D01*
X24770878Y42393457D01*
X24771878Y42394834D01*
X24787317Y42410273D01*
X24802593Y42425899D01*
X24803961Y42426917D01*
X24805166Y42428122D01*
X24822840Y42440963D01*
X24840361Y42453999D01*
X24841871Y42454791D01*
X24843250Y42455792D01*
X24862713Y42465709D01*
X24882061Y42475845D01*
X24883677Y42476391D01*
X24885195Y42477164D01*
X24905987Y42483920D01*
X24926664Y42490898D01*
X24928342Y42491184D01*
X24929966Y42491711D01*
X24951563Y42495132D01*
X24973074Y42498789D01*
X24975401Y42498907D01*
X24976462Y42499075D01*
X24978719Y42499075D01*
X24996600Y42499981D01*
X25090607Y42501047D01*
X25181174Y42504126D01*
X25271642Y42509254D01*
X25361914Y42516427D01*
X25452091Y42525651D01*
X25541983Y42536909D01*
X25631636Y42550206D01*
X25724277Y42566098D01*
X25747632Y42569166D01*
X25794704Y42569769D01*
X25841290Y42563001D01*
X25886244Y42549029D01*
X25928458Y42528197D01*
X25966895Y42501016D01*
X26000606Y42468159D01*
X26028762Y42430431D01*
X26050670Y42388764D01*
X26065789Y42344183D01*
X26073749Y42297785D01*
X26074352Y42250713D01*
X26067584Y42204127D01*
X26053612Y42159172D01*
X26032779Y42116958D01*
X26005599Y42078521D01*
X25972741Y42044810D01*
X25935014Y42016654D01*
X25893347Y41994747D01*
X25848765Y41979627D01*
X25825723Y41974736D01*
X25729720Y41958267D01*
X25726354Y41957825D01*
X25723012Y41957194D01*
X25626660Y41942903D01*
X25623275Y41942537D01*
X25619924Y41941982D01*
X25523274Y41929878D01*
X25519890Y41929589D01*
X25516524Y41929110D01*
X25419624Y41919198D01*
X25416219Y41918985D01*
X25412858Y41918584D01*
X25315759Y41910869D01*
X25312364Y41910733D01*
X25308976Y41910407D01*
X25300000Y41909899D01*
X25300000Y41300000D01*
X25299484Y41286876D01*
X25299560Y41283775D01*
X25299279Y41281676D01*
X25299075Y41276462D01*
X25295959Y41256794D01*
X25293334Y41237113D01*
X25292286Y41233599D01*
X25291711Y41229966D01*
X25285563Y41211047D01*
X25279886Y41192000D01*
X25278298Y41188687D01*
X25277164Y41185195D01*
X25268136Y41167479D01*
X25259545Y41149546D01*
X25257460Y41146524D01*
X25255792Y41143250D01*
X25244095Y41127151D01*
X25232813Y41110797D01*
X25230282Y41108141D01*
X25228122Y41105166D01*
X25214044Y41091089D01*
X25200348Y41076706D01*
X25197434Y41074479D01*
X25194834Y41071878D01*
X25178734Y41060181D01*
X25162952Y41048114D01*
X25159723Y41046369D01*
X25156750Y41044208D01*
X25139026Y41035178D01*
X25121541Y41025723D01*
X25118077Y41024504D01*
X25114805Y41022836D01*
X25095891Y41016691D01*
X25077139Y41010087D01*
X25073527Y41009425D01*
X25070034Y41008289D01*
X25050396Y41005179D01*
X25030837Y41001589D01*
X25025636Y41001258D01*
X25023538Y41000925D01*
X25020423Y41000925D01*
X25007328Y41000090D01*
X24751563Y40993840D01*
X24751546Y40993841D01*
X24751510Y40993838D01*
X24493890Y40987588D01*
X24493846Y40987589D01*
X24493803Y40987586D01*
X24233061Y40981336D01*
X24233003Y40981337D01*
X24232941Y40981333D01*
X23967751Y40975083D01*
X23967668Y40975085D01*
X23967599Y40975080D01*
X23696557Y40968830D01*
X23696464Y40968832D01*
X23696374Y40968826D01*
X23417955Y40962576D01*
X23417853Y40962578D01*
X23417743Y40962571D01*
X23130278Y40956321D01*
X23130158Y40956324D01*
X23130039Y40956316D01*
X22831662Y40950066D01*
X22831539Y40950069D01*
X22831399Y40950060D01*
X22519999Y40943810D01*
X22519850Y40943813D01*
X22519715Y40943805D01*
X22192872Y40937555D01*
X22192726Y40937558D01*
X22192569Y40937549D01*
X21847465Y40931299D01*
X21847297Y40931303D01*
X21847145Y40931294D01*
X21480470Y40925045D01*
X21480312Y40925049D01*
X21480139Y40925039D01*
X21087940Y40918788D01*
X21087765Y40918793D01*
X21087596Y40918783D01*
X20665098Y40912533D01*
X20664924Y40912538D01*
X20664749Y40912528D01*
X20206113Y40906278D01*
X20205941Y40906283D01*
X20205759Y40906273D01*
X19703734Y40900024D01*
X19680366Y40900652D01*
X19680273Y40900650D01*
X19680243Y40900655D01*
X19680186Y40900656D01*
X19656889Y40904050D01*
X19633687Y40907422D01*
X19633647Y40907435D01*
X19633602Y40907441D01*
X19612147Y40914119D01*
X19588734Y40921397D01*
X19588690Y40921419D01*
X19588654Y40921430D01*
X19570218Y40930536D01*
X19546520Y40942233D01*
X19546481Y40942262D01*
X19546446Y40942278D01*
X19528767Y40954790D01*
X19508087Y40969416D01*
X19508055Y40969448D01*
X19508020Y40969472D01*
X19492126Y40984976D01*
X19474378Y41002277D01*
X19474350Y41002316D01*
X19474321Y41002343D01*
X19460875Y41020374D01*
X19446225Y41040006D01*
X19446205Y41040045D01*
X19446179Y41040079D01*
X19434806Y41061731D01*
X19424321Y41081675D01*
X19424309Y41081713D01*
X19424286Y41081755D01*
X19416193Y41105649D01*
X19409205Y41126257D01*
X19409199Y41126298D01*
X19409183Y41126342D01*
X19405022Y41150654D01*
X19401249Y41172656D01*
X19401247Y41172713D01*
X19401241Y41172742D01*
X19401240Y41172831D01*
X19400024Y41196180D01*
X19393774Y41686875D01*
X19393775Y41686879D01*
X19387529Y42135973D01*
X19381284Y42550832D01*
X19375039Y42937100D01*
X19375040Y42937112D01*
X19368800Y43299098D01*
X19362550Y43641573D01*
X19356305Y43966837D01*
X19350060Y44277937D01*
X19350061Y44277939D01*
X19343816Y44577247D01*
X19343817Y44577258D01*
X19337570Y44866834D01*
X19337571Y44866836D01*
X19331325Y45148550D01*
X19325077Y45424046D01*
X19325078Y45424054D01*
X19318830Y45694848D01*
X19318831Y45694849D01*
X19312583Y45962375D01*
X19306333Y46227966D01*
X19306388Y46231412D01*
X19306250Y46234856D01*
X19300003Y57496386D01*
X19293833Y57758533D01*
X19293834Y57758561D01*
X19293832Y57758584D01*
X19287582Y58026076D01*
X19287583Y58026118D01*
X19287580Y58026161D01*
X19281331Y58296872D01*
X19281332Y58296923D01*
X19281328Y58296985D01*
X19275077Y58572289D01*
X19275079Y58572367D01*
X19275074Y58572438D01*
X19268825Y58853796D01*
X19268827Y58853879D01*
X19268821Y58853969D01*
X19262570Y59142959D01*
X19262572Y59143066D01*
X19262566Y59143164D01*
X19256316Y59441521D01*
X19256319Y59441632D01*
X19256311Y59441751D01*
X19250062Y59751410D01*
X19250065Y59751535D01*
X19250057Y59751662D01*
X19243807Y60074813D01*
X19243810Y60074951D01*
X19243802Y60075086D01*
X19237552Y60414239D01*
X19237556Y60414388D01*
X19237547Y60414531D01*
X19231297Y60772606D01*
X19231301Y60772750D01*
X19231291Y60772914D01*
X19225041Y61153350D01*
X19225045Y61153511D01*
X19225036Y61153670D01*
X19218786Y61560564D01*
X19218791Y61560740D01*
X19218782Y61560894D01*
X19212531Y61999197D01*
X19212536Y61999372D01*
X19212527Y61999533D01*
X19206277Y62475303D01*
X19206282Y62475476D01*
X19206273Y62475643D01*
X19200023Y62996399D01*
X19200661Y63019794D01*
X19200660Y63019866D01*
X19200664Y63019889D01*
X19200665Y63019946D01*
X19204079Y63043307D01*
X19207453Y63066449D01*
X19207466Y63066488D01*
X19207471Y63066527D01*
X19214282Y63088379D01*
X19221449Y63111395D01*
X19221467Y63111431D01*
X19221479Y63111470D01*
X19232033Y63132811D01*
X19242305Y63153599D01*
X19242328Y63153631D01*
X19242346Y63153668D01*
X19256631Y63173833D01*
X19269506Y63192019D01*
X19269532Y63192045D01*
X19269557Y63192081D01*
X19287121Y63210071D01*
X19302383Y63225713D01*
X19302414Y63225735D01*
X19302443Y63225766D01*
X19321131Y63239688D01*
X19340124Y63253848D01*
X19340163Y63253868D01*
X19340193Y63253891D01*
X19359484Y63264013D01*
X19381804Y63275734D01*
X19381847Y63275748D01*
X19381878Y63275765D01*
X19403349Y63283027D01*
X19426393Y63290829D01*
X19426432Y63290835D01*
X19426471Y63290849D01*
X19449354Y63294754D01*
X19472795Y63298763D01*
X19472853Y63298765D01*
X19472876Y63298770D01*
X19472948Y63298770D01*
X19496320Y63299976D01*
X20005405Y63306222D01*
X20005408Y63306223D01*
X20471991Y63312473D01*
X20471996Y63312472D01*
X20902329Y63318713D01*
X20902345Y63318714D01*
X21303500Y63324961D01*
X21679561Y63331206D01*
X22034776Y63337452D01*
X22372453Y63343699D01*
X22372456Y63343698D01*
X22695313Y63349944D01*
X22695323Y63349943D01*
X23005706Y63356184D01*
X23005708Y63356185D01*
X23306209Y63362430D01*
X23306225Y63362432D01*
X23598692Y63368682D01*
X23598713Y63368681D01*
X23884382Y63374925D01*
X23884394Y63374926D01*
X24165429Y63381176D01*
X24165433Y63381175D01*
X24442873Y63387422D01*
X24442876Y63387423D01*
X24718393Y63393673D01*
X24718409Y63393672D01*
X24993178Y63399921D01*
X24993194Y63399923D01*
X25268611Y63406173D01*
X25268636Y63406172D01*
X25268659Y63406174D01*
X25546024Y63412424D01*
X25546061Y63412423D01*
X25546104Y63412426D01*
X25826784Y63418676D01*
X25826844Y63418674D01*
X25826894Y63418678D01*
X26112314Y63424928D01*
X26112385Y63424926D01*
X26112455Y63424931D01*
X26404127Y63431181D01*
X26404206Y63431179D01*
X26404296Y63431185D01*
X26703858Y63437435D01*
X26703956Y63437433D01*
X26704054Y63437439D01*
X27013304Y63443689D01*
X27013419Y63443686D01*
X27013525Y63443693D01*
X27334465Y63449943D01*
X27334581Y63449940D01*
X27334708Y63449948D01*
X27669609Y63456198D01*
X27669738Y63456195D01*
X27669873Y63456203D01*
X28021335Y63462453D01*
X28021486Y63462449D01*
X28021616Y63462457D01*
X28392665Y63468707D01*
X28392811Y63468703D01*
X28392961Y63468712D01*
X28787158Y63474962D01*
X28787309Y63474958D01*
X28787467Y63474967D01*
X29209055Y63481216D01*
X29209208Y63481212D01*
X29209373Y63481221D01*
X29663481Y63487472D01*
X29663647Y63487467D01*
X29663806Y63487476D01*
X30156711Y63493726D01*
X30156874Y63493721D01*
X30157039Y63493730D01*
X30696525Y63499979D01*
X30719923Y63499331D01*
X30719997Y63499332D01*
X30720021Y63499328D01*
X30720072Y63499327D01*
X30744702Y63495717D01*
X30766577Y63492518D01*
X30766609Y63492507D01*
X30766650Y63492502D01*
X30790159Y63485163D01*
X30811517Y63478502D01*
X30811550Y63478485D01*
X30811587Y63478474D01*
X30832345Y63468198D01*
X30853712Y63457628D01*
X30853743Y63457605D01*
X30853777Y63457589D01*
X30873201Y63443817D01*
X30892121Y63430410D01*
X30892146Y63430384D01*
X30892179Y63430362D01*
X30908535Y63414380D01*
X30925801Y63397519D01*
X30925825Y63397485D01*
X30925850Y63397462D01*
X30938799Y63380065D01*
X30953919Y63359765D01*
X30953937Y63359730D01*
X30953959Y63359701D01*
X30964275Y63340020D01*
X30975786Y63318076D01*
X30975799Y63318037D01*
X30975815Y63318007D01*
X30982735Y63297519D01*
X30990862Y63273480D01*
X30990868Y63273440D01*
X30990880Y63273407D01*
X30994434Y63252533D01*
X30998776Y63227074D01*
X30998778Y63227017D01*
X30998782Y63226999D01*
X30998782Y63226944D01*
X30999979Y63203549D01*
X31006225Y62675719D01*
X31012470Y62192326D01*
X31012471Y62192323D01*
X31018721Y61745510D01*
X31024961Y61330138D01*
X31024962Y61330127D01*
X31031207Y60940268D01*
X31037457Y60571846D01*
X31043697Y60222197D01*
X31043698Y60222189D01*
X31049943Y59887550D01*
X31049944Y59887547D01*
X31056190Y59565634D01*
X31062439Y59254050D01*
X31068683Y58951322D01*
X31074929Y58655168D01*
X31074930Y58655158D01*
X31081179Y58364086D01*
X31087427Y58076586D01*
X31087428Y58076585D01*
X31093677Y57791196D01*
X31093621Y57787995D01*
X31093749Y57784794D01*
X31099998Y46503366D01*
X31106177Y46221329D01*
X31106176Y46221308D01*
X31106178Y46221285D01*
X31112429Y45934046D01*
X31112428Y45934012D01*
X31112431Y45933969D01*
X31118681Y45643320D01*
X31118679Y45643263D01*
X31118683Y45643212D01*
X31124932Y45347678D01*
X31124930Y45347615D01*
X31124935Y45347545D01*
X31131186Y45045556D01*
X31131184Y45045470D01*
X31131189Y45045392D01*
X31137438Y44735258D01*
X31137436Y44735169D01*
X31137442Y44735071D01*
X31143693Y44414930D01*
X31143690Y44414821D01*
X31143697Y44414715D01*
X31149946Y44082493D01*
X31149943Y44082372D01*
X31149950Y44082259D01*
X31156200Y43735609D01*
X31156197Y43735489D01*
X31156205Y43735355D01*
X31162455Y43371582D01*
X31162451Y43371440D01*
X31162459Y43371311D01*
X31168709Y42987289D01*
X31168705Y42987153D01*
X31168714Y42987003D01*
X31174964Y42579046D01*
X31174960Y42578892D01*
X31174968Y42578748D01*
X31181218Y42142465D01*
X31181214Y42142309D01*
X31181222Y42142158D01*
X31187472Y41672243D01*
X31187467Y41672087D01*
X31187476Y41671930D01*
X31193726Y41161893D01*
X31193721Y41161739D01*
X31193730Y41161576D01*
X31199980Y40603359D01*
X31199323Y40579959D01*
X31199324Y40579881D01*
X31199320Y40579856D01*
X31199319Y40579812D01*
X31196175Y40558414D01*
X31192492Y40533304D01*
X31192480Y40533268D01*
X31192476Y40533236D01*
X31185747Y40511711D01*
X31178457Y40488370D01*
X31178441Y40488339D01*
X31178431Y40488305D01*
X31168460Y40468183D01*
X31157566Y40446183D01*
X31157543Y40446152D01*
X31157530Y40446124D01*
X31144837Y40428237D01*
X31130333Y40407786D01*
X31130308Y40407762D01*
X31130288Y40407732D01*
X31114079Y40391157D01*
X31097427Y40374119D01*
X31097397Y40374098D01*
X31097375Y40374074D01*
X31079348Y40360666D01*
X31059662Y40346016D01*
X31059630Y40346000D01*
X31059603Y40345979D01*
X31039499Y40335451D01*
X31017964Y40324166D01*
X31017928Y40324155D01*
X31017900Y40324139D01*
X30996056Y40316770D01*
X30973362Y40309108D01*
X30973328Y40309103D01*
X30973295Y40309091D01*
X30948143Y40304819D01*
X30926953Y40301214D01*
X30926913Y40301212D01*
X30926884Y40301207D01*
X30926795Y40301207D01*
X30903428Y40300020D01*
X30356869Y40293774D01*
X30356855Y40293773D01*
X29856175Y40287526D01*
X29393697Y40281277D01*
X29393680Y40281278D01*
X28963603Y40275037D01*
X28963599Y40275036D01*
X28559974Y40268791D01*
X28559969Y40268790D01*
X28178575Y40262540D01*
X28178560Y40262541D01*
X27816593Y40256300D01*
X27816592Y40256299D01*
X27469995Y40250050D01*
X27137008Y40243807D01*
X27136994Y40243806D01*
X26814517Y40237556D01*
X26814498Y40237557D01*
X26501227Y40231314D01*
X26501209Y40231312D01*
X26194615Y40225062D01*
X26194596Y40225063D01*
X25893551Y40218817D01*
X25893535Y40218816D01*
X25596066Y40212568D01*
X25596066Y40212567D01*
X25300803Y40206317D01*
X25300786Y40206318D01*
X25006371Y40200069D01*
X25006353Y40200067D01*
X24711285Y40193817D01*
X24711265Y40193818D01*
X24711242Y40193816D01*
X24414130Y40187566D01*
X24414087Y40187567D01*
X24414057Y40187565D01*
X24113439Y40181315D01*
X24113386Y40181316D01*
X24113336Y40181313D01*
X23807686Y40175063D01*
X23807626Y40175065D01*
X23807556Y40175060D01*
X23495254Y40168810D01*
X23495174Y40168812D01*
X23495096Y40168807D01*
X23174390Y40162557D01*
X23174306Y40162559D01*
X23174208Y40162553D01*
X22843175Y40156303D01*
X22843063Y40156306D01*
X22842970Y40156300D01*
X22499466Y40150050D01*
X22499351Y40150053D01*
X22499237Y40150046D01*
X22140838Y40143797D01*
X22140727Y40143800D01*
X22140594Y40143792D01*
X21764513Y40137541D01*
X21764378Y40137545D01*
X21764249Y40137537D01*
X21367254Y40131287D01*
X21367113Y40131291D01*
X21366977Y40131283D01*
X20945261Y40125033D01*
X20945115Y40125037D01*
X20944972Y40125029D01*
X20493995Y40118779D01*
X20493847Y40118783D01*
X20493697Y40118775D01*
X20007977Y40112526D01*
X20007830Y40112530D01*
X20007675Y40112522D01*
X19480504Y40106271D01*
X19480344Y40106276D01*
X19480196Y40106268D01*
X18903249Y40100019D01*
X18879848Y40100685D01*
X18879768Y40100684D01*
X18879742Y40100688D01*
X18879703Y40100689D01*
X18858774Y40103772D01*
X18833193Y40107534D01*
X18833160Y40107545D01*
X18833129Y40107549D01*
X18813104Y40113817D01*
X18788264Y40121585D01*
X18788230Y40121602D01*
X18788204Y40121610D01*
X18769999Y40130640D01*
X18746086Y40142492D01*
X18746057Y40142513D01*
X18746030Y40142526D01*
X18728030Y40155309D01*
X18707698Y40169740D01*
X18707674Y40169764D01*
X18707648Y40169782D01*
X18691994Y40185102D01*
X18674045Y40202658D01*
X18674024Y40202688D01*
X18674002Y40202708D01*
X18660884Y40220359D01*
X18645956Y40240434D01*
X18645941Y40240465D01*
X18645921Y40240490D01*
X18636094Y40259272D01*
X18624121Y40282140D01*
X18624109Y40282178D01*
X18624096Y40282201D01*
X18617440Y40301956D01*
X18609081Y40326748D01*
X18609076Y40326782D01*
X18609065Y40326812D01*
X18605157Y40349869D01*
X18601203Y40373159D01*
X18601201Y40373203D01*
X18601197Y40373225D01*
X18601197Y40373293D01*
X18600018Y40396686D01*
X18593768Y40962303D01*
X18593769Y40962311D01*
X18587522Y41479981D01*
X18587523Y41479984D01*
X18581276Y41958107D01*
X18575030Y42403197D01*
X18568784Y42820582D01*
X18562538Y43214684D01*
X18556292Y43589221D01*
X18556293Y43589222D01*
X18550050Y43947133D01*
X18550049Y43947148D01*
X18543799Y44291820D01*
X18543800Y44291834D01*
X18537553Y44625004D01*
X18531310Y44948877D01*
X18531309Y44948892D01*
X18525058Y45265801D01*
X18518811Y45577080D01*
X18518812Y45577090D01*
X18512562Y45884487D01*
X18512563Y45884489D01*
X18506313Y46189577D01*
X18506370Y46192565D01*
X18506250Y46195555D01*
X18500003Y57496843D01*
X18493813Y57798744D01*
X18493814Y57798763D01*
X18493812Y57798787D01*
X18487563Y58105771D01*
X18487564Y58105810D01*
X18487562Y58105840D01*
X18481311Y58416427D01*
X18481312Y58416476D01*
X18481309Y58416527D01*
X18475059Y58732292D01*
X18475061Y58732348D01*
X18475056Y58732418D01*
X18468806Y59055035D01*
X18468808Y59055109D01*
X18468803Y59055187D01*
X18462553Y59386465D01*
X18462555Y59386557D01*
X18462550Y59386642D01*
X18456301Y59728567D01*
X18456304Y59728673D01*
X18456298Y59728765D01*
X18450048Y60083550D01*
X18450051Y60083656D01*
X18450044Y60083769D01*
X18443794Y60453920D01*
X18443797Y60454038D01*
X18443790Y60454158D01*
X18437540Y60842548D01*
X18437543Y60842674D01*
X18437536Y60842802D01*
X18431286Y61252771D01*
X18431290Y61252904D01*
X18431282Y61253039D01*
X18425032Y61688515D01*
X18425036Y61688652D01*
X18425028Y61688794D01*
X18418778Y62154466D01*
X18418782Y62154606D01*
X18418774Y62154754D01*
X18412524Y62656279D01*
X18412529Y62656432D01*
X18412521Y62656572D01*
X18406271Y63200877D01*
X18406276Y63201028D01*
X18406268Y63201174D01*
X18400018Y63796852D01*
X18400692Y63820255D01*
X18400691Y63820338D01*
X18400696Y63820365D01*
X18400696Y63820399D01*
X18404067Y63843231D01*
X18407558Y63866910D01*
X18407566Y63866935D01*
X18407571Y63866970D01*
X18415019Y63890736D01*
X18421625Y63911834D01*
X18421639Y63911862D01*
X18421648Y63911891D01*
X18431708Y63932155D01*
X18442547Y63954005D01*
X18442566Y63954031D01*
X18442579Y63954058D01*
X18456253Y63973300D01*
X18469808Y63992383D01*
X18469829Y63992403D01*
X18469847Y63992430D01*
X18486505Y64009440D01*
X18502738Y64026025D01*
X18502764Y64026043D01*
X18502784Y64026065D01*
X18520442Y64039179D01*
X18540524Y64054101D01*
X18540555Y64054116D01*
X18540576Y64054133D01*
X18560421Y64064508D01*
X18582238Y64075920D01*
X18582267Y64075929D01*
X18582294Y64075944D01*
X18605204Y64083654D01*
X18626851Y64090945D01*
X18626881Y64090949D01*
X18626910Y64090960D01*
X18652259Y64095248D01*
X18673266Y64098806D01*
X18673301Y64098807D01*
X18673326Y64098812D01*
X18673402Y64098812D01*
X18696792Y64099983D01*
X19280842Y64106229D01*
X19280845Y64106230D01*
X19815962Y64112480D01*
X19815971Y64112479D01*
X20309903Y64118726D01*
X20309908Y64118725D01*
X20769409Y64124968D01*
X20769425Y64124969D01*
X21200849Y64131219D01*
X21200851Y64131218D01*
X21607934Y64137465D01*
X21607937Y64137464D01*
X21994786Y64143711D01*
X21994793Y64143710D01*
X22364467Y64149953D01*
X22364477Y64149954D01*
X22720249Y64156200D01*
X22720252Y64156201D01*
X23064512Y64162451D01*
X23064515Y64162450D01*
X23399112Y64168698D01*
X23399126Y64168697D01*
X23726205Y64174945D01*
X23726206Y64174944D01*
X24047515Y64181191D01*
X24047526Y64181192D01*
X24364982Y64187442D01*
X24364985Y64187441D01*
X24679920Y64193690D01*
X24679928Y64193691D01*
X24994032Y64199941D01*
X24994041Y64199940D01*
X24994043Y64199941D01*
X25308761Y64206191D01*
X25308779Y64206190D01*
X25308802Y64206192D01*
X25625660Y64212442D01*
X25625698Y64212441D01*
X25625728Y64212443D01*
X25946283Y64218693D01*
X25946328Y64218692D01*
X25946378Y64218695D01*
X26272258Y64224945D01*
X26272323Y64224943D01*
X26272380Y64224947D01*
X26605314Y64231197D01*
X26605383Y64231195D01*
X26605460Y64231200D01*
X26947310Y64237450D01*
X26947395Y64237448D01*
X26947480Y64237453D01*
X27300296Y64243703D01*
X27300397Y64243700D01*
X27300489Y64243706D01*
X27666555Y64249956D01*
X27666655Y64249953D01*
X27666768Y64249960D01*
X28048669Y64256210D01*
X28048780Y64256207D01*
X28048900Y64256214D01*
X28449600Y64262463D01*
X28449731Y64262459D01*
X28449845Y64262466D01*
X28872785Y64268717D01*
X28872912Y64268713D01*
X28873046Y64268721D01*
X29322282Y64274971D01*
X29322413Y64274967D01*
X29322553Y64274975D01*
X29802919Y64281225D01*
X29803064Y64281221D01*
X29803198Y64281228D01*
X30320529Y64287478D01*
X30320675Y64287474D01*
X30320814Y64287481D01*
X30882252Y64293731D01*
X30882396Y64293726D01*
X30882539Y64293734D01*
X31496949Y64299984D01*
X31520378Y64299302D01*
G37*
%TD.AperFunction*%
%TD*%
D11*
%TO.N,/VIN_RAW*%
%TO.C,J1*%
X22500000Y97000000D03*
D12*
%TO.N,/PGND*%
X27500000Y97000000D03*
%TD*%
D11*
%TO.N,/+5V_ISO*%
%TO.C,J2*%
X27500000Y8000000D03*
D12*
%TO.N,/GND_ISO*%
X22500000Y8000000D03*
%TD*%
D13*
%TO.N,/VIN*%
%TO.C,T1*%
X27871953Y65073763D03*
%TO.N,/SW*%
X22128047Y65073763D03*
%TO.N,/GND_ISO*%
X23540116Y38532645D03*
%TO.N,/SEC_A*%
X25775000Y42270417D03*
%TO.N,unconnected-(T1-P_MID-Pad5)*%
X25000000Y61800000D03*
%TD*%
D14*
%TO.N,/GND_ISO*%
X37000000Y9000000D03*
D15*
X13200000Y18500000D03*
D14*
X36000000Y25000000D03*
X17000000Y25000000D03*
D15*
X34000000Y17037500D03*
D14*
X12000000Y22000000D03*
X16000000Y7000000D03*
X19000000Y29000000D03*
X36000000Y29000000D03*
X32000000Y7000000D03*
D15*
X22269595Y30500000D03*
D14*
X24000000Y22000000D03*
X25000000Y5500000D03*
X20500000Y14200000D03*
D16*
X33200000Y23000000D03*
D14*
X36000000Y14000000D03*
X17000000Y14000000D03*
X25000000Y11000000D03*
X12000000Y29000000D03*
D15*
X32975000Y25880000D03*
X23169595Y30500000D03*
D14*
X15000000Y29000000D03*
D15*
X23200000Y18500000D03*
D14*
X32000000Y14000000D03*
X37500000Y22000000D03*
X12000000Y14000000D03*
%TO.N,/PGND*%
X29000000Y79475000D03*
X39000000Y79000000D03*
X24000000Y84500000D03*
X10000000Y85000000D03*
X9500000Y82000000D03*
X10725000Y78800000D03*
X10500000Y73600000D03*
X40000000Y83000000D03*
X15700000Y78550000D03*
X17300000Y77450000D03*
X9500000Y73000000D03*
X9500000Y97000000D03*
X15700000Y77450000D03*
X9500000Y94000000D03*
X25000000Y87000000D03*
X19325000Y86000000D03*
X39200000Y88000000D03*
X17300000Y78550000D03*
X39500000Y95000000D03*
X37000000Y74000000D03*
X13898500Y76095000D03*
X11500000Y83500000D03*
X22475000Y79200000D03*
X38000000Y83000000D03*
X39000000Y74000000D03*
X9025000Y76365000D03*
X28000000Y83000000D03*
X16000000Y74500000D03*
D16*
X17400000Y74350000D03*
D15*
%TO.N,/SEC_A*%
X26450000Y29862000D03*
X25550000Y29862000D03*
D17*
%TO.N,/VIN*%
X13000000Y90150000D03*
D14*
X14675000Y86000000D03*
D17*
X29000000Y76525000D03*
X11975000Y76365000D03*
%TD*%
M02*
