%TF.GenerationSoftware,KiCad,Pcbnew,10.0.6*%
%TF.CreationDate,2026-09-29T21:34:32-04:00*%
%TF.ProjectId,PS-FLYBACK-5W,50532d46-4c59-4424-9143-4b2d35572e6b,A1-development*%
%TF.SameCoordinates,Original*%
%TF.FileFunction,Legend,Bot*%
%TF.FilePolarity,Positive*%
%FSLAX46Y46*%
G04 Gerber Fmt 4.6, Leading zero omitted, Abs format (unit mm)*
G04 Created by KiCad (PCBNEW 10.0.6) date 2026-09-29 21:34:32*
%MOMM*%
%LPD*%
G01*
G04 APERTURE LIST*
%ADD10C,0.150000*%
%ADD11C,0.000000*%
%ADD12C,3.200000*%
%ADD13R,2.400000X2.400000*%
%ADD14C,2.400000*%
%ADD15C,0.800000*%
G04 APERTURE END LIST*
D10*
X35571428Y2830896D02*
X35095238Y2830896D01*
X35666666Y2545181D02*
X35333333Y3545181D01*
X35333333Y3545181D02*
X35000000Y2545181D01*
X34142857Y2545181D02*
X34714285Y2545181D01*
X34428571Y2545181D02*
X34428571Y3545181D01*
X34428571Y3545181D02*
X34523809Y3402324D01*
X34523809Y3402324D02*
X34619047Y3307086D01*
X34619047Y3307086D02*
X34714285Y3259467D01*
X32952380Y3068991D02*
X32619047Y3068991D01*
X32476190Y2545181D02*
X32952380Y2545181D01*
X32952380Y2545181D02*
X32952380Y3545181D01*
X32952380Y3545181D02*
X32476190Y3545181D01*
X32047618Y2545181D02*
X32047618Y3545181D01*
X32047618Y3545181D02*
X31476190Y2545181D01*
X31476190Y2545181D02*
X31476190Y3545181D01*
X30476190Y3497562D02*
X30571428Y3545181D01*
X30571428Y3545181D02*
X30714285Y3545181D01*
X30714285Y3545181D02*
X30857142Y3497562D01*
X30857142Y3497562D02*
X30952380Y3402324D01*
X30952380Y3402324D02*
X30999999Y3307086D01*
X30999999Y3307086D02*
X31047618Y3116610D01*
X31047618Y3116610D02*
X31047618Y2973753D01*
X31047618Y2973753D02*
X30999999Y2783277D01*
X30999999Y2783277D02*
X30952380Y2688039D01*
X30952380Y2688039D02*
X30857142Y2592800D01*
X30857142Y2592800D02*
X30714285Y2545181D01*
X30714285Y2545181D02*
X30619047Y2545181D01*
X30619047Y2545181D02*
X30476190Y2592800D01*
X30476190Y2592800D02*
X30428571Y2640420D01*
X30428571Y2640420D02*
X30428571Y2973753D01*
X30428571Y2973753D02*
X30619047Y2973753D01*
X29999999Y2545181D02*
X29999999Y3545181D01*
X29523809Y2545181D02*
X29523809Y3545181D01*
X29523809Y3545181D02*
X28952381Y2545181D01*
X28952381Y2545181D02*
X28952381Y3545181D01*
X28476190Y3068991D02*
X28142857Y3068991D01*
X28000000Y2545181D02*
X28476190Y2545181D01*
X28476190Y2545181D02*
X28476190Y3545181D01*
X28476190Y3545181D02*
X28000000Y3545181D01*
X27571428Y3068991D02*
X27238095Y3068991D01*
X27095238Y2545181D02*
X27571428Y2545181D01*
X27571428Y2545181D02*
X27571428Y3545181D01*
X27571428Y3545181D02*
X27095238Y3545181D01*
X26095238Y2545181D02*
X26428571Y3021372D01*
X26666666Y2545181D02*
X26666666Y3545181D01*
X26666666Y3545181D02*
X26285714Y3545181D01*
X26285714Y3545181D02*
X26190476Y3497562D01*
X26190476Y3497562D02*
X26142857Y3449943D01*
X26142857Y3449943D02*
X26095238Y3354705D01*
X26095238Y3354705D02*
X26095238Y3211848D01*
X26095238Y3211848D02*
X26142857Y3116610D01*
X26142857Y3116610D02*
X26190476Y3068991D01*
X26190476Y3068991D02*
X26285714Y3021372D01*
X26285714Y3021372D02*
X26666666Y3021372D01*
X25666666Y2545181D02*
X25666666Y3545181D01*
X25190476Y2545181D02*
X25190476Y3545181D01*
X25190476Y3545181D02*
X24619048Y2545181D01*
X24619048Y2545181D02*
X24619048Y3545181D01*
X23619048Y3497562D02*
X23714286Y3545181D01*
X23714286Y3545181D02*
X23857143Y3545181D01*
X23857143Y3545181D02*
X24000000Y3497562D01*
X24000000Y3497562D02*
X24095238Y3402324D01*
X24095238Y3402324D02*
X24142857Y3307086D01*
X24142857Y3307086D02*
X24190476Y3116610D01*
X24190476Y3116610D02*
X24190476Y2973753D01*
X24190476Y2973753D02*
X24142857Y2783277D01*
X24142857Y2783277D02*
X24095238Y2688039D01*
X24095238Y2688039D02*
X24000000Y2592800D01*
X24000000Y2592800D02*
X23857143Y2545181D01*
X23857143Y2545181D02*
X23761905Y2545181D01*
X23761905Y2545181D02*
X23619048Y2592800D01*
X23619048Y2592800D02*
X23571429Y2640420D01*
X23571429Y2640420D02*
X23571429Y2973753D01*
X23571429Y2973753D02*
X23761905Y2973753D01*
X22380952Y2545181D02*
X22380952Y3545181D01*
X22380952Y3545181D02*
X22000000Y3545181D01*
X22000000Y3545181D02*
X21904762Y3497562D01*
X21904762Y3497562D02*
X21857143Y3449943D01*
X21857143Y3449943D02*
X21809524Y3354705D01*
X21809524Y3354705D02*
X21809524Y3211848D01*
X21809524Y3211848D02*
X21857143Y3116610D01*
X21857143Y3116610D02*
X21904762Y3068991D01*
X21904762Y3068991D02*
X22000000Y3021372D01*
X22000000Y3021372D02*
X22380952Y3021372D01*
X20809524Y2545181D02*
X21142857Y3021372D01*
X21380952Y2545181D02*
X21380952Y3545181D01*
X21380952Y3545181D02*
X21000000Y3545181D01*
X21000000Y3545181D02*
X20904762Y3497562D01*
X20904762Y3497562D02*
X20857143Y3449943D01*
X20857143Y3449943D02*
X20809524Y3354705D01*
X20809524Y3354705D02*
X20809524Y3211848D01*
X20809524Y3211848D02*
X20857143Y3116610D01*
X20857143Y3116610D02*
X20904762Y3068991D01*
X20904762Y3068991D02*
X21000000Y3021372D01*
X21000000Y3021372D02*
X21380952Y3021372D01*
X20190476Y3545181D02*
X20000000Y3545181D01*
X20000000Y3545181D02*
X19904762Y3497562D01*
X19904762Y3497562D02*
X19809524Y3402324D01*
X19809524Y3402324D02*
X19761905Y3211848D01*
X19761905Y3211848D02*
X19761905Y2878515D01*
X19761905Y2878515D02*
X19809524Y2688039D01*
X19809524Y2688039D02*
X19904762Y2592800D01*
X19904762Y2592800D02*
X20000000Y2545181D01*
X20000000Y2545181D02*
X20190476Y2545181D01*
X20190476Y2545181D02*
X20285714Y2592800D01*
X20285714Y2592800D02*
X20380952Y2688039D01*
X20380952Y2688039D02*
X20428571Y2878515D01*
X20428571Y2878515D02*
X20428571Y3211848D01*
X20428571Y3211848D02*
X20380952Y3402324D01*
X20380952Y3402324D02*
X20285714Y3497562D01*
X20285714Y3497562D02*
X20190476Y3545181D01*
X19476190Y3545181D02*
X18904762Y3545181D01*
X19190476Y2545181D02*
X19190476Y3545181D01*
X18380952Y3545181D02*
X18190476Y3545181D01*
X18190476Y3545181D02*
X18095238Y3497562D01*
X18095238Y3497562D02*
X18000000Y3402324D01*
X18000000Y3402324D02*
X17952381Y3211848D01*
X17952381Y3211848D02*
X17952381Y2878515D01*
X17952381Y2878515D02*
X18000000Y2688039D01*
X18000000Y2688039D02*
X18095238Y2592800D01*
X18095238Y2592800D02*
X18190476Y2545181D01*
X18190476Y2545181D02*
X18380952Y2545181D01*
X18380952Y2545181D02*
X18476190Y2592800D01*
X18476190Y2592800D02*
X18571428Y2688039D01*
X18571428Y2688039D02*
X18619047Y2878515D01*
X18619047Y2878515D02*
X18619047Y3211848D01*
X18619047Y3211848D02*
X18571428Y3402324D01*
X18571428Y3402324D02*
X18476190Y3497562D01*
X18476190Y3497562D02*
X18380952Y3545181D01*
X17666666Y3545181D02*
X17095238Y3545181D01*
X17380952Y2545181D02*
X17380952Y3545181D01*
X16571428Y3021372D02*
X16571428Y2545181D01*
X16904761Y3545181D02*
X16571428Y3021372D01*
X16571428Y3021372D02*
X16238095Y3545181D01*
X15904761Y2545181D02*
X15904761Y3545181D01*
X15904761Y3545181D02*
X15523809Y3545181D01*
X15523809Y3545181D02*
X15428571Y3497562D01*
X15428571Y3497562D02*
X15380952Y3449943D01*
X15380952Y3449943D02*
X15333333Y3354705D01*
X15333333Y3354705D02*
X15333333Y3211848D01*
X15333333Y3211848D02*
X15380952Y3116610D01*
X15380952Y3116610D02*
X15428571Y3068991D01*
X15428571Y3068991D02*
X15523809Y3021372D01*
X15523809Y3021372D02*
X15904761Y3021372D01*
X14904761Y3068991D02*
X14571428Y3068991D01*
X14428571Y2545181D02*
X14904761Y2545181D01*
X14904761Y2545181D02*
X14904761Y3545181D01*
X14904761Y3545181D02*
X14428571Y3545181D01*
%LPC*%
D11*
%TO.C,H4*%
G36*
X53700000Y1300000D02*
G01*
X45500000Y1300000D01*
X45290710Y1306851D01*
X45082316Y1327376D01*
X44875711Y1361487D01*
X44671779Y1409037D01*
X44471394Y1469824D01*
X44275413Y1543585D01*
X44084676Y1630007D01*
X43900000Y1728719D01*
X43722175Y1839297D01*
X43551963Y1961269D01*
X43390093Y2094113D01*
X43237258Y2237258D01*
X43094113Y2390093D01*
X42961269Y2551963D01*
X42839297Y2722175D01*
X42728719Y2900000D01*
X42630007Y3084676D01*
X42543585Y3275413D01*
X42469824Y3471394D01*
X42409037Y3671779D01*
X42361487Y3875711D01*
X42327376Y4082316D01*
X42306851Y4290710D01*
X42300000Y4500000D01*
X42306851Y4709290D01*
X42327376Y4917684D01*
X42361487Y5124289D01*
X42409037Y5328221D01*
X42469824Y5528606D01*
X42543585Y5724587D01*
X42630007Y5915324D01*
X42728719Y6100000D01*
X42839297Y6277825D01*
X42961269Y6448037D01*
X43094113Y6609907D01*
X43237258Y6762742D01*
X43390093Y6905887D01*
X43551963Y7038731D01*
X43722175Y7160703D01*
X43900000Y7271281D01*
X44084676Y7369993D01*
X44275413Y7456415D01*
X44471394Y7530176D01*
X44671779Y7590963D01*
X44875711Y7638513D01*
X45082316Y7672624D01*
X45290710Y7693149D01*
X45500000Y7700000D01*
X53700000Y7700000D01*
X53700000Y1300000D01*
G37*
%TO.C,H1*%
G36*
X4709290Y102693149D02*
G01*
X4917684Y102672624D01*
X5124289Y102638513D01*
X5328221Y102590963D01*
X5528606Y102530176D01*
X5724587Y102456415D01*
X5915324Y102369993D01*
X6100000Y102271281D01*
X6277825Y102160703D01*
X6448037Y102038731D01*
X6609907Y101905887D01*
X6762742Y101762742D01*
X6905887Y101609907D01*
X7038731Y101448037D01*
X7160703Y101277825D01*
X7271281Y101100000D01*
X7369993Y100915324D01*
X7456415Y100724587D01*
X7530176Y100528606D01*
X7590963Y100328221D01*
X7638513Y100124289D01*
X7672624Y99917684D01*
X7693149Y99709290D01*
X7700000Y99500000D01*
X7693149Y99290710D01*
X7672624Y99082316D01*
X7638513Y98875711D01*
X7590963Y98671779D01*
X7530176Y98471394D01*
X7456415Y98275413D01*
X7369993Y98084676D01*
X7271281Y97900000D01*
X7160703Y97722175D01*
X7038731Y97551963D01*
X6905887Y97390093D01*
X6762742Y97237258D01*
X6609907Y97094113D01*
X6448037Y96961269D01*
X6277825Y96839297D01*
X6100000Y96728719D01*
X5915324Y96630007D01*
X5724587Y96543585D01*
X5528606Y96469824D01*
X5328221Y96409037D01*
X5124289Y96361487D01*
X4917684Y96327376D01*
X4709290Y96306851D01*
X4500000Y96300000D01*
X-3700000Y96300000D01*
X-3700000Y102700000D01*
X4500000Y102700000D01*
X4709290Y102693149D01*
G37*
%TO.C,H3*%
G36*
X4709290Y7693149D02*
G01*
X4917684Y7672624D01*
X5124289Y7638513D01*
X5328221Y7590963D01*
X5528606Y7530176D01*
X5724587Y7456415D01*
X5915324Y7369993D01*
X6100000Y7271281D01*
X6277825Y7160703D01*
X6448037Y7038731D01*
X6609907Y6905887D01*
X6762742Y6762742D01*
X6905887Y6609907D01*
X7038731Y6448037D01*
X7160703Y6277825D01*
X7271281Y6100000D01*
X7369993Y5915324D01*
X7456415Y5724587D01*
X7530176Y5528606D01*
X7590963Y5328221D01*
X7638513Y5124289D01*
X7672624Y4917684D01*
X7693149Y4709290D01*
X7700000Y4500000D01*
X7693149Y4290710D01*
X7672624Y4082316D01*
X7638513Y3875711D01*
X7590963Y3671779D01*
X7530176Y3471394D01*
X7456415Y3275413D01*
X7369993Y3084676D01*
X7271281Y2900000D01*
X7160703Y2722175D01*
X7038731Y2551963D01*
X6905887Y2390093D01*
X6762742Y2237258D01*
X6609907Y2094113D01*
X6448037Y1961269D01*
X6277825Y1839297D01*
X6100000Y1728719D01*
X5915324Y1630007D01*
X5724587Y1543585D01*
X5528606Y1469824D01*
X5328221Y1409037D01*
X5124289Y1361487D01*
X4917684Y1327376D01*
X4709290Y1306851D01*
X4500000Y1300000D01*
X-3700000Y1300000D01*
X-3700000Y7700000D01*
X4500000Y7700000D01*
X4709290Y7693149D01*
G37*
%TO.C,H2*%
G36*
X53700000Y96300000D02*
G01*
X45500000Y96300000D01*
X45290710Y96306851D01*
X45082316Y96327376D01*
X44875711Y96361487D01*
X44671779Y96409037D01*
X44471394Y96469824D01*
X44275413Y96543585D01*
X44084676Y96630007D01*
X43900000Y96728719D01*
X43722175Y96839297D01*
X43551963Y96961269D01*
X43390093Y97094113D01*
X43237258Y97237258D01*
X43094113Y97390093D01*
X42961269Y97551963D01*
X42839297Y97722175D01*
X42728719Y97900000D01*
X42630007Y98084676D01*
X42543585Y98275413D01*
X42469824Y98471394D01*
X42409037Y98671779D01*
X42361487Y98875711D01*
X42327376Y99082316D01*
X42306851Y99290710D01*
X42300000Y99500000D01*
X42306851Y99709290D01*
X42327376Y99917684D01*
X42361487Y100124289D01*
X42409037Y100328221D01*
X42469824Y100528606D01*
X42543585Y100724587D01*
X42630007Y100915324D01*
X42728719Y101100000D01*
X42839297Y101277825D01*
X42961269Y101448037D01*
X43094113Y101609907D01*
X43237258Y101762742D01*
X43390093Y101905887D01*
X43551963Y102038731D01*
X43722175Y102160703D01*
X43900000Y102271281D01*
X44084676Y102369993D01*
X44275413Y102456415D01*
X44471394Y102530176D01*
X44671779Y102590963D01*
X44875711Y102638513D01*
X45082316Y102672624D01*
X45290710Y102693149D01*
X45500000Y102700000D01*
X53700000Y102700000D01*
X53700000Y96300000D01*
G37*
%TD*%
D12*
%TO.C,H4*%
X45500000Y4500000D03*
%TD*%
%TO.C,H1*%
X4500000Y99500000D03*
%TD*%
%TO.C,H3*%
X4500000Y4500000D03*
%TD*%
D13*
%TO.C,J2*%
X27500000Y8000000D03*
D14*
X22500000Y8000000D03*
%TD*%
D12*
%TO.C,H2*%
X45500000Y99500000D03*
%TD*%
D15*
%TO.C,T1*%
X28621977Y71193193D03*
X21378023Y71193193D03*
X23169595Y32408661D03*
X26075000Y37553499D03*
%TD*%
D13*
%TO.C,J1*%
X22500000Y97000000D03*
D14*
X27500000Y97000000D03*
%TD*%
%LPD*%
M02*
