%TF.GenerationSoftware,KiCad,Pcbnew,10.0.6*%
%TF.CreationDate,2026-09-29T18:38:44-04:00*%
%TF.ProjectId,PS-FLYBACK-5W,50532d46-4c59-4424-9143-4b2d35572e6b,A1-development*%
%TF.SameCoordinates,Original*%
%TF.FileFunction,Copper,L1,Top*%
%TF.FilePolarity,Positive*%
%FSLAX46Y46*%
G04 Gerber Fmt 4.6, Leading zero omitted, Abs format (unit mm)*
G04 Created by KiCad (PCBNEW 10.0.6) date 2026-09-29 18:38:44*
%MOMM*%
%LPD*%
G01*
G04 APERTURE LIST*
G04 Aperture macros list*
%AMRoundRect*
0 Rectangle with rounded corners*
0 $1 Rounding radius*
0 $2 $3 $4 $5 $6 $7 $8 $9 X,Y pos of 4 corners*
0 Add a 4 corners polygon primitive as box body*
4,1,4,$2,$3,$4,$5,$6,$7,$8,$9,$2,$3,0*
0 Add four circle primitives for the rounded corners*
1,1,$1+$1,$2,$3*
1,1,$1+$1,$4,$5*
1,1,$1+$1,$6,$7*
1,1,$1+$1,$8,$9*
0 Add four rect primitives between the rounded corners*
20,1,$1+$1,$2,$3,$4,$5,0*
20,1,$1+$1,$4,$5,$6,$7,0*
20,1,$1+$1,$6,$7,$8,$9,0*
20,1,$1+$1,$8,$9,$2,$3,0*%
G04 Aperture macros list end*
%TA.AperFunction,EtchedComponent*%
%ADD10C,0.000000*%
%TD*%
%TA.AperFunction,SMDPad,CuDef*%
%ADD11RoundRect,0.250000X0.250000X0.475000X-0.250000X0.475000X-0.250000X-0.475000X0.250000X-0.475000X0*%
%TD*%
%TA.AperFunction,SMDPad,CuDef*%
%ADD12RoundRect,0.250000X0.312500X0.625000X-0.312500X0.625000X-0.312500X-0.625000X0.312500X-0.625000X0*%
%TD*%
%TA.AperFunction,SMDPad,CuDef*%
%ADD13RoundRect,0.250000X0.375000X0.625000X-0.375000X0.625000X-0.375000X-0.625000X0.375000X-0.625000X0*%
%TD*%
%TA.AperFunction,SMDPad,CuDef*%
%ADD14RoundRect,0.250000X0.500000X-0.950000X0.500000X0.950000X-0.500000X0.950000X-0.500000X-0.950000X0*%
%TD*%
%TA.AperFunction,SMDPad,CuDef*%
%ADD15RoundRect,0.250000X0.500000X-0.275000X0.500000X0.275000X-0.500000X0.275000X-0.500000X-0.275000X0*%
%TD*%
%TA.AperFunction,SMDPad,CuDef*%
%ADD16RoundRect,0.250000X-0.625000X0.312500X-0.625000X-0.312500X0.625000X-0.312500X0.625000X0.312500X0*%
%TD*%
%TA.AperFunction,SMDPad,CuDef*%
%ADD17RoundRect,0.200000X-0.200000X-0.275000X0.200000X-0.275000X0.200000X0.275000X-0.200000X0.275000X0*%
%TD*%
%TA.AperFunction,SMDPad,CuDef*%
%ADD18RoundRect,0.250000X0.650000X-1.000000X0.650000X1.000000X-0.650000X1.000000X-0.650000X-1.000000X0*%
%TD*%
%TA.AperFunction,ComponentPad*%
%ADD19R,2.400000X2.400000*%
%TD*%
%TA.AperFunction,ComponentPad*%
%ADD20C,2.400000*%
%TD*%
%TA.AperFunction,SMDPad,CuDef*%
%ADD21R,3.360000X4.860000*%
%TD*%
%TA.AperFunction,SMDPad,CuDef*%
%ADD22R,1.390000X1.400000*%
%TD*%
%TA.AperFunction,ComponentPad*%
%ADD23C,0.800000*%
%TD*%
%TA.AperFunction,SMDPad,CuDef*%
%ADD24RoundRect,0.250000X-0.650000X1.000000X-0.650000X-1.000000X0.650000X-1.000000X0.650000X1.000000X0*%
%TD*%
%TA.AperFunction,SMDPad,CuDef*%
%ADD25RoundRect,0.200000X0.200000X0.275000X-0.200000X0.275000X-0.200000X-0.275000X0.200000X-0.275000X0*%
%TD*%
%TA.AperFunction,SMDPad,CuDef*%
%ADD26R,1.143000X0.760000*%
%TD*%
%TA.AperFunction,SMDPad,CuDef*%
%ADD27R,2.260000X2.990000*%
%TD*%
%TA.AperFunction,SMDPad,CuDef*%
%ADD28RoundRect,0.250000X-0.325000X-1.100000X0.325000X-1.100000X0.325000X1.100000X-0.325000X1.100000X0*%
%TD*%
%TA.AperFunction,SMDPad,CuDef*%
%ADD29RoundRect,0.250000X0.325000X1.100000X-0.325000X1.100000X-0.325000X-1.100000X0.325000X-1.100000X0*%
%TD*%
%TA.AperFunction,SMDPad,CuDef*%
%ADD30RoundRect,0.225000X0.225000X0.250000X-0.225000X0.250000X-0.225000X-0.250000X0.225000X-0.250000X0*%
%TD*%
%TA.AperFunction,SMDPad,CuDef*%
%ADD31RoundRect,0.250000X1.100000X-0.325000X1.100000X0.325000X-1.100000X0.325000X-1.100000X-0.325000X0*%
%TD*%
%TA.AperFunction,SMDPad,CuDef*%
%ADD32R,3.500000X1.600000*%
%TD*%
%TA.AperFunction,SMDPad,CuDef*%
%ADD33RoundRect,0.200000X0.275000X-0.200000X0.275000X0.200000X-0.275000X0.200000X-0.275000X-0.200000X0*%
%TD*%
%TA.AperFunction,ViaPad*%
%ADD34C,0.900000*%
%TD*%
%TA.AperFunction,ViaPad*%
%ADD35C,0.600000*%
%TD*%
%TA.AperFunction,ViaPad*%
%ADD36C,1.200000*%
%TD*%
%TA.AperFunction,ViaPad*%
%ADD37C,0.800000*%
%TD*%
%TA.AperFunction,Conductor*%
%ADD38C,1.000000*%
%TD*%
%TA.AperFunction,Conductor*%
%ADD39C,1.500000*%
%TD*%
%TA.AperFunction,Conductor*%
%ADD40C,2.000000*%
%TD*%
%TA.AperFunction,Conductor*%
%ADD41C,0.600000*%
%TD*%
%TA.AperFunction,Conductor*%
%ADD42C,1.300000*%
%TD*%
%TA.AperFunction,Conductor*%
%ADD43C,0.400000*%
%TD*%
%TA.AperFunction,Conductor*%
%ADD44C,0.250000*%
%TD*%
%TA.AperFunction,Conductor*%
%ADD45C,1.100000*%
%TD*%
%TA.AperFunction,Conductor*%
%ADD46C,0.800000*%
%TD*%
%TA.AperFunction,Conductor*%
%ADD47C,0.350000*%
%TD*%
%TA.AperFunction,Conductor*%
%ADD48C,1.200000*%
%TD*%
%TA.AperFunction,Conductor*%
%ADD49C,0.900000*%
%TD*%
G04 APERTURE END LIST*
D10*
%TA.AperFunction,EtchedComponent*%
%TO.C,T1*%
G36*
X25312196Y72221243D02*
G01*
X25318259Y72220998D01*
X25324339Y72220948D01*
X25630278Y72209793D01*
X25636338Y72209401D01*
X25642413Y72209203D01*
X25947993Y72190618D01*
X25954048Y72190078D01*
X25960109Y72189733D01*
X26265146Y72163729D01*
X26271189Y72163042D01*
X26277237Y72162550D01*
X26581552Y72129143D01*
X26587570Y72128310D01*
X26593610Y72127671D01*
X26897025Y72086881D01*
X26903028Y72085901D01*
X26909045Y72085116D01*
X27211377Y72036966D01*
X27217343Y72035843D01*
X27223351Y72034910D01*
X27524425Y71979429D01*
X27530367Y71978160D01*
X27536346Y71977082D01*
X27835983Y71914302D01*
X27841890Y71912890D01*
X27847840Y71911667D01*
X28145864Y71841627D01*
X28151736Y71840071D01*
X28157657Y71838704D01*
X28453892Y71761442D01*
X28459706Y71759749D01*
X28465607Y71758235D01*
X28759876Y71673801D01*
X28786607Y71665312D01*
X28838432Y71643911D01*
X28887536Y71616842D01*
X28933300Y71584445D01*
X28975148Y71547128D01*
X29012556Y71505359D01*
X29045051Y71459665D01*
X29072226Y71410620D01*
X29093739Y71358842D01*
X29109320Y71304978D01*
X29118772Y71249711D01*
X29121976Y71193732D01*
X29118893Y71137746D01*
X29109559Y71082458D01*
X29094095Y71028563D01*
X29072695Y70976737D01*
X29045625Y70927633D01*
X29013228Y70881869D01*
X28975911Y70840021D01*
X28934142Y70802613D01*
X28888449Y70770118D01*
X28839403Y70742943D01*
X28787625Y70721430D01*
X28733762Y70705849D01*
X28678494Y70696397D01*
X28622515Y70693193D01*
X28566529Y70696276D01*
X28511241Y70705610D01*
X28484077Y70712585D01*
X28195640Y70795345D01*
X27911151Y70869542D01*
X27624969Y70936799D01*
X27337228Y70997087D01*
X27048087Y71050369D01*
X26757764Y71096606D01*
X26466385Y71135778D01*
X26174162Y71167858D01*
X25881229Y71192830D01*
X25587765Y71210678D01*
X25500000Y71213877D01*
X25500000Y70125000D01*
X25499559Y70109325D01*
X25499624Y70105636D01*
X25499386Y70103136D01*
X25499213Y70096965D01*
X25496556Y70073386D01*
X25494315Y70049817D01*
X25493423Y70045570D01*
X25492936Y70041247D01*
X25487653Y70018103D01*
X25482789Y69994944D01*
X25481427Y69990824D01*
X25480459Y69986582D01*
X25472625Y69964194D01*
X25465192Y69941706D01*
X25463375Y69937760D01*
X25461940Y69933658D01*
X25451641Y69912273D01*
X25441744Y69890775D01*
X25439501Y69887064D01*
X25437612Y69883141D01*
X25424979Y69863035D01*
X25412741Y69842787D01*
X25410094Y69839347D01*
X25407780Y69835664D01*
X25392990Y69817118D01*
X25378549Y69798350D01*
X25375531Y69795225D01*
X25372821Y69791827D01*
X25356059Y69775065D01*
X25339595Y69758019D01*
X25336244Y69755250D01*
X25333173Y69752179D01*
X25314643Y69737402D01*
X25296371Y69722304D01*
X25292733Y69719929D01*
X25289336Y69717220D01*
X25269251Y69704600D01*
X25249419Y69691653D01*
X25245542Y69689702D01*
X25241859Y69687388D01*
X25220497Y69677100D01*
X25199332Y69666451D01*
X25195255Y69664944D01*
X25191342Y69663060D01*
X25168985Y69655236D01*
X25146738Y69647016D01*
X25142515Y69645974D01*
X25138418Y69644541D01*
X25115328Y69639270D01*
X25092298Y69633592D01*
X25087987Y69633030D01*
X25083753Y69632064D01*
X25060195Y69629410D01*
X25036697Y69626349D01*
X25030537Y69626068D01*
X25028035Y69625787D01*
X25024338Y69625787D01*
X25008680Y69625075D01*
X24468746Y69615700D01*
X24468725Y69615700D01*
X24468719Y69615700D01*
X23927095Y69606325D01*
X23927058Y69606325D01*
X23927026Y69606324D01*
X23381061Y69596949D01*
X23381009Y69596949D01*
X23380951Y69596947D01*
X22827898Y69587572D01*
X22827832Y69587572D01*
X22827748Y69587569D01*
X22264710Y69578194D01*
X22264614Y69578195D01*
X22264521Y69578191D01*
X21688385Y69568816D01*
X21688261Y69568817D01*
X21688159Y69568813D01*
X21095528Y69559438D01*
X21095414Y69559439D01*
X21095266Y69559433D01*
X20482364Y69550058D01*
X20482210Y69550059D01*
X20482070Y69550054D01*
X19844647Y69540679D01*
X19844492Y69540681D01*
X19844323Y69540674D01*
X19177517Y69531299D01*
X19177328Y69531301D01*
X19177167Y69531295D01*
X18475343Y69521920D01*
X18475159Y69521922D01*
X18474969Y69521915D01*
X17731510Y69512540D01*
X17731317Y69512542D01*
X17731116Y69512535D01*
X16938144Y69503160D01*
X16937946Y69503163D01*
X16937735Y69503155D01*
X16085750Y69493780D01*
X16085532Y69493783D01*
X16085329Y69493776D01*
X15162717Y69484401D01*
X15162501Y69484404D01*
X15162289Y69484397D01*
X14654554Y69479673D01*
X14659350Y68955375D01*
X14668725Y68018983D01*
X14678091Y67156916D01*
X14678091Y67156898D01*
X14687461Y66355934D01*
X14696831Y65606784D01*
X14706201Y64901388D01*
X14715571Y64232981D01*
X14724941Y63595820D01*
X14734312Y62984972D01*
X14734312Y62984958D01*
X14743683Y62396082D01*
X14743683Y62396081D01*
X14753054Y61825380D01*
X14762426Y61269430D01*
X14762426Y61269429D01*
X14771801Y60724975D01*
X14771801Y60724956D01*
X14781171Y60189580D01*
X14781172Y60189554D01*
X14790546Y59660025D01*
X14799921Y59133908D01*
X14799877Y59129606D01*
X14800000Y59125317D01*
X14809373Y44354414D01*
X14818671Y43831886D01*
X14818671Y43831846D01*
X14818672Y43831815D01*
X14828047Y43300803D01*
X14828047Y43300747D01*
X14828049Y43300690D01*
X14837424Y42762810D01*
X14837424Y42762740D01*
X14837427Y42762656D01*
X14846802Y42215092D01*
X14846801Y42214990D01*
X14846805Y42214897D01*
X14856180Y41654620D01*
X14856179Y41654507D01*
X14856184Y41654387D01*
X14865559Y41078093D01*
X14865558Y41077953D01*
X14865563Y41077824D01*
X14874938Y40481845D01*
X14874937Y40481701D01*
X14874943Y40481543D01*
X14884318Y39861746D01*
X14884316Y39861581D01*
X14884323Y39861413D01*
X14893698Y39213071D01*
X14893696Y39212890D01*
X14893703Y39212711D01*
X14903078Y38530347D01*
X14903076Y38530152D01*
X14903083Y38529962D01*
X14912458Y37807143D01*
X14912455Y37806940D01*
X14912463Y37806739D01*
X14921838Y37035808D01*
X14921835Y37035599D01*
X14921843Y37035387D01*
X14931218Y36207111D01*
X14931215Y36206900D01*
X14931223Y36206678D01*
X14940598Y35309767D01*
X14940594Y35309539D01*
X14940602Y35309326D01*
X14945193Y34829682D01*
X15441382Y34834349D01*
X15441388Y34834349D01*
X16352080Y34843724D01*
X16352084Y34843724D01*
X17190687Y34853093D01*
X17969353Y34862460D01*
X18698239Y34871834D01*
X18698259Y34871834D01*
X19383760Y34881198D01*
X19383766Y34881198D01*
X20033696Y34890568D01*
X20033699Y34890568D01*
X20653333Y34899940D01*
X21247453Y34909313D01*
X21247459Y34909313D01*
X21819678Y34918679D01*
X21819688Y34918679D01*
X22374751Y34928054D01*
X22374755Y34928054D01*
X22914991Y34937422D01*
X22914998Y34937422D01*
X23444279Y34946797D01*
X23444293Y34946797D01*
X23964842Y34956169D01*
X23964847Y34956169D01*
X24479453Y34965541D01*
X24479456Y34965541D01*
X24990809Y34974916D01*
X24990819Y34974916D01*
X25501277Y34984291D01*
X25501299Y34984291D01*
X25501304Y34984291D01*
X26013310Y34993666D01*
X26013332Y34993666D01*
X26013381Y34993668D01*
X26529440Y35003043D01*
X26529499Y35003043D01*
X26529556Y35003045D01*
X27052263Y35012420D01*
X27052356Y35012420D01*
X27052421Y35012422D01*
X27584514Y35021797D01*
X27584604Y35021797D01*
X27584713Y35021801D01*
X28129133Y35031176D01*
X28129253Y35031175D01*
X28129372Y35031180D01*
X28689328Y35040555D01*
X28689475Y35040554D01*
X28689604Y35040559D01*
X29268661Y35049934D01*
X29268815Y35049933D01*
X29268972Y35049939D01*
X29871144Y35059314D01*
X29871300Y35059313D01*
X29871486Y35059320D01*
X30501364Y35068695D01*
X30501556Y35068693D01*
X30501735Y35068700D01*
X31164638Y35078075D01*
X31164844Y35078073D01*
X31165034Y35078080D01*
X31867212Y35087455D01*
X31867408Y35087453D01*
X31867628Y35087461D01*
X32616519Y35096836D01*
X32616739Y35096833D01*
X32616951Y35096841D01*
X33421520Y35106216D01*
X33421742Y35106213D01*
X33421965Y35106221D01*
X34293174Y35115596D01*
X34293395Y35115593D01*
X34293629Y35115601D01*
X34745183Y35120051D01*
X34740648Y35588599D01*
X34740648Y35588605D01*
X34731278Y36473135D01*
X34721908Y37288193D01*
X34712538Y38045037D01*
X34712538Y38045049D01*
X34703174Y38752454D01*
X34693799Y39419299D01*
X34693799Y39419307D01*
X34684430Y40050732D01*
X34684430Y40050744D01*
X34675061Y40652595D01*
X34665691Y41229563D01*
X34656321Y41785713D01*
X34656321Y41785725D01*
X34646951Y42324649D01*
X34637583Y42849410D01*
X34628208Y43363519D01*
X34628208Y43363527D01*
X34618836Y43869124D01*
X34609463Y44368985D01*
X34600089Y44865563D01*
X34600130Y44870123D01*
X34600000Y44874682D01*
X34590627Y59615860D01*
X34581339Y60108490D01*
X34581339Y60108515D01*
X34581337Y60108563D01*
X34571962Y60609668D01*
X34571962Y60609730D01*
X34571960Y60609786D01*
X34562585Y61117321D01*
X34562585Y61117401D01*
X34562582Y61117483D01*
X34553207Y61634104D01*
X34553208Y61634218D01*
X34553204Y61634309D01*
X34543829Y62162871D01*
X34543830Y62162980D01*
X34543824Y62163116D01*
X34534449Y62706734D01*
X34534450Y62706891D01*
X34534445Y62707019D01*
X34525070Y63269152D01*
X34525071Y63269298D01*
X34525064Y63269472D01*
X34515689Y63854019D01*
X34515691Y63854204D01*
X34515684Y63854371D01*
X34506309Y64465786D01*
X34506311Y64465971D01*
X34506303Y64466168D01*
X34496928Y65109612D01*
X34496930Y65109811D01*
X34496922Y65110019D01*
X34487547Y65791557D01*
X34487550Y65791784D01*
X34487542Y65791986D01*
X34478167Y66518832D01*
X34478170Y66519047D01*
X34478161Y66519279D01*
X34468786Y67300138D01*
X34468789Y67300373D01*
X34468781Y67300597D01*
X34459406Y68146107D01*
X34459409Y68146339D01*
X34459401Y68146574D01*
X34455101Y68570040D01*
X34014788Y68565651D01*
X33156287Y68556285D01*
X33156285Y68556285D01*
X32364484Y68546910D01*
X32364477Y68546910D01*
X31630157Y68537546D01*
X31630136Y68537546D01*
X30942685Y68528173D01*
X30295738Y68518804D01*
X29682641Y68509433D01*
X29098375Y68500064D01*
X29098367Y68500064D01*
X28538662Y68490700D01*
X28538654Y68490700D01*
X27998537Y68481325D01*
X27998536Y68481325D01*
X27475468Y68471955D01*
X27475447Y68471955D01*
X26966215Y68462589D01*
X26966193Y68462588D01*
X26467257Y68453213D01*
X26467256Y68453213D01*
X25976726Y68443843D01*
X25976722Y68443843D01*
X25491563Y68434468D01*
X25491536Y68434468D01*
X25009755Y68425095D01*
X25009743Y68425095D01*
X24528762Y68415720D01*
X24528756Y68415720D01*
X24528733Y68415719D01*
X24046346Y68406344D01*
X24046301Y68406344D01*
X24046271Y68406343D01*
X23560120Y68396968D01*
X23560053Y68396968D01*
X23559998Y68396966D01*
X23067638Y68387591D01*
X23067570Y68387591D01*
X23067471Y68387587D01*
X22566322Y68378212D01*
X22566201Y68378213D01*
X22566111Y68378209D01*
X22053407Y68368834D01*
X22053289Y68368835D01*
X22053154Y68368829D01*
X21525874Y68359454D01*
X21525727Y68359455D01*
X21525582Y68359449D01*
X20980370Y68350074D01*
X20980215Y68350075D01*
X20980042Y68350068D01*
X20413119Y68340693D01*
X20412940Y68340695D01*
X20412756Y68340687D01*
X19819806Y68331312D01*
X19819609Y68331314D01*
X19819413Y68331306D01*
X19195428Y68321931D01*
X19195216Y68321933D01*
X19195008Y68321925D01*
X18534112Y68312550D01*
X18533890Y68312553D01*
X18533670Y68312544D01*
X17828864Y68303169D01*
X17828636Y68303172D01*
X17828404Y68303163D01*
X17071252Y68293788D01*
X17071005Y68293791D01*
X17070780Y68293783D01*
X16250970Y68284408D01*
X16250743Y68284411D01*
X16250489Y68284402D01*
X15855112Y68280261D01*
X15859349Y67867891D01*
X15859349Y67867872D01*
X15868713Y67035277D01*
X15868713Y67035264D01*
X15878082Y66267640D01*
X15887451Y65554894D01*
X15896826Y64887918D01*
X15906188Y64260851D01*
X15906188Y64260845D01*
X15915557Y63666340D01*
X15915557Y63666337D01*
X15924926Y63099718D01*
X15934295Y62556583D01*
X15943665Y62033095D01*
X15943665Y62033091D01*
X15953035Y61525850D01*
X15962406Y61031814D01*
X15971778Y60548216D01*
X15971778Y60548212D01*
X15981151Y60072488D01*
X15981151Y60072479D01*
X15990526Y59602129D01*
X15990526Y59602106D01*
X15999899Y59135032D01*
X15999861Y59130184D01*
X16000000Y59125319D01*
X16009372Y44413947D01*
X16018650Y43951202D01*
X16018650Y43951154D01*
X16018651Y43951125D01*
X16028026Y43479927D01*
X16028026Y43479874D01*
X16028029Y43479802D01*
X16037404Y43002613D01*
X16037404Y43002522D01*
X16037407Y43002442D01*
X16046782Y42516766D01*
X16046782Y42516655D01*
X16046786Y42516549D01*
X16056161Y42019703D01*
X16056160Y42019576D01*
X16056166Y42019443D01*
X16065541Y41508500D01*
X16065540Y41508342D01*
X16065546Y41508199D01*
X16074921Y40979910D01*
X16074920Y40979742D01*
X16074927Y40979570D01*
X16084302Y40430274D01*
X16084300Y40430083D01*
X16084308Y40429900D01*
X16093683Y39855414D01*
X16093681Y39855221D01*
X16093690Y39855008D01*
X16103065Y39250483D01*
X16103063Y39250258D01*
X16103071Y39250051D01*
X16112446Y38609794D01*
X16112444Y38609577D01*
X16112453Y38609339D01*
X16121828Y37926574D01*
X16121825Y37926332D01*
X16121834Y37926100D01*
X16131209Y37192656D01*
X16131206Y37192412D01*
X16131215Y37192168D01*
X16140590Y36398060D01*
X16140587Y36397818D01*
X16140596Y36397562D01*
X16144567Y36030273D01*
X16528850Y36034347D01*
X16528857Y36034347D01*
X17336004Y36043714D01*
X18079643Y36053080D01*
X18079646Y36053080D01*
X18770807Y36062454D01*
X18770813Y36062454D01*
X19416201Y36071816D01*
X19416219Y36071816D01*
X20024685Y36081191D01*
X20024687Y36081191D01*
X20600687Y36090559D01*
X20600693Y36090559D01*
X21149261Y36099922D01*
X21149270Y36099922D01*
X21675525Y36109291D01*
X22182912Y36118665D01*
X22182924Y36118665D01*
X22674221Y36128034D01*
X23152539Y36137400D01*
X23152545Y36137400D01*
X23620960Y36146773D01*
X23620970Y36146773D01*
X24081865Y36156147D01*
X24081884Y36156147D01*
X24537198Y36165518D01*
X24537214Y36165518D01*
X24989641Y36174893D01*
X24989662Y36174893D01*
X25441126Y36184267D01*
X25441132Y36184267D01*
X25441154Y36184268D01*
X25893922Y36193644D01*
X25893974Y36193644D01*
X25894003Y36193645D01*
X26350248Y36203019D01*
X26350304Y36203019D01*
X26350375Y36203022D01*
X26812390Y36212397D01*
X26812470Y36212397D01*
X26812567Y36212401D01*
X27282770Y36221776D01*
X27282889Y36221776D01*
X27282994Y36221780D01*
X27763982Y36231155D01*
X27764117Y36231154D01*
X27764249Y36231160D01*
X28258855Y36240536D01*
X28259007Y36240535D01*
X28259167Y36240542D01*
X28770534Y36249916D01*
X28770713Y36249915D01*
X28770883Y36249922D01*
X29302554Y36259297D01*
X29302741Y36259296D01*
X29302940Y36259304D01*
X29858963Y36268679D01*
X29859169Y36268677D01*
X29859381Y36268686D01*
X30444446Y36278061D01*
X30444668Y36278059D01*
X30444892Y36278068D01*
X31064508Y36287444D01*
X31064742Y36287441D01*
X31064980Y36287451D01*
X31725702Y36296825D01*
X31725959Y36296822D01*
X31726192Y36296831D01*
X32435926Y36306206D01*
X32436167Y36306203D01*
X32436430Y36306213D01*
X33204838Y36315588D01*
X33205094Y36315584D01*
X33205351Y36315594D01*
X33544555Y36319385D01*
X33540655Y36675581D01*
X33531292Y37456741D01*
X33521917Y38177418D01*
X33512549Y38846036D01*
X33503181Y39471244D01*
X33493813Y40059784D01*
X33493813Y40059804D01*
X33484446Y40617308D01*
X33475078Y41148620D01*
X33465716Y41657506D01*
X33456341Y42148609D01*
X33446972Y42624075D01*
X33437602Y43087105D01*
X33437602Y43087121D01*
X33428236Y43540108D01*
X33428235Y43540128D01*
X33418860Y43986071D01*
X33418860Y43986084D01*
X33409488Y44426678D01*
X33409488Y44426693D01*
X33400115Y44864293D01*
X33400149Y44869479D01*
X33400000Y44874681D01*
X33390628Y59556286D01*
X33381365Y59989025D01*
X33381365Y59989060D01*
X33381363Y59989106D01*
X33371988Y60430398D01*
X33371988Y60430460D01*
X33371985Y60430530D01*
X33362610Y60877372D01*
X33362610Y60877459D01*
X33362606Y60877554D01*
X33353231Y61332286D01*
X33353231Y61332414D01*
X33353227Y61332517D01*
X33343852Y61797646D01*
X33343853Y61797775D01*
X33343846Y61797923D01*
X33334471Y62276190D01*
X33334472Y62276353D01*
X33334465Y62276510D01*
X33325090Y62770955D01*
X33325091Y62771131D01*
X33325083Y62771317D01*
X33315708Y63285363D01*
X33315709Y63285563D01*
X33315701Y63285761D01*
X33306326Y63823319D01*
X33306328Y63823541D01*
X33306319Y63823751D01*
X33296944Y64389357D01*
X33296946Y64389577D01*
X33296936Y64389818D01*
X33287561Y64988794D01*
X33287564Y64989043D01*
X33287554Y64989280D01*
X33278179Y65627962D01*
X33278182Y65628219D01*
X33278172Y65628469D01*
X33268797Y66314495D01*
X33268800Y66314752D01*
X33268790Y66315016D01*
X33259415Y67057723D01*
X33259418Y67057978D01*
X33259408Y67058254D01*
X33255811Y67369371D01*
X32928237Y67365663D01*
X32928236Y67365663D01*
X32171856Y67356289D01*
X31475794Y67346926D01*
X30828749Y67337552D01*
X30828742Y67337552D01*
X30224198Y67328185D01*
X30224196Y67328185D01*
X29655611Y67318825D01*
X29655593Y67318825D01*
X29116090Y67309450D01*
X29116083Y67309450D01*
X28602821Y67300090D01*
X28602814Y67300090D01*
X28110273Y67290717D01*
X27635715Y67281347D01*
X27635697Y67281347D01*
X27176119Y67271979D01*
X27176110Y67271979D01*
X26728825Y67262615D01*
X26728798Y67262614D01*
X26290555Y67253239D01*
X26290552Y67253239D01*
X25859746Y67243868D01*
X25859740Y67243868D01*
X25500000Y67235949D01*
X25500000Y66524999D01*
X25499213Y66496964D01*
X25492936Y66441246D01*
X25480459Y66386581D01*
X25461940Y66333657D01*
X25437612Y66283140D01*
X25407780Y66235663D01*
X25372821Y66191826D01*
X25333173Y66152178D01*
X25289336Y66117219D01*
X25241859Y66087387D01*
X25191342Y66063059D01*
X25138418Y66044540D01*
X25083753Y66032063D01*
X25028035Y66025786D01*
X25000000Y66024999D01*
X24971965Y66025786D01*
X24916247Y66032063D01*
X24861582Y66044540D01*
X24808658Y66063059D01*
X24758141Y66087387D01*
X24710664Y66117219D01*
X24666827Y66152178D01*
X24627179Y66191826D01*
X24592220Y66235663D01*
X24562388Y66283140D01*
X24538060Y66333657D01*
X24519541Y66386581D01*
X24507064Y66441246D01*
X24500787Y66496964D01*
X24500000Y66524999D01*
X24500000Y67725000D01*
X24500372Y67738218D01*
X24500288Y67741965D01*
X24500562Y67744991D01*
X24500787Y67753035D01*
X24503305Y67775381D01*
X24505329Y67797809D01*
X24506444Y67803243D01*
X24507064Y67808753D01*
X24512074Y67830700D01*
X24516592Y67852737D01*
X24518307Y67858007D01*
X24519541Y67863418D01*
X24526975Y67884661D01*
X24533933Y67906058D01*
X24536229Y67911107D01*
X24538060Y67916342D01*
X24547827Y67936621D01*
X24557136Y67957102D01*
X24559981Y67961860D01*
X24562388Y67966859D01*
X24574362Y67985915D01*
X24585908Y68005228D01*
X24589270Y68009640D01*
X24592220Y68014336D01*
X24606250Y68031928D01*
X24619887Y68049829D01*
X24623721Y68053836D01*
X24627179Y68058173D01*
X24643095Y68074088D01*
X24658647Y68090346D01*
X24662904Y68093897D01*
X24666827Y68097821D01*
X24684431Y68111859D01*
X24701699Y68126268D01*
X24706326Y68129320D01*
X24710664Y68132780D01*
X24729723Y68144755D01*
X24748503Y68157145D01*
X24753446Y68159661D01*
X24758141Y68162612D01*
X24778418Y68172376D01*
X24798468Y68182586D01*
X24803660Y68184532D01*
X24808658Y68186940D01*
X24829895Y68194370D01*
X24850969Y68202274D01*
X24856351Y68203628D01*
X24861582Y68205459D01*
X24883514Y68210464D01*
X24905344Y68215959D01*
X24910840Y68216701D01*
X24916247Y68217936D01*
X24938620Y68220456D01*
X24960909Y68223469D01*
X24968948Y68223873D01*
X24971965Y68224213D01*
X24975710Y68224213D01*
X24988920Y68224877D01*
X25411871Y68234252D01*
X25411904Y68234251D01*
X25411948Y68234254D01*
X25837869Y68243629D01*
X25837930Y68243628D01*
X25837998Y68243632D01*
X26268987Y68253007D01*
X26269075Y68253006D01*
X26269167Y68253011D01*
X26707411Y68262386D01*
X26707540Y68262385D01*
X26707640Y68262390D01*
X27155464Y68271765D01*
X27155595Y68271764D01*
X27155739Y68271771D01*
X27615654Y68281146D01*
X27615802Y68281144D01*
X27615973Y68281153D01*
X28090739Y68290528D01*
X28090917Y68290526D01*
X28091098Y68290535D01*
X28583789Y68299910D01*
X28583994Y68299908D01*
X28584186Y68299917D01*
X29098286Y68309292D01*
X29098494Y68309289D01*
X29098716Y68309300D01*
X29638218Y68318675D01*
X29638461Y68318672D01*
X29638677Y68318682D01*
X30208223Y68328057D01*
X30208459Y68328054D01*
X30208706Y68328065D01*
X30813760Y68337440D01*
X30814003Y68337436D01*
X30814263Y68337448D01*
X31461340Y68346823D01*
X31461603Y68346819D01*
X31461858Y68346830D01*
X32158826Y68356205D01*
X32159087Y68356201D01*
X32159355Y68356212D01*
X32915844Y68365587D01*
X32916117Y68365582D01*
X32916379Y68365593D01*
X33744339Y68374967D01*
X33772121Y68374501D01*
X33772262Y68374503D01*
X33772309Y68374498D01*
X33772382Y68374497D01*
X33800346Y68371667D01*
X33828049Y68368870D01*
X33828101Y68368858D01*
X33828167Y68368852D01*
X33856229Y68362780D01*
X33882855Y68357026D01*
X33882914Y68357006D01*
X33882970Y68356994D01*
X33909856Y68347926D01*
X33935989Y68339120D01*
X33936039Y68339096D01*
X33936100Y68339076D01*
X33961430Y68327228D01*
X33986784Y68315378D01*
X33986838Y68315344D01*
X33986889Y68315321D01*
X34009711Y68301338D01*
X34034603Y68286096D01*
X34034650Y68286058D01*
X34034701Y68286028D01*
X34057365Y68268369D01*
X34078841Y68251646D01*
X34078880Y68251607D01*
X34078931Y68251568D01*
X34099092Y68231857D01*
X34118945Y68212459D01*
X34118984Y68212410D01*
X34119025Y68212371D01*
X34136487Y68190975D01*
X34154408Y68169029D01*
X34154439Y68168980D01*
X34154478Y68168933D01*
X34170372Y68144261D01*
X34184787Y68121900D01*
X34184811Y68121850D01*
X34184846Y68121797D01*
X34197595Y68096071D01*
X34209697Y68071668D01*
X34209717Y68071611D01*
X34209744Y68071558D01*
X34218873Y68046386D01*
X34228827Y68018962D01*
X34228842Y68018898D01*
X34228861Y68018847D01*
X34234920Y67993617D01*
X34241935Y67964445D01*
X34241942Y67964381D01*
X34241956Y67964327D01*
X34245283Y67937521D01*
X34248856Y67908803D01*
X34248859Y67908722D01*
X34248864Y67908684D01*
X34248865Y67908568D01*
X34249967Y67880779D01*
X34259342Y67069814D01*
X34268703Y66328159D01*
X34278071Y65642640D01*
X34287438Y65004449D01*
X34287439Y65004444D01*
X34296814Y64405468D01*
X34306173Y63840763D01*
X34306174Y63840757D01*
X34315542Y63303597D01*
X34324910Y62789913D01*
X34334278Y62295791D01*
X34334279Y62295788D01*
X34343654Y61817521D01*
X34353017Y61352920D01*
X34353019Y61352898D01*
X34362390Y60898348D01*
X34371762Y60451638D01*
X34381135Y60010427D01*
X34390510Y59572469D01*
X34390475Y59567288D01*
X34390625Y59562087D01*
X34399996Y44880493D01*
X34409260Y44448019D01*
X34409259Y44447989D01*
X34409262Y44447944D01*
X34418637Y44007213D01*
X34418636Y44007158D01*
X34418640Y44007089D01*
X34428015Y43561147D01*
X34428014Y43561050D01*
X34428018Y43560974D01*
X34437393Y43107557D01*
X34437392Y43107456D01*
X34437398Y43107337D01*
X34446773Y42644040D01*
X34446771Y42643903D01*
X34446778Y42643775D01*
X34456153Y42168003D01*
X34456151Y42167850D01*
X34456159Y42167695D01*
X34465534Y41676593D01*
X34465532Y41676411D01*
X34465540Y41676246D01*
X34474915Y41166631D01*
X34474913Y41166442D01*
X34474922Y41166248D01*
X34484297Y40634522D01*
X34484294Y40634313D01*
X34484304Y40634108D01*
X34493679Y40076141D01*
X34493676Y40075933D01*
X34493687Y40075698D01*
X34503062Y39486692D01*
X34503059Y39486456D01*
X34503069Y39486226D01*
X34512444Y38860532D01*
X34512440Y38860289D01*
X34512451Y38860046D01*
X34521826Y38190926D01*
X34521822Y38190681D01*
X34521833Y38190426D01*
X34531208Y37469749D01*
X34531204Y37469486D01*
X34531214Y37469237D01*
X34540589Y36687049D01*
X34540584Y36686791D01*
X34540595Y36686531D01*
X34549970Y35830477D01*
X34549493Y35802656D01*
X34549495Y35802546D01*
X34549491Y35802510D01*
X34549490Y35802435D01*
X34546563Y35773624D01*
X34543841Y35746761D01*
X34543830Y35746711D01*
X34543824Y35746651D01*
X34537421Y35717115D01*
X34531975Y35691960D01*
X34531958Y35691912D01*
X34531946Y35691853D01*
X34522153Y35662852D01*
X34514049Y35638833D01*
X34514027Y35638788D01*
X34514008Y35638729D01*
X34501709Y35612460D01*
X34490287Y35588047D01*
X34490256Y35587998D01*
X34490234Y35587949D01*
X34475751Y35564330D01*
X34460987Y35540239D01*
X34460953Y35540196D01*
X34460924Y35540148D01*
X34444898Y35519595D01*
X34426520Y35496015D01*
X34426482Y35495978D01*
X34426447Y35495931D01*
X34406310Y35475349D01*
X34387318Y35455926D01*
X34387275Y35455892D01*
X34387236Y35455851D01*
X34365955Y35438496D01*
X34343874Y35420479D01*
X34343825Y35420448D01*
X34343784Y35420414D01*
X34319851Y35405008D01*
X34296733Y35390119D01*
X34296687Y35390097D01*
X34296637Y35390064D01*
X34269883Y35376818D01*
X34246491Y35365228D01*
X34246441Y35365211D01*
X34246389Y35365184D01*
X34218855Y35355211D01*
X34193777Y35346119D01*
X34193724Y35346107D01*
X34193671Y35346087D01*
X34165565Y35339348D01*
X34139255Y35333032D01*
X34139201Y35333026D01*
X34139146Y35333012D01*
X34111912Y35329642D01*
X34083611Y35326132D01*
X34083531Y35326129D01*
X34083500Y35326125D01*
X34083406Y35326124D01*
X34055586Y35325032D01*
X33216777Y35315659D01*
X32448630Y35306287D01*
X32448618Y35306288D01*
X31739904Y35296926D01*
X31739889Y35296925D01*
X31079316Y35287554D01*
X30460186Y35278185D01*
X29875460Y35268815D01*
X29319798Y35259446D01*
X29319791Y35259447D01*
X28788867Y35250085D01*
X28788862Y35250084D01*
X28277495Y35240710D01*
X28277492Y35240711D01*
X27783470Y35231346D01*
X27783469Y35231345D01*
X27302717Y35221975D01*
X27302705Y35221974D01*
X26832501Y35212599D01*
X26832486Y35212600D01*
X26370810Y35203231D01*
X26370790Y35203230D01*
X25914649Y35193860D01*
X25914626Y35193858D01*
X25461858Y35184482D01*
X25461842Y35184483D01*
X25010380Y35175108D01*
X25010378Y35175109D01*
X25010358Y35175107D01*
X24557932Y35165732D01*
X24557888Y35165733D01*
X24557860Y35165731D01*
X24102321Y35156356D01*
X24102270Y35156357D01*
X24102200Y35156353D01*
X23641304Y35146979D01*
X23641217Y35146980D01*
X23641140Y35146976D01*
X23172551Y35137600D01*
X23172440Y35137601D01*
X23172337Y35137596D01*
X22693568Y35128221D01*
X22693441Y35128223D01*
X22693311Y35128216D01*
X22201681Y35118841D01*
X22201541Y35118843D01*
X22201384Y35118835D01*
X21693943Y35109460D01*
X21693774Y35109462D01*
X21693607Y35109454D01*
X21167070Y35100080D01*
X21166879Y35100082D01*
X21166702Y35100074D01*
X20617350Y35090698D01*
X20617156Y35090701D01*
X20616949Y35090691D01*
X20040519Y35081316D01*
X20040309Y35081319D01*
X20040091Y35081309D01*
X19431625Y35071934D01*
X19431386Y35071938D01*
X19431174Y35071928D01*
X18784839Y35062553D01*
X18784611Y35062557D01*
X18784368Y35062546D01*
X18093208Y35053172D01*
X18092960Y35053176D01*
X18092724Y35053166D01*
X17348339Y35043790D01*
X17348091Y35043794D01*
X17347843Y35043784D01*
X16539953Y35034409D01*
X16539711Y35034413D01*
X16539452Y35034403D01*
X15655301Y35025029D01*
X15627476Y35025516D01*
X15627363Y35025514D01*
X15627326Y35025518D01*
X15627259Y35025519D01*
X15601546Y35028141D01*
X15571581Y35031188D01*
X15571525Y35031201D01*
X15571478Y35031205D01*
X15547946Y35036315D01*
X15516784Y35043073D01*
X15516726Y35043093D01*
X15516683Y35043102D01*
X15492720Y35051203D01*
X15463663Y35061019D01*
X15463616Y35061042D01*
X15463566Y35061058D01*
X15437118Y35073452D01*
X15412886Y35084800D01*
X15412846Y35084825D01*
X15412794Y35084849D01*
X15386840Y35100777D01*
X15365089Y35114117D01*
X15365052Y35114147D01*
X15365003Y35114176D01*
X15341913Y35132194D01*
X15320877Y35148600D01*
X15320840Y35148637D01*
X15320798Y35148669D01*
X15299763Y35169264D01*
X15280803Y35187817D01*
X15280773Y35187855D01*
X15280732Y35187894D01*
X15261976Y35210910D01*
X15245372Y35231273D01*
X15245345Y35231316D01*
X15245310Y35231358D01*
X15230412Y35254521D01*
X15215028Y35278425D01*
X15215003Y35278476D01*
X15214977Y35278516D01*
X15203101Y35302523D01*
X15190156Y35328676D01*
X15190139Y35328725D01*
X15190115Y35328772D01*
X15180556Y35355189D01*
X15171065Y35381397D01*
X15171053Y35381448D01*
X15171035Y35381497D01*
X15164840Y35407375D01*
X15157998Y35435924D01*
X15157991Y35435982D01*
X15157980Y35436027D01*
X15154728Y35462378D01*
X15151119Y35491571D01*
X15151117Y35491641D01*
X15151112Y35491675D01*
X15151111Y35491780D01*
X15150029Y35519595D01*
X15140654Y36386752D01*
X15140655Y36386757D01*
X15131285Y37180364D01*
X15121916Y37913318D01*
X15112547Y38595609D01*
X15112548Y38595621D01*
X15103185Y39234977D01*
X15093810Y39839502D01*
X15093811Y39839516D01*
X15084442Y40413584D01*
X15075073Y40962506D01*
X15065709Y41490154D01*
X15056334Y42001097D01*
X15056335Y42001101D01*
X15046964Y42497683D01*
X15037593Y42983142D01*
X15028221Y43460160D01*
X15028222Y43460179D01*
X15018851Y43931138D01*
X15018850Y43931156D01*
X15009475Y44398733D01*
X15009515Y44403596D01*
X15009375Y44408437D01*
X15000004Y59119847D01*
X14990726Y59582133D01*
X14990727Y59582155D01*
X14990724Y59582201D01*
X14981349Y60052551D01*
X14981350Y60052613D01*
X14981347Y60052666D01*
X14971972Y60528514D01*
X14971973Y60528597D01*
X14971969Y60528675D01*
X14962594Y61012438D01*
X14962595Y61012539D01*
X14962590Y61012643D01*
X14953215Y61506884D01*
X14953217Y61507001D01*
X14953210Y61507132D01*
X14943835Y62014621D01*
X14943837Y62014768D01*
X14943830Y62014908D01*
X14934455Y62538687D01*
X14934457Y62538843D01*
X14934449Y62539011D01*
X14925074Y63082470D01*
X14925076Y63082649D01*
X14925068Y63082827D01*
X14915693Y63649805D01*
X14915696Y63650003D01*
X14915687Y63650192D01*
X14906312Y64245087D01*
X14906315Y64245301D01*
X14906306Y64245502D01*
X14896931Y64873427D01*
X14896934Y64873633D01*
X14896924Y64873864D01*
X14887549Y65540840D01*
X14887553Y65541071D01*
X14887543Y65541295D01*
X14878168Y66254496D01*
X14878172Y66254730D01*
X14878162Y66254966D01*
X14868787Y67023060D01*
X14868791Y67023310D01*
X14868782Y67023539D01*
X14859407Y67857130D01*
X14859411Y67857359D01*
X14859401Y67857616D01*
X14850027Y68769861D01*
X14850523Y68797724D01*
X14850522Y68797804D01*
X14850525Y68797830D01*
X14850526Y68797903D01*
X14853663Y68828570D01*
X14856215Y68853585D01*
X14856225Y68853628D01*
X14856230Y68853683D01*
X14862664Y68883264D01*
X14868119Y68908378D01*
X14868134Y68908422D01*
X14868145Y68908473D01*
X14877850Y68937150D01*
X14886083Y68961493D01*
X14886102Y68961532D01*
X14886119Y68961584D01*
X14898425Y68987822D01*
X14909880Y69012262D01*
X14909907Y69012304D01*
X14909927Y69012349D01*
X14923659Y69034708D01*
X14939213Y69060049D01*
X14939248Y69060092D01*
X14939270Y69060130D01*
X14956194Y69081804D01*
X14973711Y69104249D01*
X14973743Y69104281D01*
X14973776Y69104324D01*
X14994707Y69125688D01*
X15012942Y69144310D01*
X15012979Y69144339D01*
X15013015Y69144377D01*
X15033837Y69161334D01*
X15056410Y69179727D01*
X15056458Y69179757D01*
X15056490Y69179784D01*
X15078594Y69193991D01*
X15103572Y69210054D01*
X15103615Y69210074D01*
X15103658Y69210103D01*
X15129728Y69222989D01*
X15153832Y69234910D01*
X15153878Y69234926D01*
X15153923Y69234949D01*
X15180470Y69244545D01*
X15206559Y69253982D01*
X15206608Y69253993D01*
X15206653Y69254010D01*
X15232279Y69260136D01*
X15261090Y69267031D01*
X15261144Y69267037D01*
X15261187Y69267048D01*
X15288909Y69270460D01*
X15316740Y69273891D01*
X15316800Y69273893D01*
X15316838Y69273898D01*
X15316952Y69273899D01*
X15344765Y69274972D01*
X16240017Y69284348D01*
X16240035Y69284347D01*
X17058858Y69293711D01*
X17058872Y69293712D01*
X17815909Y69303085D01*
X18520080Y69312452D01*
X19180474Y69321820D01*
X19804139Y69331190D01*
X20396947Y69340563D01*
X20396948Y69340562D01*
X20963507Y69349932D01*
X20963519Y69349931D01*
X21508095Y69359295D01*
X21508096Y69359296D01*
X22035377Y69368671D01*
X22035391Y69368670D01*
X22547588Y69378036D01*
X22547618Y69378038D01*
X23048767Y69387413D01*
X23048796Y69387412D01*
X23540830Y69396781D01*
X23540840Y69396782D01*
X24026901Y69406155D01*
X24026916Y69406156D01*
X24509302Y69415531D01*
X24509319Y69415530D01*
X24990256Y69424905D01*
X24990273Y69424904D01*
X24990275Y69424905D01*
X25472178Y69434280D01*
X25472197Y69434279D01*
X25472243Y69434282D01*
X25957402Y69443657D01*
X25957459Y69443656D01*
X25957513Y69443659D01*
X26448316Y69453034D01*
X26448392Y69453033D01*
X26448471Y69453037D01*
X26947407Y69462412D01*
X26947518Y69462410D01*
X26947605Y69462415D01*
X27457318Y69471790D01*
X27457426Y69471788D01*
X27457558Y69471795D01*
X27980905Y69481170D01*
X27981042Y69481168D01*
X27981183Y69481175D01*
X28521299Y69490550D01*
X28521462Y69490548D01*
X28521613Y69490555D01*
X29081994Y69499930D01*
X29082161Y69499928D01*
X29082341Y69499936D01*
X29666944Y69509311D01*
X29667130Y69509308D01*
X29667320Y69509317D01*
X30280678Y69518692D01*
X30280877Y69518689D01*
X30281079Y69518698D01*
X30928464Y69528073D01*
X30928675Y69528070D01*
X30928888Y69528079D01*
X31616504Y69537454D01*
X31616739Y69537450D01*
X31616945Y69537459D01*
X32352189Y69546834D01*
X32352409Y69546830D01*
X32352644Y69546840D01*
X33144446Y69556215D01*
X33144683Y69556211D01*
X33144911Y69556220D01*
X34004202Y69565595D01*
X34004436Y69565590D01*
X34004673Y69565600D01*
X34945016Y69574974D01*
X34972882Y69574470D01*
X34972965Y69574471D01*
X34972992Y69574468D01*
X34973058Y69574467D01*
X35000545Y69571647D01*
X35028744Y69568760D01*
X35028793Y69568749D01*
X35028835Y69568745D01*
X35054035Y69563257D01*
X35083533Y69556839D01*
X35083579Y69556823D01*
X35083622Y69556814D01*
X35108365Y69548431D01*
X35136642Y69538858D01*
X35136686Y69538836D01*
X35136728Y69538823D01*
X35160640Y69527599D01*
X35187404Y69515044D01*
X35187445Y69515018D01*
X35187485Y69515000D01*
X35210263Y69501001D01*
X35235181Y69485696D01*
X35235218Y69485666D01*
X35235257Y69485643D01*
X35257786Y69468041D01*
X35279371Y69451183D01*
X35279401Y69451152D01*
X35279440Y69451123D01*
X35301403Y69429593D01*
X35319419Y69411940D01*
X35319444Y69411909D01*
X35319482Y69411872D01*
X35339203Y69387640D01*
X35354821Y69368460D01*
X35354843Y69368424D01*
X35354876Y69368385D01*
X35371760Y69342100D01*
X35385134Y69321288D01*
X35385151Y69321251D01*
X35385180Y69321208D01*
X35398056Y69295137D01*
X35409974Y69271021D01*
X35409990Y69270975D01*
X35410010Y69270936D01*
X35419647Y69244251D01*
X35429029Y69218288D01*
X35429039Y69218245D01*
X35429056Y69218199D01*
X35436348Y69187656D01*
X35442060Y69163752D01*
X35442064Y69163713D01*
X35442077Y69163662D01*
X35445681Y69134299D01*
X35448903Y69108101D01*
X35448905Y69108038D01*
X35448909Y69108009D01*
X35448909Y69107921D01*
X35449974Y69080075D01*
X35459344Y68157195D01*
X35468713Y67312147D01*
X35468714Y67312144D01*
X35478089Y66531284D01*
X35487452Y65805328D01*
X35487453Y65805311D01*
X35496822Y65124180D01*
X35506191Y64481118D01*
X35515560Y63870068D01*
X35515561Y63870055D01*
X35524936Y63285508D01*
X35524935Y63285484D01*
X35534299Y62724003D01*
X35534301Y62723978D01*
X35543676Y62180359D01*
X35543675Y62180336D01*
X35553041Y61652270D01*
X35553043Y61652248D01*
X35562415Y61135789D01*
X35571787Y60628380D01*
X35571788Y60628374D01*
X35581163Y60127268D01*
X35581162Y60127246D01*
X35590536Y59630147D01*
X35590494Y59625595D01*
X35590625Y59621038D01*
X35599997Y44879876D01*
X35609286Y44387796D01*
X35609285Y44387762D01*
X35609287Y44387733D01*
X35618662Y43887765D01*
X35618661Y43887712D01*
X35618664Y43887658D01*
X35628039Y43381902D01*
X35628038Y43381831D01*
X35628042Y43381751D01*
X35637417Y42867643D01*
X35637415Y42867538D01*
X35637420Y42867450D01*
X35646795Y42342265D01*
X35646793Y42342148D01*
X35646799Y42342033D01*
X35656174Y41802829D01*
X35656172Y41802701D01*
X35656179Y41802559D01*
X35665554Y41246105D01*
X35665552Y41245953D01*
X35665559Y41245801D01*
X35674934Y40668497D01*
X35674931Y40668323D01*
X35674939Y40668161D01*
X35684314Y40065933D01*
X35684311Y40065759D01*
X35684320Y40065568D01*
X35693695Y39433746D01*
X35693692Y39433559D01*
X35693701Y39433357D01*
X35703076Y38766512D01*
X35703072Y38766296D01*
X35703081Y38766101D01*
X35712456Y38057844D01*
X35712452Y38057639D01*
X35712462Y38057415D01*
X35721837Y37300130D01*
X35721833Y37299905D01*
X35721842Y37299689D01*
X35731217Y36484178D01*
X35731213Y36483953D01*
X35731222Y36483727D01*
X35740597Y35598735D01*
X35740593Y35598514D01*
X35740602Y35598279D01*
X35749976Y34629840D01*
X35749463Y34601971D01*
X35749464Y34601885D01*
X35749461Y34601857D01*
X35749460Y34601799D01*
X35746380Y34571855D01*
X35743736Y34546108D01*
X35743728Y34546072D01*
X35743723Y34546022D01*
X35737151Y34515891D01*
X35731798Y34491323D01*
X35731784Y34491285D01*
X35731775Y34491239D01*
X35722841Y34464892D01*
X35713802Y34438219D01*
X35713782Y34438177D01*
X35713769Y34438138D01*
X35702747Y34414674D01*
X35689973Y34387465D01*
X35689948Y34387425D01*
X35689931Y34387388D01*
X35676534Y34365604D01*
X35660610Y34339696D01*
X35660580Y34339658D01*
X35660560Y34339625D01*
X35644350Y34318891D01*
X35626084Y34295517D01*
X35626053Y34295486D01*
X35626027Y34295452D01*
X35606965Y34276019D01*
X35586829Y34255480D01*
X35586793Y34255452D01*
X35586765Y34255422D01*
X35566478Y34238920D01*
X35543339Y34220091D01*
X35543299Y34220066D01*
X35543268Y34220040D01*
X35522382Y34206634D01*
X35496158Y34189792D01*
X35496112Y34189770D01*
X35496082Y34189750D01*
X35473531Y34178620D01*
X35445883Y34164968D01*
X35445841Y34164954D01*
X35445803Y34164934D01*
X35421446Y34156146D01*
X35393144Y34145928D01*
X35393095Y34145917D01*
X35393061Y34145904D01*
X35369521Y34140291D01*
X35338605Y34132913D01*
X35338557Y34132908D01*
X35338519Y34132898D01*
X35313741Y34129864D01*
X35282951Y34126087D01*
X35282885Y34126085D01*
X35282865Y34126082D01*
X35282803Y34126082D01*
X35254925Y34125024D01*
X34303481Y34115649D01*
X34303477Y34115650D01*
X33432945Y34106282D01*
X32629037Y34096915D01*
X32629036Y34096914D01*
X31880146Y34087539D01*
X31880130Y34087540D01*
X31178788Y34078176D01*
X31178779Y34078175D01*
X30516254Y34068806D01*
X30516246Y34068805D01*
X29886368Y34059430D01*
X29886344Y34059431D01*
X29284594Y34050062D01*
X28706084Y34040696D01*
X28706068Y34040695D01*
X28146351Y34031325D01*
X28146351Y34031324D01*
X27601931Y34021949D01*
X27601914Y34021950D01*
X27070222Y34012582D01*
X27070195Y34012580D01*
X26547606Y34003208D01*
X26547604Y34003207D01*
X26031545Y33993832D01*
X26031520Y33993833D01*
X25519656Y33984460D01*
X25519639Y33984459D01*
X25009181Y33975084D01*
X25009167Y33975085D01*
X25009165Y33975084D01*
X24497786Y33965709D01*
X24497754Y33965710D01*
X24497725Y33965708D01*
X23982947Y33956333D01*
X23982898Y33956334D01*
X23982843Y33956331D01*
X23462135Y33946956D01*
X23462069Y33946957D01*
X23461989Y33946953D01*
X22932708Y33937578D01*
X22932610Y33937580D01*
X22932521Y33937575D01*
X22391864Y33928200D01*
X22391755Y33928202D01*
X22391639Y33928196D01*
X21836576Y33918821D01*
X21836440Y33918823D01*
X21836315Y33918817D01*
X21263523Y33909442D01*
X21263380Y33909444D01*
X21263227Y33909437D01*
X20669000Y33900062D01*
X20668838Y33900065D01*
X20668675Y33900057D01*
X20048821Y33890682D01*
X20048641Y33890685D01*
X20048468Y33890677D01*
X19398182Y33881302D01*
X19397987Y33881305D01*
X19397803Y33881297D01*
X18711499Y33871922D01*
X18711313Y33871925D01*
X18711100Y33871916D01*
X17982203Y33862541D01*
X17981992Y33862545D01*
X17981787Y33862536D01*
X17202460Y33853161D01*
X17202246Y33853165D01*
X17202031Y33853156D01*
X16362812Y33843781D01*
X16362599Y33843785D01*
X16362374Y33843776D01*
X15451682Y33834401D01*
X15451454Y33834406D01*
X15451238Y33834397D01*
X14454703Y33825023D01*
X14426832Y33825543D01*
X14426744Y33825542D01*
X14426715Y33825546D01*
X14426662Y33825546D01*
X14399430Y33828355D01*
X14370968Y33831286D01*
X14370928Y33831295D01*
X14370887Y33831299D01*
X14343113Y33837365D01*
X14316187Y33843239D01*
X14316150Y33843252D01*
X14316107Y33843261D01*
X14289771Y33852200D01*
X14263088Y33861251D01*
X14263049Y33861270D01*
X14263012Y33861282D01*
X14238835Y33872647D01*
X14212340Y33885094D01*
X14212305Y33885116D01*
X14212268Y33885133D01*
X14188138Y33899981D01*
X14164580Y33914470D01*
X14164550Y33914495D01*
X14164512Y33914517D01*
X14144284Y33930341D01*
X14120410Y33949008D01*
X14120374Y33949044D01*
X14120349Y33949063D01*
X14102570Y33966511D01*
X14080385Y33988275D01*
X14080361Y33988305D01*
X14080329Y33988336D01*
X14061593Y34011384D01*
X14045008Y34031776D01*
X14044987Y34031810D01*
X14044960Y34031842D01*
X14028226Y34057927D01*
X14014723Y34078965D01*
X14014708Y34078996D01*
X14014682Y34079036D01*
X14001199Y34106375D01*
X13989912Y34129247D01*
X13989899Y34129285D01*
X13989880Y34129322D01*
X13979915Y34156966D01*
X13970888Y34181991D01*
X13970880Y34182028D01*
X13970864Y34182070D01*
X13964453Y34208991D01*
X13957888Y34236534D01*
X13957883Y34236580D01*
X13957874Y34236615D01*
X13954867Y34261232D01*
X13951078Y34292189D01*
X13951076Y34292250D01*
X13951073Y34292272D01*
X13951073Y34292339D01*
X13950023Y34320216D01*
X13940652Y35299315D01*
X13931277Y36196226D01*
X13931278Y36196230D01*
X13921907Y37024069D01*
X13912537Y37794579D01*
X13903167Y38516994D01*
X13893797Y39198973D01*
X13884427Y39846955D01*
X13875057Y40466419D01*
X13875058Y40466428D01*
X13865687Y41062096D01*
X13856316Y41638121D01*
X13856317Y41638126D01*
X13846945Y42198167D01*
X13837573Y42745538D01*
X13837574Y42745549D01*
X13828201Y43283264D01*
X13828202Y43283265D01*
X13818828Y43814163D01*
X13809454Y44340908D01*
X13809499Y44345201D01*
X13809375Y44349487D01*
X13800003Y59120370D01*
X13790704Y59642209D01*
X13790705Y59642238D01*
X13790703Y59642267D01*
X13781328Y60171854D01*
X13781329Y60171918D01*
X13781327Y60171955D01*
X13771952Y60707618D01*
X13771953Y60707677D01*
X13771949Y60707758D01*
X13762574Y61252213D01*
X13762575Y61252304D01*
X13762571Y61252393D01*
X13753196Y61808524D01*
X13753198Y61808627D01*
X13753192Y61808743D01*
X13743817Y62379663D01*
X13743819Y62379791D01*
X13743813Y62379916D01*
X13734438Y62969046D01*
X13734440Y62969198D01*
X13734434Y62969333D01*
X13725059Y63580482D01*
X13725061Y63580636D01*
X13725054Y63580799D01*
X13715679Y64218277D01*
X13715682Y64218447D01*
X13715674Y64218620D01*
X13706299Y64887370D01*
X13706302Y64887554D01*
X13706294Y64887738D01*
X13696919Y65593502D01*
X13696922Y65593695D01*
X13696914Y65593889D01*
X13687539Y66343428D01*
X13687543Y66343628D01*
X13687534Y66343832D01*
X13678159Y67145200D01*
X13678163Y67145421D01*
X13678155Y67145617D01*
X13668780Y68008545D01*
X13668784Y68008748D01*
X13668775Y68008971D01*
X13659400Y68945363D01*
X13659404Y68945581D01*
X13659396Y68945795D01*
X13650022Y69970426D01*
X13650550Y69998334D01*
X13650549Y69998389D01*
X13650551Y69998407D01*
X13650552Y69998467D01*
X13653753Y70029422D01*
X13656307Y70054163D01*
X13656315Y70054198D01*
X13656319Y70054240D01*
X13662440Y70082234D01*
X13668275Y70108942D01*
X13668288Y70108980D01*
X13668296Y70109017D01*
X13677222Y70135292D01*
X13686301Y70162036D01*
X13686318Y70162070D01*
X13686330Y70162108D01*
X13698051Y70187024D01*
X13710158Y70212777D01*
X13710180Y70212811D01*
X13710195Y70212845D01*
X13724343Y70235824D01*
X13739547Y70260530D01*
X13739572Y70260561D01*
X13739591Y70260593D01*
X13754934Y70280197D01*
X13774096Y70304690D01*
X13774129Y70304723D01*
X13774148Y70304748D01*
X13791939Y70322867D01*
X13813374Y70344705D01*
X13813404Y70344728D01*
X13813431Y70344757D01*
X13836117Y70363190D01*
X13856884Y70380070D01*
X13856915Y70380089D01*
X13856947Y70380116D01*
X13880494Y70395213D01*
X13904081Y70410343D01*
X13904119Y70410361D01*
X13904149Y70410381D01*
X13927864Y70422070D01*
X13954370Y70435140D01*
X13954408Y70435153D01*
X13954441Y70435170D01*
X13983246Y70445546D01*
X14007119Y70454150D01*
X14007149Y70454157D01*
X14007193Y70454173D01*
X14038187Y70461545D01*
X14061666Y70467135D01*
X14061702Y70467139D01*
X14061742Y70467149D01*
X14090541Y70470660D01*
X14117323Y70473931D01*
X14117375Y70473932D01*
X14117400Y70473936D01*
X14117476Y70473936D01*
X14145349Y70474978D01*
X15152568Y70484349D01*
X16074737Y70493719D01*
X16074746Y70493720D01*
X16926732Y70503095D01*
X16926738Y70503094D01*
X17719295Y70512465D01*
X17719297Y70512464D01*
X18462360Y70521835D01*
X18462361Y70521834D01*
X19163436Y70531199D01*
X19163459Y70531201D01*
X19830265Y70540576D01*
X19830274Y70540575D01*
X20467059Y70549941D01*
X20467070Y70549942D01*
X21079972Y70559317D01*
X21080002Y70559316D01*
X21672095Y70568683D01*
X21672115Y70568684D01*
X22248060Y70578055D01*
X22248062Y70578056D01*
X22811100Y70587431D01*
X22811117Y70587430D01*
X23364002Y70596803D01*
X23364007Y70596802D01*
X23909784Y70606174D01*
X23909789Y70606175D01*
X24451370Y70615549D01*
X24451386Y70615550D01*
X24500000Y70616394D01*
X24500000Y71725000D01*
X24500787Y71753035D01*
X24501129Y71756062D01*
X24501165Y71759099D01*
X24504263Y71783883D01*
X24507064Y71808753D01*
X24507741Y71811717D01*
X24508118Y71814737D01*
X24513983Y71839066D01*
X24519541Y71863418D01*
X24520545Y71866285D01*
X24521258Y71869246D01*
X24529811Y71892765D01*
X24538060Y71916342D01*
X24539380Y71919080D01*
X24540419Y71921941D01*
X24551549Y71944351D01*
X24562388Y71966859D01*
X24564005Y71969431D01*
X24565359Y71972159D01*
X24578929Y71993183D01*
X24592220Y72014336D01*
X24594116Y72016713D01*
X24595766Y72019270D01*
X24611600Y72038637D01*
X24627179Y72058173D01*
X24629329Y72060322D01*
X24631255Y72062679D01*
X24649154Y72080147D01*
X24666827Y72097821D01*
X24669206Y72099717D01*
X24671382Y72101842D01*
X24691129Y72117200D01*
X24710664Y72132780D01*
X24713236Y72134395D01*
X24715640Y72136266D01*
X24737006Y72149331D01*
X24758141Y72162612D01*
X24760877Y72163929D01*
X24763476Y72165519D01*
X24786158Y72176104D01*
X24808658Y72186940D01*
X24811528Y72187944D01*
X24814285Y72189231D01*
X24837978Y72197199D01*
X24861582Y72205459D01*
X24864551Y72206136D01*
X24867430Y72207105D01*
X24891843Y72212365D01*
X24916247Y72217936D01*
X24919273Y72218276D01*
X24922243Y72218917D01*
X24947122Y72221414D01*
X24971965Y72224213D01*
X24975004Y72224213D01*
X24978033Y72224517D01*
X25006076Y72224963D01*
X25312196Y72221243D01*
G37*
%TD.AperFunction*%
%TD*%
D11*
%TO.P,C6,1*%
%TO.N,/SNUB*%
X25950000Y73600000D03*
%TO.P,C6,2*%
%TO.N,/SW*%
X24050000Y73600000D03*
%TD*%
D12*
%TO.P,R6,1*%
%TO.N,/VIN*%
X30462500Y73600000D03*
%TO.P,R6,2*%
%TO.N,/SNUB*%
X27537500Y73600000D03*
%TD*%
D13*
%TO.P,F1,1*%
%TO.N,/VIN_RAW*%
X16900000Y97000000D03*
%TO.P,F1,2*%
%TO.N,/VIN_FUSED*%
X14100000Y97000000D03*
%TD*%
D14*
%TO.P,D3,1*%
%TO.N,/CLAMP*%
X25000000Y78150000D03*
D15*
%TO.P,D3,2*%
%TO.N,/SW*%
X25000000Y75775000D03*
%TD*%
D16*
%TO.P,R7,1*%
%TO.N,/+5V_ISO*%
X34000000Y19962500D03*
%TO.P,R7,2*%
%TO.N,/GND_ISO*%
X34000000Y17037500D03*
%TD*%
D17*
%TO.P,R4,1*%
%TO.N,/RREF*%
X20825000Y79200000D03*
%TO.P,R4,2*%
%TO.N,/PGND*%
X22475000Y79200000D03*
%TD*%
D18*
%TO.P,D1,1*%
%TO.N,/VIN*%
X13000000Y89000000D03*
%TO.P,D1,2*%
%TO.N,/VIN_FUSED*%
X13000000Y93000000D03*
%TD*%
D19*
%TO.P,J2,1*%
%TO.N,/+5V_ISO*%
X27500000Y8000000D03*
D20*
%TO.P,J2,2*%
%TO.N,/GND_ISO*%
X22500000Y8000000D03*
%TD*%
D21*
%TO.P,D2,1*%
%TO.N,/+5V_ISO*%
X26000000Y25880000D03*
D22*
%TO.P,D2,2*%
%TO.N,/SEC_A*%
X25080000Y29862000D03*
X26920000Y29862000D03*
%TD*%
D23*
%TO.P,T1,1*%
%TO.N,/VIN*%
X28621977Y71193193D03*
%TO.P,T1,2*%
%TO.N,/SW*%
X21378023Y71193193D03*
%TO.P,T1,3*%
%TO.N,/GND_ISO*%
X23169595Y32408661D03*
%TO.P,T1,4*%
%TO.N,/SEC_A*%
X26075000Y37553499D03*
%TO.P,T1,5*%
%TO.N,unconnected-(T1-P_MID-Pad5)*%
X25000000Y66525000D03*
%TD*%
D24*
%TO.P,D4,1*%
%TO.N,/CLAMP*%
X34000000Y78100000D03*
%TO.P,D4,2*%
%TO.N,/VIN*%
X34000000Y74100000D03*
%TD*%
D25*
%TO.P,R3,1*%
%TO.N,/SW*%
X22475000Y77365000D03*
%TO.P,R3,2*%
%TO.N,/RFB*%
X20825000Y77365000D03*
%TD*%
D17*
%TO.P,R2,1*%
%TO.N,/UVLO*%
X17675000Y86000000D03*
%TO.P,R2,2*%
%TO.N,/PGND*%
X19325000Y86000000D03*
%TD*%
D26*
%TO.P,U1,1*%
%TO.N,/UVLO*%
X13898500Y79905000D03*
%TO.P,U1,2*%
%TO.N,/INTVCC*%
X13898500Y78635000D03*
%TO.P,U1,3*%
%TO.N,/VIN*%
X13898500Y77365000D03*
%TO.P,U1,4*%
%TO.N,/PGND*%
X13898500Y76095000D03*
%TO.P,U1,5*%
%TO.N,/SW*%
X19101500Y76095000D03*
%TO.P,U1,6*%
%TO.N,/RFB*%
X19101500Y77365000D03*
%TO.P,U1,7*%
%TO.N,/RREF*%
X19101500Y78635000D03*
%TO.P,U1,8*%
%TO.N,/TC*%
X19101500Y79905000D03*
D27*
%TO.P,U1,9*%
%TO.N,/PGND*%
X16500000Y78000000D03*
%TD*%
D28*
%TO.P,C4,1*%
%TO.N,/+5V_ISO*%
X30025000Y25880000D03*
%TO.P,C4,2*%
%TO.N,/GND_ISO*%
X32975000Y25880000D03*
%TD*%
D19*
%TO.P,J1,1*%
%TO.N,/VIN_RAW*%
X22500000Y97000000D03*
D20*
%TO.P,J1,2*%
%TO.N,/PGND*%
X27500000Y97000000D03*
%TD*%
D29*
%TO.P,C1,1*%
%TO.N,/VIN*%
X11975000Y76365000D03*
%TO.P,C1,2*%
%TO.N,/PGND*%
X9025000Y76365000D03*
%TD*%
D17*
%TO.P,R1,1*%
%TO.N,/VIN*%
X14675000Y86000000D03*
%TO.P,R1,2*%
%TO.N,/UVLO*%
X16325000Y86000000D03*
%TD*%
D30*
%TO.P,C5,1*%
%TO.N,/INTVCC*%
X12275000Y78800000D03*
%TO.P,C5,2*%
%TO.N,/PGND*%
X10725000Y78800000D03*
%TD*%
D31*
%TO.P,C2,1*%
%TO.N,/VIN*%
X29000000Y76525000D03*
%TO.P,C2,2*%
%TO.N,/PGND*%
X29000000Y79475000D03*
%TD*%
D32*
%TO.P,C3,1*%
%TO.N,/+5V_ISO*%
X28800000Y18500000D03*
%TO.P,C3,2*%
%TO.N,/GND_ISO*%
X23200000Y18500000D03*
%TD*%
D33*
%TO.P,R5,1*%
%TO.N,/TC*%
X19101500Y81675000D03*
%TO.P,R5,2*%
%TO.N,/RREF*%
X19101500Y83325000D03*
%TD*%
D34*
%TO.N,/GND_ISO*%
X34000000Y17037500D03*
X22269595Y30500000D03*
X23200000Y18500000D03*
X32975000Y25880000D03*
D35*
X17000000Y14000000D03*
X17000000Y25000000D03*
X25000000Y11000000D03*
D34*
X23169595Y30500000D03*
D36*
X33200000Y23000000D03*
D35*
X36000000Y25000000D03*
X36000000Y14000000D03*
%TO.N,/PGND*%
X19325000Y86000000D03*
X22475000Y79200000D03*
X37000000Y74000000D03*
X10000000Y85000000D03*
X17300000Y78550000D03*
X17300000Y77450000D03*
D36*
X17400000Y74350000D03*
D35*
X25000000Y87000000D03*
X15700000Y77450000D03*
X38000000Y83000000D03*
X29000000Y79475000D03*
X10725000Y78800000D03*
X9025000Y76365000D03*
X13898500Y76095000D03*
X15700000Y78550000D03*
X9500000Y73000000D03*
D34*
%TO.N,/SEC_A*%
X25550000Y29862000D03*
X26450000Y29862000D03*
D37*
%TO.N,/VIN*%
X11975000Y76365000D03*
X29000000Y76525000D03*
D35*
X14675000Y86000000D03*
D37*
X13000000Y89000000D03*
%TD*%
%TO.N,/+5V_ISO*%
D38*
X32537500Y18500000D02*
X34000000Y19962500D01*
D39*
X26000000Y25880000D02*
X30025000Y25880000D01*
D38*
X28800000Y18500000D02*
X32537500Y18500000D01*
D39*
X30025000Y19725000D02*
X28800000Y18500000D01*
X30025000Y25880000D02*
X30025000Y19725000D01*
D40*
X28800000Y18500000D02*
X28800000Y9300000D01*
X28800000Y9300000D02*
X27500000Y8000000D01*
%TO.N,/CLAMP*%
D41*
X33900000Y78000000D02*
X34000000Y78100000D01*
X25150000Y78000000D02*
X33900000Y78000000D01*
X25000000Y78150000D02*
X25150000Y78000000D01*
%TO.N,/GND_ISO*%
D42*
X22269595Y30500000D02*
X23169595Y30500000D01*
D39*
X23169595Y32408661D02*
X23169595Y30500000D01*
%TO.N,/INTVCC*%
D43*
X12440000Y78635000D02*
X13898500Y78635000D01*
X12275000Y78800000D02*
X12440000Y78635000D01*
%TO.N,/RFB*%
D44*
X20825000Y77365000D02*
X19101500Y77365000D01*
%TO.N,/RREF*%
X19101500Y78635000D02*
X20260000Y78635000D01*
X19101500Y83325000D02*
X21650000Y83325000D01*
X20260000Y78635000D02*
X20825000Y79200000D01*
X21650000Y83325000D02*
X21650000Y80025000D01*
X21650000Y80025000D02*
X20825000Y79200000D01*
%TO.N,/SEC_A*%
D45*
X25550000Y29862000D02*
X26000000Y29862000D01*
X25080000Y29862000D02*
X25550000Y29862000D01*
X26000000Y29862000D02*
X26450000Y29862000D01*
X26450000Y29862000D02*
X26920000Y29862000D01*
%TO.N,/SNUB*%
D41*
X27537500Y73600000D02*
X25950000Y73600000D01*
%TO.N,/SW*%
D46*
X25000000Y75775000D02*
X24050000Y74825000D01*
D47*
X23000000Y73600000D02*
X23128023Y73600000D01*
D46*
X21378023Y71193193D02*
X21378023Y71850000D01*
X24050000Y74825000D02*
X24050000Y73600000D01*
X23128023Y73600000D02*
X24050000Y73600000D01*
D48*
X19101500Y73469716D02*
X21378023Y71193193D01*
D46*
X21378023Y71850000D02*
X23128023Y73600000D01*
D48*
X19101500Y76095000D02*
X19101500Y73469716D01*
D47*
X22475000Y74125000D02*
X23000000Y73600000D01*
X22475000Y77365000D02*
X22475000Y74125000D01*
%TO.N,/TC*%
D44*
X19101500Y79905000D02*
X19101500Y81675000D01*
%TO.N,/UVLO*%
X16325000Y86000000D02*
X17675000Y86000000D01*
X14500000Y84175000D02*
X14500000Y80506500D01*
X14500000Y80506500D02*
X13898500Y79905000D01*
X16325000Y86000000D02*
X14500000Y84175000D01*
%TO.N,/VIN*%
D38*
X34000000Y74100000D02*
X33500000Y73600000D01*
D48*
X30462500Y73033716D02*
X28621977Y71193193D01*
D38*
X33500000Y73600000D02*
X30462500Y73600000D01*
D48*
X29000000Y76525000D02*
X29000000Y75062500D01*
D49*
X11975000Y77365000D02*
X13898500Y77365000D01*
D48*
X29000000Y75062500D02*
X30462500Y73600000D01*
X30462500Y73600000D02*
X30462500Y73033716D01*
D49*
X11975000Y76365000D02*
X11975000Y77365000D01*
%TO.N,/VIN_FUSED*%
D48*
X14100000Y97000000D02*
X13000000Y95900000D01*
X13000000Y95900000D02*
X13000000Y93000000D01*
%TO.N,/VIN_RAW*%
X22500000Y97000000D02*
X16900000Y97000000D01*
%TD*%
%TA.AperFunction,Conductor*%
%TO.N,/PGND*%
G36*
X11808692Y88981093D02*
G01*
X11844656Y88931593D01*
X11849501Y88901000D01*
X11849501Y87952130D01*
X11855908Y87892520D01*
X11855909Y87892515D01*
X11906202Y87757671D01*
X11992450Y87642459D01*
X11992454Y87642454D01*
X11992457Y87642452D01*
X11992458Y87642451D01*
X12107670Y87556203D01*
X12242511Y87505911D01*
X12242512Y87505911D01*
X12242517Y87505909D01*
X12302127Y87499500D01*
X13697872Y87499501D01*
X13757483Y87505909D01*
X13824907Y87531057D01*
X13892329Y87556203D01*
X13892329Y87556204D01*
X13892331Y87556204D01*
X14007546Y87642454D01*
X14093796Y87757669D01*
X14144091Y87892517D01*
X14150500Y87952127D01*
X14150499Y88901002D01*
X14169406Y88959191D01*
X14218906Y88995155D01*
X14249499Y89000000D01*
X40901000Y89000000D01*
X40959191Y88981093D01*
X40995155Y88931593D01*
X41000000Y88901000D01*
X41000000Y72599000D01*
X40981093Y72540809D01*
X40931593Y72504845D01*
X40901000Y72500000D01*
X34981114Y72500000D01*
X34922923Y72518907D01*
X34886959Y72568407D01*
X34886959Y72629593D01*
X34921785Y72678253D01*
X34945100Y72695708D01*
X35007546Y72742454D01*
X35093796Y72857669D01*
X35097472Y72867523D01*
X35144089Y72992512D01*
X35144088Y72992512D01*
X35144091Y72992517D01*
X35150500Y73052127D01*
X35150499Y75147872D01*
X35144091Y75207483D01*
X35140493Y75217130D01*
X35093797Y75342330D01*
X35007549Y75457542D01*
X35007548Y75457543D01*
X35007546Y75457546D01*
X35007541Y75457550D01*
X34892329Y75543798D01*
X34757488Y75594090D01*
X34757483Y75594091D01*
X34757481Y75594092D01*
X34757477Y75594092D01*
X34726249Y75597450D01*
X34697873Y75600500D01*
X34697870Y75600500D01*
X33302133Y75600500D01*
X33302129Y75600500D01*
X33302128Y75600499D01*
X33294949Y75599728D01*
X33242519Y75594092D01*
X33242514Y75594091D01*
X33107670Y75543798D01*
X32992458Y75457550D01*
X32992450Y75457542D01*
X32906202Y75342330D01*
X32855910Y75207489D01*
X32855908Y75207478D01*
X32849500Y75147871D01*
X32849500Y74449500D01*
X32830593Y74391309D01*
X32781093Y74355345D01*
X32750500Y74350500D01*
X31331108Y74350500D01*
X31272917Y74369407D01*
X31238350Y74414902D01*
X31218796Y74467331D01*
X31183449Y74514548D01*
X31132549Y74582542D01*
X31132548Y74582543D01*
X31132546Y74582546D01*
X31132541Y74582550D01*
X31017329Y74668798D01*
X30882488Y74719090D01*
X30882483Y74719091D01*
X30882481Y74719092D01*
X30882477Y74719092D01*
X30851249Y74722450D01*
X30822873Y74725500D01*
X30822870Y74725500D01*
X30580796Y74725500D01*
X30522605Y74744407D01*
X30510792Y74754496D01*
X29879496Y75385793D01*
X29851719Y75440310D01*
X29850500Y75455797D01*
X29850500Y75600501D01*
X29869407Y75658692D01*
X29918907Y75694656D01*
X29949500Y75699501D01*
X30147867Y75699501D01*
X30147872Y75699501D01*
X30207483Y75705909D01*
X30286697Y75735454D01*
X30342329Y75756203D01*
X30342329Y75756204D01*
X30342331Y75756204D01*
X30457546Y75842454D01*
X30543796Y75957669D01*
X30594091Y76092517D01*
X30600500Y76152127D01*
X30600499Y76897872D01*
X30594091Y76957483D01*
X30589201Y76970593D01*
X30543797Y77092330D01*
X30457549Y77207542D01*
X30457548Y77207543D01*
X30457546Y77207546D01*
X30372453Y77271247D01*
X30337200Y77321256D01*
X30338074Y77382435D01*
X30374742Y77431416D01*
X30431782Y77449500D01*
X32750501Y77449500D01*
X32808692Y77430593D01*
X32844656Y77381093D01*
X32849501Y77350500D01*
X32849501Y77052130D01*
X32855908Y76992520D01*
X32855909Y76992515D01*
X32906202Y76857671D01*
X32987528Y76749034D01*
X32992454Y76742454D01*
X32992457Y76742452D01*
X32992458Y76742451D01*
X33107670Y76656203D01*
X33242511Y76605911D01*
X33242512Y76605911D01*
X33242517Y76605909D01*
X33302127Y76599500D01*
X34697872Y76599501D01*
X34757483Y76605909D01*
X34890712Y76655600D01*
X34892329Y76656203D01*
X34892329Y76656204D01*
X34892331Y76656204D01*
X35007546Y76742454D01*
X35093796Y76857669D01*
X35144091Y76992517D01*
X35150500Y77052127D01*
X35150499Y79147872D01*
X35144091Y79207483D01*
X35122452Y79265500D01*
X35093797Y79342330D01*
X35007549Y79457542D01*
X35007548Y79457543D01*
X35007546Y79457546D01*
X35007541Y79457550D01*
X34892329Y79543798D01*
X34757488Y79594090D01*
X34757483Y79594091D01*
X34757481Y79594092D01*
X34757477Y79594092D01*
X34726249Y79597450D01*
X34697873Y79600500D01*
X34697870Y79600500D01*
X33302133Y79600500D01*
X33302129Y79600500D01*
X33302128Y79600499D01*
X33294949Y79599728D01*
X33242519Y79594092D01*
X33242514Y79594091D01*
X33107670Y79543798D01*
X32992458Y79457550D01*
X32992450Y79457542D01*
X32906202Y79342330D01*
X32855910Y79207489D01*
X32855908Y79207478D01*
X32849500Y79147871D01*
X32849500Y78649500D01*
X32830593Y78591309D01*
X32781093Y78555345D01*
X32750500Y78550500D01*
X26099499Y78550500D01*
X26041308Y78569407D01*
X26005344Y78618907D01*
X26000499Y78649500D01*
X26000499Y79147867D01*
X26000499Y79147872D01*
X25994091Y79207483D01*
X25972452Y79265500D01*
X25943797Y79342330D01*
X25857549Y79457542D01*
X25857548Y79457543D01*
X25857546Y79457546D01*
X25857541Y79457550D01*
X25742329Y79543798D01*
X25607488Y79594090D01*
X25607483Y79594091D01*
X25607481Y79594092D01*
X25607477Y79594092D01*
X25576249Y79597450D01*
X25547873Y79600500D01*
X25547870Y79600500D01*
X24452133Y79600500D01*
X24452129Y79600500D01*
X24452128Y79600499D01*
X24444949Y79599728D01*
X24392519Y79594092D01*
X24392514Y79594091D01*
X24257670Y79543798D01*
X24142458Y79457550D01*
X24142450Y79457542D01*
X24056202Y79342330D01*
X24005910Y79207489D01*
X24005908Y79207478D01*
X23999500Y79147871D01*
X23999500Y77152134D01*
X23999501Y77152130D01*
X24005908Y77092520D01*
X24005909Y77092515D01*
X24056202Y76957671D01*
X24131064Y76857669D01*
X24142454Y76842454D01*
X24142457Y76842452D01*
X24142458Y76842451D01*
X24257670Y76756203D01*
X24360747Y76717758D01*
X24408662Y76679708D01*
X24425060Y76620761D01*
X24403678Y76563433D01*
X24360747Y76532242D01*
X24257670Y76493798D01*
X24142458Y76407550D01*
X24142450Y76407542D01*
X24056202Y76292330D01*
X24005910Y76157489D01*
X24005908Y76157478D01*
X23999500Y76097871D01*
X23999500Y75735454D01*
X23980593Y75677263D01*
X23970504Y75665451D01*
X23544720Y75239667D01*
X23489833Y75157519D01*
X23489832Y75157518D01*
X23473536Y75133131D01*
X23473535Y75133128D01*
X23424500Y75014748D01*
X23424499Y75014745D01*
X23424499Y75014744D01*
X23417336Y74978733D01*
X23399500Y74889070D01*
X23399500Y74408118D01*
X23380593Y74349927D01*
X23379790Y74348839D01*
X23356204Y74317331D01*
X23356202Y74317328D01*
X23355298Y74314903D01*
X23353951Y74313208D01*
X23352809Y74311115D01*
X23352446Y74311313D01*
X23317247Y74266988D01*
X23262540Y74250500D01*
X23063948Y74250500D01*
X23021846Y74242125D01*
X22961085Y74249317D01*
X22932529Y74269219D01*
X22929496Y74272252D01*
X22901719Y74326769D01*
X22900500Y74342256D01*
X22900500Y76646542D01*
X22919407Y76704733D01*
X22940712Y76726197D01*
X22962746Y76742459D01*
X22997150Y76767850D01*
X22997151Y76767852D01*
X22997152Y76767852D01*
X23063439Y76857669D01*
X23077793Y76877118D01*
X23122646Y77005301D01*
X23125499Y77035727D01*
X23125500Y77035727D01*
X23125500Y77694273D01*
X23125499Y77694275D01*
X23122646Y77724695D01*
X23122646Y77724699D01*
X23077793Y77852882D01*
X23077790Y77852886D01*
X22997154Y77962145D01*
X22997152Y77962147D01*
X22997150Y77962150D01*
X22997146Y77962153D01*
X22997144Y77962155D01*
X22887883Y78042793D01*
X22759703Y78087645D01*
X22759694Y78087647D01*
X22729274Y78090500D01*
X22729266Y78090500D01*
X22220734Y78090500D01*
X22220725Y78090500D01*
X22190305Y78087647D01*
X22190296Y78087645D01*
X22062116Y78042793D01*
X21952855Y77962155D01*
X21952845Y77962145D01*
X21872207Y77852884D01*
X21827355Y77724704D01*
X21827353Y77724695D01*
X21824500Y77694275D01*
X21824500Y77035726D01*
X21827353Y77005306D01*
X21827355Y77005297D01*
X21872207Y76877117D01*
X21952847Y76767852D01*
X21952849Y76767851D01*
X21952850Y76767850D01*
X21968630Y76756204D01*
X22009288Y76726197D01*
X22044881Y76676430D01*
X22049500Y76646542D01*
X22049500Y74181018D01*
X22049500Y74068982D01*
X22075072Y73973545D01*
X22078498Y73960759D01*
X22134513Y73863740D01*
X22134515Y73863737D01*
X22233161Y73765091D01*
X22260937Y73710576D01*
X22251366Y73650144D01*
X22233160Y73625085D01*
X21261044Y72652969D01*
X21206527Y72625192D01*
X21146095Y72634763D01*
X21121036Y72652969D01*
X19980996Y73793009D01*
X19953219Y73847526D01*
X19952000Y73863013D01*
X19952000Y76178767D01*
X19951999Y76178770D01*
X19925402Y76312486D01*
X19923500Y76331800D01*
X19923500Y76499673D01*
X19923498Y76499685D01*
X19917022Y76532242D01*
X19908966Y76572740D01*
X19864359Y76639500D01*
X19853602Y76655600D01*
X19849206Y76659996D01*
X19821429Y76714513D01*
X19831000Y76774945D01*
X19849206Y76800004D01*
X19853597Y76804397D01*
X19853601Y76804399D01*
X19908966Y76887260D01*
X19913453Y76909815D01*
X19943350Y76963199D01*
X19998915Y76988814D01*
X20010550Y76989500D01*
X20112639Y76989500D01*
X20170830Y76970593D01*
X20206082Y76923199D01*
X20214947Y76897867D01*
X20222208Y76877115D01*
X20302845Y76767856D01*
X20302847Y76767854D01*
X20302850Y76767850D01*
X20302853Y76767848D01*
X20302855Y76767846D01*
X20412116Y76687208D01*
X20412117Y76687208D01*
X20412118Y76687207D01*
X20540301Y76642354D01*
X20570725Y76639501D01*
X20570727Y76639500D01*
X20570734Y76639500D01*
X21079273Y76639500D01*
X21079273Y76639501D01*
X21109699Y76642354D01*
X21237882Y76687207D01*
X21347150Y76767850D01*
X21427793Y76877118D01*
X21472646Y77005301D01*
X21475499Y77035727D01*
X21475500Y77035727D01*
X21475500Y77694273D01*
X21475499Y77694275D01*
X21472646Y77724695D01*
X21472646Y77724699D01*
X21427793Y77852882D01*
X21427790Y77852886D01*
X21347154Y77962145D01*
X21347152Y77962147D01*
X21347150Y77962150D01*
X21347146Y77962153D01*
X21347144Y77962155D01*
X21237883Y78042793D01*
X21109703Y78087645D01*
X21109694Y78087647D01*
X21079274Y78090500D01*
X21079266Y78090500D01*
X20570734Y78090500D01*
X20570725Y78090500D01*
X20540305Y78087647D01*
X20540296Y78087645D01*
X20412116Y78042793D01*
X20302855Y77962155D01*
X20302845Y77962145D01*
X20222208Y77852886D01*
X20222207Y77852882D01*
X20206082Y77806802D01*
X20169018Y77758122D01*
X20112639Y77740500D01*
X20010550Y77740500D01*
X19952359Y77759407D01*
X19916395Y77808907D01*
X19913453Y77820185D01*
X19911527Y77829863D01*
X19908966Y77842740D01*
X19853601Y77925601D01*
X19849206Y77929996D01*
X19821429Y77984513D01*
X19831000Y78044945D01*
X19849206Y78070004D01*
X19853597Y78074397D01*
X19853601Y78074399D01*
X19908966Y78157260D01*
X19913453Y78179815D01*
X19943350Y78233199D01*
X19998915Y78258814D01*
X20010550Y78259500D01*
X20309435Y78259500D01*
X20309436Y78259500D01*
X20365457Y78274511D01*
X20404938Y78285090D01*
X20490562Y78334525D01*
X20560475Y78404438D01*
X20560474Y78404438D01*
X20601541Y78445505D01*
X20656057Y78473281D01*
X20671544Y78474500D01*
X21079273Y78474500D01*
X21079273Y78474501D01*
X21109699Y78477354D01*
X21237882Y78522207D01*
X21347150Y78602850D01*
X21427793Y78712118D01*
X21472646Y78840301D01*
X21475499Y78870727D01*
X21475500Y78870727D01*
X21475500Y79278455D01*
X21494407Y79336646D01*
X21504496Y79348459D01*
X21950474Y79794437D01*
X21950475Y79794437D01*
X21999908Y79880059D01*
X21999910Y79880062D01*
X22012705Y79927814D01*
X22025500Y79975564D01*
X22025500Y80074436D01*
X22025500Y83374435D01*
X21999910Y83469938D01*
X21999908Y83469941D01*
X21999908Y83469943D01*
X21950476Y83555560D01*
X21950475Y83555562D01*
X21880562Y83625475D01*
X21880559Y83625477D01*
X21794941Y83674909D01*
X21794943Y83674909D01*
X21757885Y83684839D01*
X21699435Y83700500D01*
X21699433Y83700500D01*
X19856859Y83700500D01*
X19798668Y83719407D01*
X19777208Y83740707D01*
X19698650Y83847150D01*
X19698646Y83847153D01*
X19698644Y83847155D01*
X19589383Y83927793D01*
X19461203Y83972645D01*
X19461194Y83972647D01*
X19430774Y83975500D01*
X19430766Y83975500D01*
X18772234Y83975500D01*
X18772225Y83975500D01*
X18741805Y83972647D01*
X18741796Y83972645D01*
X18613616Y83927793D01*
X18504355Y83847155D01*
X18504345Y83847145D01*
X18423707Y83737884D01*
X18378855Y83609704D01*
X18378853Y83609695D01*
X18376000Y83579275D01*
X18376000Y83070726D01*
X18378853Y83040306D01*
X18378855Y83040297D01*
X18423707Y82912117D01*
X18504345Y82802856D01*
X18504347Y82802854D01*
X18504350Y82802850D01*
X18504353Y82802848D01*
X18504355Y82802846D01*
X18613616Y82722208D01*
X18613617Y82722208D01*
X18613618Y82722207D01*
X18741801Y82677354D01*
X18772225Y82674501D01*
X18772227Y82674500D01*
X18772234Y82674500D01*
X19430773Y82674500D01*
X19430773Y82674501D01*
X19461199Y82677354D01*
X19589382Y82722207D01*
X19698650Y82802850D01*
X19777205Y82909291D01*
X19826971Y82944881D01*
X19856859Y82949500D01*
X21175500Y82949500D01*
X21233691Y82930593D01*
X21269655Y82881093D01*
X21274500Y82850500D01*
X21274500Y80221545D01*
X21255593Y80163354D01*
X21245504Y80151541D01*
X21048459Y79954496D01*
X20993942Y79926719D01*
X20978455Y79925500D01*
X20570725Y79925500D01*
X20540305Y79922647D01*
X20540296Y79922645D01*
X20412116Y79877793D01*
X20302855Y79797155D01*
X20302845Y79797145D01*
X20222207Y79687884D01*
X20177355Y79559704D01*
X20177353Y79559695D01*
X20174500Y79529275D01*
X20174500Y79121545D01*
X20155593Y79063354D01*
X20145506Y79051544D01*
X20133462Y79039499D01*
X20078947Y79011719D01*
X20063456Y79010500D01*
X20010550Y79010500D01*
X19952359Y79029407D01*
X19916395Y79078907D01*
X19913453Y79090185D01*
X19911527Y79099863D01*
X19908966Y79112740D01*
X19853601Y79195601D01*
X19849206Y79199996D01*
X19821429Y79254513D01*
X19831000Y79314945D01*
X19849206Y79340004D01*
X19853597Y79344397D01*
X19853601Y79344399D01*
X19908966Y79427260D01*
X19923500Y79500326D01*
X19923500Y80309674D01*
X19923500Y80309677D01*
X19923498Y80309685D01*
X19913179Y80361559D01*
X19908966Y80382740D01*
X19908964Y80382743D01*
X19853602Y80465600D01*
X19853599Y80465603D01*
X19770742Y80520965D01*
X19770740Y80520966D01*
X19770737Y80520967D01*
X19770736Y80520967D01*
X19697684Y80535499D01*
X19697674Y80535500D01*
X19697673Y80535500D01*
X19576000Y80535500D01*
X19517809Y80554407D01*
X19481845Y80603907D01*
X19477000Y80634500D01*
X19477000Y80962639D01*
X19495907Y81020830D01*
X19543301Y81056083D01*
X19589382Y81072207D01*
X19698650Y81152850D01*
X19779293Y81262118D01*
X19824146Y81390301D01*
X19826999Y81420727D01*
X19827000Y81420727D01*
X19827000Y81929273D01*
X19826999Y81929275D01*
X19824146Y81959695D01*
X19824146Y81959699D01*
X19779293Y82087882D01*
X19698650Y82197150D01*
X19698646Y82197153D01*
X19698644Y82197155D01*
X19589383Y82277793D01*
X19461203Y82322645D01*
X19461194Y82322647D01*
X19430774Y82325500D01*
X19430766Y82325500D01*
X18772234Y82325500D01*
X18772225Y82325500D01*
X18741805Y82322647D01*
X18741796Y82322645D01*
X18613616Y82277793D01*
X18504355Y82197155D01*
X18504345Y82197145D01*
X18423707Y82087884D01*
X18378855Y81959704D01*
X18378853Y81959695D01*
X18376000Y81929275D01*
X18376000Y81420726D01*
X18378853Y81390306D01*
X18378855Y81390297D01*
X18423707Y81262117D01*
X18504345Y81152856D01*
X18504347Y81152854D01*
X18504350Y81152850D01*
X18504353Y81152848D01*
X18504355Y81152846D01*
X18613614Y81072209D01*
X18613616Y81072209D01*
X18613618Y81072207D01*
X18659698Y81056083D01*
X18708378Y81019018D01*
X18726000Y80962639D01*
X18726000Y80634500D01*
X18707093Y80576309D01*
X18657593Y80540345D01*
X18627000Y80535500D01*
X18505326Y80535500D01*
X18505325Y80535500D01*
X18505315Y80535499D01*
X18432263Y80520967D01*
X18432257Y80520965D01*
X18349400Y80465603D01*
X18349397Y80465600D01*
X18294035Y80382743D01*
X18294033Y80382737D01*
X18279501Y80309685D01*
X18279500Y80309677D01*
X18279500Y79500328D01*
X18279501Y79500316D01*
X18294033Y79427264D01*
X18294035Y79427258D01*
X18349397Y79344401D01*
X18353794Y79340004D01*
X18381571Y79285487D01*
X18372000Y79225055D01*
X18353794Y79199996D01*
X18349397Y79195600D01*
X18294035Y79112743D01*
X18294033Y79112737D01*
X18279501Y79039685D01*
X18279500Y79039673D01*
X18279500Y78230328D01*
X18279501Y78230316D01*
X18294033Y78157264D01*
X18294035Y78157258D01*
X18349397Y78074401D01*
X18353794Y78070004D01*
X18381571Y78015487D01*
X18372000Y77955055D01*
X18353794Y77929996D01*
X18349397Y77925600D01*
X18294035Y77842743D01*
X18294033Y77842737D01*
X18279501Y77769685D01*
X18279500Y77769673D01*
X18279500Y76960328D01*
X18279501Y76960316D01*
X18294033Y76887264D01*
X18294035Y76887258D01*
X18349397Y76804401D01*
X18353794Y76800004D01*
X18381571Y76745487D01*
X18372000Y76685055D01*
X18353794Y76659996D01*
X18349397Y76655600D01*
X18294035Y76572743D01*
X18294033Y76572737D01*
X18279501Y76499685D01*
X18279500Y76499673D01*
X18279500Y76331800D01*
X18277598Y76312486D01*
X18251000Y76178770D01*
X18251000Y76178767D01*
X18251000Y73553483D01*
X18251000Y73385949D01*
X18278667Y73246855D01*
X18283684Y73221636D01*
X18283684Y73221634D01*
X18347793Y73066858D01*
X18347799Y73066847D01*
X18397462Y72992523D01*
X18440873Y72927554D01*
X18440876Y72927551D01*
X18699423Y72669004D01*
X18727200Y72614487D01*
X18717629Y72554055D01*
X18674364Y72510790D01*
X18629419Y72500000D01*
X8599000Y72500000D01*
X8540809Y72518907D01*
X8504845Y72568407D01*
X8500000Y72599000D01*
X8500000Y77512871D01*
X11149500Y77512871D01*
X11149500Y75217134D01*
X11149500Y75217131D01*
X11149501Y75217128D01*
X11150538Y75207483D01*
X11155908Y75157520D01*
X11155908Y75157519D01*
X11155909Y75157517D01*
X11165006Y75133127D01*
X11206202Y75022671D01*
X11239096Y74978731D01*
X11292454Y74907454D01*
X11292457Y74907452D01*
X11292458Y74907451D01*
X11407670Y74821203D01*
X11542511Y74770911D01*
X11542512Y74770911D01*
X11542517Y74770909D01*
X11602127Y74764500D01*
X12347872Y74764501D01*
X12407483Y74770909D01*
X12474907Y74796057D01*
X12542329Y74821203D01*
X12542329Y74821204D01*
X12542331Y74821204D01*
X12657546Y74907454D01*
X12743796Y75022669D01*
X12794091Y75157517D01*
X12800500Y75217127D01*
X12800499Y76565501D01*
X12819406Y76623691D01*
X12868906Y76659655D01*
X12899499Y76664500D01*
X13967492Y76664500D01*
X13967493Y76664500D01*
X14102828Y76691420D01*
X14188640Y76726965D01*
X14226524Y76734500D01*
X14494673Y76734500D01*
X14494674Y76734500D01*
X14567740Y76749034D01*
X14650601Y76804399D01*
X14705966Y76887260D01*
X14720500Y76960326D01*
X14720500Y77769674D01*
X14705966Y77842740D01*
X14650601Y77925601D01*
X14646206Y77929996D01*
X14618429Y77984513D01*
X14628000Y78044945D01*
X14646206Y78070004D01*
X14650597Y78074397D01*
X14650601Y78074399D01*
X14705966Y78157260D01*
X14720500Y78230326D01*
X14720500Y79039674D01*
X14705966Y79112740D01*
X14650601Y79195601D01*
X14646206Y79199996D01*
X14618429Y79254513D01*
X14628000Y79314945D01*
X14646206Y79340004D01*
X14650597Y79344397D01*
X14650601Y79344399D01*
X14705966Y79427260D01*
X14720500Y79500326D01*
X14720500Y80154956D01*
X14739407Y80213147D01*
X14749490Y80224954D01*
X14800474Y80275937D01*
X14819952Y80309674D01*
X14849910Y80361562D01*
X14875500Y80457065D01*
X14875500Y83978455D01*
X14894407Y84036646D01*
X14904496Y84048459D01*
X16101542Y85245504D01*
X16156059Y85273281D01*
X16171546Y85274500D01*
X16579273Y85274500D01*
X16579273Y85274501D01*
X16609699Y85277354D01*
X16737882Y85322207D01*
X16847150Y85402850D01*
X16920345Y85502026D01*
X16970112Y85537619D01*
X17031296Y85537161D01*
X17079655Y85502026D01*
X17152845Y85402856D01*
X17152850Y85402850D01*
X17152853Y85402848D01*
X17152855Y85402846D01*
X17262116Y85322208D01*
X17262117Y85322208D01*
X17262118Y85322207D01*
X17390301Y85277354D01*
X17420725Y85274501D01*
X17420727Y85274500D01*
X17420734Y85274500D01*
X17929273Y85274500D01*
X17929273Y85274501D01*
X17959699Y85277354D01*
X18087882Y85322207D01*
X18197150Y85402850D01*
X18277793Y85512118D01*
X18322646Y85640301D01*
X18325499Y85670727D01*
X18325500Y85670727D01*
X18325500Y86329273D01*
X18325499Y86329275D01*
X18322646Y86359695D01*
X18322646Y86359699D01*
X18277793Y86487882D01*
X18270344Y86497975D01*
X18197154Y86597145D01*
X18197152Y86597147D01*
X18197150Y86597150D01*
X18197146Y86597153D01*
X18197144Y86597155D01*
X18087883Y86677793D01*
X17959703Y86722645D01*
X17959694Y86722647D01*
X17929274Y86725500D01*
X17929266Y86725500D01*
X17420734Y86725500D01*
X17420725Y86725500D01*
X17390305Y86722647D01*
X17390296Y86722645D01*
X17262116Y86677793D01*
X17152855Y86597155D01*
X17152845Y86597145D01*
X17079655Y86497975D01*
X17029887Y86462382D01*
X16968704Y86462840D01*
X16920345Y86497975D01*
X16847154Y86597145D01*
X16847152Y86597147D01*
X16847150Y86597150D01*
X16847146Y86597153D01*
X16847144Y86597155D01*
X16737883Y86677793D01*
X16609703Y86722645D01*
X16609694Y86722647D01*
X16579274Y86725500D01*
X16579266Y86725500D01*
X16070734Y86725500D01*
X16070725Y86725500D01*
X16040305Y86722647D01*
X16040296Y86722645D01*
X15912116Y86677793D01*
X15802855Y86597155D01*
X15802845Y86597145D01*
X15722207Y86487884D01*
X15677355Y86359704D01*
X15677353Y86359695D01*
X15674500Y86329275D01*
X15674500Y85921546D01*
X15655593Y85863355D01*
X15645504Y85851542D01*
X15494504Y85700542D01*
X15439987Y85672765D01*
X15379555Y85682336D01*
X15336290Y85725601D01*
X15325500Y85770546D01*
X15325500Y86329273D01*
X15325499Y86329275D01*
X15322646Y86359695D01*
X15322646Y86359699D01*
X15277793Y86487882D01*
X15270344Y86497975D01*
X15197154Y86597145D01*
X15197152Y86597147D01*
X15197150Y86597150D01*
X15197146Y86597153D01*
X15197144Y86597155D01*
X15087883Y86677793D01*
X14959703Y86722645D01*
X14959694Y86722647D01*
X14929274Y86725500D01*
X14929266Y86725500D01*
X14420734Y86725500D01*
X14420725Y86725500D01*
X14390305Y86722647D01*
X14390296Y86722645D01*
X14262116Y86677793D01*
X14152855Y86597155D01*
X14152845Y86597145D01*
X14072207Y86487884D01*
X14027355Y86359704D01*
X14027353Y86359695D01*
X14024500Y86329275D01*
X14024500Y85670726D01*
X14027353Y85640306D01*
X14027355Y85640297D01*
X14072207Y85512117D01*
X14152845Y85402856D01*
X14152846Y85402855D01*
X14152850Y85402850D01*
X14152853Y85402848D01*
X14152855Y85402846D01*
X14262116Y85322208D01*
X14262117Y85322208D01*
X14262118Y85322207D01*
X14390301Y85277354D01*
X14420725Y85274501D01*
X14420727Y85274500D01*
X14829455Y85274500D01*
X14887646Y85255593D01*
X14923610Y85206093D01*
X14923610Y85144907D01*
X14899461Y85105500D01*
X14269438Y84475475D01*
X14269437Y84475476D01*
X14199524Y84405562D01*
X14150091Y84319943D01*
X14124500Y84224434D01*
X14124500Y80703045D01*
X14105593Y80644854D01*
X14095504Y80633041D01*
X14026959Y80564496D01*
X13972442Y80536719D01*
X13956955Y80535500D01*
X13302326Y80535500D01*
X13302325Y80535500D01*
X13302315Y80535499D01*
X13229263Y80520967D01*
X13229257Y80520965D01*
X13146400Y80465603D01*
X13146397Y80465600D01*
X13091035Y80382743D01*
X13091033Y80382737D01*
X13076501Y80309685D01*
X13076500Y80309677D01*
X13076500Y79500328D01*
X13076501Y79500316D01*
X13091033Y79427264D01*
X13091035Y79427258D01*
X13146397Y79344401D01*
X13150794Y79340004D01*
X13178571Y79285487D01*
X13169000Y79225055D01*
X13150794Y79199996D01*
X13146394Y79195597D01*
X13129876Y79170875D01*
X13081827Y79132995D01*
X13020688Y79130593D01*
X12969815Y79164586D01*
X12954805Y79191274D01*
X12921628Y79280226D01*
X12839687Y79389687D01*
X12749043Y79457542D01*
X12730228Y79471627D01*
X12730226Y79471628D01*
X12602114Y79519412D01*
X12602113Y79519413D01*
X12563895Y79523521D01*
X12545485Y79525500D01*
X12545481Y79525500D01*
X12004521Y79525500D01*
X12004515Y79525499D01*
X11947888Y79519413D01*
X11947886Y79519412D01*
X11819774Y79471628D01*
X11819773Y79471628D01*
X11819772Y79471627D01*
X11710315Y79389689D01*
X11710311Y79389685D01*
X11628373Y79280229D01*
X11580587Y79152113D01*
X11574500Y79095482D01*
X11574500Y78504522D01*
X11574501Y78504516D01*
X11580587Y78447889D01*
X11580587Y78447888D01*
X11580588Y78447886D01*
X11628372Y78319774D01*
X11710313Y78210313D01*
X11740325Y78187846D01*
X11775579Y78137839D01*
X11774705Y78076660D01*
X11738039Y78027678D01*
X11718884Y78017129D01*
X11714920Y78015487D01*
X11643189Y77985775D01*
X11643187Y77985775D01*
X11643185Y77985773D01*
X11635117Y77980383D01*
X11590708Y77964272D01*
X11549687Y77959862D01*
X11542517Y77959091D01*
X11542514Y77959091D01*
X11407670Y77908798D01*
X11292458Y77822550D01*
X11292450Y77822542D01*
X11206202Y77707330D01*
X11155910Y77572489D01*
X11155908Y77572478D01*
X11149500Y77512871D01*
X8500000Y77512871D01*
X8500000Y88901000D01*
X8518907Y88959191D01*
X8568407Y88995155D01*
X8599000Y89000000D01*
X11750501Y89000000D01*
X11808692Y88981093D01*
G37*
%TD.AperFunction*%
%TD*%
%TA.AperFunction,Conductor*%
%TO.N,/GND_ISO*%
G36*
X24355980Y30981093D02*
G01*
X24391944Y30931593D01*
X24391944Y30870407D01*
X24355980Y30820907D01*
X24317105Y30803903D01*
X24287262Y30797967D01*
X24287257Y30797965D01*
X24204400Y30742603D01*
X24204397Y30742600D01*
X24149035Y30659743D01*
X24149033Y30659737D01*
X24134501Y30586685D01*
X24134500Y30586673D01*
X24134500Y29137328D01*
X24134501Y29137316D01*
X24149033Y29064264D01*
X24149035Y29064258D01*
X24204397Y28981401D01*
X24204399Y28981399D01*
X24287260Y28926034D01*
X24342808Y28914985D01*
X24360315Y28911502D01*
X24360320Y28911502D01*
X24360326Y28911500D01*
X24360327Y28911500D01*
X25799673Y28911500D01*
X25799674Y28911500D01*
X25872740Y28926034D01*
X25944999Y28974315D01*
X26003887Y28990923D01*
X26055001Y28974315D01*
X26127260Y28926034D01*
X26182808Y28914985D01*
X26200315Y28911502D01*
X26200320Y28911502D01*
X26200326Y28911500D01*
X26200327Y28911500D01*
X27639673Y28911500D01*
X27639674Y28911500D01*
X27712740Y28926034D01*
X27795601Y28981399D01*
X27850966Y29064260D01*
X27865500Y29137326D01*
X27865500Y30586674D01*
X27850966Y30659740D01*
X27795601Y30742601D01*
X27795599Y30742603D01*
X27712742Y30797965D01*
X27712737Y30797967D01*
X27682895Y30803903D01*
X27629512Y30833800D01*
X27603897Y30889365D01*
X27615835Y30949375D01*
X27660765Y30990907D01*
X27702211Y31000000D01*
X38901000Y31000000D01*
X38959191Y30981093D01*
X38995155Y30931593D01*
X39000000Y30901000D01*
X39000000Y5099000D01*
X38981093Y5040809D01*
X38931593Y5004845D01*
X38901000Y5000000D01*
X11099000Y5000000D01*
X11040809Y5018907D01*
X11004845Y5068407D01*
X11000000Y5099000D01*
X11000000Y8118057D01*
X21000000Y8118057D01*
X21000000Y7881944D01*
X21036934Y7648748D01*
X21036935Y7648744D01*
X21109892Y7424207D01*
X21109894Y7424204D01*
X21217084Y7213831D01*
X21277339Y7130895D01*
X21898957Y7752514D01*
X21923978Y7692110D01*
X21995112Y7585649D01*
X22085649Y7495112D01*
X22192110Y7423978D01*
X22252511Y7398959D01*
X21630893Y6777341D01*
X21713825Y6717087D01*
X21713829Y6717085D01*
X21924203Y6609895D01*
X21924206Y6609893D01*
X22148743Y6536936D01*
X22148747Y6536935D01*
X22381944Y6500000D01*
X22618056Y6500000D01*
X22851252Y6536935D01*
X22851256Y6536936D01*
X23075793Y6609893D01*
X23075796Y6609895D01*
X23286170Y6717085D01*
X23286176Y6717089D01*
X23369105Y6777341D01*
X23369105Y6777342D01*
X22747488Y7398959D01*
X22807890Y7423978D01*
X22914351Y7495112D01*
X23004888Y7585649D01*
X23076022Y7692110D01*
X23101041Y7752512D01*
X23722658Y7130895D01*
X23722659Y7130895D01*
X23782911Y7213824D01*
X23782915Y7213830D01*
X23890105Y7424204D01*
X23890107Y7424207D01*
X23963064Y7648744D01*
X23963065Y7648748D01*
X24000000Y7881944D01*
X24000000Y8118057D01*
X23963065Y8351253D01*
X23963064Y8351257D01*
X23890107Y8575794D01*
X23890105Y8575797D01*
X23782915Y8786171D01*
X23782913Y8786175D01*
X23722659Y8869107D01*
X23101041Y8247489D01*
X23076022Y8307890D01*
X23004888Y8414351D01*
X22914351Y8504888D01*
X22807890Y8576022D01*
X22747486Y8601043D01*
X23369105Y9222661D01*
X23286169Y9282916D01*
X23075796Y9390106D01*
X23075793Y9390108D01*
X22851256Y9463065D01*
X22851252Y9463066D01*
X22618056Y9500000D01*
X22381944Y9500000D01*
X22148747Y9463066D01*
X22148743Y9463065D01*
X21924206Y9390108D01*
X21924203Y9390106D01*
X21713823Y9282912D01*
X21630893Y9222661D01*
X22252512Y8601042D01*
X22192110Y8576022D01*
X22085649Y8504888D01*
X21995112Y8414351D01*
X21923978Y8307890D01*
X21898958Y8247488D01*
X21277339Y8869107D01*
X21217088Y8786177D01*
X21109894Y8575797D01*
X21109892Y8575794D01*
X21036935Y8351257D01*
X21036934Y8351253D01*
X21000000Y8118057D01*
X11000000Y8118057D01*
X11000000Y28334673D01*
X24069500Y28334673D01*
X24069500Y23425328D01*
X24069501Y23425316D01*
X24084033Y23352264D01*
X24084035Y23352258D01*
X24139397Y23269401D01*
X24139399Y23269399D01*
X24222260Y23214034D01*
X24277808Y23202985D01*
X24295315Y23199502D01*
X24295320Y23199502D01*
X24295326Y23199500D01*
X24295327Y23199500D01*
X27704673Y23199500D01*
X27704674Y23199500D01*
X27777740Y23214034D01*
X27860601Y23269399D01*
X27915966Y23352260D01*
X27930500Y23425326D01*
X27930500Y24780500D01*
X27949407Y24838691D01*
X27998907Y24874655D01*
X28029500Y24879500D01*
X28925500Y24879500D01*
X28983691Y24860593D01*
X29019655Y24811093D01*
X29024500Y24780500D01*
X29024500Y20180429D01*
X29005593Y20122238D01*
X28995503Y20110425D01*
X28645901Y19760824D01*
X28591385Y19733047D01*
X28507178Y19719711D01*
X28319974Y19658884D01*
X28144596Y19569525D01*
X28144595Y19569524D01*
X28144439Y19569411D01*
X28144377Y19569391D01*
X28141281Y19567493D01*
X28140825Y19568237D01*
X28086250Y19550500D01*
X27025326Y19550500D01*
X27025325Y19550500D01*
X27025315Y19550499D01*
X26952263Y19535967D01*
X26952257Y19535965D01*
X26869400Y19480603D01*
X26869397Y19480600D01*
X26814035Y19397743D01*
X26814033Y19397737D01*
X26799501Y19324685D01*
X26799500Y19324673D01*
X26799500Y17675328D01*
X26799501Y17675316D01*
X26814033Y17602264D01*
X26814035Y17602258D01*
X26869397Y17519401D01*
X26869399Y17519399D01*
X26952260Y17464034D01*
X27007808Y17452985D01*
X27025315Y17449502D01*
X27025320Y17449502D01*
X27025326Y17449500D01*
X27450500Y17449500D01*
X27508691Y17430593D01*
X27544655Y17381093D01*
X27549500Y17350500D01*
X27549500Y9858982D01*
X27530593Y9800791D01*
X27520504Y9788978D01*
X27211022Y9479496D01*
X27156505Y9451719D01*
X27141018Y9450500D01*
X26275326Y9450500D01*
X26275325Y9450500D01*
X26275315Y9450499D01*
X26202263Y9435967D01*
X26202257Y9435965D01*
X26119400Y9380603D01*
X26119397Y9380600D01*
X26064035Y9297743D01*
X26064033Y9297737D01*
X26049501Y9224685D01*
X26049500Y9224673D01*
X26049500Y6775328D01*
X26049501Y6775316D01*
X26064033Y6702264D01*
X26064035Y6702258D01*
X26119397Y6619401D01*
X26119399Y6619399D01*
X26202260Y6564034D01*
X26257808Y6552985D01*
X26275315Y6549502D01*
X26275320Y6549502D01*
X26275326Y6549500D01*
X26275327Y6549500D01*
X28724673Y6549500D01*
X28724674Y6549500D01*
X28797740Y6564034D01*
X28880601Y6619399D01*
X28935966Y6702260D01*
X28950500Y6775326D01*
X28950500Y7641019D01*
X28969407Y7699210D01*
X28979490Y7711017D01*
X29753829Y8485355D01*
X29869524Y8644595D01*
X29958884Y8819974D01*
X30019709Y9007174D01*
X30050500Y9201584D01*
X30050500Y9398417D01*
X30050500Y17350500D01*
X30069407Y17408691D01*
X30118907Y17444655D01*
X30149500Y17449500D01*
X30574673Y17449500D01*
X30574674Y17449500D01*
X30647740Y17464034D01*
X30730601Y17519399D01*
X30785966Y17602260D01*
X30790903Y17627084D01*
X30799405Y17669816D01*
X30829302Y17723199D01*
X30884868Y17748814D01*
X30896502Y17749500D01*
X32611417Y17749500D01*
X32611418Y17749500D01*
X32756413Y17778342D01*
X32892995Y17834916D01*
X32942229Y17867814D01*
X33015916Y17917048D01*
X34219371Y19120506D01*
X34273888Y19148282D01*
X34289375Y19149501D01*
X34672867Y19149501D01*
X34672872Y19149501D01*
X34732483Y19155909D01*
X34799907Y19181057D01*
X34867329Y19206203D01*
X34867329Y19206204D01*
X34867331Y19206204D01*
X34982546Y19292454D01*
X35068796Y19407669D01*
X35078306Y19433165D01*
X35119089Y19542512D01*
X35119088Y19542512D01*
X35119091Y19542517D01*
X35125500Y19602127D01*
X35125499Y20322872D01*
X35119091Y20382483D01*
X35119089Y20382489D01*
X35068797Y20517330D01*
X34982549Y20632542D01*
X34982548Y20632543D01*
X34982546Y20632546D01*
X34982541Y20632550D01*
X34867329Y20718798D01*
X34732488Y20769090D01*
X34732483Y20769091D01*
X34732481Y20769092D01*
X34732477Y20769092D01*
X34701249Y20772450D01*
X34672873Y20775500D01*
X34672870Y20775500D01*
X33327133Y20775500D01*
X33327129Y20775500D01*
X33327128Y20775499D01*
X33319949Y20774728D01*
X33267519Y20769092D01*
X33267514Y20769091D01*
X33132670Y20718798D01*
X33017458Y20632550D01*
X33017450Y20632542D01*
X32931202Y20517330D01*
X32880910Y20382489D01*
X32880908Y20382478D01*
X32874500Y20322871D01*
X32874500Y19939377D01*
X32855593Y19881186D01*
X32845504Y19869373D01*
X32255628Y19279496D01*
X32201111Y19251719D01*
X32185624Y19250500D01*
X31059553Y19250500D01*
X31001362Y19269407D01*
X30965398Y19318907D01*
X30965398Y19380093D01*
X30968083Y19387373D01*
X30987052Y19433165D01*
X31025501Y19626460D01*
X31025501Y19823541D01*
X31025501Y19827618D01*
X31025500Y19827644D01*
X31025500Y25978540D01*
X31025499Y25978544D01*
X30987051Y26171835D01*
X30911632Y26353914D01*
X30867183Y26420436D01*
X30850499Y26475437D01*
X30850499Y27027867D01*
X30850499Y27027872D01*
X30844091Y27087483D01*
X30844089Y27087489D01*
X30793797Y27222330D01*
X30707549Y27337542D01*
X30707548Y27337543D01*
X30707546Y27337546D01*
X30707541Y27337550D01*
X30592329Y27423798D01*
X30457488Y27474090D01*
X30457483Y27474091D01*
X30457481Y27474092D01*
X30457477Y27474092D01*
X30426249Y27477450D01*
X30397873Y27480500D01*
X30397870Y27480500D01*
X29652133Y27480500D01*
X29652129Y27480500D01*
X29652128Y27480499D01*
X29644949Y27479728D01*
X29592519Y27474092D01*
X29592514Y27474091D01*
X29457670Y27423798D01*
X29342458Y27337550D01*
X29342450Y27337542D01*
X29256202Y27222330D01*
X29205910Y27087489D01*
X29205908Y27087478D01*
X29199500Y27027871D01*
X29199500Y26979500D01*
X29180593Y26921309D01*
X29131093Y26885345D01*
X29100500Y26880500D01*
X28029500Y26880500D01*
X27971309Y26899407D01*
X27935345Y26948907D01*
X27930500Y26979500D01*
X27930500Y28334673D01*
X27930498Y28334685D01*
X27927015Y28352192D01*
X27915966Y28407740D01*
X27860601Y28490601D01*
X27860599Y28490603D01*
X27777742Y28545965D01*
X27777740Y28545966D01*
X27777737Y28545967D01*
X27777736Y28545967D01*
X27704684Y28560499D01*
X27704674Y28560500D01*
X24295326Y28560500D01*
X24295325Y28560500D01*
X24295315Y28560499D01*
X24222263Y28545967D01*
X24222257Y28545965D01*
X24139400Y28490603D01*
X24139397Y28490600D01*
X24084035Y28407743D01*
X24084033Y28407737D01*
X24069501Y28334685D01*
X24069500Y28334673D01*
X11000000Y28334673D01*
X11000000Y30901000D01*
X11018907Y30959191D01*
X11068407Y30995155D01*
X11099000Y31000000D01*
X24297789Y31000000D01*
X24355980Y30981093D01*
G37*
%TD.AperFunction*%
%TD*%
M02*
