%TF.GenerationSoftware,KiCad,Pcbnew,10.0.6*%
%TF.CreationDate,2026-10-08T10:25:58-04:00*%
%TF.ProjectId,PS-FLYBACK-5W,50532d46-4c59-4424-9143-4b2d35572e6b,A2-development*%
%TF.SameCoordinates,Original*%
%TF.FileFunction,Soldermask,Bot*%
%TF.FilePolarity,Negative*%
%FSLAX46Y46*%
G04 Gerber Fmt 4.6, Leading zero omitted, Abs format (unit mm)*
G04 Created by KiCad (PCBNEW 10.0.6) date 2026-10-08 10:25:58*
%MOMM*%
%LPD*%
G01*
G04 APERTURE LIST*
%ADD10C,0.000000*%
%ADD11R,2.400000X2.400000*%
%ADD12C,2.400000*%
%ADD13C,3.200000*%
%ADD14C,0.600000*%
G04 APERTURE END LIST*
D10*
%TO.C,H3*%
G36*
X4709290Y7693149D02*
G01*
X4917684Y7672624D01*
X5124289Y7638513D01*
X5328221Y7590963D01*
X5528606Y7530176D01*
X5724587Y7456415D01*
X5915324Y7369993D01*
X6100000Y7271281D01*
X6277825Y7160703D01*
X6448037Y7038731D01*
X6609907Y6905887D01*
X6762742Y6762742D01*
X6905887Y6609907D01*
X7038731Y6448037D01*
X7160703Y6277825D01*
X7271281Y6100000D01*
X7369993Y5915324D01*
X7456415Y5724587D01*
X7530176Y5528606D01*
X7590963Y5328221D01*
X7638513Y5124289D01*
X7672624Y4917684D01*
X7693149Y4709290D01*
X7700000Y4500000D01*
X7693149Y4290710D01*
X7672624Y4082316D01*
X7638513Y3875711D01*
X7590963Y3671779D01*
X7530176Y3471394D01*
X7456415Y3275413D01*
X7369993Y3084676D01*
X7271281Y2900000D01*
X7160703Y2722175D01*
X7038731Y2551963D01*
X6905887Y2390093D01*
X6762742Y2237258D01*
X6609907Y2094113D01*
X6448037Y1961269D01*
X6277825Y1839297D01*
X6100000Y1728719D01*
X5915324Y1630007D01*
X5724587Y1543585D01*
X5528606Y1469824D01*
X5328221Y1409037D01*
X5124289Y1361487D01*
X4917684Y1327376D01*
X4709290Y1306851D01*
X4500000Y1300000D01*
X-3700000Y1300000D01*
X-3700000Y7700000D01*
X4500000Y7700000D01*
X4709290Y7693149D01*
G37*
%TO.C,H1*%
G36*
X4709290Y102693149D02*
G01*
X4917684Y102672624D01*
X5124289Y102638513D01*
X5328221Y102590963D01*
X5528606Y102530176D01*
X5724587Y102456415D01*
X5915324Y102369993D01*
X6100000Y102271281D01*
X6277825Y102160703D01*
X6448037Y102038731D01*
X6609907Y101905887D01*
X6762742Y101762742D01*
X6905887Y101609907D01*
X7038731Y101448037D01*
X7160703Y101277825D01*
X7271281Y101100000D01*
X7369993Y100915324D01*
X7456415Y100724587D01*
X7530176Y100528606D01*
X7590963Y100328221D01*
X7638513Y100124289D01*
X7672624Y99917684D01*
X7693149Y99709290D01*
X7700000Y99500000D01*
X7693149Y99290710D01*
X7672624Y99082316D01*
X7638513Y98875711D01*
X7590963Y98671779D01*
X7530176Y98471394D01*
X7456415Y98275413D01*
X7369993Y98084676D01*
X7271281Y97900000D01*
X7160703Y97722175D01*
X7038731Y97551963D01*
X6905887Y97390093D01*
X6762742Y97237258D01*
X6609907Y97094113D01*
X6448037Y96961269D01*
X6277825Y96839297D01*
X6100000Y96728719D01*
X5915324Y96630007D01*
X5724587Y96543585D01*
X5528606Y96469824D01*
X5328221Y96409037D01*
X5124289Y96361487D01*
X4917684Y96327376D01*
X4709290Y96306851D01*
X4500000Y96300000D01*
X-3700000Y96300000D01*
X-3700000Y102700000D01*
X4500000Y102700000D01*
X4709290Y102693149D01*
G37*
%TO.C,H4*%
G36*
X53700000Y1300000D02*
G01*
X45500000Y1300000D01*
X45290710Y1306851D01*
X45082316Y1327376D01*
X44875711Y1361487D01*
X44671779Y1409037D01*
X44471394Y1469824D01*
X44275413Y1543585D01*
X44084676Y1630007D01*
X43900000Y1728719D01*
X43722175Y1839297D01*
X43551963Y1961269D01*
X43390093Y2094113D01*
X43237258Y2237258D01*
X43094113Y2390093D01*
X42961269Y2551963D01*
X42839297Y2722175D01*
X42728719Y2900000D01*
X42630007Y3084676D01*
X42543585Y3275413D01*
X42469824Y3471394D01*
X42409037Y3671779D01*
X42361487Y3875711D01*
X42327376Y4082316D01*
X42306851Y4290710D01*
X42300000Y4500000D01*
X42306851Y4709290D01*
X42327376Y4917684D01*
X42361487Y5124289D01*
X42409037Y5328221D01*
X42469824Y5528606D01*
X42543585Y5724587D01*
X42630007Y5915324D01*
X42728719Y6100000D01*
X42839297Y6277825D01*
X42961269Y6448037D01*
X43094113Y6609907D01*
X43237258Y6762742D01*
X43390093Y6905887D01*
X43551963Y7038731D01*
X43722175Y7160703D01*
X43900000Y7271281D01*
X44084676Y7369993D01*
X44275413Y7456415D01*
X44471394Y7530176D01*
X44671779Y7590963D01*
X44875711Y7638513D01*
X45082316Y7672624D01*
X45290710Y7693149D01*
X45500000Y7700000D01*
X53700000Y7700000D01*
X53700000Y1300000D01*
G37*
%TO.C,H2*%
G36*
X53700000Y96300000D02*
G01*
X45500000Y96300000D01*
X45290710Y96306851D01*
X45082316Y96327376D01*
X44875711Y96361487D01*
X44671779Y96409037D01*
X44471394Y96469824D01*
X44275413Y96543585D01*
X44084676Y96630007D01*
X43900000Y96728719D01*
X43722175Y96839297D01*
X43551963Y96961269D01*
X43390093Y97094113D01*
X43237258Y97237258D01*
X43094113Y97390093D01*
X42961269Y97551963D01*
X42839297Y97722175D01*
X42728719Y97900000D01*
X42630007Y98084676D01*
X42543585Y98275413D01*
X42469824Y98471394D01*
X42409037Y98671779D01*
X42361487Y98875711D01*
X42327376Y99082316D01*
X42306851Y99290710D01*
X42300000Y99500000D01*
X42306851Y99709290D01*
X42327376Y99917684D01*
X42361487Y100124289D01*
X42409037Y100328221D01*
X42469824Y100528606D01*
X42543585Y100724587D01*
X42630007Y100915324D01*
X42728719Y101100000D01*
X42839297Y101277825D01*
X42961269Y101448037D01*
X43094113Y101609907D01*
X43237258Y101762742D01*
X43390093Y101905887D01*
X43551963Y102038731D01*
X43722175Y102160703D01*
X43900000Y102271281D01*
X44084676Y102369993D01*
X44275413Y102456415D01*
X44471394Y102530176D01*
X44671779Y102590963D01*
X44875711Y102638513D01*
X45082316Y102672624D01*
X45290710Y102693149D01*
X45500000Y102700000D01*
X53700000Y102700000D01*
X53700000Y96300000D01*
G37*
%TD*%
D11*
%TO.C,J1*%
X22500000Y97000000D03*
D12*
X27500000Y97000000D03*
%TD*%
D11*
%TO.C,J2*%
X27500000Y8000000D03*
D12*
X22500000Y8000000D03*
%TD*%
D13*
%TO.C,H3*%
X4500000Y4500000D03*
%TD*%
D14*
%TO.C,T1*%
X27871953Y65073763D03*
X22128047Y65073763D03*
X23540116Y38532645D03*
X25775000Y42270417D03*
%TD*%
D13*
%TO.C,H1*%
X4500000Y99500000D03*
%TD*%
%TO.C,H4*%
X45500000Y4500000D03*
%TD*%
%TO.C,H2*%
X45500000Y99500000D03*
%TD*%
M02*
