%TF.GenerationSoftware,KiCad,Pcbnew,10.0.6*%
%TF.CreationDate,2026-09-29T19:19:49-04:00*%
%TF.ProjectId,PS-FLYBACK-5W,50532d46-4c59-4424-9143-4b2d35572e6b,A1-development*%
%TF.SameCoordinates,Original*%
%TF.FileFunction,Copper,L6,Bot*%
%TF.FilePolarity,Positive*%
%FSLAX46Y46*%
G04 Gerber Fmt 4.6, Leading zero omitted, Abs format (unit mm)*
G04 Created by KiCad (PCBNEW 10.0.6) date 2026-09-29 19:19:49*
%MOMM*%
%LPD*%
G01*
G04 APERTURE LIST*
%TA.AperFunction,EtchedComponent*%
%ADD10C,0.000000*%
%TD*%
%TA.AperFunction,ComponentPad*%
%ADD11R,2.400000X2.400000*%
%TD*%
%TA.AperFunction,ComponentPad*%
%ADD12C,2.400000*%
%TD*%
%TA.AperFunction,ComponentPad*%
%ADD13C,0.800000*%
%TD*%
%TA.AperFunction,ViaPad*%
%ADD14C,0.900000*%
%TD*%
%TA.AperFunction,ViaPad*%
%ADD15C,0.600000*%
%TD*%
%TA.AperFunction,ViaPad*%
%ADD16C,1.200000*%
%TD*%
%TA.AperFunction,ViaPad*%
%ADD17C,0.800000*%
%TD*%
G04 APERTURE END LIST*
D10*
%TA.AperFunction,EtchedComponent*%
%TO.C,T1*%
G36*
X25021967Y72224517D02*
G01*
X25024996Y72224213D01*
X25028035Y72224213D01*
X25052878Y72221414D01*
X25077757Y72218917D01*
X25080727Y72218276D01*
X25083753Y72217936D01*
X25108157Y72212365D01*
X25132570Y72207105D01*
X25135449Y72206136D01*
X25138418Y72205459D01*
X25162022Y72197199D01*
X25185715Y72189231D01*
X25188472Y72187944D01*
X25191342Y72186940D01*
X25213842Y72176104D01*
X25236524Y72165519D01*
X25239123Y72163929D01*
X25241859Y72162612D01*
X25262994Y72149331D01*
X25284360Y72136266D01*
X25286764Y72134395D01*
X25289336Y72132780D01*
X25308849Y72117218D01*
X25328619Y72101842D01*
X25330799Y72099713D01*
X25333173Y72097821D01*
X25350827Y72080166D01*
X25368745Y72062679D01*
X25370672Y72060321D01*
X25372821Y72058173D01*
X25388378Y72038665D01*
X25404235Y72019270D01*
X25405889Y72016706D01*
X25407780Y72014336D01*
X25421054Y71993209D01*
X25434641Y71972159D01*
X25435995Y71969431D01*
X25437612Y71966859D01*
X25448451Y71944351D01*
X25459581Y71921941D01*
X25460620Y71919080D01*
X25461940Y71916342D01*
X25470189Y71892765D01*
X25478742Y71869246D01*
X25479455Y71866285D01*
X25480459Y71863418D01*
X25486017Y71839066D01*
X25491882Y71814737D01*
X25492259Y71811717D01*
X25492936Y71808753D01*
X25495732Y71783928D01*
X25498836Y71759099D01*
X25498872Y71756053D01*
X25499213Y71753035D01*
X25500000Y71725000D01*
X25500000Y70616394D01*
X25548614Y70615550D01*
X25548630Y70615549D01*
X26090211Y70606175D01*
X26090217Y70606174D01*
X26635993Y70596802D01*
X26635997Y70596803D01*
X27188883Y70587430D01*
X27188900Y70587431D01*
X27751938Y70578056D01*
X27751940Y70578055D01*
X28327885Y70568684D01*
X28327905Y70568683D01*
X28919998Y70559316D01*
X28920028Y70559317D01*
X29532930Y70549942D01*
X29532941Y70549941D01*
X30169726Y70540575D01*
X30169735Y70540576D01*
X30836541Y70531201D01*
X30836564Y70531199D01*
X31537651Y70521834D01*
X32280703Y70512464D01*
X32280705Y70512465D01*
X33073262Y70503094D01*
X33073269Y70503095D01*
X33925254Y70493720D01*
X33925263Y70493719D01*
X34847433Y70484349D01*
X35854651Y70474978D01*
X35882526Y70473936D01*
X35882600Y70473936D01*
X35882624Y70473932D01*
X35882678Y70473931D01*
X35910204Y70470569D01*
X35938258Y70467149D01*
X35938297Y70467139D01*
X35938335Y70467135D01*
X35962574Y70461364D01*
X35992807Y70454173D01*
X35992851Y70454157D01*
X35992881Y70454150D01*
X36017868Y70445144D01*
X36045559Y70435170D01*
X36045589Y70435154D01*
X36045631Y70435140D01*
X36073312Y70421490D01*
X36095851Y70410381D01*
X36095881Y70410361D01*
X36095919Y70410343D01*
X36120938Y70394295D01*
X36143053Y70380116D01*
X36143081Y70380092D01*
X36143117Y70380070D01*
X36165107Y70362196D01*
X36186569Y70344758D01*
X36186597Y70344728D01*
X36186627Y70344705D01*
X36206318Y70324643D01*
X36225852Y70304749D01*
X36225875Y70304719D01*
X36225904Y70304690D01*
X36244344Y70281119D01*
X36260409Y70260594D01*
X36260427Y70260563D01*
X36260454Y70260530D01*
X36276779Y70234003D01*
X36289805Y70212846D01*
X36289819Y70212815D01*
X36289843Y70212777D01*
X36303900Y70182878D01*
X36313670Y70162108D01*
X36313680Y70162078D01*
X36313700Y70162036D01*
X36323672Y70132662D01*
X36331704Y70109017D01*
X36331712Y70108980D01*
X36331725Y70108942D01*
X36337560Y70082234D01*
X36343681Y70054240D01*
X36343685Y70054198D01*
X36343693Y70054163D01*
X36346562Y70026369D01*
X36349448Y69998467D01*
X36349448Y69998418D01*
X36349452Y69998389D01*
X36349451Y69998299D01*
X36349978Y69970426D01*
X36340604Y68945795D01*
X36340596Y68945581D01*
X36340600Y68945363D01*
X36331225Y68008971D01*
X36331216Y68008748D01*
X36331220Y68008545D01*
X36321845Y67145617D01*
X36321837Y67145421D01*
X36321841Y67145200D01*
X36312466Y66343832D01*
X36312457Y66343628D01*
X36312461Y66343428D01*
X36303086Y65593890D01*
X36303078Y65593696D01*
X36303081Y65593502D01*
X36293706Y64887738D01*
X36293698Y64887554D01*
X36293701Y64887371D01*
X36284326Y64218620D01*
X36284318Y64218447D01*
X36284321Y64218277D01*
X36274946Y63580799D01*
X36274939Y63580636D01*
X36274941Y63580482D01*
X36265566Y62969333D01*
X36265560Y62969198D01*
X36265562Y62969047D01*
X36256187Y62379916D01*
X36256181Y62379791D01*
X36256183Y62379663D01*
X36246808Y61808743D01*
X36246802Y61808627D01*
X36246804Y61808524D01*
X36237429Y61252393D01*
X36237425Y61252304D01*
X36237426Y61252213D01*
X36228051Y60707759D01*
X36228047Y60707678D01*
X36228048Y60707617D01*
X36218673Y60171955D01*
X36218671Y60171918D01*
X36218672Y60171854D01*
X36209369Y59646388D01*
X36200000Y51999388D01*
X36190625Y44349191D01*
X36190503Y44345047D01*
X36190546Y44340907D01*
X36181172Y43814163D01*
X36171798Y43283265D01*
X36171799Y43283264D01*
X36162426Y42745549D01*
X36162427Y42745537D01*
X36153055Y42198166D01*
X36143683Y41638126D01*
X36143684Y41638121D01*
X36134313Y41062096D01*
X36124942Y40466428D01*
X36124943Y40466419D01*
X36115573Y39846955D01*
X36106203Y39198973D01*
X36096833Y38516994D01*
X36087463Y37794579D01*
X36078093Y37024069D01*
X36068722Y36196230D01*
X36068723Y36196226D01*
X36059348Y35299315D01*
X36049977Y34320216D01*
X36048927Y34292340D01*
X36048927Y34292272D01*
X36048924Y34292250D01*
X36048922Y34292190D01*
X36045174Y34261563D01*
X36042126Y34236615D01*
X36042117Y34236580D01*
X36042112Y34236534D01*
X36035547Y34208991D01*
X36029136Y34182070D01*
X36029120Y34182028D01*
X36029112Y34181991D01*
X36020085Y34156966D01*
X36010120Y34129322D01*
X36010101Y34129285D01*
X36010088Y34129247D01*
X35998801Y34106375D01*
X35985318Y34079036D01*
X35985292Y34078996D01*
X35985277Y34078965D01*
X35971774Y34057927D01*
X35955040Y34031842D01*
X35955013Y34031810D01*
X35954992Y34031776D01*
X35939381Y34012580D01*
X35919671Y33988336D01*
X35919639Y33988305D01*
X35919615Y33988275D01*
X35897430Y33966511D01*
X35879651Y33949063D01*
X35879626Y33949044D01*
X35879590Y33949008D01*
X35856092Y33930636D01*
X35835487Y33914517D01*
X35835448Y33914494D01*
X35835420Y33914471D01*
X35812790Y33900552D01*
X35787732Y33885133D01*
X35787695Y33885116D01*
X35787660Y33885094D01*
X35761165Y33872647D01*
X35736988Y33861282D01*
X35736951Y33861270D01*
X35736912Y33861251D01*
X35710229Y33852200D01*
X35683893Y33843261D01*
X35683850Y33843252D01*
X35683813Y33843239D01*
X35656887Y33837365D01*
X35629113Y33831299D01*
X35629072Y33831295D01*
X35629032Y33831286D01*
X35603387Y33828646D01*
X35573338Y33825546D01*
X35573273Y33825545D01*
X35573256Y33825543D01*
X35573203Y33825544D01*
X35545297Y33825023D01*
X34548762Y33834397D01*
X34548546Y33834406D01*
X34548318Y33834401D01*
X33637626Y33843776D01*
X33637401Y33843785D01*
X33637187Y33843781D01*
X32797969Y33853156D01*
X32797753Y33853165D01*
X32797539Y33853161D01*
X32018213Y33862536D01*
X32018007Y33862545D01*
X32017796Y33862541D01*
X31288900Y33871916D01*
X31288687Y33871925D01*
X31288501Y33871922D01*
X30602197Y33881297D01*
X30602013Y33881305D01*
X30601819Y33881302D01*
X29951532Y33890677D01*
X29951359Y33890685D01*
X29951179Y33890682D01*
X29331326Y33900057D01*
X29331163Y33900065D01*
X29331000Y33900062D01*
X28736773Y33909437D01*
X28736620Y33909444D01*
X28736478Y33909442D01*
X28163685Y33918817D01*
X28163560Y33918823D01*
X28163424Y33918821D01*
X27608361Y33928196D01*
X27608245Y33928202D01*
X27608136Y33928200D01*
X27067478Y33937575D01*
X27067389Y33937580D01*
X27067292Y33937578D01*
X26538011Y33946953D01*
X26537931Y33946957D01*
X26537865Y33946956D01*
X26017156Y33956331D01*
X26017101Y33956334D01*
X26017052Y33956333D01*
X25502275Y33965708D01*
X25502246Y33965710D01*
X25502214Y33965709D01*
X24990835Y33975084D01*
X24990833Y33975085D01*
X24990819Y33975084D01*
X24480361Y33984459D01*
X24480343Y33984460D01*
X23968480Y33993833D01*
X23968455Y33993832D01*
X23452396Y34003207D01*
X23452394Y34003208D01*
X22929805Y34012580D01*
X22929778Y34012582D01*
X22398087Y34021950D01*
X22398069Y34021949D01*
X21853649Y34031324D01*
X21853649Y34031325D01*
X21293932Y34040695D01*
X21293916Y34040696D01*
X20715406Y34050062D01*
X20113656Y34059431D01*
X20113632Y34059430D01*
X19483754Y34068805D01*
X19483746Y34068806D01*
X18821221Y34078175D01*
X18821212Y34078176D01*
X18119870Y34087540D01*
X18119855Y34087539D01*
X17370964Y34096914D01*
X17370963Y34096915D01*
X16567066Y34106282D01*
X15696523Y34115650D01*
X15696518Y34115649D01*
X14745075Y34125024D01*
X14717197Y34126082D01*
X14717135Y34126082D01*
X14717115Y34126085D01*
X14717049Y34126087D01*
X14686259Y34129864D01*
X14661481Y34132898D01*
X14661443Y34132908D01*
X14661395Y34132913D01*
X14633372Y34139601D01*
X14606939Y34145903D01*
X14606897Y34145919D01*
X14606856Y34145928D01*
X14580969Y34155274D01*
X14554197Y34164934D01*
X14554159Y34164954D01*
X14554117Y34164968D01*
X14528996Y34177373D01*
X14503918Y34189749D01*
X14503882Y34189773D01*
X14503842Y34189792D01*
X14479481Y34205437D01*
X14456732Y34220040D01*
X14456701Y34220066D01*
X14456661Y34220091D01*
X14435217Y34237541D01*
X14413235Y34255421D01*
X14413202Y34255456D01*
X14413171Y34255480D01*
X14394462Y34274563D01*
X14373973Y34295451D01*
X14373947Y34295485D01*
X14373915Y34295517D01*
X14356495Y34317809D01*
X14339440Y34339624D01*
X14339417Y34339662D01*
X14339390Y34339696D01*
X14324209Y34364394D01*
X14310069Y34387388D01*
X14310052Y34387425D01*
X14310027Y34387465D01*
X14297253Y34414674D01*
X14286231Y34438138D01*
X14286218Y34438177D01*
X14286198Y34438219D01*
X14276257Y34467555D01*
X14268225Y34491239D01*
X14268217Y34491276D01*
X14268201Y34491323D01*
X14262273Y34518533D01*
X14256277Y34546022D01*
X14256272Y34546072D01*
X14256264Y34546108D01*
X14253650Y34571563D01*
X14250540Y34601798D01*
X14250539Y34601857D01*
X14250536Y34601885D01*
X14250537Y34601970D01*
X14250024Y34629840D01*
X14259398Y35598278D01*
X14259407Y35598513D01*
X14259403Y35598735D01*
X14268778Y36483728D01*
X14268787Y36483954D01*
X14268783Y36484179D01*
X14278158Y37299689D01*
X14278167Y37299905D01*
X14278163Y37300130D01*
X14287538Y38057415D01*
X14287548Y38057639D01*
X14287544Y38057844D01*
X14296919Y38766101D01*
X14296928Y38766296D01*
X14296924Y38766512D01*
X14306299Y39433357D01*
X14306308Y39433559D01*
X14306305Y39433746D01*
X14315680Y40065569D01*
X14315689Y40065760D01*
X14315686Y40065933D01*
X14325061Y40668161D01*
X14325069Y40668323D01*
X14325066Y40668497D01*
X14334441Y41245800D01*
X14334448Y41245952D01*
X14334446Y41246105D01*
X14343821Y41802559D01*
X14343828Y41802701D01*
X14343826Y41802828D01*
X14353201Y42342033D01*
X14353207Y42342148D01*
X14353205Y42342265D01*
X14362580Y42867450D01*
X14362585Y42867538D01*
X14362583Y42867642D01*
X14371958Y43381751D01*
X14371962Y43381831D01*
X14371961Y43381902D01*
X14381336Y43887658D01*
X14381339Y43887712D01*
X14381338Y43887765D01*
X14390713Y44387733D01*
X14390715Y44387762D01*
X14390714Y44387796D01*
X14400003Y44879875D01*
X14409375Y59621038D01*
X14409506Y59625595D01*
X14409464Y59630146D01*
X14418838Y60127246D01*
X14418837Y60127269D01*
X14428212Y60628374D01*
X14428213Y60628380D01*
X14437585Y61135790D01*
X14446957Y61652248D01*
X14446959Y61652270D01*
X14456325Y62180337D01*
X14456324Y62180360D01*
X14465699Y62723978D01*
X14465701Y62724003D01*
X14475065Y63285484D01*
X14475064Y63285508D01*
X14484439Y63870055D01*
X14484440Y63870068D01*
X14493809Y64481118D01*
X14503178Y65124180D01*
X14512547Y65805311D01*
X14512548Y65805328D01*
X14521911Y66531284D01*
X14531286Y67312143D01*
X14531287Y67312145D01*
X14540656Y68157195D01*
X14550026Y69080076D01*
X14551091Y69107921D01*
X14551091Y69108009D01*
X14551095Y69108038D01*
X14551097Y69108101D01*
X14554354Y69134589D01*
X14557923Y69163662D01*
X14557935Y69163712D01*
X14557940Y69163753D01*
X14565445Y69195163D01*
X14570945Y69218199D01*
X14570959Y69218237D01*
X14570971Y69218288D01*
X14581529Y69247505D01*
X14589990Y69270936D01*
X14590009Y69270973D01*
X14590026Y69271022D01*
X14604057Y69299413D01*
X14614821Y69321208D01*
X14614843Y69321241D01*
X14614866Y69321289D01*
X14630993Y69346383D01*
X14645124Y69368385D01*
X14645154Y69368420D01*
X14645179Y69368461D01*
X14663149Y69390529D01*
X14680519Y69411872D01*
X14680552Y69411904D01*
X14680581Y69411940D01*
X14701450Y69432389D01*
X14720560Y69451123D01*
X14720594Y69451149D01*
X14720629Y69451184D01*
X14743893Y69469352D01*
X14764743Y69485643D01*
X14764782Y69485666D01*
X14764819Y69485696D01*
X14789737Y69501001D01*
X14812515Y69515000D01*
X14812555Y69515018D01*
X14812596Y69515044D01*
X14840362Y69528070D01*
X14863272Y69538823D01*
X14863314Y69538836D01*
X14863358Y69538858D01*
X14891635Y69548431D01*
X14916378Y69556814D01*
X14916421Y69556823D01*
X14916467Y69556839D01*
X14945965Y69563257D01*
X14971165Y69568745D01*
X14971207Y69568749D01*
X14971256Y69568760D01*
X14999716Y69571673D01*
X15026943Y69574467D01*
X15027008Y69574468D01*
X15027035Y69574471D01*
X15027118Y69574470D01*
X15054984Y69574974D01*
X15995327Y69565600D01*
X15995564Y69565590D01*
X15995798Y69565595D01*
X16855089Y69556220D01*
X16855317Y69556211D01*
X16855554Y69556215D01*
X17647355Y69546840D01*
X17647590Y69546830D01*
X17647811Y69546834D01*
X18383055Y69537459D01*
X18383261Y69537450D01*
X18383496Y69537454D01*
X19071112Y69528079D01*
X19071325Y69528070D01*
X19071536Y69528073D01*
X19718921Y69518698D01*
X19719123Y69518689D01*
X19719322Y69518692D01*
X20332681Y69509317D01*
X20332871Y69509308D01*
X20333056Y69509311D01*
X20917659Y69499936D01*
X20917839Y69499928D01*
X20918006Y69499930D01*
X21478386Y69490555D01*
X21478537Y69490548D01*
X21478700Y69490550D01*
X22018817Y69481175D01*
X22018958Y69481168D01*
X22019095Y69481170D01*
X22542442Y69471795D01*
X22542574Y69471788D01*
X22542682Y69471790D01*
X23052395Y69462415D01*
X23052482Y69462410D01*
X23052593Y69462412D01*
X23551529Y69453037D01*
X23551608Y69453033D01*
X23551685Y69453034D01*
X24042487Y69443659D01*
X24042541Y69443656D01*
X24042598Y69443657D01*
X24527757Y69434282D01*
X24527803Y69434279D01*
X24527822Y69434280D01*
X25009725Y69424905D01*
X25009727Y69424904D01*
X25009744Y69424905D01*
X25490680Y69415530D01*
X25490697Y69415531D01*
X25973084Y69406156D01*
X25973099Y69406155D01*
X26459160Y69396782D01*
X26459170Y69396781D01*
X26951203Y69387412D01*
X26951233Y69387413D01*
X27452382Y69378038D01*
X27452412Y69378036D01*
X27964609Y69368670D01*
X27964623Y69368671D01*
X28491903Y69359296D01*
X28491903Y69359295D01*
X29036481Y69349931D01*
X29036493Y69349932D01*
X29603078Y69340562D01*
X30195880Y69331189D01*
X30819526Y69321820D01*
X31479919Y69312452D01*
X32184105Y69303085D01*
X32941128Y69293712D01*
X32941142Y69293711D01*
X33759966Y69284347D01*
X33759983Y69284348D01*
X34655235Y69274972D01*
X34683083Y69273897D01*
X34683162Y69273897D01*
X34683188Y69273893D01*
X34683260Y69273891D01*
X34713583Y69270153D01*
X34738813Y69267048D01*
X34738856Y69267037D01*
X34738910Y69267031D01*
X34767721Y69260136D01*
X34793347Y69254010D01*
X34793392Y69253993D01*
X34793441Y69253982D01*
X34821892Y69243690D01*
X34846077Y69234948D01*
X34846115Y69234929D01*
X34846168Y69234910D01*
X34872207Y69222032D01*
X34896342Y69210103D01*
X34896385Y69210074D01*
X34896428Y69210054D01*
X34919585Y69195163D01*
X34943510Y69179784D01*
X34943546Y69179754D01*
X34943589Y69179727D01*
X34965020Y69162265D01*
X34986985Y69144377D01*
X34987021Y69144339D01*
X34987058Y69144310D01*
X35006500Y69124456D01*
X35026224Y69104323D01*
X35026253Y69104285D01*
X35026289Y69104249D01*
X35044787Y69080547D01*
X35060730Y69060130D01*
X35060752Y69060092D01*
X35060787Y69060049D01*
X35076341Y69034708D01*
X35090073Y69012349D01*
X35090093Y69012304D01*
X35090120Y69012262D01*
X35101575Y68987822D01*
X35113881Y68961584D01*
X35113898Y68961532D01*
X35113917Y68961493D01*
X35122150Y68937150D01*
X35131855Y68908473D01*
X35131866Y68908422D01*
X35131881Y68908378D01*
X35137441Y68882785D01*
X35143770Y68853682D01*
X35143775Y68853629D01*
X35143785Y68853585D01*
X35146366Y68828291D01*
X35149474Y68797903D01*
X35149475Y68797830D01*
X35149478Y68797804D01*
X35149477Y68797724D01*
X35149973Y68769861D01*
X35140599Y67857615D01*
X35140589Y67857358D01*
X35140593Y67857130D01*
X35131218Y67023539D01*
X35131209Y67023310D01*
X35131213Y67023059D01*
X35121838Y66254966D01*
X35121828Y66254730D01*
X35121832Y66254496D01*
X35112457Y65541295D01*
X35112447Y65541071D01*
X35112451Y65540840D01*
X35103076Y64873864D01*
X35103066Y64873633D01*
X35103069Y64873427D01*
X35093694Y64245502D01*
X35093685Y64245301D01*
X35093688Y64245088D01*
X35084313Y63650192D01*
X35084304Y63650003D01*
X35084307Y63649805D01*
X35074932Y63082828D01*
X35074924Y63082649D01*
X35074926Y63082470D01*
X35065551Y62539011D01*
X35065543Y62538843D01*
X35065545Y62538687D01*
X35056170Y62014908D01*
X35056163Y62014768D01*
X35056165Y62014621D01*
X35046790Y61507132D01*
X35046783Y61507001D01*
X35046785Y61506885D01*
X35037410Y61012643D01*
X35037405Y61012539D01*
X35037406Y61012438D01*
X35028031Y60528675D01*
X35028027Y60528597D01*
X35028028Y60528514D01*
X35018653Y60052666D01*
X35018650Y60052613D01*
X35018651Y60052551D01*
X35009276Y59582201D01*
X35009273Y59582155D01*
X35009274Y59582133D01*
X34999996Y59119847D01*
X34990625Y44408437D01*
X34990485Y44403596D01*
X34990525Y44398733D01*
X34981150Y43931156D01*
X34981149Y43931138D01*
X34971778Y43460179D01*
X34971779Y43460160D01*
X34962407Y42983142D01*
X34953036Y42497683D01*
X34943665Y42001101D01*
X34943666Y42001097D01*
X34934291Y41490154D01*
X34924927Y40962506D01*
X34915558Y40413583D01*
X34906189Y39839516D01*
X34906190Y39839502D01*
X34896815Y39234977D01*
X34887452Y38595621D01*
X34887453Y38595609D01*
X34878078Y37912844D01*
X34868715Y37180363D01*
X34859345Y36386757D01*
X34859346Y36386752D01*
X34849971Y35519596D01*
X34848889Y35491780D01*
X34848888Y35491675D01*
X34848883Y35491641D01*
X34848881Y35491571D01*
X34845570Y35464795D01*
X34842021Y35436027D01*
X34842008Y35435973D01*
X34842002Y35435924D01*
X34835689Y35409583D01*
X34828965Y35381497D01*
X34828947Y35381448D01*
X34828935Y35381397D01*
X34820153Y35357146D01*
X34809886Y35328772D01*
X34809858Y35328718D01*
X34809844Y35328676D01*
X34798893Y35306552D01*
X34785024Y35278516D01*
X34784993Y35278470D01*
X34784972Y35278425D01*
X34771298Y35257179D01*
X34754690Y35231358D01*
X34754652Y35231312D01*
X34754628Y35231274D01*
X34739403Y35212600D01*
X34719268Y35187894D01*
X34719227Y35187855D01*
X34719197Y35187817D01*
X34700237Y35169264D01*
X34679202Y35148669D01*
X34679160Y35148637D01*
X34679123Y35148600D01*
X34658087Y35132194D01*
X34634997Y35114176D01*
X34634948Y35114147D01*
X34634911Y35114117D01*
X34613160Y35100777D01*
X34587206Y35084849D01*
X34587154Y35084825D01*
X34587114Y35084800D01*
X34562882Y35073452D01*
X34536434Y35061058D01*
X34536384Y35061042D01*
X34536337Y35061019D01*
X34509632Y35051998D01*
X34483317Y35043102D01*
X34483266Y35043091D01*
X34483216Y35043074D01*
X34454665Y35036882D01*
X34428523Y35031205D01*
X34428474Y35031201D01*
X34428419Y35031188D01*
X34398673Y35028163D01*
X34372741Y35025519D01*
X34372674Y35025518D01*
X34372637Y35025514D01*
X34372524Y35025516D01*
X34344699Y35025029D01*
X33460548Y35034403D01*
X33460289Y35034413D01*
X33460047Y35034409D01*
X32652156Y35043784D01*
X32651908Y35043794D01*
X32651661Y35043790D01*
X31907276Y35053166D01*
X31907040Y35053176D01*
X31906793Y35053172D01*
X31215632Y35062546D01*
X31215389Y35062557D01*
X31215161Y35062553D01*
X30568826Y35071928D01*
X30568614Y35071938D01*
X30568375Y35071934D01*
X29959909Y35081309D01*
X29959691Y35081319D01*
X29959481Y35081316D01*
X29383051Y35090691D01*
X29382844Y35090701D01*
X29382650Y35090698D01*
X28833298Y35100074D01*
X28833121Y35100082D01*
X28832929Y35100080D01*
X28306393Y35109454D01*
X28306226Y35109462D01*
X28306057Y35109460D01*
X27798616Y35118835D01*
X27798459Y35118843D01*
X27798319Y35118841D01*
X27306688Y35128216D01*
X27306559Y35128223D01*
X27306432Y35128221D01*
X26827663Y35137596D01*
X26827560Y35137601D01*
X26827450Y35137600D01*
X26358860Y35146976D01*
X26358783Y35146980D01*
X26358695Y35146979D01*
X25897800Y35156353D01*
X25897730Y35156357D01*
X25897679Y35156356D01*
X25442139Y35165731D01*
X25442111Y35165733D01*
X25442068Y35165732D01*
X24989641Y35175107D01*
X24989621Y35175109D01*
X24989620Y35175108D01*
X24538157Y35184483D01*
X24538142Y35184482D01*
X24085374Y35193858D01*
X24085351Y35193860D01*
X23629351Y35203229D01*
X23629337Y35203228D01*
X23167514Y35212600D01*
X23167498Y35212599D01*
X22697295Y35221974D01*
X22697283Y35221975D01*
X22216530Y35231345D01*
X22216528Y35231346D01*
X21722508Y35240711D01*
X21722505Y35240710D01*
X21211138Y35250084D01*
X21211133Y35250085D01*
X20680209Y35259447D01*
X20680202Y35259446D01*
X20124540Y35268815D01*
X19539814Y35278185D01*
X18920699Y35287553D01*
X18260111Y35296925D01*
X18260096Y35296926D01*
X17551382Y35306288D01*
X17551370Y35306287D01*
X16783223Y35315659D01*
X15944413Y35325032D01*
X15916594Y35326124D01*
X15916500Y35326125D01*
X15916469Y35326129D01*
X15916389Y35326132D01*
X15887821Y35329675D01*
X15860854Y35333012D01*
X15860800Y35333026D01*
X15860744Y35333032D01*
X15833406Y35339595D01*
X15806329Y35346087D01*
X15806278Y35346106D01*
X15806222Y35346119D01*
X15779724Y35355725D01*
X15753611Y35365184D01*
X15753561Y35365209D01*
X15753508Y35365228D01*
X15728336Y35377700D01*
X15703363Y35390064D01*
X15703317Y35390095D01*
X15703266Y35390119D01*
X15679083Y35405695D01*
X15656216Y35420414D01*
X15656175Y35420448D01*
X15656126Y35420479D01*
X15633298Y35439105D01*
X15612764Y35455851D01*
X15612725Y35455892D01*
X15612682Y35455926D01*
X15593690Y35475349D01*
X15573553Y35495931D01*
X15573518Y35495978D01*
X15573480Y35496015D01*
X15556750Y35517482D01*
X15539076Y35540148D01*
X15539047Y35540196D01*
X15539013Y35540239D01*
X15524249Y35564330D01*
X15509766Y35587949D01*
X15509744Y35587998D01*
X15509713Y35588047D01*
X15498291Y35612460D01*
X15485992Y35638729D01*
X15485973Y35638788D01*
X15485951Y35638833D01*
X15477172Y35664851D01*
X15468054Y35691853D01*
X15468044Y35691904D01*
X15468024Y35691960D01*
X15462108Y35719287D01*
X15456176Y35746651D01*
X15456170Y35746711D01*
X15456159Y35746761D01*
X15453460Y35773399D01*
X15450510Y35802434D01*
X15450509Y35802510D01*
X15450505Y35802546D01*
X15450507Y35802656D01*
X15450030Y35830476D01*
X15459405Y36686531D01*
X15459416Y36686791D01*
X15459411Y36687048D01*
X15468786Y37469237D01*
X15468796Y37469486D01*
X15468792Y37469749D01*
X15478167Y38190426D01*
X15478178Y38190681D01*
X15478174Y38190927D01*
X15487549Y38860046D01*
X15487560Y38860289D01*
X15487556Y38860532D01*
X15496931Y39486226D01*
X15496941Y39486456D01*
X15496938Y39486692D01*
X15506313Y40075699D01*
X15506324Y40075934D01*
X15506321Y40076141D01*
X15515696Y40634108D01*
X15515706Y40634313D01*
X15515703Y40634522D01*
X15525078Y41166249D01*
X15525087Y41166443D01*
X15525085Y41166631D01*
X15534460Y41676245D01*
X15534468Y41676410D01*
X15534466Y41676592D01*
X15543841Y42167695D01*
X15543849Y42167850D01*
X15543847Y42168002D01*
X15553222Y42643775D01*
X15553229Y42643903D01*
X15553227Y42644041D01*
X15562602Y43107337D01*
X15562608Y43107456D01*
X15562607Y43107557D01*
X15571982Y43560974D01*
X15571986Y43561050D01*
X15571985Y43561147D01*
X15581360Y44007090D01*
X15581364Y44007159D01*
X15581363Y44007213D01*
X15590738Y44447945D01*
X15590741Y44447990D01*
X15590740Y44448018D01*
X15600004Y44880493D01*
X15609375Y59562087D01*
X15609525Y59567288D01*
X15609490Y59572469D01*
X15618865Y60010426D01*
X15628238Y60451638D01*
X15637610Y60898348D01*
X15646981Y61352898D01*
X15646983Y61352920D01*
X15656346Y61817521D01*
X15665721Y62295788D01*
X15665722Y62295790D01*
X15675090Y62789913D01*
X15684458Y63303597D01*
X15693826Y63840757D01*
X15693827Y63840763D01*
X15703186Y64405468D01*
X15712561Y65004444D01*
X15712562Y65004448D01*
X15721929Y65642640D01*
X15731297Y66328159D01*
X15740658Y67069814D01*
X15750033Y67880779D01*
X15751135Y67908568D01*
X15751136Y67908684D01*
X15751141Y67908722D01*
X15751144Y67908803D01*
X15754683Y67937251D01*
X15758044Y67964327D01*
X15758058Y67964382D01*
X15758065Y67964444D01*
X15764850Y67992662D01*
X15771139Y68018847D01*
X15771159Y68018900D01*
X15771173Y68018961D01*
X15780897Y68045751D01*
X15790256Y68071558D01*
X15790283Y68071611D01*
X15790303Y68071668D01*
X15803272Y68097821D01*
X15815154Y68121797D01*
X15815189Y68121850D01*
X15815213Y68121900D01*
X15829941Y68144749D01*
X15845522Y68168933D01*
X15845561Y68168980D01*
X15845592Y68169029D01*
X15863513Y68190975D01*
X15880975Y68212371D01*
X15881016Y68212410D01*
X15881055Y68212459D01*
X15900908Y68231857D01*
X15921069Y68251568D01*
X15921120Y68251607D01*
X15921159Y68251646D01*
X15942635Y68268369D01*
X15965299Y68286028D01*
X15965350Y68286058D01*
X15965397Y68286096D01*
X15988761Y68300402D01*
X16013111Y68315321D01*
X16013169Y68315347D01*
X16013216Y68315377D01*
X16036852Y68326424D01*
X16063900Y68339076D01*
X16063961Y68339096D01*
X16064011Y68339120D01*
X16090144Y68347926D01*
X16117030Y68356994D01*
X16117086Y68357006D01*
X16117145Y68357026D01*
X16143771Y68362780D01*
X16171833Y68368852D01*
X16171899Y68368858D01*
X16171951Y68368870D01*
X16199654Y68371667D01*
X16227618Y68374497D01*
X16227691Y68374498D01*
X16227738Y68374503D01*
X16227879Y68374501D01*
X16255661Y68374967D01*
X17083620Y68365593D01*
X17083882Y68365582D01*
X17084156Y68365587D01*
X17840645Y68356212D01*
X17840913Y68356201D01*
X17841174Y68356205D01*
X18538142Y68346830D01*
X18538397Y68346819D01*
X18538660Y68346823D01*
X19185737Y68337448D01*
X19185997Y68337436D01*
X19186240Y68337440D01*
X19791295Y68328065D01*
X19791542Y68328054D01*
X19791777Y68328057D01*
X20361323Y68318682D01*
X20361539Y68318672D01*
X20361781Y68318675D01*
X20901284Y68309300D01*
X20901505Y68309289D01*
X20901713Y68309292D01*
X21415814Y68299917D01*
X21416006Y68299908D01*
X21416210Y68299910D01*
X21908902Y68290535D01*
X21909083Y68290526D01*
X21909261Y68290528D01*
X22384028Y68281153D01*
X22384198Y68281144D01*
X22384346Y68281146D01*
X22844261Y68271771D01*
X22844405Y68271764D01*
X22844536Y68271765D01*
X23292360Y68262390D01*
X23292460Y68262385D01*
X23292589Y68262386D01*
X23730832Y68253011D01*
X23730925Y68253006D01*
X23731013Y68253007D01*
X24162002Y68243632D01*
X24162070Y68243628D01*
X24162131Y68243629D01*
X24588052Y68234254D01*
X24588096Y68234251D01*
X24588129Y68234252D01*
X25011080Y68224877D01*
X25024290Y68224213D01*
X25028035Y68224213D01*
X25031052Y68223873D01*
X25039091Y68223469D01*
X25061380Y68220456D01*
X25083753Y68217936D01*
X25089160Y68216701D01*
X25094656Y68215959D01*
X25116486Y68210464D01*
X25138418Y68205459D01*
X25143649Y68203628D01*
X25149031Y68202274D01*
X25170105Y68194370D01*
X25191342Y68186940D01*
X25196340Y68184532D01*
X25201532Y68182586D01*
X25221582Y68172376D01*
X25241859Y68162612D01*
X25246554Y68159661D01*
X25251497Y68157145D01*
X25270286Y68144749D01*
X25289336Y68132780D01*
X25293670Y68129323D01*
X25298302Y68126268D01*
X25315583Y68111848D01*
X25333173Y68097821D01*
X25337095Y68093898D01*
X25341353Y68090346D01*
X25356905Y68074088D01*
X25372821Y68058173D01*
X25376279Y68053836D01*
X25380113Y68049829D01*
X25393750Y68031928D01*
X25407780Y68014336D01*
X25410730Y68009640D01*
X25414092Y68005228D01*
X25425638Y67985915D01*
X25437612Y67966859D01*
X25440019Y67961860D01*
X25442864Y67957102D01*
X25452173Y67936621D01*
X25461940Y67916342D01*
X25463771Y67911107D01*
X25466067Y67906058D01*
X25473031Y67884644D01*
X25480459Y67863418D01*
X25481691Y67858016D01*
X25483409Y67852737D01*
X25487932Y67830675D01*
X25492936Y67808753D01*
X25493556Y67803244D01*
X25494671Y67797809D01*
X25496695Y67775381D01*
X25499213Y67753035D01*
X25499438Y67744991D01*
X25499712Y67741965D01*
X25499628Y67738218D01*
X25500000Y67725000D01*
X25500000Y66524999D01*
X25499213Y66496964D01*
X25492936Y66441246D01*
X25480459Y66386581D01*
X25461940Y66333657D01*
X25437612Y66283140D01*
X25407780Y66235663D01*
X25372821Y66191826D01*
X25333173Y66152178D01*
X25289336Y66117219D01*
X25241859Y66087387D01*
X25191342Y66063059D01*
X25138418Y66044540D01*
X25083753Y66032063D01*
X25028035Y66025786D01*
X25000000Y66024999D01*
X24971965Y66025786D01*
X24916247Y66032063D01*
X24861582Y66044540D01*
X24808658Y66063059D01*
X24758141Y66087387D01*
X24710664Y66117219D01*
X24666827Y66152178D01*
X24627179Y66191826D01*
X24592220Y66235663D01*
X24562388Y66283140D01*
X24538060Y66333657D01*
X24519541Y66386581D01*
X24507064Y66441246D01*
X24500787Y66496964D01*
X24500000Y66524999D01*
X24500000Y67235949D01*
X24140260Y67243868D01*
X24140254Y67243868D01*
X23709448Y67253239D01*
X23709445Y67253239D01*
X23271201Y67262614D01*
X23271174Y67262615D01*
X22823890Y67271979D01*
X22823881Y67271979D01*
X22364303Y67281347D01*
X22364285Y67281347D01*
X21889781Y67290716D01*
X21397186Y67300090D01*
X21397179Y67300090D01*
X20883916Y67309450D01*
X20883909Y67309450D01*
X20344407Y67318825D01*
X20344389Y67318825D01*
X19775804Y67328185D01*
X19775802Y67328185D01*
X19171259Y67337552D01*
X19171251Y67337552D01*
X18524206Y67346926D01*
X17828144Y67356289D01*
X17071764Y67365663D01*
X17071763Y67365663D01*
X16744189Y67369371D01*
X16740592Y67058254D01*
X16740582Y67057978D01*
X16740585Y67057723D01*
X16731210Y66315016D01*
X16731200Y66314752D01*
X16731203Y66314495D01*
X16721828Y65628469D01*
X16721818Y65628219D01*
X16721821Y65627963D01*
X16712446Y64989280D01*
X16712436Y64989043D01*
X16712439Y64988794D01*
X16703064Y64389818D01*
X16703054Y64389577D01*
X16703056Y64389357D01*
X16693681Y63823752D01*
X16693672Y63823542D01*
X16693674Y63823320D01*
X16684299Y63285761D01*
X16684291Y63285563D01*
X16684292Y63285362D01*
X16674917Y62771317D01*
X16674909Y62771131D01*
X16674910Y62770956D01*
X16665535Y62276510D01*
X16665528Y62276353D01*
X16665529Y62276190D01*
X16656154Y61797923D01*
X16656147Y61797775D01*
X16656148Y61797646D01*
X16646773Y61332516D01*
X16646769Y61332413D01*
X16646769Y61332286D01*
X16637394Y60877554D01*
X16637390Y60877459D01*
X16637390Y60877372D01*
X16628015Y60430530D01*
X16628012Y60430460D01*
X16628012Y60430399D01*
X16618637Y59989106D01*
X16618635Y59989060D01*
X16618635Y59989025D01*
X16609372Y59556285D01*
X16600000Y44874681D01*
X16599851Y44869479D01*
X16599885Y44864292D01*
X16590512Y44426693D01*
X16590512Y44426678D01*
X16581140Y43986084D01*
X16581140Y43986071D01*
X16571765Y43540129D01*
X16571765Y43540109D01*
X16562398Y43087122D01*
X16562398Y43087106D01*
X16553028Y42624074D01*
X16543659Y42148608D01*
X16534284Y41657506D01*
X16524922Y41148620D01*
X16515554Y40617308D01*
X16506187Y40059804D01*
X16506187Y40059784D01*
X16496819Y39471244D01*
X16487451Y38846037D01*
X16478084Y38177418D01*
X16478083Y38177418D01*
X16468708Y37456741D01*
X16459345Y36675580D01*
X16455445Y36319385D01*
X16794648Y36315594D01*
X16794905Y36315584D01*
X16795162Y36315588D01*
X17563570Y36306213D01*
X17563833Y36306203D01*
X17564074Y36306206D01*
X18273808Y36296831D01*
X18274040Y36296822D01*
X18274297Y36296825D01*
X18935020Y36287451D01*
X18935258Y36287441D01*
X18935492Y36287444D01*
X19555108Y36278068D01*
X19555332Y36278059D01*
X19555554Y36278061D01*
X20140619Y36268686D01*
X20140831Y36268677D01*
X20141037Y36268679D01*
X20697060Y36259304D01*
X20697259Y36259296D01*
X20697446Y36259297D01*
X21229118Y36249922D01*
X21229288Y36249915D01*
X21229466Y36249916D01*
X21740833Y36240542D01*
X21740993Y36240535D01*
X21741146Y36240536D01*
X22235751Y36231160D01*
X22235883Y36231154D01*
X22236018Y36231155D01*
X22717005Y36221780D01*
X22717110Y36221776D01*
X22717229Y36221776D01*
X23187433Y36212401D01*
X23187530Y36212397D01*
X23187610Y36212397D01*
X23649625Y36203022D01*
X23649696Y36203019D01*
X23649752Y36203019D01*
X24105997Y36193646D01*
X24106044Y36193644D01*
X24106078Y36193644D01*
X24558846Y36184268D01*
X24558868Y36184267D01*
X24558874Y36184267D01*
X25010338Y36174893D01*
X25010359Y36174893D01*
X25462785Y36165518D01*
X25462800Y36165518D01*
X25918115Y36156147D01*
X25918134Y36156147D01*
X26379030Y36146773D01*
X26379039Y36146773D01*
X26847455Y36137400D01*
X26847461Y36137400D01*
X27325779Y36128034D01*
X27817075Y36118665D01*
X27817088Y36118665D01*
X28324501Y36109291D01*
X28850730Y36099922D01*
X28850739Y36099922D01*
X29399307Y36090559D01*
X29399313Y36090559D01*
X29975313Y36081191D01*
X29975315Y36081191D01*
X30583781Y36071816D01*
X30583799Y36071816D01*
X31229188Y36062454D01*
X31229194Y36062454D01*
X31920354Y36053080D01*
X31920357Y36053080D01*
X32663996Y36043714D01*
X33471143Y36034347D01*
X33471150Y36034347D01*
X33855433Y36030273D01*
X33859404Y36397563D01*
X33859413Y36397819D01*
X33859410Y36398059D01*
X33868785Y37192168D01*
X33868794Y37192413D01*
X33868791Y37192657D01*
X33878166Y37926100D01*
X33878175Y37926332D01*
X33878172Y37926574D01*
X33887547Y38609338D01*
X33887556Y38609576D01*
X33887554Y38609795D01*
X33896929Y39250051D01*
X33896937Y39250258D01*
X33896935Y39250483D01*
X33906310Y39855008D01*
X33906319Y39855221D01*
X33906317Y39855413D01*
X33915692Y40429900D01*
X33915700Y40430083D01*
X33915698Y40430274D01*
X33925073Y40979570D01*
X33925080Y40979742D01*
X33925079Y40979910D01*
X33934454Y41508198D01*
X33934460Y41508341D01*
X33934459Y41508500D01*
X33943834Y42019443D01*
X33943840Y42019576D01*
X33943839Y42019703D01*
X33953214Y42516548D01*
X33953218Y42516655D01*
X33953218Y42516766D01*
X33962593Y43002441D01*
X33962596Y43002521D01*
X33962596Y43002613D01*
X33971971Y43479802D01*
X33971974Y43479874D01*
X33971974Y43479927D01*
X33981349Y43951125D01*
X33981350Y43951154D01*
X33981350Y43951202D01*
X33990628Y44413947D01*
X34000000Y59125319D01*
X34000139Y59130184D01*
X34000101Y59135032D01*
X34009474Y59602106D01*
X34009474Y59602129D01*
X34018849Y60072479D01*
X34018849Y60072488D01*
X34028222Y60548212D01*
X34028222Y60548216D01*
X34037594Y61031814D01*
X34046965Y61525850D01*
X34056335Y62033091D01*
X34056335Y62033095D01*
X34065705Y62556583D01*
X34075074Y63099718D01*
X34084443Y63666338D01*
X34084443Y63666341D01*
X34093812Y64260845D01*
X34093812Y64260851D01*
X34103174Y64887918D01*
X34112549Y65554894D01*
X34121918Y66267640D01*
X34131287Y67035264D01*
X34131287Y67035277D01*
X34140651Y67867872D01*
X34140651Y67867891D01*
X34144888Y68280261D01*
X33749511Y68284402D01*
X33749257Y68284411D01*
X33749030Y68284408D01*
X32929221Y68293783D01*
X32928995Y68293791D01*
X32928747Y68293788D01*
X32171596Y68303163D01*
X32171364Y68303172D01*
X32171135Y68303169D01*
X31466330Y68312544D01*
X31466110Y68312553D01*
X31465888Y68312550D01*
X30804991Y68321925D01*
X30804783Y68321933D01*
X30804571Y68321931D01*
X30180587Y68331306D01*
X30180391Y68331314D01*
X30180193Y68331312D01*
X29587244Y68340687D01*
X29587060Y68340695D01*
X29586881Y68340693D01*
X29019959Y68350068D01*
X29019786Y68350075D01*
X29019630Y68350074D01*
X28474419Y68359449D01*
X28474274Y68359455D01*
X28474126Y68359454D01*
X27946845Y68368829D01*
X27946710Y68368835D01*
X27946593Y68368834D01*
X27433889Y68378209D01*
X27433799Y68378213D01*
X27433678Y68378212D01*
X26932529Y68387587D01*
X26932430Y68387591D01*
X26932362Y68387591D01*
X26440001Y68396966D01*
X26439946Y68396968D01*
X26439879Y68396968D01*
X25953729Y68406343D01*
X25953699Y68406344D01*
X25953653Y68406344D01*
X25471267Y68415719D01*
X25471244Y68415720D01*
X25471238Y68415720D01*
X24990256Y68425095D01*
X24990243Y68425095D01*
X24508464Y68434468D01*
X24508437Y68434468D01*
X24023278Y68443843D01*
X24023274Y68443843D01*
X23532744Y68453213D01*
X23532743Y68453213D01*
X23033807Y68462588D01*
X23033785Y68462589D01*
X22524553Y68471955D01*
X22524532Y68471955D01*
X22001464Y68481325D01*
X22001462Y68481325D01*
X21461346Y68490700D01*
X21461338Y68490700D01*
X20901632Y68500064D01*
X20901625Y68500064D01*
X20317359Y68509433D01*
X19704280Y68518804D01*
X19057315Y68528173D01*
X18369864Y68537546D01*
X18369843Y68537546D01*
X17635523Y68546910D01*
X17635516Y68546910D01*
X16843714Y68556285D01*
X16843712Y68556285D01*
X15985212Y68565651D01*
X15544899Y68570040D01*
X15540599Y68146575D01*
X15540591Y68146340D01*
X15540594Y68146107D01*
X15531219Y67300597D01*
X15531211Y67300373D01*
X15531214Y67300138D01*
X15521839Y66519278D01*
X15521830Y66519047D01*
X15521833Y66518832D01*
X15512458Y65791985D01*
X15512450Y65791783D01*
X15512453Y65791556D01*
X15503078Y65110019D01*
X15503070Y65109811D01*
X15503072Y65109611D01*
X15493697Y64466168D01*
X15493689Y64465971D01*
X15493691Y64465786D01*
X15484316Y63854371D01*
X15484309Y63854204D01*
X15484311Y63854019D01*
X15474936Y63269472D01*
X15474929Y63269298D01*
X15474930Y63269152D01*
X15465555Y62707018D01*
X15465550Y62706890D01*
X15465551Y62706735D01*
X15456176Y62163116D01*
X15456170Y62162980D01*
X15456171Y62162871D01*
X15446796Y61634309D01*
X15446792Y61634218D01*
X15446793Y61634104D01*
X15437418Y61117483D01*
X15437415Y61117401D01*
X15437415Y61117321D01*
X15428040Y60609787D01*
X15428038Y60609731D01*
X15428038Y60609669D01*
X15418663Y60108563D01*
X15418661Y60108515D01*
X15418661Y60108489D01*
X15409373Y59615860D01*
X15400000Y44874682D01*
X15399870Y44870123D01*
X15399911Y44865563D01*
X15390537Y44368985D01*
X15381165Y43869124D01*
X15381164Y43869124D01*
X15371792Y43363526D01*
X15371792Y43363518D01*
X15362417Y42849410D01*
X15353049Y42324648D01*
X15343679Y41785725D01*
X15343679Y41785713D01*
X15334309Y41229563D01*
X15324939Y40652595D01*
X15315570Y40050744D01*
X15315570Y40050732D01*
X15306201Y39419307D01*
X15306201Y39419299D01*
X15296826Y38752454D01*
X15287462Y38045049D01*
X15287462Y38045037D01*
X15278092Y37288194D01*
X15268722Y36473135D01*
X15259352Y35588605D01*
X15259352Y35588599D01*
X15254817Y35120051D01*
X15706371Y35115601D01*
X15706604Y35115593D01*
X15706825Y35115596D01*
X16578035Y35106221D01*
X16578258Y35106213D01*
X16578481Y35106216D01*
X17383049Y35096841D01*
X17383262Y35096833D01*
X17383482Y35096836D01*
X18132372Y35087461D01*
X18132592Y35087453D01*
X18132788Y35087455D01*
X18834966Y35078080D01*
X18835156Y35078073D01*
X18835361Y35078075D01*
X19498265Y35068700D01*
X19498444Y35068693D01*
X19498636Y35068695D01*
X20128514Y35059320D01*
X20128700Y35059313D01*
X20128856Y35059314D01*
X20731028Y35049939D01*
X20731185Y35049933D01*
X20731339Y35049934D01*
X21310396Y35040559D01*
X21310525Y35040554D01*
X21310672Y35040555D01*
X21870628Y35031180D01*
X21870747Y35031175D01*
X21870867Y35031176D01*
X22415287Y35021801D01*
X22415396Y35021797D01*
X22415486Y35021797D01*
X22947580Y35012422D01*
X22947645Y35012420D01*
X22947737Y35012420D01*
X23470444Y35003045D01*
X23470501Y35003043D01*
X23470560Y35003043D01*
X23986619Y34993668D01*
X23986668Y34993666D01*
X23986691Y34993666D01*
X24498696Y34984291D01*
X24498701Y34984291D01*
X24498723Y34984291D01*
X25009181Y34974916D01*
X25009191Y34974916D01*
X25520544Y34965541D01*
X25520547Y34965541D01*
X26035153Y34956169D01*
X26035158Y34956169D01*
X26555707Y34946797D01*
X26555721Y34946797D01*
X27085002Y34937422D01*
X27085009Y34937422D01*
X27625244Y34928054D01*
X27625249Y34928054D01*
X28180312Y34918679D01*
X28180321Y34918679D01*
X28752541Y34909313D01*
X28752547Y34909313D01*
X29346667Y34899940D01*
X29966302Y34890568D01*
X29966305Y34890568D01*
X30616234Y34881198D01*
X30616240Y34881198D01*
X31301740Y34871834D01*
X31301760Y34871834D01*
X32030657Y34862459D01*
X32809326Y34853092D01*
X33647916Y34843724D01*
X33647920Y34843724D01*
X34558612Y34834349D01*
X34558618Y34834349D01*
X35054807Y34829682D01*
X35059398Y35309326D01*
X35059406Y35309539D01*
X35059402Y35309767D01*
X35068777Y36206678D01*
X35068785Y36206900D01*
X35068782Y36207111D01*
X35078157Y37035387D01*
X35078165Y37035599D01*
X35078162Y37035808D01*
X35087537Y37806739D01*
X35087545Y37806940D01*
X35087542Y37807143D01*
X35096917Y38529963D01*
X35096924Y38530153D01*
X35096922Y38530347D01*
X35106297Y39212710D01*
X35106304Y39212889D01*
X35106302Y39213071D01*
X35115677Y39861413D01*
X35115684Y39861581D01*
X35115682Y39861746D01*
X35125057Y40481543D01*
X35125063Y40481701D01*
X35125062Y40481845D01*
X35134437Y41077825D01*
X35134442Y41077954D01*
X35134441Y41078093D01*
X35143816Y41654387D01*
X35143821Y41654507D01*
X35143820Y41654619D01*
X35153195Y42214897D01*
X35153199Y42214989D01*
X35153198Y42215091D01*
X35162573Y42762656D01*
X35162576Y42762740D01*
X35162576Y42762810D01*
X35171951Y43300691D01*
X35171953Y43300748D01*
X35171953Y43300803D01*
X35181328Y43831815D01*
X35181329Y43831846D01*
X35181329Y43831885D01*
X35190630Y44354545D01*
X35200000Y52000613D01*
X35209375Y59651730D01*
X35209495Y59655847D01*
X35209453Y59659967D01*
X35218828Y60189554D01*
X35218829Y60189581D01*
X35228199Y60724956D01*
X35228199Y60724975D01*
X35237574Y61269430D01*
X35237574Y61269431D01*
X35246946Y61825380D01*
X35256317Y62396081D01*
X35265688Y62984958D01*
X35265688Y62984972D01*
X35275059Y63595820D01*
X35284429Y64232981D01*
X35293799Y64901388D01*
X35303169Y65606784D01*
X35312539Y66355935D01*
X35321909Y67156898D01*
X35321909Y67156916D01*
X35331275Y68018983D01*
X35340650Y68955375D01*
X35345446Y69479673D01*
X34837711Y69484397D01*
X34837499Y69484404D01*
X34837283Y69484401D01*
X33914672Y69493776D01*
X33914469Y69493783D01*
X33914251Y69493780D01*
X33062265Y69503155D01*
X33062054Y69503163D01*
X33061856Y69503160D01*
X32268883Y69512535D01*
X32268682Y69512542D01*
X32268489Y69512540D01*
X31525031Y69521915D01*
X31524841Y69521922D01*
X31524657Y69521920D01*
X30822834Y69531295D01*
X30822673Y69531301D01*
X30822483Y69531299D01*
X30155677Y69540674D01*
X30155508Y69540681D01*
X30155353Y69540679D01*
X29517930Y69550054D01*
X29517790Y69550059D01*
X29517636Y69550058D01*
X28904734Y69559433D01*
X28904586Y69559439D01*
X28904472Y69559438D01*
X28311841Y69568813D01*
X28311739Y69568817D01*
X28311615Y69568816D01*
X27735479Y69578191D01*
X27735386Y69578195D01*
X27735290Y69578194D01*
X27172252Y69587569D01*
X27172168Y69587572D01*
X27172101Y69587572D01*
X26619049Y69596947D01*
X26618991Y69596949D01*
X26618938Y69596949D01*
X26072974Y69606324D01*
X26072942Y69606325D01*
X26072905Y69606325D01*
X25531281Y69615700D01*
X25531275Y69615700D01*
X25531253Y69615700D01*
X24991320Y69625075D01*
X24975662Y69625787D01*
X24971965Y69625787D01*
X24969463Y69626068D01*
X24963303Y69626349D01*
X24939805Y69629410D01*
X24916247Y69632064D01*
X24912013Y69633030D01*
X24907702Y69633592D01*
X24884672Y69639270D01*
X24861582Y69644541D01*
X24857485Y69645974D01*
X24853262Y69647016D01*
X24831007Y69655239D01*
X24808658Y69663060D01*
X24804748Y69664942D01*
X24800667Y69666451D01*
X24779480Y69677111D01*
X24758141Y69687388D01*
X24754462Y69689699D01*
X24750580Y69691653D01*
X24730739Y69704606D01*
X24710664Y69717220D01*
X24707265Y69719930D01*
X24703628Y69722305D01*
X24685360Y69737399D01*
X24666827Y69752179D01*
X24663756Y69755250D01*
X24660405Y69758019D01*
X24643941Y69775065D01*
X24627179Y69791827D01*
X24624469Y69795225D01*
X24621451Y69798350D01*
X24606998Y69817133D01*
X24592220Y69835664D01*
X24589910Y69839341D01*
X24587258Y69842787D01*
X24574995Y69863077D01*
X24562388Y69883141D01*
X24560503Y69887056D01*
X24558255Y69890775D01*
X24548346Y69912300D01*
X24538060Y69933658D01*
X24536625Y69937759D01*
X24534808Y69941706D01*
X24527368Y69964215D01*
X24519541Y69986582D01*
X24518575Y69990815D01*
X24517210Y69994944D01*
X24512334Y70018158D01*
X24507064Y70041247D01*
X24506579Y70045560D01*
X24505684Y70049817D01*
X24503440Y70073418D01*
X24500787Y70096965D01*
X24500614Y70103135D01*
X24500376Y70105636D01*
X24500441Y70109325D01*
X24500000Y70125000D01*
X24500000Y71213878D01*
X24412236Y71210678D01*
X24118770Y71192830D01*
X23825841Y71167858D01*
X23533619Y71135779D01*
X23242230Y71096605D01*
X22951912Y71050369D01*
X22662771Y70997087D01*
X22375031Y70936799D01*
X22088811Y70869533D01*
X21804360Y70795345D01*
X21515924Y70712585D01*
X21488759Y70705610D01*
X21433471Y70696276D01*
X21377485Y70693193D01*
X21321506Y70696397D01*
X21266239Y70705849D01*
X21212375Y70721430D01*
X21160597Y70742943D01*
X21111552Y70770118D01*
X21065858Y70802613D01*
X21024089Y70840021D01*
X20986772Y70881869D01*
X20954375Y70927633D01*
X20927305Y70976737D01*
X20905905Y71028563D01*
X20890441Y71082458D01*
X20881107Y71137746D01*
X20878024Y71193732D01*
X20881228Y71249711D01*
X20890680Y71304978D01*
X20906261Y71358842D01*
X20927774Y71410620D01*
X20954949Y71459665D01*
X20987444Y71505359D01*
X21024852Y71547128D01*
X21066700Y71584445D01*
X21112464Y71616842D01*
X21161568Y71643912D01*
X21213394Y71665312D01*
X21240124Y71673801D01*
X21534394Y71758235D01*
X21540273Y71759744D01*
X21546109Y71761443D01*
X21842343Y71838704D01*
X21848265Y71840072D01*
X21854136Y71841627D01*
X22152161Y71911667D01*
X22158104Y71912888D01*
X22164017Y71914302D01*
X22463654Y71977082D01*
X22469633Y71978160D01*
X22475575Y71979429D01*
X22776649Y72034910D01*
X22782654Y72035842D01*
X22788622Y72036966D01*
X23090955Y72085116D01*
X23096977Y72085902D01*
X23102976Y72086881D01*
X23406390Y72127671D01*
X23412430Y72128310D01*
X23418448Y72129143D01*
X23722763Y72162550D01*
X23728811Y72163042D01*
X23734854Y72163729D01*
X24039890Y72189733D01*
X24045955Y72190078D01*
X24052008Y72190618D01*
X24357587Y72209203D01*
X24363661Y72209401D01*
X24369721Y72209793D01*
X24675661Y72220948D01*
X24681741Y72220998D01*
X24687804Y72221243D01*
X24993925Y72224963D01*
X25021967Y72224517D01*
G37*
%TD.AperFunction*%
%TD*%
D11*
%TO.P,J2,1*%
%TO.N,/+5V_ISO*%
X27500000Y8000000D03*
D12*
%TO.P,J2,2*%
%TO.N,/GND_ISO*%
X22500000Y8000000D03*
%TD*%
D13*
%TO.P,T1,1*%
%TO.N,/VIN*%
X28621977Y71193193D03*
%TO.P,T1,2*%
%TO.N,/SW*%
X21378023Y71193193D03*
%TO.P,T1,3*%
%TO.N,/GND_ISO*%
X23169595Y32408661D03*
%TO.P,T1,4*%
%TO.N,/SEC_A*%
X26075000Y37553499D03*
%TO.P,T1,5*%
%TO.N,unconnected-(T1-P_MID-Pad5)*%
X25000000Y66525000D03*
%TD*%
D11*
%TO.P,J1,1*%
%TO.N,/VIN_RAW*%
X22500000Y97000000D03*
D12*
%TO.P,J1,2*%
%TO.N,/PGND*%
X27500000Y97000000D03*
%TD*%
D14*
%TO.N,/GND_ISO*%
X22269595Y30500000D03*
D15*
X12000000Y29000000D03*
X19000000Y29000000D03*
X36000000Y14000000D03*
X12000000Y22000000D03*
X16000000Y7000000D03*
X24000000Y22000000D03*
D14*
X32975000Y25880000D03*
D15*
X15000000Y29000000D03*
D14*
X34000000Y17037500D03*
D15*
X36000000Y29000000D03*
D14*
X13200000Y18500000D03*
D16*
X33200000Y23000000D03*
D15*
X17000000Y25000000D03*
X25000000Y11000000D03*
X32000000Y14000000D03*
X20500000Y14200000D03*
D14*
X23200000Y18500000D03*
D15*
X17000000Y14000000D03*
X32000000Y7000000D03*
D14*
X23169595Y30500000D03*
D15*
X25000000Y5500000D03*
X37500000Y22000000D03*
X12000000Y14000000D03*
X37000000Y9000000D03*
X36000000Y25000000D03*
%TO.N,/PGND*%
X39200000Y88000000D03*
X17300000Y77450000D03*
X9500000Y97000000D03*
X15700000Y78550000D03*
X37000000Y74000000D03*
X11500000Y83500000D03*
X24000000Y84500000D03*
X40000000Y83000000D03*
X22475000Y79200000D03*
X38000000Y83000000D03*
X39000000Y79000000D03*
X9500000Y73000000D03*
X17300000Y78550000D03*
X9025000Y76365000D03*
X25000000Y87000000D03*
X29000000Y79475000D03*
X39500000Y95000000D03*
X10000000Y85000000D03*
D16*
X17400000Y74350000D03*
D15*
X28000000Y83000000D03*
X9500000Y82000000D03*
X13898500Y76095000D03*
X39000000Y74000000D03*
X15700000Y77450000D03*
X9500000Y94000000D03*
X10500000Y73600000D03*
X19325000Y86000000D03*
X10725000Y78800000D03*
X16000000Y74500000D03*
D14*
%TO.N,/SEC_A*%
X26450000Y29862000D03*
X25550000Y29862000D03*
D17*
%TO.N,/VIN*%
X13000000Y90150000D03*
X29000000Y76525000D03*
D15*
X14675000Y86000000D03*
D17*
X11975000Y76365000D03*
%TD*%
%TA.AperFunction,Conductor*%
%TO.N,/PGND*%
G36*
X40959191Y98981093D02*
G01*
X40995155Y98931593D01*
X41000000Y98901000D01*
X41000000Y72599000D01*
X40981093Y72540809D01*
X40931593Y72504845D01*
X40901000Y72500000D01*
X8599000Y72500000D01*
X8540809Y72518907D01*
X8504845Y72568407D01*
X8500000Y72599000D01*
X8500000Y76429069D01*
X11324500Y76429069D01*
X11324500Y76300931D01*
X11341220Y76216875D01*
X11349499Y76175258D01*
X11349500Y76175253D01*
X11398534Y76056875D01*
X11398538Y76056867D01*
X11423354Y76019728D01*
X11469724Y75950331D01*
X11560331Y75859724D01*
X11623848Y75817283D01*
X11666866Y75788539D01*
X11666870Y75788537D01*
X11666873Y75788535D01*
X11785256Y75739499D01*
X11910931Y75714500D01*
X11910932Y75714500D01*
X12039068Y75714500D01*
X12039069Y75714500D01*
X12164744Y75739499D01*
X12283127Y75788535D01*
X12389669Y75859724D01*
X12480276Y75950331D01*
X12551465Y76056873D01*
X12600501Y76175256D01*
X12625500Y76300931D01*
X12625500Y76429069D01*
X12600501Y76554744D01*
X12586283Y76589070D01*
X28349500Y76589070D01*
X28349500Y76460931D01*
X28374499Y76335258D01*
X28374500Y76335253D01*
X28423534Y76216875D01*
X28423538Y76216867D01*
X28466365Y76152774D01*
X28494724Y76110331D01*
X28585331Y76019724D01*
X28648848Y75977283D01*
X28691866Y75948539D01*
X28691870Y75948537D01*
X28691873Y75948535D01*
X28810256Y75899499D01*
X28935931Y75874500D01*
X28935932Y75874500D01*
X29064068Y75874500D01*
X29064069Y75874500D01*
X29189744Y75899499D01*
X29308127Y75948535D01*
X29414669Y76019724D01*
X29505276Y76110331D01*
X29576465Y76216873D01*
X29625501Y76335256D01*
X29650500Y76460931D01*
X29650500Y76589069D01*
X29625501Y76714744D01*
X29576465Y76833127D01*
X29576463Y76833130D01*
X29576461Y76833134D01*
X29547717Y76876152D01*
X29505276Y76939669D01*
X29414669Y77030276D01*
X29372226Y77058635D01*
X29308133Y77101462D01*
X29308125Y77101466D01*
X29189747Y77150500D01*
X29189745Y77150501D01*
X29189744Y77150501D01*
X29064069Y77175500D01*
X28935931Y77175500D01*
X28935930Y77175500D01*
X28873093Y77163001D01*
X28810256Y77150501D01*
X28810255Y77150501D01*
X28810252Y77150500D01*
X28691874Y77101466D01*
X28691866Y77101462D01*
X28585331Y77030276D01*
X28585327Y77030273D01*
X28494727Y76939673D01*
X28494724Y76939669D01*
X28423538Y76833134D01*
X28423534Y76833126D01*
X28374500Y76714748D01*
X28374499Y76714745D01*
X28374499Y76714744D01*
X28361999Y76651907D01*
X28349500Y76589070D01*
X12586283Y76589070D01*
X12551465Y76673127D01*
X12551463Y76673130D01*
X12551461Y76673134D01*
X12522717Y76716152D01*
X12480276Y76779669D01*
X12389669Y76870276D01*
X12347226Y76898635D01*
X12283133Y76941462D01*
X12283125Y76941466D01*
X12164747Y76990500D01*
X12164745Y76990501D01*
X12164744Y76990501D01*
X12039069Y77015500D01*
X11910931Y77015500D01*
X11910930Y77015500D01*
X11848093Y77003001D01*
X11785256Y76990501D01*
X11785255Y76990501D01*
X11785252Y76990500D01*
X11666874Y76941466D01*
X11666866Y76941462D01*
X11560331Y76870276D01*
X11560327Y76870273D01*
X11469727Y76779673D01*
X11469724Y76779669D01*
X11398538Y76673134D01*
X11398534Y76673126D01*
X11349500Y76554748D01*
X11349499Y76554745D01*
X11349499Y76554744D01*
X11324500Y76429069D01*
X8500000Y76429069D01*
X8500000Y86072475D01*
X14124500Y86072475D01*
X14124500Y85927526D01*
X14162017Y85787511D01*
X14234487Y85661990D01*
X14234489Y85661988D01*
X14234491Y85661985D01*
X14336985Y85559491D01*
X14336987Y85559490D01*
X14336989Y85559488D01*
X14462511Y85487018D01*
X14462512Y85487018D01*
X14462515Y85487016D01*
X14602525Y85449500D01*
X14602526Y85449500D01*
X14747474Y85449500D01*
X14747475Y85449500D01*
X14887485Y85487016D01*
X14887487Y85487018D01*
X14887489Y85487018D01*
X15013010Y85559488D01*
X15013010Y85559489D01*
X15013015Y85559491D01*
X15115509Y85661985D01*
X15187984Y85787515D01*
X15225500Y85927525D01*
X15225500Y86072475D01*
X15187984Y86212485D01*
X15187982Y86212488D01*
X15187982Y86212490D01*
X15115512Y86338011D01*
X15115510Y86338013D01*
X15115509Y86338015D01*
X15013015Y86440509D01*
X15013012Y86440511D01*
X15013010Y86440513D01*
X14887488Y86512983D01*
X14887489Y86512983D01*
X14857896Y86520913D01*
X14747475Y86550500D01*
X14602525Y86550500D01*
X14540790Y86533959D01*
X14462510Y86512983D01*
X14336989Y86440513D01*
X14234487Y86338011D01*
X14162017Y86212490D01*
X14124500Y86072475D01*
X8500000Y86072475D01*
X8500000Y90214070D01*
X12349500Y90214070D01*
X12349500Y90085931D01*
X12374499Y89960258D01*
X12374500Y89960253D01*
X12423534Y89841875D01*
X12423538Y89841867D01*
X12466365Y89777774D01*
X12494724Y89735331D01*
X12585331Y89644724D01*
X12648848Y89602283D01*
X12691866Y89573539D01*
X12691870Y89573537D01*
X12691873Y89573535D01*
X12810256Y89524499D01*
X12935931Y89499500D01*
X12935932Y89499500D01*
X13064068Y89499500D01*
X13064069Y89499500D01*
X13189744Y89524499D01*
X13308127Y89573535D01*
X13414669Y89644724D01*
X13505276Y89735331D01*
X13576465Y89841873D01*
X13625501Y89960256D01*
X13650500Y90085931D01*
X13650500Y90214069D01*
X13625501Y90339744D01*
X13576465Y90458127D01*
X13576463Y90458130D01*
X13576461Y90458134D01*
X13547717Y90501152D01*
X13505276Y90564669D01*
X13414669Y90655276D01*
X13372226Y90683635D01*
X13308133Y90726462D01*
X13308125Y90726466D01*
X13189747Y90775500D01*
X13189745Y90775501D01*
X13189744Y90775501D01*
X13064069Y90800500D01*
X12935931Y90800500D01*
X12935930Y90800500D01*
X12873093Y90788001D01*
X12810256Y90775501D01*
X12810255Y90775501D01*
X12810252Y90775500D01*
X12691874Y90726466D01*
X12691866Y90726462D01*
X12585331Y90655276D01*
X12585327Y90655273D01*
X12494727Y90564673D01*
X12494724Y90564669D01*
X12423538Y90458134D01*
X12423534Y90458126D01*
X12374500Y90339748D01*
X12374499Y90339743D01*
X12349500Y90214070D01*
X8500000Y90214070D01*
X8500000Y98224673D01*
X21049500Y98224673D01*
X21049500Y95775328D01*
X21049501Y95775316D01*
X21064033Y95702264D01*
X21064035Y95702258D01*
X21119397Y95619401D01*
X21119399Y95619399D01*
X21202260Y95564034D01*
X21257808Y95552985D01*
X21275315Y95549502D01*
X21275320Y95549502D01*
X21275326Y95549500D01*
X21275327Y95549500D01*
X23724673Y95549500D01*
X23724674Y95549500D01*
X23797740Y95564034D01*
X23880601Y95619399D01*
X23935966Y95702260D01*
X23950500Y95775326D01*
X23950500Y97118057D01*
X26000000Y97118057D01*
X26000000Y96881944D01*
X26036934Y96648748D01*
X26036935Y96648744D01*
X26109892Y96424207D01*
X26109894Y96424204D01*
X26217084Y96213831D01*
X26277339Y96130895D01*
X26898957Y96752514D01*
X26923978Y96692110D01*
X26995112Y96585649D01*
X27085649Y96495112D01*
X27192110Y96423978D01*
X27252511Y96398959D01*
X26630893Y95777341D01*
X26713825Y95717087D01*
X26713829Y95717085D01*
X26924203Y95609895D01*
X26924206Y95609893D01*
X27148743Y95536936D01*
X27148747Y95536935D01*
X27381944Y95500000D01*
X27618056Y95500000D01*
X27851252Y95536935D01*
X27851256Y95536936D01*
X28075793Y95609893D01*
X28075796Y95609895D01*
X28286170Y95717085D01*
X28286176Y95717089D01*
X28369105Y95777341D01*
X28369105Y95777342D01*
X27747488Y96398959D01*
X27807890Y96423978D01*
X27914351Y96495112D01*
X28004888Y96585649D01*
X28076022Y96692110D01*
X28101041Y96752512D01*
X28722658Y96130895D01*
X28722659Y96130895D01*
X28782911Y96213824D01*
X28782915Y96213830D01*
X28890105Y96424204D01*
X28890107Y96424207D01*
X28963064Y96648744D01*
X28963065Y96648748D01*
X29000000Y96881944D01*
X29000000Y97118057D01*
X28963065Y97351253D01*
X28963064Y97351257D01*
X28890107Y97575794D01*
X28890105Y97575797D01*
X28782915Y97786171D01*
X28782913Y97786175D01*
X28722659Y97869107D01*
X28101041Y97247489D01*
X28076022Y97307890D01*
X28004888Y97414351D01*
X27914351Y97504888D01*
X27807890Y97576022D01*
X27747486Y97601043D01*
X28369105Y98222661D01*
X28286169Y98282916D01*
X28075796Y98390106D01*
X28075793Y98390108D01*
X27851256Y98463065D01*
X27851252Y98463066D01*
X27618056Y98500000D01*
X27381944Y98500000D01*
X27148747Y98463066D01*
X27148743Y98463065D01*
X26924206Y98390108D01*
X26924203Y98390106D01*
X26713823Y98282912D01*
X26630893Y98222661D01*
X27252512Y97601042D01*
X27192110Y97576022D01*
X27085649Y97504888D01*
X26995112Y97414351D01*
X26923978Y97307890D01*
X26898958Y97247488D01*
X26277339Y97869107D01*
X26217088Y97786177D01*
X26109894Y97575797D01*
X26109892Y97575794D01*
X26036935Y97351257D01*
X26036934Y97351253D01*
X26000000Y97118057D01*
X23950500Y97118057D01*
X23950500Y98224674D01*
X23935966Y98297740D01*
X23880601Y98380601D01*
X23880599Y98380603D01*
X23797742Y98435965D01*
X23797740Y98435966D01*
X23797737Y98435967D01*
X23797736Y98435967D01*
X23724684Y98450499D01*
X23724674Y98450500D01*
X21275326Y98450500D01*
X21275325Y98450500D01*
X21275315Y98450499D01*
X21202263Y98435967D01*
X21202257Y98435965D01*
X21119400Y98380603D01*
X21119397Y98380600D01*
X21064035Y98297743D01*
X21064033Y98297737D01*
X21049501Y98224685D01*
X21049500Y98224673D01*
X8500000Y98224673D01*
X8500000Y98901000D01*
X8518907Y98959191D01*
X8568407Y98995155D01*
X8599000Y99000000D01*
X40901000Y99000000D01*
X40959191Y98981093D01*
G37*
%TD.AperFunction*%
%TD*%
%TA.AperFunction,Conductor*%
%TO.N,/GND_ISO*%
G36*
X38959191Y30981093D02*
G01*
X38995155Y30931593D01*
X39000000Y30901000D01*
X39000000Y5099000D01*
X38981093Y5040809D01*
X38931593Y5004845D01*
X38901000Y5000000D01*
X11099000Y5000000D01*
X11040809Y5018907D01*
X11004845Y5068407D01*
X11000000Y5099000D01*
X11000000Y8118057D01*
X21000000Y8118057D01*
X21000000Y7881944D01*
X21036934Y7648748D01*
X21036935Y7648744D01*
X21109892Y7424207D01*
X21109894Y7424204D01*
X21217084Y7213831D01*
X21277339Y7130895D01*
X21898957Y7752514D01*
X21923978Y7692110D01*
X21995112Y7585649D01*
X22085649Y7495112D01*
X22192110Y7423978D01*
X22252511Y7398959D01*
X21630893Y6777341D01*
X21713825Y6717087D01*
X21713829Y6717085D01*
X21924203Y6609895D01*
X21924206Y6609893D01*
X22148743Y6536936D01*
X22148747Y6536935D01*
X22381944Y6500000D01*
X22618056Y6500000D01*
X22851252Y6536935D01*
X22851256Y6536936D01*
X23075793Y6609893D01*
X23075796Y6609895D01*
X23286170Y6717085D01*
X23286176Y6717089D01*
X23369105Y6777341D01*
X23369105Y6777342D01*
X22747488Y7398959D01*
X22807890Y7423978D01*
X22914351Y7495112D01*
X23004888Y7585649D01*
X23076022Y7692110D01*
X23101041Y7752512D01*
X23722658Y7130895D01*
X23722659Y7130895D01*
X23782911Y7213824D01*
X23782915Y7213830D01*
X23890105Y7424204D01*
X23890107Y7424207D01*
X23963064Y7648744D01*
X23963065Y7648748D01*
X24000000Y7881944D01*
X24000000Y8118057D01*
X23963065Y8351253D01*
X23963064Y8351257D01*
X23890107Y8575794D01*
X23890105Y8575797D01*
X23782915Y8786171D01*
X23782913Y8786175D01*
X23722659Y8869107D01*
X23101041Y8247489D01*
X23076022Y8307890D01*
X23004888Y8414351D01*
X22914351Y8504888D01*
X22807890Y8576022D01*
X22747486Y8601043D01*
X23369105Y9222661D01*
X23366336Y9224673D01*
X26049500Y9224673D01*
X26049500Y6775328D01*
X26049501Y6775316D01*
X26064033Y6702264D01*
X26064035Y6702258D01*
X26119397Y6619401D01*
X26119399Y6619399D01*
X26202260Y6564034D01*
X26257808Y6552985D01*
X26275315Y6549502D01*
X26275320Y6549502D01*
X26275326Y6549500D01*
X26275327Y6549500D01*
X28724673Y6549500D01*
X28724674Y6549500D01*
X28797740Y6564034D01*
X28880601Y6619399D01*
X28935966Y6702260D01*
X28950500Y6775326D01*
X28950500Y9224674D01*
X28935966Y9297740D01*
X28880601Y9380601D01*
X28880599Y9380603D01*
X28797742Y9435965D01*
X28797740Y9435966D01*
X28797737Y9435967D01*
X28797736Y9435967D01*
X28724684Y9450499D01*
X28724674Y9450500D01*
X26275326Y9450500D01*
X26275325Y9450500D01*
X26275315Y9450499D01*
X26202263Y9435967D01*
X26202257Y9435965D01*
X26119400Y9380603D01*
X26119397Y9380600D01*
X26064035Y9297743D01*
X26064033Y9297737D01*
X26049501Y9224685D01*
X26049500Y9224673D01*
X23366336Y9224673D01*
X23286169Y9282916D01*
X23075796Y9390106D01*
X23075793Y9390108D01*
X22851256Y9463065D01*
X22851252Y9463066D01*
X22618056Y9500000D01*
X22381944Y9500000D01*
X22148747Y9463066D01*
X22148743Y9463065D01*
X21924206Y9390108D01*
X21924203Y9390106D01*
X21713823Y9282912D01*
X21630893Y9222661D01*
X22252512Y8601042D01*
X22192110Y8576022D01*
X22085649Y8504888D01*
X21995112Y8414351D01*
X21923978Y8307890D01*
X21898958Y8247488D01*
X21277339Y8869107D01*
X21217088Y8786177D01*
X21109894Y8575797D01*
X21109892Y8575794D01*
X21036935Y8351257D01*
X21036934Y8351253D01*
X21000000Y8118057D01*
X11000000Y8118057D01*
X11000000Y29930996D01*
X24849500Y29930996D01*
X24849500Y29793005D01*
X24876420Y29657673D01*
X24876420Y29657671D01*
X24929222Y29530194D01*
X24929228Y29530183D01*
X25005885Y29415459D01*
X25103458Y29317886D01*
X25218182Y29241229D01*
X25218193Y29241223D01*
X25265283Y29221718D01*
X25345672Y29188420D01*
X25481007Y29161500D01*
X25481008Y29161500D01*
X25618992Y29161500D01*
X25618993Y29161500D01*
X25754328Y29188420D01*
X25881811Y29241225D01*
X25945000Y29283447D01*
X26003885Y29300055D01*
X26054999Y29283448D01*
X26105630Y29249617D01*
X26118187Y29241226D01*
X26118193Y29241223D01*
X26165283Y29221718D01*
X26245672Y29188420D01*
X26381007Y29161500D01*
X26381008Y29161500D01*
X26518992Y29161500D01*
X26518993Y29161500D01*
X26654328Y29188420D01*
X26781811Y29241225D01*
X26896542Y29317886D01*
X26994114Y29415458D01*
X27070775Y29530189D01*
X27123580Y29657672D01*
X27150500Y29793007D01*
X27150500Y29930993D01*
X27123580Y30066328D01*
X27070775Y30193811D01*
X27070774Y30193813D01*
X27070771Y30193818D01*
X26994114Y30308542D01*
X26896541Y30406115D01*
X26781817Y30482772D01*
X26781806Y30482778D01*
X26654328Y30535580D01*
X26518995Y30562500D01*
X26518993Y30562500D01*
X26381007Y30562500D01*
X26381004Y30562500D01*
X26245672Y30535580D01*
X26245670Y30535580D01*
X26118193Y30482778D01*
X26118181Y30482772D01*
X26055002Y30440555D01*
X25996114Y30423946D01*
X25944998Y30440555D01*
X25881818Y30482772D01*
X25881806Y30482778D01*
X25754328Y30535580D01*
X25618995Y30562500D01*
X25618993Y30562500D01*
X25481007Y30562500D01*
X25481004Y30562500D01*
X25345672Y30535580D01*
X25345670Y30535580D01*
X25218193Y30482778D01*
X25218182Y30482772D01*
X25103458Y30406115D01*
X25005885Y30308542D01*
X24929228Y30193818D01*
X24929222Y30193807D01*
X24876420Y30066330D01*
X24876420Y30066328D01*
X24849500Y29930996D01*
X11000000Y29930996D01*
X11000000Y30901000D01*
X11018907Y30959191D01*
X11068407Y30995155D01*
X11099000Y31000000D01*
X38901000Y31000000D01*
X38959191Y30981093D01*
G37*
%TD.AperFunction*%
%TD*%
M02*
