%TF.GenerationSoftware,KiCad,Pcbnew,10.0.6*%
%TF.CreationDate,2026-09-29T19:19:49-04:00*%
%TF.ProjectId,PS-FLYBACK-5W,50532d46-4c59-4424-9143-4b2d35572e6b,A1-development*%
%TF.SameCoordinates,Original*%
%TF.FileFunction,Soldermask,Top*%
%TF.FilePolarity,Negative*%
%FSLAX46Y46*%
G04 Gerber Fmt 4.6, Leading zero omitted, Abs format (unit mm)*
G04 Created by KiCad (PCBNEW 10.0.6) date 2026-09-29 19:19:49*
%MOMM*%
%LPD*%
G01*
G04 APERTURE LIST*
G04 Aperture macros list*
%AMRoundRect*
0 Rectangle with rounded corners*
0 $1 Rounding radius*
0 $2 $3 $4 $5 $6 $7 $8 $9 X,Y pos of 4 corners*
0 Add a 4 corners polygon primitive as box body*
4,1,4,$2,$3,$4,$5,$6,$7,$8,$9,$2,$3,0*
0 Add four circle primitives for the rounded corners*
1,1,$1+$1,$2,$3*
1,1,$1+$1,$4,$5*
1,1,$1+$1,$6,$7*
1,1,$1+$1,$8,$9*
0 Add four rect primitives between the rounded corners*
20,1,$1+$1,$2,$3,$4,$5,0*
20,1,$1+$1,$4,$5,$6,$7,0*
20,1,$1+$1,$6,$7,$8,$9,0*
20,1,$1+$1,$8,$9,$2,$3,0*%
G04 Aperture macros list end*
%ADD10C,0.000000*%
%ADD11R,2.400000X2.400000*%
%ADD12C,2.400000*%
%ADD13R,3.500000X1.600000*%
%ADD14RoundRect,0.200000X-0.200000X-0.275000X0.200000X-0.275000X0.200000X0.275000X-0.200000X0.275000X0*%
%ADD15RoundRect,0.250000X-1.950000X-1.000000X1.950000X-1.000000X1.950000X1.000000X-1.950000X1.000000X0*%
%ADD16R,3.360000X4.860000*%
%ADD17R,1.390000X1.400000*%
%ADD18RoundRect,0.250000X-0.362500X-1.425000X0.362500X-1.425000X0.362500X1.425000X-0.362500X1.425000X0*%
%ADD19RoundRect,0.250000X-0.325000X-1.100000X0.325000X-1.100000X0.325000X1.100000X-0.325000X1.100000X0*%
%ADD20R,1.143000X0.760000*%
%ADD21R,2.260000X2.990000*%
%ADD22RoundRect,0.250000X0.312500X0.625000X-0.312500X0.625000X-0.312500X-0.625000X0.312500X-0.625000X0*%
%ADD23C,3.200000*%
%ADD24C,0.800000*%
%ADD25RoundRect,0.250000X0.375000X0.625000X-0.375000X0.625000X-0.375000X-0.625000X0.375000X-0.625000X0*%
%ADD26RoundRect,0.250000X-0.500000X0.950000X-0.500000X-0.950000X0.500000X-0.950000X0.500000X0.950000X0*%
%ADD27RoundRect,0.250000X-0.500000X0.275000X-0.500000X-0.275000X0.500000X-0.275000X0.500000X0.275000X0*%
%ADD28RoundRect,0.250000X0.250000X0.475000X-0.250000X0.475000X-0.250000X-0.475000X0.250000X-0.475000X0*%
%ADD29RoundRect,0.250000X1.100000X-0.325000X1.100000X0.325000X-1.100000X0.325000X-1.100000X-0.325000X0*%
%ADD30RoundRect,0.200000X0.275000X-0.200000X0.275000X0.200000X-0.275000X0.200000X-0.275000X-0.200000X0*%
%ADD31RoundRect,0.250000X-0.625000X0.312500X-0.625000X-0.312500X0.625000X-0.312500X0.625000X0.312500X0*%
%ADD32RoundRect,0.225000X0.225000X0.250000X-0.225000X0.250000X-0.225000X-0.250000X0.225000X-0.250000X0*%
%ADD33RoundRect,0.200000X0.200000X0.275000X-0.200000X0.275000X-0.200000X-0.275000X0.200000X-0.275000X0*%
%ADD34RoundRect,0.250000X0.325000X1.100000X-0.325000X1.100000X-0.325000X-1.100000X0.325000X-1.100000X0*%
%ADD35RoundRect,0.250000X-0.650000X1.000000X-0.650000X-1.000000X0.650000X-1.000000X0.650000X1.000000X0*%
%ADD36RoundRect,0.250000X0.500000X-0.950000X0.500000X0.950000X-0.500000X0.950000X-0.500000X-0.950000X0*%
%ADD37RoundRect,0.250000X0.500000X-0.275000X0.500000X0.275000X-0.500000X0.275000X-0.500000X-0.275000X0*%
%ADD38C,1.200000*%
G04 APERTURE END LIST*
D10*
%TO.C,H1*%
G36*
X4709290Y90193149D02*
G01*
X4917684Y90172624D01*
X5124289Y90138513D01*
X5328221Y90090963D01*
X5528606Y90030176D01*
X5724587Y89956415D01*
X5915324Y89869993D01*
X6100000Y89771281D01*
X6277825Y89660703D01*
X6448037Y89538731D01*
X6609907Y89405887D01*
X6762742Y89262742D01*
X6905887Y89109907D01*
X7038731Y88948037D01*
X7160703Y88777825D01*
X7271281Y88600000D01*
X7369993Y88415324D01*
X7456415Y88224587D01*
X7530176Y88028606D01*
X7590963Y87828221D01*
X7638513Y87624289D01*
X7672624Y87417684D01*
X7693149Y87209290D01*
X7700000Y87000000D01*
X7693149Y86790710D01*
X7672624Y86582316D01*
X7638513Y86375711D01*
X7590963Y86171779D01*
X7530176Y85971394D01*
X7456415Y85775413D01*
X7369993Y85584676D01*
X7271281Y85400000D01*
X7160703Y85222175D01*
X7038731Y85051963D01*
X6905887Y84890093D01*
X6762742Y84737258D01*
X6609907Y84594113D01*
X6448037Y84461269D01*
X6277825Y84339297D01*
X6100000Y84228719D01*
X5915324Y84130007D01*
X5724587Y84043585D01*
X5528606Y83969824D01*
X5328221Y83909037D01*
X5124289Y83861487D01*
X4917684Y83827376D01*
X4709290Y83806851D01*
X4500000Y83800000D01*
X-3700000Y83800000D01*
X-3700000Y90200000D01*
X4500000Y90200000D01*
X4709290Y90193149D01*
G37*
%TO.C,H3*%
G36*
X4709290Y10193149D02*
G01*
X4917684Y10172624D01*
X5124289Y10138513D01*
X5328221Y10090963D01*
X5528606Y10030176D01*
X5724587Y9956415D01*
X5915324Y9869993D01*
X6100000Y9771281D01*
X6277825Y9660703D01*
X6448037Y9538731D01*
X6609907Y9405887D01*
X6762742Y9262742D01*
X6905887Y9109907D01*
X7038731Y8948037D01*
X7160703Y8777825D01*
X7271281Y8600000D01*
X7369993Y8415324D01*
X7456415Y8224587D01*
X7530176Y8028606D01*
X7590963Y7828221D01*
X7638513Y7624289D01*
X7672624Y7417684D01*
X7693149Y7209290D01*
X7700000Y7000000D01*
X7693149Y6790710D01*
X7672624Y6582316D01*
X7638513Y6375711D01*
X7590963Y6171779D01*
X7530176Y5971394D01*
X7456415Y5775413D01*
X7369993Y5584676D01*
X7271281Y5400000D01*
X7160703Y5222175D01*
X7038731Y5051963D01*
X6905887Y4890093D01*
X6762742Y4737258D01*
X6609907Y4594113D01*
X6448037Y4461269D01*
X6277825Y4339297D01*
X6100000Y4228719D01*
X5915324Y4130007D01*
X5724587Y4043585D01*
X5528606Y3969824D01*
X5328221Y3909037D01*
X5124289Y3861487D01*
X4917684Y3827376D01*
X4709290Y3806851D01*
X4500000Y3800000D01*
X-3700000Y3800000D01*
X-3700000Y10200000D01*
X4500000Y10200000D01*
X4709290Y10193149D01*
G37*
%TO.C,H2*%
G36*
X53700000Y83800000D02*
G01*
X45500000Y83800000D01*
X45290710Y83806851D01*
X45082316Y83827376D01*
X44875711Y83861487D01*
X44671779Y83909037D01*
X44471394Y83969824D01*
X44275413Y84043585D01*
X44084676Y84130007D01*
X43900000Y84228719D01*
X43722175Y84339297D01*
X43551963Y84461269D01*
X43390093Y84594113D01*
X43237258Y84737258D01*
X43094113Y84890093D01*
X42961269Y85051963D01*
X42839297Y85222175D01*
X42728719Y85400000D01*
X42630007Y85584676D01*
X42543585Y85775413D01*
X42469824Y85971394D01*
X42409037Y86171779D01*
X42361487Y86375711D01*
X42327376Y86582316D01*
X42306851Y86790710D01*
X42300000Y87000000D01*
X42306851Y87209290D01*
X42327376Y87417684D01*
X42361487Y87624289D01*
X42409037Y87828221D01*
X42469824Y88028606D01*
X42543585Y88224587D01*
X42630007Y88415324D01*
X42728719Y88600000D01*
X42839297Y88777825D01*
X42961269Y88948037D01*
X43094113Y89109907D01*
X43237258Y89262742D01*
X43390093Y89405887D01*
X43551963Y89538731D01*
X43722175Y89660703D01*
X43900000Y89771281D01*
X44084676Y89869993D01*
X44275413Y89956415D01*
X44471394Y90030176D01*
X44671779Y90090963D01*
X44875711Y90138513D01*
X45082316Y90172624D01*
X45290710Y90193149D01*
X45500000Y90200000D01*
X53700000Y90200000D01*
X53700000Y83800000D01*
G37*
%TO.C,H4*%
G36*
X53700000Y3800000D02*
G01*
X45500000Y3800000D01*
X45290710Y3806851D01*
X45082316Y3827376D01*
X44875711Y3861487D01*
X44671779Y3909037D01*
X44471394Y3969824D01*
X44275413Y4043585D01*
X44084676Y4130007D01*
X43900000Y4228719D01*
X43722175Y4339297D01*
X43551963Y4461269D01*
X43390093Y4594113D01*
X43237258Y4737258D01*
X43094113Y4890093D01*
X42961269Y5051963D01*
X42839297Y5222175D01*
X42728719Y5400000D01*
X42630007Y5584676D01*
X42543585Y5775413D01*
X42469824Y5971394D01*
X42409037Y6171779D01*
X42361487Y6375711D01*
X42327376Y6582316D01*
X42306851Y6790710D01*
X42300000Y7000000D01*
X42306851Y7209290D01*
X42327376Y7417684D01*
X42361487Y7624289D01*
X42409037Y7828221D01*
X42469824Y8028606D01*
X42543585Y8224587D01*
X42630007Y8415324D01*
X42728719Y8600000D01*
X42839297Y8777825D01*
X42961269Y8948037D01*
X43094113Y9109907D01*
X43237258Y9262742D01*
X43390093Y9405887D01*
X43551963Y9538731D01*
X43722175Y9660703D01*
X43900000Y9771281D01*
X44084676Y9869993D01*
X44275413Y9956415D01*
X44471394Y10030176D01*
X44671779Y10090963D01*
X44875711Y10138513D01*
X45082316Y10172624D01*
X45290710Y10193149D01*
X45500000Y10200000D01*
X53700000Y10200000D01*
X53700000Y3800000D01*
G37*
%TD*%
D11*
%TO.C,J2*%
X27500000Y8000000D03*
D12*
X22500000Y8000000D03*
%TD*%
D13*
%TO.C,C8*%
X18800000Y18500000D03*
X13200000Y18500000D03*
%TD*%
D14*
%TO.C,R2*%
X17675000Y86000000D03*
X19325000Y86000000D03*
%TD*%
D15*
%TO.C,C7*%
X31800000Y88000000D03*
X39200000Y88000000D03*
%TD*%
D16*
%TO.C,D2*%
X26000000Y25880000D03*
D17*
X25080000Y29862000D03*
X26920000Y29862000D03*
%TD*%
D18*
%TO.C,R8*%
X20037500Y90000000D03*
X25962500Y90000000D03*
%TD*%
D19*
%TO.C,C4*%
X30025000Y25880000D03*
X32975000Y25880000D03*
%TD*%
D20*
%TO.C,U1*%
X13898500Y79905000D03*
X13898500Y78635000D03*
X13898500Y77365000D03*
X13898500Y76095000D03*
X19101500Y76095000D03*
X19101500Y77365000D03*
X19101500Y78635000D03*
X19101500Y79905000D03*
D21*
X16500000Y78000000D03*
%TD*%
D22*
%TO.C,R6*%
X30462500Y73600000D03*
X27537500Y73600000D03*
%TD*%
D23*
%TO.C,H1*%
X4500000Y87000000D03*
%TD*%
D24*
%TO.C,T1*%
X28621977Y71193193D03*
X21378023Y71193193D03*
X23169595Y32408661D03*
X26075000Y37553499D03*
%TD*%
D11*
%TO.C,J1*%
X22500000Y97000000D03*
D12*
X27500000Y97000000D03*
%TD*%
D25*
%TO.C,F1*%
X16900000Y97000000D03*
X14100000Y97000000D03*
%TD*%
D26*
%TO.C,D1*%
X13000000Y90150000D03*
D27*
X13000000Y92525000D03*
%TD*%
D28*
%TO.C,C6*%
X25950000Y73600000D03*
X24050000Y73600000D03*
%TD*%
D29*
%TO.C,C2*%
X29000000Y76525000D03*
X29000000Y79475000D03*
%TD*%
D30*
%TO.C,R5*%
X19101500Y81675000D03*
X19101500Y83325000D03*
%TD*%
D31*
%TO.C,R7*%
X34000000Y19962500D03*
X34000000Y17037500D03*
%TD*%
D23*
%TO.C,H3*%
X4500000Y7000000D03*
%TD*%
D32*
%TO.C,C5*%
X12275000Y78800000D03*
X10725000Y78800000D03*
%TD*%
D33*
%TO.C,R3*%
X22475000Y77365000D03*
X20825000Y77365000D03*
%TD*%
D14*
%TO.C,R4*%
X20825000Y79200000D03*
X22475000Y79200000D03*
%TD*%
D13*
%TO.C,C3*%
X28800000Y18500000D03*
X23200000Y18500000D03*
%TD*%
D23*
%TO.C,H2*%
X45500000Y87000000D03*
%TD*%
D14*
%TO.C,R1*%
X14675000Y86000000D03*
X16325000Y86000000D03*
%TD*%
D34*
%TO.C,C1*%
X11975000Y76365000D03*
X9025000Y76365000D03*
%TD*%
D35*
%TO.C,D4*%
X34000000Y78100000D03*
X34000000Y74100000D03*
%TD*%
D36*
%TO.C,D3*%
X25000000Y78150000D03*
D37*
X25000000Y75775000D03*
%TD*%
D23*
%TO.C,H4*%
X45500000Y7000000D03*
%TD*%
D38*
X33200000Y23000000D03*
X17400000Y74350000D03*
M02*
