%TF.GenerationSoftware,KiCad,Pcbnew,10.0.6*%
%TF.CreationDate,2026-09-29T18:38:44-04:00*%
%TF.ProjectId,PS-FLYBACK-5W,50532d46-4c59-4424-9143-4b2d35572e6b,A1-development*%
%TF.SameCoordinates,Original*%
%TF.FileFunction,Soldermask,Bot*%
%TF.FilePolarity,Negative*%
%FSLAX46Y46*%
G04 Gerber Fmt 4.6, Leading zero omitted, Abs format (unit mm)*
G04 Created by KiCad (PCBNEW 10.0.6) date 2026-09-29 18:38:44*
%MOMM*%
%LPD*%
G01*
G04 APERTURE LIST*
%ADD10C,0.000000*%
%ADD11C,3.200000*%
%ADD12R,2.400000X2.400000*%
%ADD13C,2.400000*%
%ADD14C,0.800000*%
G04 APERTURE END LIST*
D10*
%TO.C,H1*%
G36*
X4709290Y90193149D02*
G01*
X4917684Y90172624D01*
X5124289Y90138513D01*
X5328221Y90090963D01*
X5528606Y90030176D01*
X5724587Y89956415D01*
X5915324Y89869993D01*
X6100000Y89771281D01*
X6277825Y89660703D01*
X6448037Y89538731D01*
X6609907Y89405887D01*
X6762742Y89262742D01*
X6905887Y89109907D01*
X7038731Y88948037D01*
X7160703Y88777825D01*
X7271281Y88600000D01*
X7369993Y88415324D01*
X7456415Y88224587D01*
X7530176Y88028606D01*
X7590963Y87828221D01*
X7638513Y87624289D01*
X7672624Y87417684D01*
X7693149Y87209290D01*
X7700000Y87000000D01*
X7693149Y86790710D01*
X7672624Y86582316D01*
X7638513Y86375711D01*
X7590963Y86171779D01*
X7530176Y85971394D01*
X7456415Y85775413D01*
X7369993Y85584676D01*
X7271281Y85400000D01*
X7160703Y85222175D01*
X7038731Y85051963D01*
X6905887Y84890093D01*
X6762742Y84737258D01*
X6609907Y84594113D01*
X6448037Y84461269D01*
X6277825Y84339297D01*
X6100000Y84228719D01*
X5915324Y84130007D01*
X5724587Y84043585D01*
X5528606Y83969824D01*
X5328221Y83909037D01*
X5124289Y83861487D01*
X4917684Y83827376D01*
X4709290Y83806851D01*
X4500000Y83800000D01*
X-3700000Y83800000D01*
X-3700000Y90200000D01*
X4500000Y90200000D01*
X4709290Y90193149D01*
G37*
%TO.C,H4*%
G36*
X53700000Y3800000D02*
G01*
X45500000Y3800000D01*
X45290710Y3806851D01*
X45082316Y3827376D01*
X44875711Y3861487D01*
X44671779Y3909037D01*
X44471394Y3969824D01*
X44275413Y4043585D01*
X44084676Y4130007D01*
X43900000Y4228719D01*
X43722175Y4339297D01*
X43551963Y4461269D01*
X43390093Y4594113D01*
X43237258Y4737258D01*
X43094113Y4890093D01*
X42961269Y5051963D01*
X42839297Y5222175D01*
X42728719Y5400000D01*
X42630007Y5584676D01*
X42543585Y5775413D01*
X42469824Y5971394D01*
X42409037Y6171779D01*
X42361487Y6375711D01*
X42327376Y6582316D01*
X42306851Y6790710D01*
X42300000Y7000000D01*
X42306851Y7209290D01*
X42327376Y7417684D01*
X42361487Y7624289D01*
X42409037Y7828221D01*
X42469824Y8028606D01*
X42543585Y8224587D01*
X42630007Y8415324D01*
X42728719Y8600000D01*
X42839297Y8777825D01*
X42961269Y8948037D01*
X43094113Y9109907D01*
X43237258Y9262742D01*
X43390093Y9405887D01*
X43551963Y9538731D01*
X43722175Y9660703D01*
X43900000Y9771281D01*
X44084676Y9869993D01*
X44275413Y9956415D01*
X44471394Y10030176D01*
X44671779Y10090963D01*
X44875711Y10138513D01*
X45082316Y10172624D01*
X45290710Y10193149D01*
X45500000Y10200000D01*
X53700000Y10200000D01*
X53700000Y3800000D01*
G37*
%TO.C,H3*%
G36*
X4709290Y10193149D02*
G01*
X4917684Y10172624D01*
X5124289Y10138513D01*
X5328221Y10090963D01*
X5528606Y10030176D01*
X5724587Y9956415D01*
X5915324Y9869993D01*
X6100000Y9771281D01*
X6277825Y9660703D01*
X6448037Y9538731D01*
X6609907Y9405887D01*
X6762742Y9262742D01*
X6905887Y9109907D01*
X7038731Y8948037D01*
X7160703Y8777825D01*
X7271281Y8600000D01*
X7369993Y8415324D01*
X7456415Y8224587D01*
X7530176Y8028606D01*
X7590963Y7828221D01*
X7638513Y7624289D01*
X7672624Y7417684D01*
X7693149Y7209290D01*
X7700000Y7000000D01*
X7693149Y6790710D01*
X7672624Y6582316D01*
X7638513Y6375711D01*
X7590963Y6171779D01*
X7530176Y5971394D01*
X7456415Y5775413D01*
X7369993Y5584676D01*
X7271281Y5400000D01*
X7160703Y5222175D01*
X7038731Y5051963D01*
X6905887Y4890093D01*
X6762742Y4737258D01*
X6609907Y4594113D01*
X6448037Y4461269D01*
X6277825Y4339297D01*
X6100000Y4228719D01*
X5915324Y4130007D01*
X5724587Y4043585D01*
X5528606Y3969824D01*
X5328221Y3909037D01*
X5124289Y3861487D01*
X4917684Y3827376D01*
X4709290Y3806851D01*
X4500000Y3800000D01*
X-3700000Y3800000D01*
X-3700000Y10200000D01*
X4500000Y10200000D01*
X4709290Y10193149D01*
G37*
%TO.C,H2*%
G36*
X53700000Y83800000D02*
G01*
X45500000Y83800000D01*
X45290710Y83806851D01*
X45082316Y83827376D01*
X44875711Y83861487D01*
X44671779Y83909037D01*
X44471394Y83969824D01*
X44275413Y84043585D01*
X44084676Y84130007D01*
X43900000Y84228719D01*
X43722175Y84339297D01*
X43551963Y84461269D01*
X43390093Y84594113D01*
X43237258Y84737258D01*
X43094113Y84890093D01*
X42961269Y85051963D01*
X42839297Y85222175D01*
X42728719Y85400000D01*
X42630007Y85584676D01*
X42543585Y85775413D01*
X42469824Y85971394D01*
X42409037Y86171779D01*
X42361487Y86375711D01*
X42327376Y86582316D01*
X42306851Y86790710D01*
X42300000Y87000000D01*
X42306851Y87209290D01*
X42327376Y87417684D01*
X42361487Y87624289D01*
X42409037Y87828221D01*
X42469824Y88028606D01*
X42543585Y88224587D01*
X42630007Y88415324D01*
X42728719Y88600000D01*
X42839297Y88777825D01*
X42961269Y88948037D01*
X43094113Y89109907D01*
X43237258Y89262742D01*
X43390093Y89405887D01*
X43551963Y89538731D01*
X43722175Y89660703D01*
X43900000Y89771281D01*
X44084676Y89869993D01*
X44275413Y89956415D01*
X44471394Y90030176D01*
X44671779Y90090963D01*
X44875711Y90138513D01*
X45082316Y90172624D01*
X45290710Y90193149D01*
X45500000Y90200000D01*
X53700000Y90200000D01*
X53700000Y83800000D01*
G37*
%TD*%
D11*
%TO.C,H1*%
X4500000Y87000000D03*
%TD*%
%TO.C,H4*%
X45500000Y7000000D03*
%TD*%
D12*
%TO.C,J2*%
X27500000Y8000000D03*
D13*
X22500000Y8000000D03*
%TD*%
D11*
%TO.C,H3*%
X4500000Y7000000D03*
%TD*%
D14*
%TO.C,T1*%
X28621977Y71193193D03*
X21378023Y71193193D03*
X23169595Y32408661D03*
X26075000Y37553499D03*
%TD*%
D11*
%TO.C,H2*%
X45500000Y87000000D03*
%TD*%
D12*
%TO.C,J1*%
X22500000Y97000000D03*
D13*
X27500000Y97000000D03*
%TD*%
M02*
