M48
; DRILL file KiCad 10.0.6 date 2026-09-29T21:34:32
; FORMAT={-:-/ absolute / metric / decimal}
; #@! TF.CreationDate,2026-09-29T21:34:32-04:00
; #@! TF.GenerationSoftware,Kicad,Pcbnew,10.0.6
; #@! TF.FileFunction,Plated,1,6,PTH
FMAT,2
METRIC
; #@! TA.AperFunction,Plated,PTH,ViaDrill
T1C0.300
; #@! TA.AperFunction,Plated,PTH,ViaDrill
T2C0.400
; #@! TA.AperFunction,Plated,PTH,ComponentDrill
T3C0.400
; #@! TA.AperFunction,Plated,PTH,ViaDrill
T4C0.450
; #@! TA.AperFunction,Plated,PTH,ComponentDrill
T5C1.300
%
G90
G05
T1
X9.025Y76.365
X9.5Y97.0
X9.5Y94.0
X9.5Y82.0
X9.5Y73.0
X10.0Y85.0
X10.5Y73.6
X10.725Y78.8
X11.5Y83.5
X12.0Y29.0
X12.0Y22.0
X12.0Y14.0
X13.898Y76.095
X14.675Y86.0
X15.0Y29.0
X15.7Y78.55
X15.7Y77.45
X16.0Y74.5
X16.0Y7.0
X17.0Y25.0
X17.0Y14.0
X17.3Y78.55
X17.3Y77.45
X17.4Y74.35
X19.0Y29.0
X19.325Y86.0
X20.5Y14.2
X22.475Y79.2
X24.0Y84.5
X24.0Y22.0
X25.0Y87.0
X25.0Y11.0
X25.0Y5.5
X28.0Y83.0
X29.0Y79.475
X32.0Y14.0
X32.0Y7.0
X33.2Y23.0
X36.0Y29.0
X36.0Y25.0
X36.0Y14.0
X37.0Y74.0
X37.0Y9.0
X37.5Y22.0
X38.0Y83.0
X39.0Y79.0
X39.0Y74.0
X39.2Y88.0
X39.5Y95.0
X40.0Y83.0
T2
X11.975Y76.365
X13.0Y90.15
X29.0Y76.525
T3
X21.378Y71.193
X23.17Y32.409
X25.0Y66.525
X26.075Y37.553
X28.622Y71.193
T4
X13.2Y18.5
X22.27Y30.5
X23.17Y30.5
X23.2Y18.5
X25.55Y29.862
X26.45Y29.862
X32.975Y25.88
X34.0Y17.037
T5
X22.5Y97.0
X22.5Y8.0
X27.5Y97.0
X27.5Y8.0
M30
