%TF.GenerationSoftware,KiCad,Pcbnew,10.0.6*%
%TF.CreationDate,2026-09-29T14:37:14-04:00*%
%TF.ProjectId,PS-FLYBACK-5W,50532d46-4c59-4424-9143-4b2d35572e6b,A1-development*%
%TF.SameCoordinates,Original*%
%TF.FileFunction,Soldermask,Top*%
%TF.FilePolarity,Negative*%
%FSLAX46Y46*%
G04 Gerber Fmt 4.6, Leading zero omitted, Abs format (unit mm)*
G04 Created by KiCad (PCBNEW 10.0.6) date 2026-09-29 14:37:14*
%MOMM*%
%LPD*%
G01*
G04 APERTURE LIST*
G04 Aperture macros list*
%AMRoundRect*
0 Rectangle with rounded corners*
0 $1 Rounding radius*
0 $2 $3 $4 $5 $6 $7 $8 $9 X,Y pos of 4 corners*
0 Add a 4 corners polygon primitive as box body*
4,1,4,$2,$3,$4,$5,$6,$7,$8,$9,$2,$3,0*
0 Add four circle primitives for the rounded corners*
1,1,$1+$1,$2,$3*
1,1,$1+$1,$4,$5*
1,1,$1+$1,$6,$7*
1,1,$1+$1,$8,$9*
0 Add four rect primitives between the rounded corners*
20,1,$1+$1,$2,$3,$4,$5,0*
20,1,$1+$1,$4,$5,$6,$7,0*
20,1,$1+$1,$6,$7,$8,$9,0*
20,1,$1+$1,$8,$9,$2,$3,0*%
G04 Aperture macros list end*
%ADD10C,3.200000*%
%ADD11RoundRect,0.250000X-1.100000X0.325000X-1.100000X-0.325000X1.100000X-0.325000X1.100000X0.325000X0*%
%ADD12RoundRect,0.200000X-0.275000X0.200000X-0.275000X-0.200000X0.275000X-0.200000X0.275000X0.200000X0*%
%ADD13C,0.800000*%
%ADD14RoundRect,0.250000X-0.625000X0.312500X-0.625000X-0.312500X0.625000X-0.312500X0.625000X0.312500X0*%
%ADD15R,2.400000X2.400000*%
%ADD16C,2.400000*%
%ADD17RoundRect,0.250000X1.000000X0.650000X-1.000000X0.650000X-1.000000X-0.650000X1.000000X-0.650000X0*%
%ADD18R,4.860000X3.360000*%
%ADD19R,1.400000X1.390000*%
%ADD20C,3.200000*%
%ADD21RoundRect,0.200000X-0.200000X-0.275000X0.200000X-0.275000X0.200000X0.275000X-0.200000X0.275000X0*%
%ADD22RoundRect,0.250000X-0.250000X-0.475000X0.250000X-0.475000X0.250000X0.475000X-0.250000X0.475000X0*%
%ADD23RoundRect,0.200000X0.275000X-0.200000X0.275000X0.200000X-0.275000X0.200000X-0.275000X-0.200000X0*%
%ADD24R,3.500000X1.600000*%
%ADD25RoundRect,0.225000X0.250000X-0.225000X0.250000X0.225000X-0.250000X0.225000X-0.250000X-0.225000X0*%
%ADD26RoundRect,0.250000X0.650000X-1.000000X0.650000X1.000000X-0.650000X1.000000X-0.650000X-1.000000X0*%
%ADD27RoundRect,0.250000X-0.375000X-0.625000X0.375000X-0.625000X0.375000X0.625000X-0.375000X0.625000X0*%
%ADD28RoundRect,0.250000X0.500000X-0.950000X0.500000X0.950000X-0.500000X0.950000X-0.500000X-0.950000X0*%
%ADD29RoundRect,0.250000X0.500000X-0.275000X0.500000X0.275000X-0.500000X0.275000X-0.500000X-0.275000X0*%
%ADD30R,0.760000X1.143000*%
%ADD31R,2.990000X2.260000*%
G04 APERTURE END LIST*
%TO.C,H3*%
D10*
X6100000Y7000000D02*
G75*
G02*
X2900000Y7000000I-1600000J0D01*
G01*
X2900000Y7000000D02*
G75*
G02*
X6100000Y7000000I1600000J0D01*
G01*
%TO.C,H1*%
X6100000Y87000000D02*
G75*
G02*
X2900000Y87000000I-1600000J0D01*
G01*
X2900000Y87000000D02*
G75*
G02*
X6100000Y87000000I1600000J0D01*
G01*
%TO.C,H2*%
X47100000Y87000000D02*
G75*
G02*
X43900000Y87000000I-1600000J0D01*
G01*
X43900000Y87000000D02*
G75*
G02*
X47100000Y87000000I1600000J0D01*
G01*
%TO.C,H4*%
X47100000Y7000000D02*
G75*
G02*
X43900000Y7000000I-1600000J0D01*
G01*
X43900000Y7000000D02*
G75*
G02*
X47100000Y7000000I1600000J0D01*
G01*
%TD*%
D11*
%TO.C,C1*%
X21000000Y90475000D03*
X21000000Y87525000D03*
%TD*%
D12*
%TO.C,R4*%
X27500000Y75825000D03*
X27500000Y74175000D03*
%TD*%
D13*
%TO.C,T1*%
X28621977Y71193193D03*
X21378023Y71193193D03*
X23169595Y32408661D03*
X26075000Y37553499D03*
%TD*%
D14*
%TO.C,R7*%
X34000000Y22462500D03*
X34000000Y19537500D03*
%TD*%
D15*
%TO.C,J1*%
X8500000Y97000000D03*
D16*
X13500000Y97000000D03*
%TD*%
D17*
%TO.C,D1*%
X29000000Y95500000D03*
X25000000Y95500000D03*
%TD*%
D18*
%TO.C,D2*%
X24880000Y27000000D03*
D19*
X28862000Y27920000D03*
X28862000Y26080000D03*
%TD*%
D15*
%TO.C,J2*%
X28000000Y8000000D03*
D16*
X23000000Y8000000D03*
%TD*%
D20*
%TO.C,H3*%
X4500000Y7000000D03*
%TD*%
%TO.C,H1*%
X4500000Y87000000D03*
%TD*%
D21*
%TO.C,R2*%
X29875000Y82500000D03*
X31525000Y82500000D03*
%TD*%
D12*
%TO.C,R1*%
X33000000Y87825000D03*
X33000000Y86175000D03*
%TD*%
D20*
%TO.C,H2*%
X45500000Y87000000D03*
%TD*%
D22*
%TO.C,C6*%
X33550000Y74900000D03*
X35450000Y74900000D03*
%TD*%
D21*
%TO.C,R5*%
X29175000Y78000000D03*
X30825000Y78000000D03*
%TD*%
D23*
%TO.C,R3*%
X24365000Y74675000D03*
X24365000Y76325000D03*
%TD*%
D11*
%TO.C,C2*%
X29000000Y91475000D03*
X29000000Y88525000D03*
%TD*%
%TO.C,C4*%
X27000000Y22475000D03*
X27000000Y19525000D03*
%TD*%
D24*
%TO.C,C3*%
X16200000Y20000000D03*
X21800000Y20000000D03*
%TD*%
D20*
%TO.C,H4*%
X45500000Y7000000D03*
%TD*%
D25*
%TO.C,C5*%
X25635000Y85725000D03*
X25635000Y87275000D03*
%TD*%
D14*
%TO.C,R6*%
X34500000Y80462500D03*
X34500000Y77537500D03*
%TD*%
D26*
%TO.C,D4*%
X14000000Y79500000D03*
X14000000Y83500000D03*
%TD*%
D27*
%TO.C,F1*%
X18600000Y97000000D03*
X21400000Y97000000D03*
%TD*%
D28*
%TO.C,D3*%
X18300000Y76950000D03*
D29*
X18300000Y74575000D03*
%TD*%
D30*
%TO.C,U1*%
X26905000Y83601500D03*
X25635000Y83601500D03*
X24365000Y83601500D03*
X23095000Y83601500D03*
X23095000Y78398500D03*
X24365000Y78398500D03*
X25635000Y78398500D03*
X26905000Y78398500D03*
D31*
X25000000Y81000000D03*
%TD*%
M02*
