%TF.GenerationSoftware,KiCad,Pcbnew,10.0.6*%
%TF.CreationDate,2026-10-09T22:44:17+08:00*%
%TF.ProjectId,PS-FLYBACK-5W,50532d46-4c59-4424-9143-4b2d35572e6b,A5-development*%
%TF.SameCoordinates,Original*%
%TF.FileFunction,Paste,Top*%
%TF.FilePolarity,Positive*%
%FSLAX46Y46*%
G04 Gerber Fmt 4.6, Leading zero omitted, Abs format (unit mm)*
G04 Created by KiCad (PCBNEW 10.0.6) date 2026-10-09 22:44:17*
%MOMM*%
%LPD*%
G01*
G04 APERTURE LIST*
G04 Aperture macros list*
%AMRoundRect*
0 Rectangle with rounded corners*
0 $1 Rounding radius*
0 $2 $3 $4 $5 $6 $7 $8 $9 X,Y pos of 4 corners*
0 Add a 4 corners polygon primitive as box body*
4,1,4,$2,$3,$4,$5,$6,$7,$8,$9,$2,$3,0*
0 Add four circle primitives for the rounded corners*
1,1,$1+$1,$2,$3*
1,1,$1+$1,$4,$5*
1,1,$1+$1,$6,$7*
1,1,$1+$1,$8,$9*
0 Add four rect primitives between the rounded corners*
20,1,$1+$1,$2,$3,$4,$5,0*
20,1,$1+$1,$4,$5,$6,$7,0*
20,1,$1+$1,$6,$7,$8,$9,0*
20,1,$1+$1,$8,$9,$2,$3,0*%
G04 Aperture macros list end*
%ADD10RoundRect,0.250000X0.325000X1.100000X-0.325000X1.100000X-0.325000X-1.100000X0.325000X-1.100000X0*%
%ADD11RoundRect,0.250000X0.250000X0.475000X-0.250000X0.475000X-0.250000X-0.475000X0.250000X-0.475000X0*%
%ADD12R,2.450000X3.700000*%
%ADD13RoundRect,0.250000X-0.500000X0.950000X-0.500000X-0.950000X0.500000X-0.950000X0.500000X0.950000X0*%
%ADD14RoundRect,0.250000X-0.500000X0.275000X-0.500000X-0.275000X0.500000X-0.275000X0.500000X0.275000X0*%
%ADD15RoundRect,0.250000X0.500000X-0.950000X0.500000X0.950000X-0.500000X0.950000X-0.500000X-0.950000X0*%
%ADD16RoundRect,0.250000X0.500000X-0.275000X0.500000X0.275000X-0.500000X0.275000X-0.500000X-0.275000X0*%
%ADD17RoundRect,0.250000X1.100000X-0.325000X1.100000X0.325000X-1.100000X0.325000X-1.100000X-0.325000X0*%
%ADD18RoundRect,0.200000X0.200000X0.275000X-0.200000X0.275000X-0.200000X-0.275000X0.200000X-0.275000X0*%
%ADD19RoundRect,0.200000X0.275000X-0.200000X0.275000X0.200000X-0.275000X0.200000X-0.275000X-0.200000X0*%
%ADD20R,1.600000X3.400000*%
%ADD21RoundRect,0.250000X-1.950000X-1.000000X1.950000X-1.000000X1.950000X1.000000X-1.950000X1.000000X0*%
%ADD22R,0.800000X1.100000*%
%ADD23R,1.143000X0.760000*%
%ADD24RoundRect,0.250000X-0.650000X1.000000X-0.650000X-1.000000X0.650000X-1.000000X0.650000X1.000000X0*%
%ADD25RoundRect,0.200000X-0.200000X-0.275000X0.200000X-0.275000X0.200000X0.275000X-0.200000X0.275000X0*%
%ADD26R,1.250000X1.650000*%
%ADD27RoundRect,0.250000X-0.325000X-1.100000X0.325000X-1.100000X0.325000X1.100000X-0.325000X1.100000X0*%
%ADD28R,3.360000X4.860000*%
%ADD29R,1.390000X1.400000*%
%ADD30RoundRect,0.225000X0.225000X0.250000X-0.225000X0.250000X-0.225000X-0.250000X0.225000X-0.250000X0*%
%ADD31R,3.500000X1.600000*%
%ADD32RoundRect,0.250000X-0.625000X0.312500X-0.625000X-0.312500X0.625000X-0.312500X0.625000X0.312500X0*%
G04 APERTURE END LIST*
D10*
%TO.C,C1*%
X8975000Y66365000D03*
X6025000Y66365000D03*
%TD*%
D11*
%TO.C,C6*%
X22950000Y63600000D03*
X21050000Y63600000D03*
%TD*%
D12*
%TO.C,R8*%
X17425000Y80000000D03*
X22575000Y80000000D03*
%TD*%
D13*
%TO.C,D1*%
X10000000Y80150000D03*
D14*
X10000000Y82525000D03*
%TD*%
D15*
%TO.C,D3*%
X22000000Y68150000D03*
D16*
X22000000Y65775000D03*
%TD*%
D17*
%TO.C,C2*%
X26000000Y66525000D03*
X26000000Y69475000D03*
%TD*%
D18*
%TO.C,R3*%
X19475000Y67365000D03*
X17825000Y67365000D03*
%TD*%
D19*
%TO.C,R5*%
X16101500Y71675000D03*
X16101500Y73325000D03*
%TD*%
D20*
%TO.C,R6*%
X32450000Y63600000D03*
X25950000Y63600000D03*
%TD*%
D21*
%TO.C,C7*%
X28800000Y78000000D03*
X36200000Y78000000D03*
%TD*%
D22*
%TO.C,U1*%
X12950000Y68750000D03*
X12950000Y67250000D03*
X14050000Y68750000D03*
X14050000Y67250000D03*
D23*
X10898500Y69905000D03*
X10898500Y68635000D03*
X10898500Y67365000D03*
X10898500Y66095000D03*
X16101500Y66095000D03*
X16101500Y67365000D03*
X16101500Y68635000D03*
X16101500Y69905000D03*
%TD*%
D24*
%TO.C,D4*%
X35500000Y68100000D03*
X35500000Y64100000D03*
%TD*%
D25*
%TO.C,R4*%
X17825000Y69200000D03*
X19475000Y69200000D03*
%TD*%
%TO.C,R1*%
X11675000Y76000000D03*
X13325000Y76000000D03*
%TD*%
D26*
%TO.C,F1*%
X14225000Y87000000D03*
X10775000Y87000000D03*
%TD*%
D25*
%TO.C,R2*%
X14675000Y76000000D03*
X16325000Y76000000D03*
%TD*%
D27*
%TO.C,C4*%
X27025000Y25880000D03*
X29975000Y25880000D03*
%TD*%
D28*
%TO.C,D2*%
X23000000Y25880000D03*
D29*
X22080000Y29862000D03*
X23920000Y29862000D03*
%TD*%
D30*
%TO.C,C5*%
X9275000Y68800000D03*
X7725000Y68800000D03*
%TD*%
D31*
%TO.C,C8*%
X15800000Y18500000D03*
X10200000Y18500000D03*
%TD*%
%TO.C,C3*%
X25800000Y18500000D03*
X20200000Y18500000D03*
%TD*%
D32*
%TO.C,R7*%
X31000000Y19962500D03*
X31000000Y17037500D03*
%TD*%
M02*
