%TF.GenerationSoftware,KiCad,Pcbnew,10.0.6*%
%TF.CreationDate,2026-10-08T12:10:17-04:00*%
%TF.ProjectId,PS-FLYBACK-5W,50532d46-4c59-4424-9143-4b2d35572e6b,A3-development*%
%TF.SameCoordinates,Original*%
%TF.FileFunction,Soldermask,Top*%
%TF.FilePolarity,Negative*%
%FSLAX46Y46*%
G04 Gerber Fmt 4.6, Leading zero omitted, Abs format (unit mm)*
G04 Created by KiCad (PCBNEW 10.0.6) date 2026-10-08 12:10:17*
%MOMM*%
%LPD*%
G01*
G04 APERTURE LIST*
G04 Aperture macros list*
%AMRoundRect*
0 Rectangle with rounded corners*
0 $1 Rounding radius*
0 $2 $3 $4 $5 $6 $7 $8 $9 X,Y pos of 4 corners*
0 Add a 4 corners polygon primitive as box body*
4,1,4,$2,$3,$4,$5,$6,$7,$8,$9,$2,$3,0*
0 Add four circle primitives for the rounded corners*
1,1,$1+$1,$2,$3*
1,1,$1+$1,$4,$5*
1,1,$1+$1,$6,$7*
1,1,$1+$1,$8,$9*
0 Add four rect primitives between the rounded corners*
20,1,$1+$1,$2,$3,$4,$5,0*
20,1,$1+$1,$4,$5,$6,$7,0*
20,1,$1+$1,$6,$7,$8,$9,0*
20,1,$1+$1,$8,$9,$2,$3,0*%
G04 Aperture macros list end*
%ADD10C,0.000000*%
%ADD11R,2.400000X2.400000*%
%ADD12C,2.400000*%
%ADD13RoundRect,0.250000X0.500000X-0.950000X0.500000X0.950000X-0.500000X0.950000X-0.500000X-0.950000X0*%
%ADD14RoundRect,0.250000X0.500000X-0.275000X0.500000X0.275000X-0.500000X0.275000X-0.500000X-0.275000X0*%
%ADD15C,0.600000*%
%ADD16C,3.200000*%
%ADD17RoundRect,0.250000X1.100000X-0.325000X1.100000X0.325000X-1.100000X0.325000X-1.100000X-0.325000X0*%
%ADD18R,3.500000X1.600000*%
%ADD19RoundRect,0.225000X0.225000X0.250000X-0.225000X0.250000X-0.225000X-0.250000X0.225000X-0.250000X0*%
%ADD20RoundRect,0.250000X-0.650000X1.000000X-0.650000X-1.000000X0.650000X-1.000000X0.650000X1.000000X0*%
%ADD21R,1.143000X0.760000*%
%ADD22R,2.260000X2.990000*%
%ADD23RoundRect,0.250000X0.325000X1.100000X-0.325000X1.100000X-0.325000X-1.100000X0.325000X-1.100000X0*%
%ADD24RoundRect,0.250000X-0.625000X0.312500X-0.625000X-0.312500X0.625000X-0.312500X0.625000X0.312500X0*%
%ADD25R,3.360000X4.860000*%
%ADD26R,1.390000X1.400000*%
%ADD27RoundRect,0.250000X-1.950000X-1.000000X1.950000X-1.000000X1.950000X1.000000X-1.950000X1.000000X0*%
%ADD28RoundRect,0.250000X-0.500000X0.950000X-0.500000X-0.950000X0.500000X-0.950000X0.500000X0.950000X0*%
%ADD29RoundRect,0.250000X-0.500000X0.275000X-0.500000X-0.275000X0.500000X-0.275000X0.500000X0.275000X0*%
%ADD30RoundRect,0.200000X0.200000X0.275000X-0.200000X0.275000X-0.200000X-0.275000X0.200000X-0.275000X0*%
%ADD31R,2.450000X3.700000*%
%ADD32RoundRect,0.200000X0.275000X-0.200000X0.275000X0.200000X-0.275000X0.200000X-0.275000X-0.200000X0*%
%ADD33RoundRect,0.250000X-0.325000X-1.100000X0.325000X-1.100000X0.325000X1.100000X-0.325000X1.100000X0*%
%ADD34RoundRect,0.200000X-0.200000X-0.275000X0.200000X-0.275000X0.200000X0.275000X-0.200000X0.275000X0*%
%ADD35RoundRect,0.250000X0.250000X0.475000X-0.250000X0.475000X-0.250000X-0.475000X0.250000X-0.475000X0*%
%ADD36R,1.250000X1.650000*%
%ADD37RoundRect,0.250000X0.312500X0.625000X-0.312500X0.625000X-0.312500X-0.625000X0.312500X-0.625000X0*%
%ADD38C,1.200000*%
G04 APERTURE END LIST*
D10*
%TO.C,H2*%
G36*
X47700000Y86300000D02*
G01*
X39500000Y86300000D01*
X39290710Y86306851D01*
X39082316Y86327376D01*
X38875711Y86361487D01*
X38671779Y86409037D01*
X38471394Y86469824D01*
X38275413Y86543585D01*
X38084676Y86630007D01*
X37900000Y86728719D01*
X37722175Y86839297D01*
X37551963Y86961269D01*
X37390093Y87094113D01*
X37237258Y87237258D01*
X37094113Y87390093D01*
X36961269Y87551963D01*
X36839297Y87722175D01*
X36728719Y87900000D01*
X36630007Y88084676D01*
X36543585Y88275413D01*
X36469824Y88471394D01*
X36409037Y88671779D01*
X36361487Y88875711D01*
X36327376Y89082316D01*
X36306851Y89290710D01*
X36300000Y89500000D01*
X36306851Y89709290D01*
X36327376Y89917684D01*
X36361487Y90124289D01*
X36409037Y90328221D01*
X36469824Y90528606D01*
X36543585Y90724587D01*
X36630007Y90915324D01*
X36728719Y91100000D01*
X36839297Y91277825D01*
X36961269Y91448037D01*
X37094113Y91609907D01*
X37237258Y91762742D01*
X37390093Y91905887D01*
X37551963Y92038731D01*
X37722175Y92160703D01*
X37900000Y92271281D01*
X38084676Y92369993D01*
X38275413Y92456415D01*
X38471394Y92530176D01*
X38671779Y92590963D01*
X38875711Y92638513D01*
X39082316Y92672624D01*
X39290710Y92693149D01*
X39500000Y92700000D01*
X47700000Y92700000D01*
X47700000Y86300000D01*
G37*
%TO.C,H1*%
G36*
X4709290Y92693149D02*
G01*
X4917684Y92672624D01*
X5124289Y92638513D01*
X5328221Y92590963D01*
X5528606Y92530176D01*
X5724587Y92456415D01*
X5915324Y92369993D01*
X6100000Y92271281D01*
X6277825Y92160703D01*
X6448037Y92038731D01*
X6609907Y91905887D01*
X6762742Y91762742D01*
X6905887Y91609907D01*
X7038731Y91448037D01*
X7160703Y91277825D01*
X7271281Y91100000D01*
X7369993Y90915324D01*
X7456415Y90724587D01*
X7530176Y90528606D01*
X7590963Y90328221D01*
X7638513Y90124289D01*
X7672624Y89917684D01*
X7693149Y89709290D01*
X7700000Y89500000D01*
X7693149Y89290710D01*
X7672624Y89082316D01*
X7638513Y88875711D01*
X7590963Y88671779D01*
X7530176Y88471394D01*
X7456415Y88275413D01*
X7369993Y88084676D01*
X7271281Y87900000D01*
X7160703Y87722175D01*
X7038731Y87551963D01*
X6905887Y87390093D01*
X6762742Y87237258D01*
X6609907Y87094113D01*
X6448037Y86961269D01*
X6277825Y86839297D01*
X6100000Y86728719D01*
X5915324Y86630007D01*
X5724587Y86543585D01*
X5528606Y86469824D01*
X5328221Y86409037D01*
X5124289Y86361487D01*
X4917684Y86327376D01*
X4709290Y86306851D01*
X4500000Y86300000D01*
X-3700000Y86300000D01*
X-3700000Y92700000D01*
X4500000Y92700000D01*
X4709290Y92693149D01*
G37*
%TO.C,H3*%
G36*
X4709290Y7693149D02*
G01*
X4917684Y7672624D01*
X5124289Y7638513D01*
X5328221Y7590963D01*
X5528606Y7530176D01*
X5724587Y7456415D01*
X5915324Y7369993D01*
X6100000Y7271281D01*
X6277825Y7160703D01*
X6448037Y7038731D01*
X6609907Y6905887D01*
X6762742Y6762742D01*
X6905887Y6609907D01*
X7038731Y6448037D01*
X7160703Y6277825D01*
X7271281Y6100000D01*
X7369993Y5915324D01*
X7456415Y5724587D01*
X7530176Y5528606D01*
X7590963Y5328221D01*
X7638513Y5124289D01*
X7672624Y4917684D01*
X7693149Y4709290D01*
X7700000Y4500000D01*
X7693149Y4290710D01*
X7672624Y4082316D01*
X7638513Y3875711D01*
X7590963Y3671779D01*
X7530176Y3471394D01*
X7456415Y3275413D01*
X7369993Y3084676D01*
X7271281Y2900000D01*
X7160703Y2722175D01*
X7038731Y2551963D01*
X6905887Y2390093D01*
X6762742Y2237258D01*
X6609907Y2094113D01*
X6448037Y1961269D01*
X6277825Y1839297D01*
X6100000Y1728719D01*
X5915324Y1630007D01*
X5724587Y1543585D01*
X5528606Y1469824D01*
X5328221Y1409037D01*
X5124289Y1361487D01*
X4917684Y1327376D01*
X4709290Y1306851D01*
X4500000Y1300000D01*
X-3700000Y1300000D01*
X-3700000Y7700000D01*
X4500000Y7700000D01*
X4709290Y7693149D01*
G37*
%TO.C,H4*%
G36*
X47700000Y1300000D02*
G01*
X39500000Y1300000D01*
X39290710Y1306851D01*
X39082316Y1327376D01*
X38875711Y1361487D01*
X38671779Y1409037D01*
X38471394Y1469824D01*
X38275413Y1543585D01*
X38084676Y1630007D01*
X37900000Y1728719D01*
X37722175Y1839297D01*
X37551963Y1961269D01*
X37390093Y2094113D01*
X37237258Y2237258D01*
X37094113Y2390093D01*
X36961269Y2551963D01*
X36839297Y2722175D01*
X36728719Y2900000D01*
X36630007Y3084676D01*
X36543585Y3275413D01*
X36469824Y3471394D01*
X36409037Y3671779D01*
X36361487Y3875711D01*
X36327376Y4082316D01*
X36306851Y4290710D01*
X36300000Y4500000D01*
X36306851Y4709290D01*
X36327376Y4917684D01*
X36361487Y5124289D01*
X36409037Y5328221D01*
X36469824Y5528606D01*
X36543585Y5724587D01*
X36630007Y5915324D01*
X36728719Y6100000D01*
X36839297Y6277825D01*
X36961269Y6448037D01*
X37094113Y6609907D01*
X37237258Y6762742D01*
X37390093Y6905887D01*
X37551963Y7038731D01*
X37722175Y7160703D01*
X37900000Y7271281D01*
X38084676Y7369993D01*
X38275413Y7456415D01*
X38471394Y7530176D01*
X38671779Y7590963D01*
X38875711Y7638513D01*
X39082316Y7672624D01*
X39290710Y7693149D01*
X39500000Y7700000D01*
X47700000Y7700000D01*
X47700000Y1300000D01*
G37*
%TD*%
D11*
%TO.C,J2*%
X24500000Y8000000D03*
D12*
X19500000Y8000000D03*
%TD*%
D13*
%TO.C,D3*%
X22000000Y68150000D03*
D14*
X22000000Y65775000D03*
%TD*%
D15*
%TO.C,T1*%
X24871953Y60073763D03*
X19128047Y60073763D03*
X20540116Y33532645D03*
X22775000Y37270417D03*
%TD*%
D16*
%TO.C,H2*%
X39500000Y89500000D03*
%TD*%
D17*
%TO.C,C2*%
X26000000Y66525000D03*
X26000000Y69475000D03*
%TD*%
D18*
%TO.C,C3*%
X25800000Y18500000D03*
X20200000Y18500000D03*
%TD*%
D19*
%TO.C,C5*%
X9275000Y68800000D03*
X7725000Y68800000D03*
%TD*%
D11*
%TO.C,J1*%
X19500000Y87000000D03*
D12*
X24500000Y87000000D03*
%TD*%
D20*
%TO.C,D4*%
X31000000Y68100000D03*
X31000000Y64100000D03*
%TD*%
D16*
%TO.C,H1*%
X4500000Y89500000D03*
%TD*%
D21*
%TO.C,U1*%
X10898500Y69905000D03*
X10898500Y68635000D03*
X10898500Y67365000D03*
X10898500Y66095000D03*
X16101500Y66095000D03*
X16101500Y67365000D03*
X16101500Y68635000D03*
X16101500Y69905000D03*
D22*
X13500000Y68000000D03*
%TD*%
D23*
%TO.C,C1*%
X8975000Y66365000D03*
X6025000Y66365000D03*
%TD*%
D24*
%TO.C,R7*%
X31000000Y19962500D03*
X31000000Y17037500D03*
%TD*%
D25*
%TO.C,D2*%
X23000000Y25880000D03*
D26*
X22080000Y29862000D03*
X23920000Y29862000D03*
%TD*%
D27*
%TO.C,C7*%
X28800000Y78000000D03*
X36200000Y78000000D03*
%TD*%
D18*
%TO.C,C8*%
X15800000Y18500000D03*
X10200000Y18500000D03*
%TD*%
D28*
%TO.C,D1*%
X10000000Y80150000D03*
D29*
X10000000Y82525000D03*
%TD*%
D30*
%TO.C,R3*%
X19475000Y67365000D03*
X17825000Y67365000D03*
%TD*%
D31*
%TO.C,R8*%
X17425000Y80000000D03*
X22575000Y80000000D03*
%TD*%
D16*
%TO.C,H3*%
X4500000Y4500000D03*
%TD*%
D32*
%TO.C,R5*%
X16101500Y71675000D03*
X16101500Y73325000D03*
%TD*%
D33*
%TO.C,C4*%
X27025000Y25880000D03*
X29975000Y25880000D03*
%TD*%
D34*
%TO.C,R4*%
X17825000Y69200000D03*
X19475000Y69200000D03*
%TD*%
D16*
%TO.C,H4*%
X39500000Y4500000D03*
%TD*%
D35*
%TO.C,C6*%
X22950000Y63600000D03*
X21050000Y63600000D03*
%TD*%
D36*
%TO.C,F1*%
X14225000Y87000000D03*
X10775000Y87000000D03*
%TD*%
D34*
%TO.C,R2*%
X14675000Y76000000D03*
X16325000Y76000000D03*
%TD*%
%TO.C,R1*%
X11675000Y76000000D03*
X13325000Y76000000D03*
%TD*%
D37*
%TO.C,R6*%
X27462500Y63600000D03*
X24537500Y63600000D03*
%TD*%
D38*
X30200000Y23000000D03*
X14400000Y64350000D03*
M02*
