%TF.GenerationSoftware,KiCad,Pcbnew,10.0.6*%
%TF.CreationDate,2026-09-29T18:10:30-04:00*%
%TF.ProjectId,PS-FLYBACK-5W,50532d46-4c59-4424-9143-4b2d35572e6b,A1-development*%
%TF.SameCoordinates,Original*%
%TF.FileFunction,Soldermask,Top*%
%TF.FilePolarity,Negative*%
%FSLAX46Y46*%
G04 Gerber Fmt 4.6, Leading zero omitted, Abs format (unit mm)*
G04 Created by KiCad (PCBNEW 10.0.6) date 2026-09-29 18:10:30*
%MOMM*%
%LPD*%
G01*
G04 APERTURE LIST*
G04 Aperture macros list*
%AMRoundRect*
0 Rectangle with rounded corners*
0 $1 Rounding radius*
0 $2 $3 $4 $5 $6 $7 $8 $9 X,Y pos of 4 corners*
0 Add a 4 corners polygon primitive as box body*
4,1,4,$2,$3,$4,$5,$6,$7,$8,$9,$2,$3,0*
0 Add four circle primitives for the rounded corners*
1,1,$1+$1,$2,$3*
1,1,$1+$1,$4,$5*
1,1,$1+$1,$6,$7*
1,1,$1+$1,$8,$9*
0 Add four rect primitives between the rounded corners*
20,1,$1+$1,$2,$3,$4,$5,0*
20,1,$1+$1,$4,$5,$6,$7,0*
20,1,$1+$1,$6,$7,$8,$9,0*
20,1,$1+$1,$8,$9,$2,$3,0*%
G04 Aperture macros list end*
%ADD10C,3.200000*%
%ADD11RoundRect,0.200000X-0.200000X-0.275000X0.200000X-0.275000X0.200000X0.275000X-0.200000X0.275000X0*%
%ADD12R,3.500000X1.600000*%
%ADD13RoundRect,0.250000X-0.625000X0.312500X-0.625000X-0.312500X0.625000X-0.312500X0.625000X0.312500X0*%
%ADD14RoundRect,0.250000X0.250000X0.475000X-0.250000X0.475000X-0.250000X-0.475000X0.250000X-0.475000X0*%
%ADD15C,3.200000*%
%ADD16RoundRect,0.250000X0.500000X-0.950000X0.500000X0.950000X-0.500000X0.950000X-0.500000X-0.950000X0*%
%ADD17RoundRect,0.250000X0.500000X-0.275000X0.500000X0.275000X-0.500000X0.275000X-0.500000X-0.275000X0*%
%ADD18RoundRect,0.200000X0.200000X0.275000X-0.200000X0.275000X-0.200000X-0.275000X0.200000X-0.275000X0*%
%ADD19C,0.800000*%
%ADD20R,2.400000X2.400000*%
%ADD21C,2.400000*%
%ADD22RoundRect,0.250000X0.375000X0.625000X-0.375000X0.625000X-0.375000X-0.625000X0.375000X-0.625000X0*%
%ADD23R,1.143000X0.760000*%
%ADD24R,2.260000X2.990000*%
%ADD25RoundRect,0.250000X0.312500X0.625000X-0.312500X0.625000X-0.312500X-0.625000X0.312500X-0.625000X0*%
%ADD26RoundRect,0.250000X1.100000X-0.325000X1.100000X0.325000X-1.100000X0.325000X-1.100000X-0.325000X0*%
%ADD27R,3.360000X4.860000*%
%ADD28R,1.390000X1.400000*%
%ADD29RoundRect,0.250000X-0.650000X1.000000X-0.650000X-1.000000X0.650000X-1.000000X0.650000X1.000000X0*%
%ADD30RoundRect,0.250000X0.325000X1.100000X-0.325000X1.100000X-0.325000X-1.100000X0.325000X-1.100000X0*%
%ADD31RoundRect,0.250000X0.650000X-1.000000X0.650000X1.000000X-0.650000X1.000000X-0.650000X-1.000000X0*%
%ADD32RoundRect,0.250000X-0.325000X-1.100000X0.325000X-1.100000X0.325000X1.100000X-0.325000X1.100000X0*%
%ADD33RoundRect,0.225000X0.225000X0.250000X-0.225000X0.250000X-0.225000X-0.250000X0.225000X-0.250000X0*%
%ADD34RoundRect,0.200000X0.275000X-0.200000X0.275000X0.200000X-0.275000X0.200000X-0.275000X-0.200000X0*%
%ADD35C,1.200000*%
G04 APERTURE END LIST*
%TO.C,H4*%
D10*
X47100000Y7000000D02*
G75*
G02*
X43900000Y7000000I-1600000J0D01*
G01*
X43900000Y7000000D02*
G75*
G02*
X47100000Y7000000I1600000J0D01*
G01*
%TO.C,H1*%
X6100000Y87000000D02*
G75*
G02*
X2900000Y87000000I-1600000J0D01*
G01*
X2900000Y87000000D02*
G75*
G02*
X6100000Y87000000I1600000J0D01*
G01*
%TO.C,H3*%
X6100000Y7000000D02*
G75*
G02*
X2900000Y7000000I-1600000J0D01*
G01*
X2900000Y7000000D02*
G75*
G02*
X6100000Y7000000I1600000J0D01*
G01*
%TO.C,H2*%
X47100000Y87000000D02*
G75*
G02*
X43900000Y87000000I-1600000J0D01*
G01*
X43900000Y87000000D02*
G75*
G02*
X47100000Y87000000I1600000J0D01*
G01*
%TD*%
D11*
%TO.C,R2*%
X17675000Y86000000D03*
X19325000Y86000000D03*
%TD*%
D12*
%TO.C,C3*%
X28800000Y18500000D03*
X23200000Y18500000D03*
%TD*%
D13*
%TO.C,R7*%
X34000000Y19962500D03*
X34000000Y17037500D03*
%TD*%
D14*
%TO.C,C6*%
X25950000Y73600000D03*
X24050000Y73600000D03*
%TD*%
D15*
%TO.C,H4*%
X45500000Y7000000D03*
%TD*%
D11*
%TO.C,R4*%
X20825000Y79200000D03*
X22475000Y79200000D03*
%TD*%
D16*
%TO.C,D3*%
X25000000Y78150000D03*
D17*
X25000000Y75775000D03*
%TD*%
D18*
%TO.C,R3*%
X22475000Y77365000D03*
X20825000Y77365000D03*
%TD*%
D19*
%TO.C,T1*%
X28621977Y71193193D03*
X21378023Y71193193D03*
X23169595Y32408661D03*
X26075000Y37553499D03*
%TD*%
D20*
%TO.C,J1*%
X22500000Y97000000D03*
D21*
X27500000Y97000000D03*
%TD*%
D15*
%TO.C,H1*%
X4500000Y87000000D03*
%TD*%
D22*
%TO.C,F1*%
X16900000Y97000000D03*
X14100000Y97000000D03*
%TD*%
D23*
%TO.C,U1*%
X13898500Y79905000D03*
X13898500Y78635000D03*
X13898500Y77365000D03*
X13898500Y76095000D03*
X19101500Y76095000D03*
X19101500Y77365000D03*
X19101500Y78635000D03*
X19101500Y79905000D03*
D24*
X16500000Y78000000D03*
%TD*%
D15*
%TO.C,H3*%
X4500000Y7000000D03*
%TD*%
D25*
%TO.C,R6*%
X30462500Y73600000D03*
X27537500Y73600000D03*
%TD*%
D26*
%TO.C,C2*%
X29000000Y76525000D03*
X29000000Y79475000D03*
%TD*%
D11*
%TO.C,R1*%
X14675000Y86000000D03*
X16325000Y86000000D03*
%TD*%
D27*
%TO.C,D2*%
X26000000Y25880000D03*
D28*
X25080000Y29862000D03*
X26920000Y29862000D03*
%TD*%
D29*
%TO.C,D4*%
X34000000Y78100000D03*
X34000000Y74100000D03*
%TD*%
D15*
%TO.C,H2*%
X45500000Y87000000D03*
%TD*%
D20*
%TO.C,J2*%
X27500000Y8000000D03*
D21*
X22500000Y8000000D03*
%TD*%
D30*
%TO.C,C1*%
X11975000Y76365000D03*
X9025000Y76365000D03*
%TD*%
D31*
%TO.C,D1*%
X13000000Y89000000D03*
X13000000Y93000000D03*
%TD*%
D32*
%TO.C,C4*%
X30025000Y25880000D03*
X32975000Y25880000D03*
%TD*%
D33*
%TO.C,C5*%
X12275000Y78800000D03*
X10725000Y78800000D03*
%TD*%
D34*
%TO.C,R5*%
X19101500Y81675000D03*
X19101500Y83325000D03*
%TD*%
D35*
X33200000Y23000000D03*
X17400000Y74350000D03*
M02*
