%TF.GenerationSoftware,KiCad,Pcbnew,10.0.6*%
%TF.CreationDate,2026-10-09T22:44:17+08:00*%
%TF.ProjectId,PS-FLYBACK-5W,50532d46-4c59-4424-9143-4b2d35572e6b,A5-development*%
%TF.SameCoordinates,Original*%
%TF.FileFunction,Legend,Top*%
%TF.FilePolarity,Positive*%
%FSLAX46Y46*%
G04 Gerber Fmt 4.6, Leading zero omitted, Abs format (unit mm)*
G04 Created by KiCad (PCBNEW 10.0.6) date 2026-10-09 22:44:17*
%MOMM*%
%LPD*%
G01*
G04 APERTURE LIST*
G04 Aperture macros list*
%AMRoundRect*
0 Rectangle with rounded corners*
0 $1 Rounding radius*
0 $2 $3 $4 $5 $6 $7 $8 $9 X,Y pos of 4 corners*
0 Add a 4 corners polygon primitive as box body*
4,1,4,$2,$3,$4,$5,$6,$7,$8,$9,$2,$3,0*
0 Add four circle primitives for the rounded corners*
1,1,$1+$1,$2,$3*
1,1,$1+$1,$4,$5*
1,1,$1+$1,$6,$7*
1,1,$1+$1,$8,$9*
0 Add four rect primitives between the rounded corners*
20,1,$1+$1,$2,$3,$4,$5,0*
20,1,$1+$1,$4,$5,$6,$7,0*
20,1,$1+$1,$6,$7,$8,$9,0*
20,1,$1+$1,$8,$9,$2,$3,0*%
G04 Aperture macros list end*
%ADD10C,0.150000*%
%ADD11C,0.250000*%
%ADD12C,0.220000*%
%ADD13C,0.200000*%
%ADD14C,0.000000*%
%ADD15R,2.400000X2.400000*%
%ADD16C,2.400000*%
%ADD17RoundRect,0.250000X0.325000X1.100000X-0.325000X1.100000X-0.325000X-1.100000X0.325000X-1.100000X0*%
%ADD18RoundRect,0.250000X0.250000X0.475000X-0.250000X0.475000X-0.250000X-0.475000X0.250000X-0.475000X0*%
%ADD19C,0.600000*%
%ADD20R,2.450000X3.700000*%
%ADD21C,3.200000*%
%ADD22RoundRect,0.250000X-0.500000X0.950000X-0.500000X-0.950000X0.500000X-0.950000X0.500000X0.950000X0*%
%ADD23RoundRect,0.250000X-0.500000X0.275000X-0.500000X-0.275000X0.500000X-0.275000X0.500000X0.275000X0*%
%ADD24RoundRect,0.250000X0.500000X-0.950000X0.500000X0.950000X-0.500000X0.950000X-0.500000X-0.950000X0*%
%ADD25RoundRect,0.250000X0.500000X-0.275000X0.500000X0.275000X-0.500000X0.275000X-0.500000X-0.275000X0*%
%ADD26RoundRect,0.250000X1.100000X-0.325000X1.100000X0.325000X-1.100000X0.325000X-1.100000X-0.325000X0*%
%ADD27RoundRect,0.200000X0.200000X0.275000X-0.200000X0.275000X-0.200000X-0.275000X0.200000X-0.275000X0*%
%ADD28RoundRect,0.200000X0.275000X-0.200000X0.275000X0.200000X-0.275000X0.200000X-0.275000X-0.200000X0*%
%ADD29R,1.600000X3.400000*%
%ADD30RoundRect,0.250000X-1.950000X-1.000000X1.950000X-1.000000X1.950000X1.000000X-1.950000X1.000000X0*%
%ADD31R,1.143000X0.760000*%
%ADD32R,2.260000X2.990000*%
%ADD33RoundRect,0.250000X-0.650000X1.000000X-0.650000X-1.000000X0.650000X-1.000000X0.650000X1.000000X0*%
%ADD34RoundRect,0.200000X-0.200000X-0.275000X0.200000X-0.275000X0.200000X0.275000X-0.200000X0.275000X0*%
%ADD35R,1.250000X1.650000*%
%ADD36RoundRect,0.250000X-0.325000X-1.100000X0.325000X-1.100000X0.325000X1.100000X-0.325000X1.100000X0*%
%ADD37R,3.360000X4.860000*%
%ADD38R,1.390000X1.400000*%
%ADD39RoundRect,0.225000X0.225000X0.250000X-0.225000X0.250000X-0.225000X-0.250000X0.225000X-0.250000X0*%
%ADD40R,3.500000X1.600000*%
%ADD41RoundRect,0.250000X-0.625000X0.312500X-0.625000X-0.312500X0.625000X-0.312500X0.625000X0.312500X0*%
%ADD42C,1.200000*%
G04 APERTURE END LIST*
D10*
X9714286Y63345181D02*
X9714286Y64345181D01*
X9714286Y64345181D02*
X10095238Y64345181D01*
X10095238Y64345181D02*
X10190476Y64297562D01*
X10190476Y64297562D02*
X10238095Y64249943D01*
X10238095Y64249943D02*
X10285714Y64154705D01*
X10285714Y64154705D02*
X10285714Y64011848D01*
X10285714Y64011848D02*
X10238095Y63916610D01*
X10238095Y63916610D02*
X10190476Y63868991D01*
X10190476Y63868991D02*
X10095238Y63821372D01*
X10095238Y63821372D02*
X9714286Y63821372D01*
X11238095Y64297562D02*
X11142857Y64345181D01*
X11142857Y64345181D02*
X11000000Y64345181D01*
X11000000Y64345181D02*
X10857143Y64297562D01*
X10857143Y64297562D02*
X10761905Y64202324D01*
X10761905Y64202324D02*
X10714286Y64107086D01*
X10714286Y64107086D02*
X10666667Y63916610D01*
X10666667Y63916610D02*
X10666667Y63773753D01*
X10666667Y63773753D02*
X10714286Y63583277D01*
X10714286Y63583277D02*
X10761905Y63488039D01*
X10761905Y63488039D02*
X10857143Y63392800D01*
X10857143Y63392800D02*
X11000000Y63345181D01*
X11000000Y63345181D02*
X11095238Y63345181D01*
X11095238Y63345181D02*
X11238095Y63392800D01*
X11238095Y63392800D02*
X11285714Y63440420D01*
X11285714Y63440420D02*
X11285714Y63773753D01*
X11285714Y63773753D02*
X11095238Y63773753D01*
X11714286Y63345181D02*
X11714286Y64345181D01*
X11714286Y64345181D02*
X12285714Y63345181D01*
X12285714Y63345181D02*
X12285714Y64345181D01*
X12761905Y63345181D02*
X12761905Y64345181D01*
X12761905Y64345181D02*
X13000000Y64345181D01*
X13000000Y64345181D02*
X13142857Y64297562D01*
X13142857Y64297562D02*
X13238095Y64202324D01*
X13238095Y64202324D02*
X13285714Y64107086D01*
X13285714Y64107086D02*
X13333333Y63916610D01*
X13333333Y63916610D02*
X13333333Y63773753D01*
X13333333Y63773753D02*
X13285714Y63583277D01*
X13285714Y63583277D02*
X13238095Y63488039D01*
X13238095Y63488039D02*
X13142857Y63392800D01*
X13142857Y63392800D02*
X13000000Y63345181D01*
X13000000Y63345181D02*
X12761905Y63345181D01*
X18333333Y91545181D02*
X18333333Y92545181D01*
X18809523Y91545181D02*
X18809523Y92545181D01*
X18809523Y92545181D02*
X19380951Y91545181D01*
X19380951Y91545181D02*
X19380951Y92545181D01*
X20619047Y91926134D02*
X21380952Y91926134D01*
X20999999Y91545181D02*
X20999999Y92307086D01*
X24904762Y91926134D02*
X25666667Y91926134D01*
X11214285Y56949943D02*
X11261904Y56997562D01*
X11261904Y56997562D02*
X11357142Y57045181D01*
X11357142Y57045181D02*
X11595237Y57045181D01*
X11595237Y57045181D02*
X11690475Y56997562D01*
X11690475Y56997562D02*
X11738094Y56949943D01*
X11738094Y56949943D02*
X11785713Y56854705D01*
X11785713Y56854705D02*
X11785713Y56759467D01*
X11785713Y56759467D02*
X11738094Y56616610D01*
X11738094Y56616610D02*
X11166666Y56045181D01*
X11166666Y56045181D02*
X11785713Y56045181D01*
X12880952Y56045181D02*
X13404761Y56711848D01*
X12880952Y56711848D02*
X13404761Y56045181D01*
X14738095Y57045181D02*
X14833333Y57045181D01*
X14833333Y57045181D02*
X14928571Y56997562D01*
X14928571Y56997562D02*
X14976190Y56949943D01*
X14976190Y56949943D02*
X15023809Y56854705D01*
X15023809Y56854705D02*
X15071428Y56664229D01*
X15071428Y56664229D02*
X15071428Y56426134D01*
X15071428Y56426134D02*
X15023809Y56235658D01*
X15023809Y56235658D02*
X14976190Y56140420D01*
X14976190Y56140420D02*
X14928571Y56092800D01*
X14928571Y56092800D02*
X14833333Y56045181D01*
X14833333Y56045181D02*
X14738095Y56045181D01*
X14738095Y56045181D02*
X14642857Y56092800D01*
X14642857Y56092800D02*
X14595238Y56140420D01*
X14595238Y56140420D02*
X14547619Y56235658D01*
X14547619Y56235658D02*
X14500000Y56426134D01*
X14500000Y56426134D02*
X14500000Y56664229D01*
X14500000Y56664229D02*
X14547619Y56854705D01*
X14547619Y56854705D02*
X14595238Y56949943D01*
X14595238Y56949943D02*
X14642857Y56997562D01*
X14642857Y56997562D02*
X14738095Y57045181D01*
X15500000Y56140420D02*
X15547619Y56092800D01*
X15547619Y56092800D02*
X15500000Y56045181D01*
X15500000Y56045181D02*
X15452381Y56092800D01*
X15452381Y56092800D02*
X15500000Y56140420D01*
X15500000Y56140420D02*
X15500000Y56045181D01*
X16166666Y57045181D02*
X16261904Y57045181D01*
X16261904Y57045181D02*
X16357142Y56997562D01*
X16357142Y56997562D02*
X16404761Y56949943D01*
X16404761Y56949943D02*
X16452380Y56854705D01*
X16452380Y56854705D02*
X16499999Y56664229D01*
X16499999Y56664229D02*
X16499999Y56426134D01*
X16499999Y56426134D02*
X16452380Y56235658D01*
X16452380Y56235658D02*
X16404761Y56140420D01*
X16404761Y56140420D02*
X16357142Y56092800D01*
X16357142Y56092800D02*
X16261904Y56045181D01*
X16261904Y56045181D02*
X16166666Y56045181D01*
X16166666Y56045181D02*
X16071428Y56092800D01*
X16071428Y56092800D02*
X16023809Y56140420D01*
X16023809Y56140420D02*
X15976190Y56235658D01*
X15976190Y56235658D02*
X15928571Y56426134D01*
X15928571Y56426134D02*
X15928571Y56664229D01*
X15928571Y56664229D02*
X15976190Y56854705D01*
X15976190Y56854705D02*
X16023809Y56949943D01*
X16023809Y56949943D02*
X16071428Y56997562D01*
X16071428Y56997562D02*
X16166666Y57045181D01*
X17404761Y57045181D02*
X16928571Y57045181D01*
X16928571Y57045181D02*
X16880952Y56568991D01*
X16880952Y56568991D02*
X16928571Y56616610D01*
X16928571Y56616610D02*
X17023809Y56664229D01*
X17023809Y56664229D02*
X17261904Y56664229D01*
X17261904Y56664229D02*
X17357142Y56616610D01*
X17357142Y56616610D02*
X17404761Y56568991D01*
X17404761Y56568991D02*
X17452380Y56473753D01*
X17452380Y56473753D02*
X17452380Y56235658D01*
X17452380Y56235658D02*
X17404761Y56140420D01*
X17404761Y56140420D02*
X17357142Y56092800D01*
X17357142Y56092800D02*
X17261904Y56045181D01*
X17261904Y56045181D02*
X17023809Y56045181D01*
X17023809Y56045181D02*
X16928571Y56092800D01*
X16928571Y56092800D02*
X16880952Y56140420D01*
X18642857Y56045181D02*
X18642857Y56711848D01*
X18642857Y56616610D02*
X18690476Y56664229D01*
X18690476Y56664229D02*
X18785714Y56711848D01*
X18785714Y56711848D02*
X18928571Y56711848D01*
X18928571Y56711848D02*
X19023809Y56664229D01*
X19023809Y56664229D02*
X19071428Y56568991D01*
X19071428Y56568991D02*
X19071428Y56045181D01*
X19071428Y56568991D02*
X19119047Y56664229D01*
X19119047Y56664229D02*
X19214285Y56711848D01*
X19214285Y56711848D02*
X19357142Y56711848D01*
X19357142Y56711848D02*
X19452381Y56664229D01*
X19452381Y56664229D02*
X19500000Y56568991D01*
X19500000Y56568991D02*
X19500000Y56045181D01*
X19976190Y56045181D02*
X19976190Y56711848D01*
X19976190Y56616610D02*
X20023809Y56664229D01*
X20023809Y56664229D02*
X20119047Y56711848D01*
X20119047Y56711848D02*
X20261904Y56711848D01*
X20261904Y56711848D02*
X20357142Y56664229D01*
X20357142Y56664229D02*
X20404761Y56568991D01*
X20404761Y56568991D02*
X20404761Y56045181D01*
X20404761Y56568991D02*
X20452380Y56664229D01*
X20452380Y56664229D02*
X20547618Y56711848D01*
X20547618Y56711848D02*
X20690475Y56711848D01*
X20690475Y56711848D02*
X20785714Y56664229D01*
X20785714Y56664229D02*
X20833333Y56568991D01*
X20833333Y56568991D02*
X20833333Y56045181D01*
X22595237Y56997562D02*
X22499999Y57045181D01*
X22499999Y57045181D02*
X22357142Y57045181D01*
X22357142Y57045181D02*
X22214285Y56997562D01*
X22214285Y56997562D02*
X22119047Y56902324D01*
X22119047Y56902324D02*
X22071428Y56807086D01*
X22071428Y56807086D02*
X22023809Y56616610D01*
X22023809Y56616610D02*
X22023809Y56473753D01*
X22023809Y56473753D02*
X22071428Y56283277D01*
X22071428Y56283277D02*
X22119047Y56188039D01*
X22119047Y56188039D02*
X22214285Y56092800D01*
X22214285Y56092800D02*
X22357142Y56045181D01*
X22357142Y56045181D02*
X22452380Y56045181D01*
X22452380Y56045181D02*
X22595237Y56092800D01*
X22595237Y56092800D02*
X22642856Y56140420D01*
X22642856Y56140420D02*
X22642856Y56473753D01*
X22642856Y56473753D02*
X22452380Y56473753D01*
X23023809Y56330896D02*
X23499999Y56330896D01*
X22928571Y56045181D02*
X23261904Y57045181D01*
X23261904Y57045181D02*
X23595237Y56045181D01*
X23928571Y56045181D02*
X23928571Y57045181D01*
X23928571Y57045181D02*
X24309523Y57045181D01*
X24309523Y57045181D02*
X24404761Y56997562D01*
X24404761Y56997562D02*
X24452380Y56949943D01*
X24452380Y56949943D02*
X24499999Y56854705D01*
X24499999Y56854705D02*
X24499999Y56711848D01*
X24499999Y56711848D02*
X24452380Y56616610D01*
X24452380Y56616610D02*
X24404761Y56568991D01*
X24404761Y56568991D02*
X24309523Y56521372D01*
X24309523Y56521372D02*
X23928571Y56521372D01*
X24928571Y56045181D02*
X24928571Y57045181D01*
X24928571Y57045181D02*
X25309523Y57045181D01*
X25309523Y57045181D02*
X25404761Y56997562D01*
X25404761Y56997562D02*
X25452380Y56949943D01*
X25452380Y56949943D02*
X25499999Y56854705D01*
X25499999Y56854705D02*
X25499999Y56711848D01*
X25499999Y56711848D02*
X25452380Y56616610D01*
X25452380Y56616610D02*
X25404761Y56568991D01*
X25404761Y56568991D02*
X25309523Y56521372D01*
X25309523Y56521372D02*
X24928571Y56521372D01*
X25928571Y56568991D02*
X26261904Y56568991D01*
X26404761Y56045181D02*
X25928571Y56045181D01*
X25928571Y56045181D02*
X25928571Y57045181D01*
X25928571Y57045181D02*
X26404761Y57045181D01*
X26833333Y56045181D02*
X26833333Y57045181D01*
X26833333Y57045181D02*
X27071428Y57045181D01*
X27071428Y57045181D02*
X27214285Y56997562D01*
X27214285Y56997562D02*
X27309523Y56902324D01*
X27309523Y56902324D02*
X27357142Y56807086D01*
X27357142Y56807086D02*
X27404761Y56616610D01*
X27404761Y56616610D02*
X27404761Y56473753D01*
X27404761Y56473753D02*
X27357142Y56283277D01*
X27357142Y56283277D02*
X27309523Y56188039D01*
X27309523Y56188039D02*
X27214285Y56092800D01*
X27214285Y56092800D02*
X27071428Y56045181D01*
X27071428Y56045181D02*
X26833333Y56045181D01*
X28595238Y56568991D02*
X28928571Y56568991D01*
X29071428Y56045181D02*
X28595238Y56045181D01*
X28595238Y56045181D02*
X28595238Y57045181D01*
X28595238Y57045181D02*
X29071428Y57045181D01*
X29976190Y56045181D02*
X29500000Y56045181D01*
X29500000Y56045181D02*
X29500000Y57045181D01*
X30309524Y56045181D02*
X30309524Y57045181D01*
X30309524Y57045181D02*
X30690476Y57045181D01*
X30690476Y57045181D02*
X30785714Y56997562D01*
X30785714Y56997562D02*
X30833333Y56949943D01*
X30833333Y56949943D02*
X30880952Y56854705D01*
X30880952Y56854705D02*
X30880952Y56711848D01*
X30880952Y56711848D02*
X30833333Y56616610D01*
X30833333Y56616610D02*
X30785714Y56568991D01*
X30785714Y56568991D02*
X30690476Y56521372D01*
X30690476Y56521372D02*
X30309524Y56521372D01*
X31261905Y56949943D02*
X31309524Y56997562D01*
X31309524Y56997562D02*
X31404762Y57045181D01*
X31404762Y57045181D02*
X31642857Y57045181D01*
X31642857Y57045181D02*
X31738095Y56997562D01*
X31738095Y56997562D02*
X31785714Y56949943D01*
X31785714Y56949943D02*
X31833333Y56854705D01*
X31833333Y56854705D02*
X31833333Y56759467D01*
X31833333Y56759467D02*
X31785714Y56616610D01*
X31785714Y56616610D02*
X31214286Y56045181D01*
X31214286Y56045181D02*
X31833333Y56045181D01*
X32214286Y56949943D02*
X32261905Y56997562D01*
X32261905Y56997562D02*
X32357143Y57045181D01*
X32357143Y57045181D02*
X32595238Y57045181D01*
X32595238Y57045181D02*
X32690476Y56997562D01*
X32690476Y56997562D02*
X32738095Y56949943D01*
X32738095Y56949943D02*
X32785714Y56854705D01*
X32785714Y56854705D02*
X32785714Y56759467D01*
X32785714Y56759467D02*
X32738095Y56616610D01*
X32738095Y56616610D02*
X32166667Y56045181D01*
X32166667Y56045181D02*
X32785714Y56045181D01*
X17857142Y2545181D02*
X18047618Y2545181D01*
X18047618Y2545181D02*
X18142856Y2497562D01*
X18142856Y2497562D02*
X18238094Y2402324D01*
X18238094Y2402324D02*
X18285713Y2211848D01*
X18285713Y2211848D02*
X18285713Y1878515D01*
X18285713Y1878515D02*
X18238094Y1688039D01*
X18238094Y1688039D02*
X18142856Y1592800D01*
X18142856Y1592800D02*
X18047618Y1545181D01*
X18047618Y1545181D02*
X17857142Y1545181D01*
X17857142Y1545181D02*
X17761904Y1592800D01*
X17761904Y1592800D02*
X17666666Y1688039D01*
X17666666Y1688039D02*
X17619047Y1878515D01*
X17619047Y1878515D02*
X17619047Y2211848D01*
X17619047Y2211848D02*
X17666666Y2402324D01*
X17666666Y2402324D02*
X17761904Y2497562D01*
X17761904Y2497562D02*
X17857142Y2545181D01*
X18714285Y2545181D02*
X18714285Y1735658D01*
X18714285Y1735658D02*
X18761904Y1640420D01*
X18761904Y1640420D02*
X18809523Y1592800D01*
X18809523Y1592800D02*
X18904761Y1545181D01*
X18904761Y1545181D02*
X19095237Y1545181D01*
X19095237Y1545181D02*
X19190475Y1592800D01*
X19190475Y1592800D02*
X19238094Y1640420D01*
X19238094Y1640420D02*
X19285713Y1735658D01*
X19285713Y1735658D02*
X19285713Y2545181D01*
X19619047Y2545181D02*
X20190475Y2545181D01*
X19904761Y1545181D02*
X19904761Y2545181D01*
X21285714Y1926134D02*
X22047619Y1926134D01*
X25571429Y1926134D02*
X26333334Y1926134D01*
X25952381Y1545181D02*
X25952381Y2307086D01*
X28428571Y84545181D02*
X27857143Y84545181D01*
X28142857Y84545181D02*
X28142857Y85545181D01*
X28142857Y85545181D02*
X28047619Y85402324D01*
X28047619Y85402324D02*
X27952381Y85307086D01*
X27952381Y85307086D02*
X27857143Y85259467D01*
X29000000Y85116610D02*
X28904762Y85164229D01*
X28904762Y85164229D02*
X28857143Y85211848D01*
X28857143Y85211848D02*
X28809524Y85307086D01*
X28809524Y85307086D02*
X28809524Y85354705D01*
X28809524Y85354705D02*
X28857143Y85449943D01*
X28857143Y85449943D02*
X28904762Y85497562D01*
X28904762Y85497562D02*
X29000000Y85545181D01*
X29000000Y85545181D02*
X29190476Y85545181D01*
X29190476Y85545181D02*
X29285714Y85497562D01*
X29285714Y85497562D02*
X29333333Y85449943D01*
X29333333Y85449943D02*
X29380952Y85354705D01*
X29380952Y85354705D02*
X29380952Y85307086D01*
X29380952Y85307086D02*
X29333333Y85211848D01*
X29333333Y85211848D02*
X29285714Y85164229D01*
X29285714Y85164229D02*
X29190476Y85116610D01*
X29190476Y85116610D02*
X29000000Y85116610D01*
X29000000Y85116610D02*
X28904762Y85068991D01*
X28904762Y85068991D02*
X28857143Y85021372D01*
X28857143Y85021372D02*
X28809524Y84926134D01*
X28809524Y84926134D02*
X28809524Y84735658D01*
X28809524Y84735658D02*
X28857143Y84640420D01*
X28857143Y84640420D02*
X28904762Y84592800D01*
X28904762Y84592800D02*
X29000000Y84545181D01*
X29000000Y84545181D02*
X29190476Y84545181D01*
X29190476Y84545181D02*
X29285714Y84592800D01*
X29285714Y84592800D02*
X29333333Y84640420D01*
X29333333Y84640420D02*
X29380952Y84735658D01*
X29380952Y84735658D02*
X29380952Y84926134D01*
X29380952Y84926134D02*
X29333333Y85021372D01*
X29333333Y85021372D02*
X29285714Y85068991D01*
X29285714Y85068991D02*
X29190476Y85116610D01*
X29809524Y84926134D02*
X30571429Y84926134D01*
X30952381Y85545181D02*
X31571428Y85545181D01*
X31571428Y85545181D02*
X31238095Y85164229D01*
X31238095Y85164229D02*
X31380952Y85164229D01*
X31380952Y85164229D02*
X31476190Y85116610D01*
X31476190Y85116610D02*
X31523809Y85068991D01*
X31523809Y85068991D02*
X31571428Y84973753D01*
X31571428Y84973753D02*
X31571428Y84735658D01*
X31571428Y84735658D02*
X31523809Y84640420D01*
X31523809Y84640420D02*
X31476190Y84592800D01*
X31476190Y84592800D02*
X31380952Y84545181D01*
X31380952Y84545181D02*
X31095238Y84545181D01*
X31095238Y84545181D02*
X31000000Y84592800D01*
X31000000Y84592800D02*
X30952381Y84640420D01*
X32428571Y85545181D02*
X32238095Y85545181D01*
X32238095Y85545181D02*
X32142857Y85497562D01*
X32142857Y85497562D02*
X32095238Y85449943D01*
X32095238Y85449943D02*
X32000000Y85307086D01*
X32000000Y85307086D02*
X31952381Y85116610D01*
X31952381Y85116610D02*
X31952381Y84735658D01*
X31952381Y84735658D02*
X32000000Y84640420D01*
X32000000Y84640420D02*
X32047619Y84592800D01*
X32047619Y84592800D02*
X32142857Y84545181D01*
X32142857Y84545181D02*
X32333333Y84545181D01*
X32333333Y84545181D02*
X32428571Y84592800D01*
X32428571Y84592800D02*
X32476190Y84640420D01*
X32476190Y84640420D02*
X32523809Y84735658D01*
X32523809Y84735658D02*
X32523809Y84973753D01*
X32523809Y84973753D02*
X32476190Y85068991D01*
X32476190Y85068991D02*
X32428571Y85116610D01*
X32428571Y85116610D02*
X32333333Y85164229D01*
X32333333Y85164229D02*
X32142857Y85164229D01*
X32142857Y85164229D02*
X32047619Y85116610D01*
X32047619Y85116610D02*
X32000000Y85068991D01*
X32000000Y85068991D02*
X31952381Y84973753D01*
X32809524Y85545181D02*
X33142857Y84545181D01*
X33142857Y84545181D02*
X33476190Y85545181D01*
X34571429Y84545181D02*
X34571429Y85545181D01*
X34571429Y85545181D02*
X34809524Y85545181D01*
X34809524Y85545181D02*
X34952381Y85497562D01*
X34952381Y85497562D02*
X35047619Y85402324D01*
X35047619Y85402324D02*
X35095238Y85307086D01*
X35095238Y85307086D02*
X35142857Y85116610D01*
X35142857Y85116610D02*
X35142857Y84973753D01*
X35142857Y84973753D02*
X35095238Y84783277D01*
X35095238Y84783277D02*
X35047619Y84688039D01*
X35047619Y84688039D02*
X34952381Y84592800D01*
X34952381Y84592800D02*
X34809524Y84545181D01*
X34809524Y84545181D02*
X34571429Y84545181D01*
X36142857Y84640420D02*
X36095238Y84592800D01*
X36095238Y84592800D02*
X35952381Y84545181D01*
X35952381Y84545181D02*
X35857143Y84545181D01*
X35857143Y84545181D02*
X35714286Y84592800D01*
X35714286Y84592800D02*
X35619048Y84688039D01*
X35619048Y84688039D02*
X35571429Y84783277D01*
X35571429Y84783277D02*
X35523810Y84973753D01*
X35523810Y84973753D02*
X35523810Y85116610D01*
X35523810Y85116610D02*
X35571429Y85307086D01*
X35571429Y85307086D02*
X35619048Y85402324D01*
X35619048Y85402324D02*
X35714286Y85497562D01*
X35714286Y85497562D02*
X35857143Y85545181D01*
X35857143Y85545181D02*
X35952381Y85545181D01*
X35952381Y85545181D02*
X36095238Y85497562D01*
X36095238Y85497562D02*
X36142857Y85449943D01*
X30595238Y21245181D02*
X30595238Y22245181D01*
X31023809Y21292800D02*
X31166666Y21245181D01*
X31166666Y21245181D02*
X31404761Y21245181D01*
X31404761Y21245181D02*
X31499999Y21292800D01*
X31499999Y21292800D02*
X31547618Y21340420D01*
X31547618Y21340420D02*
X31595237Y21435658D01*
X31595237Y21435658D02*
X31595237Y21530896D01*
X31595237Y21530896D02*
X31547618Y21626134D01*
X31547618Y21626134D02*
X31499999Y21673753D01*
X31499999Y21673753D02*
X31404761Y21721372D01*
X31404761Y21721372D02*
X31214285Y21768991D01*
X31214285Y21768991D02*
X31119047Y21816610D01*
X31119047Y21816610D02*
X31071428Y21864229D01*
X31071428Y21864229D02*
X31023809Y21959467D01*
X31023809Y21959467D02*
X31023809Y22054705D01*
X31023809Y22054705D02*
X31071428Y22149943D01*
X31071428Y22149943D02*
X31119047Y22197562D01*
X31119047Y22197562D02*
X31214285Y22245181D01*
X31214285Y22245181D02*
X31452380Y22245181D01*
X31452380Y22245181D02*
X31595237Y22197562D01*
X32214285Y22245181D02*
X32404761Y22245181D01*
X32404761Y22245181D02*
X32499999Y22197562D01*
X32499999Y22197562D02*
X32595237Y22102324D01*
X32595237Y22102324D02*
X32642856Y21911848D01*
X32642856Y21911848D02*
X32642856Y21578515D01*
X32642856Y21578515D02*
X32595237Y21388039D01*
X32595237Y21388039D02*
X32499999Y21292800D01*
X32499999Y21292800D02*
X32404761Y21245181D01*
X32404761Y21245181D02*
X32214285Y21245181D01*
X32214285Y21245181D02*
X32119047Y21292800D01*
X32119047Y21292800D02*
X32023809Y21388039D01*
X32023809Y21388039D02*
X31976190Y21578515D01*
X31976190Y21578515D02*
X31976190Y21911848D01*
X31976190Y21911848D02*
X32023809Y22102324D01*
X32023809Y22102324D02*
X32119047Y22197562D01*
X32119047Y22197562D02*
X32214285Y22245181D01*
X34357142Y22197562D02*
X34261904Y22245181D01*
X34261904Y22245181D02*
X34119047Y22245181D01*
X34119047Y22245181D02*
X33976190Y22197562D01*
X33976190Y22197562D02*
X33880952Y22102324D01*
X33880952Y22102324D02*
X33833333Y22007086D01*
X33833333Y22007086D02*
X33785714Y21816610D01*
X33785714Y21816610D02*
X33785714Y21673753D01*
X33785714Y21673753D02*
X33833333Y21483277D01*
X33833333Y21483277D02*
X33880952Y21388039D01*
X33880952Y21388039D02*
X33976190Y21292800D01*
X33976190Y21292800D02*
X34119047Y21245181D01*
X34119047Y21245181D02*
X34214285Y21245181D01*
X34214285Y21245181D02*
X34357142Y21292800D01*
X34357142Y21292800D02*
X34404761Y21340420D01*
X34404761Y21340420D02*
X34404761Y21673753D01*
X34404761Y21673753D02*
X34214285Y21673753D01*
X34833333Y21245181D02*
X34833333Y22245181D01*
X34833333Y22245181D02*
X35404761Y21245181D01*
X35404761Y21245181D02*
X35404761Y22245181D01*
X35880952Y21245181D02*
X35880952Y22245181D01*
X35880952Y22245181D02*
X36119047Y22245181D01*
X36119047Y22245181D02*
X36261904Y22197562D01*
X36261904Y22197562D02*
X36357142Y22102324D01*
X36357142Y22102324D02*
X36404761Y22007086D01*
X36404761Y22007086D02*
X36452380Y21816610D01*
X36452380Y21816610D02*
X36452380Y21673753D01*
X36452380Y21673753D02*
X36404761Y21483277D01*
X36404761Y21483277D02*
X36357142Y21388039D01*
X36357142Y21388039D02*
X36261904Y21292800D01*
X36261904Y21292800D02*
X36119047Y21245181D01*
X36119047Y21245181D02*
X35880952Y21245181D01*
X33523809Y10545181D02*
X33047619Y10545181D01*
X33047619Y10545181D02*
X33000000Y10068991D01*
X33000000Y10068991D02*
X33047619Y10116610D01*
X33047619Y10116610D02*
X33142857Y10164229D01*
X33142857Y10164229D02*
X33380952Y10164229D01*
X33380952Y10164229D02*
X33476190Y10116610D01*
X33476190Y10116610D02*
X33523809Y10068991D01*
X33523809Y10068991D02*
X33571428Y9973753D01*
X33571428Y9973753D02*
X33571428Y9735658D01*
X33571428Y9735658D02*
X33523809Y9640420D01*
X33523809Y9640420D02*
X33476190Y9592800D01*
X33476190Y9592800D02*
X33380952Y9545181D01*
X33380952Y9545181D02*
X33142857Y9545181D01*
X33142857Y9545181D02*
X33047619Y9592800D01*
X33047619Y9592800D02*
X33000000Y9640420D01*
X33857143Y10545181D02*
X34190476Y9545181D01*
X34190476Y9545181D02*
X34523809Y10545181D01*
X36142857Y9545181D02*
X35571429Y9545181D01*
X35857143Y9545181D02*
X35857143Y10545181D01*
X35857143Y10545181D02*
X35761905Y10402324D01*
X35761905Y10402324D02*
X35666667Y10307086D01*
X35666667Y10307086D02*
X35571429Y10259467D01*
X36523810Y9830896D02*
X37000000Y9830896D01*
X36428572Y9545181D02*
X36761905Y10545181D01*
X36761905Y10545181D02*
X37095238Y9545181D01*
X15400000Y57498920D02*
X15400000Y58598920D01*
X15400000Y58598920D02*
X15819048Y58598920D01*
X15819048Y58598920D02*
X15923810Y58546539D01*
X15923810Y58546539D02*
X15976191Y58494158D01*
X15976191Y58494158D02*
X16028572Y58389396D01*
X16028572Y58389396D02*
X16028572Y58232253D01*
X16028572Y58232253D02*
X15976191Y58127491D01*
X15976191Y58127491D02*
X15923810Y58075110D01*
X15923810Y58075110D02*
X15819048Y58022729D01*
X15819048Y58022729D02*
X15400000Y58022729D01*
X17128572Y57603681D02*
X17076191Y57551300D01*
X17076191Y57551300D02*
X16919048Y57498920D01*
X16919048Y57498920D02*
X16814286Y57498920D01*
X16814286Y57498920D02*
X16657143Y57551300D01*
X16657143Y57551300D02*
X16552381Y57656062D01*
X16552381Y57656062D02*
X16500000Y57760824D01*
X16500000Y57760824D02*
X16447619Y57970348D01*
X16447619Y57970348D02*
X16447619Y58127491D01*
X16447619Y58127491D02*
X16500000Y58337015D01*
X16500000Y58337015D02*
X16552381Y58441777D01*
X16552381Y58441777D02*
X16657143Y58546539D01*
X16657143Y58546539D02*
X16814286Y58598920D01*
X16814286Y58598920D02*
X16919048Y58598920D01*
X16919048Y58598920D02*
X17076191Y58546539D01*
X17076191Y58546539D02*
X17128572Y58494158D01*
X17966667Y58075110D02*
X18123810Y58022729D01*
X18123810Y58022729D02*
X18176191Y57970348D01*
X18176191Y57970348D02*
X18228572Y57865586D01*
X18228572Y57865586D02*
X18228572Y57708443D01*
X18228572Y57708443D02*
X18176191Y57603681D01*
X18176191Y57603681D02*
X18123810Y57551300D01*
X18123810Y57551300D02*
X18019048Y57498920D01*
X18019048Y57498920D02*
X17600000Y57498920D01*
X17600000Y57498920D02*
X17600000Y58598920D01*
X17600000Y58598920D02*
X17966667Y58598920D01*
X17966667Y58598920D02*
X18071429Y58546539D01*
X18071429Y58546539D02*
X18123810Y58494158D01*
X18123810Y58494158D02*
X18176191Y58389396D01*
X18176191Y58389396D02*
X18176191Y58284634D01*
X18176191Y58284634D02*
X18123810Y58179872D01*
X18123810Y58179872D02*
X18071429Y58127491D01*
X18071429Y58127491D02*
X17966667Y58075110D01*
X17966667Y58075110D02*
X17600000Y58075110D01*
X19538095Y57498920D02*
X19538095Y58598920D01*
X19538095Y58598920D02*
X19957143Y58598920D01*
X19957143Y58598920D02*
X20061905Y58546539D01*
X20061905Y58546539D02*
X20114286Y58494158D01*
X20114286Y58494158D02*
X20166667Y58389396D01*
X20166667Y58389396D02*
X20166667Y58232253D01*
X20166667Y58232253D02*
X20114286Y58127491D01*
X20114286Y58127491D02*
X20061905Y58075110D01*
X20061905Y58075110D02*
X19957143Y58022729D01*
X19957143Y58022729D02*
X19538095Y58022729D01*
X21161905Y57498920D02*
X20638095Y57498920D01*
X20638095Y57498920D02*
X20638095Y58598920D01*
X21476190Y57813205D02*
X22000000Y57813205D01*
X21371428Y57498920D02*
X21738095Y58598920D01*
X21738095Y58598920D02*
X22104762Y57498920D01*
X22471428Y57498920D02*
X22471428Y58598920D01*
X22471428Y58598920D02*
X23100000Y57498920D01*
X23100000Y57498920D02*
X23100000Y58598920D01*
X23571428Y57813205D02*
X24095238Y57813205D01*
X23466666Y57498920D02*
X23833333Y58598920D01*
X23833333Y58598920D02*
X24200000Y57498920D01*
X25195238Y57498920D02*
X24828571Y58022729D01*
X24566666Y57498920D02*
X24566666Y58598920D01*
X24566666Y58598920D02*
X24985714Y58598920D01*
X24985714Y58598920D02*
X25090476Y58546539D01*
X25090476Y58546539D02*
X25142857Y58494158D01*
X25142857Y58494158D02*
X25195238Y58389396D01*
X25195238Y58389396D02*
X25195238Y58232253D01*
X25195238Y58232253D02*
X25142857Y58127491D01*
X25142857Y58127491D02*
X25090476Y58075110D01*
X25090476Y58075110D02*
X24985714Y58022729D01*
X24985714Y58022729D02*
X24566666Y58022729D01*
X26976190Y58232253D02*
X26976190Y57498920D01*
X26714285Y58651300D02*
X26452380Y57865586D01*
X26452380Y57865586D02*
X27133333Y57865586D01*
X27552380Y57603681D02*
X27604761Y57551300D01*
X27604761Y57551300D02*
X27552380Y57498920D01*
X27552380Y57498920D02*
X27499999Y57551300D01*
X27499999Y57551300D02*
X27552380Y57603681D01*
X27552380Y57603681D02*
X27552380Y57498920D01*
X27552380Y58179872D02*
X27604761Y58127491D01*
X27604761Y58127491D02*
X27552380Y58075110D01*
X27552380Y58075110D02*
X27499999Y58127491D01*
X27499999Y58127491D02*
X27552380Y58179872D01*
X27552380Y58179872D02*
X27552380Y58075110D01*
X28023809Y58494158D02*
X28076190Y58546539D01*
X28076190Y58546539D02*
X28180952Y58598920D01*
X28180952Y58598920D02*
X28442857Y58598920D01*
X28442857Y58598920D02*
X28547619Y58546539D01*
X28547619Y58546539D02*
X28600000Y58494158D01*
X28600000Y58494158D02*
X28652381Y58389396D01*
X28652381Y58389396D02*
X28652381Y58284634D01*
X28652381Y58284634D02*
X28600000Y58127491D01*
X28600000Y58127491D02*
X27971428Y57498920D01*
X27971428Y57498920D02*
X28652381Y57498920D01*
X30166666Y89045181D02*
X30166666Y88330896D01*
X30166666Y88330896D02*
X30119047Y88188039D01*
X30119047Y88188039D02*
X30023809Y88092800D01*
X30023809Y88092800D02*
X29880952Y88045181D01*
X29880952Y88045181D02*
X29785714Y88045181D01*
X31166666Y88045181D02*
X30595238Y88045181D01*
X30880952Y88045181D02*
X30880952Y89045181D01*
X30880952Y89045181D02*
X30785714Y88902324D01*
X30785714Y88902324D02*
X30690476Y88807086D01*
X30690476Y88807086D02*
X30595238Y88759467D01*
X5833333Y63840420D02*
X5785714Y63792800D01*
X5785714Y63792800D02*
X5642857Y63745181D01*
X5642857Y63745181D02*
X5547619Y63745181D01*
X5547619Y63745181D02*
X5404762Y63792800D01*
X5404762Y63792800D02*
X5309524Y63888039D01*
X5309524Y63888039D02*
X5261905Y63983277D01*
X5261905Y63983277D02*
X5214286Y64173753D01*
X5214286Y64173753D02*
X5214286Y64316610D01*
X5214286Y64316610D02*
X5261905Y64507086D01*
X5261905Y64507086D02*
X5309524Y64602324D01*
X5309524Y64602324D02*
X5404762Y64697562D01*
X5404762Y64697562D02*
X5547619Y64745181D01*
X5547619Y64745181D02*
X5642857Y64745181D01*
X5642857Y64745181D02*
X5785714Y64697562D01*
X5785714Y64697562D02*
X5833333Y64649943D01*
X6785714Y63745181D02*
X6214286Y63745181D01*
X6500000Y63745181D02*
X6500000Y64745181D01*
X6500000Y64745181D02*
X6404762Y64602324D01*
X6404762Y64602324D02*
X6309524Y64507086D01*
X6309524Y64507086D02*
X6214286Y64459467D01*
X21833333Y61440420D02*
X21785714Y61392800D01*
X21785714Y61392800D02*
X21642857Y61345181D01*
X21642857Y61345181D02*
X21547619Y61345181D01*
X21547619Y61345181D02*
X21404762Y61392800D01*
X21404762Y61392800D02*
X21309524Y61488039D01*
X21309524Y61488039D02*
X21261905Y61583277D01*
X21261905Y61583277D02*
X21214286Y61773753D01*
X21214286Y61773753D02*
X21214286Y61916610D01*
X21214286Y61916610D02*
X21261905Y62107086D01*
X21261905Y62107086D02*
X21309524Y62202324D01*
X21309524Y62202324D02*
X21404762Y62297562D01*
X21404762Y62297562D02*
X21547619Y62345181D01*
X21547619Y62345181D02*
X21642857Y62345181D01*
X21642857Y62345181D02*
X21785714Y62297562D01*
X21785714Y62297562D02*
X21833333Y62249943D01*
X22690476Y62345181D02*
X22500000Y62345181D01*
X22500000Y62345181D02*
X22404762Y62297562D01*
X22404762Y62297562D02*
X22357143Y62249943D01*
X22357143Y62249943D02*
X22261905Y62107086D01*
X22261905Y62107086D02*
X22214286Y61916610D01*
X22214286Y61916610D02*
X22214286Y61535658D01*
X22214286Y61535658D02*
X22261905Y61440420D01*
X22261905Y61440420D02*
X22309524Y61392800D01*
X22309524Y61392800D02*
X22404762Y61345181D01*
X22404762Y61345181D02*
X22595238Y61345181D01*
X22595238Y61345181D02*
X22690476Y61392800D01*
X22690476Y61392800D02*
X22738095Y61440420D01*
X22738095Y61440420D02*
X22785714Y61535658D01*
X22785714Y61535658D02*
X22785714Y61773753D01*
X22785714Y61773753D02*
X22738095Y61868991D01*
X22738095Y61868991D02*
X22690476Y61916610D01*
X22690476Y61916610D02*
X22595238Y61964229D01*
X22595238Y61964229D02*
X22404762Y61964229D01*
X22404762Y61964229D02*
X22309524Y61916610D01*
X22309524Y61916610D02*
X22261905Y61868991D01*
X22261905Y61868991D02*
X22214286Y61773753D01*
X17285714Y61749943D02*
X17333333Y61797562D01*
X17333333Y61797562D02*
X17428571Y61845181D01*
X17428571Y61845181D02*
X17666666Y61845181D01*
X17666666Y61845181D02*
X17761904Y61797562D01*
X17761904Y61797562D02*
X17809523Y61749943D01*
X17809523Y61749943D02*
X17857142Y61654705D01*
X17857142Y61654705D02*
X17857142Y61559467D01*
X17857142Y61559467D02*
X17809523Y61416610D01*
X17809523Y61416610D02*
X17238095Y60845181D01*
X17238095Y60845181D02*
X17857142Y60845181D01*
X19000000Y60892800D02*
X19142857Y60845181D01*
X19142857Y60845181D02*
X19380952Y60845181D01*
X19380952Y60845181D02*
X19476190Y60892800D01*
X19476190Y60892800D02*
X19523809Y60940420D01*
X19523809Y60940420D02*
X19571428Y61035658D01*
X19571428Y61035658D02*
X19571428Y61130896D01*
X19571428Y61130896D02*
X19523809Y61226134D01*
X19523809Y61226134D02*
X19476190Y61273753D01*
X19476190Y61273753D02*
X19380952Y61321372D01*
X19380952Y61321372D02*
X19190476Y61368991D01*
X19190476Y61368991D02*
X19095238Y61416610D01*
X19095238Y61416610D02*
X19047619Y61464229D01*
X19047619Y61464229D02*
X19000000Y61559467D01*
X19000000Y61559467D02*
X19000000Y61654705D01*
X19000000Y61654705D02*
X19047619Y61749943D01*
X19047619Y61749943D02*
X19095238Y61797562D01*
X19095238Y61797562D02*
X19190476Y61845181D01*
X19190476Y61845181D02*
X19428571Y61845181D01*
X19428571Y61845181D02*
X19571428Y61797562D01*
X19904762Y61845181D02*
X20142857Y60845181D01*
X20142857Y60845181D02*
X20333333Y61559467D01*
X20333333Y61559467D02*
X20523809Y60845181D01*
X20523809Y60845181D02*
X20761905Y61845181D01*
X16761905Y32645181D02*
X17380952Y32645181D01*
X17380952Y32645181D02*
X17047619Y32264229D01*
X17047619Y32264229D02*
X17190476Y32264229D01*
X17190476Y32264229D02*
X17285714Y32216610D01*
X17285714Y32216610D02*
X17333333Y32168991D01*
X17333333Y32168991D02*
X17380952Y32073753D01*
X17380952Y32073753D02*
X17380952Y31835658D01*
X17380952Y31835658D02*
X17333333Y31740420D01*
X17333333Y31740420D02*
X17285714Y31692800D01*
X17285714Y31692800D02*
X17190476Y31645181D01*
X17190476Y31645181D02*
X16904762Y31645181D01*
X16904762Y31645181D02*
X16809524Y31692800D01*
X16809524Y31692800D02*
X16761905Y31740420D01*
X19095238Y32597562D02*
X19000000Y32645181D01*
X19000000Y32645181D02*
X18857143Y32645181D01*
X18857143Y32645181D02*
X18714286Y32597562D01*
X18714286Y32597562D02*
X18619048Y32502324D01*
X18619048Y32502324D02*
X18571429Y32407086D01*
X18571429Y32407086D02*
X18523810Y32216610D01*
X18523810Y32216610D02*
X18523810Y32073753D01*
X18523810Y32073753D02*
X18571429Y31883277D01*
X18571429Y31883277D02*
X18619048Y31788039D01*
X18619048Y31788039D02*
X18714286Y31692800D01*
X18714286Y31692800D02*
X18857143Y31645181D01*
X18857143Y31645181D02*
X18952381Y31645181D01*
X18952381Y31645181D02*
X19095238Y31692800D01*
X19095238Y31692800D02*
X19142857Y31740420D01*
X19142857Y31740420D02*
X19142857Y32073753D01*
X19142857Y32073753D02*
X18952381Y32073753D01*
X19571429Y31645181D02*
X19571429Y32645181D01*
X19571429Y32645181D02*
X20142857Y31645181D01*
X20142857Y31645181D02*
X20142857Y32645181D01*
X20619048Y31645181D02*
X20619048Y32645181D01*
X20619048Y32645181D02*
X20857143Y32645181D01*
X20857143Y32645181D02*
X21000000Y32597562D01*
X21000000Y32597562D02*
X21095238Y32502324D01*
X21095238Y32502324D02*
X21142857Y32407086D01*
X21142857Y32407086D02*
X21190476Y32216610D01*
X21190476Y32216610D02*
X21190476Y32073753D01*
X21190476Y32073753D02*
X21142857Y31883277D01*
X21142857Y31883277D02*
X21095238Y31788039D01*
X21095238Y31788039D02*
X21000000Y31692800D01*
X21000000Y31692800D02*
X20857143Y31645181D01*
X20857143Y31645181D02*
X20619048Y31645181D01*
X24880952Y36811848D02*
X24880952Y36145181D01*
X24642857Y37192800D02*
X24404762Y36478515D01*
X24404762Y36478515D02*
X25023809Y36478515D01*
X26119048Y36192800D02*
X26261905Y36145181D01*
X26261905Y36145181D02*
X26500000Y36145181D01*
X26500000Y36145181D02*
X26595238Y36192800D01*
X26595238Y36192800D02*
X26642857Y36240420D01*
X26642857Y36240420D02*
X26690476Y36335658D01*
X26690476Y36335658D02*
X26690476Y36430896D01*
X26690476Y36430896D02*
X26642857Y36526134D01*
X26642857Y36526134D02*
X26595238Y36573753D01*
X26595238Y36573753D02*
X26500000Y36621372D01*
X26500000Y36621372D02*
X26309524Y36668991D01*
X26309524Y36668991D02*
X26214286Y36716610D01*
X26214286Y36716610D02*
X26166667Y36764229D01*
X26166667Y36764229D02*
X26119048Y36859467D01*
X26119048Y36859467D02*
X26119048Y36954705D01*
X26119048Y36954705D02*
X26166667Y37049943D01*
X26166667Y37049943D02*
X26214286Y37097562D01*
X26214286Y37097562D02*
X26309524Y37145181D01*
X26309524Y37145181D02*
X26547619Y37145181D01*
X26547619Y37145181D02*
X26690476Y37097562D01*
X27119048Y36668991D02*
X27452381Y36668991D01*
X27595238Y36145181D02*
X27119048Y36145181D01*
X27119048Y36145181D02*
X27119048Y37145181D01*
X27119048Y37145181D02*
X27595238Y37145181D01*
X28595238Y36240420D02*
X28547619Y36192800D01*
X28547619Y36192800D02*
X28404762Y36145181D01*
X28404762Y36145181D02*
X28309524Y36145181D01*
X28309524Y36145181D02*
X28166667Y36192800D01*
X28166667Y36192800D02*
X28071429Y36288039D01*
X28071429Y36288039D02*
X28023810Y36383277D01*
X28023810Y36383277D02*
X27976191Y36573753D01*
X27976191Y36573753D02*
X27976191Y36716610D01*
X27976191Y36716610D02*
X28023810Y36907086D01*
X28023810Y36907086D02*
X28071429Y37002324D01*
X28071429Y37002324D02*
X28166667Y37097562D01*
X28166667Y37097562D02*
X28309524Y37145181D01*
X28309524Y37145181D02*
X28404762Y37145181D01*
X28404762Y37145181D02*
X28547619Y37097562D01*
X28547619Y37097562D02*
X28595238Y37049943D01*
X26814285Y59645181D02*
X26242857Y59645181D01*
X26528571Y59645181D02*
X26528571Y60645181D01*
X26528571Y60645181D02*
X26433333Y60502324D01*
X26433333Y60502324D02*
X26338095Y60407086D01*
X26338095Y60407086D02*
X26242857Y60359467D01*
X27861905Y60645181D02*
X28195238Y59645181D01*
X28195238Y59645181D02*
X28528571Y60645181D01*
X28861905Y59645181D02*
X28861905Y60645181D01*
X29338095Y59645181D02*
X29338095Y60645181D01*
X29338095Y60645181D02*
X29909523Y59645181D01*
X29909523Y59645181D02*
X29909523Y60645181D01*
X20833333Y76745181D02*
X20500000Y77221372D01*
X20261905Y76745181D02*
X20261905Y77745181D01*
X20261905Y77745181D02*
X20642857Y77745181D01*
X20642857Y77745181D02*
X20738095Y77697562D01*
X20738095Y77697562D02*
X20785714Y77649943D01*
X20785714Y77649943D02*
X20833333Y77554705D01*
X20833333Y77554705D02*
X20833333Y77411848D01*
X20833333Y77411848D02*
X20785714Y77316610D01*
X20785714Y77316610D02*
X20738095Y77268991D01*
X20738095Y77268991D02*
X20642857Y77221372D01*
X20642857Y77221372D02*
X20261905Y77221372D01*
X21404762Y77316610D02*
X21309524Y77364229D01*
X21309524Y77364229D02*
X21261905Y77411848D01*
X21261905Y77411848D02*
X21214286Y77507086D01*
X21214286Y77507086D02*
X21214286Y77554705D01*
X21214286Y77554705D02*
X21261905Y77649943D01*
X21261905Y77649943D02*
X21309524Y77697562D01*
X21309524Y77697562D02*
X21404762Y77745181D01*
X21404762Y77745181D02*
X21595238Y77745181D01*
X21595238Y77745181D02*
X21690476Y77697562D01*
X21690476Y77697562D02*
X21738095Y77649943D01*
X21738095Y77649943D02*
X21785714Y77554705D01*
X21785714Y77554705D02*
X21785714Y77507086D01*
X21785714Y77507086D02*
X21738095Y77411848D01*
X21738095Y77411848D02*
X21690476Y77364229D01*
X21690476Y77364229D02*
X21595238Y77316610D01*
X21595238Y77316610D02*
X21404762Y77316610D01*
X21404762Y77316610D02*
X21309524Y77268991D01*
X21309524Y77268991D02*
X21261905Y77221372D01*
X21261905Y77221372D02*
X21214286Y77126134D01*
X21214286Y77126134D02*
X21214286Y76935658D01*
X21214286Y76935658D02*
X21261905Y76840420D01*
X21261905Y76840420D02*
X21309524Y76792800D01*
X21309524Y76792800D02*
X21404762Y76745181D01*
X21404762Y76745181D02*
X21595238Y76745181D01*
X21595238Y76745181D02*
X21690476Y76792800D01*
X21690476Y76792800D02*
X21738095Y76840420D01*
X21738095Y76840420D02*
X21785714Y76935658D01*
X21785714Y76935658D02*
X21785714Y77126134D01*
X21785714Y77126134D02*
X21738095Y77221372D01*
X21738095Y77221372D02*
X21690476Y77268991D01*
X21690476Y77268991D02*
X21595238Y77316610D01*
X38738095Y84645181D02*
X38738095Y85645181D01*
X38738095Y85168991D02*
X39309523Y85168991D01*
X39309523Y84645181D02*
X39309523Y85645181D01*
X39738095Y85549943D02*
X39785714Y85597562D01*
X39785714Y85597562D02*
X39880952Y85645181D01*
X39880952Y85645181D02*
X40119047Y85645181D01*
X40119047Y85645181D02*
X40214285Y85597562D01*
X40214285Y85597562D02*
X40261904Y85549943D01*
X40261904Y85549943D02*
X40309523Y85454705D01*
X40309523Y85454705D02*
X40309523Y85359467D01*
X40309523Y85359467D02*
X40261904Y85216610D01*
X40261904Y85216610D02*
X39690476Y84645181D01*
X39690476Y84645181D02*
X40309523Y84645181D01*
X5761905Y80545181D02*
X5761905Y81545181D01*
X5761905Y81545181D02*
X6000000Y81545181D01*
X6000000Y81545181D02*
X6142857Y81497562D01*
X6142857Y81497562D02*
X6238095Y81402324D01*
X6238095Y81402324D02*
X6285714Y81307086D01*
X6285714Y81307086D02*
X6333333Y81116610D01*
X6333333Y81116610D02*
X6333333Y80973753D01*
X6333333Y80973753D02*
X6285714Y80783277D01*
X6285714Y80783277D02*
X6238095Y80688039D01*
X6238095Y80688039D02*
X6142857Y80592800D01*
X6142857Y80592800D02*
X6000000Y80545181D01*
X6000000Y80545181D02*
X5761905Y80545181D01*
X7285714Y80545181D02*
X6714286Y80545181D01*
X7000000Y80545181D02*
X7000000Y81545181D01*
X7000000Y81545181D02*
X6904762Y81402324D01*
X6904762Y81402324D02*
X6809524Y81307086D01*
X6809524Y81307086D02*
X6714286Y81259467D01*
X3738095Y8445181D02*
X3738095Y9445181D01*
X3738095Y8968991D02*
X4309523Y8968991D01*
X4309523Y8445181D02*
X4309523Y9445181D01*
X4690476Y9445181D02*
X5309523Y9445181D01*
X5309523Y9445181D02*
X4976190Y9064229D01*
X4976190Y9064229D02*
X5119047Y9064229D01*
X5119047Y9064229D02*
X5214285Y9016610D01*
X5214285Y9016610D02*
X5261904Y8968991D01*
X5261904Y8968991D02*
X5309523Y8873753D01*
X5309523Y8873753D02*
X5309523Y8635658D01*
X5309523Y8635658D02*
X5261904Y8540420D01*
X5261904Y8540420D02*
X5214285Y8492800D01*
X5214285Y8492800D02*
X5119047Y8445181D01*
X5119047Y8445181D02*
X4833333Y8445181D01*
X4833333Y8445181D02*
X4738095Y8492800D01*
X4738095Y8492800D02*
X4690476Y8540420D01*
X21261905Y70845181D02*
X21261905Y71845181D01*
X21261905Y71845181D02*
X21500000Y71845181D01*
X21500000Y71845181D02*
X21642857Y71797562D01*
X21642857Y71797562D02*
X21738095Y71702324D01*
X21738095Y71702324D02*
X21785714Y71607086D01*
X21785714Y71607086D02*
X21833333Y71416610D01*
X21833333Y71416610D02*
X21833333Y71273753D01*
X21833333Y71273753D02*
X21785714Y71083277D01*
X21785714Y71083277D02*
X21738095Y70988039D01*
X21738095Y70988039D02*
X21642857Y70892800D01*
X21642857Y70892800D02*
X21500000Y70845181D01*
X21500000Y70845181D02*
X21261905Y70845181D01*
X22166667Y71845181D02*
X22785714Y71845181D01*
X22785714Y71845181D02*
X22452381Y71464229D01*
X22452381Y71464229D02*
X22595238Y71464229D01*
X22595238Y71464229D02*
X22690476Y71416610D01*
X22690476Y71416610D02*
X22738095Y71368991D01*
X22738095Y71368991D02*
X22785714Y71273753D01*
X22785714Y71273753D02*
X22785714Y71035658D01*
X22785714Y71035658D02*
X22738095Y70940420D01*
X22738095Y70940420D02*
X22690476Y70892800D01*
X22690476Y70892800D02*
X22595238Y70845181D01*
X22595238Y70845181D02*
X22309524Y70845181D01*
X22309524Y70845181D02*
X22214286Y70892800D01*
X22214286Y70892800D02*
X22166667Y70940420D01*
X38738095Y8445181D02*
X38738095Y9445181D01*
X38738095Y8968991D02*
X39309523Y8968991D01*
X39309523Y8445181D02*
X39309523Y9445181D01*
X40214285Y9111848D02*
X40214285Y8445181D01*
X39976190Y9492800D02*
X39738095Y8778515D01*
X39738095Y8778515D02*
X40357142Y8778515D01*
X25833333Y70840420D02*
X25785714Y70792800D01*
X25785714Y70792800D02*
X25642857Y70745181D01*
X25642857Y70745181D02*
X25547619Y70745181D01*
X25547619Y70745181D02*
X25404762Y70792800D01*
X25404762Y70792800D02*
X25309524Y70888039D01*
X25309524Y70888039D02*
X25261905Y70983277D01*
X25261905Y70983277D02*
X25214286Y71173753D01*
X25214286Y71173753D02*
X25214286Y71316610D01*
X25214286Y71316610D02*
X25261905Y71507086D01*
X25261905Y71507086D02*
X25309524Y71602324D01*
X25309524Y71602324D02*
X25404762Y71697562D01*
X25404762Y71697562D02*
X25547619Y71745181D01*
X25547619Y71745181D02*
X25642857Y71745181D01*
X25642857Y71745181D02*
X25785714Y71697562D01*
X25785714Y71697562D02*
X25833333Y71649943D01*
X26214286Y71649943D02*
X26261905Y71697562D01*
X26261905Y71697562D02*
X26357143Y71745181D01*
X26357143Y71745181D02*
X26595238Y71745181D01*
X26595238Y71745181D02*
X26690476Y71697562D01*
X26690476Y71697562D02*
X26738095Y71649943D01*
X26738095Y71649943D02*
X26785714Y71554705D01*
X26785714Y71554705D02*
X26785714Y71459467D01*
X26785714Y71459467D02*
X26738095Y71316610D01*
X26738095Y71316610D02*
X26166667Y70745181D01*
X26166667Y70745181D02*
X26785714Y70745181D01*
X18483333Y65445181D02*
X18150000Y65921372D01*
X17911905Y65445181D02*
X17911905Y66445181D01*
X17911905Y66445181D02*
X18292857Y66445181D01*
X18292857Y66445181D02*
X18388095Y66397562D01*
X18388095Y66397562D02*
X18435714Y66349943D01*
X18435714Y66349943D02*
X18483333Y66254705D01*
X18483333Y66254705D02*
X18483333Y66111848D01*
X18483333Y66111848D02*
X18435714Y66016610D01*
X18435714Y66016610D02*
X18388095Y65968991D01*
X18388095Y65968991D02*
X18292857Y65921372D01*
X18292857Y65921372D02*
X17911905Y65921372D01*
X18816667Y66445181D02*
X19435714Y66445181D01*
X19435714Y66445181D02*
X19102381Y66064229D01*
X19102381Y66064229D02*
X19245238Y66064229D01*
X19245238Y66064229D02*
X19340476Y66016610D01*
X19340476Y66016610D02*
X19388095Y65968991D01*
X19388095Y65968991D02*
X19435714Y65873753D01*
X19435714Y65873753D02*
X19435714Y65635658D01*
X19435714Y65635658D02*
X19388095Y65540420D01*
X19388095Y65540420D02*
X19340476Y65492800D01*
X19340476Y65492800D02*
X19245238Y65445181D01*
X19245238Y65445181D02*
X18959524Y65445181D01*
X18959524Y65445181D02*
X18864286Y65492800D01*
X18864286Y65492800D02*
X18816667Y65540420D01*
X18033333Y72045181D02*
X17700000Y72521372D01*
X17461905Y72045181D02*
X17461905Y73045181D01*
X17461905Y73045181D02*
X17842857Y73045181D01*
X17842857Y73045181D02*
X17938095Y72997562D01*
X17938095Y72997562D02*
X17985714Y72949943D01*
X17985714Y72949943D02*
X18033333Y72854705D01*
X18033333Y72854705D02*
X18033333Y72711848D01*
X18033333Y72711848D02*
X17985714Y72616610D01*
X17985714Y72616610D02*
X17938095Y72568991D01*
X17938095Y72568991D02*
X17842857Y72521372D01*
X17842857Y72521372D02*
X17461905Y72521372D01*
X18938095Y73045181D02*
X18461905Y73045181D01*
X18461905Y73045181D02*
X18414286Y72568991D01*
X18414286Y72568991D02*
X18461905Y72616610D01*
X18461905Y72616610D02*
X18557143Y72664229D01*
X18557143Y72664229D02*
X18795238Y72664229D01*
X18795238Y72664229D02*
X18890476Y72616610D01*
X18890476Y72616610D02*
X18938095Y72568991D01*
X18938095Y72568991D02*
X18985714Y72473753D01*
X18985714Y72473753D02*
X18985714Y72235658D01*
X18985714Y72235658D02*
X18938095Y72140420D01*
X18938095Y72140420D02*
X18890476Y72092800D01*
X18890476Y72092800D02*
X18795238Y72045181D01*
X18795238Y72045181D02*
X18557143Y72045181D01*
X18557143Y72045181D02*
X18461905Y72092800D01*
X18461905Y72092800D02*
X18414286Y72140420D01*
X15366666Y8545181D02*
X15366666Y7830896D01*
X15366666Y7830896D02*
X15319047Y7688039D01*
X15319047Y7688039D02*
X15223809Y7592800D01*
X15223809Y7592800D02*
X15080952Y7545181D01*
X15080952Y7545181D02*
X14985714Y7545181D01*
X15795238Y8449943D02*
X15842857Y8497562D01*
X15842857Y8497562D02*
X15938095Y8545181D01*
X15938095Y8545181D02*
X16176190Y8545181D01*
X16176190Y8545181D02*
X16271428Y8497562D01*
X16271428Y8497562D02*
X16319047Y8449943D01*
X16319047Y8449943D02*
X16366666Y8354705D01*
X16366666Y8354705D02*
X16366666Y8259467D01*
X16366666Y8259467D02*
X16319047Y8116610D01*
X16319047Y8116610D02*
X15747619Y7545181D01*
X15747619Y7545181D02*
X16366666Y7545181D01*
X31833333Y60245181D02*
X31500000Y60721372D01*
X31261905Y60245181D02*
X31261905Y61245181D01*
X31261905Y61245181D02*
X31642857Y61245181D01*
X31642857Y61245181D02*
X31738095Y61197562D01*
X31738095Y61197562D02*
X31785714Y61149943D01*
X31785714Y61149943D02*
X31833333Y61054705D01*
X31833333Y61054705D02*
X31833333Y60911848D01*
X31833333Y60911848D02*
X31785714Y60816610D01*
X31785714Y60816610D02*
X31738095Y60768991D01*
X31738095Y60768991D02*
X31642857Y60721372D01*
X31642857Y60721372D02*
X31261905Y60721372D01*
X32690476Y61245181D02*
X32500000Y61245181D01*
X32500000Y61245181D02*
X32404762Y61197562D01*
X32404762Y61197562D02*
X32357143Y61149943D01*
X32357143Y61149943D02*
X32261905Y61007086D01*
X32261905Y61007086D02*
X32214286Y60816610D01*
X32214286Y60816610D02*
X32214286Y60435658D01*
X32214286Y60435658D02*
X32261905Y60340420D01*
X32261905Y60340420D02*
X32309524Y60292800D01*
X32309524Y60292800D02*
X32404762Y60245181D01*
X32404762Y60245181D02*
X32595238Y60245181D01*
X32595238Y60245181D02*
X32690476Y60292800D01*
X32690476Y60292800D02*
X32738095Y60340420D01*
X32738095Y60340420D02*
X32785714Y60435658D01*
X32785714Y60435658D02*
X32785714Y60673753D01*
X32785714Y60673753D02*
X32738095Y60768991D01*
X32738095Y60768991D02*
X32690476Y60816610D01*
X32690476Y60816610D02*
X32595238Y60864229D01*
X32595238Y60864229D02*
X32404762Y60864229D01*
X32404762Y60864229D02*
X32309524Y60816610D01*
X32309524Y60816610D02*
X32261905Y60768991D01*
X32261905Y60768991D02*
X32214286Y60673753D01*
X32833333Y72140420D02*
X32785714Y72092800D01*
X32785714Y72092800D02*
X32642857Y72045181D01*
X32642857Y72045181D02*
X32547619Y72045181D01*
X32547619Y72045181D02*
X32404762Y72092800D01*
X32404762Y72092800D02*
X32309524Y72188039D01*
X32309524Y72188039D02*
X32261905Y72283277D01*
X32261905Y72283277D02*
X32214286Y72473753D01*
X32214286Y72473753D02*
X32214286Y72616610D01*
X32214286Y72616610D02*
X32261905Y72807086D01*
X32261905Y72807086D02*
X32309524Y72902324D01*
X32309524Y72902324D02*
X32404762Y72997562D01*
X32404762Y72997562D02*
X32547619Y73045181D01*
X32547619Y73045181D02*
X32642857Y73045181D01*
X32642857Y73045181D02*
X32785714Y72997562D01*
X32785714Y72997562D02*
X32833333Y72949943D01*
X33166667Y73045181D02*
X33833333Y73045181D01*
X33833333Y73045181D02*
X33404762Y72045181D01*
X3738095Y84645181D02*
X3738095Y85645181D01*
X3738095Y85168991D02*
X4309523Y85168991D01*
X4309523Y84645181D02*
X4309523Y85645181D01*
X5309523Y84645181D02*
X4738095Y84645181D01*
X5023809Y84645181D02*
X5023809Y85645181D01*
X5023809Y85645181D02*
X4928571Y85502324D01*
X4928571Y85502324D02*
X4833333Y85407086D01*
X4833333Y85407086D02*
X4738095Y85359467D01*
X12738095Y72745181D02*
X12738095Y71935658D01*
X12738095Y71935658D02*
X12785714Y71840420D01*
X12785714Y71840420D02*
X12833333Y71792800D01*
X12833333Y71792800D02*
X12928571Y71745181D01*
X12928571Y71745181D02*
X13119047Y71745181D01*
X13119047Y71745181D02*
X13214285Y71792800D01*
X13214285Y71792800D02*
X13261904Y71840420D01*
X13261904Y71840420D02*
X13309523Y71935658D01*
X13309523Y71935658D02*
X13309523Y72745181D01*
X14309523Y71745181D02*
X13738095Y71745181D01*
X14023809Y71745181D02*
X14023809Y72745181D01*
X14023809Y72745181D02*
X13928571Y72602324D01*
X13928571Y72602324D02*
X13833333Y72507086D01*
X13833333Y72507086D02*
X13738095Y72459467D01*
X38261905Y65645181D02*
X38261905Y66645181D01*
X38261905Y66645181D02*
X38500000Y66645181D01*
X38500000Y66645181D02*
X38642857Y66597562D01*
X38642857Y66597562D02*
X38738095Y66502324D01*
X38738095Y66502324D02*
X38785714Y66407086D01*
X38785714Y66407086D02*
X38833333Y66216610D01*
X38833333Y66216610D02*
X38833333Y66073753D01*
X38833333Y66073753D02*
X38785714Y65883277D01*
X38785714Y65883277D02*
X38738095Y65788039D01*
X38738095Y65788039D02*
X38642857Y65692800D01*
X38642857Y65692800D02*
X38500000Y65645181D01*
X38500000Y65645181D02*
X38261905Y65645181D01*
X39690476Y66311848D02*
X39690476Y65645181D01*
X39452381Y66692800D02*
X39214286Y65978515D01*
X39214286Y65978515D02*
X39833333Y65978515D01*
X19833333Y70095181D02*
X19500000Y70571372D01*
X19261905Y70095181D02*
X19261905Y71095181D01*
X19261905Y71095181D02*
X19642857Y71095181D01*
X19642857Y71095181D02*
X19738095Y71047562D01*
X19738095Y71047562D02*
X19785714Y70999943D01*
X19785714Y70999943D02*
X19833333Y70904705D01*
X19833333Y70904705D02*
X19833333Y70761848D01*
X19833333Y70761848D02*
X19785714Y70666610D01*
X19785714Y70666610D02*
X19738095Y70618991D01*
X19738095Y70618991D02*
X19642857Y70571372D01*
X19642857Y70571372D02*
X19261905Y70571372D01*
X20690476Y70761848D02*
X20690476Y70095181D01*
X20452381Y71142800D02*
X20214286Y70428515D01*
X20214286Y70428515D02*
X20833333Y70428515D01*
X12333333Y77045181D02*
X12000000Y77521372D01*
X11761905Y77045181D02*
X11761905Y78045181D01*
X11761905Y78045181D02*
X12142857Y78045181D01*
X12142857Y78045181D02*
X12238095Y77997562D01*
X12238095Y77997562D02*
X12285714Y77949943D01*
X12285714Y77949943D02*
X12333333Y77854705D01*
X12333333Y77854705D02*
X12333333Y77711848D01*
X12333333Y77711848D02*
X12285714Y77616610D01*
X12285714Y77616610D02*
X12238095Y77568991D01*
X12238095Y77568991D02*
X12142857Y77521372D01*
X12142857Y77521372D02*
X11761905Y77521372D01*
X13285714Y77045181D02*
X12714286Y77045181D01*
X13000000Y77045181D02*
X13000000Y78045181D01*
X13000000Y78045181D02*
X12904762Y77902324D01*
X12904762Y77902324D02*
X12809524Y77807086D01*
X12809524Y77807086D02*
X12714286Y77759467D01*
X12166666Y89268991D02*
X11833333Y89268991D01*
X11833333Y88745181D02*
X11833333Y89745181D01*
X11833333Y89745181D02*
X12309523Y89745181D01*
X13214285Y88745181D02*
X12642857Y88745181D01*
X12928571Y88745181D02*
X12928571Y89745181D01*
X12928571Y89745181D02*
X12833333Y89602324D01*
X12833333Y89602324D02*
X12738095Y89507086D01*
X12738095Y89507086D02*
X12642857Y89459467D01*
X15333333Y77045181D02*
X15000000Y77521372D01*
X14761905Y77045181D02*
X14761905Y78045181D01*
X14761905Y78045181D02*
X15142857Y78045181D01*
X15142857Y78045181D02*
X15238095Y77997562D01*
X15238095Y77997562D02*
X15285714Y77949943D01*
X15285714Y77949943D02*
X15333333Y77854705D01*
X15333333Y77854705D02*
X15333333Y77711848D01*
X15333333Y77711848D02*
X15285714Y77616610D01*
X15285714Y77616610D02*
X15238095Y77568991D01*
X15238095Y77568991D02*
X15142857Y77521372D01*
X15142857Y77521372D02*
X14761905Y77521372D01*
X15714286Y77949943D02*
X15761905Y77997562D01*
X15761905Y77997562D02*
X15857143Y78045181D01*
X15857143Y78045181D02*
X16095238Y78045181D01*
X16095238Y78045181D02*
X16190476Y77997562D01*
X16190476Y77997562D02*
X16238095Y77949943D01*
X16238095Y77949943D02*
X16285714Y77854705D01*
X16285714Y77854705D02*
X16285714Y77759467D01*
X16285714Y77759467D02*
X16238095Y77616610D01*
X16238095Y77616610D02*
X15666667Y77045181D01*
X15666667Y77045181D02*
X16285714Y77045181D01*
X28333333Y27640420D02*
X28285714Y27592800D01*
X28285714Y27592800D02*
X28142857Y27545181D01*
X28142857Y27545181D02*
X28047619Y27545181D01*
X28047619Y27545181D02*
X27904762Y27592800D01*
X27904762Y27592800D02*
X27809524Y27688039D01*
X27809524Y27688039D02*
X27761905Y27783277D01*
X27761905Y27783277D02*
X27714286Y27973753D01*
X27714286Y27973753D02*
X27714286Y28116610D01*
X27714286Y28116610D02*
X27761905Y28307086D01*
X27761905Y28307086D02*
X27809524Y28402324D01*
X27809524Y28402324D02*
X27904762Y28497562D01*
X27904762Y28497562D02*
X28047619Y28545181D01*
X28047619Y28545181D02*
X28142857Y28545181D01*
X28142857Y28545181D02*
X28285714Y28497562D01*
X28285714Y28497562D02*
X28333333Y28449943D01*
X29190476Y28211848D02*
X29190476Y27545181D01*
X28952381Y28592800D02*
X28714286Y27878515D01*
X28714286Y27878515D02*
X29333333Y27878515D01*
X18811905Y26545181D02*
X18811905Y27545181D01*
X18811905Y27545181D02*
X19050000Y27545181D01*
X19050000Y27545181D02*
X19192857Y27497562D01*
X19192857Y27497562D02*
X19288095Y27402324D01*
X19288095Y27402324D02*
X19335714Y27307086D01*
X19335714Y27307086D02*
X19383333Y27116610D01*
X19383333Y27116610D02*
X19383333Y26973753D01*
X19383333Y26973753D02*
X19335714Y26783277D01*
X19335714Y26783277D02*
X19288095Y26688039D01*
X19288095Y26688039D02*
X19192857Y26592800D01*
X19192857Y26592800D02*
X19050000Y26545181D01*
X19050000Y26545181D02*
X18811905Y26545181D01*
X19764286Y27449943D02*
X19811905Y27497562D01*
X19811905Y27497562D02*
X19907143Y27545181D01*
X19907143Y27545181D02*
X20145238Y27545181D01*
X20145238Y27545181D02*
X20240476Y27497562D01*
X20240476Y27497562D02*
X20288095Y27449943D01*
X20288095Y27449943D02*
X20335714Y27354705D01*
X20335714Y27354705D02*
X20335714Y27259467D01*
X20335714Y27259467D02*
X20288095Y27116610D01*
X20288095Y27116610D02*
X19716667Y26545181D01*
X19716667Y26545181D02*
X20335714Y26545181D01*
X6433333Y69340420D02*
X6385714Y69292800D01*
X6385714Y69292800D02*
X6242857Y69245181D01*
X6242857Y69245181D02*
X6147619Y69245181D01*
X6147619Y69245181D02*
X6004762Y69292800D01*
X6004762Y69292800D02*
X5909524Y69388039D01*
X5909524Y69388039D02*
X5861905Y69483277D01*
X5861905Y69483277D02*
X5814286Y69673753D01*
X5814286Y69673753D02*
X5814286Y69816610D01*
X5814286Y69816610D02*
X5861905Y70007086D01*
X5861905Y70007086D02*
X5909524Y70102324D01*
X5909524Y70102324D02*
X6004762Y70197562D01*
X6004762Y70197562D02*
X6147619Y70245181D01*
X6147619Y70245181D02*
X6242857Y70245181D01*
X6242857Y70245181D02*
X6385714Y70197562D01*
X6385714Y70197562D02*
X6433333Y70149943D01*
X7338095Y70245181D02*
X6861905Y70245181D01*
X6861905Y70245181D02*
X6814286Y69768991D01*
X6814286Y69768991D02*
X6861905Y69816610D01*
X6861905Y69816610D02*
X6957143Y69864229D01*
X6957143Y69864229D02*
X7195238Y69864229D01*
X7195238Y69864229D02*
X7290476Y69816610D01*
X7290476Y69816610D02*
X7338095Y69768991D01*
X7338095Y69768991D02*
X7385714Y69673753D01*
X7385714Y69673753D02*
X7385714Y69435658D01*
X7385714Y69435658D02*
X7338095Y69340420D01*
X7338095Y69340420D02*
X7290476Y69292800D01*
X7290476Y69292800D02*
X7195238Y69245181D01*
X7195238Y69245181D02*
X6957143Y69245181D01*
X6957143Y69245181D02*
X6861905Y69292800D01*
X6861905Y69292800D02*
X6814286Y69340420D01*
X11833333Y13840420D02*
X11785714Y13792800D01*
X11785714Y13792800D02*
X11642857Y13745181D01*
X11642857Y13745181D02*
X11547619Y13745181D01*
X11547619Y13745181D02*
X11404762Y13792800D01*
X11404762Y13792800D02*
X11309524Y13888039D01*
X11309524Y13888039D02*
X11261905Y13983277D01*
X11261905Y13983277D02*
X11214286Y14173753D01*
X11214286Y14173753D02*
X11214286Y14316610D01*
X11214286Y14316610D02*
X11261905Y14507086D01*
X11261905Y14507086D02*
X11309524Y14602324D01*
X11309524Y14602324D02*
X11404762Y14697562D01*
X11404762Y14697562D02*
X11547619Y14745181D01*
X11547619Y14745181D02*
X11642857Y14745181D01*
X11642857Y14745181D02*
X11785714Y14697562D01*
X11785714Y14697562D02*
X11833333Y14649943D01*
X12404762Y14316610D02*
X12309524Y14364229D01*
X12309524Y14364229D02*
X12261905Y14411848D01*
X12261905Y14411848D02*
X12214286Y14507086D01*
X12214286Y14507086D02*
X12214286Y14554705D01*
X12214286Y14554705D02*
X12261905Y14649943D01*
X12261905Y14649943D02*
X12309524Y14697562D01*
X12309524Y14697562D02*
X12404762Y14745181D01*
X12404762Y14745181D02*
X12595238Y14745181D01*
X12595238Y14745181D02*
X12690476Y14697562D01*
X12690476Y14697562D02*
X12738095Y14649943D01*
X12738095Y14649943D02*
X12785714Y14554705D01*
X12785714Y14554705D02*
X12785714Y14507086D01*
X12785714Y14507086D02*
X12738095Y14411848D01*
X12738095Y14411848D02*
X12690476Y14364229D01*
X12690476Y14364229D02*
X12595238Y14316610D01*
X12595238Y14316610D02*
X12404762Y14316610D01*
X12404762Y14316610D02*
X12309524Y14268991D01*
X12309524Y14268991D02*
X12261905Y14221372D01*
X12261905Y14221372D02*
X12214286Y14126134D01*
X12214286Y14126134D02*
X12214286Y13935658D01*
X12214286Y13935658D02*
X12261905Y13840420D01*
X12261905Y13840420D02*
X12309524Y13792800D01*
X12309524Y13792800D02*
X12404762Y13745181D01*
X12404762Y13745181D02*
X12595238Y13745181D01*
X12595238Y13745181D02*
X12690476Y13792800D01*
X12690476Y13792800D02*
X12738095Y13840420D01*
X12738095Y13840420D02*
X12785714Y13935658D01*
X12785714Y13935658D02*
X12785714Y14126134D01*
X12785714Y14126134D02*
X12738095Y14221372D01*
X12738095Y14221372D02*
X12690476Y14268991D01*
X12690476Y14268991D02*
X12595238Y14316610D01*
X18833333Y13640420D02*
X18785714Y13592800D01*
X18785714Y13592800D02*
X18642857Y13545181D01*
X18642857Y13545181D02*
X18547619Y13545181D01*
X18547619Y13545181D02*
X18404762Y13592800D01*
X18404762Y13592800D02*
X18309524Y13688039D01*
X18309524Y13688039D02*
X18261905Y13783277D01*
X18261905Y13783277D02*
X18214286Y13973753D01*
X18214286Y13973753D02*
X18214286Y14116610D01*
X18214286Y14116610D02*
X18261905Y14307086D01*
X18261905Y14307086D02*
X18309524Y14402324D01*
X18309524Y14402324D02*
X18404762Y14497562D01*
X18404762Y14497562D02*
X18547619Y14545181D01*
X18547619Y14545181D02*
X18642857Y14545181D01*
X18642857Y14545181D02*
X18785714Y14497562D01*
X18785714Y14497562D02*
X18833333Y14449943D01*
X19166667Y14545181D02*
X19785714Y14545181D01*
X19785714Y14545181D02*
X19452381Y14164229D01*
X19452381Y14164229D02*
X19595238Y14164229D01*
X19595238Y14164229D02*
X19690476Y14116610D01*
X19690476Y14116610D02*
X19738095Y14068991D01*
X19738095Y14068991D02*
X19785714Y13973753D01*
X19785714Y13973753D02*
X19785714Y13735658D01*
X19785714Y13735658D02*
X19738095Y13640420D01*
X19738095Y13640420D02*
X19690476Y13592800D01*
X19690476Y13592800D02*
X19595238Y13545181D01*
X19595238Y13545181D02*
X19309524Y13545181D01*
X19309524Y13545181D02*
X19214286Y13592800D01*
X19214286Y13592800D02*
X19166667Y13640420D01*
X33533333Y18045181D02*
X33200000Y18521372D01*
X32961905Y18045181D02*
X32961905Y19045181D01*
X32961905Y19045181D02*
X33342857Y19045181D01*
X33342857Y19045181D02*
X33438095Y18997562D01*
X33438095Y18997562D02*
X33485714Y18949943D01*
X33485714Y18949943D02*
X33533333Y18854705D01*
X33533333Y18854705D02*
X33533333Y18711848D01*
X33533333Y18711848D02*
X33485714Y18616610D01*
X33485714Y18616610D02*
X33438095Y18568991D01*
X33438095Y18568991D02*
X33342857Y18521372D01*
X33342857Y18521372D02*
X32961905Y18521372D01*
X33866667Y19045181D02*
X34533333Y19045181D01*
X34533333Y19045181D02*
X34104762Y18045181D01*
%TO.C,J1*%
X16900000Y90700000D02*
X27100000Y90700000D01*
X16900000Y82900000D02*
X16900000Y90700000D01*
D11*
X18700000Y90200000D02*
X20300000Y90200000D01*
X23700000Y90200000D02*
X25300000Y90200000D01*
D10*
X27100000Y90700000D02*
X27100000Y82900000D01*
X27100000Y82900000D02*
X16900000Y82900000D01*
%TO.C,C1*%
X8211252Y67725000D02*
X6788748Y67725000D01*
X8211252Y65005000D02*
X6788748Y65005000D01*
%TO.C,C6*%
X22261252Y64335000D02*
X21738748Y64335000D01*
X22261252Y62865000D02*
X21738748Y62865000D01*
%TO.C,R8*%
X18900000Y81750000D02*
X21100000Y81750000D01*
X18900000Y78250000D02*
X21100000Y78250000D01*
%TO.C,D1*%
X8990000Y82000000D02*
X8990000Y78690000D01*
X11010000Y78690000D02*
X8990000Y78690000D01*
X11010000Y78690000D02*
X11010000Y82000000D01*
%TO.C,D3*%
X20990000Y69610000D02*
X20990000Y66300000D01*
X20990000Y69610000D02*
X23010000Y69610000D01*
X23010000Y66300000D02*
X23010000Y69610000D01*
%TO.C,C2*%
X24640000Y67288748D02*
X24640000Y68711252D01*
X27360000Y67288748D02*
X27360000Y68711252D01*
%TO.C,R3*%
X18887258Y67887500D02*
X18412742Y67887500D01*
X18887258Y66842500D02*
X18412742Y66842500D01*
%TO.C,R5*%
X15579000Y72262742D02*
X15579000Y72737258D01*
X16624000Y72262742D02*
X16624000Y72737258D01*
%TO.C,J2*%
X16900000Y12100000D02*
X27100000Y12100000D01*
X16900000Y4300000D02*
X16900000Y12100000D01*
D11*
X20300000Y4800000D02*
X18700000Y4800000D01*
X25300000Y4800000D02*
X23700000Y4800000D01*
D10*
X27100000Y12100000D02*
X27100000Y4300000D01*
X27100000Y4300000D02*
X16900000Y4300000D01*
%TO.C,R6*%
X31300000Y65450000D02*
X27100000Y65450000D01*
X31300000Y61750000D02*
X27100000Y61750000D01*
%TO.C,C7*%
X26900000Y80510000D02*
X27900000Y80510000D01*
X27400000Y81010000D02*
X27400000Y80010000D01*
X28140000Y81295563D02*
X28140000Y79510000D01*
X28140000Y81295563D02*
X29204437Y82360000D01*
X28140000Y74704437D02*
X28140000Y76490000D01*
X28140000Y74704437D02*
X29204437Y73640000D01*
X29204437Y82360000D02*
X36860000Y82360000D01*
X29204437Y73640000D02*
X36860000Y73640000D01*
X36860000Y82360000D02*
X36860000Y79510000D01*
X36860000Y73640000D02*
X36860000Y76490000D01*
%TO.C,U1*%
D12*
X10200000Y70450000D02*
X10700000Y70450000D01*
D10*
X11700000Y70650000D02*
X15300000Y70650000D01*
X11700000Y65350000D02*
X15300000Y65350000D01*
%TO.C,D4*%
X33850000Y69610000D02*
X33850000Y64100000D01*
X37150000Y69610000D02*
X33850000Y69610000D01*
X37150000Y69610000D02*
X37150000Y64100000D01*
%TO.C,R4*%
X18412742Y69722500D02*
X18887258Y69722500D01*
X18412742Y68677500D02*
X18887258Y68677500D01*
%TO.C,R1*%
X12262742Y76522500D02*
X12737258Y76522500D01*
X12262742Y75477500D02*
X12737258Y75477500D01*
%TO.C,F1*%
X13350000Y87940000D02*
X11650000Y87940000D01*
X13350000Y86060000D02*
X11650000Y86060000D01*
%TO.C,R2*%
X15262742Y76522500D02*
X15737258Y76522500D01*
X15262742Y75477500D02*
X15737258Y75477500D01*
%TO.C,C4*%
X27788748Y27240000D02*
X29211252Y27240000D01*
X27788748Y24520000D02*
X29211252Y24520000D01*
%TO.C,D2*%
X20875000Y28000000D02*
X20875000Y23190000D01*
X25125000Y23190000D02*
X20875000Y23190000D01*
X25125000Y23190000D02*
X25125000Y28000000D01*
%TO.C,C5*%
X8640580Y69310000D02*
X8359420Y69310000D01*
X8640580Y68290000D02*
X8359420Y68290000D01*
%TO.C,C8*%
X16300000Y21900000D02*
X9700000Y21900000D01*
X16300000Y15100000D02*
X9700000Y15100000D01*
D13*
X16500000Y16000000D02*
X16500000Y17000000D01*
X17000000Y16500000D02*
X16000000Y16500000D01*
%TO.C,C3*%
D10*
X26300000Y21900000D02*
X19700000Y21900000D01*
X26300000Y15100000D02*
X19700000Y15100000D01*
D13*
X26500000Y16000000D02*
X26500000Y17000000D01*
X27000000Y16500000D02*
X26000000Y16500000D01*
%TO.C,R7*%
D10*
X30090000Y19227064D02*
X30090000Y17772936D01*
X31910000Y19227064D02*
X31910000Y17772936D01*
%TD*%
%LPC*%
D14*
%TO.C,H2*%
G36*
X47700000Y86300000D02*
G01*
X39500000Y86300000D01*
X39290710Y86306851D01*
X39082316Y86327376D01*
X38875711Y86361487D01*
X38671779Y86409037D01*
X38471394Y86469824D01*
X38275413Y86543585D01*
X38084676Y86630007D01*
X37900000Y86728719D01*
X37722175Y86839297D01*
X37551963Y86961269D01*
X37390093Y87094113D01*
X37237258Y87237258D01*
X37094113Y87390093D01*
X36961269Y87551963D01*
X36839297Y87722175D01*
X36728719Y87900000D01*
X36630007Y88084676D01*
X36543585Y88275413D01*
X36469824Y88471394D01*
X36409037Y88671779D01*
X36361487Y88875711D01*
X36327376Y89082316D01*
X36306851Y89290710D01*
X36300000Y89500000D01*
X36306851Y89709290D01*
X36327376Y89917684D01*
X36361487Y90124289D01*
X36409037Y90328221D01*
X36469824Y90528606D01*
X36543585Y90724587D01*
X36630007Y90915324D01*
X36728719Y91100000D01*
X36839297Y91277825D01*
X36961269Y91448037D01*
X37094113Y91609907D01*
X37237258Y91762742D01*
X37390093Y91905887D01*
X37551963Y92038731D01*
X37722175Y92160703D01*
X37900000Y92271281D01*
X38084676Y92369993D01*
X38275413Y92456415D01*
X38471394Y92530176D01*
X38671779Y92590963D01*
X38875711Y92638513D01*
X39082316Y92672624D01*
X39290710Y92693149D01*
X39500000Y92700000D01*
X47700000Y92700000D01*
X47700000Y86300000D01*
G37*
%TO.C,H3*%
G36*
X4709290Y7693149D02*
G01*
X4917684Y7672624D01*
X5124289Y7638513D01*
X5328221Y7590963D01*
X5528606Y7530176D01*
X5724587Y7456415D01*
X5915324Y7369993D01*
X6100000Y7271281D01*
X6277825Y7160703D01*
X6448037Y7038731D01*
X6609907Y6905887D01*
X6762742Y6762742D01*
X6905887Y6609907D01*
X7038731Y6448037D01*
X7160703Y6277825D01*
X7271281Y6100000D01*
X7369993Y5915324D01*
X7456415Y5724587D01*
X7530176Y5528606D01*
X7590963Y5328221D01*
X7638513Y5124289D01*
X7672624Y4917684D01*
X7693149Y4709290D01*
X7700000Y4500000D01*
X7693149Y4290710D01*
X7672624Y4082316D01*
X7638513Y3875711D01*
X7590963Y3671779D01*
X7530176Y3471394D01*
X7456415Y3275413D01*
X7369993Y3084676D01*
X7271281Y2900000D01*
X7160703Y2722175D01*
X7038731Y2551963D01*
X6905887Y2390093D01*
X6762742Y2237258D01*
X6609907Y2094113D01*
X6448037Y1961269D01*
X6277825Y1839297D01*
X6100000Y1728719D01*
X5915324Y1630007D01*
X5724587Y1543585D01*
X5528606Y1469824D01*
X5328221Y1409037D01*
X5124289Y1361487D01*
X4917684Y1327376D01*
X4709290Y1306851D01*
X4500000Y1300000D01*
X-3700000Y1300000D01*
X-3700000Y7700000D01*
X4500000Y7700000D01*
X4709290Y7693149D01*
G37*
%TO.C,H4*%
G36*
X47700000Y1300000D02*
G01*
X39500000Y1300000D01*
X39290710Y1306851D01*
X39082316Y1327376D01*
X38875711Y1361487D01*
X38671779Y1409037D01*
X38471394Y1469824D01*
X38275413Y1543585D01*
X38084676Y1630007D01*
X37900000Y1728719D01*
X37722175Y1839297D01*
X37551963Y1961269D01*
X37390093Y2094113D01*
X37237258Y2237258D01*
X37094113Y2390093D01*
X36961269Y2551963D01*
X36839297Y2722175D01*
X36728719Y2900000D01*
X36630007Y3084676D01*
X36543585Y3275413D01*
X36469824Y3471394D01*
X36409037Y3671779D01*
X36361487Y3875711D01*
X36327376Y4082316D01*
X36306851Y4290710D01*
X36300000Y4500000D01*
X36306851Y4709290D01*
X36327376Y4917684D01*
X36361487Y5124289D01*
X36409037Y5328221D01*
X36469824Y5528606D01*
X36543585Y5724587D01*
X36630007Y5915324D01*
X36728719Y6100000D01*
X36839297Y6277825D01*
X36961269Y6448037D01*
X37094113Y6609907D01*
X37237258Y6762742D01*
X37390093Y6905887D01*
X37551963Y7038731D01*
X37722175Y7160703D01*
X37900000Y7271281D01*
X38084676Y7369993D01*
X38275413Y7456415D01*
X38471394Y7530176D01*
X38671779Y7590963D01*
X38875711Y7638513D01*
X39082316Y7672624D01*
X39290710Y7693149D01*
X39500000Y7700000D01*
X47700000Y7700000D01*
X47700000Y1300000D01*
G37*
%TO.C,H1*%
G36*
X4709290Y92693149D02*
G01*
X4917684Y92672624D01*
X5124289Y92638513D01*
X5328221Y92590963D01*
X5528606Y92530176D01*
X5724587Y92456415D01*
X5915324Y92369993D01*
X6100000Y92271281D01*
X6277825Y92160703D01*
X6448037Y92038731D01*
X6609907Y91905887D01*
X6762742Y91762742D01*
X6905887Y91609907D01*
X7038731Y91448037D01*
X7160703Y91277825D01*
X7271281Y91100000D01*
X7369993Y90915324D01*
X7456415Y90724587D01*
X7530176Y90528606D01*
X7590963Y90328221D01*
X7638513Y90124289D01*
X7672624Y89917684D01*
X7693149Y89709290D01*
X7700000Y89500000D01*
X7693149Y89290710D01*
X7672624Y89082316D01*
X7638513Y88875711D01*
X7590963Y88671779D01*
X7530176Y88471394D01*
X7456415Y88275413D01*
X7369993Y88084676D01*
X7271281Y87900000D01*
X7160703Y87722175D01*
X7038731Y87551963D01*
X6905887Y87390093D01*
X6762742Y87237258D01*
X6609907Y87094113D01*
X6448037Y86961269D01*
X6277825Y86839297D01*
X6100000Y86728719D01*
X5915324Y86630007D01*
X5724587Y86543585D01*
X5528606Y86469824D01*
X5328221Y86409037D01*
X5124289Y86361487D01*
X4917684Y86327376D01*
X4709290Y86306851D01*
X4500000Y86300000D01*
X-3700000Y86300000D01*
X-3700000Y92700000D01*
X4500000Y92700000D01*
X4709290Y92693149D01*
G37*
%TD*%
D15*
%TO.C,J1*%
X19500000Y87000000D03*
D16*
X24500000Y87000000D03*
%TD*%
D17*
%TO.C,C1*%
X8975000Y66365000D03*
X6025000Y66365000D03*
%TD*%
D18*
%TO.C,C6*%
X22950000Y63600000D03*
X21050000Y63600000D03*
%TD*%
D19*
%TO.C,T1*%
X24871953Y60073763D03*
X19128047Y60073763D03*
X20540116Y33532645D03*
X22775000Y37270417D03*
%TD*%
D20*
%TO.C,R8*%
X17425000Y80000000D03*
X22575000Y80000000D03*
%TD*%
D21*
%TO.C,H2*%
X39500000Y89500000D03*
%TD*%
D22*
%TO.C,D1*%
X10000000Y80150000D03*
D23*
X10000000Y82525000D03*
%TD*%
D21*
%TO.C,H3*%
X4500000Y4500000D03*
%TD*%
D24*
%TO.C,D3*%
X22000000Y68150000D03*
D25*
X22000000Y65775000D03*
%TD*%
D21*
%TO.C,H4*%
X39500000Y4500000D03*
%TD*%
D26*
%TO.C,C2*%
X26000000Y66525000D03*
X26000000Y69475000D03*
%TD*%
D27*
%TO.C,R3*%
X19475000Y67365000D03*
X17825000Y67365000D03*
%TD*%
D28*
%TO.C,R5*%
X16101500Y71675000D03*
X16101500Y73325000D03*
%TD*%
D15*
%TO.C,J2*%
X24500000Y8000000D03*
D16*
X19500000Y8000000D03*
%TD*%
D29*
%TO.C,R6*%
X32450000Y63600000D03*
X25950000Y63600000D03*
%TD*%
D30*
%TO.C,C7*%
X28800000Y78000000D03*
X36200000Y78000000D03*
%TD*%
D21*
%TO.C,H1*%
X4500000Y89500000D03*
%TD*%
D31*
%TO.C,U1*%
X10898500Y69905000D03*
X10898500Y68635000D03*
X10898500Y67365000D03*
X10898500Y66095000D03*
X16101500Y66095000D03*
X16101500Y67365000D03*
X16101500Y68635000D03*
X16101500Y69905000D03*
D32*
X13500000Y68000000D03*
%TD*%
D33*
%TO.C,D4*%
X35500000Y68100000D03*
X35500000Y64100000D03*
%TD*%
D34*
%TO.C,R4*%
X17825000Y69200000D03*
X19475000Y69200000D03*
%TD*%
%TO.C,R1*%
X11675000Y76000000D03*
X13325000Y76000000D03*
%TD*%
D35*
%TO.C,F1*%
X14225000Y87000000D03*
X10775000Y87000000D03*
%TD*%
D34*
%TO.C,R2*%
X14675000Y76000000D03*
X16325000Y76000000D03*
%TD*%
D36*
%TO.C,C4*%
X27025000Y25880000D03*
X29975000Y25880000D03*
%TD*%
D37*
%TO.C,D2*%
X23000000Y25880000D03*
D38*
X22080000Y29862000D03*
X23920000Y29862000D03*
%TD*%
D39*
%TO.C,C5*%
X9275000Y68800000D03*
X7725000Y68800000D03*
%TD*%
D40*
%TO.C,C8*%
X15800000Y18500000D03*
X10200000Y18500000D03*
%TD*%
%TO.C,C3*%
X25800000Y18500000D03*
X20200000Y18500000D03*
%TD*%
D41*
%TO.C,R7*%
X31000000Y19962500D03*
X31000000Y17037500D03*
%TD*%
D42*
X30200000Y23000000D03*
X14400000Y64350000D03*
%LPD*%
M02*
