%TF.GenerationSoftware,KiCad,Pcbnew,10.0.6*%
%TF.CreationDate,2026-10-08T12:10:17-04:00*%
%TF.ProjectId,PS-FLYBACK-5W,50532d46-4c59-4424-9143-4b2d35572e6b,A3-development*%
%TF.SameCoordinates,Original*%
%TF.FileFunction,Copper,L4,Inr*%
%TF.FilePolarity,Positive*%
%FSLAX46Y46*%
G04 Gerber Fmt 4.6, Leading zero omitted, Abs format (unit mm)*
G04 Created by KiCad (PCBNEW 10.0.6) date 2026-10-08 12:10:17*
%MOMM*%
%LPD*%
G01*
G04 APERTURE LIST*
%TA.AperFunction,ComponentPad*%
%ADD10R,2.400000X2.400000*%
%TD*%
%TA.AperFunction,ComponentPad*%
%ADD11C,2.400000*%
%TD*%
%TA.AperFunction,ComponentPad*%
%ADD12C,0.600000*%
%TD*%
%TA.AperFunction,ViaPad*%
%ADD13C,0.600000*%
%TD*%
%TA.AperFunction,ViaPad*%
%ADD14C,0.900000*%
%TD*%
%TA.AperFunction,ViaPad*%
%ADD15C,1.200000*%
%TD*%
%TA.AperFunction,ViaPad*%
%ADD16C,0.800000*%
%TD*%
%TA.AperFunction,Conductor*%
%ADD17C,1.300000*%
%TD*%
%TA.AperFunction,Conductor*%
%ADD18C,1.500000*%
%TD*%
%TA.AperFunction,Conductor*%
%ADD19C,0.300000*%
%TD*%
G04 APERTURE END LIST*
D10*
%TO.N,/+5V_ISO*%
%TO.C,J2*%
X24500000Y8000000D03*
D11*
%TO.N,/GND_ISO*%
X19500000Y8000000D03*
%TD*%
D12*
%TO.N,/VIN*%
%TO.C,T1*%
X24871953Y60073763D03*
%TO.N,/SW*%
X19128047Y60073763D03*
%TO.N,/GND_ISO*%
X20540116Y33532645D03*
%TO.N,/SEC_A*%
X22775000Y37270417D03*
%TO.N,unconnected-(T1-P_MID-Pad5)*%
X22000000Y56800000D03*
%TD*%
D10*
%TO.N,/VIN_RAW*%
%TO.C,J1*%
X19500000Y87000000D03*
D11*
%TO.N,/PGND*%
X24500000Y87000000D03*
%TD*%
D13*
%TO.N,/GND_ISO*%
X34500000Y22000000D03*
X22000000Y11000000D03*
D14*
X31000000Y17037500D03*
D13*
X33000000Y29000000D03*
X29000000Y7000000D03*
X12000000Y29000000D03*
D14*
X10200000Y18500000D03*
X19269595Y30500000D03*
D13*
X17500000Y14200000D03*
X22000000Y5500000D03*
X14000000Y25000000D03*
X29000000Y14000000D03*
X33000000Y25000000D03*
X9000000Y29000000D03*
X16000000Y29000000D03*
X14000000Y14000000D03*
X13000000Y7000000D03*
X33000000Y14000000D03*
X21000000Y22000000D03*
X9000000Y14000000D03*
D14*
X20169595Y30500000D03*
X29975000Y25880000D03*
D13*
X9000000Y22000000D03*
D14*
X20200000Y18500000D03*
D15*
X30200000Y23000000D03*
D13*
X34000000Y9000000D03*
%TO.N,/PGND*%
X26000000Y69475000D03*
X36000000Y64000000D03*
X35000000Y73000000D03*
X6500000Y72000000D03*
X14300000Y68550000D03*
X19475000Y69200000D03*
X36200000Y78000000D03*
X36500000Y85000000D03*
D15*
X14400000Y64350000D03*
D13*
X12700000Y67450000D03*
X6500000Y63000000D03*
X6025000Y66365000D03*
X7500000Y63600000D03*
X25000000Y73000000D03*
X13000000Y64500000D03*
X22000000Y77000000D03*
X7725000Y68800000D03*
X37000000Y73000000D03*
X6500000Y84000000D03*
X10898500Y66095000D03*
X12700000Y68550000D03*
X36000000Y69000000D03*
X7000000Y75000000D03*
X14300000Y67450000D03*
X34000000Y64000000D03*
X8500000Y73500000D03*
X21000000Y74500000D03*
X16325000Y76000000D03*
X8000000Y85000000D03*
D14*
%TO.N,/SEC_A*%
X23450000Y29862000D03*
X22550000Y29862000D03*
D16*
%TO.N,/VIN*%
X8975000Y66365000D03*
X26000000Y66525000D03*
D13*
X11675000Y76000000D03*
D16*
X10000000Y80150000D03*
%TD*%
%TO.N,/VIN*%
D17*
X10800000Y73300000D02*
X10800000Y68190000D01*
X11800000Y78350000D02*
X11800000Y74300000D01*
X10000000Y80150000D02*
X11800000Y78350000D01*
X10800000Y68190000D02*
X8975000Y66365000D01*
X11800000Y74300000D02*
X10800000Y73300000D01*
D18*
X8975000Y65000000D02*
X11275000Y62700000D01*
X11275000Y62700000D02*
X22175000Y62700000D01*
D19*
X11675000Y76000000D02*
X11800000Y76000000D01*
D18*
X8975000Y66365000D02*
X8975000Y65000000D01*
X22175000Y62700000D02*
X26000000Y66525000D01*
%TD*%
M02*
