ISO-10303-21;
HEADER;
FILE_DESCRIPTION((''),'2;1');
FILE_NAME('SF-0603F_SERIES','2012-08-24T',('ryans'),('Bourns, Inc.'),
'PRO/ENGINEER BY PARAMETRIC TECHNOLOGY CORPORATION, 2010100',
'PRO/ENGINEER BY PARAMETRIC TECHNOLOGY CORPORATION, 2010100','');
FILE_SCHEMA(('CONFIG_CONTROL_DESIGN'));
ENDSEC;
DATA;
#1=DIRECTION('',(0.E0,0.E0,-1.E0));
#2=VECTOR('',#1,1.55E0);
#3=CARTESIAN_POINT('',(1.05E0,-2.75E-1,7.75E-1));
#4=LINE('',#3,#2);
#5=DIRECTION('',(-1.E0,0.E0,0.E0));
#6=VECTOR('',#5,2.1E0);
#7=CARTESIAN_POINT('',(1.05E0,-2.75E-1,-7.75E-1));
#8=LINE('',#7,#6);
#9=DIRECTION('',(0.E0,0.E0,-1.E0));
#10=VECTOR('',#9,1.55E0);
#11=CARTESIAN_POINT('',(-1.05E0,-2.75E-1,7.75E-1));
#12=LINE('',#11,#10);
#13=DIRECTION('',(1.E0,0.E0,0.E0));
#14=VECTOR('',#13,2.1E0);
#15=CARTESIAN_POINT('',(-1.05E0,-2.75E-1,7.75E-1));
#16=LINE('',#15,#14);
#17=DIRECTION('',(0.E0,1.E0,0.E0));
#18=VECTOR('',#17,2.5E-2);
#19=CARTESIAN_POINT('',(1.05E0,-3.E-1,-7.75E-1));
#20=LINE('',#19,#18);
#21=CARTESIAN_POINT('',(1.53E0,2.8E-1,7.75E-1));
#22=DIRECTION('',(0.E0,0.E0,1.E0));
#23=DIRECTION('',(1.E0,0.E0,0.E0));
#24=AXIS2_PLACEMENT_3D('',#21,#22,#23);
#26=CARTESIAN_POINT('',(1.53E0,-2.8E-1,7.75E-1));
#27=DIRECTION('',(0.E0,0.E0,1.E0));
#28=DIRECTION('',(0.E0,-1.E0,0.E0));
#29=AXIS2_PLACEMENT_3D('',#26,#27,#28);
#31=DIRECTION('',(0.E0,1.E0,0.E0));
#32=VECTOR('',#31,2.5E-2);
#33=CARTESIAN_POINT('',(1.05E0,-3.E-1,7.75E-1));
#34=LINE('',#33,#32);
#35=CARTESIAN_POINT('',(-1.53E0,-2.8E-1,7.75E-1));
#36=DIRECTION('',(0.E0,0.E0,1.E0));
#37=DIRECTION('',(-1.E0,0.E0,0.E0));
#38=AXIS2_PLACEMENT_3D('',#35,#36,#37);
#40=CARTESIAN_POINT('',(-1.53E0,2.8E-1,7.75E-1));
#41=DIRECTION('',(0.E0,0.E0,1.E0));
#42=DIRECTION('',(0.E0,1.E0,0.E0));
#43=AXIS2_PLACEMENT_3D('',#40,#41,#42);
#45=DIRECTION('',(0.E0,1.E0,0.E0));
#46=VECTOR('',#45,5.E-3);
#47=CARTESIAN_POINT('',(-1.05E0,3.E-1,7.75E-1));
#48=LINE('',#47,#46);
#49=CARTESIAN_POINT('',(1.53E0,2.8E-1,-7.75E-1));
#50=DIRECTION('',(0.E0,0.E0,-1.E0));
#51=DIRECTION('',(0.E0,1.E0,0.E0));
#52=AXIS2_PLACEMENT_3D('',#49,#50,#51);
#54=DIRECTION('',(0.E0,1.E0,0.E0));
#55=VECTOR('',#54,5.E-3);
#56=CARTESIAN_POINT('',(1.05E0,3.E-1,-7.75E-1));
#57=LINE('',#56,#55);
#58=CARTESIAN_POINT('',(-1.53E0,2.8E-1,-7.75E-1));
#59=DIRECTION('',(0.E0,0.E0,-1.E0));
#60=DIRECTION('',(-1.E0,0.E0,0.E0));
#61=AXIS2_PLACEMENT_3D('',#58,#59,#60);
#63=CARTESIAN_POINT('',(-1.53E0,-2.8E-1,-7.75E-1));
#64=DIRECTION('',(0.E0,0.E0,-1.E0));
#65=DIRECTION('',(0.E0,-1.E0,0.E0));
#66=AXIS2_PLACEMENT_3D('',#63,#64,#65);
#68=DIRECTION('',(0.E0,1.E0,0.E0));
#69=VECTOR('',#68,2.5E-2);
#70=CARTESIAN_POINT('',(-1.05E0,-3.E-1,-7.75E-1));
#71=LINE('',#70,#69);
#72=CARTESIAN_POINT('',(1.53E0,-2.8E-1,-7.75E-1));
#73=DIRECTION('',(0.E0,0.E0,-1.E0));
#74=DIRECTION('',(1.E0,0.E0,0.E0));
#75=AXIS2_PLACEMENT_3D('',#72,#73,#74);
#77=DIRECTION('',(0.E0,1.E0,0.E0));
#78=VECTOR('',#77,5.6E-1);
#79=CARTESIAN_POINT('',(1.55E0,-2.8E-1,-7.75E-1));
#80=LINE('',#79,#78);
#81=DIRECTION('',(0.E0,0.E0,-1.E0));
#82=VECTOR('',#81,1.55E0);
#83=CARTESIAN_POINT('',(1.53E0,3.E-1,7.75E-1));
#84=LINE('',#83,#82);
#85=DIRECTION('',(1.E0,0.E0,0.E0));
#86=VECTOR('',#85,4.8E-1);
#87=CARTESIAN_POINT('',(1.05E0,3.E-1,7.75E-1));
#88=LINE('',#87,#86);
#89=DIRECTION('',(0.E0,0.E0,-1.E0));
#90=VECTOR('',#89,1.55E0);
#91=CARTESIAN_POINT('',(1.05E0,3.E-1,7.75E-1));
#92=LINE('',#91,#90);
#93=DIRECTION('',(-1.E0,0.E0,0.E0));
#94=VECTOR('',#93,4.8E-1);
#95=CARTESIAN_POINT('',(1.53E0,3.E-1,-7.75E-1));
#96=LINE('',#95,#94);
#97=DIRECTION('',(0.E0,0.E0,1.E0));
#98=VECTOR('',#97,1.55E0);
#99=CARTESIAN_POINT('',(-1.53E0,3.E-1,-7.75E-1));
#100=LINE('',#99,#98);
#101=DIRECTION('',(-1.E0,0.E0,0.E0));
#102=VECTOR('',#101,4.8E-1);
#103=CARTESIAN_POINT('',(-1.05E0,3.E-1,-7.75E-1));
#104=LINE('',#103,#102);
#105=DIRECTION('',(0.E0,0.E0,-1.E0));
#106=VECTOR('',#105,1.55E0);
#107=CARTESIAN_POINT('',(-1.05E0,3.E-1,7.75E-1));
#108=LINE('',#107,#106);
#109=DIRECTION('',(1.E0,0.E0,0.E0));
#110=VECTOR('',#109,4.8E-1);
#111=CARTESIAN_POINT('',(-1.53E0,3.E-1,7.75E-1));
#112=LINE('',#111,#110);
#113=DIRECTION('',(0.E0,1.E0,0.E0));
#114=VECTOR('',#113,5.E-3);
#115=CARTESIAN_POINT('',(1.05E0,3.E-1,7.75E-1));
#116=LINE('',#115,#114);
#117=DIRECTION('',(0.E0,0.E0,1.E0));
#118=VECTOR('',#117,1.55E0);
#119=CARTESIAN_POINT('',(-1.05E0,3.05E-1,-7.75E-1));
#120=LINE('',#119,#118);
#121=DIRECTION('',(-1.E0,0.E0,0.E0));
#122=VECTOR('',#121,2.1E0);
#123=CARTESIAN_POINT('',(1.05E0,3.05E-1,-7.75E-1));
#124=LINE('',#123,#122);
#125=DIRECTION('',(0.E0,0.E0,-1.E0));
#126=VECTOR('',#125,1.55E0);
#127=CARTESIAN_POINT('',(1.05E0,3.05E-1,7.75E-1));
#128=LINE('',#127,#126);
#129=DIRECTION('',(1.E0,0.E0,0.E0));
#130=VECTOR('',#129,2.1E0);
#131=CARTESIAN_POINT('',(-1.05E0,3.05E-1,7.75E-1));
#132=LINE('',#131,#130);
#133=DIRECTION('',(0.E0,1.E0,0.E0));
#134=VECTOR('',#133,5.E-3);
#135=CARTESIAN_POINT('',(-1.05E0,3.E-1,-7.75E-1));
#136=LINE('',#135,#134);
#137=DIRECTION('',(0.E0,0.E0,1.E0));
#138=VECTOR('',#137,1.55E0);
#139=CARTESIAN_POINT('',(-1.55E0,2.8E-1,-7.75E-1));
#140=LINE('',#139,#138);
#141=DIRECTION('',(0.E0,-1.E0,0.E0));
#142=VECTOR('',#141,5.6E-1);
#143=CARTESIAN_POINT('',(-1.55E0,2.8E-1,7.75E-1));
#144=LINE('',#143,#142);
#145=DIRECTION('',(0.E0,0.E0,-1.E0));
#146=VECTOR('',#145,1.55E0);
#147=CARTESIAN_POINT('',(-1.55E0,-2.8E-1,7.75E-1));
#148=LINE('',#147,#146);
#149=DIRECTION('',(0.E0,1.E0,0.E0));
#150=VECTOR('',#149,5.6E-1);
#151=CARTESIAN_POINT('',(-1.55E0,-2.8E-1,-7.75E-1));
#152=LINE('',#151,#150);
#153=DIRECTION('',(0.E0,0.E0,-1.E0));
#154=VECTOR('',#153,1.55E0);
#155=CARTESIAN_POINT('',(-1.53E0,-3.E-1,7.75E-1));
#156=LINE('',#155,#154);
#157=DIRECTION('',(1.E0,0.E0,0.E0));
#158=VECTOR('',#157,4.8E-1);
#159=CARTESIAN_POINT('',(-1.53E0,-3.E-1,7.75E-1));
#160=LINE('',#159,#158);
#161=DIRECTION('',(0.E0,0.E0,-1.E0));
#162=VECTOR('',#161,1.55E0);
#163=CARTESIAN_POINT('',(-1.05E0,-3.E-1,7.75E-1));
#164=LINE('',#163,#162);
#165=DIRECTION('',(-1.E0,0.E0,0.E0));
#166=VECTOR('',#165,4.8E-1);
#167=CARTESIAN_POINT('',(-1.05E0,-3.E-1,-7.75E-1));
#168=LINE('',#167,#166);
#169=DIRECTION('',(0.E0,0.E0,1.E0));
#170=VECTOR('',#169,1.55E0);
#171=CARTESIAN_POINT('',(1.53E0,-3.E-1,-7.75E-1));
#172=LINE('',#171,#170);
#173=DIRECTION('',(-1.E0,0.E0,0.E0));
#174=VECTOR('',#173,4.8E-1);
#175=CARTESIAN_POINT('',(1.53E0,-3.E-1,-7.75E-1));
#176=LINE('',#175,#174);
#177=DIRECTION('',(0.E0,0.E0,1.E0));
#178=VECTOR('',#177,1.55E0);
#179=CARTESIAN_POINT('',(1.05E0,-3.E-1,-7.75E-1));
#180=LINE('',#179,#178);
#181=DIRECTION('',(1.E0,0.E0,0.E0));
#182=VECTOR('',#181,4.8E-1);
#183=CARTESIAN_POINT('',(1.05E0,-3.E-1,7.75E-1));
#184=LINE('',#183,#182);
#185=DIRECTION('',(0.E0,1.E0,0.E0));
#186=VECTOR('',#185,2.5E-2);
#187=CARTESIAN_POINT('',(-1.05E0,-3.E-1,7.75E-1));
#188=LINE('',#187,#186);
#189=DIRECTION('',(0.E0,0.E0,-1.E0));
#190=VECTOR('',#189,1.55E0);
#191=CARTESIAN_POINT('',(1.55E0,2.8E-1,7.75E-1));
#192=LINE('',#191,#190);
#193=DIRECTION('',(0.E0,0.E0,1.E0));
#194=VECTOR('',#193,1.55E0);
#195=CARTESIAN_POINT('',(1.55E0,-2.8E-1,-7.75E-1));
#196=LINE('',#195,#194);
#197=DIRECTION('',(0.E0,1.E0,0.E0));
#198=VECTOR('',#197,5.6E-1);
#199=CARTESIAN_POINT('',(1.55E0,-2.8E-1,7.75E-1));
#200=LINE('',#199,#198);
#201=CARTESIAN_POINT('',(1.05E0,-3.E-1,-7.75E-1));
#202=CARTESIAN_POINT('',(1.05E0,-3.E-1,7.75E-1));
#203=VERTEX_POINT('',#201);
#204=VERTEX_POINT('',#202);
#205=CARTESIAN_POINT('',(-1.05E0,-3.E-1,7.75E-1));
#206=CARTESIAN_POINT('',(-1.05E0,-3.E-1,-7.75E-1));
#207=VERTEX_POINT('',#205);
#208=VERTEX_POINT('',#206);
#209=CARTESIAN_POINT('',(1.05E0,-2.75E-1,7.75E-1));
#210=CARTESIAN_POINT('',(1.05E0,-2.75E-1,-7.75E-1));
#211=VERTEX_POINT('',#209);
#212=VERTEX_POINT('',#210);
#213=CARTESIAN_POINT('',(-1.05E0,-2.75E-1,7.75E-1));
#214=CARTESIAN_POINT('',(-1.05E0,-2.75E-1,-7.75E-1));
#215=VERTEX_POINT('',#213);
#216=VERTEX_POINT('',#214);
#217=CARTESIAN_POINT('',(-1.05E0,3.05E-1,-7.75E-1));
#218=CARTESIAN_POINT('',(-1.05E0,3.05E-1,7.75E-1));
#219=VERTEX_POINT('',#217);
#220=VERTEX_POINT('',#218);
#221=CARTESIAN_POINT('',(1.05E0,3.05E-1,7.75E-1));
#222=VERTEX_POINT('',#221);
#223=CARTESIAN_POINT('',(1.05E0,3.05E-1,-7.75E-1));
#224=VERTEX_POINT('',#223);
#225=CARTESIAN_POINT('',(-1.05E0,3.E-1,-7.75E-1));
#226=VERTEX_POINT('',#225);
#227=CARTESIAN_POINT('',(-1.05E0,3.E-1,7.75E-1));
#228=VERTEX_POINT('',#227);
#229=CARTESIAN_POINT('',(1.05E0,3.E-1,7.75E-1));
#230=VERTEX_POINT('',#229);
#231=CARTESIAN_POINT('',(1.05E0,3.E-1,-7.75E-1));
#232=VERTEX_POINT('',#231);
#233=CARTESIAN_POINT('',(1.53E0,3.E-1,-7.75E-1));
#234=CARTESIAN_POINT('',(1.55E0,2.8E-1,-7.75E-1));
#235=VERTEX_POINT('',#233);
#236=VERTEX_POINT('',#234);
#237=CARTESIAN_POINT('',(1.55E0,2.8E-1,7.75E-1));
#238=VERTEX_POINT('',#237);
#239=CARTESIAN_POINT('',(1.53E0,3.E-1,7.75E-1));
#240=VERTEX_POINT('',#239);
#241=CARTESIAN_POINT('',(-1.53E0,3.E-1,7.75E-1));
#242=CARTESIAN_POINT('',(-1.55E0,2.8E-1,7.75E-1));
#243=VERTEX_POINT('',#241);
#244=VERTEX_POINT('',#242);
#245=CARTESIAN_POINT('',(-1.55E0,2.8E-1,-7.75E-1));
#246=VERTEX_POINT('',#245);
#247=CARTESIAN_POINT('',(-1.53E0,3.E-1,-7.75E-1));
#248=VERTEX_POINT('',#247);
#249=CARTESIAN_POINT('',(-1.53E0,-3.E-1,-7.75E-1));
#250=CARTESIAN_POINT('',(-1.55E0,-2.8E-1,-7.75E-1));
#251=VERTEX_POINT('',#249);
#252=VERTEX_POINT('',#250);
#253=CARTESIAN_POINT('',(-1.55E0,-2.8E-1,7.75E-1));
#254=VERTEX_POINT('',#253);
#255=CARTESIAN_POINT('',(-1.53E0,-3.E-1,7.75E-1));
#256=VERTEX_POINT('',#255);
#257=CARTESIAN_POINT('',(1.53E0,-3.E-1,7.75E-1));
#258=CARTESIAN_POINT('',(1.55E0,-2.8E-1,7.75E-1));
#259=VERTEX_POINT('',#257);
#260=VERTEX_POINT('',#258);
#261=CARTESIAN_POINT('',(1.55E0,-2.8E-1,-7.75E-1));
#262=VERTEX_POINT('',#261);
#263=CARTESIAN_POINT('',(1.53E0,-3.E-1,-7.75E-1));
#264=VERTEX_POINT('',#263);
#265=CARTESIAN_POINT('',(0.E0,-2.75E-1,0.E0));
#266=DIRECTION('',(0.E0,1.E0,0.E0));
#267=DIRECTION('',(1.E0,0.E0,0.E0));
#268=AXIS2_PLACEMENT_3D('',#265,#266,#267);
#269=PLANE('',#268);
#271=ORIENTED_EDGE('',*,*,#270,.T.);
#273=ORIENTED_EDGE('',*,*,#272,.T.);
#275=ORIENTED_EDGE('',*,*,#274,.F.);
#277=ORIENTED_EDGE('',*,*,#276,.T.);
#278=EDGE_LOOP('',(#271,#273,#275,#277));
#279=FACE_OUTER_BOUND('',#278,.F.);
#281=CARTESIAN_POINT('',(1.05E0,-3.E-1,-7.75E-1));
#282=DIRECTION('',(-1.E0,0.E0,0.E0));
#283=DIRECTION('',(0.E0,0.E0,1.E0));
#284=AXIS2_PLACEMENT_3D('',#281,#282,#283);
#285=PLANE('',#284);
#286=ORIENTED_EDGE('',*,*,#270,.F.);
#288=ORIENTED_EDGE('',*,*,#287,.F.);
#290=ORIENTED_EDGE('',*,*,#289,.F.);
#292=ORIENTED_EDGE('',*,*,#291,.T.);
#293=EDGE_LOOP('',(#286,#288,#290,#292));
#294=FACE_OUTER_BOUND('',#293,.F.);
#296=CARTESIAN_POINT('',(-1.55E0,-2.75E-1,7.75E-1));
#297=DIRECTION('',(0.E0,0.E0,1.E0));
#298=DIRECTION('',(1.E0,0.E0,0.E0));
#299=AXIS2_PLACEMENT_3D('',#296,#297,#298);
#300=PLANE('',#299);
#302=ORIENTED_EDGE('',*,*,#301,.F.);
#304=ORIENTED_EDGE('',*,*,#303,.F.);
#306=ORIENTED_EDGE('',*,*,#305,.F.);
#308=ORIENTED_EDGE('',*,*,#307,.F.);
#309=ORIENTED_EDGE('',*,*,#287,.T.);
#310=ORIENTED_EDGE('',*,*,#276,.F.);
#312=ORIENTED_EDGE('',*,*,#311,.F.);
#314=ORIENTED_EDGE('',*,*,#313,.F.);
#316=ORIENTED_EDGE('',*,*,#315,.F.);
#318=ORIENTED_EDGE('',*,*,#317,.F.);
#320=ORIENTED_EDGE('',*,*,#319,.F.);
#322=ORIENTED_EDGE('',*,*,#321,.T.);
#324=ORIENTED_EDGE('',*,*,#323,.T.);
#326=ORIENTED_EDGE('',*,*,#325,.T.);
#328=ORIENTED_EDGE('',*,*,#327,.F.);
#330=ORIENTED_EDGE('',*,*,#329,.T.);
#331=EDGE_LOOP('',(#302,#304,#306,#308,#309,#310,#312,#314,#316,#318,#320,#322,
#324,#326,#328,#330));
#332=FACE_OUTER_BOUND('',#331,.F.);
#334=CARTESIAN_POINT('',(1.53E0,2.8E-1,2.79558E0));
#335=DIRECTION('',(0.E0,0.E0,-1.E0));
#336=DIRECTION('',(0.E0,1.E0,0.E0));
#337=AXIS2_PLACEMENT_3D('',#334,#335,#336);
#338=CYLINDRICAL_SURFACE('',#337,2.E-2);
#340=ORIENTED_EDGE('',*,*,#339,.T.);
#342=ORIENTED_EDGE('',*,*,#341,.F.);
#343=ORIENTED_EDGE('',*,*,#301,.T.);
#345=ORIENTED_EDGE('',*,*,#344,.T.);
#346=EDGE_LOOP('',(#340,#342,#343,#345));
#347=FACE_OUTER_BOUND('',#346,.F.);
#349=CARTESIAN_POINT('',(1.55E0,-2.75E-1,-7.75E-1));
#350=DIRECTION('',(0.E0,0.E0,-1.E0));
#351=DIRECTION('',(-1.E0,0.E0,0.E0));
#352=AXIS2_PLACEMENT_3D('',#349,#350,#351);
#353=PLANE('',#352);
#354=ORIENTED_EDGE('',*,*,#339,.F.);
#356=ORIENTED_EDGE('',*,*,#355,.T.);
#358=ORIENTED_EDGE('',*,*,#357,.T.);
#360=ORIENTED_EDGE('',*,*,#359,.T.);
#362=ORIENTED_EDGE('',*,*,#361,.F.);
#364=ORIENTED_EDGE('',*,*,#363,.T.);
#366=ORIENTED_EDGE('',*,*,#365,.F.);
#368=ORIENTED_EDGE('',*,*,#367,.F.);
#370=ORIENTED_EDGE('',*,*,#369,.F.);
#372=ORIENTED_EDGE('',*,*,#371,.F.);
#374=ORIENTED_EDGE('',*,*,#373,.T.);
#375=ORIENTED_EDGE('',*,*,#272,.F.);
#376=ORIENTED_EDGE('',*,*,#291,.F.);
#378=ORIENTED_EDGE('',*,*,#377,.F.);
#380=ORIENTED_EDGE('',*,*,#379,.F.);
#382=ORIENTED_EDGE('',*,*,#381,.T.);
#383=EDGE_LOOP('',(#354,#356,#358,#360,#362,#364,#366,#368,#370,#372,#374,#375,
#376,#378,#380,#382));
#384=FACE_OUTER_BOUND('',#383,.F.);
#386=CARTESIAN_POINT('',(0.E0,3.E-1,0.E0));
#387=DIRECTION('',(0.E0,1.E0,0.E0));
#388=DIRECTION('',(1.E0,0.E0,0.E0));
#389=AXIS2_PLACEMENT_3D('',#386,#387,#388);
#390=PLANE('',#389);
#391=ORIENTED_EDGE('',*,*,#344,.F.);
#392=ORIENTED_EDGE('',*,*,#329,.F.);
#394=ORIENTED_EDGE('',*,*,#393,.T.);
#395=ORIENTED_EDGE('',*,*,#355,.F.);
#396=EDGE_LOOP('',(#391,#392,#394,#395));
#397=FACE_OUTER_BOUND('',#396,.F.);
#399=CARTESIAN_POINT('',(0.E0,3.E-1,0.E0));
#400=DIRECTION('',(0.E0,1.E0,0.E0));
#401=DIRECTION('',(1.E0,0.E0,0.E0));
#402=AXIS2_PLACEMENT_3D('',#399,#400,#401);
#403=PLANE('',#402);
#405=ORIENTED_EDGE('',*,*,#404,.F.);
#406=ORIENTED_EDGE('',*,*,#363,.F.);
#408=ORIENTED_EDGE('',*,*,#407,.F.);
#409=ORIENTED_EDGE('',*,*,#321,.F.);
#410=EDGE_LOOP('',(#405,#406,#408,#409));
#411=FACE_OUTER_BOUND('',#410,.F.);
#413=CARTESIAN_POINT('',(1.05E0,2.75E-1,7.75E-1));
#414=DIRECTION('',(1.E0,0.E0,0.E0));
#415=DIRECTION('',(0.E0,0.E0,-1.E0));
#416=AXIS2_PLACEMENT_3D('',#413,#414,#415);
#417=PLANE('',#416);
#418=ORIENTED_EDGE('',*,*,#327,.T.);
#420=ORIENTED_EDGE('',*,*,#419,.T.);
#421=ORIENTED_EDGE('',*,*,#357,.F.);
#422=ORIENTED_EDGE('',*,*,#393,.F.);
#423=EDGE_LOOP('',(#418,#420,#421,#422));
#424=FACE_OUTER_BOUND('',#423,.F.);
#426=CARTESIAN_POINT('',(0.E0,3.05E-1,0.E0));
#427=DIRECTION('',(0.E0,1.E0,0.E0));
#428=DIRECTION('',(1.E0,0.E0,0.E0));
#429=AXIS2_PLACEMENT_3D('',#426,#427,#428);
#430=PLANE('',#429);
#432=ORIENTED_EDGE('',*,*,#431,.F.);
#433=ORIENTED_EDGE('',*,*,#359,.F.);
#434=ORIENTED_EDGE('',*,*,#419,.F.);
#435=ORIENTED_EDGE('',*,*,#325,.F.);
#436=EDGE_LOOP('',(#432,#433,#434,#435));
#437=FACE_OUTER_BOUND('',#436,.F.);
#439=CARTESIAN_POINT('',(-1.05E0,2.75E-1,-7.75E-1));
#440=DIRECTION('',(-1.E0,0.E0,0.E0));
#441=DIRECTION('',(0.E0,0.E0,1.E0));
#442=AXIS2_PLACEMENT_3D('',#439,#440,#441);
#443=PLANE('',#442);
#444=ORIENTED_EDGE('',*,*,#361,.T.);
#445=ORIENTED_EDGE('',*,*,#431,.T.);
#446=ORIENTED_EDGE('',*,*,#323,.F.);
#447=ORIENTED_EDGE('',*,*,#407,.T.);
#448=EDGE_LOOP('',(#444,#445,#446,#447));
#449=FACE_OUTER_BOUND('',#448,.F.);
#451=CARTESIAN_POINT('',(-1.53E0,2.8E-1,-2.79558E0));
#452=DIRECTION('',(0.E0,0.E0,1.E0));
#453=DIRECTION('',(0.E0,1.E0,0.E0));
#454=AXIS2_PLACEMENT_3D('',#451,#452,#453);
#455=CYLINDRICAL_SURFACE('',#454,2.E-2);
#456=ORIENTED_EDGE('',*,*,#319,.T.);
#458=ORIENTED_EDGE('',*,*,#457,.F.);
#459=ORIENTED_EDGE('',*,*,#365,.T.);
#460=ORIENTED_EDGE('',*,*,#404,.T.);
#461=EDGE_LOOP('',(#456,#458,#459,#460));
#462=FACE_OUTER_BOUND('',#461,.F.);
#464=CARTESIAN_POINT('',(-1.55E0,-2.75E-1,-7.75E-1));
#465=DIRECTION('',(-1.E0,0.E0,0.E0));
#466=DIRECTION('',(0.E0,0.E0,1.E0));
#467=AXIS2_PLACEMENT_3D('',#464,#465,#466);
#468=PLANE('',#467);
#469=ORIENTED_EDGE('',*,*,#457,.T.);
#470=ORIENTED_EDGE('',*,*,#317,.T.);
#472=ORIENTED_EDGE('',*,*,#471,.T.);
#473=ORIENTED_EDGE('',*,*,#367,.T.);
#474=EDGE_LOOP('',(#469,#470,#472,#473));
#475=FACE_OUTER_BOUND('',#474,.F.);
#477=CARTESIAN_POINT('',(-1.53E0,-2.8E-1,2.79558E0));
#478=DIRECTION('',(0.E0,0.E0,-1.E0));
#479=DIRECTION('',(0.E0,-1.E0,0.E0));
#480=AXIS2_PLACEMENT_3D('',#477,#478,#479);
#481=CYLINDRICAL_SURFACE('',#480,2.E-2);
#482=ORIENTED_EDGE('',*,*,#369,.T.);
#483=ORIENTED_EDGE('',*,*,#471,.F.);
#484=ORIENTED_EDGE('',*,*,#315,.T.);
#486=ORIENTED_EDGE('',*,*,#485,.T.);
#487=EDGE_LOOP('',(#482,#483,#484,#486));
#488=FACE_OUTER_BOUND('',#487,.F.);
#490=CARTESIAN_POINT('',(0.E0,-3.E-1,0.E0));
#491=DIRECTION('',(0.E0,1.E0,0.E0));
#492=DIRECTION('',(1.E0,0.E0,0.E0));
#493=AXIS2_PLACEMENT_3D('',#490,#491,#492);
#494=PLANE('',#493);
#495=ORIENTED_EDGE('',*,*,#485,.F.);
#496=ORIENTED_EDGE('',*,*,#313,.T.);
#498=ORIENTED_EDGE('',*,*,#497,.T.);
#499=ORIENTED_EDGE('',*,*,#371,.T.);
#500=EDGE_LOOP('',(#495,#496,#498,#499));
#501=FACE_OUTER_BOUND('',#500,.F.);
#503=CARTESIAN_POINT('',(0.E0,-3.E-1,0.E0));
#504=DIRECTION('',(0.E0,1.E0,0.E0));
#505=DIRECTION('',(1.E0,0.E0,0.E0));
#506=AXIS2_PLACEMENT_3D('',#503,#504,#505);
#507=PLANE('',#506);
#509=ORIENTED_EDGE('',*,*,#508,.F.);
#510=ORIENTED_EDGE('',*,*,#377,.T.);
#511=ORIENTED_EDGE('',*,*,#289,.T.);
#512=ORIENTED_EDGE('',*,*,#307,.T.);
#513=EDGE_LOOP('',(#509,#510,#511,#512));
#514=FACE_OUTER_BOUND('',#513,.F.);
#516=CARTESIAN_POINT('',(-1.05E0,-3.E-1,7.75E-1));
#517=DIRECTION('',(1.E0,0.E0,0.E0));
#518=DIRECTION('',(0.E0,0.E0,-1.E0));
#519=AXIS2_PLACEMENT_3D('',#516,#517,#518);
#520=PLANE('',#519);
#521=ORIENTED_EDGE('',*,*,#274,.T.);
#522=ORIENTED_EDGE('',*,*,#373,.F.);
#523=ORIENTED_EDGE('',*,*,#497,.F.);
#524=ORIENTED_EDGE('',*,*,#311,.T.);
#525=EDGE_LOOP('',(#521,#522,#523,#524));
#526=FACE_OUTER_BOUND('',#525,.F.);
#528=CARTESIAN_POINT('',(1.53E0,-2.8E-1,-2.79558E0));
#529=DIRECTION('',(0.E0,0.E0,1.E0));
#530=DIRECTION('',(0.E0,-1.E0,0.E0));
#531=AXIS2_PLACEMENT_3D('',#528,#529,#530);
#532=CYLINDRICAL_SURFACE('',#531,2.E-2);
#533=ORIENTED_EDGE('',*,*,#305,.T.);
#535=ORIENTED_EDGE('',*,*,#534,.F.);
#536=ORIENTED_EDGE('',*,*,#379,.T.);
#537=ORIENTED_EDGE('',*,*,#508,.T.);
#538=EDGE_LOOP('',(#533,#535,#536,#537));
#539=FACE_OUTER_BOUND('',#538,.F.);
#541=CARTESIAN_POINT('',(1.55E0,-2.75E-1,7.75E-1));
#542=DIRECTION('',(1.E0,0.E0,0.E0));
#543=DIRECTION('',(0.E0,0.E0,-1.E0));
#544=AXIS2_PLACEMENT_3D('',#541,#542,#543);
#545=PLANE('',#544);
#546=ORIENTED_EDGE('',*,*,#341,.T.);
#547=ORIENTED_EDGE('',*,*,#381,.F.);
#548=ORIENTED_EDGE('',*,*,#534,.T.);
#549=ORIENTED_EDGE('',*,*,#303,.T.);
#550=EDGE_LOOP('',(#546,#547,#548,#549));
#551=FACE_OUTER_BOUND('',#550,.F.);
#553=CLOSED_SHELL('',(#280,#295,#333,#348,#385,#398,#412,#425,#438,#450,#463,
#476,#489,#502,#515,#527,#540,#552));
#554=MANIFOLD_SOLID_BREP('',#553);
#556=DIMENSIONAL_EXPONENTS(0.E0,0.E0,0.E0,0.E0,0.E0,0.E0,0.E0);
#558=PLANE_ANGLE_MEASURE_WITH_UNIT(PLANE_ANGLE_MEASURE(1.745329251994E-2),#557);
#559=(CONVERSION_BASED_UNIT('DEGREE',#558)NAMED_UNIT(*)PLANE_ANGLE_UNIT());
#561=UNCERTAINTY_MEASURE_WITH_UNIT(LENGTH_MEASURE(1.465905030569E-4),#555,
'closure',
'Maximum model space distance between geometric entities at asserted connectivities');
#564=APPLICATION_CONTEXT(
'CONFIGURATION CONTROLLED 3D DESIGNS OF MECHANICAL PARTS AND ASSEMBLIES');
#565=APPLICATION_PROTOCOL_DEFINITION('international standard',
'config_control_design',1994,#564);
#566=DESIGN_CONTEXT('',#564,'design');
#567=MECHANICAL_CONTEXT('',#564,'mechanical');
#568=PRODUCT('SF-0603F_SERIES','SF-0603F_SERIES','NOT SPECIFIED',(#567));
#569=PRODUCT_DEFINITION_FORMATION_WITH_SPECIFIED_SOURCE('2','LAST_VERSION',#568,
.MADE.);
#573=PRODUCT_CATEGORY('part','');
#574=PRODUCT_RELATED_PRODUCT_CATEGORY('detail','',(#568));
#575=PRODUCT_CATEGORY_RELATIONSHIP('','',#573,#574);
#576=SECURITY_CLASSIFICATION_LEVEL('unclassified');
#577=SECURITY_CLASSIFICATION('','',#576);
#578=CC_DESIGN_SECURITY_CLASSIFICATION(#577,(#569));
#579=APPROVAL_STATUS('approved');
#580=APPROVAL(#579,'');
#581=CC_DESIGN_APPROVAL(#580,(#577,#569,#570));
#582=CALENDAR_DATE(112,24,8);
#583=COORDINATED_UNIVERSAL_TIME_OFFSET(7,0,.BEHIND.);
#584=LOCAL_TIME(14,13,3.8E1,#583);
#585=DATE_AND_TIME(#582,#584);
#586=APPROVAL_DATE_TIME(#585,#580);
#587=DATE_TIME_ROLE('creation_date');
#588=CC_DESIGN_DATE_AND_TIME_ASSIGNMENT(#585,#587,(#570));
#589=DATE_TIME_ROLE('classification_date');
#590=CC_DESIGN_DATE_AND_TIME_ASSIGNMENT(#585,#589,(#577));
#591=PERSON('UNSPECIFIED','UNSPECIFIED',$,$,$,$);
#592=ORGANIZATION('UNSPECIFIED','UNSPECIFIED','UNSPECIFIED');
#593=PERSON_AND_ORGANIZATION(#591,#592);
#594=APPROVAL_ROLE('approver');
#595=APPROVAL_PERSON_ORGANIZATION(#593,#580,#594);
#596=PERSON_AND_ORGANIZATION_ROLE('creator');
#597=CC_DESIGN_PERSON_AND_ORGANIZATION_ASSIGNMENT(#593,#596,(#569,#570));
#598=PERSON_AND_ORGANIZATION_ROLE('design_supplier');
#599=CC_DESIGN_PERSON_AND_ORGANIZATION_ASSIGNMENT(#593,#598,(#569));
#600=PERSON_AND_ORGANIZATION_ROLE('classification_officer');
#601=CC_DESIGN_PERSON_AND_ORGANIZATION_ASSIGNMENT(#593,#600,(#577));
#602=PERSON_AND_ORGANIZATION_ROLE('design_owner');
#603=CC_DESIGN_PERSON_AND_ORGANIZATION_ASSIGNMENT(#593,#602,(#568));
#25=CIRCLE('',#24,2.E-2);
#30=CIRCLE('',#29,2.E-2);
#39=CIRCLE('',#38,2.E-2);
#44=CIRCLE('',#43,2.E-2);
#53=CIRCLE('',#52,2.E-2);
#62=CIRCLE('',#61,2.E-2);
#67=CIRCLE('',#66,2.E-2);
#76=CIRCLE('',#75,2.E-2);
#270=EDGE_CURVE('',#211,#212,#4,.T.);
#272=EDGE_CURVE('',#212,#216,#8,.T.);
#274=EDGE_CURVE('',#215,#216,#12,.T.);
#276=EDGE_CURVE('',#215,#211,#16,.T.);
#280=ADVANCED_FACE('',(#279),#269,.F.);
#287=EDGE_CURVE('',#204,#211,#34,.T.);
#289=EDGE_CURVE('',#203,#204,#180,.T.);
#291=EDGE_CURVE('',#203,#212,#20,.T.);
#295=ADVANCED_FACE('',(#294),#285,.T.);
#301=EDGE_CURVE('',#238,#240,#25,.T.);
#303=EDGE_CURVE('',#260,#238,#200,.T.);
#305=EDGE_CURVE('',#259,#260,#30,.T.);
#307=EDGE_CURVE('',#204,#259,#184,.T.);
#311=EDGE_CURVE('',#207,#215,#188,.T.);
#313=EDGE_CURVE('',#256,#207,#160,.T.);
#315=EDGE_CURVE('',#254,#256,#39,.T.);
#317=EDGE_CURVE('',#244,#254,#144,.T.);
#319=EDGE_CURVE('',#243,#244,#44,.T.);
#321=EDGE_CURVE('',#243,#228,#112,.T.);
#323=EDGE_CURVE('',#228,#220,#48,.T.);
#325=EDGE_CURVE('',#220,#222,#132,.T.);
#327=EDGE_CURVE('',#230,#222,#116,.T.);
#329=EDGE_CURVE('',#230,#240,#88,.T.);
#333=ADVANCED_FACE('',(#332),#300,.T.);
#339=EDGE_CURVE('',#235,#236,#53,.T.);
#341=EDGE_CURVE('',#238,#236,#192,.T.);
#344=EDGE_CURVE('',#240,#235,#84,.T.);
#348=ADVANCED_FACE('',(#347),#338,.T.);
#355=EDGE_CURVE('',#235,#232,#96,.T.);
#357=EDGE_CURVE('',#232,#224,#57,.T.);
#359=EDGE_CURVE('',#224,#219,#124,.T.);
#361=EDGE_CURVE('',#226,#219,#136,.T.);
#363=EDGE_CURVE('',#226,#248,#104,.T.);
#365=EDGE_CURVE('',#246,#248,#62,.T.);
#367=EDGE_CURVE('',#252,#246,#152,.T.);
#369=EDGE_CURVE('',#251,#252,#67,.T.);
#371=EDGE_CURVE('',#208,#251,#168,.T.);
#373=EDGE_CURVE('',#208,#216,#71,.T.);
#377=EDGE_CURVE('',#264,#203,#176,.T.);
#379=EDGE_CURVE('',#262,#264,#76,.T.);
#381=EDGE_CURVE('',#262,#236,#80,.T.);
#385=ADVANCED_FACE('',(#384),#353,.T.);
#393=EDGE_CURVE('',#230,#232,#92,.T.);
#398=ADVANCED_FACE('',(#397),#390,.T.);
#404=EDGE_CURVE('',#248,#243,#100,.T.);
#407=EDGE_CURVE('',#228,#226,#108,.T.);
#412=ADVANCED_FACE('',(#411),#403,.T.);
#419=EDGE_CURVE('',#222,#224,#128,.T.);
#425=ADVANCED_FACE('',(#424),#417,.T.);
#431=EDGE_CURVE('',#219,#220,#120,.T.);
#438=ADVANCED_FACE('',(#437),#430,.T.);
#450=ADVANCED_FACE('',(#449),#443,.T.);
#457=EDGE_CURVE('',#246,#244,#140,.T.);
#463=ADVANCED_FACE('',(#462),#455,.T.);
#471=EDGE_CURVE('',#254,#252,#148,.T.);
#476=ADVANCED_FACE('',(#475),#468,.T.);
#485=EDGE_CURVE('',#256,#251,#156,.T.);
#489=ADVANCED_FACE('',(#488),#481,.T.);
#497=EDGE_CURVE('',#207,#208,#164,.T.);
#502=ADVANCED_FACE('',(#501),#494,.F.);
#508=EDGE_CURVE('',#264,#259,#172,.T.);
#515=ADVANCED_FACE('',(#514),#507,.F.);
#527=ADVANCED_FACE('',(#526),#520,.T.);
#534=EDGE_CURVE('',#262,#260,#196,.T.);
#540=ADVANCED_FACE('',(#539),#532,.T.);
#552=ADVANCED_FACE('',(#551),#545,.T.);
#555=(LENGTH_UNIT()NAMED_UNIT(*)SI_UNIT(.MILLI.,.METRE.));
#557=(NAMED_UNIT(*)PLANE_ANGLE_UNIT()SI_UNIT($,.RADIAN.));
#560=(NAMED_UNIT(*)SI_UNIT($,.STERADIAN.)SOLID_ANGLE_UNIT());
#562=(GEOMETRIC_REPRESENTATION_CONTEXT(3)GLOBAL_UNCERTAINTY_ASSIGNED_CONTEXT((
#561))GLOBAL_UNIT_ASSIGNED_CONTEXT((#555,#559,#560))REPRESENTATION_CONTEXT
('ID1','3'));
#563=ADVANCED_BREP_SHAPE_REPRESENTATION('',(#554),#562);
#570=PRODUCT_DEFINITION('design','',#569,#566);
#571=PRODUCT_DEFINITION_SHAPE('','SHAPE FOR SF-0603F_SERIES.',#570);
#572=SHAPE_DEFINITION_REPRESENTATION(#571,#563);
ENDSEC;
END-ISO-10303-21;
