%TF.GenerationSoftware,KiCad,Pcbnew,10.0.6*%
%TF.CreationDate,2026-09-30T11:25:32-04:00*%
%TF.ProjectId,PS-FLYBACK-5W-panel,50532d46-4c59-4424-9143-4b2d35572d70,A1-development*%
%TF.SameCoordinates,Original*%
%TF.FileFunction,Soldermask,Bot*%
%TF.FilePolarity,Negative*%
%FSLAX46Y46*%
G04 Gerber Fmt 4.6, Leading zero omitted, Abs format (unit mm)*
G04 Created by KiCad (PCBNEW 10.0.6) date 2026-09-30 11:25:32*
%MOMM*%
%LPD*%
G01*
G04 APERTURE LIST*
%ADD10C,0.000000*%
%ADD11C,3.200000*%
%ADD12C,0.500000*%
%ADD13R,2.400000X2.400000*%
%ADD14C,2.400000*%
%ADD15C,0.800000*%
%ADD16C,1.500000*%
%ADD17C,1.000000*%
G04 APERTURE END LIST*
D10*
%TO.C,H1*%
G36*
X14709290Y112693149D02*
G01*
X14917684Y112672624D01*
X15124289Y112638513D01*
X15328221Y112590963D01*
X15528606Y112530176D01*
X15724587Y112456415D01*
X15915324Y112369993D01*
X16100000Y112271281D01*
X16277825Y112160703D01*
X16448037Y112038731D01*
X16609907Y111905887D01*
X16762742Y111762742D01*
X16905887Y111609907D01*
X17038731Y111448037D01*
X17160703Y111277825D01*
X17271281Y111100000D01*
X17369993Y110915324D01*
X17456415Y110724587D01*
X17530176Y110528606D01*
X17590963Y110328221D01*
X17638513Y110124289D01*
X17672624Y109917684D01*
X17693149Y109709290D01*
X17700000Y109500000D01*
X17693149Y109290710D01*
X17672624Y109082316D01*
X17638513Y108875711D01*
X17590963Y108671779D01*
X17530176Y108471394D01*
X17456415Y108275413D01*
X17369993Y108084676D01*
X17271281Y107900000D01*
X17160703Y107722175D01*
X17038731Y107551963D01*
X16905887Y107390093D01*
X16762742Y107237258D01*
X16609907Y107094113D01*
X16448037Y106961269D01*
X16277825Y106839297D01*
X16100000Y106728719D01*
X15915324Y106630007D01*
X15724587Y106543585D01*
X15528606Y106469824D01*
X15328221Y106409037D01*
X15124289Y106361487D01*
X14917684Y106327376D01*
X14709290Y106306851D01*
X14500000Y106300000D01*
X6300000Y106300000D01*
X6300000Y112700000D01*
X14500000Y112700000D01*
X14709290Y112693149D01*
G37*
%TO.C,H4*%
G36*
X63700000Y11300000D02*
G01*
X55500000Y11300000D01*
X55290710Y11306851D01*
X55082316Y11327376D01*
X54875711Y11361487D01*
X54671779Y11409037D01*
X54471394Y11469824D01*
X54275413Y11543585D01*
X54084676Y11630007D01*
X53900000Y11728719D01*
X53722175Y11839297D01*
X53551963Y11961269D01*
X53390093Y12094113D01*
X53237258Y12237258D01*
X53094113Y12390093D01*
X52961269Y12551963D01*
X52839297Y12722175D01*
X52728719Y12900000D01*
X52630007Y13084676D01*
X52543585Y13275413D01*
X52469824Y13471394D01*
X52409037Y13671779D01*
X52361487Y13875711D01*
X52327376Y14082316D01*
X52306851Y14290710D01*
X52300000Y14500000D01*
X52306851Y14709290D01*
X52327376Y14917684D01*
X52361487Y15124289D01*
X52409037Y15328221D01*
X52469824Y15528606D01*
X52543585Y15724587D01*
X52630007Y15915324D01*
X52728719Y16100000D01*
X52839297Y16277825D01*
X52961269Y16448037D01*
X53094113Y16609907D01*
X53237258Y16762742D01*
X53390093Y16905887D01*
X53551963Y17038731D01*
X53722175Y17160703D01*
X53900000Y17271281D01*
X54084676Y17369993D01*
X54275413Y17456415D01*
X54471394Y17530176D01*
X54671779Y17590963D01*
X54875711Y17638513D01*
X55082316Y17672624D01*
X55290710Y17693149D01*
X55500000Y17700000D01*
X63700000Y17700000D01*
X63700000Y11300000D01*
G37*
%TO.C,H2*%
G36*
X63700000Y106300000D02*
G01*
X55500000Y106300000D01*
X55290710Y106306851D01*
X55082316Y106327376D01*
X54875711Y106361487D01*
X54671779Y106409037D01*
X54471394Y106469824D01*
X54275413Y106543585D01*
X54084676Y106630007D01*
X53900000Y106728719D01*
X53722175Y106839297D01*
X53551963Y106961269D01*
X53390093Y107094113D01*
X53237258Y107237258D01*
X53094113Y107390093D01*
X52961269Y107551963D01*
X52839297Y107722175D01*
X52728719Y107900000D01*
X52630007Y108084676D01*
X52543585Y108275413D01*
X52469824Y108471394D01*
X52409037Y108671779D01*
X52361487Y108875711D01*
X52327376Y109082316D01*
X52306851Y109290710D01*
X52300000Y109500000D01*
X52306851Y109709290D01*
X52327376Y109917684D01*
X52361487Y110124289D01*
X52409037Y110328221D01*
X52469824Y110528606D01*
X52543585Y110724587D01*
X52630007Y110915324D01*
X52728719Y111100000D01*
X52839297Y111277825D01*
X52961269Y111448037D01*
X53094113Y111609907D01*
X53237258Y111762742D01*
X53390093Y111905887D01*
X53551963Y112038731D01*
X53722175Y112160703D01*
X53900000Y112271281D01*
X54084676Y112369993D01*
X54275413Y112456415D01*
X54471394Y112530176D01*
X54671779Y112590963D01*
X54875711Y112638513D01*
X55082316Y112672624D01*
X55290710Y112693149D01*
X55500000Y112700000D01*
X63700000Y112700000D01*
X63700000Y106300000D01*
G37*
%TO.C,H3*%
G36*
X14709290Y17693149D02*
G01*
X14917684Y17672624D01*
X15124289Y17638513D01*
X15328221Y17590963D01*
X15528606Y17530176D01*
X15724587Y17456415D01*
X15915324Y17369993D01*
X16100000Y17271281D01*
X16277825Y17160703D01*
X16448037Y17038731D01*
X16609907Y16905887D01*
X16762742Y16762742D01*
X16905887Y16609907D01*
X17038731Y16448037D01*
X17160703Y16277825D01*
X17271281Y16100000D01*
X17369993Y15915324D01*
X17456415Y15724587D01*
X17530176Y15528606D01*
X17590963Y15328221D01*
X17638513Y15124289D01*
X17672624Y14917684D01*
X17693149Y14709290D01*
X17700000Y14500000D01*
X17693149Y14290710D01*
X17672624Y14082316D01*
X17638513Y13875711D01*
X17590963Y13671779D01*
X17530176Y13471394D01*
X17456415Y13275413D01*
X17369993Y13084676D01*
X17271281Y12900000D01*
X17160703Y12722175D01*
X17038731Y12551963D01*
X16905887Y12390093D01*
X16762742Y12237258D01*
X16609907Y12094113D01*
X16448037Y11961269D01*
X16277825Y11839297D01*
X16100000Y11728719D01*
X15915324Y11630007D01*
X15724587Y11543585D01*
X15528606Y11469824D01*
X15328221Y11409037D01*
X15124289Y11361487D01*
X14917684Y11327376D01*
X14709290Y11306851D01*
X14500000Y11300000D01*
X6300000Y11300000D01*
X6300000Y17700000D01*
X14500000Y17700000D01*
X14709290Y17693149D01*
G37*
%TD*%
D11*
%TO.C,H1*%
X14500000Y109500000D03*
%TD*%
D12*
%TO.C,KiKit_MB_5_3*%
X60000000Y61500000D03*
%TD*%
%TO.C,KiKit_MB_1_3*%
X10000000Y88500000D03*
%TD*%
%TO.C,KiKit_MB_6_4*%
X60000000Y34500000D03*
%TD*%
D13*
%TO.C,J2*%
X37500000Y18000000D03*
D14*
X32500000Y18000000D03*
%TD*%
D11*
%TO.C,H4*%
X55500000Y14500000D03*
%TD*%
%TO.C,H2*%
X55500000Y109500000D03*
%TD*%
D12*
%TO.C,KiKit_MB_3_3*%
X10000000Y36500000D03*
%TD*%
%TO.C,KiKit_MB_1_1*%
X10000000Y86500000D03*
%TD*%
D15*
%TO.C,T1*%
X38621977Y81193193D03*
X31378023Y81193193D03*
X33169595Y42408661D03*
X36075000Y47553499D03*
%TD*%
D12*
%TO.C,KiKit_MB_2_2*%
X10000000Y61500000D03*
%TD*%
%TO.C,KiKit_MB_3_1*%
X10000000Y34500000D03*
%TD*%
%TO.C,KiKit_MB_4_1*%
X60000000Y89500000D03*
%TD*%
%TO.C,KiKit_MB_4_4*%
X60000000Y86500000D03*
%TD*%
D16*
%TO.C,KiKit_TO_3*%
X2500000Y2500000D03*
%TD*%
%TO.C,KiKit_TO_2*%
X67500000Y121500000D03*
%TD*%
D12*
%TO.C,KiKit_MB_2_4*%
X10000000Y63500000D03*
%TD*%
%TO.C,KiKit_MB_1_4*%
X10000000Y89500000D03*
%TD*%
%TO.C,KiKit_MB_5_1*%
X60000000Y63500000D03*
%TD*%
%TO.C,KiKit_MB_5_4*%
X60000000Y60500000D03*
%TD*%
%TO.C,KiKit_MB_3_2*%
X10000000Y35500000D03*
%TD*%
%TO.C,KiKit_MB_4_2*%
X60000000Y88500000D03*
%TD*%
D16*
%TO.C,KiKit_TO_1*%
X2500000Y121500000D03*
%TD*%
D12*
%TO.C,KiKit_MB_2_1*%
X10000000Y60500000D03*
%TD*%
%TO.C,KiKit_MB_6_1*%
X60000000Y37500000D03*
%TD*%
%TO.C,KiKit_MB_4_3*%
X60000000Y87500000D03*
%TD*%
%TO.C,KiKit_MB_2_3*%
X10000000Y62500000D03*
%TD*%
%TO.C,KiKit_MB_3_4*%
X10000000Y37500000D03*
%TD*%
%TO.C,KiKit_MB_5_2*%
X60000000Y62500000D03*
%TD*%
D11*
%TO.C,H3*%
X14500000Y14500000D03*
%TD*%
D13*
%TO.C,J1*%
X32500000Y107000000D03*
D14*
X37500000Y107000000D03*
%TD*%
D12*
%TO.C,KiKit_MB_1_2*%
X10000000Y87500000D03*
%TD*%
%TO.C,KiKit_MB_6_2*%
X60000000Y36500000D03*
%TD*%
%TO.C,KiKit_MB_6_3*%
X60000000Y35500000D03*
%TD*%
D17*
%TO.C,KiKit_FID_B_1*%
X7500000Y120000000D03*
%TD*%
%TO.C,KiKit_FID_B_2*%
X62500000Y120000000D03*
%TD*%
%TO.C,KiKit_FID_B_3*%
X7500000Y4000000D03*
%TD*%
M02*
