%TF.GenerationSoftware,KiCad,Pcbnew,10.0.6*%
%TF.CreationDate,2026-09-30T11:25:32-04:00*%
%TF.ProjectId,PS-FLYBACK-5W-panel,50532d46-4c59-4424-9143-4b2d35572d70,A1-development*%
%TF.SameCoordinates,Original*%
%TF.FileFunction,Copper,L5,Inr*%
%TF.FilePolarity,Positive*%
%FSLAX46Y46*%
G04 Gerber Fmt 4.6, Leading zero omitted, Abs format (unit mm)*
G04 Created by KiCad (PCBNEW 10.0.6) date 2026-09-30 11:25:32*
%MOMM*%
%LPD*%
G01*
G04 APERTURE LIST*
%TA.AperFunction,EtchedComponent*%
%ADD10C,0.000000*%
%TD*%
%TA.AperFunction,ComponentPad*%
%ADD11R,2.400000X2.400000*%
%TD*%
%TA.AperFunction,ComponentPad*%
%ADD12C,2.400000*%
%TD*%
%TA.AperFunction,ComponentPad*%
%ADD13C,0.800000*%
%TD*%
%TA.AperFunction,ViaPad*%
%ADD14C,0.800000*%
%TD*%
%TA.AperFunction,ViaPad*%
%ADD15C,0.600000*%
%TD*%
%TA.AperFunction,ViaPad*%
%ADD16C,1.200000*%
%TD*%
%TA.AperFunction,ViaPad*%
%ADD17C,0.900000*%
%TD*%
G04 APERTURE END LIST*
D10*
%TA.AperFunction,EtchedComponent*%
%TO.C,T1*%
G36*
X45573203Y80174456D02*
G01*
X45573256Y80174457D01*
X45573273Y80174455D01*
X45573338Y80174454D01*
X45603387Y80171354D01*
X45629032Y80168714D01*
X45629072Y80168705D01*
X45629113Y80168701D01*
X45656887Y80162635D01*
X45683813Y80156761D01*
X45683850Y80156748D01*
X45683893Y80156739D01*
X45710229Y80147800D01*
X45736912Y80138749D01*
X45736951Y80138730D01*
X45736988Y80138718D01*
X45761165Y80127353D01*
X45787660Y80114906D01*
X45787695Y80114884D01*
X45787732Y80114867D01*
X45810361Y80100943D01*
X45835420Y80085529D01*
X45835448Y80085506D01*
X45835487Y80085483D01*
X45856092Y80069364D01*
X45879590Y80050992D01*
X45879626Y80050956D01*
X45879651Y80050937D01*
X45897430Y80033489D01*
X45919615Y80011725D01*
X45919639Y80011695D01*
X45919671Y80011664D01*
X45938407Y79988616D01*
X45954992Y79968224D01*
X45955013Y79968190D01*
X45955040Y79968158D01*
X45971774Y79942073D01*
X45985277Y79921035D01*
X45985292Y79921004D01*
X45985318Y79920964D01*
X45998801Y79893625D01*
X46010088Y79870753D01*
X46010101Y79870715D01*
X46010120Y79870678D01*
X46020085Y79843034D01*
X46029112Y79818009D01*
X46029120Y79817972D01*
X46029136Y79817930D01*
X46035547Y79791009D01*
X46042112Y79763466D01*
X46042117Y79763420D01*
X46042126Y79763385D01*
X46045174Y79738437D01*
X46048922Y79707810D01*
X46048924Y79707750D01*
X46048927Y79707728D01*
X46048927Y79707660D01*
X46049977Y79679784D01*
X46059347Y78700692D01*
X46059348Y78700685D01*
X46068718Y77804207D01*
X46078088Y76976352D01*
X46087458Y76205825D01*
X46096828Y75483391D01*
X46106198Y74801387D01*
X46115568Y74153378D01*
X46124938Y73533883D01*
X46134308Y72938181D01*
X46134309Y72938173D01*
X46143680Y72362111D01*
X46153051Y71802035D01*
X46153052Y71802027D01*
X46162424Y71254616D01*
X46171797Y70716849D01*
X46181170Y70185915D01*
X46181171Y70185907D01*
X46190546Y69659093D01*
X46190501Y69654799D01*
X46190625Y69650513D01*
X46199997Y54879629D01*
X46209296Y54357791D01*
X46209295Y54357762D01*
X46209297Y54357733D01*
X46218672Y53828146D01*
X46218671Y53828082D01*
X46218673Y53828045D01*
X46228048Y53292383D01*
X46228047Y53292322D01*
X46228051Y53292241D01*
X46237426Y52747787D01*
X46237425Y52747696D01*
X46237429Y52747607D01*
X46246804Y52191476D01*
X46246802Y52191373D01*
X46246808Y52191257D01*
X46256183Y51620337D01*
X46256181Y51620209D01*
X46256187Y51620084D01*
X46265562Y51030953D01*
X46265560Y51030802D01*
X46265566Y51030667D01*
X46274941Y50419518D01*
X46274939Y50419364D01*
X46274946Y50419201D01*
X46284320Y49781723D01*
X46284317Y49781553D01*
X46284325Y49781380D01*
X46293700Y49112629D01*
X46293697Y49112446D01*
X46293705Y49112262D01*
X46303080Y48406498D01*
X46303077Y48406304D01*
X46303085Y48406110D01*
X46312460Y47656572D01*
X46312456Y47656372D01*
X46312465Y47656168D01*
X46321840Y46854800D01*
X46321836Y46854579D01*
X46321844Y46854383D01*
X46331219Y45991455D01*
X46331215Y45991252D01*
X46331224Y45991029D01*
X46340599Y45054637D01*
X46340595Y45054420D01*
X46340603Y45054206D01*
X46349978Y44029575D01*
X46349451Y44001701D01*
X46349452Y44001611D01*
X46349448Y44001582D01*
X46349448Y44001533D01*
X46346562Y43973631D01*
X46343693Y43945837D01*
X46343685Y43945802D01*
X46343681Y43945760D01*
X46337698Y43918400D01*
X46331725Y43891058D01*
X46331711Y43891019D01*
X46331704Y43890984D01*
X46324023Y43868372D01*
X46313700Y43837964D01*
X46313680Y43837922D01*
X46313670Y43837892D01*
X46303317Y43815883D01*
X46289843Y43787223D01*
X46289821Y43787189D01*
X46289806Y43787155D01*
X46276935Y43766251D01*
X46260454Y43739470D01*
X46260424Y43739433D01*
X46260409Y43739407D01*
X46245452Y43720296D01*
X46225904Y43695310D01*
X46225876Y43695282D01*
X46225853Y43695252D01*
X46207778Y43676845D01*
X46186627Y43655295D01*
X46186592Y43655268D01*
X46186569Y43655243D01*
X46165566Y43638177D01*
X46143117Y43619930D01*
X46143086Y43619911D01*
X46143054Y43619884D01*
X46118073Y43603868D01*
X46095919Y43589657D01*
X46095885Y43589641D01*
X46095852Y43589619D01*
X46072005Y43577866D01*
X46045631Y43564860D01*
X46045589Y43564846D01*
X46045559Y43564830D01*
X46017868Y43554856D01*
X45992881Y43545850D01*
X45992851Y43545843D01*
X45992807Y43545827D01*
X45962574Y43538636D01*
X45938335Y43532865D01*
X45938297Y43532861D01*
X45938258Y43532851D01*
X45910204Y43529431D01*
X45882678Y43526069D01*
X45882624Y43526068D01*
X45882600Y43526064D01*
X45882526Y43526064D01*
X45854651Y43525022D01*
X44847433Y43515651D01*
X43925263Y43506281D01*
X43925254Y43506280D01*
X43073269Y43496905D01*
X43073262Y43496906D01*
X42280705Y43487535D01*
X42280703Y43487536D01*
X41537650Y43478166D01*
X40836564Y43468801D01*
X40836541Y43468799D01*
X40169735Y43459424D01*
X40169726Y43459425D01*
X39532941Y43450059D01*
X39532930Y43450058D01*
X38920028Y43440683D01*
X38919998Y43440684D01*
X38327905Y43431317D01*
X38327885Y43431316D01*
X37751940Y43421945D01*
X37751938Y43421944D01*
X37188900Y43412569D01*
X37188883Y43412570D01*
X36635997Y43403197D01*
X36635993Y43403198D01*
X36090217Y43393826D01*
X36090211Y43393825D01*
X35548630Y43384451D01*
X35548614Y43384450D01*
X35500000Y43383606D01*
X35500000Y42275000D01*
X35499213Y42246965D01*
X35498872Y42243947D01*
X35498836Y42240901D01*
X35495732Y42216072D01*
X35492936Y42191247D01*
X35492259Y42188283D01*
X35491882Y42185263D01*
X35486017Y42160934D01*
X35480459Y42136582D01*
X35479455Y42133715D01*
X35478742Y42130754D01*
X35470189Y42107235D01*
X35461940Y42083658D01*
X35460620Y42080920D01*
X35459581Y42078059D01*
X35448451Y42055649D01*
X35437612Y42033141D01*
X35435995Y42030569D01*
X35434641Y42027841D01*
X35421054Y42006791D01*
X35407780Y41985664D01*
X35405889Y41983294D01*
X35404235Y41980730D01*
X35388378Y41961335D01*
X35372821Y41941827D01*
X35370672Y41939679D01*
X35368745Y41937321D01*
X35350827Y41919834D01*
X35333173Y41902179D01*
X35330799Y41900287D01*
X35328619Y41898158D01*
X35308849Y41882782D01*
X35289336Y41867220D01*
X35286764Y41865605D01*
X35284360Y41863734D01*
X35262994Y41850669D01*
X35241859Y41837388D01*
X35239123Y41836071D01*
X35236524Y41834481D01*
X35213842Y41823896D01*
X35191342Y41813060D01*
X35188472Y41812056D01*
X35185715Y41810769D01*
X35162022Y41802801D01*
X35138418Y41794541D01*
X35135449Y41793864D01*
X35132570Y41792895D01*
X35108157Y41787635D01*
X35083753Y41782064D01*
X35080727Y41781724D01*
X35077757Y41781083D01*
X35052878Y41778586D01*
X35028035Y41775787D01*
X35024996Y41775787D01*
X35021967Y41775483D01*
X34993925Y41775037D01*
X34687804Y41778757D01*
X34681741Y41779002D01*
X34675661Y41779052D01*
X34369721Y41790207D01*
X34363661Y41790599D01*
X34357587Y41790797D01*
X34052008Y41809382D01*
X34045955Y41809922D01*
X34039890Y41810267D01*
X33734854Y41836271D01*
X33728811Y41836958D01*
X33722763Y41837450D01*
X33418448Y41870857D01*
X33412430Y41871690D01*
X33406390Y41872329D01*
X33102976Y41913119D01*
X33075296Y41917634D01*
X33020911Y41931279D01*
X32968396Y41950928D01*
X32918411Y41976334D01*
X32871586Y42007176D01*
X32828507Y42043067D01*
X32789719Y42083555D01*
X32755707Y42128133D01*
X32726900Y42176237D01*
X32703660Y42227265D01*
X32686280Y42280573D01*
X32674977Y42335493D01*
X32669895Y42391333D01*
X32671098Y42447390D01*
X32678568Y42502960D01*
X32692213Y42557345D01*
X32711862Y42609860D01*
X32737268Y42659845D01*
X32768110Y42706670D01*
X32804001Y42749749D01*
X32844489Y42788537D01*
X32889067Y42822549D01*
X32937171Y42851356D01*
X32988199Y42874596D01*
X33041507Y42891976D01*
X33096427Y42903279D01*
X33152267Y42908361D01*
X33208324Y42907158D01*
X33236214Y42904203D01*
X33533620Y42864221D01*
X33825841Y42832142D01*
X34118771Y42807170D01*
X34412238Y42789322D01*
X34500000Y42786123D01*
X34500000Y43875000D01*
X34500441Y43890675D01*
X34500376Y43894364D01*
X34500614Y43896865D01*
X34500787Y43903035D01*
X34503440Y43926582D01*
X34505684Y43950183D01*
X34506579Y43954440D01*
X34507064Y43958753D01*
X34512334Y43981842D01*
X34517210Y44005056D01*
X34518575Y44009185D01*
X34519541Y44013418D01*
X34527368Y44035785D01*
X34534808Y44058294D01*
X34536625Y44062241D01*
X34538060Y44066342D01*
X34548346Y44087700D01*
X34558255Y44109225D01*
X34560503Y44112944D01*
X34562388Y44116859D01*
X34574995Y44136923D01*
X34587258Y44157213D01*
X34589910Y44160659D01*
X34592220Y44164336D01*
X34606998Y44182867D01*
X34621451Y44201650D01*
X34624469Y44204775D01*
X34627179Y44208173D01*
X34643941Y44224935D01*
X34660405Y44241981D01*
X34663756Y44244750D01*
X34666827Y44247821D01*
X34685360Y44262601D01*
X34703628Y44277695D01*
X34707265Y44280070D01*
X34710664Y44282780D01*
X34730739Y44295394D01*
X34750580Y44308347D01*
X34754462Y44310301D01*
X34758141Y44312612D01*
X34779480Y44322889D01*
X34800667Y44333549D01*
X34804748Y44335058D01*
X34808658Y44336940D01*
X34831007Y44344761D01*
X34853262Y44352984D01*
X34857485Y44354026D01*
X34861582Y44355459D01*
X34884672Y44360730D01*
X34907702Y44366408D01*
X34912013Y44366970D01*
X34916247Y44367936D01*
X34939805Y44370590D01*
X34963303Y44373651D01*
X34969463Y44373932D01*
X34971965Y44374213D01*
X34975662Y44374213D01*
X34991320Y44374925D01*
X35531253Y44384300D01*
X35531275Y44384300D01*
X35531281Y44384300D01*
X36072905Y44393675D01*
X36072942Y44393675D01*
X36072974Y44393676D01*
X36618938Y44403051D01*
X36618991Y44403051D01*
X36619049Y44403053D01*
X37172101Y44412428D01*
X37172168Y44412428D01*
X37172252Y44412431D01*
X37735290Y44421806D01*
X37735386Y44421805D01*
X37735479Y44421809D01*
X38311615Y44431184D01*
X38311739Y44431183D01*
X38311841Y44431187D01*
X38904472Y44440562D01*
X38904586Y44440561D01*
X38904734Y44440567D01*
X39517636Y44449942D01*
X39517790Y44449941D01*
X39517930Y44449946D01*
X40155353Y44459321D01*
X40155508Y44459319D01*
X40155677Y44459326D01*
X40822483Y44468701D01*
X40822673Y44468699D01*
X40822834Y44468705D01*
X41524657Y44478080D01*
X41524841Y44478078D01*
X41525031Y44478085D01*
X42268489Y44487460D01*
X42268682Y44487458D01*
X42268883Y44487465D01*
X43061856Y44496840D01*
X43062054Y44496837D01*
X43062265Y44496845D01*
X43914251Y44506220D01*
X43914469Y44506217D01*
X43914672Y44506224D01*
X44837283Y44515599D01*
X44837499Y44515596D01*
X44837711Y44515603D01*
X45345446Y44520327D01*
X45340645Y45045056D01*
X45331274Y45981017D01*
X45331274Y45981030D01*
X45321908Y46843084D01*
X45321908Y46843102D01*
X45312533Y47644470D01*
X45303163Y48393604D01*
X45293793Y49098980D01*
X45284423Y49767362D01*
X45275054Y50404497D01*
X45275054Y50404502D01*
X45265688Y51015042D01*
X45256313Y51604172D01*
X45246942Y52174839D01*
X45246942Y52174850D01*
X45237571Y52730751D01*
X45228199Y53275025D01*
X45228199Y53275044D01*
X45218829Y53810419D01*
X45218828Y53810446D01*
X45209453Y54340033D01*
X45200079Y54866092D01*
X45200123Y54870394D01*
X45200000Y54874683D01*
X45190627Y69645586D01*
X45181329Y70168115D01*
X45181329Y70168154D01*
X45181328Y70168185D01*
X45171953Y70699197D01*
X45171953Y70699252D01*
X45171951Y70699309D01*
X45162576Y71237190D01*
X45162576Y71237260D01*
X45162573Y71237344D01*
X45153198Y71784909D01*
X45153199Y71785011D01*
X45153195Y71785103D01*
X45143820Y72345381D01*
X45143821Y72345493D01*
X45143816Y72345613D01*
X45134441Y72921907D01*
X45134442Y72922046D01*
X45134437Y72922175D01*
X45125062Y73518155D01*
X45125063Y73518299D01*
X45125057Y73518457D01*
X45115682Y74138254D01*
X45115684Y74138419D01*
X45115677Y74138587D01*
X45106302Y74786929D01*
X45106304Y74787111D01*
X45106297Y74787290D01*
X45096922Y75469653D01*
X45096924Y75469847D01*
X45096917Y75470037D01*
X45087542Y76192857D01*
X45087545Y76193060D01*
X45087537Y76193261D01*
X45078162Y76964192D01*
X45078165Y76964401D01*
X45078157Y76964613D01*
X45068782Y77792889D01*
X45068785Y77793100D01*
X45068777Y77793322D01*
X45059402Y78690233D01*
X45059406Y78690461D01*
X45059398Y78690674D01*
X45054807Y79170318D01*
X44558618Y79165651D01*
X44558612Y79165651D01*
X43647920Y79156276D01*
X43647916Y79156276D01*
X42809313Y79146906D01*
X42030657Y79137540D01*
X41301760Y79128165D01*
X41301740Y79128165D01*
X40616240Y79118802D01*
X40616234Y79118802D01*
X39966305Y79109432D01*
X39966302Y79109432D01*
X39346667Y79100060D01*
X38752547Y79090687D01*
X38752541Y79090687D01*
X38180321Y79081321D01*
X38180312Y79081321D01*
X37625249Y79071946D01*
X37625244Y79071946D01*
X37085009Y79062578D01*
X37085002Y79062578D01*
X36555721Y79053203D01*
X36555707Y79053203D01*
X36035158Y79043831D01*
X36035153Y79043831D01*
X35520547Y79034459D01*
X35520544Y79034459D01*
X35009191Y79025084D01*
X35009181Y79025084D01*
X34498723Y79015709D01*
X34498701Y79015709D01*
X34498696Y79015709D01*
X33986691Y79006334D01*
X33986668Y79006334D01*
X33986619Y79006332D01*
X33470560Y78996957D01*
X33470501Y78996957D01*
X33470444Y78996955D01*
X32947737Y78987580D01*
X32947645Y78987580D01*
X32947580Y78987578D01*
X32415486Y78978203D01*
X32415396Y78978203D01*
X32415287Y78978199D01*
X31870867Y78968824D01*
X31870747Y78968825D01*
X31870628Y78968820D01*
X31310672Y78959445D01*
X31310525Y78959446D01*
X31310396Y78959441D01*
X30731339Y78950066D01*
X30731185Y78950067D01*
X30731028Y78950061D01*
X30128856Y78940686D01*
X30128700Y78940687D01*
X30128514Y78940680D01*
X29498636Y78931305D01*
X29498444Y78931307D01*
X29498265Y78931300D01*
X28835361Y78921925D01*
X28835156Y78921927D01*
X28834966Y78921920D01*
X28132788Y78912545D01*
X28132592Y78912547D01*
X28132372Y78912539D01*
X27383482Y78903164D01*
X27383262Y78903167D01*
X27383049Y78903159D01*
X26578481Y78893784D01*
X26578258Y78893787D01*
X26578035Y78893779D01*
X25706825Y78884404D01*
X25706604Y78884407D01*
X25706371Y78884399D01*
X25254818Y78879949D01*
X25259353Y78411401D01*
X25268718Y77527317D01*
X25278088Y76712250D01*
X25278088Y76712248D01*
X25287463Y75954963D01*
X25296827Y75247561D01*
X25296827Y75247546D01*
X25306202Y74580701D01*
X25315570Y73949267D01*
X25324934Y73347749D01*
X25324934Y73347741D01*
X25334304Y72770741D01*
X25343674Y72214556D01*
X25353045Y71675583D01*
X25362417Y71150605D01*
X25362417Y71150590D01*
X25371789Y70636632D01*
X25381162Y70130983D01*
X25390536Y69631084D01*
X25390536Y69631078D01*
X25399911Y69134437D01*
X25399870Y69129877D01*
X25400000Y69125318D01*
X25409373Y54384140D01*
X25418661Y53891511D01*
X25418661Y53891485D01*
X25418663Y53891437D01*
X25428038Y53390331D01*
X25428038Y53390269D01*
X25428040Y53390213D01*
X25437415Y52882679D01*
X25437415Y52882599D01*
X25437418Y52882517D01*
X25446793Y52365896D01*
X25446792Y52365782D01*
X25446796Y52365691D01*
X25456171Y51837129D01*
X25456170Y51837020D01*
X25456176Y51836884D01*
X25465551Y51293265D01*
X25465550Y51293110D01*
X25465555Y51292982D01*
X25474930Y50730848D01*
X25474929Y50730702D01*
X25474936Y50730528D01*
X25484311Y50145981D01*
X25484309Y50145796D01*
X25484316Y50145629D01*
X25493691Y49534214D01*
X25493689Y49534029D01*
X25493697Y49533832D01*
X25503072Y48890389D01*
X25503070Y48890189D01*
X25503078Y48889981D01*
X25512453Y48208444D01*
X25512450Y48208217D01*
X25512458Y48208015D01*
X25521833Y47481168D01*
X25521830Y47480953D01*
X25521839Y47480722D01*
X25531214Y46699862D01*
X25531211Y46699627D01*
X25531219Y46699403D01*
X25540594Y45853893D01*
X25540591Y45853660D01*
X25540599Y45853425D01*
X25544899Y45429960D01*
X25985224Y45434350D01*
X26843712Y45443715D01*
X26843714Y45443715D01*
X27635516Y45453090D01*
X27635523Y45453090D01*
X28369843Y45462455D01*
X28369864Y45462455D01*
X29057315Y45471828D01*
X29704281Y45481197D01*
X30317339Y45490567D01*
X30901625Y45499936D01*
X30901632Y45499936D01*
X31461338Y45509300D01*
X31461346Y45509300D01*
X32001462Y45518675D01*
X32001464Y45518675D01*
X32524532Y45528045D01*
X32524553Y45528045D01*
X33033785Y45537411D01*
X33033807Y45537412D01*
X33532743Y45546787D01*
X33532744Y45546787D01*
X34023274Y45556157D01*
X34023278Y45556157D01*
X34508437Y45565532D01*
X34508464Y45565532D01*
X34990243Y45574905D01*
X34990256Y45574905D01*
X35471238Y45584280D01*
X35471244Y45584280D01*
X35471267Y45584281D01*
X35953653Y45593656D01*
X35953699Y45593656D01*
X35953729Y45593657D01*
X36439879Y45603032D01*
X36439946Y45603032D01*
X36440001Y45603034D01*
X36932362Y45612409D01*
X36932430Y45612409D01*
X36932529Y45612413D01*
X37433678Y45621788D01*
X37433799Y45621787D01*
X37433889Y45621791D01*
X37946593Y45631166D01*
X37946710Y45631165D01*
X37946845Y45631171D01*
X38474126Y45640546D01*
X38474274Y45640545D01*
X38474419Y45640551D01*
X39019630Y45649926D01*
X39019786Y45649925D01*
X39019959Y45649932D01*
X39586881Y45659307D01*
X39587060Y45659305D01*
X39587244Y45659313D01*
X40180193Y45668688D01*
X40180391Y45668686D01*
X40180587Y45668694D01*
X40804571Y45678069D01*
X40804783Y45678067D01*
X40804991Y45678075D01*
X41465888Y45687450D01*
X41466110Y45687447D01*
X41466330Y45687456D01*
X42171135Y45696831D01*
X42171364Y45696828D01*
X42171596Y45696837D01*
X42928747Y45706212D01*
X42928995Y45706209D01*
X42929221Y45706217D01*
X43749030Y45715592D01*
X43749257Y45715589D01*
X43749511Y45715598D01*
X44144887Y45719739D01*
X44140650Y46132109D01*
X44140650Y46132128D01*
X44131286Y46964736D01*
X44121911Y47732830D01*
X44112542Y48445561D01*
X44103173Y49112082D01*
X44103173Y49112099D01*
X44093811Y49739156D01*
X44084437Y50334051D01*
X44075068Y50900640D01*
X44065699Y51443741D01*
X44065699Y51443748D01*
X44056330Y51967196D01*
X44046960Y52474398D01*
X44046960Y52474409D01*
X44037590Y52968391D01*
X44037590Y52968392D01*
X44028219Y53451949D01*
X44018847Y53927636D01*
X44009474Y54397871D01*
X44009474Y54397894D01*
X44000101Y54864968D01*
X44000139Y54869816D01*
X44000000Y54874681D01*
X43990628Y69586053D01*
X43981350Y70048798D01*
X43981350Y70048846D01*
X43981349Y70048875D01*
X43971974Y70520073D01*
X43971974Y70520126D01*
X43971971Y70520198D01*
X43962596Y70997387D01*
X43962596Y70997479D01*
X43962593Y70997559D01*
X43953218Y71483234D01*
X43953218Y71483345D01*
X43953214Y71483452D01*
X43943839Y71980297D01*
X43943840Y71980424D01*
X43943834Y71980557D01*
X43934459Y72491500D01*
X43934460Y72491659D01*
X43934454Y72491802D01*
X43925079Y73020090D01*
X43925080Y73020258D01*
X43925073Y73020430D01*
X43915698Y73569726D01*
X43915700Y73569917D01*
X43915692Y73570100D01*
X43906317Y74144587D01*
X43906319Y74144779D01*
X43906310Y74144992D01*
X43896935Y74749517D01*
X43896937Y74749742D01*
X43896929Y74749949D01*
X43887554Y75390205D01*
X43887556Y75390424D01*
X43887547Y75390662D01*
X43878172Y76073426D01*
X43878175Y76073668D01*
X43878166Y76073900D01*
X43868791Y76807343D01*
X43868794Y76807587D01*
X43868785Y76807832D01*
X43859410Y77601941D01*
X43859413Y77602181D01*
X43859404Y77602437D01*
X43855433Y77969726D01*
X43471150Y77965652D01*
X43471143Y77965652D01*
X42663996Y77956285D01*
X41920357Y77946920D01*
X41920354Y77946920D01*
X41229194Y77937546D01*
X41229188Y77937546D01*
X40583799Y77928183D01*
X40583781Y77928183D01*
X39975315Y77918808D01*
X39975313Y77918808D01*
X39399312Y77909441D01*
X39399307Y77909441D01*
X38850739Y77900078D01*
X38850730Y77900078D01*
X38324501Y77890709D01*
X37817088Y77881335D01*
X37817075Y77881335D01*
X37325779Y77871966D01*
X36847461Y77862600D01*
X36847455Y77862600D01*
X36379039Y77853227D01*
X36379030Y77853227D01*
X35918134Y77843853D01*
X35918115Y77843853D01*
X35462800Y77834482D01*
X35462785Y77834482D01*
X35010359Y77825107D01*
X35010338Y77825107D01*
X34558874Y77815733D01*
X34558868Y77815733D01*
X34558846Y77815732D01*
X34106078Y77806356D01*
X34106044Y77806356D01*
X34105997Y77806354D01*
X33649752Y77796981D01*
X33649696Y77796981D01*
X33649625Y77796978D01*
X33187610Y77787603D01*
X33187530Y77787603D01*
X33187433Y77787599D01*
X32717229Y77778224D01*
X32717110Y77778224D01*
X32717005Y77778220D01*
X32236018Y77768845D01*
X32235883Y77768846D01*
X32235751Y77768840D01*
X31741146Y77759464D01*
X31740993Y77759465D01*
X31740833Y77759458D01*
X31229466Y77750084D01*
X31229288Y77750085D01*
X31229118Y77750078D01*
X30697446Y77740703D01*
X30697259Y77740704D01*
X30697060Y77740696D01*
X30141037Y77731321D01*
X30140831Y77731323D01*
X30140619Y77731314D01*
X29555554Y77721939D01*
X29555332Y77721941D01*
X29555107Y77721932D01*
X28935491Y77712557D01*
X28935258Y77712560D01*
X28935021Y77712550D01*
X28274298Y77703175D01*
X28274040Y77703178D01*
X28273808Y77703169D01*
X27564074Y77693794D01*
X27563833Y77693797D01*
X27563570Y77693787D01*
X26795162Y77684412D01*
X26794905Y77684416D01*
X26794648Y77684406D01*
X26455446Y77680615D01*
X26459340Y77324936D01*
X26468709Y76543263D01*
X26468709Y76543259D01*
X26478077Y75823083D01*
X26487445Y75154450D01*
X26496813Y74529221D01*
X26506187Y73940215D01*
X26506187Y73940196D01*
X26515547Y73383106D01*
X26524915Y72851763D01*
X26534284Y72342506D01*
X26534284Y72342494D01*
X26543653Y71851698D01*
X26553023Y71376198D01*
X26553023Y71376191D01*
X26562398Y70912894D01*
X26571765Y70459891D01*
X26571765Y70459871D01*
X26581137Y70014053D01*
X26590510Y69573396D01*
X26599885Y69135708D01*
X26599851Y69130521D01*
X26600000Y69125319D01*
X26609372Y54443715D01*
X26618635Y54010975D01*
X26618635Y54010940D01*
X26618637Y54010894D01*
X26628012Y53569601D01*
X26628012Y53569540D01*
X26628015Y53569470D01*
X26637390Y53122628D01*
X26637390Y53122541D01*
X26637394Y53122446D01*
X26646769Y52667714D01*
X26646769Y52667587D01*
X26646773Y52667484D01*
X26656148Y52202354D01*
X26656147Y52202225D01*
X26656154Y52202077D01*
X26665529Y51723810D01*
X26665528Y51723647D01*
X26665535Y51723490D01*
X26674910Y51229044D01*
X26674909Y51228869D01*
X26674917Y51228683D01*
X26684292Y50714638D01*
X26684291Y50714437D01*
X26684299Y50714239D01*
X26693674Y50176680D01*
X26693672Y50176458D01*
X26693681Y50176248D01*
X26703056Y49610643D01*
X26703054Y49610423D01*
X26703064Y49610182D01*
X26712439Y49011206D01*
X26712436Y49010957D01*
X26712446Y49010720D01*
X26721821Y48372037D01*
X26721818Y48371781D01*
X26721828Y48371531D01*
X26731203Y47685505D01*
X26731200Y47685248D01*
X26731210Y47684984D01*
X26740585Y46942277D01*
X26740582Y46942022D01*
X26740592Y46941746D01*
X26744189Y46630629D01*
X27071763Y46634338D01*
X27071764Y46634338D01*
X27828144Y46643712D01*
X28524206Y46653075D01*
X29171251Y46662449D01*
X29171259Y46662449D01*
X29775802Y46671816D01*
X29775805Y46671816D01*
X30344388Y46681175D01*
X30344407Y46681175D01*
X30883909Y46690550D01*
X30883916Y46690550D01*
X31397179Y46699910D01*
X31397186Y46699910D01*
X31889781Y46709284D01*
X32364285Y46718653D01*
X32364303Y46718653D01*
X32823881Y46728021D01*
X32823890Y46728021D01*
X33271174Y46737385D01*
X33271201Y46737386D01*
X33709445Y46746761D01*
X33709448Y46746761D01*
X34140254Y46756132D01*
X34140260Y46756132D01*
X34500000Y46764051D01*
X34500000Y47475001D01*
X34500524Y47493646D01*
X34500483Y47496970D01*
X34500669Y47498820D01*
X34500787Y47503036D01*
X34503584Y47527864D01*
X34506083Y47552760D01*
X34506724Y47555733D01*
X34507064Y47558754D01*
X34512627Y47583125D01*
X34517895Y47607573D01*
X34518865Y47610457D01*
X34519541Y47613419D01*
X34527798Y47637016D01*
X34535770Y47660718D01*
X34537056Y47663474D01*
X34538060Y47666343D01*
X34548898Y47688848D01*
X34559482Y47711527D01*
X34561072Y47714126D01*
X34562388Y47716860D01*
X34575694Y47738036D01*
X34588736Y47759362D01*
X34590600Y47761758D01*
X34592220Y47764337D01*
X34607809Y47783885D01*
X34623159Y47803621D01*
X34625286Y47805801D01*
X34627179Y47808174D01*
X34644858Y47825853D01*
X34662323Y47843747D01*
X34664675Y47845670D01*
X34666827Y47847822D01*
X34686395Y47863427D01*
X34705732Y47879236D01*
X34708285Y47880884D01*
X34710664Y47882781D01*
X34731834Y47896083D01*
X34752843Y47909643D01*
X34755569Y47910997D01*
X34758141Y47912613D01*
X34780649Y47923453D01*
X34803061Y47934583D01*
X34805921Y47935623D01*
X34808658Y47936941D01*
X34832255Y47945198D01*
X34855756Y47953743D01*
X34858711Y47954456D01*
X34861582Y47955460D01*
X34885982Y47961030D01*
X34910266Y47966883D01*
X34913280Y47967260D01*
X34916247Y47967937D01*
X34941096Y47970737D01*
X34965903Y47973837D01*
X34970127Y47974007D01*
X34971965Y47974214D01*
X34975277Y47974214D01*
X34993927Y47974964D01*
X35167633Y47977075D01*
X35335169Y47983183D01*
X35502522Y47993361D01*
X35669562Y48007601D01*
X35836182Y48025892D01*
X36008378Y48049042D01*
X36036268Y48051997D01*
X36092326Y48053200D01*
X36148166Y48048118D01*
X36203085Y48036816D01*
X36256393Y48019436D01*
X36307422Y47996196D01*
X36355526Y47967390D01*
X36400104Y47933378D01*
X36440592Y47894590D01*
X36476484Y47851511D01*
X36507326Y47804686D01*
X36532731Y47754702D01*
X36552381Y47702186D01*
X36566026Y47647802D01*
X36573497Y47592232D01*
X36574700Y47536174D01*
X36569618Y47480334D01*
X36558316Y47425414D01*
X36540936Y47372106D01*
X36517696Y47321078D01*
X36488889Y47272974D01*
X36454878Y47228396D01*
X36416090Y47187908D01*
X36373011Y47152016D01*
X36326186Y47121174D01*
X36276201Y47095768D01*
X36223686Y47076119D01*
X36169302Y47062474D01*
X36141621Y47057958D01*
X35963426Y47034001D01*
X35957374Y47033360D01*
X35951365Y47032529D01*
X35772640Y47012909D01*
X35766592Y47012417D01*
X35760549Y47011730D01*
X35581401Y46996458D01*
X35575341Y46996113D01*
X35569285Y46995573D01*
X35500000Y46991360D01*
X35500000Y46275000D01*
X35499628Y46261782D01*
X35499712Y46258035D01*
X35499438Y46255009D01*
X35499213Y46246965D01*
X35496695Y46224619D01*
X35494671Y46202191D01*
X35493556Y46196756D01*
X35492936Y46191247D01*
X35487932Y46169325D01*
X35483409Y46147263D01*
X35481691Y46141984D01*
X35480459Y46136582D01*
X35473031Y46115356D01*
X35466067Y46093942D01*
X35463771Y46088893D01*
X35461940Y46083658D01*
X35452173Y46063379D01*
X35442864Y46042898D01*
X35440019Y46038140D01*
X35437612Y46033141D01*
X35425638Y46014085D01*
X35414092Y45994772D01*
X35410730Y45990360D01*
X35407780Y45985664D01*
X35393750Y45968072D01*
X35380113Y45950171D01*
X35376279Y45946164D01*
X35372821Y45941827D01*
X35356905Y45925912D01*
X35341353Y45909654D01*
X35337095Y45906102D01*
X35333173Y45902179D01*
X35315583Y45888152D01*
X35298302Y45873732D01*
X35293670Y45870677D01*
X35289336Y45867220D01*
X35270286Y45855251D01*
X35251497Y45842855D01*
X35246554Y45840339D01*
X35241859Y45837388D01*
X35221582Y45827624D01*
X35201532Y45817414D01*
X35196340Y45815468D01*
X35191342Y45813060D01*
X35170105Y45805630D01*
X35149031Y45797726D01*
X35143649Y45796372D01*
X35138418Y45794541D01*
X35116486Y45789536D01*
X35094656Y45784041D01*
X35089160Y45783299D01*
X35083753Y45782064D01*
X35061380Y45779544D01*
X35039091Y45776531D01*
X35031052Y45776127D01*
X35028035Y45775787D01*
X35024290Y45775787D01*
X35011080Y45775123D01*
X34588129Y45765748D01*
X34588096Y45765749D01*
X34588052Y45765746D01*
X34162131Y45756371D01*
X34162070Y45756372D01*
X34162002Y45756368D01*
X33731013Y45746993D01*
X33730925Y45746994D01*
X33730832Y45746989D01*
X33292589Y45737614D01*
X33292460Y45737615D01*
X33292360Y45737610D01*
X32844536Y45728235D01*
X32844405Y45728236D01*
X32844261Y45728229D01*
X32384346Y45718854D01*
X32384198Y45718856D01*
X32384028Y45718847D01*
X31909261Y45709472D01*
X31909083Y45709474D01*
X31908902Y45709465D01*
X31416210Y45700090D01*
X31416006Y45700092D01*
X31415814Y45700083D01*
X30901713Y45690708D01*
X30901505Y45690711D01*
X30901284Y45690700D01*
X30361781Y45681325D01*
X30361538Y45681328D01*
X30361322Y45681318D01*
X29791776Y45671944D01*
X29791542Y45671947D01*
X29791295Y45671936D01*
X29186240Y45662561D01*
X29185997Y45662565D01*
X29185737Y45662553D01*
X28538660Y45653178D01*
X28538397Y45653182D01*
X28538142Y45653171D01*
X27841174Y45643796D01*
X27840913Y45643800D01*
X27840645Y45643789D01*
X27084156Y45634414D01*
X27083883Y45634419D01*
X27083621Y45634408D01*
X26255661Y45625033D01*
X26227880Y45625499D01*
X26227738Y45625497D01*
X26227691Y45625502D01*
X26227619Y45625503D01*
X26200116Y45628287D01*
X26171951Y45631130D01*
X26171898Y45631142D01*
X26171834Y45631148D01*
X26144581Y45637045D01*
X26117145Y45642974D01*
X26117085Y45642995D01*
X26117031Y45643006D01*
X26090825Y45651845D01*
X26064011Y45660880D01*
X26063961Y45660904D01*
X26063900Y45660924D01*
X26036852Y45673576D01*
X26013216Y45684623D01*
X26013169Y45684653D01*
X26013111Y45684679D01*
X25988168Y45699962D01*
X25965397Y45713904D01*
X25965352Y45713940D01*
X25965300Y45713971D01*
X25943383Y45731048D01*
X25921159Y45748354D01*
X25921116Y45748397D01*
X25921070Y45748432D01*
X25900870Y45768180D01*
X25881055Y45787541D01*
X25881020Y45787585D01*
X25880975Y45787628D01*
X25862666Y45810062D01*
X25845592Y45830971D01*
X25845561Y45831020D01*
X25845522Y45831067D01*
X25829628Y45855739D01*
X25815213Y45878100D01*
X25815189Y45878150D01*
X25815154Y45878203D01*
X25801983Y45904781D01*
X25790303Y45928332D01*
X25790284Y45928385D01*
X25790256Y45928441D01*
X25780417Y45955572D01*
X25771173Y45981039D01*
X25771160Y45981097D01*
X25771139Y45981152D01*
X25764621Y46008292D01*
X25758065Y46035556D01*
X25758058Y46035616D01*
X25758044Y46035672D01*
X25754650Y46063014D01*
X25751144Y46091197D01*
X25751141Y46091278D01*
X25751136Y46091316D01*
X25751135Y46091432D01*
X25750033Y46119221D01*
X25740658Y46930186D01*
X25740659Y46930197D01*
X25731290Y47672362D01*
X25721922Y48357867D01*
X25712561Y48995556D01*
X25703186Y49594532D01*
X25703187Y49594544D01*
X25693826Y50159243D01*
X25684451Y50696801D01*
X25675083Y51210449D01*
X25675084Y51210454D01*
X25665715Y51704532D01*
X25656346Y52182479D01*
X25656347Y52182495D01*
X25646983Y52647080D01*
X25646981Y52647102D01*
X25637606Y53101834D01*
X25637607Y53101841D01*
X25628235Y53548494D01*
X25628236Y53548501D01*
X25618863Y53989654D01*
X25618864Y53989665D01*
X25609490Y54427531D01*
X25609525Y54432712D01*
X25609375Y54437913D01*
X25600004Y69119507D01*
X25590740Y69551982D01*
X25590741Y69552010D01*
X25590738Y69552055D01*
X25581363Y69992787D01*
X25581364Y69992841D01*
X25581360Y69992910D01*
X25571985Y70438853D01*
X25571986Y70438950D01*
X25571982Y70439026D01*
X25562607Y70892443D01*
X25562608Y70892544D01*
X25562602Y70892663D01*
X25553227Y71355959D01*
X25553229Y71356097D01*
X25553222Y71356225D01*
X25543847Y71831998D01*
X25543849Y71832150D01*
X25543841Y71832305D01*
X25534466Y72323408D01*
X25534468Y72323590D01*
X25534460Y72323755D01*
X25525085Y72833369D01*
X25525087Y72833557D01*
X25525078Y72833751D01*
X25515703Y73365478D01*
X25515706Y73365687D01*
X25515696Y73365892D01*
X25506321Y73923859D01*
X25506324Y73924067D01*
X25506313Y73924302D01*
X25496939Y74513309D01*
X25496942Y74513544D01*
X25496932Y74513774D01*
X25487557Y75139468D01*
X25487561Y75139711D01*
X25487550Y75139954D01*
X25478175Y75809073D01*
X25478179Y75809319D01*
X25478168Y75809574D01*
X25468793Y76530251D01*
X25468797Y76530514D01*
X25468787Y76530763D01*
X25459412Y77312952D01*
X25459417Y77313209D01*
X25459406Y77313469D01*
X25450031Y78169524D01*
X25450508Y78197344D01*
X25450506Y78197454D01*
X25450510Y78197490D01*
X25450511Y78197566D01*
X25453461Y78226601D01*
X25456160Y78253239D01*
X25456171Y78253289D01*
X25456177Y78253349D01*
X25462109Y78280713D01*
X25468025Y78308040D01*
X25468045Y78308096D01*
X25468055Y78308147D01*
X25477173Y78335149D01*
X25485952Y78361167D01*
X25485974Y78361212D01*
X25485993Y78361271D01*
X25498292Y78387540D01*
X25509714Y78411953D01*
X25509745Y78412002D01*
X25509767Y78412051D01*
X25524250Y78435670D01*
X25539014Y78459761D01*
X25539048Y78459804D01*
X25539077Y78459852D01*
X25555673Y78481136D01*
X25573480Y78503985D01*
X25573522Y78504027D01*
X25573554Y78504069D01*
X25592560Y78523495D01*
X25612683Y78544074D01*
X25612726Y78544108D01*
X25612765Y78544149D01*
X25634046Y78561504D01*
X25656127Y78579521D01*
X25656176Y78579552D01*
X25656217Y78579586D01*
X25679084Y78594305D01*
X25703267Y78609881D01*
X25703318Y78609905D01*
X25703364Y78609936D01*
X25728337Y78622300D01*
X25753509Y78634772D01*
X25753562Y78634791D01*
X25753612Y78634816D01*
X25779725Y78644275D01*
X25806223Y78653881D01*
X25806279Y78653894D01*
X25806330Y78653913D01*
X25833407Y78660405D01*
X25860745Y78666968D01*
X25860801Y78666974D01*
X25860855Y78666988D01*
X25887822Y78670325D01*
X25916390Y78673868D01*
X25916470Y78673871D01*
X25916501Y78673875D01*
X25916595Y78673876D01*
X25944414Y78674968D01*
X26783223Y78684341D01*
X27551370Y78693713D01*
X27551382Y78693712D01*
X28260094Y78703074D01*
X28260110Y78703075D01*
X28920700Y78712448D01*
X29539797Y78721815D01*
X30124540Y78731185D01*
X30680202Y78740554D01*
X30680209Y78740553D01*
X31211133Y78749915D01*
X31211138Y78749916D01*
X31722505Y78759290D01*
X31722508Y78759289D01*
X32216528Y78768654D01*
X32216530Y78768655D01*
X32697283Y78778025D01*
X32697295Y78778026D01*
X33167498Y78787401D01*
X33167514Y78787400D01*
X33629337Y78796772D01*
X33629351Y78796771D01*
X34085351Y78806140D01*
X34085374Y78806142D01*
X34538142Y78815518D01*
X34538157Y78815517D01*
X34989620Y78824892D01*
X34989621Y78824891D01*
X34989641Y78824893D01*
X35442068Y78834268D01*
X35442111Y78834267D01*
X35442139Y78834269D01*
X35897679Y78843644D01*
X35897730Y78843643D01*
X35897800Y78843647D01*
X36358695Y78853021D01*
X36358783Y78853020D01*
X36358860Y78853024D01*
X36827450Y78862400D01*
X36827560Y78862399D01*
X36827663Y78862404D01*
X37306432Y78871779D01*
X37306559Y78871777D01*
X37306688Y78871784D01*
X37798319Y78881159D01*
X37798459Y78881157D01*
X37798616Y78881165D01*
X38306057Y78890540D01*
X38306226Y78890538D01*
X38306393Y78890546D01*
X38832929Y78899920D01*
X38833121Y78899918D01*
X38833298Y78899926D01*
X39382650Y78909302D01*
X39382845Y78909299D01*
X39383052Y78909309D01*
X39959482Y78918683D01*
X39959691Y78918680D01*
X39959909Y78918690D01*
X40568375Y78928065D01*
X40568614Y78928061D01*
X40568826Y78928071D01*
X41215161Y78937447D01*
X41215389Y78937443D01*
X41215632Y78937454D01*
X41906793Y78946828D01*
X41907040Y78946824D01*
X41907276Y78946834D01*
X42651661Y78956209D01*
X42651908Y78956205D01*
X42652156Y78956215D01*
X43460047Y78965590D01*
X43460289Y78965586D01*
X43460548Y78965596D01*
X44344699Y78974971D01*
X44372524Y78974484D01*
X44372637Y78974486D01*
X44372674Y78974482D01*
X44372741Y78974481D01*
X44398454Y78971859D01*
X44428419Y78968812D01*
X44428475Y78968799D01*
X44428522Y78968795D01*
X44456003Y78962828D01*
X44483216Y78956926D01*
X44483259Y78956911D01*
X44483316Y78956899D01*
X44510996Y78947541D01*
X44536337Y78938981D01*
X44536384Y78938958D01*
X44536434Y78938942D01*
X44562882Y78926548D01*
X44587114Y78915200D01*
X44587154Y78915175D01*
X44587206Y78915151D01*
X44612046Y78899907D01*
X44634911Y78885883D01*
X44634952Y78885850D01*
X44634996Y78885824D01*
X44658571Y78867429D01*
X44679123Y78851400D01*
X44679155Y78851368D01*
X44679202Y78851332D01*
X44701368Y78829630D01*
X44719197Y78812183D01*
X44719227Y78812145D01*
X44719268Y78812106D01*
X44739068Y78787810D01*
X44754628Y78768726D01*
X44754652Y78768688D01*
X44754690Y78768642D01*
X44770227Y78744486D01*
X44784972Y78721575D01*
X44784997Y78721524D01*
X44785023Y78721484D01*
X44797934Y78695385D01*
X44809844Y78671324D01*
X44809859Y78671282D01*
X44809886Y78671228D01*
X44820153Y78642854D01*
X44828935Y78618603D01*
X44828947Y78618552D01*
X44828965Y78618503D01*
X44835829Y78589832D01*
X44842002Y78564076D01*
X44842007Y78564029D01*
X44842021Y78563974D01*
X44845604Y78534934D01*
X44848881Y78508429D01*
X44848883Y78508359D01*
X44848888Y78508325D01*
X44848889Y78508220D01*
X44849971Y78480404D01*
X44859346Y77613248D01*
X44868709Y76820125D01*
X44878077Y76087158D01*
X44878078Y76087156D01*
X44887453Y75404391D01*
X44896814Y74765034D01*
X44896815Y74765023D01*
X44906190Y74160498D01*
X44915551Y73586793D01*
X44915552Y73586790D01*
X44924921Y73037834D01*
X44934290Y72509857D01*
X44934291Y72509846D01*
X44943661Y71999163D01*
X44953031Y71502537D01*
X44953032Y71502534D01*
X44962403Y71017039D01*
X44962404Y71017029D01*
X44971779Y70539840D01*
X44971778Y70539821D01*
X44981149Y70068862D01*
X44981150Y70068844D01*
X44990525Y69601267D01*
X44990485Y69596404D01*
X44990625Y69591563D01*
X44999996Y54880153D01*
X45009274Y54417867D01*
X45009273Y54417845D01*
X45009276Y54417799D01*
X45018651Y53947449D01*
X45018650Y53947387D01*
X45018653Y53947334D01*
X45028028Y53471486D01*
X45028027Y53471403D01*
X45028031Y53471325D01*
X45037406Y52987562D01*
X45037405Y52987461D01*
X45037410Y52987357D01*
X45046785Y52493115D01*
X45046783Y52492999D01*
X45046790Y52492868D01*
X45056165Y51985379D01*
X45056163Y51985232D01*
X45056170Y51985092D01*
X45065545Y51461313D01*
X45065543Y51461157D01*
X45065551Y51460989D01*
X45074926Y50917530D01*
X45074924Y50917351D01*
X45074932Y50917172D01*
X45084307Y50350195D01*
X45084304Y50349997D01*
X45084313Y50349807D01*
X45093687Y49754912D01*
X45093684Y49754699D01*
X45093693Y49754498D01*
X45103068Y49126573D01*
X45103065Y49126367D01*
X45103075Y49126136D01*
X45112450Y48459160D01*
X45112446Y48458929D01*
X45112456Y48458705D01*
X45121831Y47745504D01*
X45121827Y47745270D01*
X45121837Y47745034D01*
X45131212Y46976941D01*
X45131208Y46976690D01*
X45131217Y46976461D01*
X45140592Y46142870D01*
X45140588Y46142642D01*
X45140598Y46142385D01*
X45149973Y45230138D01*
X45149477Y45202275D01*
X45149478Y45202194D01*
X45149475Y45202168D01*
X45149474Y45202097D01*
X45146442Y45172455D01*
X45143785Y45146413D01*
X45143775Y45146368D01*
X45143770Y45146317D01*
X45137667Y45118254D01*
X45131881Y45091621D01*
X45131865Y45091575D01*
X45131855Y45091527D01*
X45122403Y45063600D01*
X45113917Y45038506D01*
X45113898Y45038467D01*
X45113881Y45038415D01*
X45102007Y45013099D01*
X45090120Y44987737D01*
X45090091Y44987691D01*
X45090073Y44987651D01*
X45075528Y44963968D01*
X45060786Y44939950D01*
X45060758Y44939915D01*
X45060731Y44939870D01*
X45042984Y44917142D01*
X45026288Y44895749D01*
X45026253Y44895714D01*
X45026224Y44895676D01*
X45007673Y44876741D01*
X44987058Y44855688D01*
X44987016Y44855655D01*
X44986986Y44855623D01*
X44966875Y44839245D01*
X44943589Y44820272D01*
X44943546Y44820245D01*
X44943510Y44820215D01*
X44920766Y44805597D01*
X44896427Y44789945D01*
X44896382Y44789923D01*
X44896342Y44789897D01*
X44872313Y44778020D01*
X44846168Y44765089D01*
X44846119Y44765072D01*
X44846078Y44765051D01*
X44820169Y44755686D01*
X44793440Y44746017D01*
X44793394Y44746006D01*
X44793347Y44745989D01*
X44766607Y44739597D01*
X44738909Y44732968D01*
X44738857Y44732962D01*
X44738813Y44732951D01*
X44712968Y44729771D01*
X44683260Y44726108D01*
X44683189Y44726106D01*
X44683163Y44726102D01*
X44683083Y44726102D01*
X44655235Y44725027D01*
X43759983Y44715652D01*
X43759966Y44715653D01*
X42941142Y44706289D01*
X42941128Y44706288D01*
X42184105Y44696915D01*
X41479919Y44687548D01*
X40819526Y44678180D01*
X40195880Y44668811D01*
X39603078Y44659438D01*
X39036493Y44650068D01*
X39036481Y44650069D01*
X38491903Y44640705D01*
X38491903Y44640704D01*
X37964623Y44631329D01*
X37964609Y44631330D01*
X37452412Y44621964D01*
X37452382Y44621962D01*
X36951233Y44612587D01*
X36951203Y44612588D01*
X36459170Y44603219D01*
X36459160Y44603218D01*
X35973099Y44593845D01*
X35973084Y44593844D01*
X35490697Y44584469D01*
X35490680Y44584470D01*
X35009744Y44575095D01*
X35009727Y44575096D01*
X35009725Y44575095D01*
X34527822Y44565720D01*
X34527803Y44565721D01*
X34527757Y44565718D01*
X34042598Y44556343D01*
X34042541Y44556344D01*
X34042487Y44556341D01*
X33551685Y44546966D01*
X33551608Y44546967D01*
X33551529Y44546963D01*
X33052593Y44537588D01*
X33052482Y44537590D01*
X33052395Y44537585D01*
X32542682Y44528210D01*
X32542574Y44528212D01*
X32542442Y44528205D01*
X32019095Y44518830D01*
X32018958Y44518832D01*
X32018817Y44518825D01*
X31478700Y44509450D01*
X31478537Y44509452D01*
X31478386Y44509445D01*
X30918006Y44500070D01*
X30917839Y44500072D01*
X30917659Y44500064D01*
X30333056Y44490689D01*
X30332870Y44490692D01*
X30332680Y44490683D01*
X29719322Y44481309D01*
X29719123Y44481312D01*
X29718921Y44481303D01*
X29071536Y44471928D01*
X29071325Y44471931D01*
X29071112Y44471922D01*
X28383496Y44462547D01*
X28383262Y44462551D01*
X28383056Y44462542D01*
X27647812Y44453166D01*
X27647591Y44453170D01*
X27647355Y44453160D01*
X26855554Y44443785D01*
X26855316Y44443789D01*
X26855088Y44443780D01*
X25995797Y44434406D01*
X25995565Y44434410D01*
X25995328Y44434401D01*
X25054985Y44425026D01*
X25027118Y44425530D01*
X25027035Y44425529D01*
X25027008Y44425532D01*
X25026943Y44425533D01*
X24999716Y44428327D01*
X24971256Y44431240D01*
X24971207Y44431251D01*
X24971165Y44431255D01*
X24946481Y44436631D01*
X24916467Y44443161D01*
X24916419Y44443178D01*
X24916379Y44443186D01*
X24890961Y44451797D01*
X24863358Y44461142D01*
X24863319Y44461161D01*
X24863273Y44461176D01*
X24839115Y44472516D01*
X24812596Y44484956D01*
X24812552Y44484984D01*
X24812516Y44485000D01*
X24792169Y44497505D01*
X24764819Y44514304D01*
X24764778Y44514337D01*
X24764744Y44514357D01*
X24745330Y44529526D01*
X24720629Y44548816D01*
X24720594Y44548851D01*
X24720560Y44548877D01*
X24701450Y44567611D01*
X24680581Y44588060D01*
X24680552Y44588096D01*
X24680519Y44588128D01*
X24663385Y44609181D01*
X24645179Y44631539D01*
X24645153Y44631581D01*
X24645125Y44631614D01*
X24630723Y44654037D01*
X24614866Y44678711D01*
X24614845Y44678755D01*
X24614821Y44678791D01*
X24602987Y44702752D01*
X24590026Y44728978D01*
X24590010Y44729024D01*
X24589990Y44729063D01*
X24580908Y44754214D01*
X24570971Y44781712D01*
X24570960Y44781760D01*
X24570945Y44781800D01*
X24564281Y44809710D01*
X24557940Y44836247D01*
X24557935Y44836288D01*
X24557923Y44836338D01*
X24554354Y44865411D01*
X24551097Y44891899D01*
X24551095Y44891962D01*
X24551091Y44891991D01*
X24551091Y44892079D01*
X24550026Y44919924D01*
X24540651Y45843273D01*
X24531281Y46688315D01*
X24521911Y47468716D01*
X24521912Y47468725D01*
X24512548Y48194672D01*
X24512547Y48194689D01*
X24503172Y48876227D01*
X24503173Y48876230D01*
X24493803Y49519264D01*
X24493804Y49519269D01*
X24484439Y50129945D01*
X24475064Y50714492D01*
X24475065Y50714516D01*
X24465701Y51275997D01*
X24465699Y51276022D01*
X24456324Y51819640D01*
X24456325Y51819663D01*
X24446959Y52347730D01*
X24446957Y52347752D01*
X24437582Y52864373D01*
X24428210Y53371745D01*
X24418837Y53872731D01*
X24418838Y53872754D01*
X24409464Y54369854D01*
X24409506Y54374405D01*
X24409375Y54378962D01*
X24400003Y69120125D01*
X24390714Y69612204D01*
X24390715Y69612238D01*
X24390713Y69612267D01*
X24381338Y70112235D01*
X24381339Y70112288D01*
X24381336Y70112342D01*
X24371961Y70618098D01*
X24371962Y70618169D01*
X24371958Y70618249D01*
X24362583Y71132358D01*
X24362585Y71132462D01*
X24362580Y71132550D01*
X24353205Y71657735D01*
X24353207Y71657852D01*
X24353201Y71657967D01*
X24343826Y72197172D01*
X24343828Y72197299D01*
X24343821Y72197441D01*
X24334446Y72753895D01*
X24334448Y72754048D01*
X24334441Y72754200D01*
X24325066Y73331503D01*
X24325069Y73331677D01*
X24325061Y73331839D01*
X24315686Y73934067D01*
X24315689Y73934241D01*
X24315680Y73934432D01*
X24306306Y74566255D01*
X24306309Y74566441D01*
X24306300Y74566643D01*
X24296925Y75233488D01*
X24296929Y75233704D01*
X24296920Y75233899D01*
X24287545Y75942156D01*
X24287549Y75942361D01*
X24287539Y75942585D01*
X24278164Y76699870D01*
X24278168Y76700095D01*
X24278159Y76700311D01*
X24268784Y77515821D01*
X24268788Y77516046D01*
X24268779Y77516272D01*
X24259404Y78401265D01*
X24259408Y78401486D01*
X24259399Y78401721D01*
X24250024Y79370160D01*
X24250537Y79398029D01*
X24250536Y79398115D01*
X24250539Y79398143D01*
X24250540Y79398201D01*
X24253586Y79427807D01*
X24256264Y79453892D01*
X24256273Y79453929D01*
X24256277Y79453977D01*
X24262157Y79480937D01*
X24268201Y79508677D01*
X24268217Y79508724D01*
X24268225Y79508761D01*
X24276824Y79534118D01*
X24286198Y79561781D01*
X24286216Y79561818D01*
X24286230Y79561861D01*
X24298964Y79588971D01*
X24310027Y79612535D01*
X24310048Y79612568D01*
X24310068Y79612612D01*
X24325977Y79638483D01*
X24339390Y79660304D01*
X24339416Y79660336D01*
X24339439Y79660375D01*
X24357089Y79682951D01*
X24373915Y79704483D01*
X24373946Y79704514D01*
X24373972Y79704548D01*
X24393038Y79723986D01*
X24413171Y79744520D01*
X24413207Y79744548D01*
X24413235Y79744578D01*
X24434911Y79762210D01*
X24456661Y79779909D01*
X24456696Y79779931D01*
X24456731Y79779960D01*
X24480098Y79794959D01*
X24503842Y79810208D01*
X24503884Y79810228D01*
X24503917Y79810250D01*
X24528957Y79822608D01*
X24554117Y79835032D01*
X24554155Y79835045D01*
X24554196Y79835066D01*
X24581866Y79845050D01*
X24606856Y79854072D01*
X24606897Y79854081D01*
X24606939Y79854097D01*
X24633973Y79860543D01*
X24661395Y79867087D01*
X24661441Y79867092D01*
X24661480Y79867102D01*
X24686632Y79870182D01*
X24717049Y79873913D01*
X24717115Y79873915D01*
X24717135Y79873918D01*
X24717197Y79873918D01*
X24745075Y79874976D01*
X25696518Y79884351D01*
X25696523Y79884350D01*
X26567067Y79893718D01*
X27370963Y79903085D01*
X27370964Y79903086D01*
X28119855Y79912461D01*
X28119870Y79912460D01*
X28821212Y79921824D01*
X28821221Y79921825D01*
X29483746Y79931194D01*
X29483754Y79931195D01*
X30113632Y79940570D01*
X30113656Y79940569D01*
X30715406Y79949938D01*
X31293916Y79959304D01*
X31293932Y79959305D01*
X31853649Y79968676D01*
X32398069Y79978051D01*
X32398087Y79978050D01*
X32929778Y79987418D01*
X32929805Y79987420D01*
X33452394Y79996792D01*
X33452396Y79996793D01*
X33968455Y80006168D01*
X33968480Y80006167D01*
X34480343Y80015540D01*
X34480361Y80015541D01*
X34990819Y80024916D01*
X34990833Y80024915D01*
X34990835Y80024916D01*
X35502214Y80034291D01*
X35502246Y80034290D01*
X35502275Y80034292D01*
X36017052Y80043667D01*
X36017101Y80043666D01*
X36017156Y80043669D01*
X36537865Y80053044D01*
X36537931Y80053043D01*
X36538011Y80053047D01*
X37067292Y80062422D01*
X37067389Y80062420D01*
X37067478Y80062425D01*
X37608136Y80071800D01*
X37608245Y80071798D01*
X37608361Y80071804D01*
X38163424Y80081179D01*
X38163560Y80081177D01*
X38163685Y80081183D01*
X38736478Y80090558D01*
X38736620Y80090556D01*
X38736773Y80090563D01*
X39331000Y80099938D01*
X39331163Y80099935D01*
X39331326Y80099943D01*
X39951179Y80109318D01*
X39951359Y80109315D01*
X39951532Y80109323D01*
X40601819Y80118698D01*
X40602013Y80118695D01*
X40602197Y80118703D01*
X41288501Y80128077D01*
X41288687Y80128074D01*
X41288900Y80128083D01*
X42017796Y80137458D01*
X42018007Y80137454D01*
X42018213Y80137463D01*
X42797539Y80146838D01*
X42797753Y80146834D01*
X42797968Y80146843D01*
X43637187Y80156219D01*
X43637401Y80156215D01*
X43637626Y80156224D01*
X44548318Y80165599D01*
X44548546Y80165594D01*
X44548762Y80165603D01*
X45545297Y80174977D01*
X45573203Y80174456D01*
G37*
%TD.AperFunction*%
%TD*%
D11*
%TO.N,/+5V_ISO*%
%TO.C,J2*%
X37500000Y18000000D03*
D12*
%TO.N,/GND_ISO*%
X32500000Y18000000D03*
%TD*%
D13*
%TO.N,/VIN*%
%TO.C,T1*%
X38621977Y81193193D03*
%TO.N,/SW*%
X31378023Y81193193D03*
%TO.N,/GND_ISO*%
X33169595Y42408661D03*
%TO.N,/SEC_A*%
X36075000Y47553499D03*
%TO.N,unconnected-(T1-P_MID-Pad5)*%
X35000000Y76525000D03*
%TD*%
D11*
%TO.N,/VIN_RAW*%
%TO.C,J1*%
X32500000Y107000000D03*
D12*
%TO.N,/PGND*%
X37500000Y107000000D03*
%TD*%
D14*
%TO.N,/VIN*%
X39000000Y86525000D03*
D15*
X24675000Y96000000D03*
D14*
X21975000Y86365000D03*
X23000000Y100150000D03*
D15*
%TO.N,/PGND*%
X27300000Y88550000D03*
X32475000Y89200000D03*
X29325000Y96000000D03*
X19500000Y92000000D03*
X49000000Y89000000D03*
X49200000Y98000000D03*
X25700000Y87450000D03*
X26000000Y84500000D03*
X49000000Y84000000D03*
X35000000Y97000000D03*
X49500000Y105000000D03*
X48000000Y93000000D03*
X20725000Y88800000D03*
X38000000Y93000000D03*
X34000000Y94500000D03*
X21500000Y93500000D03*
X19025000Y86365000D03*
X20000000Y95000000D03*
X19500000Y107000000D03*
X23898500Y86095000D03*
X19500000Y104000000D03*
X39000000Y89475000D03*
X47000000Y84000000D03*
X19500000Y83000000D03*
X20500000Y83600000D03*
D16*
X27400000Y84350000D03*
D15*
X25700000Y88550000D03*
X27300000Y87450000D03*
X50000000Y93000000D03*
D17*
%TO.N,/GND_ISO*%
X44000000Y27037500D03*
X33200000Y28500000D03*
D15*
X47500000Y32000000D03*
X22000000Y24000000D03*
D17*
X23200000Y28500000D03*
D15*
X47000000Y19000000D03*
D17*
X32269595Y40500000D03*
D15*
X35000000Y21000000D03*
D17*
X42975000Y35880000D03*
D15*
X35000000Y15500000D03*
X46000000Y35000000D03*
X26000000Y17000000D03*
X27000000Y35000000D03*
X25000000Y39000000D03*
X29000000Y39000000D03*
X42000000Y17000000D03*
X22000000Y32000000D03*
X27000000Y24000000D03*
X46000000Y39000000D03*
D16*
X43200000Y33000000D03*
D17*
X33169595Y40500000D03*
D15*
X22000000Y39000000D03*
X42000000Y24000000D03*
X46000000Y24000000D03*
X30500000Y24200000D03*
X34000000Y32000000D03*
D17*
%TO.N,/SEC_A*%
X36450000Y39862000D03*
X35550000Y39862000D03*
%TD*%
M02*
