M48
; DRILL file KiCad 10.0.6 date 2026-09-30T11:25:32
; FORMAT={-:-/ absolute / metric / decimal}
; #@! TF.CreationDate,2026-09-30T11:25:32-04:00
; #@! TF.GenerationSoftware,Kicad,Pcbnew,10.0.6
; #@! TF.FileFunction,Plated,1,6,PTH
FMAT,2
METRIC
; #@! TA.AperFunction,Plated,PTH,ViaDrill
T1C0.300
; #@! TA.AperFunction,Plated,PTH,ViaDrill
T2C0.400
; #@! TA.AperFunction,Plated,PTH,ComponentDrill
T3C0.400
; #@! TA.AperFunction,Plated,PTH,ViaDrill
T4C0.450
; #@! TA.AperFunction,Plated,PTH,ComponentDrill
T5C1.300
%
G90
G05
T1
X19.025Y86.365
X19.5Y107.0
X19.5Y104.0
X19.5Y92.0
X19.5Y83.0
X20.0Y95.0
X20.5Y83.6
X20.725Y88.8
X21.5Y93.5
X22.0Y39.0
X22.0Y32.0
X22.0Y24.0
X23.898Y86.095
X24.675Y96.0
X25.0Y39.0
X25.7Y88.55
X25.7Y87.45
X26.0Y84.5
X26.0Y17.0
X27.0Y35.0
X27.0Y24.0
X27.3Y88.55
X27.3Y87.45
X27.4Y84.35
X29.0Y39.0
X29.325Y96.0
X30.5Y24.2
X32.475Y89.2
X34.0Y94.5
X34.0Y32.0
X35.0Y97.0
X35.0Y21.0
X35.0Y15.5
X38.0Y93.0
X39.0Y89.475
X42.0Y24.0
X42.0Y17.0
X43.2Y33.0
X46.0Y39.0
X46.0Y35.0
X46.0Y24.0
X47.0Y84.0
X47.0Y19.0
X47.5Y32.0
X48.0Y93.0
X49.0Y89.0
X49.0Y84.0
X49.2Y98.0
X49.5Y105.0
X50.0Y93.0
T2
X21.975Y86.365
X23.0Y100.15
X39.0Y86.525
T3
X31.378Y81.193
X33.17Y42.409
X35.0Y76.525
X36.075Y47.553
X38.622Y81.193
T4
X23.2Y28.5
X32.27Y40.5
X33.17Y40.5
X33.2Y28.5
X35.55Y39.862
X36.45Y39.862
X42.975Y35.88
X44.0Y27.037
T5
X32.5Y107.0
X32.5Y18.0
X37.5Y107.0
X37.5Y18.0
M30
