%TF.GenerationSoftware,KiCad,Pcbnew,10.0.6*%
%TF.CreationDate,2026-09-30T11:25:32-04:00*%
%TF.ProjectId,PS-FLYBACK-5W-panel,50532d46-4c59-4424-9143-4b2d35572d70,A1-development*%
%TF.SameCoordinates,Original*%
%TF.FileFunction,Profile,NP*%
%FSLAX46Y46*%
G04 Gerber Fmt 4.6, Leading zero omitted, Abs format (unit mm)*
G04 Created by KiCad (PCBNEW 10.0.6) date 2026-09-30 11:25:32*
%MOMM*%
%LPD*%
G01*
G04 APERTURE LIST*
%TA.AperFunction,Profile*%
%ADD10C,0.100000*%
%TD*%
G04 APERTURE END LIST*
D10*
X0Y121996932D02*
X0Y2003069D01*
X0Y121996932D02*
G75*
G02*
X2003043Y124000000I2000100J2968D01*
G01*
X2003068Y0D02*
G75*
G02*
X0Y2003069I-2968J2000100D01*
G01*
X2003068Y0D02*
X67996931Y0D01*
X8000000Y115750988D02*
X8002695Y115787536D01*
X8000000Y89749013D02*
X8000000Y115750988D01*
X8000000Y63749013D02*
X8000300Y86263218D01*
X8000000Y37749013D02*
X8000300Y60263218D01*
X8000000Y34250988D02*
X8002695Y34287536D01*
X8000000Y8249013D02*
X8000000Y34250988D01*
X8000300Y86263218D02*
X8002695Y86287536D01*
X8000300Y60263218D02*
X8002695Y60287536D01*
X8001199Y89724594D02*
X8000000Y89749013D01*
X8001199Y8224594D02*
X8000000Y8249013D01*
X8002695Y115787536D02*
X8010722Y115823281D01*
X8002695Y86287536D02*
X8007462Y86311502D01*
X8002695Y63712465D02*
X8000000Y63749013D01*
X8002695Y60287536D02*
X8007462Y60311502D01*
X8002695Y37712465D02*
X8000000Y37749013D01*
X8002695Y34287536D02*
X8007462Y34311502D01*
X8004784Y89700423D02*
X8001199Y89724594D01*
X8007462Y86311502D02*
X8018954Y86346289D01*
X8007462Y63688499D02*
X8002695Y63712465D01*
X8007462Y60311502D02*
X8018954Y60346289D01*
X8007462Y37688499D02*
X8002695Y37712465D01*
X8007462Y34311502D02*
X8014555Y34334886D01*
X8007462Y8188499D02*
X8001199Y8224594D01*
X8010722Y115823281D02*
X8023906Y115857462D01*
X8010722Y89676720D02*
X8004784Y89700423D01*
X8014555Y63665115D02*
X8007462Y63688499D01*
X8014555Y37665115D02*
X8007462Y37688499D01*
X8014555Y34334886D02*
X8023906Y34357462D01*
X8018954Y89653712D02*
X8010722Y89676720D01*
X8018954Y86346289D02*
X8035425Y86379012D01*
X8018954Y60346289D02*
X8029401Y60368378D01*
X8018954Y8153712D02*
X8007462Y8188499D01*
X8023906Y115857462D02*
X8041964Y115889337D01*
X8023906Y63642539D02*
X8014555Y63665115D01*
X8023906Y37642539D02*
X8014555Y37665115D01*
X8023906Y34357462D02*
X8035425Y34379012D01*
X8029401Y60368378D02*
X8041964Y60389337D01*
X8035425Y89620989D02*
X8018954Y89653712D01*
X8035425Y86379012D02*
X8049001Y86399329D01*
X8035425Y63620989D02*
X8023906Y63642539D01*
X8035425Y37620989D02*
X8023906Y37642539D01*
X8035425Y34379012D02*
X8049001Y34399329D01*
X8035425Y8120989D02*
X8018954Y8153712D01*
X8041964Y115889337D02*
X8064503Y115918218D01*
X8041964Y60389337D02*
X8064503Y60418218D01*
X8049001Y89600672D02*
X8035425Y89620989D01*
X8049001Y86399329D02*
X8064503Y86418218D01*
X8049001Y63600672D02*
X8035425Y63620989D01*
X8049001Y37600672D02*
X8035425Y37620989D01*
X8049001Y34399329D02*
X8064503Y34418218D01*
X8056520Y8091037D02*
X8035425Y8120989D01*
X8064503Y115918218D02*
X8091036Y115943480D01*
X8064503Y86418218D02*
X8081782Y86435497D01*
X8064503Y63581783D02*
X8049001Y63600672D01*
X8064503Y60418218D02*
X8081782Y60435497D01*
X8064503Y37581783D02*
X8049001Y37600672D01*
X8064503Y34418218D02*
X8081782Y34435497D01*
X8072930Y89572931D02*
X8049001Y89600672D01*
X8081782Y86435497D02*
X8100671Y86450999D01*
X8081782Y63564504D02*
X8064503Y63581783D01*
X8081782Y60435497D02*
X8100671Y60450999D01*
X8081782Y37564504D02*
X8064503Y37581783D01*
X8081782Y34435497D02*
X8100671Y34450999D01*
X8081782Y8064504D02*
X8056520Y8091037D01*
X8091036Y115943480D02*
X8120988Y115964575D01*
X8100671Y89549002D02*
X8072930Y89572931D01*
X8100671Y86450999D02*
X8131622Y86470599D01*
X8100671Y63549002D02*
X8081782Y63564504D01*
X8100671Y60450999D02*
X8131622Y60470599D01*
X8100671Y37549002D02*
X8081782Y37564504D01*
X8100671Y34450999D02*
X8120988Y34464575D01*
X8110663Y8041965D02*
X8081782Y8064504D01*
X8120988Y115964575D02*
X8153711Y115981046D01*
X8120988Y89535426D02*
X8100671Y89549002D01*
X8120988Y63535426D02*
X8100671Y63549002D01*
X8120988Y37535426D02*
X8100671Y37549002D01*
X8120988Y34464575D02*
X8142538Y34476094D01*
X8131622Y86470599D02*
X8153711Y86481046D01*
X8131622Y60470599D02*
X8153711Y60481046D01*
X8142538Y63523907D02*
X8120988Y63535426D01*
X8142538Y37523907D02*
X8120988Y37535426D01*
X8142538Y34476094D02*
X8165114Y34485445D01*
X8142538Y8023907D02*
X8110663Y8041965D01*
X8153711Y115981046D02*
X8176719Y115989278D01*
X8153711Y89518955D02*
X8120988Y89535426D01*
X8153711Y86481046D02*
X8176719Y86489278D01*
X8153711Y60481046D02*
X8176719Y60489278D01*
X8165114Y63514556D02*
X8142538Y63523907D01*
X8165114Y37514556D02*
X8142538Y37523907D01*
X8165114Y34485445D02*
X8188498Y34492538D01*
X8176719Y115989278D02*
X8200422Y115995216D01*
X8176719Y86489278D02*
X8212464Y86497305D01*
X8176719Y60489278D02*
X8212464Y60497305D01*
X8176719Y8010723D02*
X8142538Y8023907D01*
X8188498Y89507463D02*
X8153711Y89518955D01*
X8188498Y63507463D02*
X8165114Y63514556D01*
X8188498Y37507463D02*
X8165114Y37514556D01*
X8188498Y34492538D02*
X8224593Y34498801D01*
X8200422Y115995216D02*
X8224593Y115998801D01*
X8200422Y8004785D02*
X8176719Y8010723D01*
X8212464Y86497305D02*
X8249012Y86500000D01*
X8212464Y63502696D02*
X8188498Y63507463D01*
X8212464Y60497305D02*
X8249012Y60500000D01*
X8212464Y37502696D02*
X8188498Y37507463D01*
X8224593Y115998801D02*
X8249012Y116000000D01*
X8224593Y89501200D02*
X8188498Y89507463D01*
X8224593Y34498801D02*
X8249012Y34500000D01*
X8224593Y8001200D02*
X8200422Y8004785D01*
X8236782Y63500301D02*
X8212464Y63502696D01*
X8236782Y37500301D02*
X8212464Y37502696D01*
X8249012Y116000000D02*
X61750987Y116000000D01*
X8249012Y89500000D02*
X8224593Y89501200D01*
X8249012Y86500000D02*
X9750987Y86500000D01*
X8249012Y60500000D02*
X9750987Y60500000D01*
X8249012Y34500000D02*
X9750987Y34500000D01*
X8249012Y8000000D02*
X8224593Y8001200D01*
X9750987Y86500000D02*
X9775406Y86498801D01*
X9750987Y63500000D02*
X8236782Y63500301D01*
X9750987Y60500000D02*
X9775406Y60498801D01*
X9750987Y37500000D02*
X8236782Y37500301D01*
X9750987Y34500000D02*
X9787535Y34497305D01*
X9763217Y89500301D02*
X8249012Y89500000D01*
X9775406Y86498801D02*
X9799577Y86495216D01*
X9775406Y60498801D02*
X9799577Y60495216D01*
X9787535Y89502696D02*
X9763217Y89500301D01*
X9787535Y63502696D02*
X9750987Y63500000D01*
X9787535Y37502696D02*
X9750987Y37500000D01*
X9787535Y34497305D02*
X9823280Y34489278D01*
X9799577Y86495216D02*
X9823280Y86489278D01*
X9799577Y60495216D02*
X9823280Y60489278D01*
X9811501Y89507463D02*
X9787535Y89502696D01*
X9823280Y86489278D02*
X9846288Y86481046D01*
X9823280Y63510723D02*
X9787535Y63502696D01*
X9823280Y60489278D02*
X9846288Y60481046D01*
X9823280Y37510723D02*
X9787535Y37502696D01*
X9823280Y34489278D02*
X9846288Y34481046D01*
X9846288Y89518955D02*
X9811501Y89507463D01*
X9846288Y86481046D02*
X9868377Y86470599D01*
X9846288Y63518955D02*
X9823280Y63510723D01*
X9846288Y60481046D02*
X9868377Y60470599D01*
X9846288Y37518955D02*
X9823280Y37510723D01*
X9846288Y34481046D02*
X9868377Y34470599D01*
X9868377Y86470599D02*
X9889336Y86458036D01*
X9868377Y63529402D02*
X9846288Y63518955D01*
X9868377Y60470599D02*
X9889336Y60458036D01*
X9868377Y37529402D02*
X9846288Y37518955D01*
X9868377Y34470599D02*
X9899328Y34450999D01*
X9879011Y89535426D02*
X9846288Y89518955D01*
X9889336Y86458036D02*
X9908963Y86443480D01*
X9889336Y60458036D02*
X9908963Y60443480D01*
X9899328Y89549002D02*
X9879011Y89535426D01*
X9899328Y63549002D02*
X9868377Y63529402D01*
X9899328Y37549002D02*
X9868377Y37529402D01*
X9899328Y34450999D02*
X9918217Y34435497D01*
X9908963Y86443480D02*
X9927069Y86427070D01*
X9908963Y60443480D02*
X9927069Y60427070D01*
X9918217Y89564504D02*
X9899328Y89549002D01*
X9918217Y63564504D02*
X9899328Y63549002D01*
X9918217Y37564504D02*
X9899328Y37549002D01*
X9918217Y34435497D02*
X9935496Y34418218D01*
X9927069Y86427070D02*
X9943479Y86408964D01*
X9927069Y60427070D02*
X9943479Y60408964D01*
X9935496Y89581783D02*
X9918217Y89564504D01*
X9935496Y63581783D02*
X9918217Y63564504D01*
X9935496Y37581783D02*
X9918217Y37564504D01*
X9935496Y34418218D02*
X9950998Y34399329D01*
X9943479Y86408964D02*
X9958035Y86389337D01*
X9943479Y60408964D02*
X9958035Y60389337D01*
X9950998Y89600672D02*
X9935496Y89581783D01*
X9950998Y37600672D02*
X9935496Y37581783D01*
X9950998Y34399329D02*
X9964574Y34379012D01*
X9958035Y86389337D02*
X9970598Y86368378D01*
X9958035Y63610664D02*
X9935496Y63581783D01*
X9958035Y60389337D02*
X9970598Y60368378D01*
X9964574Y37620989D02*
X9950998Y37600672D01*
X9964574Y34379012D02*
X9981045Y34346289D01*
X9970598Y89631623D02*
X9950998Y89600672D01*
X9970598Y86368378D02*
X9981045Y86346289D01*
X9970598Y63631623D02*
X9958035Y63610664D01*
X9970598Y60368378D02*
X9981045Y60346289D01*
X9981045Y89653712D02*
X9970598Y89631623D01*
X9981045Y86346289D02*
X9989277Y86323281D01*
X9981045Y63653712D02*
X9970598Y63631623D01*
X9981045Y60346289D02*
X9989277Y60323281D01*
X9981045Y37653712D02*
X9964574Y37620989D01*
X9981045Y34346289D02*
X9992537Y34311502D01*
X9989277Y89676720D02*
X9981045Y89653712D01*
X9989277Y86323281D02*
X9995215Y86299578D01*
X9989277Y60323281D02*
X9995215Y60299578D01*
X9992537Y63688499D02*
X9981045Y63653712D01*
X9992537Y37688499D02*
X9981045Y37653712D01*
X9992537Y34311502D02*
X9998800Y34275407D01*
X9995215Y86299578D02*
X9998800Y86275407D01*
X9995215Y60299578D02*
X9998800Y60275407D01*
X9997304Y89712465D02*
X9989277Y89676720D01*
X9997304Y63712465D02*
X9992537Y63688499D01*
X9997304Y37712465D02*
X9992537Y37688499D01*
X9998800Y86275407D02*
X10000000Y86250988D01*
X9998800Y60275407D02*
X10000000Y60250988D01*
X9998800Y34275407D02*
X10000000Y34250988D01*
X9999699Y63736783D02*
X9997304Y63712465D01*
X9999699Y37736783D02*
X9997304Y37712465D01*
X10000000Y111998417D02*
X10000000Y89749013D01*
X10000000Y111998417D02*
G75*
G02*
X12001583Y114000000I2000000J1583D01*
G01*
X10000000Y89749013D02*
X9997304Y89712465D01*
X10000000Y86250988D02*
X9999699Y63736783D01*
X10000000Y60250988D02*
X9999699Y37736783D01*
X10000000Y34250988D02*
X10000000Y12001584D01*
X12001583Y10000000D02*
G75*
G02*
X10000000Y12001584I-1583J2000000D01*
G01*
X12001583Y10000000D02*
X57998416Y10000000D01*
X18550000Y72118678D02*
G75*
G02*
X19043685Y72624691I500200J5822D01*
G01*
X18550000Y51881323D02*
X18550000Y72118678D01*
X19043685Y72624680D02*
X22293677Y72625000D01*
X19056322Y51375000D02*
G75*
G02*
X18550000Y51881323I-6122J500200D01*
G01*
X22293677Y72625000D02*
G75*
G02*
X22800000Y72118678I6323J-500000D01*
G01*
X22293677Y51375000D02*
X19056322Y51375000D01*
X22800000Y72118678D02*
X22800000Y51881323D01*
X22800000Y51881323D02*
G75*
G02*
X22293677Y51375000I-500400J-5923D01*
G01*
X31500000Y72118678D02*
G75*
G02*
X32006335Y72625000I500500J5822D01*
G01*
X31500000Y51878161D02*
X31500000Y72118678D01*
X31974682Y51375822D02*
G75*
G02*
X31499984Y51878161I25418J499478D01*
G01*
X32006335Y72625000D02*
X38025317Y72624179D01*
X37993664Y51375001D02*
X31974682Y51375822D01*
X38025317Y72624179D02*
G75*
G02*
X38500017Y72121840I-25417J-499479D01*
G01*
X38499919Y51871841D02*
G75*
G02*
X37993664Y51375006I-500219J3359D01*
G01*
X38500000Y72121840D02*
X38499919Y51871841D01*
X47200000Y72118678D02*
G75*
G02*
X47693685Y72624691I500200J5822D01*
G01*
X47200000Y51881323D02*
X47200000Y72118678D01*
X47693685Y72624680D02*
X50943677Y72625000D01*
X47706322Y51375000D02*
G75*
G02*
X47200000Y51881323I-6122J500200D01*
G01*
X50943677Y72625000D02*
G75*
G02*
X51450000Y72118678I6323J-500000D01*
G01*
X50943677Y51375000D02*
X47706322Y51375000D01*
X51450000Y72118678D02*
X51450000Y51881323D01*
X51450000Y51881323D02*
G75*
G02*
X50943677Y51375000I-500400J-5923D01*
G01*
X57998416Y114000000D02*
X12001583Y114000000D01*
X57998416Y114000000D02*
G75*
G02*
X60000000Y111998417I1584J-2000000D01*
G01*
X60000000Y89749013D02*
X60000000Y111998417D01*
X60000000Y63749013D02*
X60000300Y86263218D01*
X60000000Y37749013D02*
X60000300Y60263218D01*
X60000000Y34250988D02*
X60002695Y34287536D01*
X60000000Y12001584D02*
G75*
G02*
X57998416Y10000000I-2000000J-1584D01*
G01*
X60000000Y12001584D02*
X60000000Y34250988D01*
X60000300Y86263218D02*
X60004784Y86299578D01*
X60000300Y60263218D02*
X60004784Y60299578D01*
X60001199Y89724594D02*
X60000000Y89749013D01*
X60001199Y63724594D02*
X60000000Y63749013D01*
X60001199Y37724594D02*
X60000000Y37749013D01*
X60002695Y34287536D02*
X60007462Y34311502D01*
X60004784Y86299578D02*
X60010722Y86323281D01*
X60004784Y63700423D02*
X60001199Y63724594D01*
X60004784Y60299578D02*
X60010722Y60323281D01*
X60004784Y37700423D02*
X60001199Y37724594D01*
X60007462Y89688499D02*
X60001199Y89724594D01*
X60007462Y34311502D02*
X60014555Y34334886D01*
X60010722Y86323281D02*
X60018954Y86346289D01*
X60010722Y63676720D02*
X60004784Y63700423D01*
X60010722Y60323281D02*
X60018954Y60346289D01*
X60010722Y37676720D02*
X60004784Y37700423D01*
X60014555Y89665115D02*
X60007462Y89688499D01*
X60014555Y34334886D02*
X60029401Y34368378D01*
X60018954Y86346289D02*
X60035425Y86379012D01*
X60018954Y63653712D02*
X60010722Y63676720D01*
X60018954Y60346289D02*
X60029401Y60368378D01*
X60018954Y37653712D02*
X60010722Y37676720D01*
X60023906Y89642539D02*
X60014555Y89665115D01*
X60029401Y63631623D02*
X60018954Y63653712D01*
X60029401Y60368378D02*
X60041964Y60389337D01*
X60029401Y37631623D02*
X60018954Y37653712D01*
X60029401Y34368378D02*
X60049001Y34399329D01*
X60035425Y86379012D02*
X60049001Y86399329D01*
X60041964Y89610664D02*
X60023906Y89642539D01*
X60041964Y63610664D02*
X60029401Y63631623D01*
X60041964Y60389337D02*
X60064503Y60418218D01*
X60041964Y37610664D02*
X60029401Y37631623D01*
X60049001Y86399329D02*
X60064503Y86418218D01*
X60049001Y34399329D02*
X60064503Y34418218D01*
X60056520Y89591037D02*
X60041964Y89610664D01*
X60056520Y63591037D02*
X60041964Y63610664D01*
X60056520Y37591037D02*
X60041964Y37610664D01*
X60064503Y86418218D02*
X60091036Y86443480D01*
X60064503Y60418218D02*
X60081782Y60435497D01*
X60064503Y34418218D02*
X60081782Y34435497D01*
X60072930Y89572931D02*
X60056520Y89591037D01*
X60072930Y63572931D02*
X60056520Y63591037D01*
X60072930Y37572931D02*
X60056520Y37591037D01*
X60081782Y60435497D02*
X60100671Y60450999D01*
X60081782Y34435497D02*
X60110663Y34458036D01*
X60091036Y89556521D02*
X60072930Y89572931D01*
X60091036Y86443480D02*
X60110663Y86458036D01*
X60091036Y63556521D02*
X60072930Y63572931D01*
X60091036Y37556521D02*
X60072930Y37572931D01*
X60100671Y60450999D02*
X60131622Y60470599D01*
X60110663Y89541965D02*
X60091036Y89556521D01*
X60110663Y86458036D02*
X60131622Y86470599D01*
X60110663Y63541965D02*
X60091036Y63556521D01*
X60110663Y37541965D02*
X60091036Y37556521D01*
X60110663Y34458036D02*
X60131622Y34470599D01*
X60131622Y86470599D02*
X60165114Y86485445D01*
X60131622Y63529402D02*
X60110663Y63541965D01*
X60131622Y60470599D02*
X60153711Y60481046D01*
X60131622Y37529402D02*
X60110663Y37541965D01*
X60131622Y34470599D02*
X60153711Y34481046D01*
X60142538Y89523907D02*
X60110663Y89541965D01*
X60153711Y63518955D02*
X60131622Y63529402D01*
X60153711Y60481046D02*
X60176719Y60489278D01*
X60153711Y37518955D02*
X60131622Y37529402D01*
X60153711Y34481046D02*
X60188498Y34492538D01*
X60165114Y86485445D02*
X60188498Y86492538D01*
X60176719Y89510723D02*
X60142538Y89523907D01*
X60176719Y63510723D02*
X60153711Y63518955D01*
X60176719Y60489278D02*
X60212464Y60497305D01*
X60176719Y37510723D02*
X60153711Y37518955D01*
X60188498Y86492538D02*
X60212464Y86497305D01*
X60188498Y34492538D02*
X60212464Y34497305D01*
X60200422Y63504785D02*
X60176719Y63510723D01*
X60200422Y37504785D02*
X60176719Y37510723D01*
X60212464Y89502696D02*
X60176719Y89510723D01*
X60212464Y86497305D02*
X60249012Y86500000D01*
X60212464Y60497305D02*
X60249012Y60500000D01*
X60212464Y34497305D02*
X60236782Y34499700D01*
X60224593Y63501200D02*
X60200422Y63504785D01*
X60224593Y37501200D02*
X60200422Y37504785D01*
X60236782Y34499700D02*
X61750987Y34500000D01*
X60249012Y89500000D02*
X60212464Y89502696D01*
X60249012Y86500000D02*
X61763217Y86499700D01*
X60249012Y63500000D02*
X60224593Y63501200D01*
X60249012Y60500000D02*
X61763217Y60499700D01*
X60249012Y37500000D02*
X60224593Y37501200D01*
X61750987Y116000000D02*
X61775406Y115998801D01*
X61750987Y89500000D02*
X60249012Y89500000D01*
X61750987Y63500000D02*
X60249012Y63500000D01*
X61750987Y37500000D02*
X60249012Y37500000D01*
X61750987Y34500000D02*
X61775406Y34498801D01*
X61750987Y8000000D02*
X8249012Y8000000D01*
X61763217Y86499700D02*
X61787535Y86497305D01*
X61763217Y60499700D02*
X61787535Y60497305D01*
X61775406Y115998801D02*
X61799577Y115995216D01*
X61775406Y89501200D02*
X61750987Y89500000D01*
X61775406Y34498801D02*
X61811501Y34492538D01*
X61775406Y8001200D02*
X61750987Y8000000D01*
X61787535Y86497305D02*
X61811501Y86492538D01*
X61787535Y63502696D02*
X61750987Y63500000D01*
X61787535Y60497305D02*
X61811501Y60492538D01*
X61787535Y37502696D02*
X61750987Y37500000D01*
X61799577Y115995216D02*
X61823280Y115989278D01*
X61799577Y8004785D02*
X61775406Y8001200D01*
X61811501Y89507463D02*
X61775406Y89501200D01*
X61811501Y86492538D02*
X61834885Y86485445D01*
X61811501Y60492538D02*
X61834885Y60485445D01*
X61811501Y34492538D02*
X61846288Y34481046D01*
X61823280Y115989278D02*
X61857461Y115976094D01*
X61823280Y63510723D02*
X61787535Y63502696D01*
X61823280Y37510723D02*
X61787535Y37502696D01*
X61823280Y8010723D02*
X61799577Y8004785D01*
X61834885Y89514556D02*
X61811501Y89507463D01*
X61834885Y86485445D02*
X61857461Y86476094D01*
X61834885Y60485445D02*
X61857461Y60476094D01*
X61846288Y63518955D02*
X61823280Y63510723D01*
X61846288Y37518955D02*
X61823280Y37510723D01*
X61846288Y34481046D02*
X61879011Y34464575D01*
X61846288Y8018955D02*
X61823280Y8010723D01*
X61857461Y115976094D02*
X61889336Y115958036D01*
X61857461Y89523907D02*
X61834885Y89514556D01*
X61857461Y86476094D02*
X61879011Y86464575D01*
X61857461Y60476094D02*
X61879011Y60464575D01*
X61868377Y63529402D02*
X61846288Y63518955D01*
X61868377Y37529402D02*
X61846288Y37518955D01*
X61879011Y89535426D02*
X61857461Y89523907D01*
X61879011Y86464575D02*
X61899328Y86450999D01*
X61879011Y60464575D02*
X61899328Y60450999D01*
X61879011Y34464575D02*
X61899328Y34450999D01*
X61879011Y8035426D02*
X61846288Y8018955D01*
X61889336Y115958036D02*
X61918217Y115935497D01*
X61889336Y37541965D02*
X61868377Y37529402D01*
X61899328Y89549002D02*
X61879011Y89535426D01*
X61899328Y86450999D02*
X61918217Y86435497D01*
X61899328Y63549002D02*
X61868377Y63529402D01*
X61899328Y60450999D02*
X61918217Y60435497D01*
X61899328Y34450999D02*
X61927069Y34427070D01*
X61908963Y37556521D02*
X61889336Y37541965D01*
X61908963Y8056521D02*
X61879011Y8035426D01*
X61918217Y115935497D02*
X61943479Y115908964D01*
X61918217Y89564504D02*
X61899328Y89549002D01*
X61918217Y86435497D02*
X61935496Y86418218D01*
X61918217Y63564504D02*
X61899328Y63549002D01*
X61918217Y60435497D02*
X61935496Y60418218D01*
X61927069Y34427070D02*
X61950998Y34399329D01*
X61935496Y89581783D02*
X61918217Y89564504D01*
X61935496Y86418218D02*
X61950998Y86399329D01*
X61935496Y63581783D02*
X61918217Y63564504D01*
X61935496Y60418218D02*
X61950998Y60399329D01*
X61935496Y37581783D02*
X61908963Y37556521D01*
X61935496Y8081783D02*
X61908963Y8056521D01*
X61943479Y115908964D02*
X61964574Y115879012D01*
X61950998Y89600672D02*
X61935496Y89581783D01*
X61950998Y86399329D02*
X61964574Y86379012D01*
X61950998Y60399329D02*
X61964574Y60379012D01*
X61950998Y37600672D02*
X61935496Y37581783D01*
X61950998Y34399329D02*
X61970598Y34368378D01*
X61958035Y63610664D02*
X61935496Y63581783D01*
X61958035Y8110664D02*
X61935496Y8081783D01*
X61964574Y115879012D02*
X61981045Y115846289D01*
X61964574Y89620989D02*
X61950998Y89600672D01*
X61964574Y86379012D02*
X61976093Y86357462D01*
X61964574Y60379012D02*
X61976093Y60357462D01*
X61964574Y37620989D02*
X61950998Y37600672D01*
X61970598Y63631623D02*
X61958035Y63610664D01*
X61970598Y34368378D02*
X61981045Y34346289D01*
X61976093Y89642539D02*
X61964574Y89620989D01*
X61976093Y86357462D02*
X61985444Y86334886D01*
X61976093Y60357462D02*
X61985444Y60334886D01*
X61976093Y8142539D02*
X61958035Y8110664D01*
X61981045Y115846289D02*
X61992537Y115811502D01*
X61981045Y63653712D02*
X61970598Y63631623D01*
X61981045Y37653712D02*
X61964574Y37620989D01*
X61981045Y34346289D02*
X61989277Y34323281D01*
X61985444Y89665115D02*
X61976093Y89642539D01*
X61985444Y86334886D02*
X61992537Y86311502D01*
X61985444Y60334886D02*
X61992537Y60311502D01*
X61989277Y63676720D02*
X61981045Y63653712D01*
X61989277Y37676720D02*
X61981045Y37653712D01*
X61989277Y34323281D02*
X61995215Y34299578D01*
X61989277Y8176720D02*
X61976093Y8142539D01*
X61992537Y115811502D02*
X61998800Y115775407D01*
X61992537Y89688499D02*
X61985444Y89665115D01*
X61992537Y86311502D02*
X61997304Y86287536D01*
X61992537Y60311502D02*
X61997304Y60287536D01*
X61995215Y63700423D02*
X61989277Y63676720D01*
X61995215Y37700423D02*
X61989277Y37676720D01*
X61995215Y34299578D02*
X61998800Y34275407D01*
X61997304Y89712465D02*
X61992537Y89688499D01*
X61997304Y86287536D02*
X62000000Y86250988D01*
X61997304Y60287536D02*
X62000000Y60250988D01*
X61997304Y8212465D02*
X61989277Y8176720D01*
X61998800Y115775407D02*
X62000000Y115750988D01*
X61998800Y34275407D02*
X62000000Y34250988D01*
X61999699Y63736783D02*
X61995215Y63700423D01*
X61999699Y37736783D02*
X61995215Y37700423D01*
X62000000Y115750988D02*
X62000000Y89749013D01*
X62000000Y89749013D02*
X61997304Y89712465D01*
X62000000Y86250988D02*
X61999699Y63736783D01*
X62000000Y60250988D02*
X61999699Y37736783D01*
X62000000Y34250988D02*
X62000000Y8249013D01*
X62000000Y8249013D02*
X61997304Y8212465D01*
X67996931Y124000000D02*
X2003043Y124000000D01*
X67996931Y124000000D02*
G75*
G02*
X70000000Y121996932I2969J-2000100D01*
G01*
X70000000Y2003069D02*
G75*
G02*
X67996931Y0I-2000100J-2969D01*
G01*
X70000000Y2003069D02*
X70000000Y121996932D01*
M02*
