%TF.GenerationSoftware,KiCad,Pcbnew,10.0.6*%
%TF.CreationDate,2026-09-30T11:25:32-04:00*%
%TF.ProjectId,PS-FLYBACK-5W-panel,50532d46-4c59-4424-9143-4b2d35572d70,A1-development*%
%TF.SameCoordinates,Original*%
%TF.FileFunction,Copper,L6,Bot*%
%TF.FilePolarity,Positive*%
%FSLAX46Y46*%
G04 Gerber Fmt 4.6, Leading zero omitted, Abs format (unit mm)*
G04 Created by KiCad (PCBNEW 10.0.6) date 2026-09-30 11:25:32*
%MOMM*%
%LPD*%
G01*
G04 APERTURE LIST*
%TA.AperFunction,EtchedComponent*%
%ADD10C,0.000000*%
%TD*%
%TA.AperFunction,ComponentPad*%
%ADD11R,2.400000X2.400000*%
%TD*%
%TA.AperFunction,ComponentPad*%
%ADD12C,2.400000*%
%TD*%
%TA.AperFunction,ComponentPad*%
%ADD13C,0.800000*%
%TD*%
%TA.AperFunction,SMDPad,CuDef*%
%ADD14C,1.000000*%
%TD*%
%TA.AperFunction,ViaPad*%
%ADD15C,0.800000*%
%TD*%
%TA.AperFunction,ViaPad*%
%ADD16C,0.600000*%
%TD*%
%TA.AperFunction,ViaPad*%
%ADD17C,1.200000*%
%TD*%
%TA.AperFunction,ViaPad*%
%ADD18C,0.900000*%
%TD*%
G04 APERTURE END LIST*
D10*
%TA.AperFunction,EtchedComponent*%
%TO.C,T1*%
G36*
X35021967Y82224517D02*
G01*
X35024996Y82224213D01*
X35028035Y82224213D01*
X35052878Y82221414D01*
X35077757Y82218917D01*
X35080727Y82218276D01*
X35083753Y82217936D01*
X35108157Y82212365D01*
X35132570Y82207105D01*
X35135449Y82206136D01*
X35138418Y82205459D01*
X35162022Y82197199D01*
X35185715Y82189231D01*
X35188472Y82187944D01*
X35191342Y82186940D01*
X35213842Y82176104D01*
X35236524Y82165519D01*
X35239123Y82163929D01*
X35241859Y82162612D01*
X35262994Y82149331D01*
X35284360Y82136266D01*
X35286764Y82134395D01*
X35289336Y82132780D01*
X35308849Y82117218D01*
X35328619Y82101842D01*
X35330799Y82099713D01*
X35333173Y82097821D01*
X35350827Y82080166D01*
X35368745Y82062679D01*
X35370672Y82060321D01*
X35372821Y82058173D01*
X35388378Y82038665D01*
X35404235Y82019270D01*
X35405889Y82016706D01*
X35407780Y82014336D01*
X35421054Y81993209D01*
X35434641Y81972159D01*
X35435995Y81969431D01*
X35437612Y81966859D01*
X35448451Y81944351D01*
X35459581Y81921941D01*
X35460620Y81919080D01*
X35461940Y81916342D01*
X35470189Y81892765D01*
X35478742Y81869246D01*
X35479455Y81866285D01*
X35480459Y81863418D01*
X35486017Y81839066D01*
X35491882Y81814737D01*
X35492259Y81811717D01*
X35492936Y81808753D01*
X35495732Y81783928D01*
X35498836Y81759099D01*
X35498872Y81756053D01*
X35499213Y81753035D01*
X35500000Y81725000D01*
X35500000Y80616394D01*
X35548614Y80615550D01*
X35548630Y80615549D01*
X36090211Y80606175D01*
X36090217Y80606174D01*
X36635993Y80596802D01*
X36635997Y80596803D01*
X37188883Y80587430D01*
X37188900Y80587431D01*
X37751938Y80578056D01*
X37751940Y80578055D01*
X38327885Y80568684D01*
X38327905Y80568683D01*
X38919998Y80559316D01*
X38920028Y80559317D01*
X39532930Y80549942D01*
X39532941Y80549941D01*
X40169726Y80540575D01*
X40169735Y80540576D01*
X40836541Y80531201D01*
X40836564Y80531199D01*
X41537651Y80521834D01*
X42280703Y80512464D01*
X42280705Y80512465D01*
X43073262Y80503094D01*
X43073269Y80503095D01*
X43925254Y80493720D01*
X43925263Y80493719D01*
X44847433Y80484349D01*
X45854651Y80474978D01*
X45882526Y80473936D01*
X45882600Y80473936D01*
X45882624Y80473932D01*
X45882678Y80473931D01*
X45910204Y80470569D01*
X45938258Y80467149D01*
X45938297Y80467139D01*
X45938335Y80467135D01*
X45962574Y80461364D01*
X45992807Y80454173D01*
X45992851Y80454157D01*
X45992881Y80454150D01*
X46017868Y80445144D01*
X46045559Y80435170D01*
X46045589Y80435154D01*
X46045631Y80435140D01*
X46073312Y80421490D01*
X46095851Y80410381D01*
X46095881Y80410361D01*
X46095919Y80410343D01*
X46120938Y80394295D01*
X46143053Y80380116D01*
X46143081Y80380092D01*
X46143117Y80380070D01*
X46165107Y80362196D01*
X46186569Y80344758D01*
X46186597Y80344728D01*
X46186627Y80344705D01*
X46206318Y80324643D01*
X46225852Y80304749D01*
X46225875Y80304719D01*
X46225904Y80304690D01*
X46244344Y80281119D01*
X46260409Y80260594D01*
X46260427Y80260563D01*
X46260454Y80260530D01*
X46276779Y80234003D01*
X46289805Y80212846D01*
X46289819Y80212815D01*
X46289843Y80212777D01*
X46303900Y80182878D01*
X46313670Y80162108D01*
X46313680Y80162078D01*
X46313700Y80162036D01*
X46323672Y80132662D01*
X46331704Y80109017D01*
X46331712Y80108980D01*
X46331725Y80108942D01*
X46337560Y80082234D01*
X46343681Y80054240D01*
X46343685Y80054198D01*
X46343693Y80054163D01*
X46346562Y80026369D01*
X46349448Y79998467D01*
X46349448Y79998418D01*
X46349452Y79998389D01*
X46349451Y79998299D01*
X46349978Y79970426D01*
X46340604Y78945795D01*
X46340596Y78945581D01*
X46340600Y78945363D01*
X46331225Y78008971D01*
X46331216Y78008748D01*
X46331220Y78008545D01*
X46321845Y77145617D01*
X46321837Y77145421D01*
X46321841Y77145200D01*
X46312466Y76343832D01*
X46312457Y76343628D01*
X46312461Y76343428D01*
X46303086Y75593890D01*
X46303078Y75593696D01*
X46303081Y75593502D01*
X46293706Y74887738D01*
X46293698Y74887554D01*
X46293701Y74887371D01*
X46284326Y74218620D01*
X46284318Y74218447D01*
X46284321Y74218277D01*
X46274946Y73580799D01*
X46274939Y73580636D01*
X46274941Y73580482D01*
X46265566Y72969333D01*
X46265560Y72969198D01*
X46265562Y72969047D01*
X46256187Y72379916D01*
X46256181Y72379791D01*
X46256183Y72379663D01*
X46246808Y71808743D01*
X46246802Y71808627D01*
X46246804Y71808524D01*
X46237429Y71252393D01*
X46237425Y71252304D01*
X46237426Y71252213D01*
X46228051Y70707759D01*
X46228047Y70707678D01*
X46228048Y70707617D01*
X46218673Y70171955D01*
X46218671Y70171918D01*
X46218672Y70171854D01*
X46209369Y69646388D01*
X46200000Y61999388D01*
X46190625Y54349191D01*
X46190503Y54345047D01*
X46190546Y54340907D01*
X46181172Y53814163D01*
X46171798Y53283265D01*
X46171799Y53283264D01*
X46162426Y52745549D01*
X46162427Y52745537D01*
X46153055Y52198166D01*
X46143683Y51638126D01*
X46143684Y51638121D01*
X46134313Y51062096D01*
X46124942Y50466428D01*
X46124943Y50466419D01*
X46115573Y49846955D01*
X46106203Y49198973D01*
X46096833Y48516994D01*
X46087463Y47794579D01*
X46078093Y47024069D01*
X46068722Y46196230D01*
X46068723Y46196226D01*
X46059348Y45299315D01*
X46049977Y44320216D01*
X46048927Y44292340D01*
X46048927Y44292272D01*
X46048924Y44292250D01*
X46048922Y44292190D01*
X46045174Y44261563D01*
X46042126Y44236615D01*
X46042117Y44236580D01*
X46042112Y44236534D01*
X46035547Y44208991D01*
X46029136Y44182070D01*
X46029120Y44182028D01*
X46029112Y44181991D01*
X46020085Y44156966D01*
X46010120Y44129322D01*
X46010101Y44129285D01*
X46010088Y44129247D01*
X45998801Y44106375D01*
X45985318Y44079036D01*
X45985292Y44078996D01*
X45985277Y44078965D01*
X45971774Y44057927D01*
X45955040Y44031842D01*
X45955013Y44031810D01*
X45954992Y44031776D01*
X45939381Y44012580D01*
X45919671Y43988336D01*
X45919639Y43988305D01*
X45919615Y43988275D01*
X45897430Y43966511D01*
X45879651Y43949063D01*
X45879626Y43949044D01*
X45879590Y43949008D01*
X45856092Y43930636D01*
X45835487Y43914517D01*
X45835448Y43914494D01*
X45835420Y43914471D01*
X45812790Y43900552D01*
X45787732Y43885133D01*
X45787695Y43885116D01*
X45787660Y43885094D01*
X45761165Y43872647D01*
X45736988Y43861282D01*
X45736951Y43861270D01*
X45736912Y43861251D01*
X45710229Y43852200D01*
X45683893Y43843261D01*
X45683850Y43843252D01*
X45683813Y43843239D01*
X45656887Y43837365D01*
X45629113Y43831299D01*
X45629072Y43831295D01*
X45629032Y43831286D01*
X45603387Y43828646D01*
X45573338Y43825546D01*
X45573273Y43825545D01*
X45573256Y43825543D01*
X45573203Y43825544D01*
X45545297Y43825023D01*
X44548762Y43834397D01*
X44548546Y43834406D01*
X44548318Y43834401D01*
X43637626Y43843776D01*
X43637401Y43843785D01*
X43637187Y43843781D01*
X42797969Y43853156D01*
X42797753Y43853165D01*
X42797539Y43853161D01*
X42018213Y43862536D01*
X42018007Y43862545D01*
X42017796Y43862541D01*
X41288900Y43871916D01*
X41288687Y43871925D01*
X41288501Y43871922D01*
X40602197Y43881297D01*
X40602013Y43881305D01*
X40601819Y43881302D01*
X39951532Y43890677D01*
X39951359Y43890685D01*
X39951179Y43890682D01*
X39331326Y43900057D01*
X39331163Y43900065D01*
X39331000Y43900062D01*
X38736773Y43909437D01*
X38736620Y43909444D01*
X38736478Y43909442D01*
X38163685Y43918817D01*
X38163560Y43918823D01*
X38163424Y43918821D01*
X37608361Y43928196D01*
X37608245Y43928202D01*
X37608136Y43928200D01*
X37067478Y43937575D01*
X37067389Y43937580D01*
X37067292Y43937578D01*
X36538011Y43946953D01*
X36537931Y43946957D01*
X36537865Y43946956D01*
X36017156Y43956331D01*
X36017101Y43956334D01*
X36017052Y43956333D01*
X35502275Y43965708D01*
X35502246Y43965710D01*
X35502214Y43965709D01*
X34990835Y43975084D01*
X34990833Y43975085D01*
X34990819Y43975084D01*
X34480361Y43984459D01*
X34480343Y43984460D01*
X33968480Y43993833D01*
X33968455Y43993832D01*
X33452396Y44003207D01*
X33452394Y44003208D01*
X32929805Y44012580D01*
X32929778Y44012582D01*
X32398087Y44021950D01*
X32398069Y44021949D01*
X31853649Y44031324D01*
X31853649Y44031325D01*
X31293932Y44040695D01*
X31293916Y44040696D01*
X30715406Y44050062D01*
X30113656Y44059431D01*
X30113632Y44059430D01*
X29483754Y44068805D01*
X29483746Y44068806D01*
X28821221Y44078175D01*
X28821212Y44078176D01*
X28119870Y44087540D01*
X28119855Y44087539D01*
X27370964Y44096914D01*
X27370963Y44096915D01*
X26567066Y44106282D01*
X25696523Y44115650D01*
X25696518Y44115649D01*
X24745075Y44125024D01*
X24717197Y44126082D01*
X24717135Y44126082D01*
X24717115Y44126085D01*
X24717049Y44126087D01*
X24686259Y44129864D01*
X24661481Y44132898D01*
X24661443Y44132908D01*
X24661395Y44132913D01*
X24633372Y44139601D01*
X24606939Y44145903D01*
X24606897Y44145919D01*
X24606856Y44145928D01*
X24580969Y44155274D01*
X24554197Y44164934D01*
X24554159Y44164954D01*
X24554117Y44164968D01*
X24528996Y44177373D01*
X24503918Y44189749D01*
X24503882Y44189773D01*
X24503842Y44189792D01*
X24479481Y44205437D01*
X24456732Y44220040D01*
X24456701Y44220066D01*
X24456661Y44220091D01*
X24435217Y44237541D01*
X24413235Y44255421D01*
X24413202Y44255456D01*
X24413171Y44255480D01*
X24394462Y44274563D01*
X24373973Y44295451D01*
X24373947Y44295485D01*
X24373915Y44295517D01*
X24356495Y44317809D01*
X24339440Y44339624D01*
X24339417Y44339662D01*
X24339390Y44339696D01*
X24324209Y44364394D01*
X24310069Y44387388D01*
X24310052Y44387425D01*
X24310027Y44387465D01*
X24297253Y44414674D01*
X24286231Y44438138D01*
X24286218Y44438177D01*
X24286198Y44438219D01*
X24276257Y44467555D01*
X24268225Y44491239D01*
X24268217Y44491276D01*
X24268201Y44491323D01*
X24262273Y44518533D01*
X24256277Y44546022D01*
X24256272Y44546072D01*
X24256264Y44546108D01*
X24253650Y44571563D01*
X24250540Y44601798D01*
X24250539Y44601857D01*
X24250536Y44601885D01*
X24250537Y44601970D01*
X24250024Y44629840D01*
X24259398Y45598278D01*
X24259407Y45598513D01*
X24259403Y45598735D01*
X24268778Y46483728D01*
X24268787Y46483954D01*
X24268783Y46484179D01*
X24278158Y47299689D01*
X24278167Y47299905D01*
X24278163Y47300130D01*
X24287538Y48057415D01*
X24287548Y48057639D01*
X24287544Y48057844D01*
X24296919Y48766101D01*
X24296928Y48766296D01*
X24296924Y48766512D01*
X24306299Y49433357D01*
X24306308Y49433559D01*
X24306305Y49433746D01*
X24315680Y50065569D01*
X24315689Y50065760D01*
X24315686Y50065933D01*
X24325061Y50668161D01*
X24325069Y50668323D01*
X24325066Y50668497D01*
X24334441Y51245800D01*
X24334448Y51245952D01*
X24334446Y51246105D01*
X24343821Y51802559D01*
X24343828Y51802701D01*
X24343826Y51802828D01*
X24353201Y52342033D01*
X24353207Y52342148D01*
X24353205Y52342265D01*
X24362580Y52867450D01*
X24362585Y52867538D01*
X24362583Y52867642D01*
X24371958Y53381751D01*
X24371962Y53381831D01*
X24371961Y53381902D01*
X24381336Y53887658D01*
X24381339Y53887712D01*
X24381338Y53887765D01*
X24390713Y54387733D01*
X24390715Y54387762D01*
X24390714Y54387796D01*
X24400003Y54879875D01*
X24409375Y69621038D01*
X24409506Y69625595D01*
X24409464Y69630146D01*
X24418838Y70127246D01*
X24418837Y70127269D01*
X24428212Y70628374D01*
X24428213Y70628380D01*
X24437585Y71135790D01*
X24446957Y71652248D01*
X24446959Y71652270D01*
X24456325Y72180337D01*
X24456324Y72180360D01*
X24465699Y72723978D01*
X24465701Y72724003D01*
X24475065Y73285484D01*
X24475064Y73285508D01*
X24484439Y73870055D01*
X24484440Y73870068D01*
X24493809Y74481118D01*
X24503178Y75124180D01*
X24512547Y75805311D01*
X24512548Y75805328D01*
X24521911Y76531284D01*
X24531286Y77312143D01*
X24531287Y77312145D01*
X24540656Y78157195D01*
X24550026Y79080076D01*
X24551091Y79107921D01*
X24551091Y79108009D01*
X24551095Y79108038D01*
X24551097Y79108101D01*
X24554354Y79134589D01*
X24557923Y79163662D01*
X24557935Y79163712D01*
X24557940Y79163753D01*
X24565445Y79195163D01*
X24570945Y79218199D01*
X24570959Y79218237D01*
X24570971Y79218288D01*
X24581529Y79247505D01*
X24589990Y79270936D01*
X24590009Y79270973D01*
X24590026Y79271022D01*
X24604057Y79299413D01*
X24614821Y79321208D01*
X24614843Y79321241D01*
X24614866Y79321289D01*
X24630993Y79346383D01*
X24645124Y79368385D01*
X24645154Y79368420D01*
X24645179Y79368461D01*
X24663149Y79390529D01*
X24680519Y79411872D01*
X24680552Y79411904D01*
X24680581Y79411940D01*
X24701450Y79432389D01*
X24720560Y79451123D01*
X24720594Y79451149D01*
X24720629Y79451184D01*
X24743893Y79469352D01*
X24764743Y79485643D01*
X24764782Y79485666D01*
X24764819Y79485696D01*
X24789737Y79501001D01*
X24812515Y79515000D01*
X24812555Y79515018D01*
X24812596Y79515044D01*
X24840362Y79528070D01*
X24863272Y79538823D01*
X24863314Y79538836D01*
X24863358Y79538858D01*
X24891635Y79548431D01*
X24916378Y79556814D01*
X24916421Y79556823D01*
X24916467Y79556839D01*
X24945965Y79563257D01*
X24971165Y79568745D01*
X24971207Y79568749D01*
X24971256Y79568760D01*
X24999716Y79571673D01*
X25026943Y79574467D01*
X25027008Y79574468D01*
X25027035Y79574471D01*
X25027118Y79574470D01*
X25054984Y79574974D01*
X25995327Y79565600D01*
X25995564Y79565590D01*
X25995798Y79565595D01*
X26855089Y79556220D01*
X26855317Y79556211D01*
X26855554Y79556215D01*
X27647355Y79546840D01*
X27647590Y79546830D01*
X27647811Y79546834D01*
X28383055Y79537459D01*
X28383261Y79537450D01*
X28383496Y79537454D01*
X29071112Y79528079D01*
X29071325Y79528070D01*
X29071536Y79528073D01*
X29718921Y79518698D01*
X29719123Y79518689D01*
X29719322Y79518692D01*
X30332681Y79509317D01*
X30332871Y79509308D01*
X30333056Y79509311D01*
X30917659Y79499936D01*
X30917839Y79499928D01*
X30918006Y79499930D01*
X31478386Y79490555D01*
X31478537Y79490548D01*
X31478700Y79490550D01*
X32018817Y79481175D01*
X32018958Y79481168D01*
X32019095Y79481170D01*
X32542442Y79471795D01*
X32542574Y79471788D01*
X32542682Y79471790D01*
X33052395Y79462415D01*
X33052482Y79462410D01*
X33052593Y79462412D01*
X33551529Y79453037D01*
X33551608Y79453033D01*
X33551685Y79453034D01*
X34042487Y79443659D01*
X34042541Y79443656D01*
X34042598Y79443657D01*
X34527757Y79434282D01*
X34527803Y79434279D01*
X34527822Y79434280D01*
X35009725Y79424905D01*
X35009727Y79424904D01*
X35009744Y79424905D01*
X35490680Y79415530D01*
X35490697Y79415531D01*
X35973084Y79406156D01*
X35973099Y79406155D01*
X36459160Y79396782D01*
X36459170Y79396781D01*
X36951203Y79387412D01*
X36951233Y79387413D01*
X37452382Y79378038D01*
X37452412Y79378036D01*
X37964609Y79368670D01*
X37964623Y79368671D01*
X38491903Y79359296D01*
X38491903Y79359295D01*
X39036481Y79349931D01*
X39036493Y79349932D01*
X39603078Y79340562D01*
X40195880Y79331189D01*
X40819526Y79321820D01*
X41479919Y79312452D01*
X42184105Y79303085D01*
X42941128Y79293712D01*
X42941142Y79293711D01*
X43759966Y79284347D01*
X43759983Y79284348D01*
X44655235Y79274972D01*
X44683083Y79273897D01*
X44683162Y79273897D01*
X44683188Y79273893D01*
X44683260Y79273891D01*
X44713583Y79270153D01*
X44738813Y79267048D01*
X44738856Y79267037D01*
X44738910Y79267031D01*
X44767721Y79260136D01*
X44793347Y79254010D01*
X44793392Y79253993D01*
X44793441Y79253982D01*
X44821892Y79243690D01*
X44846077Y79234948D01*
X44846115Y79234929D01*
X44846168Y79234910D01*
X44872207Y79222032D01*
X44896342Y79210103D01*
X44896385Y79210074D01*
X44896428Y79210054D01*
X44919585Y79195163D01*
X44943510Y79179784D01*
X44943546Y79179754D01*
X44943589Y79179727D01*
X44965020Y79162265D01*
X44986985Y79144377D01*
X44987021Y79144339D01*
X44987058Y79144310D01*
X45006500Y79124456D01*
X45026224Y79104323D01*
X45026253Y79104285D01*
X45026289Y79104249D01*
X45044787Y79080547D01*
X45060730Y79060130D01*
X45060752Y79060092D01*
X45060787Y79060049D01*
X45076341Y79034708D01*
X45090073Y79012349D01*
X45090093Y79012304D01*
X45090120Y79012262D01*
X45101575Y78987822D01*
X45113881Y78961584D01*
X45113898Y78961532D01*
X45113917Y78961493D01*
X45122150Y78937150D01*
X45131855Y78908473D01*
X45131866Y78908422D01*
X45131881Y78908378D01*
X45137441Y78882785D01*
X45143770Y78853682D01*
X45143775Y78853629D01*
X45143785Y78853585D01*
X45146366Y78828291D01*
X45149474Y78797903D01*
X45149475Y78797830D01*
X45149478Y78797804D01*
X45149477Y78797724D01*
X45149973Y78769861D01*
X45140599Y77857615D01*
X45140589Y77857358D01*
X45140593Y77857130D01*
X45131218Y77023539D01*
X45131209Y77023310D01*
X45131213Y77023059D01*
X45121838Y76254966D01*
X45121828Y76254730D01*
X45121832Y76254496D01*
X45112457Y75541295D01*
X45112447Y75541071D01*
X45112451Y75540840D01*
X45103076Y74873864D01*
X45103066Y74873633D01*
X45103069Y74873427D01*
X45093694Y74245502D01*
X45093685Y74245301D01*
X45093688Y74245088D01*
X45084313Y73650192D01*
X45084304Y73650003D01*
X45084307Y73649805D01*
X45074932Y73082828D01*
X45074924Y73082649D01*
X45074926Y73082470D01*
X45065551Y72539011D01*
X45065543Y72538843D01*
X45065545Y72538687D01*
X45056170Y72014908D01*
X45056163Y72014768D01*
X45056165Y72014621D01*
X45046790Y71507132D01*
X45046783Y71507001D01*
X45046785Y71506885D01*
X45037410Y71012643D01*
X45037405Y71012539D01*
X45037406Y71012438D01*
X45028031Y70528675D01*
X45028027Y70528597D01*
X45028028Y70528514D01*
X45018653Y70052666D01*
X45018650Y70052613D01*
X45018651Y70052551D01*
X45009276Y69582201D01*
X45009273Y69582155D01*
X45009274Y69582133D01*
X44999996Y69119847D01*
X44990625Y54408437D01*
X44990485Y54403596D01*
X44990525Y54398733D01*
X44981150Y53931156D01*
X44981149Y53931138D01*
X44971778Y53460179D01*
X44971779Y53460160D01*
X44962407Y52983142D01*
X44953036Y52497683D01*
X44943665Y52001101D01*
X44943666Y52001097D01*
X44934291Y51490154D01*
X44924927Y50962506D01*
X44915558Y50413583D01*
X44906189Y49839516D01*
X44906190Y49839502D01*
X44896815Y49234977D01*
X44887452Y48595621D01*
X44887453Y48595609D01*
X44878078Y47912844D01*
X44868715Y47180363D01*
X44859345Y46386757D01*
X44859346Y46386752D01*
X44849971Y45519596D01*
X44848889Y45491780D01*
X44848888Y45491675D01*
X44848883Y45491641D01*
X44848881Y45491571D01*
X44845570Y45464795D01*
X44842021Y45436027D01*
X44842008Y45435973D01*
X44842002Y45435924D01*
X44835689Y45409583D01*
X44828965Y45381497D01*
X44828947Y45381448D01*
X44828935Y45381397D01*
X44820153Y45357146D01*
X44809886Y45328772D01*
X44809858Y45328718D01*
X44809844Y45328676D01*
X44798893Y45306552D01*
X44785024Y45278516D01*
X44784993Y45278470D01*
X44784972Y45278425D01*
X44771298Y45257179D01*
X44754690Y45231358D01*
X44754652Y45231312D01*
X44754628Y45231274D01*
X44739403Y45212600D01*
X44719268Y45187894D01*
X44719227Y45187855D01*
X44719197Y45187817D01*
X44700237Y45169264D01*
X44679202Y45148669D01*
X44679160Y45148637D01*
X44679123Y45148600D01*
X44658087Y45132194D01*
X44634997Y45114176D01*
X44634948Y45114147D01*
X44634911Y45114117D01*
X44613160Y45100777D01*
X44587206Y45084849D01*
X44587154Y45084825D01*
X44587114Y45084800D01*
X44562882Y45073452D01*
X44536434Y45061058D01*
X44536384Y45061042D01*
X44536337Y45061019D01*
X44509632Y45051998D01*
X44483317Y45043102D01*
X44483266Y45043091D01*
X44483216Y45043074D01*
X44454665Y45036882D01*
X44428523Y45031205D01*
X44428474Y45031201D01*
X44428419Y45031188D01*
X44398673Y45028163D01*
X44372741Y45025519D01*
X44372674Y45025518D01*
X44372637Y45025514D01*
X44372524Y45025516D01*
X44344699Y45025029D01*
X43460548Y45034403D01*
X43460289Y45034413D01*
X43460047Y45034409D01*
X42652156Y45043784D01*
X42651908Y45043794D01*
X42651661Y45043790D01*
X41907276Y45053166D01*
X41907040Y45053176D01*
X41906793Y45053172D01*
X41215632Y45062546D01*
X41215389Y45062557D01*
X41215161Y45062553D01*
X40568826Y45071928D01*
X40568614Y45071938D01*
X40568375Y45071934D01*
X39959909Y45081309D01*
X39959691Y45081319D01*
X39959481Y45081316D01*
X39383051Y45090691D01*
X39382844Y45090701D01*
X39382650Y45090698D01*
X38833298Y45100074D01*
X38833121Y45100082D01*
X38832929Y45100080D01*
X38306393Y45109454D01*
X38306226Y45109462D01*
X38306057Y45109460D01*
X37798616Y45118835D01*
X37798459Y45118843D01*
X37798319Y45118841D01*
X37306688Y45128216D01*
X37306559Y45128223D01*
X37306432Y45128221D01*
X36827663Y45137596D01*
X36827560Y45137601D01*
X36827450Y45137600D01*
X36358860Y45146976D01*
X36358783Y45146980D01*
X36358695Y45146979D01*
X35897800Y45156353D01*
X35897730Y45156357D01*
X35897679Y45156356D01*
X35442139Y45165731D01*
X35442111Y45165733D01*
X35442068Y45165732D01*
X34989641Y45175107D01*
X34989621Y45175109D01*
X34989620Y45175108D01*
X34538157Y45184483D01*
X34538142Y45184482D01*
X34085374Y45193858D01*
X34085351Y45193860D01*
X33629351Y45203229D01*
X33629337Y45203228D01*
X33167514Y45212600D01*
X33167498Y45212599D01*
X32697295Y45221974D01*
X32697283Y45221975D01*
X32216530Y45231345D01*
X32216528Y45231346D01*
X31722508Y45240711D01*
X31722505Y45240710D01*
X31211138Y45250084D01*
X31211133Y45250085D01*
X30680209Y45259447D01*
X30680202Y45259446D01*
X30124540Y45268815D01*
X29539814Y45278185D01*
X28920699Y45287553D01*
X28260111Y45296925D01*
X28260096Y45296926D01*
X27551382Y45306288D01*
X27551370Y45306287D01*
X26783223Y45315659D01*
X25944413Y45325032D01*
X25916594Y45326124D01*
X25916500Y45326125D01*
X25916469Y45326129D01*
X25916389Y45326132D01*
X25887821Y45329675D01*
X25860854Y45333012D01*
X25860800Y45333026D01*
X25860744Y45333032D01*
X25833406Y45339595D01*
X25806329Y45346087D01*
X25806278Y45346106D01*
X25806222Y45346119D01*
X25779724Y45355725D01*
X25753611Y45365184D01*
X25753561Y45365209D01*
X25753508Y45365228D01*
X25728336Y45377700D01*
X25703363Y45390064D01*
X25703317Y45390095D01*
X25703266Y45390119D01*
X25679083Y45405695D01*
X25656216Y45420414D01*
X25656175Y45420448D01*
X25656126Y45420479D01*
X25633298Y45439105D01*
X25612764Y45455851D01*
X25612725Y45455892D01*
X25612682Y45455926D01*
X25593690Y45475349D01*
X25573553Y45495931D01*
X25573518Y45495978D01*
X25573480Y45496015D01*
X25556750Y45517482D01*
X25539076Y45540148D01*
X25539047Y45540196D01*
X25539013Y45540239D01*
X25524249Y45564330D01*
X25509766Y45587949D01*
X25509744Y45587998D01*
X25509713Y45588047D01*
X25498291Y45612460D01*
X25485992Y45638729D01*
X25485973Y45638788D01*
X25485951Y45638833D01*
X25477172Y45664851D01*
X25468054Y45691853D01*
X25468044Y45691904D01*
X25468024Y45691960D01*
X25462108Y45719287D01*
X25456176Y45746651D01*
X25456170Y45746711D01*
X25456159Y45746761D01*
X25453460Y45773399D01*
X25450510Y45802434D01*
X25450509Y45802510D01*
X25450505Y45802546D01*
X25450507Y45802656D01*
X25450030Y45830476D01*
X25459405Y46686531D01*
X25459416Y46686791D01*
X25459411Y46687048D01*
X25468786Y47469237D01*
X25468796Y47469486D01*
X25468792Y47469749D01*
X25478167Y48190426D01*
X25478178Y48190681D01*
X25478174Y48190927D01*
X25487549Y48860046D01*
X25487560Y48860289D01*
X25487556Y48860532D01*
X25496931Y49486226D01*
X25496941Y49486456D01*
X25496938Y49486692D01*
X25506313Y50075699D01*
X25506324Y50075934D01*
X25506321Y50076141D01*
X25515696Y50634108D01*
X25515706Y50634313D01*
X25515703Y50634522D01*
X25525078Y51166249D01*
X25525087Y51166443D01*
X25525085Y51166631D01*
X25534460Y51676245D01*
X25534468Y51676410D01*
X25534466Y51676592D01*
X25543841Y52167695D01*
X25543849Y52167850D01*
X25543847Y52168002D01*
X25553222Y52643775D01*
X25553229Y52643903D01*
X25553227Y52644041D01*
X25562602Y53107337D01*
X25562608Y53107456D01*
X25562607Y53107557D01*
X25571982Y53560974D01*
X25571986Y53561050D01*
X25571985Y53561147D01*
X25581360Y54007090D01*
X25581364Y54007159D01*
X25581363Y54007213D01*
X25590738Y54447945D01*
X25590741Y54447990D01*
X25590740Y54448018D01*
X25600004Y54880493D01*
X25609375Y69562087D01*
X25609525Y69567288D01*
X25609490Y69572469D01*
X25618865Y70010426D01*
X25628238Y70451638D01*
X25637610Y70898348D01*
X25646981Y71352898D01*
X25646983Y71352920D01*
X25656346Y71817521D01*
X25665721Y72295788D01*
X25665722Y72295790D01*
X25675090Y72789913D01*
X25684458Y73303597D01*
X25693826Y73840757D01*
X25693827Y73840763D01*
X25703186Y74405468D01*
X25712561Y75004444D01*
X25712562Y75004448D01*
X25721929Y75642640D01*
X25731297Y76328159D01*
X25740658Y77069814D01*
X25750033Y77880779D01*
X25751135Y77908568D01*
X25751136Y77908684D01*
X25751141Y77908722D01*
X25751144Y77908803D01*
X25754683Y77937251D01*
X25758044Y77964327D01*
X25758058Y77964382D01*
X25758065Y77964444D01*
X25764850Y77992662D01*
X25771139Y78018847D01*
X25771159Y78018900D01*
X25771173Y78018961D01*
X25780897Y78045751D01*
X25790256Y78071558D01*
X25790283Y78071611D01*
X25790303Y78071668D01*
X25803272Y78097821D01*
X25815154Y78121797D01*
X25815189Y78121850D01*
X25815213Y78121900D01*
X25829941Y78144749D01*
X25845522Y78168933D01*
X25845561Y78168980D01*
X25845592Y78169029D01*
X25863513Y78190975D01*
X25880975Y78212371D01*
X25881016Y78212410D01*
X25881055Y78212459D01*
X25900908Y78231857D01*
X25921069Y78251568D01*
X25921120Y78251607D01*
X25921159Y78251646D01*
X25942635Y78268369D01*
X25965299Y78286028D01*
X25965350Y78286058D01*
X25965397Y78286096D01*
X25988761Y78300402D01*
X26013111Y78315321D01*
X26013169Y78315347D01*
X26013216Y78315377D01*
X26036852Y78326424D01*
X26063900Y78339076D01*
X26063961Y78339096D01*
X26064011Y78339120D01*
X26090144Y78347926D01*
X26117030Y78356994D01*
X26117086Y78357006D01*
X26117145Y78357026D01*
X26143771Y78362780D01*
X26171833Y78368852D01*
X26171899Y78368858D01*
X26171951Y78368870D01*
X26199654Y78371667D01*
X26227618Y78374497D01*
X26227691Y78374498D01*
X26227738Y78374503D01*
X26227879Y78374501D01*
X26255661Y78374967D01*
X27083620Y78365593D01*
X27083882Y78365582D01*
X27084156Y78365587D01*
X27840645Y78356212D01*
X27840913Y78356201D01*
X27841174Y78356205D01*
X28538142Y78346830D01*
X28538397Y78346819D01*
X28538660Y78346823D01*
X29185737Y78337448D01*
X29185997Y78337436D01*
X29186240Y78337440D01*
X29791295Y78328065D01*
X29791542Y78328054D01*
X29791777Y78328057D01*
X30361323Y78318682D01*
X30361539Y78318672D01*
X30361781Y78318675D01*
X30901284Y78309300D01*
X30901505Y78309289D01*
X30901713Y78309292D01*
X31415814Y78299917D01*
X31416006Y78299908D01*
X31416210Y78299910D01*
X31908902Y78290535D01*
X31909083Y78290526D01*
X31909261Y78290528D01*
X32384028Y78281153D01*
X32384198Y78281144D01*
X32384346Y78281146D01*
X32844261Y78271771D01*
X32844405Y78271764D01*
X32844536Y78271765D01*
X33292360Y78262390D01*
X33292460Y78262385D01*
X33292589Y78262386D01*
X33730832Y78253011D01*
X33730925Y78253006D01*
X33731013Y78253007D01*
X34162002Y78243632D01*
X34162070Y78243628D01*
X34162131Y78243629D01*
X34588052Y78234254D01*
X34588096Y78234251D01*
X34588129Y78234252D01*
X35011080Y78224877D01*
X35024290Y78224213D01*
X35028035Y78224213D01*
X35031052Y78223873D01*
X35039091Y78223469D01*
X35061380Y78220456D01*
X35083753Y78217936D01*
X35089160Y78216701D01*
X35094656Y78215959D01*
X35116486Y78210464D01*
X35138418Y78205459D01*
X35143649Y78203628D01*
X35149031Y78202274D01*
X35170105Y78194370D01*
X35191342Y78186940D01*
X35196340Y78184532D01*
X35201532Y78182586D01*
X35221582Y78172376D01*
X35241859Y78162612D01*
X35246554Y78159661D01*
X35251497Y78157145D01*
X35270286Y78144749D01*
X35289336Y78132780D01*
X35293670Y78129323D01*
X35298302Y78126268D01*
X35315583Y78111848D01*
X35333173Y78097821D01*
X35337095Y78093898D01*
X35341353Y78090346D01*
X35356905Y78074088D01*
X35372821Y78058173D01*
X35376279Y78053836D01*
X35380113Y78049829D01*
X35393750Y78031928D01*
X35407780Y78014336D01*
X35410730Y78009640D01*
X35414092Y78005228D01*
X35425638Y77985915D01*
X35437612Y77966859D01*
X35440019Y77961860D01*
X35442864Y77957102D01*
X35452173Y77936621D01*
X35461940Y77916342D01*
X35463771Y77911107D01*
X35466067Y77906058D01*
X35473031Y77884644D01*
X35480459Y77863418D01*
X35481691Y77858016D01*
X35483409Y77852737D01*
X35487932Y77830675D01*
X35492936Y77808753D01*
X35493556Y77803244D01*
X35494671Y77797809D01*
X35496695Y77775381D01*
X35499213Y77753035D01*
X35499438Y77744991D01*
X35499712Y77741965D01*
X35499628Y77738218D01*
X35500000Y77725000D01*
X35500000Y76524999D01*
X35499213Y76496964D01*
X35492936Y76441246D01*
X35480459Y76386581D01*
X35461940Y76333657D01*
X35437612Y76283140D01*
X35407780Y76235663D01*
X35372821Y76191826D01*
X35333173Y76152178D01*
X35289336Y76117219D01*
X35241859Y76087387D01*
X35191342Y76063059D01*
X35138418Y76044540D01*
X35083753Y76032063D01*
X35028035Y76025786D01*
X35000000Y76024999D01*
X34971965Y76025786D01*
X34916247Y76032063D01*
X34861582Y76044540D01*
X34808658Y76063059D01*
X34758141Y76087387D01*
X34710664Y76117219D01*
X34666827Y76152178D01*
X34627179Y76191826D01*
X34592220Y76235663D01*
X34562388Y76283140D01*
X34538060Y76333657D01*
X34519541Y76386581D01*
X34507064Y76441246D01*
X34500787Y76496964D01*
X34500000Y76524999D01*
X34500000Y77235949D01*
X34140260Y77243868D01*
X34140254Y77243868D01*
X33709448Y77253239D01*
X33709445Y77253239D01*
X33271201Y77262614D01*
X33271174Y77262615D01*
X32823890Y77271979D01*
X32823881Y77271979D01*
X32364303Y77281347D01*
X32364285Y77281347D01*
X31889781Y77290716D01*
X31397186Y77300090D01*
X31397179Y77300090D01*
X30883916Y77309450D01*
X30883909Y77309450D01*
X30344407Y77318825D01*
X30344389Y77318825D01*
X29775804Y77328185D01*
X29775802Y77328185D01*
X29171259Y77337552D01*
X29171251Y77337552D01*
X28524206Y77346926D01*
X27828144Y77356289D01*
X27071764Y77365663D01*
X27071763Y77365663D01*
X26744189Y77369371D01*
X26740592Y77058254D01*
X26740582Y77057978D01*
X26740585Y77057723D01*
X26731210Y76315016D01*
X26731200Y76314752D01*
X26731203Y76314495D01*
X26721828Y75628469D01*
X26721818Y75628219D01*
X26721821Y75627963D01*
X26712446Y74989280D01*
X26712436Y74989043D01*
X26712439Y74988794D01*
X26703064Y74389818D01*
X26703054Y74389577D01*
X26703056Y74389357D01*
X26693681Y73823752D01*
X26693672Y73823542D01*
X26693674Y73823320D01*
X26684299Y73285761D01*
X26684291Y73285563D01*
X26684292Y73285362D01*
X26674917Y72771317D01*
X26674909Y72771131D01*
X26674910Y72770956D01*
X26665535Y72276510D01*
X26665528Y72276353D01*
X26665529Y72276190D01*
X26656154Y71797923D01*
X26656147Y71797775D01*
X26656148Y71797646D01*
X26646773Y71332516D01*
X26646769Y71332413D01*
X26646769Y71332286D01*
X26637394Y70877554D01*
X26637390Y70877459D01*
X26637390Y70877372D01*
X26628015Y70430530D01*
X26628012Y70430460D01*
X26628012Y70430399D01*
X26618637Y69989106D01*
X26618635Y69989060D01*
X26618635Y69989025D01*
X26609372Y69556285D01*
X26600000Y54874681D01*
X26599851Y54869479D01*
X26599885Y54864292D01*
X26590512Y54426693D01*
X26590512Y54426678D01*
X26581140Y53986084D01*
X26581140Y53986071D01*
X26571765Y53540129D01*
X26571765Y53540109D01*
X26562398Y53087122D01*
X26562398Y53087106D01*
X26553028Y52624074D01*
X26543659Y52148608D01*
X26534284Y51657506D01*
X26524922Y51148620D01*
X26515554Y50617308D01*
X26506187Y50059804D01*
X26506187Y50059784D01*
X26496819Y49471244D01*
X26487451Y48846037D01*
X26478084Y48177418D01*
X26478083Y48177418D01*
X26468708Y47456741D01*
X26459345Y46675580D01*
X26455445Y46319385D01*
X26794648Y46315594D01*
X26794905Y46315584D01*
X26795162Y46315588D01*
X27563570Y46306213D01*
X27563833Y46306203D01*
X27564074Y46306206D01*
X28273808Y46296831D01*
X28274040Y46296822D01*
X28274297Y46296825D01*
X28935020Y46287451D01*
X28935258Y46287441D01*
X28935492Y46287444D01*
X29555108Y46278068D01*
X29555332Y46278059D01*
X29555554Y46278061D01*
X30140619Y46268686D01*
X30140831Y46268677D01*
X30141037Y46268679D01*
X30697060Y46259304D01*
X30697259Y46259296D01*
X30697446Y46259297D01*
X31229118Y46249922D01*
X31229288Y46249915D01*
X31229466Y46249916D01*
X31740833Y46240542D01*
X31740993Y46240535D01*
X31741146Y46240536D01*
X32235751Y46231160D01*
X32235883Y46231154D01*
X32236018Y46231155D01*
X32717005Y46221780D01*
X32717110Y46221776D01*
X32717229Y46221776D01*
X33187433Y46212401D01*
X33187530Y46212397D01*
X33187610Y46212397D01*
X33649625Y46203022D01*
X33649696Y46203019D01*
X33649752Y46203019D01*
X34105997Y46193646D01*
X34106044Y46193644D01*
X34106078Y46193644D01*
X34558846Y46184268D01*
X34558868Y46184267D01*
X34558874Y46184267D01*
X35010338Y46174893D01*
X35010359Y46174893D01*
X35462785Y46165518D01*
X35462800Y46165518D01*
X35918115Y46156147D01*
X35918134Y46156147D01*
X36379030Y46146773D01*
X36379039Y46146773D01*
X36847455Y46137400D01*
X36847461Y46137400D01*
X37325779Y46128034D01*
X37817075Y46118665D01*
X37817088Y46118665D01*
X38324501Y46109291D01*
X38850730Y46099922D01*
X38850739Y46099922D01*
X39399307Y46090559D01*
X39399313Y46090559D01*
X39975313Y46081191D01*
X39975315Y46081191D01*
X40583781Y46071816D01*
X40583799Y46071816D01*
X41229188Y46062454D01*
X41229194Y46062454D01*
X41920354Y46053080D01*
X41920357Y46053080D01*
X42663996Y46043714D01*
X43471143Y46034347D01*
X43471150Y46034347D01*
X43855433Y46030273D01*
X43859404Y46397563D01*
X43859413Y46397819D01*
X43859410Y46398059D01*
X43868785Y47192168D01*
X43868794Y47192413D01*
X43868791Y47192657D01*
X43878166Y47926100D01*
X43878175Y47926332D01*
X43878172Y47926574D01*
X43887547Y48609338D01*
X43887556Y48609576D01*
X43887554Y48609795D01*
X43896929Y49250051D01*
X43896937Y49250258D01*
X43896935Y49250483D01*
X43906310Y49855008D01*
X43906319Y49855221D01*
X43906317Y49855413D01*
X43915692Y50429900D01*
X43915700Y50430083D01*
X43915698Y50430274D01*
X43925073Y50979570D01*
X43925080Y50979742D01*
X43925079Y50979910D01*
X43934454Y51508198D01*
X43934460Y51508341D01*
X43934459Y51508500D01*
X43943834Y52019443D01*
X43943840Y52019576D01*
X43943839Y52019703D01*
X43953214Y52516548D01*
X43953218Y52516655D01*
X43953218Y52516766D01*
X43962593Y53002441D01*
X43962596Y53002521D01*
X43962596Y53002613D01*
X43971971Y53479802D01*
X43971974Y53479874D01*
X43971974Y53479927D01*
X43981349Y53951125D01*
X43981350Y53951154D01*
X43981350Y53951202D01*
X43990628Y54413947D01*
X44000000Y69125319D01*
X44000139Y69130184D01*
X44000101Y69135032D01*
X44009474Y69602106D01*
X44009474Y69602129D01*
X44018849Y70072479D01*
X44018849Y70072488D01*
X44028222Y70548212D01*
X44028222Y70548216D01*
X44037594Y71031814D01*
X44046965Y71525850D01*
X44056335Y72033091D01*
X44056335Y72033095D01*
X44065705Y72556583D01*
X44075074Y73099718D01*
X44084443Y73666338D01*
X44084443Y73666341D01*
X44093812Y74260845D01*
X44093812Y74260851D01*
X44103174Y74887918D01*
X44112549Y75554894D01*
X44121918Y76267640D01*
X44131287Y77035264D01*
X44131287Y77035277D01*
X44140651Y77867872D01*
X44140651Y77867891D01*
X44144888Y78280261D01*
X43749511Y78284402D01*
X43749257Y78284411D01*
X43749030Y78284408D01*
X42929221Y78293783D01*
X42928995Y78293791D01*
X42928747Y78293788D01*
X42171596Y78303163D01*
X42171364Y78303172D01*
X42171135Y78303169D01*
X41466330Y78312544D01*
X41466110Y78312553D01*
X41465888Y78312550D01*
X40804991Y78321925D01*
X40804783Y78321933D01*
X40804571Y78321931D01*
X40180587Y78331306D01*
X40180391Y78331314D01*
X40180193Y78331312D01*
X39587244Y78340687D01*
X39587060Y78340695D01*
X39586881Y78340693D01*
X39019959Y78350068D01*
X39019786Y78350075D01*
X39019630Y78350074D01*
X38474419Y78359449D01*
X38474274Y78359455D01*
X38474126Y78359454D01*
X37946845Y78368829D01*
X37946710Y78368835D01*
X37946593Y78368834D01*
X37433889Y78378209D01*
X37433799Y78378213D01*
X37433678Y78378212D01*
X36932529Y78387587D01*
X36932430Y78387591D01*
X36932362Y78387591D01*
X36440001Y78396966D01*
X36439946Y78396968D01*
X36439879Y78396968D01*
X35953729Y78406343D01*
X35953699Y78406344D01*
X35953653Y78406344D01*
X35471267Y78415719D01*
X35471244Y78415720D01*
X35471238Y78415720D01*
X34990256Y78425095D01*
X34990243Y78425095D01*
X34508464Y78434468D01*
X34508437Y78434468D01*
X34023278Y78443843D01*
X34023274Y78443843D01*
X33532744Y78453213D01*
X33532743Y78453213D01*
X33033807Y78462588D01*
X33033785Y78462589D01*
X32524553Y78471955D01*
X32524532Y78471955D01*
X32001464Y78481325D01*
X32001462Y78481325D01*
X31461346Y78490700D01*
X31461338Y78490700D01*
X30901632Y78500064D01*
X30901625Y78500064D01*
X30317359Y78509433D01*
X29704280Y78518804D01*
X29057315Y78528173D01*
X28369864Y78537546D01*
X28369843Y78537546D01*
X27635523Y78546910D01*
X27635516Y78546910D01*
X26843714Y78556285D01*
X26843712Y78556285D01*
X25985212Y78565651D01*
X25544899Y78570040D01*
X25540599Y78146575D01*
X25540591Y78146340D01*
X25540594Y78146107D01*
X25531219Y77300597D01*
X25531211Y77300373D01*
X25531214Y77300138D01*
X25521839Y76519278D01*
X25521830Y76519047D01*
X25521833Y76518832D01*
X25512458Y75791985D01*
X25512450Y75791783D01*
X25512453Y75791556D01*
X25503078Y75110019D01*
X25503070Y75109811D01*
X25503072Y75109611D01*
X25493697Y74466168D01*
X25493689Y74465971D01*
X25493691Y74465786D01*
X25484316Y73854371D01*
X25484309Y73854204D01*
X25484311Y73854019D01*
X25474936Y73269472D01*
X25474929Y73269298D01*
X25474930Y73269152D01*
X25465555Y72707018D01*
X25465550Y72706890D01*
X25465551Y72706735D01*
X25456176Y72163116D01*
X25456170Y72162980D01*
X25456171Y72162871D01*
X25446796Y71634309D01*
X25446792Y71634218D01*
X25446793Y71634104D01*
X25437418Y71117483D01*
X25437415Y71117401D01*
X25437415Y71117321D01*
X25428040Y70609787D01*
X25428038Y70609731D01*
X25428038Y70609669D01*
X25418663Y70108563D01*
X25418661Y70108515D01*
X25418661Y70108489D01*
X25409373Y69615860D01*
X25400000Y54874682D01*
X25399870Y54870123D01*
X25399911Y54865563D01*
X25390537Y54368985D01*
X25381165Y53869124D01*
X25381164Y53869124D01*
X25371792Y53363526D01*
X25371792Y53363518D01*
X25362417Y52849410D01*
X25353049Y52324648D01*
X25343679Y51785725D01*
X25343679Y51785713D01*
X25334309Y51229563D01*
X25324939Y50652595D01*
X25315570Y50050744D01*
X25315570Y50050732D01*
X25306201Y49419307D01*
X25306201Y49419299D01*
X25296826Y48752454D01*
X25287462Y48045049D01*
X25287462Y48045037D01*
X25278092Y47288194D01*
X25268722Y46473135D01*
X25259352Y45588605D01*
X25259352Y45588599D01*
X25254817Y45120051D01*
X25706371Y45115601D01*
X25706604Y45115593D01*
X25706825Y45115596D01*
X26578035Y45106221D01*
X26578258Y45106213D01*
X26578481Y45106216D01*
X27383049Y45096841D01*
X27383262Y45096833D01*
X27383482Y45096836D01*
X28132372Y45087461D01*
X28132592Y45087453D01*
X28132788Y45087455D01*
X28834966Y45078080D01*
X28835156Y45078073D01*
X28835361Y45078075D01*
X29498265Y45068700D01*
X29498444Y45068693D01*
X29498636Y45068695D01*
X30128514Y45059320D01*
X30128700Y45059313D01*
X30128856Y45059314D01*
X30731028Y45049939D01*
X30731185Y45049933D01*
X30731339Y45049934D01*
X31310396Y45040559D01*
X31310525Y45040554D01*
X31310672Y45040555D01*
X31870628Y45031180D01*
X31870747Y45031175D01*
X31870867Y45031176D01*
X32415287Y45021801D01*
X32415396Y45021797D01*
X32415486Y45021797D01*
X32947580Y45012422D01*
X32947645Y45012420D01*
X32947737Y45012420D01*
X33470444Y45003045D01*
X33470501Y45003043D01*
X33470560Y45003043D01*
X33986619Y44993668D01*
X33986668Y44993666D01*
X33986691Y44993666D01*
X34498696Y44984291D01*
X34498701Y44984291D01*
X34498723Y44984291D01*
X35009181Y44974916D01*
X35009191Y44974916D01*
X35520544Y44965541D01*
X35520547Y44965541D01*
X36035153Y44956169D01*
X36035158Y44956169D01*
X36555707Y44946797D01*
X36555721Y44946797D01*
X37085002Y44937422D01*
X37085009Y44937422D01*
X37625244Y44928054D01*
X37625249Y44928054D01*
X38180312Y44918679D01*
X38180321Y44918679D01*
X38752541Y44909313D01*
X38752547Y44909313D01*
X39346667Y44899940D01*
X39966302Y44890568D01*
X39966305Y44890568D01*
X40616234Y44881198D01*
X40616240Y44881198D01*
X41301740Y44871834D01*
X41301760Y44871834D01*
X42030657Y44862459D01*
X42809326Y44853092D01*
X43647916Y44843724D01*
X43647920Y44843724D01*
X44558612Y44834349D01*
X44558618Y44834349D01*
X45054807Y44829682D01*
X45059398Y45309326D01*
X45059406Y45309539D01*
X45059402Y45309767D01*
X45068777Y46206678D01*
X45068785Y46206900D01*
X45068782Y46207111D01*
X45078157Y47035387D01*
X45078165Y47035599D01*
X45078162Y47035808D01*
X45087537Y47806739D01*
X45087545Y47806940D01*
X45087542Y47807143D01*
X45096917Y48529963D01*
X45096924Y48530153D01*
X45096922Y48530347D01*
X45106297Y49212710D01*
X45106304Y49212889D01*
X45106302Y49213071D01*
X45115677Y49861413D01*
X45115684Y49861581D01*
X45115682Y49861746D01*
X45125057Y50481543D01*
X45125063Y50481701D01*
X45125062Y50481845D01*
X45134437Y51077825D01*
X45134442Y51077954D01*
X45134441Y51078093D01*
X45143816Y51654387D01*
X45143821Y51654507D01*
X45143820Y51654619D01*
X45153195Y52214897D01*
X45153199Y52214989D01*
X45153198Y52215091D01*
X45162573Y52762656D01*
X45162576Y52762740D01*
X45162576Y52762810D01*
X45171951Y53300691D01*
X45171953Y53300748D01*
X45171953Y53300803D01*
X45181328Y53831815D01*
X45181329Y53831846D01*
X45181329Y53831885D01*
X45190630Y54354545D01*
X45200000Y62000613D01*
X45209375Y69651730D01*
X45209495Y69655847D01*
X45209453Y69659967D01*
X45218828Y70189554D01*
X45218829Y70189581D01*
X45228199Y70724956D01*
X45228199Y70724975D01*
X45237574Y71269430D01*
X45237574Y71269431D01*
X45246946Y71825380D01*
X45256317Y72396081D01*
X45265688Y72984958D01*
X45265688Y72984972D01*
X45275059Y73595820D01*
X45284429Y74232981D01*
X45293799Y74901388D01*
X45303169Y75606784D01*
X45312539Y76355935D01*
X45321909Y77156898D01*
X45321909Y77156916D01*
X45331275Y78018983D01*
X45340650Y78955375D01*
X45345446Y79479673D01*
X44837711Y79484397D01*
X44837499Y79484404D01*
X44837283Y79484401D01*
X43914672Y79493776D01*
X43914469Y79493783D01*
X43914251Y79493780D01*
X43062265Y79503155D01*
X43062054Y79503163D01*
X43061856Y79503160D01*
X42268883Y79512535D01*
X42268682Y79512542D01*
X42268489Y79512540D01*
X41525031Y79521915D01*
X41524841Y79521922D01*
X41524657Y79521920D01*
X40822834Y79531295D01*
X40822673Y79531301D01*
X40822483Y79531299D01*
X40155677Y79540674D01*
X40155508Y79540681D01*
X40155353Y79540679D01*
X39517930Y79550054D01*
X39517790Y79550059D01*
X39517636Y79550058D01*
X38904734Y79559433D01*
X38904586Y79559439D01*
X38904472Y79559438D01*
X38311841Y79568813D01*
X38311739Y79568817D01*
X38311615Y79568816D01*
X37735479Y79578191D01*
X37735386Y79578195D01*
X37735290Y79578194D01*
X37172252Y79587569D01*
X37172168Y79587572D01*
X37172101Y79587572D01*
X36619049Y79596947D01*
X36618991Y79596949D01*
X36618938Y79596949D01*
X36072974Y79606324D01*
X36072942Y79606325D01*
X36072905Y79606325D01*
X35531281Y79615700D01*
X35531275Y79615700D01*
X35531253Y79615700D01*
X34991320Y79625075D01*
X34975662Y79625787D01*
X34971965Y79625787D01*
X34969463Y79626068D01*
X34963303Y79626349D01*
X34939805Y79629410D01*
X34916247Y79632064D01*
X34912013Y79633030D01*
X34907702Y79633592D01*
X34884672Y79639270D01*
X34861582Y79644541D01*
X34857485Y79645974D01*
X34853262Y79647016D01*
X34831007Y79655239D01*
X34808658Y79663060D01*
X34804748Y79664942D01*
X34800667Y79666451D01*
X34779480Y79677111D01*
X34758141Y79687388D01*
X34754462Y79689699D01*
X34750580Y79691653D01*
X34730739Y79704606D01*
X34710664Y79717220D01*
X34707265Y79719930D01*
X34703628Y79722305D01*
X34685360Y79737399D01*
X34666827Y79752179D01*
X34663756Y79755250D01*
X34660405Y79758019D01*
X34643941Y79775065D01*
X34627179Y79791827D01*
X34624469Y79795225D01*
X34621451Y79798350D01*
X34606998Y79817133D01*
X34592220Y79835664D01*
X34589910Y79839341D01*
X34587258Y79842787D01*
X34574995Y79863077D01*
X34562388Y79883141D01*
X34560503Y79887056D01*
X34558255Y79890775D01*
X34548346Y79912300D01*
X34538060Y79933658D01*
X34536625Y79937759D01*
X34534808Y79941706D01*
X34527368Y79964215D01*
X34519541Y79986582D01*
X34518575Y79990815D01*
X34517210Y79994944D01*
X34512334Y80018158D01*
X34507064Y80041247D01*
X34506579Y80045560D01*
X34505684Y80049817D01*
X34503440Y80073418D01*
X34500787Y80096965D01*
X34500614Y80103135D01*
X34500376Y80105636D01*
X34500441Y80109325D01*
X34500000Y80125000D01*
X34500000Y81213878D01*
X34412236Y81210678D01*
X34118770Y81192830D01*
X33825841Y81167858D01*
X33533619Y81135779D01*
X33242230Y81096605D01*
X32951912Y81050369D01*
X32662771Y80997087D01*
X32375031Y80936799D01*
X32088811Y80869533D01*
X31804360Y80795345D01*
X31515924Y80712585D01*
X31488759Y80705610D01*
X31433471Y80696276D01*
X31377485Y80693193D01*
X31321506Y80696397D01*
X31266239Y80705849D01*
X31212375Y80721430D01*
X31160597Y80742943D01*
X31111552Y80770118D01*
X31065858Y80802613D01*
X31024089Y80840021D01*
X30986772Y80881869D01*
X30954375Y80927633D01*
X30927305Y80976737D01*
X30905905Y81028563D01*
X30890441Y81082458D01*
X30881107Y81137746D01*
X30878024Y81193732D01*
X30881228Y81249711D01*
X30890680Y81304978D01*
X30906261Y81358842D01*
X30927774Y81410620D01*
X30954949Y81459665D01*
X30987444Y81505359D01*
X31024852Y81547128D01*
X31066700Y81584445D01*
X31112464Y81616842D01*
X31161568Y81643912D01*
X31213394Y81665312D01*
X31240124Y81673801D01*
X31534394Y81758235D01*
X31540273Y81759744D01*
X31546109Y81761443D01*
X31842343Y81838704D01*
X31848265Y81840072D01*
X31854136Y81841627D01*
X32152161Y81911667D01*
X32158104Y81912888D01*
X32164017Y81914302D01*
X32463654Y81977082D01*
X32469633Y81978160D01*
X32475575Y81979429D01*
X32776649Y82034910D01*
X32782654Y82035842D01*
X32788622Y82036966D01*
X33090955Y82085116D01*
X33096977Y82085902D01*
X33102976Y82086881D01*
X33406390Y82127671D01*
X33412430Y82128310D01*
X33418448Y82129143D01*
X33722763Y82162550D01*
X33728811Y82163042D01*
X33734854Y82163729D01*
X34039890Y82189733D01*
X34045955Y82190078D01*
X34052008Y82190618D01*
X34357587Y82209203D01*
X34363661Y82209401D01*
X34369721Y82209793D01*
X34675661Y82220948D01*
X34681741Y82220998D01*
X34687804Y82221243D01*
X34993925Y82224963D01*
X35021967Y82224517D01*
G37*
%TD.AperFunction*%
%TD*%
D11*
%TO.P,J2,1*%
%TO.N,/+5V_ISO*%
X37500000Y18000000D03*
D12*
%TO.P,J2,2*%
%TO.N,/GND_ISO*%
X32500000Y18000000D03*
%TD*%
D13*
%TO.P,T1,1*%
%TO.N,/VIN*%
X38621977Y81193193D03*
%TO.P,T1,2*%
%TO.N,/SW*%
X31378023Y81193193D03*
%TO.P,T1,3*%
%TO.N,/GND_ISO*%
X33169595Y42408661D03*
%TO.P,T1,4*%
%TO.N,/SEC_A*%
X36075000Y47553499D03*
%TO.P,T1,5*%
%TO.N,unconnected-(T1-P_MID-Pad5)*%
X35000000Y76525000D03*
%TD*%
D11*
%TO.P,J1,1*%
%TO.N,/VIN_RAW*%
X32500000Y107000000D03*
D12*
%TO.P,J1,2*%
%TO.N,/PGND*%
X37500000Y107000000D03*
%TD*%
D14*
%TO.P,KiKit_FID_B_1,*%
%TO.N,*%
X7500000Y120000000D03*
%TD*%
%TO.P,KiKit_FID_B_2,*%
%TO.N,*%
X62500000Y120000000D03*
%TD*%
%TO.P,KiKit_FID_B_3,*%
%TO.N,*%
X7500000Y4000000D03*
%TD*%
D15*
%TO.N,/VIN*%
X39000000Y86525000D03*
D16*
X24675000Y96000000D03*
D15*
X21975000Y86365000D03*
X23000000Y100150000D03*
D16*
%TO.N,/PGND*%
X27300000Y88550000D03*
X32475000Y89200000D03*
X29325000Y96000000D03*
X19500000Y92000000D03*
X49000000Y89000000D03*
X49200000Y98000000D03*
X25700000Y87450000D03*
X26000000Y84500000D03*
X49000000Y84000000D03*
X35000000Y97000000D03*
X49500000Y105000000D03*
X48000000Y93000000D03*
X20725000Y88800000D03*
X38000000Y93000000D03*
X34000000Y94500000D03*
X21500000Y93500000D03*
X19025000Y86365000D03*
X20000000Y95000000D03*
X19500000Y107000000D03*
X23898500Y86095000D03*
X19500000Y104000000D03*
X39000000Y89475000D03*
X47000000Y84000000D03*
X19500000Y83000000D03*
X20500000Y83600000D03*
D17*
X27400000Y84350000D03*
D16*
X25700000Y88550000D03*
X27300000Y87450000D03*
X50000000Y93000000D03*
D18*
%TO.N,/GND_ISO*%
X44000000Y27037500D03*
X33200000Y28500000D03*
D16*
X47500000Y32000000D03*
X22000000Y24000000D03*
D18*
X23200000Y28500000D03*
D16*
X47000000Y19000000D03*
D18*
X32269595Y40500000D03*
D16*
X35000000Y21000000D03*
D18*
X42975000Y35880000D03*
D16*
X35000000Y15500000D03*
X46000000Y35000000D03*
X26000000Y17000000D03*
X27000000Y35000000D03*
X25000000Y39000000D03*
X29000000Y39000000D03*
X42000000Y17000000D03*
X22000000Y32000000D03*
X27000000Y24000000D03*
X46000000Y39000000D03*
D17*
X43200000Y33000000D03*
D18*
X33169595Y40500000D03*
D16*
X22000000Y39000000D03*
X42000000Y24000000D03*
X46000000Y24000000D03*
X30500000Y24200000D03*
X34000000Y32000000D03*
D18*
%TO.N,/SEC_A*%
X36450000Y39862000D03*
X35550000Y39862000D03*
%TD*%
%TA.AperFunction,Conductor*%
%TO.N,/PGND*%
G36*
X50959191Y108981093D02*
G01*
X50995155Y108931593D01*
X51000000Y108901000D01*
X51000000Y82599000D01*
X50981093Y82540809D01*
X50931593Y82504845D01*
X50901000Y82500000D01*
X18599000Y82500000D01*
X18540809Y82518907D01*
X18504845Y82568407D01*
X18500000Y82599000D01*
X18500000Y86429069D01*
X21324500Y86429069D01*
X21324500Y86300931D01*
X21341220Y86216875D01*
X21349499Y86175258D01*
X21349500Y86175253D01*
X21398534Y86056875D01*
X21398538Y86056867D01*
X21423354Y86019728D01*
X21469724Y85950331D01*
X21560331Y85859724D01*
X21623848Y85817283D01*
X21666866Y85788539D01*
X21666870Y85788537D01*
X21666873Y85788535D01*
X21785256Y85739499D01*
X21910931Y85714500D01*
X21910932Y85714500D01*
X22039068Y85714500D01*
X22039069Y85714500D01*
X22164744Y85739499D01*
X22283127Y85788535D01*
X22389669Y85859724D01*
X22480276Y85950331D01*
X22551465Y86056873D01*
X22600501Y86175256D01*
X22625500Y86300931D01*
X22625500Y86429069D01*
X22600501Y86554744D01*
X22586283Y86589070D01*
X38349500Y86589070D01*
X38349500Y86460931D01*
X38374499Y86335258D01*
X38374500Y86335253D01*
X38423534Y86216875D01*
X38423538Y86216867D01*
X38466365Y86152774D01*
X38494724Y86110331D01*
X38585331Y86019724D01*
X38648848Y85977283D01*
X38691866Y85948539D01*
X38691870Y85948537D01*
X38691873Y85948535D01*
X38810256Y85899499D01*
X38935931Y85874500D01*
X38935932Y85874500D01*
X39064068Y85874500D01*
X39064069Y85874500D01*
X39189744Y85899499D01*
X39308127Y85948535D01*
X39414669Y86019724D01*
X39505276Y86110331D01*
X39576465Y86216873D01*
X39625501Y86335256D01*
X39650500Y86460931D01*
X39650500Y86589069D01*
X39625501Y86714744D01*
X39576465Y86833127D01*
X39576463Y86833130D01*
X39576461Y86833134D01*
X39547717Y86876152D01*
X39505276Y86939669D01*
X39414669Y87030276D01*
X39372226Y87058635D01*
X39308133Y87101462D01*
X39308125Y87101466D01*
X39189747Y87150500D01*
X39189745Y87150501D01*
X39189744Y87150501D01*
X39064069Y87175500D01*
X38935931Y87175500D01*
X38935930Y87175500D01*
X38873093Y87163001D01*
X38810256Y87150501D01*
X38810255Y87150501D01*
X38810252Y87150500D01*
X38691874Y87101466D01*
X38691866Y87101462D01*
X38585331Y87030276D01*
X38585327Y87030273D01*
X38494727Y86939673D01*
X38494724Y86939669D01*
X38423538Y86833134D01*
X38423534Y86833126D01*
X38374500Y86714748D01*
X38374499Y86714745D01*
X38374499Y86714744D01*
X38361999Y86651907D01*
X38349500Y86589070D01*
X22586283Y86589070D01*
X22551465Y86673127D01*
X22551463Y86673130D01*
X22551461Y86673134D01*
X22522717Y86716152D01*
X22480276Y86779669D01*
X22389669Y86870276D01*
X22347226Y86898635D01*
X22283133Y86941462D01*
X22283125Y86941466D01*
X22164747Y86990500D01*
X22164745Y86990501D01*
X22164744Y86990501D01*
X22039069Y87015500D01*
X21910931Y87015500D01*
X21910930Y87015500D01*
X21848093Y87003001D01*
X21785256Y86990501D01*
X21785255Y86990501D01*
X21785252Y86990500D01*
X21666874Y86941466D01*
X21666866Y86941462D01*
X21560331Y86870276D01*
X21560327Y86870273D01*
X21469727Y86779673D01*
X21469724Y86779669D01*
X21398538Y86673134D01*
X21398534Y86673126D01*
X21349500Y86554748D01*
X21349499Y86554745D01*
X21349499Y86554744D01*
X21324500Y86429069D01*
X18500000Y86429069D01*
X18500000Y96072475D01*
X24124500Y96072475D01*
X24124500Y95927526D01*
X24162017Y95787511D01*
X24234487Y95661990D01*
X24234489Y95661988D01*
X24234491Y95661985D01*
X24336985Y95559491D01*
X24336987Y95559490D01*
X24336989Y95559488D01*
X24462511Y95487018D01*
X24462512Y95487018D01*
X24462515Y95487016D01*
X24602525Y95449500D01*
X24602526Y95449500D01*
X24747474Y95449500D01*
X24747475Y95449500D01*
X24887485Y95487016D01*
X24887487Y95487018D01*
X24887489Y95487018D01*
X25013010Y95559488D01*
X25013010Y95559489D01*
X25013015Y95559491D01*
X25115509Y95661985D01*
X25187984Y95787515D01*
X25225500Y95927525D01*
X25225500Y96072475D01*
X25187984Y96212485D01*
X25187982Y96212488D01*
X25187982Y96212490D01*
X25115512Y96338011D01*
X25115510Y96338013D01*
X25115509Y96338015D01*
X25013015Y96440509D01*
X25013012Y96440511D01*
X25013010Y96440513D01*
X24887488Y96512983D01*
X24887489Y96512983D01*
X24857896Y96520913D01*
X24747475Y96550500D01*
X24602525Y96550500D01*
X24540790Y96533959D01*
X24462510Y96512983D01*
X24336989Y96440513D01*
X24234487Y96338011D01*
X24162017Y96212490D01*
X24124500Y96072475D01*
X18500000Y96072475D01*
X18500000Y100214070D01*
X22349500Y100214070D01*
X22349500Y100085931D01*
X22374499Y99960258D01*
X22374500Y99960253D01*
X22423534Y99841875D01*
X22423538Y99841867D01*
X22466365Y99777774D01*
X22494724Y99735331D01*
X22585331Y99644724D01*
X22648848Y99602283D01*
X22691866Y99573539D01*
X22691870Y99573537D01*
X22691873Y99573535D01*
X22810256Y99524499D01*
X22935931Y99499500D01*
X22935932Y99499500D01*
X23064068Y99499500D01*
X23064069Y99499500D01*
X23189744Y99524499D01*
X23308127Y99573535D01*
X23414669Y99644724D01*
X23505276Y99735331D01*
X23576465Y99841873D01*
X23625501Y99960256D01*
X23650500Y100085931D01*
X23650500Y100214069D01*
X23625501Y100339744D01*
X23576465Y100458127D01*
X23576463Y100458130D01*
X23576461Y100458134D01*
X23547717Y100501152D01*
X23505276Y100564669D01*
X23414669Y100655276D01*
X23372226Y100683635D01*
X23308133Y100726462D01*
X23308125Y100726466D01*
X23189747Y100775500D01*
X23189745Y100775501D01*
X23189744Y100775501D01*
X23064069Y100800500D01*
X22935931Y100800500D01*
X22935930Y100800500D01*
X22873093Y100788001D01*
X22810256Y100775501D01*
X22810255Y100775501D01*
X22810252Y100775500D01*
X22691874Y100726466D01*
X22691866Y100726462D01*
X22585331Y100655276D01*
X22585327Y100655273D01*
X22494727Y100564673D01*
X22494724Y100564669D01*
X22423538Y100458134D01*
X22423534Y100458126D01*
X22374500Y100339748D01*
X22374499Y100339743D01*
X22349500Y100214070D01*
X18500000Y100214070D01*
X18500000Y108224673D01*
X31049500Y108224673D01*
X31049500Y105775328D01*
X31049501Y105775316D01*
X31064033Y105702264D01*
X31064035Y105702258D01*
X31119397Y105619401D01*
X31119399Y105619399D01*
X31202260Y105564034D01*
X31257808Y105552985D01*
X31275315Y105549502D01*
X31275320Y105549502D01*
X31275326Y105549500D01*
X31275327Y105549500D01*
X33724673Y105549500D01*
X33724674Y105549500D01*
X33797740Y105564034D01*
X33880601Y105619399D01*
X33935966Y105702260D01*
X33950500Y105775326D01*
X33950500Y107118057D01*
X36000000Y107118057D01*
X36000000Y106881944D01*
X36036934Y106648748D01*
X36036935Y106648744D01*
X36109892Y106424207D01*
X36109894Y106424204D01*
X36217084Y106213831D01*
X36277339Y106130895D01*
X36898957Y106752514D01*
X36923978Y106692110D01*
X36995112Y106585649D01*
X37085649Y106495112D01*
X37192110Y106423978D01*
X37252511Y106398959D01*
X36630893Y105777341D01*
X36713825Y105717087D01*
X36713829Y105717085D01*
X36924203Y105609895D01*
X36924206Y105609893D01*
X37148743Y105536936D01*
X37148747Y105536935D01*
X37381944Y105500000D01*
X37618056Y105500000D01*
X37851252Y105536935D01*
X37851256Y105536936D01*
X38075793Y105609893D01*
X38075796Y105609895D01*
X38286170Y105717085D01*
X38286176Y105717089D01*
X38369105Y105777341D01*
X38369105Y105777342D01*
X37747488Y106398959D01*
X37807890Y106423978D01*
X37914351Y106495112D01*
X38004888Y106585649D01*
X38076022Y106692110D01*
X38101041Y106752512D01*
X38722658Y106130895D01*
X38722659Y106130895D01*
X38782911Y106213824D01*
X38782915Y106213830D01*
X38890105Y106424204D01*
X38890107Y106424207D01*
X38963064Y106648744D01*
X38963065Y106648748D01*
X39000000Y106881944D01*
X39000000Y107118057D01*
X38963065Y107351253D01*
X38963064Y107351257D01*
X38890107Y107575794D01*
X38890105Y107575797D01*
X38782915Y107786171D01*
X38782913Y107786175D01*
X38722659Y107869107D01*
X38101041Y107247489D01*
X38076022Y107307890D01*
X38004888Y107414351D01*
X37914351Y107504888D01*
X37807890Y107576022D01*
X37747486Y107601043D01*
X38369105Y108222661D01*
X38286169Y108282916D01*
X38075796Y108390106D01*
X38075793Y108390108D01*
X37851256Y108463065D01*
X37851252Y108463066D01*
X37618056Y108500000D01*
X37381944Y108500000D01*
X37148747Y108463066D01*
X37148743Y108463065D01*
X36924206Y108390108D01*
X36924203Y108390106D01*
X36713823Y108282912D01*
X36630893Y108222661D01*
X37252512Y107601042D01*
X37192110Y107576022D01*
X37085649Y107504888D01*
X36995112Y107414351D01*
X36923978Y107307890D01*
X36898958Y107247488D01*
X36277339Y107869107D01*
X36217088Y107786177D01*
X36109894Y107575797D01*
X36109892Y107575794D01*
X36036935Y107351257D01*
X36036934Y107351253D01*
X36000000Y107118057D01*
X33950500Y107118057D01*
X33950500Y108224674D01*
X33935966Y108297740D01*
X33880601Y108380601D01*
X33880599Y108380603D01*
X33797742Y108435965D01*
X33797740Y108435966D01*
X33797737Y108435967D01*
X33797736Y108435967D01*
X33724684Y108450499D01*
X33724674Y108450500D01*
X31275326Y108450500D01*
X31275325Y108450500D01*
X31275315Y108450499D01*
X31202263Y108435967D01*
X31202257Y108435965D01*
X31119400Y108380603D01*
X31119397Y108380600D01*
X31064035Y108297743D01*
X31064033Y108297737D01*
X31049501Y108224685D01*
X31049500Y108224673D01*
X18500000Y108224673D01*
X18500000Y108901000D01*
X18518907Y108959191D01*
X18568407Y108995155D01*
X18599000Y109000000D01*
X50901000Y109000000D01*
X50959191Y108981093D01*
G37*
%TD.AperFunction*%
%TD*%
%TA.AperFunction,Conductor*%
%TO.N,/GND_ISO*%
G36*
X48959191Y40981093D02*
G01*
X48995155Y40931593D01*
X49000000Y40901000D01*
X49000000Y15099000D01*
X48981093Y15040809D01*
X48931593Y15004845D01*
X48901000Y15000000D01*
X21099000Y15000000D01*
X21040809Y15018907D01*
X21004845Y15068407D01*
X21000000Y15099000D01*
X21000000Y18118057D01*
X31000000Y18118057D01*
X31000000Y17881944D01*
X31036934Y17648748D01*
X31036935Y17648744D01*
X31109892Y17424207D01*
X31109894Y17424204D01*
X31217084Y17213831D01*
X31277339Y17130895D01*
X31898957Y17752514D01*
X31923978Y17692110D01*
X31995112Y17585649D01*
X32085649Y17495112D01*
X32192110Y17423978D01*
X32252511Y17398959D01*
X31630893Y16777341D01*
X31713825Y16717087D01*
X31713829Y16717085D01*
X31924203Y16609895D01*
X31924206Y16609893D01*
X32148743Y16536936D01*
X32148747Y16536935D01*
X32381944Y16500000D01*
X32618056Y16500000D01*
X32851252Y16536935D01*
X32851256Y16536936D01*
X33075793Y16609893D01*
X33075796Y16609895D01*
X33286170Y16717085D01*
X33286176Y16717089D01*
X33369105Y16777341D01*
X33369105Y16777342D01*
X32747488Y17398959D01*
X32807890Y17423978D01*
X32914351Y17495112D01*
X33004888Y17585649D01*
X33076022Y17692110D01*
X33101041Y17752512D01*
X33722658Y17130895D01*
X33722659Y17130895D01*
X33782911Y17213824D01*
X33782915Y17213830D01*
X33890105Y17424204D01*
X33890107Y17424207D01*
X33963064Y17648744D01*
X33963065Y17648748D01*
X34000000Y17881944D01*
X34000000Y18118057D01*
X33963065Y18351253D01*
X33963064Y18351257D01*
X33890107Y18575794D01*
X33890105Y18575797D01*
X33782915Y18786171D01*
X33782913Y18786175D01*
X33722659Y18869107D01*
X33101041Y18247489D01*
X33076022Y18307890D01*
X33004888Y18414351D01*
X32914351Y18504888D01*
X32807890Y18576022D01*
X32747486Y18601043D01*
X33369105Y19222661D01*
X33366336Y19224673D01*
X36049500Y19224673D01*
X36049500Y16775328D01*
X36049501Y16775316D01*
X36064033Y16702264D01*
X36064035Y16702258D01*
X36119397Y16619401D01*
X36119399Y16619399D01*
X36202260Y16564034D01*
X36257808Y16552985D01*
X36275315Y16549502D01*
X36275320Y16549502D01*
X36275326Y16549500D01*
X36275327Y16549500D01*
X38724673Y16549500D01*
X38724674Y16549500D01*
X38797740Y16564034D01*
X38880601Y16619399D01*
X38935966Y16702260D01*
X38950500Y16775326D01*
X38950500Y19224674D01*
X38935966Y19297740D01*
X38880601Y19380601D01*
X38880599Y19380603D01*
X38797742Y19435965D01*
X38797740Y19435966D01*
X38797737Y19435967D01*
X38797736Y19435967D01*
X38724684Y19450499D01*
X38724674Y19450500D01*
X36275326Y19450500D01*
X36275325Y19450500D01*
X36275315Y19450499D01*
X36202263Y19435967D01*
X36202257Y19435965D01*
X36119400Y19380603D01*
X36119397Y19380600D01*
X36064035Y19297743D01*
X36064033Y19297737D01*
X36049501Y19224685D01*
X36049500Y19224673D01*
X33366336Y19224673D01*
X33286169Y19282916D01*
X33075796Y19390106D01*
X33075793Y19390108D01*
X32851256Y19463065D01*
X32851252Y19463066D01*
X32618056Y19500000D01*
X32381944Y19500000D01*
X32148747Y19463066D01*
X32148743Y19463065D01*
X31924206Y19390108D01*
X31924203Y19390106D01*
X31713823Y19282912D01*
X31630893Y19222661D01*
X32252512Y18601042D01*
X32192110Y18576022D01*
X32085649Y18504888D01*
X31995112Y18414351D01*
X31923978Y18307890D01*
X31898958Y18247488D01*
X31277339Y18869107D01*
X31217088Y18786177D01*
X31109894Y18575797D01*
X31109892Y18575794D01*
X31036935Y18351257D01*
X31036934Y18351253D01*
X31000000Y18118057D01*
X21000000Y18118057D01*
X21000000Y39930996D01*
X34849500Y39930996D01*
X34849500Y39793005D01*
X34876420Y39657673D01*
X34876420Y39657671D01*
X34929222Y39530194D01*
X34929228Y39530183D01*
X35005885Y39415459D01*
X35103458Y39317886D01*
X35218182Y39241229D01*
X35218193Y39241223D01*
X35265283Y39221718D01*
X35345672Y39188420D01*
X35481007Y39161500D01*
X35481008Y39161500D01*
X35618992Y39161500D01*
X35618993Y39161500D01*
X35754328Y39188420D01*
X35881811Y39241225D01*
X35945000Y39283447D01*
X36003885Y39300055D01*
X36054999Y39283448D01*
X36105630Y39249617D01*
X36118187Y39241226D01*
X36118193Y39241223D01*
X36165283Y39221718D01*
X36245672Y39188420D01*
X36381007Y39161500D01*
X36381008Y39161500D01*
X36518992Y39161500D01*
X36518993Y39161500D01*
X36654328Y39188420D01*
X36781811Y39241225D01*
X36896542Y39317886D01*
X36994114Y39415458D01*
X37070775Y39530189D01*
X37123580Y39657672D01*
X37150500Y39793007D01*
X37150500Y39930993D01*
X37123580Y40066328D01*
X37070775Y40193811D01*
X37070774Y40193813D01*
X37070771Y40193818D01*
X36994114Y40308542D01*
X36896541Y40406115D01*
X36781817Y40482772D01*
X36781806Y40482778D01*
X36654328Y40535580D01*
X36518995Y40562500D01*
X36518993Y40562500D01*
X36381007Y40562500D01*
X36381004Y40562500D01*
X36245672Y40535580D01*
X36245670Y40535580D01*
X36118193Y40482778D01*
X36118181Y40482772D01*
X36055002Y40440555D01*
X35996114Y40423946D01*
X35944998Y40440555D01*
X35881818Y40482772D01*
X35881806Y40482778D01*
X35754328Y40535580D01*
X35618995Y40562500D01*
X35618993Y40562500D01*
X35481007Y40562500D01*
X35481004Y40562500D01*
X35345672Y40535580D01*
X35345670Y40535580D01*
X35218193Y40482778D01*
X35218182Y40482772D01*
X35103458Y40406115D01*
X35005885Y40308542D01*
X34929228Y40193818D01*
X34929222Y40193807D01*
X34876420Y40066330D01*
X34876420Y40066328D01*
X34849500Y39930996D01*
X21000000Y39930996D01*
X21000000Y40901000D01*
X21018907Y40959191D01*
X21068407Y40995155D01*
X21099000Y41000000D01*
X48901000Y41000000D01*
X48959191Y40981093D01*
G37*
%TD.AperFunction*%
%TD*%
M02*
