%TF.GenerationSoftware,KiCad,Pcbnew,10.0.6*%
%TF.CreationDate,2026-09-30T11:25:32-04:00*%
%TF.ProjectId,PS-FLYBACK-5W-panel,50532d46-4c59-4424-9143-4b2d35572d70,A1-development*%
%TF.SameCoordinates,Original*%
%TF.FileFunction,Copper,L3,Inr*%
%TF.FilePolarity,Positive*%
%FSLAX46Y46*%
G04 Gerber Fmt 4.6, Leading zero omitted, Abs format (unit mm)*
G04 Created by KiCad (PCBNEW 10.0.6) date 2026-09-30 11:25:32*
%MOMM*%
%LPD*%
G01*
G04 APERTURE LIST*
%TA.AperFunction,ComponentPad*%
%ADD10R,2.400000X2.400000*%
%TD*%
%TA.AperFunction,ComponentPad*%
%ADD11C,2.400000*%
%TD*%
%TA.AperFunction,ComponentPad*%
%ADD12C,0.800000*%
%TD*%
%TA.AperFunction,ViaPad*%
%ADD13C,0.800000*%
%TD*%
%TA.AperFunction,ViaPad*%
%ADD14C,0.600000*%
%TD*%
%TA.AperFunction,ViaPad*%
%ADD15C,1.200000*%
%TD*%
%TA.AperFunction,ViaPad*%
%ADD16C,0.900000*%
%TD*%
%TA.AperFunction,Conductor*%
%ADD17C,1.300000*%
%TD*%
G04 APERTURE END LIST*
D10*
%TO.N,/+5V_ISO*%
%TO.C,J2*%
X37500000Y18000000D03*
D11*
%TO.N,/GND_ISO*%
X32500000Y18000000D03*
%TD*%
D12*
%TO.N,/VIN*%
%TO.C,T1*%
X38621977Y81193193D03*
%TO.N,/SW*%
X31378023Y81193193D03*
%TO.N,/GND_ISO*%
X33169595Y42408661D03*
%TO.N,/SEC_A*%
X36075000Y47553499D03*
%TO.N,unconnected-(T1-P_MID-Pad5)*%
X35000000Y76525000D03*
%TD*%
D10*
%TO.N,/VIN_RAW*%
%TO.C,J1*%
X32500000Y107000000D03*
D11*
%TO.N,/PGND*%
X37500000Y107000000D03*
%TD*%
D13*
%TO.N,/VIN*%
X39000000Y86525000D03*
D14*
X24675000Y96000000D03*
D13*
X21975000Y86365000D03*
X23000000Y100150000D03*
D14*
%TO.N,/PGND*%
X27300000Y88550000D03*
X32475000Y89200000D03*
X29325000Y96000000D03*
X19500000Y92000000D03*
X49000000Y89000000D03*
X49200000Y98000000D03*
X25700000Y87450000D03*
X26000000Y84500000D03*
X49000000Y84000000D03*
X35000000Y97000000D03*
X49500000Y105000000D03*
X48000000Y93000000D03*
X20725000Y88800000D03*
X38000000Y93000000D03*
X34000000Y94500000D03*
X21500000Y93500000D03*
X19025000Y86365000D03*
X20000000Y95000000D03*
X19500000Y107000000D03*
X23898500Y86095000D03*
X19500000Y104000000D03*
X39000000Y89475000D03*
X47000000Y84000000D03*
X19500000Y83000000D03*
X20500000Y83600000D03*
D15*
X27400000Y84350000D03*
D14*
X25700000Y88550000D03*
X27300000Y87450000D03*
X50000000Y93000000D03*
D16*
%TO.N,/GND_ISO*%
X44000000Y27037500D03*
X33200000Y28500000D03*
D14*
X47500000Y32000000D03*
X22000000Y24000000D03*
D16*
X23200000Y28500000D03*
D14*
X47000000Y19000000D03*
D16*
X32269595Y40500000D03*
D14*
X35000000Y21000000D03*
D16*
X42975000Y35880000D03*
D14*
X35000000Y15500000D03*
X46000000Y35000000D03*
X26000000Y17000000D03*
X27000000Y35000000D03*
X25000000Y39000000D03*
X29000000Y39000000D03*
X42000000Y17000000D03*
X22000000Y32000000D03*
X27000000Y24000000D03*
X46000000Y39000000D03*
D15*
X43200000Y33000000D03*
D16*
X33169595Y40500000D03*
D14*
X22000000Y39000000D03*
X42000000Y24000000D03*
X46000000Y24000000D03*
X30500000Y24200000D03*
X34000000Y32000000D03*
D16*
%TO.N,/SEC_A*%
X36450000Y39862000D03*
X35550000Y39862000D03*
%TD*%
%TO.N,/SEC_A*%
D17*
X36075000Y47553499D02*
X36075000Y44000000D01*
X36075000Y44000000D02*
X36000000Y43925000D01*
X36000000Y43925000D02*
X36000000Y39862000D01*
%TD*%
M02*
