%TF.GenerationSoftware,KiCad,Pcbnew,10.0.6*%
%TF.CreationDate,2026-09-30T11:25:32-04:00*%
%TF.ProjectId,PS-FLYBACK-5W-panel,50532d46-4c59-4424-9143-4b2d35572d70,A1-development*%
%TF.SameCoordinates,Original*%
%TF.FileFunction,Legend,Top*%
%TF.FilePolarity,Positive*%
%FSLAX46Y46*%
G04 Gerber Fmt 4.6, Leading zero omitted, Abs format (unit mm)*
G04 Created by KiCad (PCBNEW 10.0.6) date 2026-09-30 11:25:32*
%MOMM*%
%LPD*%
G01*
G04 APERTURE LIST*
G04 Aperture macros list*
%AMRoundRect*
0 Rectangle with rounded corners*
0 $1 Rounding radius*
0 $2 $3 $4 $5 $6 $7 $8 $9 X,Y pos of 4 corners*
0 Add a 4 corners polygon primitive as box body*
4,1,4,$2,$3,$4,$5,$6,$7,$8,$9,$2,$3,0*
0 Add four circle primitives for the rounded corners*
1,1,$1+$1,$2,$3*
1,1,$1+$1,$4,$5*
1,1,$1+$1,$6,$7*
1,1,$1+$1,$8,$9*
0 Add four rect primitives between the rounded corners*
20,1,$1+$1,$2,$3,$4,$5,0*
20,1,$1+$1,$4,$5,$6,$7,0*
20,1,$1+$1,$6,$7,$8,$9,0*
20,1,$1+$1,$8,$9,$2,$3,0*%
G04 Aperture macros list end*
%ADD10C,0.150000*%
%ADD11C,0.140000*%
%ADD12C,0.120000*%
%ADD13C,0.220000*%
%ADD14C,0.250000*%
%ADD15C,0.200000*%
%ADD16C,0.000000*%
%ADD17RoundRect,0.250000X0.325000X1.100000X-0.325000X1.100000X-0.325000X-1.100000X0.325000X-1.100000X0*%
%ADD18RoundRect,0.250000X0.500000X-0.950000X0.500000X0.950000X-0.500000X0.950000X-0.500000X-0.950000X0*%
%ADD19RoundRect,0.250000X0.500000X-0.275000X0.500000X0.275000X-0.500000X0.275000X-0.500000X-0.275000X0*%
%ADD20C,3.200000*%
%ADD21C,1.000000*%
%ADD22R,1.143000X0.760000*%
%ADD23R,2.260000X2.990000*%
%ADD24C,0.500000*%
%ADD25RoundRect,0.250000X1.100000X-0.325000X1.100000X0.325000X-1.100000X0.325000X-1.100000X-0.325000X0*%
%ADD26RoundRect,0.250000X0.312500X0.625000X-0.312500X0.625000X-0.312500X-0.625000X0.312500X-0.625000X0*%
%ADD27R,2.400000X2.400000*%
%ADD28C,2.400000*%
%ADD29RoundRect,0.200000X-0.200000X-0.275000X0.200000X-0.275000X0.200000X0.275000X-0.200000X0.275000X0*%
%ADD30C,0.800000*%
%ADD31C,1.500000*%
%ADD32R,3.500000X1.600000*%
%ADD33R,3.360000X4.860000*%
%ADD34R,1.390000X1.400000*%
%ADD35RoundRect,0.250000X-1.950000X-1.000000X1.950000X-1.000000X1.950000X1.000000X-1.950000X1.000000X0*%
%ADD36RoundRect,0.250000X-0.625000X0.312500X-0.625000X-0.312500X0.625000X-0.312500X0.625000X0.312500X0*%
%ADD37RoundRect,0.250000X0.250000X0.475000X-0.250000X0.475000X-0.250000X-0.475000X0.250000X-0.475000X0*%
%ADD38RoundRect,0.200000X0.200000X0.275000X-0.200000X0.275000X-0.200000X-0.275000X0.200000X-0.275000X0*%
%ADD39R,1.250000X1.650000*%
%ADD40RoundRect,0.250000X-0.325000X-1.100000X0.325000X-1.100000X0.325000X1.100000X-0.325000X1.100000X0*%
%ADD41RoundRect,0.250000X-0.500000X0.950000X-0.500000X-0.950000X0.500000X-0.950000X0.500000X0.950000X0*%
%ADD42RoundRect,0.250000X-0.500000X0.275000X-0.500000X-0.275000X0.500000X-0.275000X0.500000X0.275000X0*%
%ADD43RoundRect,0.225000X0.225000X0.250000X-0.225000X0.250000X-0.225000X-0.250000X0.225000X-0.250000X0*%
%ADD44RoundRect,0.200000X0.275000X-0.200000X0.275000X0.200000X-0.275000X0.200000X-0.275000X-0.200000X0*%
%ADD45RoundRect,0.250000X-0.650000X1.000000X-0.650000X-1.000000X0.650000X-1.000000X0.650000X1.000000X0*%
%ADD46R,2.450000X3.700000*%
%ADD47C,1.200000*%
G04 APERTURE END LIST*
D10*
X23571429Y83437705D02*
X23571429Y84237705D01*
X23571429Y84237705D02*
X23876191Y84237705D01*
X23876191Y84237705D02*
X23952381Y84199610D01*
X23952381Y84199610D02*
X23990476Y84161515D01*
X23990476Y84161515D02*
X24028572Y84085324D01*
X24028572Y84085324D02*
X24028572Y83971039D01*
X24028572Y83971039D02*
X23990476Y83894848D01*
X23990476Y83894848D02*
X23952381Y83856753D01*
X23952381Y83856753D02*
X23876191Y83818658D01*
X23876191Y83818658D02*
X23571429Y83818658D01*
X24790476Y84199610D02*
X24714286Y84237705D01*
X24714286Y84237705D02*
X24600000Y84237705D01*
X24600000Y84237705D02*
X24485714Y84199610D01*
X24485714Y84199610D02*
X24409524Y84123420D01*
X24409524Y84123420D02*
X24371429Y84047229D01*
X24371429Y84047229D02*
X24333333Y83894848D01*
X24333333Y83894848D02*
X24333333Y83780562D01*
X24333333Y83780562D02*
X24371429Y83628181D01*
X24371429Y83628181D02*
X24409524Y83551991D01*
X24409524Y83551991D02*
X24485714Y83475800D01*
X24485714Y83475800D02*
X24600000Y83437705D01*
X24600000Y83437705D02*
X24676191Y83437705D01*
X24676191Y83437705D02*
X24790476Y83475800D01*
X24790476Y83475800D02*
X24828572Y83513896D01*
X24828572Y83513896D02*
X24828572Y83780562D01*
X24828572Y83780562D02*
X24676191Y83780562D01*
X25171429Y83437705D02*
X25171429Y84237705D01*
X25171429Y84237705D02*
X25628572Y83437705D01*
X25628572Y83437705D02*
X25628572Y84237705D01*
X26009524Y83437705D02*
X26009524Y84237705D01*
X26009524Y84237705D02*
X26200000Y84237705D01*
X26200000Y84237705D02*
X26314286Y84199610D01*
X26314286Y84199610D02*
X26390476Y84123420D01*
X26390476Y84123420D02*
X26428571Y84047229D01*
X26428571Y84047229D02*
X26466667Y83894848D01*
X26466667Y83894848D02*
X26466667Y83780562D01*
X26466667Y83780562D02*
X26428571Y83628181D01*
X26428571Y83628181D02*
X26390476Y83551991D01*
X26390476Y83551991D02*
X26314286Y83475800D01*
X26314286Y83475800D02*
X26200000Y83437705D01*
X26200000Y83437705D02*
X26009524Y83437705D01*
X26657142Y73937705D02*
X26733332Y73937705D01*
X26733332Y73937705D02*
X26809523Y73899610D01*
X26809523Y73899610D02*
X26847618Y73861515D01*
X26847618Y73861515D02*
X26885713Y73785324D01*
X26885713Y73785324D02*
X26923808Y73632943D01*
X26923808Y73632943D02*
X26923808Y73442467D01*
X26923808Y73442467D02*
X26885713Y73290086D01*
X26885713Y73290086D02*
X26847618Y73213896D01*
X26847618Y73213896D02*
X26809523Y73175800D01*
X26809523Y73175800D02*
X26733332Y73137705D01*
X26733332Y73137705D02*
X26657142Y73137705D01*
X26657142Y73137705D02*
X26580951Y73175800D01*
X26580951Y73175800D02*
X26542856Y73213896D01*
X26542856Y73213896D02*
X26504761Y73290086D01*
X26504761Y73290086D02*
X26466665Y73442467D01*
X26466665Y73442467D02*
X26466665Y73632943D01*
X26466665Y73632943D02*
X26504761Y73785324D01*
X26504761Y73785324D02*
X26542856Y73861515D01*
X26542856Y73861515D02*
X26580951Y73899610D01*
X26580951Y73899610D02*
X26657142Y73937705D01*
X27266666Y73213896D02*
X27304761Y73175800D01*
X27304761Y73175800D02*
X27266666Y73137705D01*
X27266666Y73137705D02*
X27228570Y73175800D01*
X27228570Y73175800D02*
X27266666Y73213896D01*
X27266666Y73213896D02*
X27266666Y73137705D01*
X27609522Y73861515D02*
X27647618Y73899610D01*
X27647618Y73899610D02*
X27723808Y73937705D01*
X27723808Y73937705D02*
X27914284Y73937705D01*
X27914284Y73937705D02*
X27990475Y73899610D01*
X27990475Y73899610D02*
X28028570Y73861515D01*
X28028570Y73861515D02*
X28066665Y73785324D01*
X28066665Y73785324D02*
X28066665Y73709134D01*
X28066665Y73709134D02*
X28028570Y73594848D01*
X28028570Y73594848D02*
X27571427Y73137705D01*
X27571427Y73137705D02*
X28066665Y73137705D01*
X28828570Y73137705D02*
X28371427Y73137705D01*
X28599999Y73137705D02*
X28599999Y73937705D01*
X28599999Y73937705D02*
X28523808Y73823420D01*
X28523808Y73823420D02*
X28447618Y73747229D01*
X28447618Y73747229D02*
X28371427Y73709134D01*
X29780952Y73137705D02*
X29780952Y73671039D01*
X29780952Y73594848D02*
X29819047Y73632943D01*
X29819047Y73632943D02*
X29895237Y73671039D01*
X29895237Y73671039D02*
X30009523Y73671039D01*
X30009523Y73671039D02*
X30085714Y73632943D01*
X30085714Y73632943D02*
X30123809Y73556753D01*
X30123809Y73556753D02*
X30123809Y73137705D01*
X30123809Y73556753D02*
X30161904Y73632943D01*
X30161904Y73632943D02*
X30238095Y73671039D01*
X30238095Y73671039D02*
X30352380Y73671039D01*
X30352380Y73671039D02*
X30428571Y73632943D01*
X30428571Y73632943D02*
X30466666Y73556753D01*
X30466666Y73556753D02*
X30466666Y73137705D01*
X30847619Y73137705D02*
X30847619Y73671039D01*
X30847619Y73594848D02*
X30885714Y73632943D01*
X30885714Y73632943D02*
X30961904Y73671039D01*
X30961904Y73671039D02*
X31076190Y73671039D01*
X31076190Y73671039D02*
X31152381Y73632943D01*
X31152381Y73632943D02*
X31190476Y73556753D01*
X31190476Y73556753D02*
X31190476Y73137705D01*
X31190476Y73556753D02*
X31228571Y73632943D01*
X31228571Y73632943D02*
X31304762Y73671039D01*
X31304762Y73671039D02*
X31419047Y73671039D01*
X31419047Y73671039D02*
X31495238Y73632943D01*
X31495238Y73632943D02*
X31533333Y73556753D01*
X31533333Y73556753D02*
X31533333Y73137705D01*
X32942857Y73899610D02*
X32866667Y73937705D01*
X32866667Y73937705D02*
X32752381Y73937705D01*
X32752381Y73937705D02*
X32638095Y73899610D01*
X32638095Y73899610D02*
X32561905Y73823420D01*
X32561905Y73823420D02*
X32523810Y73747229D01*
X32523810Y73747229D02*
X32485714Y73594848D01*
X32485714Y73594848D02*
X32485714Y73480562D01*
X32485714Y73480562D02*
X32523810Y73328181D01*
X32523810Y73328181D02*
X32561905Y73251991D01*
X32561905Y73251991D02*
X32638095Y73175800D01*
X32638095Y73175800D02*
X32752381Y73137705D01*
X32752381Y73137705D02*
X32828572Y73137705D01*
X32828572Y73137705D02*
X32942857Y73175800D01*
X32942857Y73175800D02*
X32980953Y73213896D01*
X32980953Y73213896D02*
X32980953Y73480562D01*
X32980953Y73480562D02*
X32828572Y73480562D01*
X33285714Y73366277D02*
X33666667Y73366277D01*
X33209524Y73137705D02*
X33476191Y73937705D01*
X33476191Y73937705D02*
X33742857Y73137705D01*
X34009524Y73137705D02*
X34009524Y73937705D01*
X34009524Y73937705D02*
X34314286Y73937705D01*
X34314286Y73937705D02*
X34390476Y73899610D01*
X34390476Y73899610D02*
X34428571Y73861515D01*
X34428571Y73861515D02*
X34466667Y73785324D01*
X34466667Y73785324D02*
X34466667Y73671039D01*
X34466667Y73671039D02*
X34428571Y73594848D01*
X34428571Y73594848D02*
X34390476Y73556753D01*
X34390476Y73556753D02*
X34314286Y73518658D01*
X34314286Y73518658D02*
X34009524Y73518658D01*
X34809524Y73137705D02*
X34809524Y73937705D01*
X34809524Y73937705D02*
X35114286Y73937705D01*
X35114286Y73937705D02*
X35190476Y73899610D01*
X35190476Y73899610D02*
X35228571Y73861515D01*
X35228571Y73861515D02*
X35266667Y73785324D01*
X35266667Y73785324D02*
X35266667Y73671039D01*
X35266667Y73671039D02*
X35228571Y73594848D01*
X35228571Y73594848D02*
X35190476Y73556753D01*
X35190476Y73556753D02*
X35114286Y73518658D01*
X35114286Y73518658D02*
X34809524Y73518658D01*
X35609524Y73556753D02*
X35876190Y73556753D01*
X35990476Y73137705D02*
X35609524Y73137705D01*
X35609524Y73137705D02*
X35609524Y73937705D01*
X35609524Y73937705D02*
X35990476Y73937705D01*
X36333334Y73137705D02*
X36333334Y73937705D01*
X36333334Y73937705D02*
X36523810Y73937705D01*
X36523810Y73937705D02*
X36638096Y73899610D01*
X36638096Y73899610D02*
X36714286Y73823420D01*
X36714286Y73823420D02*
X36752381Y73747229D01*
X36752381Y73747229D02*
X36790477Y73594848D01*
X36790477Y73594848D02*
X36790477Y73480562D01*
X36790477Y73480562D02*
X36752381Y73328181D01*
X36752381Y73328181D02*
X36714286Y73251991D01*
X36714286Y73251991D02*
X36638096Y73175800D01*
X36638096Y73175800D02*
X36523810Y73137705D01*
X36523810Y73137705D02*
X36333334Y73137705D01*
X37742858Y73137705D02*
X37742858Y73937705D01*
X37742858Y73937705D02*
X38200001Y73137705D01*
X38200001Y73137705D02*
X38200001Y73937705D01*
X38695238Y73594848D02*
X38619048Y73632943D01*
X38619048Y73632943D02*
X38580953Y73671039D01*
X38580953Y73671039D02*
X38542857Y73747229D01*
X38542857Y73747229D02*
X38542857Y73785324D01*
X38542857Y73785324D02*
X38580953Y73861515D01*
X38580953Y73861515D02*
X38619048Y73899610D01*
X38619048Y73899610D02*
X38695238Y73937705D01*
X38695238Y73937705D02*
X38847619Y73937705D01*
X38847619Y73937705D02*
X38923810Y73899610D01*
X38923810Y73899610D02*
X38961905Y73861515D01*
X38961905Y73861515D02*
X39000000Y73785324D01*
X39000000Y73785324D02*
X39000000Y73747229D01*
X39000000Y73747229D02*
X38961905Y73671039D01*
X38961905Y73671039D02*
X38923810Y73632943D01*
X38923810Y73632943D02*
X38847619Y73594848D01*
X38847619Y73594848D02*
X38695238Y73594848D01*
X38695238Y73594848D02*
X38619048Y73556753D01*
X38619048Y73556753D02*
X38580953Y73518658D01*
X38580953Y73518658D02*
X38542857Y73442467D01*
X38542857Y73442467D02*
X38542857Y73290086D01*
X38542857Y73290086D02*
X38580953Y73213896D01*
X38580953Y73213896D02*
X38619048Y73175800D01*
X38619048Y73175800D02*
X38695238Y73137705D01*
X38695238Y73137705D02*
X38847619Y73137705D01*
X38847619Y73137705D02*
X38923810Y73175800D01*
X38923810Y73175800D02*
X38961905Y73213896D01*
X38961905Y73213896D02*
X39000000Y73290086D01*
X39000000Y73290086D02*
X39000000Y73442467D01*
X39000000Y73442467D02*
X38961905Y73518658D01*
X38961905Y73518658D02*
X38923810Y73556753D01*
X38923810Y73556753D02*
X38847619Y73594848D01*
X39266667Y73937705D02*
X39800001Y73937705D01*
X39800001Y73937705D02*
X39457143Y73137705D01*
X41171430Y73213896D02*
X41133334Y73175800D01*
X41133334Y73175800D02*
X41019049Y73137705D01*
X41019049Y73137705D02*
X40942858Y73137705D01*
X40942858Y73137705D02*
X40828572Y73175800D01*
X40828572Y73175800D02*
X40752382Y73251991D01*
X40752382Y73251991D02*
X40714287Y73328181D01*
X40714287Y73328181D02*
X40676191Y73480562D01*
X40676191Y73480562D02*
X40676191Y73594848D01*
X40676191Y73594848D02*
X40714287Y73747229D01*
X40714287Y73747229D02*
X40752382Y73823420D01*
X40752382Y73823420D02*
X40828572Y73899610D01*
X40828572Y73899610D02*
X40942858Y73937705D01*
X40942858Y73937705D02*
X41019049Y73937705D01*
X41019049Y73937705D02*
X41133334Y73899610D01*
X41133334Y73899610D02*
X41171430Y73861515D01*
X41666668Y73937705D02*
X41819049Y73937705D01*
X41819049Y73937705D02*
X41895239Y73899610D01*
X41895239Y73899610D02*
X41971430Y73823420D01*
X41971430Y73823420D02*
X42009525Y73671039D01*
X42009525Y73671039D02*
X42009525Y73404372D01*
X42009525Y73404372D02*
X41971430Y73251991D01*
X41971430Y73251991D02*
X41895239Y73175800D01*
X41895239Y73175800D02*
X41819049Y73137705D01*
X41819049Y73137705D02*
X41666668Y73137705D01*
X41666668Y73137705D02*
X41590477Y73175800D01*
X41590477Y73175800D02*
X41514287Y73251991D01*
X41514287Y73251991D02*
X41476191Y73404372D01*
X41476191Y73404372D02*
X41476191Y73671039D01*
X41476191Y73671039D02*
X41514287Y73823420D01*
X41514287Y73823420D02*
X41590477Y73899610D01*
X41590477Y73899610D02*
X41666668Y73937705D01*
X42809525Y73137705D02*
X42542858Y73518658D01*
X42352382Y73137705D02*
X42352382Y73937705D01*
X42352382Y73937705D02*
X42657144Y73937705D01*
X42657144Y73937705D02*
X42733334Y73899610D01*
X42733334Y73899610D02*
X42771429Y73861515D01*
X42771429Y73861515D02*
X42809525Y73785324D01*
X42809525Y73785324D02*
X42809525Y73671039D01*
X42809525Y73671039D02*
X42771429Y73594848D01*
X42771429Y73594848D02*
X42733334Y73556753D01*
X42733334Y73556753D02*
X42657144Y73518658D01*
X42657144Y73518658D02*
X42352382Y73518658D01*
X43152382Y73556753D02*
X43419048Y73556753D01*
X43533334Y73137705D02*
X43152382Y73137705D01*
X43152382Y73137705D02*
X43152382Y73937705D01*
X43152382Y73937705D02*
X43533334Y73937705D01*
X28580953Y45556753D02*
X28314287Y45556753D01*
X28314287Y45137705D02*
X28314287Y45937705D01*
X28314287Y45937705D02*
X28695239Y45937705D01*
X29000001Y45937705D02*
X29000001Y45290086D01*
X29000001Y45290086D02*
X29038096Y45213896D01*
X29038096Y45213896D02*
X29076191Y45175800D01*
X29076191Y45175800D02*
X29152382Y45137705D01*
X29152382Y45137705D02*
X29304763Y45137705D01*
X29304763Y45137705D02*
X29380953Y45175800D01*
X29380953Y45175800D02*
X29419048Y45213896D01*
X29419048Y45213896D02*
X29457144Y45290086D01*
X29457144Y45290086D02*
X29457144Y45937705D01*
X29838096Y45137705D02*
X29838096Y45937705D01*
X29838096Y45937705D02*
X30295239Y45137705D01*
X30295239Y45137705D02*
X30295239Y45937705D01*
X31133334Y45213896D02*
X31095238Y45175800D01*
X31095238Y45175800D02*
X30980953Y45137705D01*
X30980953Y45137705D02*
X30904762Y45137705D01*
X30904762Y45137705D02*
X30790476Y45175800D01*
X30790476Y45175800D02*
X30714286Y45251991D01*
X30714286Y45251991D02*
X30676191Y45328181D01*
X30676191Y45328181D02*
X30638095Y45480562D01*
X30638095Y45480562D02*
X30638095Y45594848D01*
X30638095Y45594848D02*
X30676191Y45747229D01*
X30676191Y45747229D02*
X30714286Y45823420D01*
X30714286Y45823420D02*
X30790476Y45899610D01*
X30790476Y45899610D02*
X30904762Y45937705D01*
X30904762Y45937705D02*
X30980953Y45937705D01*
X30980953Y45937705D02*
X31095238Y45899610D01*
X31095238Y45899610D02*
X31133334Y45861515D01*
X31361905Y45937705D02*
X31819048Y45937705D01*
X31590476Y45137705D02*
X31590476Y45937705D01*
X32085715Y45137705D02*
X32085715Y45937705D01*
X32619048Y45937705D02*
X32771429Y45937705D01*
X32771429Y45937705D02*
X32847619Y45899610D01*
X32847619Y45899610D02*
X32923810Y45823420D01*
X32923810Y45823420D02*
X32961905Y45671039D01*
X32961905Y45671039D02*
X32961905Y45404372D01*
X32961905Y45404372D02*
X32923810Y45251991D01*
X32923810Y45251991D02*
X32847619Y45175800D01*
X32847619Y45175800D02*
X32771429Y45137705D01*
X32771429Y45137705D02*
X32619048Y45137705D01*
X32619048Y45137705D02*
X32542857Y45175800D01*
X32542857Y45175800D02*
X32466667Y45251991D01*
X32466667Y45251991D02*
X32428571Y45404372D01*
X32428571Y45404372D02*
X32428571Y45671039D01*
X32428571Y45671039D02*
X32466667Y45823420D01*
X32466667Y45823420D02*
X32542857Y45899610D01*
X32542857Y45899610D02*
X32619048Y45937705D01*
X33304762Y45137705D02*
X33304762Y45937705D01*
X33304762Y45937705D02*
X33761905Y45137705D01*
X33761905Y45137705D02*
X33761905Y45937705D01*
X34104761Y45366277D02*
X34485714Y45366277D01*
X34028571Y45137705D02*
X34295238Y45937705D01*
X34295238Y45937705D02*
X34561904Y45137705D01*
X35209523Y45137705D02*
X34828571Y45137705D01*
X34828571Y45137705D02*
X34828571Y45937705D01*
X36085714Y45137705D02*
X36085714Y45937705D01*
X36428570Y45175800D02*
X36542856Y45137705D01*
X36542856Y45137705D02*
X36733332Y45137705D01*
X36733332Y45137705D02*
X36809523Y45175800D01*
X36809523Y45175800D02*
X36847618Y45213896D01*
X36847618Y45213896D02*
X36885713Y45290086D01*
X36885713Y45290086D02*
X36885713Y45366277D01*
X36885713Y45366277D02*
X36847618Y45442467D01*
X36847618Y45442467D02*
X36809523Y45480562D01*
X36809523Y45480562D02*
X36733332Y45518658D01*
X36733332Y45518658D02*
X36580951Y45556753D01*
X36580951Y45556753D02*
X36504761Y45594848D01*
X36504761Y45594848D02*
X36466666Y45632943D01*
X36466666Y45632943D02*
X36428570Y45709134D01*
X36428570Y45709134D02*
X36428570Y45785324D01*
X36428570Y45785324D02*
X36466666Y45861515D01*
X36466666Y45861515D02*
X36504761Y45899610D01*
X36504761Y45899610D02*
X36580951Y45937705D01*
X36580951Y45937705D02*
X36771428Y45937705D01*
X36771428Y45937705D02*
X36885713Y45899610D01*
X37380952Y45937705D02*
X37533333Y45937705D01*
X37533333Y45937705D02*
X37609523Y45899610D01*
X37609523Y45899610D02*
X37685714Y45823420D01*
X37685714Y45823420D02*
X37723809Y45671039D01*
X37723809Y45671039D02*
X37723809Y45404372D01*
X37723809Y45404372D02*
X37685714Y45251991D01*
X37685714Y45251991D02*
X37609523Y45175800D01*
X37609523Y45175800D02*
X37533333Y45137705D01*
X37533333Y45137705D02*
X37380952Y45137705D01*
X37380952Y45137705D02*
X37304761Y45175800D01*
X37304761Y45175800D02*
X37228571Y45251991D01*
X37228571Y45251991D02*
X37190475Y45404372D01*
X37190475Y45404372D02*
X37190475Y45671039D01*
X37190475Y45671039D02*
X37228571Y45823420D01*
X37228571Y45823420D02*
X37304761Y45899610D01*
X37304761Y45899610D02*
X37380952Y45937705D01*
X38447618Y45137705D02*
X38066666Y45137705D01*
X38066666Y45137705D02*
X38066666Y45937705D01*
X38676189Y45366277D02*
X39057142Y45366277D01*
X38599999Y45137705D02*
X38866666Y45937705D01*
X38866666Y45937705D02*
X39133332Y45137705D01*
X39285713Y45937705D02*
X39742856Y45937705D01*
X39514284Y45137705D02*
X39514284Y45937705D01*
X40009523Y45137705D02*
X40009523Y45937705D01*
X40542856Y45937705D02*
X40695237Y45937705D01*
X40695237Y45937705D02*
X40771427Y45899610D01*
X40771427Y45899610D02*
X40847618Y45823420D01*
X40847618Y45823420D02*
X40885713Y45671039D01*
X40885713Y45671039D02*
X40885713Y45404372D01*
X40885713Y45404372D02*
X40847618Y45251991D01*
X40847618Y45251991D02*
X40771427Y45175800D01*
X40771427Y45175800D02*
X40695237Y45137705D01*
X40695237Y45137705D02*
X40542856Y45137705D01*
X40542856Y45137705D02*
X40466665Y45175800D01*
X40466665Y45175800D02*
X40390475Y45251991D01*
X40390475Y45251991D02*
X40352379Y45404372D01*
X40352379Y45404372D02*
X40352379Y45671039D01*
X40352379Y45671039D02*
X40390475Y45823420D01*
X40390475Y45823420D02*
X40466665Y45899610D01*
X40466665Y45899610D02*
X40542856Y45937705D01*
X41228570Y45137705D02*
X41228570Y45937705D01*
X41228570Y45937705D02*
X41685713Y45137705D01*
X41685713Y45137705D02*
X41685713Y45937705D01*
X44176191Y31337705D02*
X44176191Y32137705D01*
X44519047Y31375800D02*
X44633333Y31337705D01*
X44633333Y31337705D02*
X44823809Y31337705D01*
X44823809Y31337705D02*
X44900000Y31375800D01*
X44900000Y31375800D02*
X44938095Y31413896D01*
X44938095Y31413896D02*
X44976190Y31490086D01*
X44976190Y31490086D02*
X44976190Y31566277D01*
X44976190Y31566277D02*
X44938095Y31642467D01*
X44938095Y31642467D02*
X44900000Y31680562D01*
X44900000Y31680562D02*
X44823809Y31718658D01*
X44823809Y31718658D02*
X44671428Y31756753D01*
X44671428Y31756753D02*
X44595238Y31794848D01*
X44595238Y31794848D02*
X44557143Y31832943D01*
X44557143Y31832943D02*
X44519047Y31909134D01*
X44519047Y31909134D02*
X44519047Y31985324D01*
X44519047Y31985324D02*
X44557143Y32061515D01*
X44557143Y32061515D02*
X44595238Y32099610D01*
X44595238Y32099610D02*
X44671428Y32137705D01*
X44671428Y32137705D02*
X44861905Y32137705D01*
X44861905Y32137705D02*
X44976190Y32099610D01*
X45471429Y32137705D02*
X45623810Y32137705D01*
X45623810Y32137705D02*
X45700000Y32099610D01*
X45700000Y32099610D02*
X45776191Y32023420D01*
X45776191Y32023420D02*
X45814286Y31871039D01*
X45814286Y31871039D02*
X45814286Y31604372D01*
X45814286Y31604372D02*
X45776191Y31451991D01*
X45776191Y31451991D02*
X45700000Y31375800D01*
X45700000Y31375800D02*
X45623810Y31337705D01*
X45623810Y31337705D02*
X45471429Y31337705D01*
X45471429Y31337705D02*
X45395238Y31375800D01*
X45395238Y31375800D02*
X45319048Y31451991D01*
X45319048Y31451991D02*
X45280952Y31604372D01*
X45280952Y31604372D02*
X45280952Y31871039D01*
X45280952Y31871039D02*
X45319048Y32023420D01*
X45319048Y32023420D02*
X45395238Y32099610D01*
X45395238Y32099610D02*
X45471429Y32137705D01*
X47185714Y32099610D02*
X47109524Y32137705D01*
X47109524Y32137705D02*
X46995238Y32137705D01*
X46995238Y32137705D02*
X46880952Y32099610D01*
X46880952Y32099610D02*
X46804762Y32023420D01*
X46804762Y32023420D02*
X46766667Y31947229D01*
X46766667Y31947229D02*
X46728571Y31794848D01*
X46728571Y31794848D02*
X46728571Y31680562D01*
X46728571Y31680562D02*
X46766667Y31528181D01*
X46766667Y31528181D02*
X46804762Y31451991D01*
X46804762Y31451991D02*
X46880952Y31375800D01*
X46880952Y31375800D02*
X46995238Y31337705D01*
X46995238Y31337705D02*
X47071429Y31337705D01*
X47071429Y31337705D02*
X47185714Y31375800D01*
X47185714Y31375800D02*
X47223810Y31413896D01*
X47223810Y31413896D02*
X47223810Y31680562D01*
X47223810Y31680562D02*
X47071429Y31680562D01*
X47566667Y31337705D02*
X47566667Y32137705D01*
X47566667Y32137705D02*
X48023810Y31337705D01*
X48023810Y31337705D02*
X48023810Y32137705D01*
X48404762Y31337705D02*
X48404762Y32137705D01*
X48404762Y32137705D02*
X48595238Y32137705D01*
X48595238Y32137705D02*
X48709524Y32099610D01*
X48709524Y32099610D02*
X48785714Y32023420D01*
X48785714Y32023420D02*
X48823809Y31947229D01*
X48823809Y31947229D02*
X48861905Y31794848D01*
X48861905Y31794848D02*
X48861905Y31680562D01*
X48861905Y31680562D02*
X48823809Y31528181D01*
X48823809Y31528181D02*
X48785714Y31451991D01*
X48785714Y31451991D02*
X48709524Y31375800D01*
X48709524Y31375800D02*
X48595238Y31337705D01*
X48595238Y31337705D02*
X48404762Y31337705D01*
X45142856Y104637705D02*
X44685713Y104637705D01*
X44914285Y104637705D02*
X44914285Y105437705D01*
X44914285Y105437705D02*
X44838094Y105323420D01*
X44838094Y105323420D02*
X44761904Y105247229D01*
X44761904Y105247229D02*
X44685713Y105209134D01*
X45599999Y105094848D02*
X45523809Y105132943D01*
X45523809Y105132943D02*
X45485714Y105171039D01*
X45485714Y105171039D02*
X45447618Y105247229D01*
X45447618Y105247229D02*
X45447618Y105285324D01*
X45447618Y105285324D02*
X45485714Y105361515D01*
X45485714Y105361515D02*
X45523809Y105399610D01*
X45523809Y105399610D02*
X45599999Y105437705D01*
X45599999Y105437705D02*
X45752380Y105437705D01*
X45752380Y105437705D02*
X45828571Y105399610D01*
X45828571Y105399610D02*
X45866666Y105361515D01*
X45866666Y105361515D02*
X45904761Y105285324D01*
X45904761Y105285324D02*
X45904761Y105247229D01*
X45904761Y105247229D02*
X45866666Y105171039D01*
X45866666Y105171039D02*
X45828571Y105132943D01*
X45828571Y105132943D02*
X45752380Y105094848D01*
X45752380Y105094848D02*
X45599999Y105094848D01*
X45599999Y105094848D02*
X45523809Y105056753D01*
X45523809Y105056753D02*
X45485714Y105018658D01*
X45485714Y105018658D02*
X45447618Y104942467D01*
X45447618Y104942467D02*
X45447618Y104790086D01*
X45447618Y104790086D02*
X45485714Y104713896D01*
X45485714Y104713896D02*
X45523809Y104675800D01*
X45523809Y104675800D02*
X45599999Y104637705D01*
X45599999Y104637705D02*
X45752380Y104637705D01*
X45752380Y104637705D02*
X45828571Y104675800D01*
X45828571Y104675800D02*
X45866666Y104713896D01*
X45866666Y104713896D02*
X45904761Y104790086D01*
X45904761Y104790086D02*
X45904761Y104942467D01*
X45904761Y104942467D02*
X45866666Y105018658D01*
X45866666Y105018658D02*
X45828571Y105056753D01*
X45828571Y105056753D02*
X45752380Y105094848D01*
X46247619Y104942467D02*
X46857143Y104942467D01*
X47161904Y105437705D02*
X47657142Y105437705D01*
X47657142Y105437705D02*
X47390476Y105132943D01*
X47390476Y105132943D02*
X47504761Y105132943D01*
X47504761Y105132943D02*
X47580952Y105094848D01*
X47580952Y105094848D02*
X47619047Y105056753D01*
X47619047Y105056753D02*
X47657142Y104980562D01*
X47657142Y104980562D02*
X47657142Y104790086D01*
X47657142Y104790086D02*
X47619047Y104713896D01*
X47619047Y104713896D02*
X47580952Y104675800D01*
X47580952Y104675800D02*
X47504761Y104637705D01*
X47504761Y104637705D02*
X47276190Y104637705D01*
X47276190Y104637705D02*
X47199999Y104675800D01*
X47199999Y104675800D02*
X47161904Y104713896D01*
X48342857Y105437705D02*
X48190476Y105437705D01*
X48190476Y105437705D02*
X48114285Y105399610D01*
X48114285Y105399610D02*
X48076190Y105361515D01*
X48076190Y105361515D02*
X48000000Y105247229D01*
X48000000Y105247229D02*
X47961904Y105094848D01*
X47961904Y105094848D02*
X47961904Y104790086D01*
X47961904Y104790086D02*
X48000000Y104713896D01*
X48000000Y104713896D02*
X48038095Y104675800D01*
X48038095Y104675800D02*
X48114285Y104637705D01*
X48114285Y104637705D02*
X48266666Y104637705D01*
X48266666Y104637705D02*
X48342857Y104675800D01*
X48342857Y104675800D02*
X48380952Y104713896D01*
X48380952Y104713896D02*
X48419047Y104790086D01*
X48419047Y104790086D02*
X48419047Y104980562D01*
X48419047Y104980562D02*
X48380952Y105056753D01*
X48380952Y105056753D02*
X48342857Y105094848D01*
X48342857Y105094848D02*
X48266666Y105132943D01*
X48266666Y105132943D02*
X48114285Y105132943D01*
X48114285Y105132943D02*
X48038095Y105094848D01*
X48038095Y105094848D02*
X48000000Y105056753D01*
X48000000Y105056753D02*
X47961904Y104980562D01*
X48647619Y105437705D02*
X48914286Y104637705D01*
X48914286Y104637705D02*
X49180952Y105437705D01*
X50057143Y104637705D02*
X50057143Y105437705D01*
X50057143Y105437705D02*
X50247619Y105437705D01*
X50247619Y105437705D02*
X50361905Y105399610D01*
X50361905Y105399610D02*
X50438095Y105323420D01*
X50438095Y105323420D02*
X50476190Y105247229D01*
X50476190Y105247229D02*
X50514286Y105094848D01*
X50514286Y105094848D02*
X50514286Y104980562D01*
X50514286Y104980562D02*
X50476190Y104828181D01*
X50476190Y104828181D02*
X50438095Y104751991D01*
X50438095Y104751991D02*
X50361905Y104675800D01*
X50361905Y104675800D02*
X50247619Y104637705D01*
X50247619Y104637705D02*
X50057143Y104637705D01*
X51314286Y104713896D02*
X51276190Y104675800D01*
X51276190Y104675800D02*
X51161905Y104637705D01*
X51161905Y104637705D02*
X51085714Y104637705D01*
X51085714Y104637705D02*
X50971428Y104675800D01*
X50971428Y104675800D02*
X50895238Y104751991D01*
X50895238Y104751991D02*
X50857143Y104828181D01*
X50857143Y104828181D02*
X50819047Y104980562D01*
X50819047Y104980562D02*
X50819047Y105094848D01*
X50819047Y105094848D02*
X50857143Y105247229D01*
X50857143Y105247229D02*
X50895238Y105323420D01*
X50895238Y105323420D02*
X50971428Y105399610D01*
X50971428Y105399610D02*
X51085714Y105437705D01*
X51085714Y105437705D02*
X51161905Y105437705D01*
X51161905Y105437705D02*
X51276190Y105399610D01*
X51276190Y105399610D02*
X51314286Y105361515D01*
X46819047Y20437705D02*
X46438095Y20437705D01*
X46438095Y20437705D02*
X46399999Y20056753D01*
X46399999Y20056753D02*
X46438095Y20094848D01*
X46438095Y20094848D02*
X46514285Y20132943D01*
X46514285Y20132943D02*
X46704761Y20132943D01*
X46704761Y20132943D02*
X46780952Y20094848D01*
X46780952Y20094848D02*
X46819047Y20056753D01*
X46819047Y20056753D02*
X46857142Y19980562D01*
X46857142Y19980562D02*
X46857142Y19790086D01*
X46857142Y19790086D02*
X46819047Y19713896D01*
X46819047Y19713896D02*
X46780952Y19675800D01*
X46780952Y19675800D02*
X46704761Y19637705D01*
X46704761Y19637705D02*
X46514285Y19637705D01*
X46514285Y19637705D02*
X46438095Y19675800D01*
X46438095Y19675800D02*
X46399999Y19713896D01*
X47085714Y20437705D02*
X47352381Y19637705D01*
X47352381Y19637705D02*
X47619047Y20437705D01*
X48914285Y19637705D02*
X48457142Y19637705D01*
X48685714Y19637705D02*
X48685714Y20437705D01*
X48685714Y20437705D02*
X48609523Y20323420D01*
X48609523Y20323420D02*
X48533333Y20247229D01*
X48533333Y20247229D02*
X48457142Y20209134D01*
X49219047Y19866277D02*
X49600000Y19866277D01*
X49142857Y19637705D02*
X49409524Y20437705D01*
X49409524Y20437705D02*
X49676190Y19637705D01*
X31883333Y111614573D02*
X31883333Y112464573D01*
X32288095Y111614573D02*
X32288095Y112464573D01*
X32288095Y112464573D02*
X32773810Y111614573D01*
X32773810Y111614573D02*
X32773810Y112464573D01*
X33826190Y111938383D02*
X34473810Y111938383D01*
X34150000Y111614573D02*
X34150000Y112262192D01*
X37469047Y111938383D02*
X38116667Y111938383D01*
X31478571Y12464573D02*
X31640476Y12464573D01*
X31640476Y12464573D02*
X31721428Y12424097D01*
X31721428Y12424097D02*
X31802381Y12343145D01*
X31802381Y12343145D02*
X31842857Y12181240D01*
X31842857Y12181240D02*
X31842857Y11897907D01*
X31842857Y11897907D02*
X31802381Y11736002D01*
X31802381Y11736002D02*
X31721428Y11655049D01*
X31721428Y11655049D02*
X31640476Y11614573D01*
X31640476Y11614573D02*
X31478571Y11614573D01*
X31478571Y11614573D02*
X31397619Y11655049D01*
X31397619Y11655049D02*
X31316666Y11736002D01*
X31316666Y11736002D02*
X31276190Y11897907D01*
X31276190Y11897907D02*
X31276190Y12181240D01*
X31276190Y12181240D02*
X31316666Y12343145D01*
X31316666Y12343145D02*
X31397619Y12424097D01*
X31397619Y12424097D02*
X31478571Y12464573D01*
X32207142Y12464573D02*
X32207142Y11776478D01*
X32207142Y11776478D02*
X32247619Y11695526D01*
X32247619Y11695526D02*
X32288095Y11655049D01*
X32288095Y11655049D02*
X32369047Y11614573D01*
X32369047Y11614573D02*
X32530952Y11614573D01*
X32530952Y11614573D02*
X32611904Y11655049D01*
X32611904Y11655049D02*
X32652381Y11695526D01*
X32652381Y11695526D02*
X32692857Y11776478D01*
X32692857Y11776478D02*
X32692857Y12464573D01*
X32976190Y12464573D02*
X33461904Y12464573D01*
X33219047Y11614573D02*
X33219047Y12464573D01*
X34392856Y11938383D02*
X35040476Y11938383D01*
X38035713Y11938383D02*
X38683333Y11938383D01*
X38359523Y11614573D02*
X38359523Y12262192D01*
X23619047Y119545181D02*
X23619047Y120545181D01*
X23619047Y120545181D02*
X23999999Y120545181D01*
X23999999Y120545181D02*
X24095237Y120497562D01*
X24095237Y120497562D02*
X24142856Y120449943D01*
X24142856Y120449943D02*
X24190475Y120354705D01*
X24190475Y120354705D02*
X24190475Y120211848D01*
X24190475Y120211848D02*
X24142856Y120116610D01*
X24142856Y120116610D02*
X24095237Y120068991D01*
X24095237Y120068991D02*
X23999999Y120021372D01*
X23999999Y120021372D02*
X23619047Y120021372D01*
X24571428Y119592800D02*
X24714285Y119545181D01*
X24714285Y119545181D02*
X24952380Y119545181D01*
X24952380Y119545181D02*
X25047618Y119592800D01*
X25047618Y119592800D02*
X25095237Y119640420D01*
X25095237Y119640420D02*
X25142856Y119735658D01*
X25142856Y119735658D02*
X25142856Y119830896D01*
X25142856Y119830896D02*
X25095237Y119926134D01*
X25095237Y119926134D02*
X25047618Y119973753D01*
X25047618Y119973753D02*
X24952380Y120021372D01*
X24952380Y120021372D02*
X24761904Y120068991D01*
X24761904Y120068991D02*
X24666666Y120116610D01*
X24666666Y120116610D02*
X24619047Y120164229D01*
X24619047Y120164229D02*
X24571428Y120259467D01*
X24571428Y120259467D02*
X24571428Y120354705D01*
X24571428Y120354705D02*
X24619047Y120449943D01*
X24619047Y120449943D02*
X24666666Y120497562D01*
X24666666Y120497562D02*
X24761904Y120545181D01*
X24761904Y120545181D02*
X24999999Y120545181D01*
X24999999Y120545181D02*
X25142856Y120497562D01*
X25571428Y119926134D02*
X26333333Y119926134D01*
X27142856Y120068991D02*
X26809523Y120068991D01*
X26809523Y119545181D02*
X26809523Y120545181D01*
X26809523Y120545181D02*
X27285713Y120545181D01*
X28142856Y119545181D02*
X27666666Y119545181D01*
X27666666Y119545181D02*
X27666666Y120545181D01*
X28666666Y120021372D02*
X28666666Y119545181D01*
X28333333Y120545181D02*
X28666666Y120021372D01*
X28666666Y120021372D02*
X28999999Y120545181D01*
X29666666Y120068991D02*
X29809523Y120021372D01*
X29809523Y120021372D02*
X29857142Y119973753D01*
X29857142Y119973753D02*
X29904761Y119878515D01*
X29904761Y119878515D02*
X29904761Y119735658D01*
X29904761Y119735658D02*
X29857142Y119640420D01*
X29857142Y119640420D02*
X29809523Y119592800D01*
X29809523Y119592800D02*
X29714285Y119545181D01*
X29714285Y119545181D02*
X29333333Y119545181D01*
X29333333Y119545181D02*
X29333333Y120545181D01*
X29333333Y120545181D02*
X29666666Y120545181D01*
X29666666Y120545181D02*
X29761904Y120497562D01*
X29761904Y120497562D02*
X29809523Y120449943D01*
X29809523Y120449943D02*
X29857142Y120354705D01*
X29857142Y120354705D02*
X29857142Y120259467D01*
X29857142Y120259467D02*
X29809523Y120164229D01*
X29809523Y120164229D02*
X29761904Y120116610D01*
X29761904Y120116610D02*
X29666666Y120068991D01*
X29666666Y120068991D02*
X29333333Y120068991D01*
X30285714Y119830896D02*
X30761904Y119830896D01*
X30190476Y119545181D02*
X30523809Y120545181D01*
X30523809Y120545181D02*
X30857142Y119545181D01*
X31761904Y119640420D02*
X31714285Y119592800D01*
X31714285Y119592800D02*
X31571428Y119545181D01*
X31571428Y119545181D02*
X31476190Y119545181D01*
X31476190Y119545181D02*
X31333333Y119592800D01*
X31333333Y119592800D02*
X31238095Y119688039D01*
X31238095Y119688039D02*
X31190476Y119783277D01*
X31190476Y119783277D02*
X31142857Y119973753D01*
X31142857Y119973753D02*
X31142857Y120116610D01*
X31142857Y120116610D02*
X31190476Y120307086D01*
X31190476Y120307086D02*
X31238095Y120402324D01*
X31238095Y120402324D02*
X31333333Y120497562D01*
X31333333Y120497562D02*
X31476190Y120545181D01*
X31476190Y120545181D02*
X31571428Y120545181D01*
X31571428Y120545181D02*
X31714285Y120497562D01*
X31714285Y120497562D02*
X31761904Y120449943D01*
X32190476Y119545181D02*
X32190476Y120545181D01*
X32761904Y119545181D02*
X32333333Y120116610D01*
X32761904Y120545181D02*
X32190476Y119973753D01*
X33190476Y119926134D02*
X33952381Y119926134D01*
X34904761Y120545181D02*
X34428571Y120545181D01*
X34428571Y120545181D02*
X34380952Y120068991D01*
X34380952Y120068991D02*
X34428571Y120116610D01*
X34428571Y120116610D02*
X34523809Y120164229D01*
X34523809Y120164229D02*
X34761904Y120164229D01*
X34761904Y120164229D02*
X34857142Y120116610D01*
X34857142Y120116610D02*
X34904761Y120068991D01*
X34904761Y120068991D02*
X34952380Y119973753D01*
X34952380Y119973753D02*
X34952380Y119735658D01*
X34952380Y119735658D02*
X34904761Y119640420D01*
X34904761Y119640420D02*
X34857142Y119592800D01*
X34857142Y119592800D02*
X34761904Y119545181D01*
X34761904Y119545181D02*
X34523809Y119545181D01*
X34523809Y119545181D02*
X34428571Y119592800D01*
X34428571Y119592800D02*
X34380952Y119640420D01*
X35285714Y120545181D02*
X35523809Y119545181D01*
X35523809Y119545181D02*
X35714285Y120259467D01*
X35714285Y120259467D02*
X35904761Y119545181D01*
X35904761Y119545181D02*
X36142857Y120545181D01*
X37238095Y119830896D02*
X37714285Y119830896D01*
X37142857Y119545181D02*
X37476190Y120545181D01*
X37476190Y120545181D02*
X37809523Y119545181D01*
X38666666Y119545181D02*
X38095238Y119545181D01*
X38380952Y119545181D02*
X38380952Y120545181D01*
X38380952Y120545181D02*
X38285714Y120402324D01*
X38285714Y120402324D02*
X38190476Y120307086D01*
X38190476Y120307086D02*
X38095238Y120259467D01*
X40095238Y119211848D02*
X40095238Y120640420D01*
X42142857Y119545181D02*
X41809524Y120021372D01*
X41571429Y119545181D02*
X41571429Y120545181D01*
X41571429Y120545181D02*
X41952381Y120545181D01*
X41952381Y120545181D02*
X42047619Y120497562D01*
X42047619Y120497562D02*
X42095238Y120449943D01*
X42095238Y120449943D02*
X42142857Y120354705D01*
X42142857Y120354705D02*
X42142857Y120211848D01*
X42142857Y120211848D02*
X42095238Y120116610D01*
X42095238Y120116610D02*
X42047619Y120068991D01*
X42047619Y120068991D02*
X41952381Y120021372D01*
X41952381Y120021372D02*
X41571429Y120021372D01*
X42571429Y120068991D02*
X42904762Y120068991D01*
X43047619Y119545181D02*
X42571429Y119545181D01*
X42571429Y119545181D02*
X42571429Y120545181D01*
X42571429Y120545181D02*
X43047619Y120545181D01*
X43333334Y120545181D02*
X43666667Y119545181D01*
X43666667Y119545181D02*
X44000000Y120545181D01*
X44333334Y119545181D02*
X44333334Y120545181D01*
X44809524Y120068991D02*
X45142857Y120068991D01*
X45285714Y119545181D02*
X44809524Y119545181D01*
X44809524Y119545181D02*
X44809524Y120545181D01*
X44809524Y120545181D02*
X45285714Y120545181D01*
X45619048Y120545181D02*
X45857143Y119545181D01*
X45857143Y119545181D02*
X46047619Y120259467D01*
X46047619Y120259467D02*
X46238095Y119545181D01*
X46238095Y119545181D02*
X46476191Y120545181D01*
X28400000Y74498920D02*
X28400000Y75598920D01*
X28400000Y75598920D02*
X28819048Y75598920D01*
X28819048Y75598920D02*
X28923810Y75546539D01*
X28923810Y75546539D02*
X28976191Y75494158D01*
X28976191Y75494158D02*
X29028572Y75389396D01*
X29028572Y75389396D02*
X29028572Y75232253D01*
X29028572Y75232253D02*
X28976191Y75127491D01*
X28976191Y75127491D02*
X28923810Y75075110D01*
X28923810Y75075110D02*
X28819048Y75022729D01*
X28819048Y75022729D02*
X28400000Y75022729D01*
X30128572Y74603681D02*
X30076191Y74551300D01*
X30076191Y74551300D02*
X29919048Y74498920D01*
X29919048Y74498920D02*
X29814286Y74498920D01*
X29814286Y74498920D02*
X29657143Y74551300D01*
X29657143Y74551300D02*
X29552381Y74656062D01*
X29552381Y74656062D02*
X29500000Y74760824D01*
X29500000Y74760824D02*
X29447619Y74970348D01*
X29447619Y74970348D02*
X29447619Y75127491D01*
X29447619Y75127491D02*
X29500000Y75337015D01*
X29500000Y75337015D02*
X29552381Y75441777D01*
X29552381Y75441777D02*
X29657143Y75546539D01*
X29657143Y75546539D02*
X29814286Y75598920D01*
X29814286Y75598920D02*
X29919048Y75598920D01*
X29919048Y75598920D02*
X30076191Y75546539D01*
X30076191Y75546539D02*
X30128572Y75494158D01*
X30966667Y75075110D02*
X31123810Y75022729D01*
X31123810Y75022729D02*
X31176191Y74970348D01*
X31176191Y74970348D02*
X31228572Y74865586D01*
X31228572Y74865586D02*
X31228572Y74708443D01*
X31228572Y74708443D02*
X31176191Y74603681D01*
X31176191Y74603681D02*
X31123810Y74551300D01*
X31123810Y74551300D02*
X31019048Y74498920D01*
X31019048Y74498920D02*
X30600000Y74498920D01*
X30600000Y74498920D02*
X30600000Y75598920D01*
X30600000Y75598920D02*
X30966667Y75598920D01*
X30966667Y75598920D02*
X31071429Y75546539D01*
X31071429Y75546539D02*
X31123810Y75494158D01*
X31123810Y75494158D02*
X31176191Y75389396D01*
X31176191Y75389396D02*
X31176191Y75284634D01*
X31176191Y75284634D02*
X31123810Y75179872D01*
X31123810Y75179872D02*
X31071429Y75127491D01*
X31071429Y75127491D02*
X30966667Y75075110D01*
X30966667Y75075110D02*
X30600000Y75075110D01*
X32538095Y74498920D02*
X32538095Y75598920D01*
X32538095Y75598920D02*
X32957143Y75598920D01*
X32957143Y75598920D02*
X33061905Y75546539D01*
X33061905Y75546539D02*
X33114286Y75494158D01*
X33114286Y75494158D02*
X33166667Y75389396D01*
X33166667Y75389396D02*
X33166667Y75232253D01*
X33166667Y75232253D02*
X33114286Y75127491D01*
X33114286Y75127491D02*
X33061905Y75075110D01*
X33061905Y75075110D02*
X32957143Y75022729D01*
X32957143Y75022729D02*
X32538095Y75022729D01*
X34161905Y74498920D02*
X33638095Y74498920D01*
X33638095Y74498920D02*
X33638095Y75598920D01*
X34476190Y74813205D02*
X35000000Y74813205D01*
X34371428Y74498920D02*
X34738095Y75598920D01*
X34738095Y75598920D02*
X35104762Y74498920D01*
X35471428Y74498920D02*
X35471428Y75598920D01*
X35471428Y75598920D02*
X36100000Y74498920D01*
X36100000Y74498920D02*
X36100000Y75598920D01*
X36571428Y74813205D02*
X37095238Y74813205D01*
X36466666Y74498920D02*
X36833333Y75598920D01*
X36833333Y75598920D02*
X37200000Y74498920D01*
X38195238Y74498920D02*
X37828571Y75022729D01*
X37566666Y74498920D02*
X37566666Y75598920D01*
X37566666Y75598920D02*
X37985714Y75598920D01*
X37985714Y75598920D02*
X38090476Y75546539D01*
X38090476Y75546539D02*
X38142857Y75494158D01*
X38142857Y75494158D02*
X38195238Y75389396D01*
X38195238Y75389396D02*
X38195238Y75232253D01*
X38195238Y75232253D02*
X38142857Y75127491D01*
X38142857Y75127491D02*
X38090476Y75075110D01*
X38090476Y75075110D02*
X37985714Y75022729D01*
X37985714Y75022729D02*
X37566666Y75022729D01*
X39976190Y75232253D02*
X39976190Y74498920D01*
X39714285Y75651300D02*
X39452380Y74865586D01*
X39452380Y74865586D02*
X40133333Y74865586D01*
X40552380Y74603681D02*
X40604761Y74551300D01*
X40604761Y74551300D02*
X40552380Y74498920D01*
X40552380Y74498920D02*
X40499999Y74551300D01*
X40499999Y74551300D02*
X40552380Y74603681D01*
X40552380Y74603681D02*
X40552380Y74498920D01*
X40552380Y75179872D02*
X40604761Y75127491D01*
X40604761Y75127491D02*
X40552380Y75075110D01*
X40552380Y75075110D02*
X40499999Y75127491D01*
X40499999Y75127491D02*
X40552380Y75179872D01*
X40552380Y75179872D02*
X40552380Y75075110D01*
X41023809Y75494158D02*
X41076190Y75546539D01*
X41076190Y75546539D02*
X41180952Y75598920D01*
X41180952Y75598920D02*
X41442857Y75598920D01*
X41442857Y75598920D02*
X41547619Y75546539D01*
X41547619Y75546539D02*
X41600000Y75494158D01*
X41600000Y75494158D02*
X41652381Y75389396D01*
X41652381Y75389396D02*
X41652381Y75284634D01*
X41652381Y75284634D02*
X41600000Y75127491D01*
X41600000Y75127491D02*
X40971428Y74498920D01*
X40971428Y74498920D02*
X41652381Y74498920D01*
D11*
X19050000Y83876638D02*
X19007143Y83833780D01*
X19007143Y83833780D02*
X18878571Y83790923D01*
X18878571Y83790923D02*
X18792857Y83790923D01*
X18792857Y83790923D02*
X18664286Y83833780D01*
X18664286Y83833780D02*
X18578571Y83919495D01*
X18578571Y83919495D02*
X18535714Y84005209D01*
X18535714Y84005209D02*
X18492857Y84176638D01*
X18492857Y84176638D02*
X18492857Y84305209D01*
X18492857Y84305209D02*
X18535714Y84476638D01*
X18535714Y84476638D02*
X18578571Y84562352D01*
X18578571Y84562352D02*
X18664286Y84648066D01*
X18664286Y84648066D02*
X18792857Y84690923D01*
X18792857Y84690923D02*
X18878571Y84690923D01*
X18878571Y84690923D02*
X19007143Y84648066D01*
X19007143Y84648066D02*
X19050000Y84605209D01*
X19907143Y83790923D02*
X19392857Y83790923D01*
X19650000Y83790923D02*
X19650000Y84690923D01*
X19650000Y84690923D02*
X19564286Y84562352D01*
X19564286Y84562352D02*
X19478571Y84476638D01*
X19478571Y84476638D02*
X19392857Y84433780D01*
X34335714Y90890923D02*
X34335714Y91790923D01*
X34335714Y91790923D02*
X34550000Y91790923D01*
X34550000Y91790923D02*
X34678571Y91748066D01*
X34678571Y91748066D02*
X34764286Y91662352D01*
X34764286Y91662352D02*
X34807143Y91576638D01*
X34807143Y91576638D02*
X34850000Y91405209D01*
X34850000Y91405209D02*
X34850000Y91276638D01*
X34850000Y91276638D02*
X34807143Y91105209D01*
X34807143Y91105209D02*
X34764286Y91019495D01*
X34764286Y91019495D02*
X34678571Y90933780D01*
X34678571Y90933780D02*
X34550000Y90890923D01*
X34550000Y90890923D02*
X34335714Y90890923D01*
X35150000Y91790923D02*
X35707143Y91790923D01*
X35707143Y91790923D02*
X35407143Y91448066D01*
X35407143Y91448066D02*
X35535714Y91448066D01*
X35535714Y91448066D02*
X35621429Y91405209D01*
X35621429Y91405209D02*
X35664286Y91362352D01*
X35664286Y91362352D02*
X35707143Y91276638D01*
X35707143Y91276638D02*
X35707143Y91062352D01*
X35707143Y91062352D02*
X35664286Y90976638D01*
X35664286Y90976638D02*
X35621429Y90933780D01*
X35621429Y90933780D02*
X35535714Y90890923D01*
X35535714Y90890923D02*
X35278571Y90890923D01*
X35278571Y90890923D02*
X35192857Y90933780D01*
X35192857Y90933780D02*
X35150000Y90976638D01*
X13814285Y104690923D02*
X13814285Y105590923D01*
X13814285Y105162352D02*
X14328571Y105162352D01*
X14328571Y104690923D02*
X14328571Y105590923D01*
X15228571Y104690923D02*
X14714285Y104690923D01*
X14971428Y104690923D02*
X14971428Y105590923D01*
X14971428Y105590923D02*
X14885714Y105462352D01*
X14885714Y105462352D02*
X14799999Y105376638D01*
X14799999Y105376638D02*
X14714285Y105333780D01*
X25814285Y92690923D02*
X25814285Y91962352D01*
X25814285Y91962352D02*
X25857142Y91876638D01*
X25857142Y91876638D02*
X25900000Y91833780D01*
X25900000Y91833780D02*
X25985714Y91790923D01*
X25985714Y91790923D02*
X26157142Y91790923D01*
X26157142Y91790923D02*
X26242857Y91833780D01*
X26242857Y91833780D02*
X26285714Y91876638D01*
X26285714Y91876638D02*
X26328571Y91962352D01*
X26328571Y91962352D02*
X26328571Y92690923D01*
X27228571Y91790923D02*
X26714285Y91790923D01*
X26971428Y91790923D02*
X26971428Y92690923D01*
X26971428Y92690923D02*
X26885714Y92562352D01*
X26885714Y92562352D02*
X26799999Y92476638D01*
X26799999Y92476638D02*
X26714285Y92433780D01*
X38850000Y90876638D02*
X38807143Y90833780D01*
X38807143Y90833780D02*
X38678571Y90790923D01*
X38678571Y90790923D02*
X38592857Y90790923D01*
X38592857Y90790923D02*
X38464286Y90833780D01*
X38464286Y90833780D02*
X38378571Y90919495D01*
X38378571Y90919495D02*
X38335714Y91005209D01*
X38335714Y91005209D02*
X38292857Y91176638D01*
X38292857Y91176638D02*
X38292857Y91305209D01*
X38292857Y91305209D02*
X38335714Y91476638D01*
X38335714Y91476638D02*
X38378571Y91562352D01*
X38378571Y91562352D02*
X38464286Y91648066D01*
X38464286Y91648066D02*
X38592857Y91690923D01*
X38592857Y91690923D02*
X38678571Y91690923D01*
X38678571Y91690923D02*
X38807143Y91648066D01*
X38807143Y91648066D02*
X38850000Y91605209D01*
X39192857Y91605209D02*
X39235714Y91648066D01*
X39235714Y91648066D02*
X39321429Y91690923D01*
X39321429Y91690923D02*
X39535714Y91690923D01*
X39535714Y91690923D02*
X39621429Y91648066D01*
X39621429Y91648066D02*
X39664286Y91605209D01*
X39664286Y91605209D02*
X39707143Y91519495D01*
X39707143Y91519495D02*
X39707143Y91433780D01*
X39707143Y91433780D02*
X39664286Y91305209D01*
X39664286Y91305209D02*
X39150000Y90790923D01*
X39150000Y90790923D02*
X39707143Y90790923D01*
X41850000Y81290923D02*
X41550000Y81719495D01*
X41335714Y81290923D02*
X41335714Y82190923D01*
X41335714Y82190923D02*
X41678571Y82190923D01*
X41678571Y82190923D02*
X41764286Y82148066D01*
X41764286Y82148066D02*
X41807143Y82105209D01*
X41807143Y82105209D02*
X41850000Y82019495D01*
X41850000Y82019495D02*
X41850000Y81890923D01*
X41850000Y81890923D02*
X41807143Y81805209D01*
X41807143Y81805209D02*
X41764286Y81762352D01*
X41764286Y81762352D02*
X41678571Y81719495D01*
X41678571Y81719495D02*
X41335714Y81719495D01*
X42621429Y82190923D02*
X42450000Y82190923D01*
X42450000Y82190923D02*
X42364286Y82148066D01*
X42364286Y82148066D02*
X42321429Y82105209D01*
X42321429Y82105209D02*
X42235714Y81976638D01*
X42235714Y81976638D02*
X42192857Y81805209D01*
X42192857Y81805209D02*
X42192857Y81462352D01*
X42192857Y81462352D02*
X42235714Y81376638D01*
X42235714Y81376638D02*
X42278571Y81333780D01*
X42278571Y81333780D02*
X42364286Y81290923D01*
X42364286Y81290923D02*
X42535714Y81290923D01*
X42535714Y81290923D02*
X42621429Y81333780D01*
X42621429Y81333780D02*
X42664286Y81376638D01*
X42664286Y81376638D02*
X42707143Y81462352D01*
X42707143Y81462352D02*
X42707143Y81676638D01*
X42707143Y81676638D02*
X42664286Y81762352D01*
X42664286Y81762352D02*
X42621429Y81805209D01*
X42621429Y81805209D02*
X42535714Y81848066D01*
X42535714Y81848066D02*
X42364286Y81848066D01*
X42364286Y81848066D02*
X42278571Y81805209D01*
X42278571Y81805209D02*
X42235714Y81762352D01*
X42235714Y81762352D02*
X42192857Y81676638D01*
X28700000Y18490923D02*
X28700000Y17848066D01*
X28700000Y17848066D02*
X28657143Y17719495D01*
X28657143Y17719495D02*
X28571429Y17633780D01*
X28571429Y17633780D02*
X28442857Y17590923D01*
X28442857Y17590923D02*
X28357143Y17590923D01*
X29085714Y18405209D02*
X29128571Y18448066D01*
X29128571Y18448066D02*
X29214286Y18490923D01*
X29214286Y18490923D02*
X29428571Y18490923D01*
X29428571Y18490923D02*
X29514286Y18448066D01*
X29514286Y18448066D02*
X29557143Y18405209D01*
X29557143Y18405209D02*
X29600000Y18319495D01*
X29600000Y18319495D02*
X29600000Y18233780D01*
X29600000Y18233780D02*
X29557143Y18105209D01*
X29557143Y18105209D02*
X29042857Y17590923D01*
X29042857Y17590923D02*
X29600000Y17590923D01*
X54814285Y18490923D02*
X54814285Y19390923D01*
X54814285Y18962352D02*
X55328571Y18962352D01*
X55328571Y18490923D02*
X55328571Y19390923D01*
X56142857Y19090923D02*
X56142857Y18490923D01*
X55928571Y19433780D02*
X55714285Y18790923D01*
X55714285Y18790923D02*
X56271428Y18790923D01*
X54814285Y104690923D02*
X54814285Y105590923D01*
X54814285Y105162352D02*
X55328571Y105162352D01*
X55328571Y104690923D02*
X55328571Y105590923D01*
X55714285Y105505209D02*
X55757142Y105548066D01*
X55757142Y105548066D02*
X55842857Y105590923D01*
X55842857Y105590923D02*
X56057142Y105590923D01*
X56057142Y105590923D02*
X56142857Y105548066D01*
X56142857Y105548066D02*
X56185714Y105505209D01*
X56185714Y105505209D02*
X56228571Y105419495D01*
X56228571Y105419495D02*
X56228571Y105333780D01*
X56228571Y105333780D02*
X56185714Y105205209D01*
X56185714Y105205209D02*
X55671428Y104690923D01*
X55671428Y104690923D02*
X56228571Y104690923D01*
X28350000Y97090923D02*
X28050000Y97519495D01*
X27835714Y97090923D02*
X27835714Y97990923D01*
X27835714Y97990923D02*
X28178571Y97990923D01*
X28178571Y97990923D02*
X28264286Y97948066D01*
X28264286Y97948066D02*
X28307143Y97905209D01*
X28307143Y97905209D02*
X28350000Y97819495D01*
X28350000Y97819495D02*
X28350000Y97690923D01*
X28350000Y97690923D02*
X28307143Y97605209D01*
X28307143Y97605209D02*
X28264286Y97562352D01*
X28264286Y97562352D02*
X28178571Y97519495D01*
X28178571Y97519495D02*
X27835714Y97519495D01*
X28692857Y97905209D02*
X28735714Y97948066D01*
X28735714Y97948066D02*
X28821429Y97990923D01*
X28821429Y97990923D02*
X29035714Y97990923D01*
X29035714Y97990923D02*
X29121429Y97948066D01*
X29121429Y97948066D02*
X29164286Y97905209D01*
X29164286Y97905209D02*
X29207143Y97819495D01*
X29207143Y97819495D02*
X29207143Y97733780D01*
X29207143Y97733780D02*
X29164286Y97605209D01*
X29164286Y97605209D02*
X28650000Y97090923D01*
X28650000Y97090923D02*
X29207143Y97090923D01*
D12*
X27628570Y80359955D02*
X27666666Y80398050D01*
X27666666Y80398050D02*
X27742856Y80436145D01*
X27742856Y80436145D02*
X27933332Y80436145D01*
X27933332Y80436145D02*
X28009523Y80398050D01*
X28009523Y80398050D02*
X28047618Y80359955D01*
X28047618Y80359955D02*
X28085713Y80283764D01*
X28085713Y80283764D02*
X28085713Y80207574D01*
X28085713Y80207574D02*
X28047618Y80093288D01*
X28047618Y80093288D02*
X27590475Y79636145D01*
X27590475Y79636145D02*
X28085713Y79636145D01*
X28999999Y79674240D02*
X29114285Y79636145D01*
X29114285Y79636145D02*
X29304761Y79636145D01*
X29304761Y79636145D02*
X29380952Y79674240D01*
X29380952Y79674240D02*
X29419047Y79712336D01*
X29419047Y79712336D02*
X29457142Y79788526D01*
X29457142Y79788526D02*
X29457142Y79864717D01*
X29457142Y79864717D02*
X29419047Y79940907D01*
X29419047Y79940907D02*
X29380952Y79979002D01*
X29380952Y79979002D02*
X29304761Y80017098D01*
X29304761Y80017098D02*
X29152380Y80055193D01*
X29152380Y80055193D02*
X29076190Y80093288D01*
X29076190Y80093288D02*
X29038095Y80131383D01*
X29038095Y80131383D02*
X28999999Y80207574D01*
X28999999Y80207574D02*
X28999999Y80283764D01*
X28999999Y80283764D02*
X29038095Y80359955D01*
X29038095Y80359955D02*
X29076190Y80398050D01*
X29076190Y80398050D02*
X29152380Y80436145D01*
X29152380Y80436145D02*
X29342857Y80436145D01*
X29342857Y80436145D02*
X29457142Y80398050D01*
X29723809Y80436145D02*
X29914285Y79636145D01*
X29914285Y79636145D02*
X30066666Y80207574D01*
X30066666Y80207574D02*
X30219047Y79636145D01*
X30219047Y79636145D02*
X30409524Y80436145D01*
X30209523Y41436145D02*
X30704761Y41436145D01*
X30704761Y41436145D02*
X30438095Y41131383D01*
X30438095Y41131383D02*
X30552380Y41131383D01*
X30552380Y41131383D02*
X30628571Y41093288D01*
X30628571Y41093288D02*
X30666666Y41055193D01*
X30666666Y41055193D02*
X30704761Y40979002D01*
X30704761Y40979002D02*
X30704761Y40788526D01*
X30704761Y40788526D02*
X30666666Y40712336D01*
X30666666Y40712336D02*
X30628571Y40674240D01*
X30628571Y40674240D02*
X30552380Y40636145D01*
X30552380Y40636145D02*
X30323809Y40636145D01*
X30323809Y40636145D02*
X30247618Y40674240D01*
X30247618Y40674240D02*
X30209523Y40712336D01*
X32076190Y41398050D02*
X32000000Y41436145D01*
X32000000Y41436145D02*
X31885714Y41436145D01*
X31885714Y41436145D02*
X31771428Y41398050D01*
X31771428Y41398050D02*
X31695238Y41321860D01*
X31695238Y41321860D02*
X31657143Y41245669D01*
X31657143Y41245669D02*
X31619047Y41093288D01*
X31619047Y41093288D02*
X31619047Y40979002D01*
X31619047Y40979002D02*
X31657143Y40826621D01*
X31657143Y40826621D02*
X31695238Y40750431D01*
X31695238Y40750431D02*
X31771428Y40674240D01*
X31771428Y40674240D02*
X31885714Y40636145D01*
X31885714Y40636145D02*
X31961905Y40636145D01*
X31961905Y40636145D02*
X32076190Y40674240D01*
X32076190Y40674240D02*
X32114286Y40712336D01*
X32114286Y40712336D02*
X32114286Y40979002D01*
X32114286Y40979002D02*
X31961905Y40979002D01*
X32457143Y40636145D02*
X32457143Y41436145D01*
X32457143Y41436145D02*
X32914286Y40636145D01*
X32914286Y40636145D02*
X32914286Y41436145D01*
X33295238Y40636145D02*
X33295238Y41436145D01*
X33295238Y41436145D02*
X33485714Y41436145D01*
X33485714Y41436145D02*
X33600000Y41398050D01*
X33600000Y41398050D02*
X33676190Y41321860D01*
X33676190Y41321860D02*
X33714285Y41245669D01*
X33714285Y41245669D02*
X33752381Y41093288D01*
X33752381Y41093288D02*
X33752381Y40979002D01*
X33752381Y40979002D02*
X33714285Y40826621D01*
X33714285Y40826621D02*
X33676190Y40750431D01*
X33676190Y40750431D02*
X33600000Y40674240D01*
X33600000Y40674240D02*
X33485714Y40636145D01*
X33485714Y40636145D02*
X33295238Y40636145D01*
X37704761Y49369479D02*
X37704761Y48836145D01*
X37514285Y49674240D02*
X37323808Y49102812D01*
X37323808Y49102812D02*
X37819047Y49102812D01*
X38695237Y48874240D02*
X38809523Y48836145D01*
X38809523Y48836145D02*
X38999999Y48836145D01*
X38999999Y48836145D02*
X39076190Y48874240D01*
X39076190Y48874240D02*
X39114285Y48912336D01*
X39114285Y48912336D02*
X39152380Y48988526D01*
X39152380Y48988526D02*
X39152380Y49064717D01*
X39152380Y49064717D02*
X39114285Y49140907D01*
X39114285Y49140907D02*
X39076190Y49179002D01*
X39076190Y49179002D02*
X38999999Y49217098D01*
X38999999Y49217098D02*
X38847618Y49255193D01*
X38847618Y49255193D02*
X38771428Y49293288D01*
X38771428Y49293288D02*
X38733333Y49331383D01*
X38733333Y49331383D02*
X38695237Y49407574D01*
X38695237Y49407574D02*
X38695237Y49483764D01*
X38695237Y49483764D02*
X38733333Y49559955D01*
X38733333Y49559955D02*
X38771428Y49598050D01*
X38771428Y49598050D02*
X38847618Y49636145D01*
X38847618Y49636145D02*
X39038095Y49636145D01*
X39038095Y49636145D02*
X39152380Y49598050D01*
X39495238Y49255193D02*
X39761904Y49255193D01*
X39876190Y48836145D02*
X39495238Y48836145D01*
X39495238Y48836145D02*
X39495238Y49636145D01*
X39495238Y49636145D02*
X39876190Y49636145D01*
X40676191Y48912336D02*
X40638095Y48874240D01*
X40638095Y48874240D02*
X40523810Y48836145D01*
X40523810Y48836145D02*
X40447619Y48836145D01*
X40447619Y48836145D02*
X40333333Y48874240D01*
X40333333Y48874240D02*
X40257143Y48950431D01*
X40257143Y48950431D02*
X40219048Y49026621D01*
X40219048Y49026621D02*
X40180952Y49179002D01*
X40180952Y49179002D02*
X40180952Y49293288D01*
X40180952Y49293288D02*
X40219048Y49445669D01*
X40219048Y49445669D02*
X40257143Y49521860D01*
X40257143Y49521860D02*
X40333333Y49598050D01*
X40333333Y49598050D02*
X40447619Y49636145D01*
X40447619Y49636145D02*
X40523810Y49636145D01*
X40523810Y49636145D02*
X40638095Y49598050D01*
X40638095Y49598050D02*
X40676191Y49559955D01*
X40971428Y79636145D02*
X40514285Y79636145D01*
X40742857Y79636145D02*
X40742857Y80436145D01*
X40742857Y80436145D02*
X40666666Y80321860D01*
X40666666Y80321860D02*
X40590476Y80245669D01*
X40590476Y80245669D02*
X40514285Y80207574D01*
X41809524Y80436145D02*
X42076191Y79636145D01*
X42076191Y79636145D02*
X42342857Y80436145D01*
X42609524Y79636145D02*
X42609524Y80436145D01*
X42990476Y79636145D02*
X42990476Y80436145D01*
X42990476Y80436145D02*
X43447619Y79636145D01*
X43447619Y79636145D02*
X43447619Y80436145D01*
D11*
X33150000Y89890923D02*
X32850000Y90319495D01*
X32635714Y89890923D02*
X32635714Y90790923D01*
X32635714Y90790923D02*
X32978571Y90790923D01*
X32978571Y90790923D02*
X33064286Y90748066D01*
X33064286Y90748066D02*
X33107143Y90705209D01*
X33107143Y90705209D02*
X33150000Y90619495D01*
X33150000Y90619495D02*
X33150000Y90490923D01*
X33150000Y90490923D02*
X33107143Y90405209D01*
X33107143Y90405209D02*
X33064286Y90362352D01*
X33064286Y90362352D02*
X32978571Y90319495D01*
X32978571Y90319495D02*
X32635714Y90319495D01*
X33921429Y90490923D02*
X33921429Y89890923D01*
X33707143Y90833780D02*
X33492857Y90190923D01*
X33492857Y90190923D02*
X34050000Y90190923D01*
X24850000Y23876638D02*
X24807143Y23833780D01*
X24807143Y23833780D02*
X24678571Y23790923D01*
X24678571Y23790923D02*
X24592857Y23790923D01*
X24592857Y23790923D02*
X24464286Y23833780D01*
X24464286Y23833780D02*
X24378571Y23919495D01*
X24378571Y23919495D02*
X24335714Y24005209D01*
X24335714Y24005209D02*
X24292857Y24176638D01*
X24292857Y24176638D02*
X24292857Y24305209D01*
X24292857Y24305209D02*
X24335714Y24476638D01*
X24335714Y24476638D02*
X24378571Y24562352D01*
X24378571Y24562352D02*
X24464286Y24648066D01*
X24464286Y24648066D02*
X24592857Y24690923D01*
X24592857Y24690923D02*
X24678571Y24690923D01*
X24678571Y24690923D02*
X24807143Y24648066D01*
X24807143Y24648066D02*
X24850000Y24605209D01*
X25364286Y24305209D02*
X25278571Y24348066D01*
X25278571Y24348066D02*
X25235714Y24390923D01*
X25235714Y24390923D02*
X25192857Y24476638D01*
X25192857Y24476638D02*
X25192857Y24519495D01*
X25192857Y24519495D02*
X25235714Y24605209D01*
X25235714Y24605209D02*
X25278571Y24648066D01*
X25278571Y24648066D02*
X25364286Y24690923D01*
X25364286Y24690923D02*
X25535714Y24690923D01*
X25535714Y24690923D02*
X25621429Y24648066D01*
X25621429Y24648066D02*
X25664286Y24605209D01*
X25664286Y24605209D02*
X25707143Y24519495D01*
X25707143Y24519495D02*
X25707143Y24476638D01*
X25707143Y24476638D02*
X25664286Y24390923D01*
X25664286Y24390923D02*
X25621429Y24348066D01*
X25621429Y24348066D02*
X25535714Y24305209D01*
X25535714Y24305209D02*
X25364286Y24305209D01*
X25364286Y24305209D02*
X25278571Y24262352D01*
X25278571Y24262352D02*
X25235714Y24219495D01*
X25235714Y24219495D02*
X25192857Y24133780D01*
X25192857Y24133780D02*
X25192857Y23962352D01*
X25192857Y23962352D02*
X25235714Y23876638D01*
X25235714Y23876638D02*
X25278571Y23833780D01*
X25278571Y23833780D02*
X25364286Y23790923D01*
X25364286Y23790923D02*
X25535714Y23790923D01*
X25535714Y23790923D02*
X25621429Y23833780D01*
X25621429Y23833780D02*
X25664286Y23876638D01*
X25664286Y23876638D02*
X25707143Y23962352D01*
X25707143Y23962352D02*
X25707143Y24133780D01*
X25707143Y24133780D02*
X25664286Y24219495D01*
X25664286Y24219495D02*
X25621429Y24262352D01*
X25621429Y24262352D02*
X25535714Y24305209D01*
X32135714Y36590923D02*
X32135714Y37490923D01*
X32135714Y37490923D02*
X32350000Y37490923D01*
X32350000Y37490923D02*
X32478571Y37448066D01*
X32478571Y37448066D02*
X32564286Y37362352D01*
X32564286Y37362352D02*
X32607143Y37276638D01*
X32607143Y37276638D02*
X32650000Y37105209D01*
X32650000Y37105209D02*
X32650000Y36976638D01*
X32650000Y36976638D02*
X32607143Y36805209D01*
X32607143Y36805209D02*
X32564286Y36719495D01*
X32564286Y36719495D02*
X32478571Y36633780D01*
X32478571Y36633780D02*
X32350000Y36590923D01*
X32350000Y36590923D02*
X32135714Y36590923D01*
X32992857Y37405209D02*
X33035714Y37448066D01*
X33035714Y37448066D02*
X33121429Y37490923D01*
X33121429Y37490923D02*
X33335714Y37490923D01*
X33335714Y37490923D02*
X33421429Y37448066D01*
X33421429Y37448066D02*
X33464286Y37405209D01*
X33464286Y37405209D02*
X33507143Y37319495D01*
X33507143Y37319495D02*
X33507143Y37233780D01*
X33507143Y37233780D02*
X33464286Y37105209D01*
X33464286Y37105209D02*
X32950000Y36590923D01*
X32950000Y36590923D02*
X33507143Y36590923D01*
X45850000Y92176638D02*
X45807143Y92133780D01*
X45807143Y92133780D02*
X45678571Y92090923D01*
X45678571Y92090923D02*
X45592857Y92090923D01*
X45592857Y92090923D02*
X45464286Y92133780D01*
X45464286Y92133780D02*
X45378571Y92219495D01*
X45378571Y92219495D02*
X45335714Y92305209D01*
X45335714Y92305209D02*
X45292857Y92476638D01*
X45292857Y92476638D02*
X45292857Y92605209D01*
X45292857Y92605209D02*
X45335714Y92776638D01*
X45335714Y92776638D02*
X45378571Y92862352D01*
X45378571Y92862352D02*
X45464286Y92948066D01*
X45464286Y92948066D02*
X45592857Y92990923D01*
X45592857Y92990923D02*
X45678571Y92990923D01*
X45678571Y92990923D02*
X45807143Y92948066D01*
X45807143Y92948066D02*
X45850000Y92905209D01*
X46150000Y92990923D02*
X46750000Y92990923D01*
X46750000Y92990923D02*
X46364286Y92090923D01*
X46550000Y28090923D02*
X46250000Y28519495D01*
X46035714Y28090923D02*
X46035714Y28990923D01*
X46035714Y28990923D02*
X46378571Y28990923D01*
X46378571Y28990923D02*
X46464286Y28948066D01*
X46464286Y28948066D02*
X46507143Y28905209D01*
X46507143Y28905209D02*
X46550000Y28819495D01*
X46550000Y28819495D02*
X46550000Y28690923D01*
X46550000Y28690923D02*
X46507143Y28605209D01*
X46507143Y28605209D02*
X46464286Y28562352D01*
X46464286Y28562352D02*
X46378571Y28519495D01*
X46378571Y28519495D02*
X46035714Y28519495D01*
X46850000Y28990923D02*
X47450000Y28990923D01*
X47450000Y28990923D02*
X47064286Y28090923D01*
X25350000Y97090923D02*
X25050000Y97519495D01*
X24835714Y97090923D02*
X24835714Y97990923D01*
X24835714Y97990923D02*
X25178571Y97990923D01*
X25178571Y97990923D02*
X25264286Y97948066D01*
X25264286Y97948066D02*
X25307143Y97905209D01*
X25307143Y97905209D02*
X25350000Y97819495D01*
X25350000Y97819495D02*
X25350000Y97690923D01*
X25350000Y97690923D02*
X25307143Y97605209D01*
X25307143Y97605209D02*
X25264286Y97562352D01*
X25264286Y97562352D02*
X25178571Y97519495D01*
X25178571Y97519495D02*
X24835714Y97519495D01*
X26207143Y97090923D02*
X25692857Y97090923D01*
X25950000Y97090923D02*
X25950000Y97990923D01*
X25950000Y97990923D02*
X25864286Y97862352D01*
X25864286Y97862352D02*
X25778571Y97776638D01*
X25778571Y97776638D02*
X25692857Y97733780D01*
X34850000Y81476638D02*
X34807143Y81433780D01*
X34807143Y81433780D02*
X34678571Y81390923D01*
X34678571Y81390923D02*
X34592857Y81390923D01*
X34592857Y81390923D02*
X34464286Y81433780D01*
X34464286Y81433780D02*
X34378571Y81519495D01*
X34378571Y81519495D02*
X34335714Y81605209D01*
X34335714Y81605209D02*
X34292857Y81776638D01*
X34292857Y81776638D02*
X34292857Y81905209D01*
X34292857Y81905209D02*
X34335714Y82076638D01*
X34335714Y82076638D02*
X34378571Y82162352D01*
X34378571Y82162352D02*
X34464286Y82248066D01*
X34464286Y82248066D02*
X34592857Y82290923D01*
X34592857Y82290923D02*
X34678571Y82290923D01*
X34678571Y82290923D02*
X34807143Y82248066D01*
X34807143Y82248066D02*
X34850000Y82205209D01*
X35621429Y82290923D02*
X35450000Y82290923D01*
X35450000Y82290923D02*
X35364286Y82248066D01*
X35364286Y82248066D02*
X35321429Y82205209D01*
X35321429Y82205209D02*
X35235714Y82076638D01*
X35235714Y82076638D02*
X35192857Y81905209D01*
X35192857Y81905209D02*
X35192857Y81562352D01*
X35192857Y81562352D02*
X35235714Y81476638D01*
X35235714Y81476638D02*
X35278571Y81433780D01*
X35278571Y81433780D02*
X35364286Y81390923D01*
X35364286Y81390923D02*
X35535714Y81390923D01*
X35535714Y81390923D02*
X35621429Y81433780D01*
X35621429Y81433780D02*
X35664286Y81476638D01*
X35664286Y81476638D02*
X35707143Y81562352D01*
X35707143Y81562352D02*
X35707143Y81776638D01*
X35707143Y81776638D02*
X35664286Y81862352D01*
X35664286Y81862352D02*
X35621429Y81905209D01*
X35621429Y81905209D02*
X35535714Y81948066D01*
X35535714Y81948066D02*
X35364286Y81948066D01*
X35364286Y81948066D02*
X35278571Y81905209D01*
X35278571Y81905209D02*
X35235714Y81862352D01*
X35235714Y81862352D02*
X35192857Y81776638D01*
X31500000Y85490923D02*
X31200000Y85919495D01*
X30985714Y85490923D02*
X30985714Y86390923D01*
X30985714Y86390923D02*
X31328571Y86390923D01*
X31328571Y86390923D02*
X31414286Y86348066D01*
X31414286Y86348066D02*
X31457143Y86305209D01*
X31457143Y86305209D02*
X31500000Y86219495D01*
X31500000Y86219495D02*
X31500000Y86090923D01*
X31500000Y86090923D02*
X31457143Y86005209D01*
X31457143Y86005209D02*
X31414286Y85962352D01*
X31414286Y85962352D02*
X31328571Y85919495D01*
X31328571Y85919495D02*
X30985714Y85919495D01*
X31800000Y86390923D02*
X32357143Y86390923D01*
X32357143Y86390923D02*
X32057143Y86048066D01*
X32057143Y86048066D02*
X32185714Y86048066D01*
X32185714Y86048066D02*
X32271429Y86005209D01*
X32271429Y86005209D02*
X32314286Y85962352D01*
X32314286Y85962352D02*
X32357143Y85876638D01*
X32357143Y85876638D02*
X32357143Y85662352D01*
X32357143Y85662352D02*
X32314286Y85576638D01*
X32314286Y85576638D02*
X32271429Y85533780D01*
X32271429Y85533780D02*
X32185714Y85490923D01*
X32185714Y85490923D02*
X31928571Y85490923D01*
X31928571Y85490923D02*
X31842857Y85533780D01*
X31842857Y85533780D02*
X31800000Y85576638D01*
X25199999Y109262352D02*
X24899999Y109262352D01*
X24899999Y108790923D02*
X24899999Y109690923D01*
X24899999Y109690923D02*
X25328571Y109690923D01*
X26142857Y108790923D02*
X25628571Y108790923D01*
X25885714Y108790923D02*
X25885714Y109690923D01*
X25885714Y109690923D02*
X25800000Y109562352D01*
X25800000Y109562352D02*
X25714285Y109476638D01*
X25714285Y109476638D02*
X25628571Y109433780D01*
X41350000Y37676638D02*
X41307143Y37633780D01*
X41307143Y37633780D02*
X41178571Y37590923D01*
X41178571Y37590923D02*
X41092857Y37590923D01*
X41092857Y37590923D02*
X40964286Y37633780D01*
X40964286Y37633780D02*
X40878571Y37719495D01*
X40878571Y37719495D02*
X40835714Y37805209D01*
X40835714Y37805209D02*
X40792857Y37976638D01*
X40792857Y37976638D02*
X40792857Y38105209D01*
X40792857Y38105209D02*
X40835714Y38276638D01*
X40835714Y38276638D02*
X40878571Y38362352D01*
X40878571Y38362352D02*
X40964286Y38448066D01*
X40964286Y38448066D02*
X41092857Y38490923D01*
X41092857Y38490923D02*
X41178571Y38490923D01*
X41178571Y38490923D02*
X41307143Y38448066D01*
X41307143Y38448066D02*
X41350000Y38405209D01*
X42121429Y38190923D02*
X42121429Y37590923D01*
X41907143Y38533780D02*
X41692857Y37890923D01*
X41692857Y37890923D02*
X42250000Y37890923D01*
X18835714Y100590923D02*
X18835714Y101490923D01*
X18835714Y101490923D02*
X19050000Y101490923D01*
X19050000Y101490923D02*
X19178571Y101448066D01*
X19178571Y101448066D02*
X19264286Y101362352D01*
X19264286Y101362352D02*
X19307143Y101276638D01*
X19307143Y101276638D02*
X19350000Y101105209D01*
X19350000Y101105209D02*
X19350000Y100976638D01*
X19350000Y100976638D02*
X19307143Y100805209D01*
X19307143Y100805209D02*
X19264286Y100719495D01*
X19264286Y100719495D02*
X19178571Y100633780D01*
X19178571Y100633780D02*
X19050000Y100590923D01*
X19050000Y100590923D02*
X18835714Y100590923D01*
X20207143Y100590923D02*
X19692857Y100590923D01*
X19950000Y100590923D02*
X19950000Y101490923D01*
X19950000Y101490923D02*
X19864286Y101362352D01*
X19864286Y101362352D02*
X19778571Y101276638D01*
X19778571Y101276638D02*
X19692857Y101233780D01*
X19450000Y89376638D02*
X19407143Y89333780D01*
X19407143Y89333780D02*
X19278571Y89290923D01*
X19278571Y89290923D02*
X19192857Y89290923D01*
X19192857Y89290923D02*
X19064286Y89333780D01*
X19064286Y89333780D02*
X18978571Y89419495D01*
X18978571Y89419495D02*
X18935714Y89505209D01*
X18935714Y89505209D02*
X18892857Y89676638D01*
X18892857Y89676638D02*
X18892857Y89805209D01*
X18892857Y89805209D02*
X18935714Y89976638D01*
X18935714Y89976638D02*
X18978571Y90062352D01*
X18978571Y90062352D02*
X19064286Y90148066D01*
X19064286Y90148066D02*
X19192857Y90190923D01*
X19192857Y90190923D02*
X19278571Y90190923D01*
X19278571Y90190923D02*
X19407143Y90148066D01*
X19407143Y90148066D02*
X19450000Y90105209D01*
X20264286Y90190923D02*
X19835714Y90190923D01*
X19835714Y90190923D02*
X19792857Y89762352D01*
X19792857Y89762352D02*
X19835714Y89805209D01*
X19835714Y89805209D02*
X19921429Y89848066D01*
X19921429Y89848066D02*
X20135714Y89848066D01*
X20135714Y89848066D02*
X20221429Y89805209D01*
X20221429Y89805209D02*
X20264286Y89762352D01*
X20264286Y89762352D02*
X20307143Y89676638D01*
X20307143Y89676638D02*
X20307143Y89462352D01*
X20307143Y89462352D02*
X20264286Y89376638D01*
X20264286Y89376638D02*
X20221429Y89333780D01*
X20221429Y89333780D02*
X20135714Y89290923D01*
X20135714Y89290923D02*
X19921429Y89290923D01*
X19921429Y89290923D02*
X19835714Y89333780D01*
X19835714Y89333780D02*
X19792857Y89376638D01*
X31050000Y92090923D02*
X30750000Y92519495D01*
X30535714Y92090923D02*
X30535714Y92990923D01*
X30535714Y92990923D02*
X30878571Y92990923D01*
X30878571Y92990923D02*
X30964286Y92948066D01*
X30964286Y92948066D02*
X31007143Y92905209D01*
X31007143Y92905209D02*
X31050000Y92819495D01*
X31050000Y92819495D02*
X31050000Y92690923D01*
X31050000Y92690923D02*
X31007143Y92605209D01*
X31007143Y92605209D02*
X30964286Y92562352D01*
X30964286Y92562352D02*
X30878571Y92519495D01*
X30878571Y92519495D02*
X30535714Y92519495D01*
X31864286Y92990923D02*
X31435714Y92990923D01*
X31435714Y92990923D02*
X31392857Y92562352D01*
X31392857Y92562352D02*
X31435714Y92605209D01*
X31435714Y92605209D02*
X31521429Y92648066D01*
X31521429Y92648066D02*
X31735714Y92648066D01*
X31735714Y92648066D02*
X31821429Y92605209D01*
X31821429Y92605209D02*
X31864286Y92562352D01*
X31864286Y92562352D02*
X31907143Y92476638D01*
X31907143Y92476638D02*
X31907143Y92262352D01*
X31907143Y92262352D02*
X31864286Y92176638D01*
X31864286Y92176638D02*
X31821429Y92133780D01*
X31821429Y92133780D02*
X31735714Y92090923D01*
X31735714Y92090923D02*
X31521429Y92090923D01*
X31521429Y92090923D02*
X31435714Y92133780D01*
X31435714Y92133780D02*
X31392857Y92176638D01*
X46635714Y85690923D02*
X46635714Y86590923D01*
X46635714Y86590923D02*
X46850000Y86590923D01*
X46850000Y86590923D02*
X46978571Y86548066D01*
X46978571Y86548066D02*
X47064286Y86462352D01*
X47064286Y86462352D02*
X47107143Y86376638D01*
X47107143Y86376638D02*
X47150000Y86205209D01*
X47150000Y86205209D02*
X47150000Y86076638D01*
X47150000Y86076638D02*
X47107143Y85905209D01*
X47107143Y85905209D02*
X47064286Y85819495D01*
X47064286Y85819495D02*
X46978571Y85733780D01*
X46978571Y85733780D02*
X46850000Y85690923D01*
X46850000Y85690923D02*
X46635714Y85690923D01*
X47921429Y86290923D02*
X47921429Y85690923D01*
X47707143Y86633780D02*
X47492857Y85990923D01*
X47492857Y85990923D02*
X48050000Y85990923D01*
X31850000Y24076638D02*
X31807143Y24033780D01*
X31807143Y24033780D02*
X31678571Y23990923D01*
X31678571Y23990923D02*
X31592857Y23990923D01*
X31592857Y23990923D02*
X31464286Y24033780D01*
X31464286Y24033780D02*
X31378571Y24119495D01*
X31378571Y24119495D02*
X31335714Y24205209D01*
X31335714Y24205209D02*
X31292857Y24376638D01*
X31292857Y24376638D02*
X31292857Y24505209D01*
X31292857Y24505209D02*
X31335714Y24676638D01*
X31335714Y24676638D02*
X31378571Y24762352D01*
X31378571Y24762352D02*
X31464286Y24848066D01*
X31464286Y24848066D02*
X31592857Y24890923D01*
X31592857Y24890923D02*
X31678571Y24890923D01*
X31678571Y24890923D02*
X31807143Y24848066D01*
X31807143Y24848066D02*
X31850000Y24805209D01*
X32150000Y24890923D02*
X32707143Y24890923D01*
X32707143Y24890923D02*
X32407143Y24548066D01*
X32407143Y24548066D02*
X32535714Y24548066D01*
X32535714Y24548066D02*
X32621429Y24505209D01*
X32621429Y24505209D02*
X32664286Y24462352D01*
X32664286Y24462352D02*
X32707143Y24376638D01*
X32707143Y24376638D02*
X32707143Y24162352D01*
X32707143Y24162352D02*
X32664286Y24076638D01*
X32664286Y24076638D02*
X32621429Y24033780D01*
X32621429Y24033780D02*
X32535714Y23990923D01*
X32535714Y23990923D02*
X32278571Y23990923D01*
X32278571Y23990923D02*
X32192857Y24033780D01*
X32192857Y24033780D02*
X32150000Y24076638D01*
X13814285Y18490923D02*
X13814285Y19390923D01*
X13814285Y18962352D02*
X14328571Y18962352D01*
X14328571Y18490923D02*
X14328571Y19390923D01*
X14671428Y19390923D02*
X15228571Y19390923D01*
X15228571Y19390923D02*
X14928571Y19048066D01*
X14928571Y19048066D02*
X15057142Y19048066D01*
X15057142Y19048066D02*
X15142857Y19005209D01*
X15142857Y19005209D02*
X15185714Y18962352D01*
X15185714Y18962352D02*
X15228571Y18876638D01*
X15228571Y18876638D02*
X15228571Y18662352D01*
X15228571Y18662352D02*
X15185714Y18576638D01*
X15185714Y18576638D02*
X15142857Y18533780D01*
X15142857Y18533780D02*
X15057142Y18490923D01*
X15057142Y18490923D02*
X14799999Y18490923D01*
X14799999Y18490923D02*
X14714285Y18533780D01*
X14714285Y18533780D02*
X14671428Y18576638D01*
X43200000Y108990923D02*
X43200000Y108348066D01*
X43200000Y108348066D02*
X43157143Y108219495D01*
X43157143Y108219495D02*
X43071429Y108133780D01*
X43071429Y108133780D02*
X42942857Y108090923D01*
X42942857Y108090923D02*
X42857143Y108090923D01*
X44100000Y108090923D02*
X43585714Y108090923D01*
X43842857Y108090923D02*
X43842857Y108990923D01*
X43842857Y108990923D02*
X43757143Y108862352D01*
X43757143Y108862352D02*
X43671428Y108776638D01*
X43671428Y108776638D02*
X43585714Y108733780D01*
X33850000Y96790923D02*
X33550000Y97219495D01*
X33335714Y96790923D02*
X33335714Y97690923D01*
X33335714Y97690923D02*
X33678571Y97690923D01*
X33678571Y97690923D02*
X33764286Y97648066D01*
X33764286Y97648066D02*
X33807143Y97605209D01*
X33807143Y97605209D02*
X33850000Y97519495D01*
X33850000Y97519495D02*
X33850000Y97390923D01*
X33850000Y97390923D02*
X33807143Y97305209D01*
X33807143Y97305209D02*
X33764286Y97262352D01*
X33764286Y97262352D02*
X33678571Y97219495D01*
X33678571Y97219495D02*
X33335714Y97219495D01*
X34364286Y97305209D02*
X34278571Y97348066D01*
X34278571Y97348066D02*
X34235714Y97390923D01*
X34235714Y97390923D02*
X34192857Y97476638D01*
X34192857Y97476638D02*
X34192857Y97519495D01*
X34192857Y97519495D02*
X34235714Y97605209D01*
X34235714Y97605209D02*
X34278571Y97648066D01*
X34278571Y97648066D02*
X34364286Y97690923D01*
X34364286Y97690923D02*
X34535714Y97690923D01*
X34535714Y97690923D02*
X34621429Y97648066D01*
X34621429Y97648066D02*
X34664286Y97605209D01*
X34664286Y97605209D02*
X34707143Y97519495D01*
X34707143Y97519495D02*
X34707143Y97476638D01*
X34707143Y97476638D02*
X34664286Y97390923D01*
X34664286Y97390923D02*
X34621429Y97348066D01*
X34621429Y97348066D02*
X34535714Y97305209D01*
X34535714Y97305209D02*
X34364286Y97305209D01*
X34364286Y97305209D02*
X34278571Y97262352D01*
X34278571Y97262352D02*
X34235714Y97219495D01*
X34235714Y97219495D02*
X34192857Y97133780D01*
X34192857Y97133780D02*
X34192857Y96962352D01*
X34192857Y96962352D02*
X34235714Y96876638D01*
X34235714Y96876638D02*
X34278571Y96833780D01*
X34278571Y96833780D02*
X34364286Y96790923D01*
X34364286Y96790923D02*
X34535714Y96790923D01*
X34535714Y96790923D02*
X34621429Y96833780D01*
X34621429Y96833780D02*
X34664286Y96876638D01*
X34664286Y96876638D02*
X34707143Y96962352D01*
X34707143Y96962352D02*
X34707143Y97133780D01*
X34707143Y97133780D02*
X34664286Y97219495D01*
X34664286Y97219495D02*
X34621429Y97262352D01*
X34621429Y97262352D02*
X34535714Y97305209D01*
%TO.C,C1*%
D12*
X21211252Y87725000D02*
X19788748Y87725000D01*
X21211252Y85005000D02*
X19788748Y85005000D01*
%TO.C,D3*%
X33990000Y89610000D02*
X33990000Y86300000D01*
X33990000Y89610000D02*
X36010000Y89610000D01*
X36010000Y86300000D02*
X36010000Y89610000D01*
%TO.C,U1*%
D13*
X23200000Y90450000D02*
X23700000Y90450000D01*
D10*
X24700000Y90650000D02*
X28300000Y90650000D01*
X24700000Y85350000D02*
X28300000Y85350000D01*
%TO.C,C2*%
D12*
X37640000Y87288748D02*
X37640000Y88711252D01*
X40360000Y87288748D02*
X40360000Y88711252D01*
%TO.C,R6*%
X39727064Y84510000D02*
X38272936Y84510000D01*
X39727064Y82690000D02*
X38272936Y82690000D01*
%TO.C,J2*%
D10*
X29900000Y22100000D02*
X40100000Y22100000D01*
X29900000Y14300000D02*
X29900000Y22100000D01*
D14*
X33300000Y14800000D02*
X31700000Y14800000D01*
X38300000Y14800000D02*
X36700000Y14800000D01*
D10*
X40100000Y22100000D02*
X40100000Y14300000D01*
X40100000Y14300000D02*
X29900000Y14300000D01*
%TO.C,R2*%
D12*
X28262742Y96522500D02*
X28737258Y96522500D01*
X28262742Y95477500D02*
X28737258Y95477500D01*
%TO.C,R4*%
X31412742Y89722500D02*
X31887258Y89722500D01*
X31412742Y88677500D02*
X31887258Y88677500D01*
%TO.C,C8*%
D10*
X29300000Y31900000D02*
X22700000Y31900000D01*
X29300000Y25100000D02*
X22700000Y25100000D01*
D15*
X29500000Y26000000D02*
X29500000Y27000000D01*
X30000000Y26500000D02*
X29000000Y26500000D01*
%TO.C,D2*%
D12*
X33875000Y38000000D02*
X33875000Y33190000D01*
X38125000Y33190000D02*
X33875000Y33190000D01*
X38125000Y33190000D02*
X38125000Y38000000D01*
%TO.C,C7*%
X39900000Y100510000D02*
X40900000Y100510000D01*
X40400000Y101010000D02*
X40400000Y100010000D01*
X41140000Y101295563D02*
X41140000Y99510000D01*
X41140000Y101295563D02*
X42204437Y102360000D01*
X41140000Y94704437D02*
X41140000Y96490000D01*
X41140000Y94704437D02*
X42204437Y93640000D01*
X42204437Y102360000D02*
X49860000Y102360000D01*
X42204437Y93640000D02*
X49860000Y93640000D01*
X49860000Y102360000D02*
X49860000Y99510000D01*
X49860000Y93640000D02*
X49860000Y96490000D01*
%TO.C,R7*%
X43090000Y29227064D02*
X43090000Y27772936D01*
X44910000Y29227064D02*
X44910000Y27772936D01*
%TO.C,R1*%
X25262742Y96522500D02*
X25737258Y96522500D01*
X25262742Y95477500D02*
X25737258Y95477500D01*
%TO.C,C6*%
X35261252Y84335000D02*
X34738748Y84335000D01*
X35261252Y82865000D02*
X34738748Y82865000D01*
%TO.C,R3*%
X31887258Y87887500D02*
X31412742Y87887500D01*
X31887258Y86842500D02*
X31412742Y86842500D01*
%TO.C,F1*%
X26350000Y107940000D02*
X24650000Y107940000D01*
X26350000Y106060000D02*
X24650000Y106060000D01*
%TO.C,C4*%
X40788748Y37240000D02*
X42211252Y37240000D01*
X40788748Y34520000D02*
X42211252Y34520000D01*
%TO.C,D1*%
X21990000Y102000000D02*
X21990000Y98690000D01*
X24010000Y98690000D02*
X21990000Y98690000D01*
X24010000Y98690000D02*
X24010000Y102000000D01*
%TO.C,C5*%
X21640580Y89310000D02*
X21359420Y89310000D01*
X21640580Y88290000D02*
X21359420Y88290000D01*
%TO.C,R5*%
X28579000Y92262742D02*
X28579000Y92737258D01*
X29624000Y92262742D02*
X29624000Y92737258D01*
%TO.C,D4*%
X42350000Y89610000D02*
X42350000Y84100000D01*
X45650000Y89610000D02*
X42350000Y89610000D01*
X45650000Y89610000D02*
X45650000Y84100000D01*
%TO.C,C3*%
D10*
X39300000Y31900000D02*
X32700000Y31900000D01*
X39300000Y25100000D02*
X32700000Y25100000D01*
D15*
X39500000Y26000000D02*
X39500000Y27000000D01*
X40000000Y26500000D02*
X39000000Y26500000D01*
%TO.C,J1*%
D10*
X29900000Y110700000D02*
X40100000Y110700000D01*
X29900000Y102900000D02*
X29900000Y110700000D01*
D14*
X31700000Y110200000D02*
X33300000Y110200000D01*
X36700000Y110200000D02*
X38300000Y110200000D01*
D10*
X40100000Y110700000D02*
X40100000Y102900000D01*
X40100000Y102900000D02*
X29900000Y102900000D01*
%TO.C,R8*%
D12*
X31900000Y101750000D02*
X34100000Y101750000D01*
X31900000Y98250000D02*
X34100000Y98250000D01*
%TD*%
%LPC*%
D16*
%TO.C,H1*%
G36*
X14709290Y112693149D02*
G01*
X14917684Y112672624D01*
X15124289Y112638513D01*
X15328221Y112590963D01*
X15528606Y112530176D01*
X15724587Y112456415D01*
X15915324Y112369993D01*
X16100000Y112271281D01*
X16277825Y112160703D01*
X16448037Y112038731D01*
X16609907Y111905887D01*
X16762742Y111762742D01*
X16905887Y111609907D01*
X17038731Y111448037D01*
X17160703Y111277825D01*
X17271281Y111100000D01*
X17369993Y110915324D01*
X17456415Y110724587D01*
X17530176Y110528606D01*
X17590963Y110328221D01*
X17638513Y110124289D01*
X17672624Y109917684D01*
X17693149Y109709290D01*
X17700000Y109500000D01*
X17693149Y109290710D01*
X17672624Y109082316D01*
X17638513Y108875711D01*
X17590963Y108671779D01*
X17530176Y108471394D01*
X17456415Y108275413D01*
X17369993Y108084676D01*
X17271281Y107900000D01*
X17160703Y107722175D01*
X17038731Y107551963D01*
X16905887Y107390093D01*
X16762742Y107237258D01*
X16609907Y107094113D01*
X16448037Y106961269D01*
X16277825Y106839297D01*
X16100000Y106728719D01*
X15915324Y106630007D01*
X15724587Y106543585D01*
X15528606Y106469824D01*
X15328221Y106409037D01*
X15124289Y106361487D01*
X14917684Y106327376D01*
X14709290Y106306851D01*
X14500000Y106300000D01*
X6300000Y106300000D01*
X6300000Y112700000D01*
X14500000Y112700000D01*
X14709290Y112693149D01*
G37*
%TO.C,H4*%
G36*
X63700000Y11300000D02*
G01*
X55500000Y11300000D01*
X55290710Y11306851D01*
X55082316Y11327376D01*
X54875711Y11361487D01*
X54671779Y11409037D01*
X54471394Y11469824D01*
X54275413Y11543585D01*
X54084676Y11630007D01*
X53900000Y11728719D01*
X53722175Y11839297D01*
X53551963Y11961269D01*
X53390093Y12094113D01*
X53237258Y12237258D01*
X53094113Y12390093D01*
X52961269Y12551963D01*
X52839297Y12722175D01*
X52728719Y12900000D01*
X52630007Y13084676D01*
X52543585Y13275413D01*
X52469824Y13471394D01*
X52409037Y13671779D01*
X52361487Y13875711D01*
X52327376Y14082316D01*
X52306851Y14290710D01*
X52300000Y14500000D01*
X52306851Y14709290D01*
X52327376Y14917684D01*
X52361487Y15124289D01*
X52409037Y15328221D01*
X52469824Y15528606D01*
X52543585Y15724587D01*
X52630007Y15915324D01*
X52728719Y16100000D01*
X52839297Y16277825D01*
X52961269Y16448037D01*
X53094113Y16609907D01*
X53237258Y16762742D01*
X53390093Y16905887D01*
X53551963Y17038731D01*
X53722175Y17160703D01*
X53900000Y17271281D01*
X54084676Y17369993D01*
X54275413Y17456415D01*
X54471394Y17530176D01*
X54671779Y17590963D01*
X54875711Y17638513D01*
X55082316Y17672624D01*
X55290710Y17693149D01*
X55500000Y17700000D01*
X63700000Y17700000D01*
X63700000Y11300000D01*
G37*
%TO.C,H2*%
G36*
X63700000Y106300000D02*
G01*
X55500000Y106300000D01*
X55290710Y106306851D01*
X55082316Y106327376D01*
X54875711Y106361487D01*
X54671779Y106409037D01*
X54471394Y106469824D01*
X54275413Y106543585D01*
X54084676Y106630007D01*
X53900000Y106728719D01*
X53722175Y106839297D01*
X53551963Y106961269D01*
X53390093Y107094113D01*
X53237258Y107237258D01*
X53094113Y107390093D01*
X52961269Y107551963D01*
X52839297Y107722175D01*
X52728719Y107900000D01*
X52630007Y108084676D01*
X52543585Y108275413D01*
X52469824Y108471394D01*
X52409037Y108671779D01*
X52361487Y108875711D01*
X52327376Y109082316D01*
X52306851Y109290710D01*
X52300000Y109500000D01*
X52306851Y109709290D01*
X52327376Y109917684D01*
X52361487Y110124289D01*
X52409037Y110328221D01*
X52469824Y110528606D01*
X52543585Y110724587D01*
X52630007Y110915324D01*
X52728719Y111100000D01*
X52839297Y111277825D01*
X52961269Y111448037D01*
X53094113Y111609907D01*
X53237258Y111762742D01*
X53390093Y111905887D01*
X53551963Y112038731D01*
X53722175Y112160703D01*
X53900000Y112271281D01*
X54084676Y112369993D01*
X54275413Y112456415D01*
X54471394Y112530176D01*
X54671779Y112590963D01*
X54875711Y112638513D01*
X55082316Y112672624D01*
X55290710Y112693149D01*
X55500000Y112700000D01*
X63700000Y112700000D01*
X63700000Y106300000D01*
G37*
%TO.C,H3*%
G36*
X14709290Y17693149D02*
G01*
X14917684Y17672624D01*
X15124289Y17638513D01*
X15328221Y17590963D01*
X15528606Y17530176D01*
X15724587Y17456415D01*
X15915324Y17369993D01*
X16100000Y17271281D01*
X16277825Y17160703D01*
X16448037Y17038731D01*
X16609907Y16905887D01*
X16762742Y16762742D01*
X16905887Y16609907D01*
X17038731Y16448037D01*
X17160703Y16277825D01*
X17271281Y16100000D01*
X17369993Y15915324D01*
X17456415Y15724587D01*
X17530176Y15528606D01*
X17590963Y15328221D01*
X17638513Y15124289D01*
X17672624Y14917684D01*
X17693149Y14709290D01*
X17700000Y14500000D01*
X17693149Y14290710D01*
X17672624Y14082316D01*
X17638513Y13875711D01*
X17590963Y13671779D01*
X17530176Y13471394D01*
X17456415Y13275413D01*
X17369993Y13084676D01*
X17271281Y12900000D01*
X17160703Y12722175D01*
X17038731Y12551963D01*
X16905887Y12390093D01*
X16762742Y12237258D01*
X16609907Y12094113D01*
X16448037Y11961269D01*
X16277825Y11839297D01*
X16100000Y11728719D01*
X15915324Y11630007D01*
X15724587Y11543585D01*
X15528606Y11469824D01*
X15328221Y11409037D01*
X15124289Y11361487D01*
X14917684Y11327376D01*
X14709290Y11306851D01*
X14500000Y11300000D01*
X6300000Y11300000D01*
X6300000Y17700000D01*
X14500000Y17700000D01*
X14709290Y17693149D01*
G37*
%TD*%
D17*
%TO.C,C1*%
X21975000Y86365000D03*
X19025000Y86365000D03*
%TD*%
D18*
%TO.C,D3*%
X35000000Y88150000D03*
D19*
X35000000Y85775000D03*
%TD*%
D20*
%TO.C,H1*%
X14500000Y109500000D03*
%TD*%
D21*
%TO.C,KiKit_FID_T_2*%
X62500000Y120000000D03*
%TD*%
D22*
%TO.C,U1*%
X23898500Y89905000D03*
X23898500Y88635000D03*
X23898500Y87365000D03*
X23898500Y86095000D03*
X29101500Y86095000D03*
X29101500Y87365000D03*
X29101500Y88635000D03*
X29101500Y89905000D03*
D23*
X26500000Y88000000D03*
%TD*%
D24*
%TO.C,KiKit_MB_5_3*%
X60000000Y61500000D03*
%TD*%
D25*
%TO.C,C2*%
X39000000Y86525000D03*
X39000000Y89475000D03*
%TD*%
D21*
%TO.C,KiKit_FID_T_1*%
X7500000Y120000000D03*
%TD*%
D24*
%TO.C,KiKit_MB_1_3*%
X10000000Y88500000D03*
%TD*%
%TO.C,KiKit_MB_6_4*%
X60000000Y34500000D03*
%TD*%
D26*
%TO.C,R6*%
X40462500Y83600000D03*
X37537500Y83600000D03*
%TD*%
D27*
%TO.C,J2*%
X37500000Y18000000D03*
D28*
X32500000Y18000000D03*
%TD*%
D20*
%TO.C,H4*%
X55500000Y14500000D03*
%TD*%
%TO.C,H2*%
X55500000Y109500000D03*
%TD*%
D24*
%TO.C,KiKit_MB_3_3*%
X10000000Y36500000D03*
%TD*%
%TO.C,KiKit_MB_1_1*%
X10000000Y86500000D03*
%TD*%
D29*
%TO.C,R2*%
X27675000Y96000000D03*
X29325000Y96000000D03*
%TD*%
D30*
%TO.C,T1*%
X38621977Y81193193D03*
X31378023Y81193193D03*
X33169595Y42408661D03*
X36075000Y47553499D03*
%TD*%
D24*
%TO.C,KiKit_MB_2_2*%
X10000000Y61500000D03*
%TD*%
%TO.C,KiKit_MB_3_1*%
X10000000Y34500000D03*
%TD*%
%TO.C,KiKit_MB_4_1*%
X60000000Y89500000D03*
%TD*%
%TO.C,KiKit_MB_4_4*%
X60000000Y86500000D03*
%TD*%
D31*
%TO.C,KiKit_TO_3*%
X2500000Y2500000D03*
%TD*%
D29*
%TO.C,R4*%
X30825000Y89200000D03*
X32475000Y89200000D03*
%TD*%
D31*
%TO.C,KiKit_TO_2*%
X67500000Y121500000D03*
%TD*%
D24*
%TO.C,KiKit_MB_2_4*%
X10000000Y63500000D03*
%TD*%
D32*
%TO.C,C8*%
X28800000Y28500000D03*
X23200000Y28500000D03*
%TD*%
D33*
%TO.C,D2*%
X36000000Y35880000D03*
D34*
X35080000Y39862000D03*
X36920000Y39862000D03*
%TD*%
D24*
%TO.C,KiKit_MB_1_4*%
X10000000Y89500000D03*
%TD*%
%TO.C,KiKit_MB_5_1*%
X60000000Y63500000D03*
%TD*%
D35*
%TO.C,C7*%
X41800000Y98000000D03*
X49200000Y98000000D03*
%TD*%
D24*
%TO.C,KiKit_MB_5_4*%
X60000000Y60500000D03*
%TD*%
D21*
%TO.C,KiKit_FID_T_3*%
X7500000Y4000000D03*
%TD*%
D24*
%TO.C,KiKit_MB_3_2*%
X10000000Y35500000D03*
%TD*%
D36*
%TO.C,R7*%
X44000000Y29962500D03*
X44000000Y27037500D03*
%TD*%
D29*
%TO.C,R1*%
X24675000Y96000000D03*
X26325000Y96000000D03*
%TD*%
D24*
%TO.C,KiKit_MB_4_2*%
X60000000Y88500000D03*
%TD*%
D37*
%TO.C,C6*%
X35950000Y83600000D03*
X34050000Y83600000D03*
%TD*%
D31*
%TO.C,KiKit_TO_1*%
X2500000Y121500000D03*
%TD*%
D38*
%TO.C,R3*%
X32475000Y87365000D03*
X30825000Y87365000D03*
%TD*%
D24*
%TO.C,KiKit_MB_2_1*%
X10000000Y60500000D03*
%TD*%
%TO.C,KiKit_MB_6_1*%
X60000000Y37500000D03*
%TD*%
%TO.C,KiKit_MB_4_3*%
X60000000Y87500000D03*
%TD*%
D39*
%TO.C,F1*%
X27225000Y107000000D03*
X23775000Y107000000D03*
%TD*%
D40*
%TO.C,C4*%
X40025000Y35880000D03*
X42975000Y35880000D03*
%TD*%
D41*
%TO.C,D1*%
X23000000Y100150000D03*
D42*
X23000000Y102525000D03*
%TD*%
D24*
%TO.C,KiKit_MB_2_3*%
X10000000Y62500000D03*
%TD*%
%TO.C,KiKit_MB_3_4*%
X10000000Y37500000D03*
%TD*%
D43*
%TO.C,C5*%
X22275000Y88800000D03*
X20725000Y88800000D03*
%TD*%
D44*
%TO.C,R5*%
X29101500Y91675000D03*
X29101500Y93325000D03*
%TD*%
D45*
%TO.C,D4*%
X44000000Y88100000D03*
X44000000Y84100000D03*
%TD*%
D32*
%TO.C,C3*%
X38800000Y28500000D03*
X33200000Y28500000D03*
%TD*%
D24*
%TO.C,KiKit_MB_5_2*%
X60000000Y62500000D03*
%TD*%
D20*
%TO.C,H3*%
X14500000Y14500000D03*
%TD*%
D27*
%TO.C,J1*%
X32500000Y107000000D03*
D28*
X37500000Y107000000D03*
%TD*%
D24*
%TO.C,KiKit_MB_1_2*%
X10000000Y87500000D03*
%TD*%
%TO.C,KiKit_MB_6_2*%
X60000000Y36500000D03*
%TD*%
%TO.C,KiKit_MB_6_3*%
X60000000Y35500000D03*
%TD*%
D46*
%TO.C,R8*%
X30425000Y100000000D03*
X35575000Y100000000D03*
%TD*%
D47*
X27400000Y84350000D03*
X43200000Y33000000D03*
%LPD*%
M02*
