%TF.GenerationSoftware,KiCad,Pcbnew,10.0.6*%
%TF.CreationDate,2026-09-30T11:25:32-04:00*%
%TF.ProjectId,PS-FLYBACK-5W-panel,50532d46-4c59-4424-9143-4b2d35572d70,A1-development*%
%TF.SameCoordinates,Original*%
%TF.FileFunction,Paste,Top*%
%TF.FilePolarity,Positive*%
%FSLAX46Y46*%
G04 Gerber Fmt 4.6, Leading zero omitted, Abs format (unit mm)*
G04 Created by KiCad (PCBNEW 10.0.6) date 2026-09-30 11:25:32*
%MOMM*%
%LPD*%
G01*
G04 APERTURE LIST*
G04 Aperture macros list*
%AMRoundRect*
0 Rectangle with rounded corners*
0 $1 Rounding radius*
0 $2 $3 $4 $5 $6 $7 $8 $9 X,Y pos of 4 corners*
0 Add a 4 corners polygon primitive as box body*
4,1,4,$2,$3,$4,$5,$6,$7,$8,$9,$2,$3,0*
0 Add four circle primitives for the rounded corners*
1,1,$1+$1,$2,$3*
1,1,$1+$1,$4,$5*
1,1,$1+$1,$6,$7*
1,1,$1+$1,$8,$9*
0 Add four rect primitives between the rounded corners*
20,1,$1+$1,$2,$3,$4,$5,0*
20,1,$1+$1,$4,$5,$6,$7,0*
20,1,$1+$1,$6,$7,$8,$9,0*
20,1,$1+$1,$8,$9,$2,$3,0*%
G04 Aperture macros list end*
%ADD10RoundRect,0.250000X0.325000X1.100000X-0.325000X1.100000X-0.325000X-1.100000X0.325000X-1.100000X0*%
%ADD11RoundRect,0.250000X0.500000X-0.950000X0.500000X0.950000X-0.500000X0.950000X-0.500000X-0.950000X0*%
%ADD12RoundRect,0.250000X0.500000X-0.275000X0.500000X0.275000X-0.500000X0.275000X-0.500000X-0.275000X0*%
%ADD13R,0.800000X1.100000*%
%ADD14R,1.143000X0.760000*%
%ADD15RoundRect,0.250000X1.100000X-0.325000X1.100000X0.325000X-1.100000X0.325000X-1.100000X-0.325000X0*%
%ADD16RoundRect,0.250000X0.312500X0.625000X-0.312500X0.625000X-0.312500X-0.625000X0.312500X-0.625000X0*%
%ADD17RoundRect,0.200000X-0.200000X-0.275000X0.200000X-0.275000X0.200000X0.275000X-0.200000X0.275000X0*%
%ADD18C,1.500000*%
%ADD19R,3.500000X1.600000*%
%ADD20R,3.360000X4.860000*%
%ADD21R,1.390000X1.400000*%
%ADD22RoundRect,0.250000X-1.950000X-1.000000X1.950000X-1.000000X1.950000X1.000000X-1.950000X1.000000X0*%
%ADD23RoundRect,0.250000X-0.625000X0.312500X-0.625000X-0.312500X0.625000X-0.312500X0.625000X0.312500X0*%
%ADD24RoundRect,0.250000X0.250000X0.475000X-0.250000X0.475000X-0.250000X-0.475000X0.250000X-0.475000X0*%
%ADD25RoundRect,0.200000X0.200000X0.275000X-0.200000X0.275000X-0.200000X-0.275000X0.200000X-0.275000X0*%
%ADD26R,1.250000X1.650000*%
%ADD27RoundRect,0.250000X-0.325000X-1.100000X0.325000X-1.100000X0.325000X1.100000X-0.325000X1.100000X0*%
%ADD28RoundRect,0.250000X-0.500000X0.950000X-0.500000X-0.950000X0.500000X-0.950000X0.500000X0.950000X0*%
%ADD29RoundRect,0.250000X-0.500000X0.275000X-0.500000X-0.275000X0.500000X-0.275000X0.500000X0.275000X0*%
%ADD30RoundRect,0.225000X0.225000X0.250000X-0.225000X0.250000X-0.225000X-0.250000X0.225000X-0.250000X0*%
%ADD31RoundRect,0.200000X0.275000X-0.200000X0.275000X0.200000X-0.275000X0.200000X-0.275000X-0.200000X0*%
%ADD32RoundRect,0.250000X-0.650000X1.000000X-0.650000X-1.000000X0.650000X-1.000000X0.650000X1.000000X0*%
%ADD33R,2.450000X3.700000*%
G04 APERTURE END LIST*
D10*
%TO.C,C1*%
X21975000Y86365000D03*
X19025000Y86365000D03*
%TD*%
D11*
%TO.C,D3*%
X35000000Y88150000D03*
D12*
X35000000Y85775000D03*
%TD*%
D13*
%TO.C,U1*%
X25950000Y88750000D03*
X25950000Y87250000D03*
X27050000Y88750000D03*
X27050000Y87250000D03*
D14*
X23898500Y89905000D03*
X23898500Y88635000D03*
X23898500Y87365000D03*
X23898500Y86095000D03*
X29101500Y86095000D03*
X29101500Y87365000D03*
X29101500Y88635000D03*
X29101500Y89905000D03*
%TD*%
D15*
%TO.C,C2*%
X39000000Y86525000D03*
X39000000Y89475000D03*
%TD*%
D16*
%TO.C,R6*%
X40462500Y83600000D03*
X37537500Y83600000D03*
%TD*%
D17*
%TO.C,R2*%
X27675000Y96000000D03*
X29325000Y96000000D03*
%TD*%
D18*
%TO.C,KiKit_TO_3*%
X2500000Y2500000D03*
%TD*%
D17*
%TO.C,R4*%
X30825000Y89200000D03*
X32475000Y89200000D03*
%TD*%
D18*
%TO.C,KiKit_TO_2*%
X67500000Y121500000D03*
%TD*%
D19*
%TO.C,C8*%
X28800000Y28500000D03*
X23200000Y28500000D03*
%TD*%
D20*
%TO.C,D2*%
X36000000Y35880000D03*
D21*
X35080000Y39862000D03*
X36920000Y39862000D03*
%TD*%
D22*
%TO.C,C7*%
X41800000Y98000000D03*
X49200000Y98000000D03*
%TD*%
D23*
%TO.C,R7*%
X44000000Y29962500D03*
X44000000Y27037500D03*
%TD*%
D17*
%TO.C,R1*%
X24675000Y96000000D03*
X26325000Y96000000D03*
%TD*%
D24*
%TO.C,C6*%
X35950000Y83600000D03*
X34050000Y83600000D03*
%TD*%
D18*
%TO.C,KiKit_TO_1*%
X2500000Y121500000D03*
%TD*%
D25*
%TO.C,R3*%
X32475000Y87365000D03*
X30825000Y87365000D03*
%TD*%
D26*
%TO.C,F1*%
X27225000Y107000000D03*
X23775000Y107000000D03*
%TD*%
D27*
%TO.C,C4*%
X40025000Y35880000D03*
X42975000Y35880000D03*
%TD*%
D28*
%TO.C,D1*%
X23000000Y100150000D03*
D29*
X23000000Y102525000D03*
%TD*%
D30*
%TO.C,C5*%
X22275000Y88800000D03*
X20725000Y88800000D03*
%TD*%
D31*
%TO.C,R5*%
X29101500Y91675000D03*
X29101500Y93325000D03*
%TD*%
D32*
%TO.C,D4*%
X44000000Y88100000D03*
X44000000Y84100000D03*
%TD*%
D19*
%TO.C,C3*%
X38800000Y28500000D03*
X33200000Y28500000D03*
%TD*%
D33*
%TO.C,R8*%
X30425000Y100000000D03*
X35575000Y100000000D03*
%TD*%
M02*
