M48
; DRILL file KiCad 10.0.6 date 2026-10-10T12:18:01
; FORMAT={-:-/ absolute / metric / decimal}
; #@! TF.CreationDate,2026-10-10T12:18:01-04:00
; #@! TF.GenerationSoftware,Kicad,Pcbnew,10.0.6
; #@! TF.FileFunction,Plated,1,8,PTH
FMAT,2
METRIC
; #@! TA.AperFunction,Plated,PTH,ViaDrill
T1C0.300
; #@! TA.AperFunction,Plated,PTH,ComponentDrill
T2C0.300
; #@! TA.AperFunction,Plated,PTH,ComponentDrill
T3C1.000
; #@! TA.AperFunction,Plated,PTH,ComponentDrill
T4C1.900
%
G90
G05
T1
X9.0Y25.0
X11.5Y25.0
X17.0Y31.175
X17.3Y43.275
X17.3Y41.725
X17.3Y40.4
X17.3Y39.13
X17.3Y36.6
X18.825Y50.0
X19.0Y28.975
X19.0Y26.025
X19.0Y17.825
X19.0Y16.175
X19.0Y9.325
X19.0Y7.675
X19.31Y41.9
X19.96Y41.9
X19.99Y34.1
X20.31Y44.61
X20.45Y35.0
X20.61Y41.9
X20.64Y34.1
X21.0Y17.825
X21.0Y16.175
X21.0Y8.425
X21.0Y6.775
X21.29Y34.1
X21.775Y50.0
X22.3Y11.825
X22.3Y10.175
X22.5Y40.4
X22.5Y39.13
X22.5Y37.87
X22.5Y36.6
X22.575Y13.6
X23.5Y28.975
X23.5Y26.025
X23.5Y23.975
X23.5Y21.025
X24.0Y45.825
X24.0Y32.625
X24.0Y10.175
X24.325Y42.7
X25.55Y18.24
X25.55Y10.64
X25.725Y6.0
X25.975Y22.0
X26.5Y15.76
X26.5Y8.16
X27.275Y6.0
X27.45Y18.24
X27.625Y22.0
X27.775Y13.6
X29.65Y18.27
X29.65Y15.73
X29.65Y10.67
X30.5Y22.775
X30.5Y21.225
X35.95Y18.27
X35.95Y15.73
X35.95Y10.67
X35.95Y8.13
X38.025Y23.0
X38.8Y20.575
X38.8Y19.025
X38.8Y16.325
X38.8Y14.675
X39.575Y23.0
X40.4Y18.9
X40.4Y17.63
X40.4Y16.37
X40.4Y15.1
X40.4Y10.725
X40.4Y9.075
X40.475Y13.6
X42.125Y13.6
X42.675Y23.0
X42.675Y10.5
X44.325Y23.0
X44.325Y21.3
X44.325Y10.5
X44.325Y8.8
X45.6Y18.9
X45.6Y17.63
X45.6Y16.37
X45.6Y15.1
X46.0Y23.325
X46.0Y21.675
X47.2Y18.375
X47.2Y16.825
X47.8Y28.175
X47.8Y26.625
X48.3Y52.69
X48.3Y48.31
X49.1Y13.775
X49.1Y10.825
X49.1Y8.475
X49.1Y5.525
X49.8Y23.375
X49.95Y22.05
X49.95Y20.15
X50.55Y51.0
X51.95Y27.2
X52.0Y30.975
X52.0Y29.425
X53.0Y30.5
X53.025Y40.1
X53.45Y51.0
X53.9Y29.25
X54.0Y48.575
X54.0Y45.625
X54.0Y17.325
X54.0Y15.675
X54.225Y25.5
X55.0Y55.0
X55.0Y23.41
X55.0Y20.87
X55.0Y19.6
X55.05Y9.5
X55.1Y52.275
X55.1Y50.725
X55.775Y25.5
X55.975Y42.9
X55.975Y40.1
X56.0Y17.325
X56.0Y15.675
X56.1Y31.15
X56.1Y30.2
X56.1Y29.25
X56.725Y46.3
X57.8Y38.0
X57.825Y28.0
X58.0Y55.0
X58.0Y21.5
X58.0Y17.275
X58.0Y15.725
X58.275Y46.3
X59.6Y45.6
X59.725Y36.7
X59.77Y42.66
X60.0Y40.2
X60.0Y17.325
X60.0Y15.675
X60.33Y46.3
X60.775Y28.0
X60.95Y9.5
X61.0Y22.14
X61.0Y20.87
X61.0Y19.6
X61.1Y44.9
X61.2Y33.875
X61.2Y30.925
X62.0Y44.5
X62.0Y17.275
X62.0Y15.725
X62.2Y47.075
X62.5Y24.825
X62.5Y23.175
X62.5Y21.025
X62.5Y19.375
X70.0Y25.0
X72.5Y25.0
T2
X24.462Y41.265
X24.462Y35.735
X27.8Y38.5
X48.2Y38.5
X51.538Y41.265
X51.538Y35.735
T3
X8.8Y42.5
X8.8Y31.5
X76.2Y42.5
X76.2Y31.5
T4
X13.8Y39.5
X13.8Y34.5
X66.2Y39.5
X66.2Y34.5
M30
