M48
; DRILL file KiCad 10.0.6 date 2026-10-10T14:59:28
; FORMAT={-:-/ absolute / metric / decimal}
; #@! TF.CreationDate,2026-10-10T14:59:28-04:00
; #@! TF.GenerationSoftware,Kicad,Pcbnew,10.0.6
; #@! TF.FileFunction,Plated,1,8,PTH
FMAT,2
METRIC
; #@! TA.AperFunction,Plated,PTH,ViaDrill
T1C0.300
; #@! TA.AperFunction,Plated,PTH,ComponentDrill
T2C0.300
; #@! TA.AperFunction,Plated,PTH,ComponentDrill
T3C1.600
%
G90
G05
T1
X3.5Y23.0
X3.5Y20.0
X8.0Y33.225
X8.3Y41.275
X8.3Y39.725
X8.3Y37.13
X8.3Y34.6
X10.0Y26.975
X10.0Y24.025
X10.0Y15.825
X10.0Y14.175
X10.31Y39.9
X10.6Y9.525
X10.6Y7.875
X10.96Y39.9
X10.99Y32.1
X11.025Y48.65
X11.025Y48.0
X11.025Y47.35
X11.31Y42.61
X11.45Y33.0
X11.61Y39.9
X11.64Y32.1
X12.0Y15.825
X12.0Y14.175
X12.0Y6.425
X12.0Y4.775
X12.29Y32.1
X12.29Y31.3
X13.3Y9.825
X13.3Y8.175
X13.5Y38.4
X13.5Y37.13
X13.5Y35.87
X13.5Y34.6
X13.575Y11.6
X13.85Y26.975
X13.85Y24.025
X13.975Y48.65
X13.975Y48.0
X14.5Y26.975
X14.5Y24.025
X14.5Y21.975
X14.5Y19.025
X15.0Y43.825
X15.0Y30.625
X15.0Y8.175
X15.15Y26.975
X15.15Y24.025
X16.55Y16.24
X16.55Y8.64
X16.725Y4.0
X16.975Y20.0
X17.5Y13.76
X17.5Y6.16
X18.275Y4.0
X18.45Y16.24
X18.625Y20.0
X18.775Y11.6
X20.65Y16.27
X20.65Y13.73
X20.65Y8.67
X21.5Y20.775
X21.5Y19.225
X26.95Y16.27
X26.95Y13.73
X26.95Y8.67
X26.95Y6.13
X29.025Y21.0
X29.8Y18.575
X29.8Y17.025
X29.8Y14.325
X29.8Y12.675
X30.575Y21.0
X31.4Y16.9
X31.4Y15.63
X31.4Y14.37
X31.4Y13.1
X31.4Y8.725
X31.4Y7.075
X31.475Y11.6
X33.125Y11.6
X36.6Y16.9
X36.6Y15.63
X36.6Y14.37
X36.6Y13.1
X37.0Y21.325
X37.0Y19.675
X38.2Y16.375
X38.2Y14.825
X38.8Y26.175
X38.8Y24.625
X39.3Y50.69
X39.3Y46.31
X40.1Y11.775
X40.1Y8.825
X40.1Y6.475
X40.8Y21.375
X40.95Y20.05
X40.95Y18.15
X41.55Y49.0
X42.3Y21.325
X42.3Y18.225
X42.3Y16.575
X42.3Y14.975
X42.3Y13.425
X42.95Y25.2
X43.0Y28.975
X43.0Y27.425
X44.0Y28.5
X44.025Y38.1
X44.45Y49.0
X44.9Y27.25
X45.0Y46.575
X45.0Y43.625
X46.0Y53.0
X46.975Y41.55
X46.975Y40.9
X46.975Y40.25
X46.975Y38.75
X46.975Y38.1
X46.975Y37.45
X47.1Y29.15
X47.1Y28.2
X47.1Y27.25
X47.5Y14.45
X47.8Y30.0
X48.4Y20.0
X48.6Y19.0
X48.675Y23.5
X49.0Y53.0
X49.0Y19.5
X49.3Y20.1
X49.8Y19.0
X49.925Y47.5
X49.925Y44.3
X50.2Y40.8
X50.725Y35.35
X50.725Y34.7
X50.725Y34.05
X50.77Y40.66
X51.0Y39.2
X51.0Y38.2
X51.0Y37.5
X51.475Y47.5
X51.55Y28.925
X52.0Y20.14
X52.0Y17.6
X52.2Y31.875
X52.2Y28.925
X52.375Y14.5
X52.425Y11.8
X52.65Y43.67
X52.85Y28.925
X53.975Y11.8
X54.025Y14.5
X55.0Y26.325
X55.0Y24.675
X55.1Y20.375
X55.1Y17.425
X56.175Y45.0
X57.0Y26.325
X57.0Y24.675
X57.825Y43.1
X58.0Y23.0
X59.5Y41.175
X61.0Y23.0
X61.5Y42.825
X61.5Y41.175
T2
X15.462Y39.265
X15.462Y33.735
X18.8Y36.5
X39.2Y36.5
X42.538Y39.265
X42.538Y33.735
T3
X5.0Y36.04
X5.0Y30.96
X57.0Y36.04
X57.0Y30.96
M30
