%TF.GenerationSoftware,KiCad,Pcbnew,10.0.6*%
%TF.CreationDate,2026-10-10T12:18:00-04:00*%
%TF.ProjectId,PS-GAN-60W,50532d47-414e-42d3-9630-572e6b696361,A1 REVIEW - NOT FOR FABRICATION*%
%TF.SameCoordinates,Original*%
%TF.FileFunction,Copper,L6,Inr*%
%TF.FilePolarity,Positive*%
%FSLAX46Y46*%
G04 Gerber Fmt 4.6, Leading zero omitted, Abs format (unit mm)*
G04 Created by KiCad (PCBNEW 10.0.6) date 2026-10-10 12:18:00*
%MOMM*%
%LPD*%
G01*
G04 APERTURE LIST*
G04 Aperture macros list*
%AMRoundRect*
0 Rectangle with rounded corners*
0 $1 Rounding radius*
0 $2 $3 $4 $5 $6 $7 $8 $9 X,Y pos of 4 corners*
0 Add a 4 corners polygon primitive as box body*
4,1,4,$2,$3,$4,$5,$6,$7,$8,$9,$2,$3,0*
0 Add four circle primitives for the rounded corners*
1,1,$1+$1,$2,$3*
1,1,$1+$1,$4,$5*
1,1,$1+$1,$6,$7*
1,1,$1+$1,$8,$9*
0 Add four rect primitives between the rounded corners*
20,1,$1+$1,$2,$3,$4,$5,0*
20,1,$1+$1,$4,$5,$6,$7,0*
20,1,$1+$1,$6,$7,$8,$9,0*
20,1,$1+$1,$8,$9,$2,$3,0*%
G04 Aperture macros list end*
%TA.AperFunction,EtchedComponent*%
%ADD10C,0.000000*%
%TD*%
%TA.AperFunction,ComponentPad*%
%ADD11C,1.400000*%
%TD*%
%TA.AperFunction,ComponentPad*%
%ADD12RoundRect,0.770000X-0.980000X0.980000X-0.980000X-0.980000X0.980000X-0.980000X0.980000X0.980000X0*%
%TD*%
%TA.AperFunction,ComponentPad*%
%ADD13C,3.500000*%
%TD*%
%TA.AperFunction,ComponentPad*%
%ADD14RoundRect,0.770000X0.980000X-0.980000X0.980000X0.980000X-0.980000X0.980000X-0.980000X-0.980000X0*%
%TD*%
%TA.AperFunction,ComponentPad*%
%ADD15C,0.600000*%
%TD*%
%TA.AperFunction,ViaPad*%
%ADD16C,0.600000*%
%TD*%
%TA.AperFunction,Conductor*%
%ADD17C,0.800000*%
%TD*%
%TA.AperFunction,Conductor*%
%ADD18C,0.400000*%
%TD*%
%TA.AperFunction,Conductor*%
%ADD19C,0.500000*%
%TD*%
%TA.AperFunction,Conductor*%
%ADD20C,0.200000*%
%TD*%
%TA.AperFunction,Conductor*%
%ADD21C,0.350000*%
%TD*%
%TA.AperFunction,Conductor*%
%ADD22C,0.250000*%
%TD*%
G04 APERTURE END LIST*
D10*
%TA.AperFunction,EtchedComponent*%
%TO.C,T1*%
G36*
X26073396Y45893737D02*
G01*
X26073534Y45893730D01*
X26073659Y45893734D01*
X26686499Y45887484D01*
X26686620Y45887478D01*
X26686760Y45887482D01*
X27251508Y45881232D01*
X27251637Y45881225D01*
X27251763Y45881229D01*
X27776212Y45874979D01*
X27776335Y45874972D01*
X27776459Y45874976D01*
X28266977Y45868726D01*
X28267095Y45868719D01*
X28267214Y45868723D01*
X28729075Y45862473D01*
X28729199Y45862466D01*
X28729300Y45862469D01*
X29166927Y45856219D01*
X29167031Y45856213D01*
X29167137Y45856216D01*
X29584289Y45849966D01*
X29584387Y45849960D01*
X29584483Y45849963D01*
X29984394Y45843713D01*
X29984472Y45843708D01*
X29984569Y45843711D01*
X30370062Y45837461D01*
X30370145Y45837456D01*
X30370216Y45837458D01*
X30743782Y45831208D01*
X30743846Y45831204D01*
X30743916Y45831206D01*
X31107793Y45824956D01*
X31107850Y45824952D01*
X31107904Y45824954D01*
X31464130Y45818704D01*
X31464180Y45818701D01*
X31464216Y45818702D01*
X31814679Y45812452D01*
X31814709Y45812450D01*
X31814741Y45812451D01*
X32158580Y45806248D01*
X43500166Y45800000D01*
X43502815Y45799894D01*
X43505456Y45799950D01*
X43849001Y45793700D01*
X43849020Y45793701D01*
X44193648Y45787451D01*
X44193667Y45787449D01*
X44540878Y45781202D01*
X44540898Y45781203D01*
X44892742Y45774953D01*
X44892758Y45774952D01*
X45250816Y45768704D01*
X45250816Y45768703D01*
X45617010Y45762458D01*
X45617025Y45762459D01*
X45993961Y45756208D01*
X45993977Y45756207D01*
X46383593Y45749960D01*
X46788773Y45743714D01*
X47212353Y45737469D01*
X47212372Y45737470D01*
X47658632Y45731220D01*
X47658634Y45731219D01*
X48131103Y45724973D01*
X48131104Y45724972D01*
X48635013Y45718726D01*
X49176403Y45712480D01*
X49762657Y45706232D01*
X50402927Y45699985D01*
X50426339Y45698835D01*
X50426404Y45698835D01*
X50426425Y45698831D01*
X50426454Y45698830D01*
X50448041Y45695194D01*
X50472828Y45691025D01*
X50472851Y45691017D01*
X50472876Y45691013D01*
X50495465Y45683429D01*
X50517457Y45676050D01*
X50517481Y45676037D01*
X50517503Y45676030D01*
X50537469Y45665610D01*
X50559195Y45654276D01*
X50559215Y45654260D01*
X50559238Y45654249D01*
X50576455Y45641481D01*
X50597012Y45626243D01*
X50597032Y45626221D01*
X50597050Y45626209D01*
X50612512Y45610441D01*
X50629979Y45592637D01*
X50629992Y45592617D01*
X50630012Y45592598D01*
X50644513Y45572223D01*
X50657283Y45554289D01*
X50657293Y45554267D01*
X50657309Y45554246D01*
X50666975Y45534806D01*
X50678252Y45512141D01*
X50678261Y45512111D01*
X50678270Y45512094D01*
X50683999Y45493857D01*
X50692369Y45467233D01*
X50692373Y45467204D01*
X50692380Y45467183D01*
X50695408Y45446773D01*
X50699287Y45420669D01*
X50699288Y45420630D01*
X50699290Y45420618D01*
X50699289Y45420580D01*
X50699986Y45397123D01*
X50693736Y44745254D01*
X50693729Y44745114D01*
X50693733Y44744983D01*
X50687483Y44149277D01*
X50687476Y44149155D01*
X50687481Y44149010D01*
X50681231Y43600066D01*
X50681223Y43599923D01*
X50681227Y43599804D01*
X50674977Y43090050D01*
X50674970Y43089925D01*
X50674974Y43089796D01*
X50668724Y42613037D01*
X50668717Y42612918D01*
X50668721Y42612793D01*
X50662471Y42163905D01*
X50662465Y42163793D01*
X50662468Y42163674D01*
X50656218Y41738356D01*
X50656211Y41738238D01*
X50656214Y41738140D01*
X50649964Y41332738D01*
X50649958Y41332639D01*
X50649961Y41332538D01*
X50643711Y40943908D01*
X50643705Y40943817D01*
X50643708Y40943727D01*
X50637458Y40569127D01*
X50637454Y40569056D01*
X50637456Y40568967D01*
X50631206Y40205974D01*
X50631201Y40205897D01*
X50631203Y40205837D01*
X50624953Y39852274D01*
X50624949Y39852217D01*
X50624951Y39852160D01*
X50618701Y39506050D01*
X50618698Y39506000D01*
X50618699Y39505960D01*
X50612449Y39165467D01*
X50612447Y39165437D01*
X50612448Y39165403D01*
X50606198Y38828800D01*
X50606197Y38828790D01*
X50606198Y38828762D01*
X50599948Y38494394D01*
X50599946Y38494374D01*
X50593697Y38160663D01*
X50593698Y38160645D01*
X50587448Y37825939D01*
X50587449Y37825934D01*
X50581199Y37488541D01*
X50581198Y37488534D01*
X50574951Y37146986D01*
X50574952Y37146980D01*
X50568702Y36799128D01*
X50568701Y36799125D01*
X50562454Y36443351D01*
X50562453Y36443339D01*
X50556208Y36077627D01*
X50556209Y36077623D01*
X50549959Y35699106D01*
X50549958Y35699106D01*
X50543712Y35305681D01*
X50543711Y35305677D01*
X50537468Y34894420D01*
X50537469Y34894405D01*
X50531219Y34461118D01*
X50531218Y34461111D01*
X50524975Y34002682D01*
X50524976Y34002669D01*
X50518726Y33513205D01*
X50518725Y33513201D01*
X50512479Y32987645D01*
X50506234Y32418740D01*
X50499985Y31796986D01*
X50498828Y31773573D01*
X50498828Y31773512D01*
X50498824Y31773492D01*
X50498823Y31773459D01*
X50495465Y31753559D01*
X50491006Y31727091D01*
X50490995Y31727060D01*
X50490992Y31727039D01*
X50484999Y31709209D01*
X50476018Y31682466D01*
X50476003Y31682439D01*
X50475996Y31682416D01*
X50466162Y31663586D01*
X50454233Y31640734D01*
X50454216Y31640712D01*
X50454204Y31640688D01*
X50440790Y31622611D01*
X50426188Y31602925D01*
X50426167Y31602905D01*
X50426152Y31602884D01*
X50411266Y31588296D01*
X50392573Y31569967D01*
X50392546Y31569949D01*
X50392531Y31569933D01*
X50377586Y31559303D01*
X50354218Y31542674D01*
X50354187Y31542660D01*
X50354171Y31542647D01*
X50338834Y31535026D01*
X50312064Y31521717D01*
X50312029Y31521707D01*
X50312013Y31521698D01*
X50294442Y31516184D01*
X50267152Y31507613D01*
X50267124Y31507609D01*
X50267099Y31507601D01*
X50246019Y31504480D01*
X50220585Y31500708D01*
X50220542Y31500707D01*
X50220531Y31500705D01*
X50220495Y31500706D01*
X50197039Y31500016D01*
X49563900Y31506265D01*
X49563771Y31506272D01*
X49563621Y31506267D01*
X48985048Y31512518D01*
X48984911Y31512525D01*
X48984773Y31512521D01*
X48451635Y31518771D01*
X48451503Y31518778D01*
X48451364Y31518774D01*
X47956305Y31525024D01*
X47956179Y31525031D01*
X47956042Y31525027D01*
X47493045Y31531277D01*
X47492912Y31531284D01*
X47492793Y31531281D01*
X47056879Y31537531D01*
X47056766Y31537538D01*
X47056640Y31537534D01*
X46643632Y31543784D01*
X46643513Y31543791D01*
X46643409Y31543788D01*
X46249757Y31550038D01*
X46249658Y31550044D01*
X46249552Y31550041D01*
X45872203Y31556291D01*
X45872111Y31556297D01*
X45872017Y31556294D01*
X45508309Y31562544D01*
X45508224Y31562549D01*
X45508143Y31562547D01*
X45155722Y31568797D01*
X45155645Y31568802D01*
X45155579Y31568800D01*
X44812332Y31575050D01*
X44812275Y31575054D01*
X44812214Y31575052D01*
X44476219Y31581302D01*
X44476169Y31581305D01*
X44476126Y31581304D01*
X44145602Y31587554D01*
X44145572Y31587556D01*
X44145537Y31587555D01*
X43821530Y31593753D01*
X37999678Y31600000D01*
X32175748Y31606250D01*
X32173014Y31606361D01*
X32170300Y31606306D01*
X31845418Y31612555D01*
X31845397Y31612557D01*
X31518127Y31618804D01*
X31518111Y31618803D01*
X31186602Y31625052D01*
X31186598Y31625051D01*
X30849186Y31631299D01*
X30504017Y31637547D01*
X30504009Y31637546D01*
X30149031Y31643793D01*
X29781992Y31650041D01*
X29400128Y31656291D01*
X29001182Y31662535D01*
X29001173Y31662534D01*
X28580860Y31668784D01*
X28136195Y31675028D01*
X28136186Y31675027D01*
X27661417Y31681277D01*
X27151949Y31687521D01*
X27151935Y31687520D01*
X26599970Y31693767D01*
X25996892Y31700017D01*
X25973477Y31701181D01*
X25973423Y31701181D01*
X25973406Y31701185D01*
X25973365Y31701186D01*
X25949550Y31705212D01*
X25927004Y31709017D01*
X25926977Y31709027D01*
X25926948Y31709031D01*
X25905427Y31716272D01*
X25882383Y31724019D01*
X25882356Y31724034D01*
X25882330Y31724042D01*
X25862949Y31734172D01*
X25840658Y31745816D01*
X25840634Y31745835D01*
X25840609Y31745847D01*
X25821668Y31759912D01*
X25802857Y31773872D01*
X25802838Y31773892D01*
X25802813Y31773910D01*
X25787559Y31789484D01*
X25769909Y31807497D01*
X25769893Y31807520D01*
X25769872Y31807541D01*
X25756049Y31826988D01*
X25742628Y31845860D01*
X25742616Y31845886D01*
X25742598Y31845910D01*
X25731287Y31868690D01*
X25721684Y31888021D01*
X25721677Y31888045D01*
X25721662Y31888074D01*
X25714284Y31911610D01*
X25707593Y31932937D01*
X25707589Y31932967D01*
X25707580Y31932994D01*
X25704146Y31956236D01*
X25700702Y31979506D01*
X25700701Y31979545D01*
X25700698Y31979564D01*
X25700699Y31979623D01*
X25700017Y32003052D01*
X25706266Y32617460D01*
X25706274Y32617604D01*
X25706269Y32617748D01*
X25712519Y33179186D01*
X25712526Y33179325D01*
X25712522Y33179471D01*
X25718772Y33696802D01*
X25718779Y33696936D01*
X25718775Y33697081D01*
X25725025Y34177447D01*
X25725033Y34177587D01*
X25725029Y34177718D01*
X25731279Y34626954D01*
X25731287Y34627088D01*
X25731283Y34627214D01*
X25737533Y35050155D01*
X25737540Y35050269D01*
X25737536Y35050400D01*
X25743786Y35451101D01*
X25743793Y35451221D01*
X25743790Y35451331D01*
X25750040Y35833232D01*
X25750047Y35833345D01*
X25750044Y35833445D01*
X25756294Y36199511D01*
X25756300Y36199603D01*
X25756297Y36199704D01*
X25762547Y36552520D01*
X25762552Y36552605D01*
X25762550Y36552690D01*
X25768800Y36894540D01*
X25768805Y36894617D01*
X25768803Y36894686D01*
X25775053Y37227620D01*
X25775057Y37227677D01*
X25775055Y37227742D01*
X25781305Y37553622D01*
X25781308Y37553672D01*
X25781307Y37553717D01*
X25787557Y37874272D01*
X25787559Y37874302D01*
X25787558Y37874340D01*
X25793808Y38191198D01*
X25793810Y38191221D01*
X25793809Y38191239D01*
X25800059Y38505957D01*
X25800060Y38505959D01*
X25800059Y38505968D01*
X25806309Y38820072D01*
X25806310Y38820080D01*
X25812559Y39135015D01*
X25812558Y39135018D01*
X25818808Y39452474D01*
X25818809Y39452485D01*
X25825056Y39773794D01*
X25825055Y39773795D01*
X25831303Y40100874D01*
X25831302Y40100888D01*
X25837550Y40435485D01*
X25837549Y40435488D01*
X25843799Y40779748D01*
X25843800Y40779751D01*
X25850046Y41135523D01*
X25850047Y41135533D01*
X25856290Y41505207D01*
X25856289Y41505214D01*
X25862536Y41892063D01*
X25862535Y41892066D01*
X25868782Y42299149D01*
X25868781Y42299151D01*
X25875031Y42730575D01*
X25875032Y42730591D01*
X25881275Y43190092D01*
X25881274Y43190097D01*
X25887521Y43684029D01*
X25887520Y43684038D01*
X25893770Y44219155D01*
X25893771Y44219158D01*
X25900017Y44803208D01*
X25901188Y44826598D01*
X25901188Y44826673D01*
X25901193Y44826697D01*
X25901194Y44826734D01*
X25904897Y44848597D01*
X25909040Y44873089D01*
X25909050Y44873117D01*
X25909055Y44873149D01*
X25916851Y44896297D01*
X25924056Y44917705D01*
X25924070Y44917730D01*
X25924080Y44917762D01*
X25934974Y44938589D01*
X25945866Y44959424D01*
X25945886Y44959450D01*
X25945899Y44959476D01*
X25959373Y44977609D01*
X25973934Y44997215D01*
X25973957Y44997236D01*
X25973975Y44997262D01*
X25991879Y45014786D01*
X26007570Y45030152D01*
X26007593Y45030167D01*
X26007617Y45030192D01*
X26028270Y45044861D01*
X26045942Y45057421D01*
X26045969Y45057434D01*
X26045995Y45057453D01*
X26067845Y45068292D01*
X26088109Y45078352D01*
X26088138Y45078361D01*
X26088166Y45078375D01*
X26109264Y45084981D01*
X26133030Y45092429D01*
X26133065Y45092434D01*
X26133090Y45092442D01*
X26156769Y45095933D01*
X26179601Y45099304D01*
X26179635Y45099304D01*
X26179662Y45099309D01*
X26179745Y45099308D01*
X26203147Y45099982D01*
X26798825Y45093733D01*
X26798971Y45093725D01*
X26799123Y45093730D01*
X27343428Y45087480D01*
X27343568Y45087472D01*
X27343721Y45087477D01*
X27845246Y45081227D01*
X27845394Y45081219D01*
X27845534Y45081223D01*
X28311206Y45074973D01*
X28311348Y45074965D01*
X28311485Y45074969D01*
X28746961Y45068719D01*
X28747096Y45068711D01*
X28747229Y45068715D01*
X29157198Y45062465D01*
X29157326Y45062458D01*
X29157452Y45062461D01*
X29545842Y45056211D01*
X29545962Y45056204D01*
X29546080Y45056207D01*
X29916231Y45049957D01*
X29916344Y45049950D01*
X29916450Y45049953D01*
X30271235Y45043703D01*
X30271328Y45043697D01*
X30271434Y45043700D01*
X30613359Y45037450D01*
X30613444Y45037445D01*
X30613535Y45037447D01*
X30944813Y45031197D01*
X30944891Y45031192D01*
X30944965Y45031194D01*
X31267582Y45024944D01*
X31267652Y45024939D01*
X31267708Y45024941D01*
X31583473Y45018691D01*
X31583523Y45018688D01*
X31583572Y45018689D01*
X31894159Y45012439D01*
X31894189Y45012437D01*
X31894230Y45012438D01*
X32201214Y45006188D01*
X32201237Y45006186D01*
X32201255Y45006187D01*
X32503156Y44999998D01*
X43804445Y44993750D01*
X43807435Y44993630D01*
X43810423Y44993687D01*
X44115559Y44987437D01*
X44422998Y44981188D01*
X44734304Y44974940D01*
X44734306Y44974939D01*
X45051107Y44968692D01*
X45051121Y44968691D01*
X45375155Y44962444D01*
X45708167Y44956200D01*
X45708181Y44956201D01*
X46052853Y44949950D01*
X46052869Y44949949D01*
X46411008Y44943703D01*
X46785564Y44937457D01*
X47179683Y44931211D01*
X47597083Y44924965D01*
X48042184Y44918719D01*
X48520318Y44912473D01*
X49037696Y44906231D01*
X49603314Y44899982D01*
X49626706Y44898803D01*
X49626775Y44898803D01*
X49626797Y44898799D01*
X49626840Y44898797D01*
X49649745Y44894909D01*
X49673188Y44890935D01*
X49673218Y44890924D01*
X49673252Y44890919D01*
X49698785Y44882310D01*
X49717799Y44875904D01*
X49717824Y44875890D01*
X49717859Y44875879D01*
X49743700Y44862351D01*
X49759510Y44854079D01*
X49759531Y44854063D01*
X49759566Y44854045D01*
X49782673Y44836863D01*
X49797292Y44825998D01*
X49797309Y44825980D01*
X49797342Y44825956D01*
X49815848Y44807036D01*
X49830218Y44792352D01*
X49830236Y44792326D01*
X49830260Y44792302D01*
X49845578Y44770720D01*
X49857474Y44753970D01*
X49857485Y44753946D01*
X49857508Y44753915D01*
X49869752Y44729213D01*
X49878390Y44711796D01*
X49878398Y44711770D01*
X49878415Y44711736D01*
X49886183Y44686896D01*
X49892451Y44666871D01*
X49892455Y44666840D01*
X49892466Y44666807D01*
X49896283Y44640850D01*
X49899311Y44620297D01*
X49899312Y44620259D01*
X49899316Y44620233D01*
X49899315Y44620152D01*
X49899981Y44596751D01*
X49893732Y44019804D01*
X49893724Y44019656D01*
X49893729Y44019497D01*
X49887479Y43492326D01*
X49887471Y43492170D01*
X49887475Y43492022D01*
X49881225Y43006302D01*
X49881217Y43006153D01*
X49881221Y43006005D01*
X49874971Y42555028D01*
X49874963Y42554885D01*
X49874967Y42554739D01*
X49868717Y42133023D01*
X49868709Y42132887D01*
X49868713Y42132746D01*
X49862463Y41735751D01*
X49862455Y41735622D01*
X49862459Y41735488D01*
X49856209Y41359407D01*
X49856201Y41359273D01*
X49856204Y41359161D01*
X49849954Y41000762D01*
X49849947Y41000648D01*
X49849950Y41000534D01*
X49843700Y40657030D01*
X49843694Y40656937D01*
X49843697Y40656825D01*
X49837447Y40325792D01*
X49837441Y40325694D01*
X49837443Y40325610D01*
X49831193Y40004904D01*
X49831188Y40004826D01*
X49831190Y40004746D01*
X49824940Y39692444D01*
X49824935Y39692374D01*
X49824937Y39692314D01*
X49818687Y39386664D01*
X49818684Y39386614D01*
X49818685Y39386561D01*
X49812435Y39085943D01*
X49812433Y39085913D01*
X49812434Y39085870D01*
X49806184Y38788758D01*
X49806182Y38788735D01*
X49806183Y38788715D01*
X49799933Y38493647D01*
X49799931Y38493629D01*
X49793682Y38199214D01*
X49793683Y38199197D01*
X49787433Y37903934D01*
X49781184Y37606465D01*
X49781183Y37606449D01*
X49774937Y37305404D01*
X49774938Y37305385D01*
X49768688Y36998791D01*
X49768686Y36998773D01*
X49762443Y36685502D01*
X49762444Y36685483D01*
X49756194Y36363006D01*
X49756193Y36362992D01*
X49749950Y36030005D01*
X49743701Y35683408D01*
X49743700Y35683407D01*
X49737459Y35321440D01*
X49737460Y35321425D01*
X49731210Y34940031D01*
X49731209Y34940026D01*
X49724964Y34536401D01*
X49724963Y34536397D01*
X49718722Y34106320D01*
X49718723Y34106303D01*
X49712474Y33643825D01*
X49706227Y33143145D01*
X49706226Y33143131D01*
X49699979Y32596571D01*
X49698792Y32573203D01*
X49698792Y32573115D01*
X49698787Y32573087D01*
X49698785Y32573045D01*
X49695379Y32553028D01*
X49690908Y32526704D01*
X49690895Y32526666D01*
X49690890Y32526636D01*
X49683459Y32504627D01*
X49675860Y32482099D01*
X49675845Y32482072D01*
X49675833Y32482034D01*
X49663817Y32459103D01*
X49654020Y32440396D01*
X49654001Y32440371D01*
X49653983Y32440336D01*
X49638892Y32420058D01*
X49625925Y32402624D01*
X49625900Y32402601D01*
X49625879Y32402571D01*
X49608818Y32385897D01*
X49592267Y32369711D01*
X49592237Y32369691D01*
X49592213Y32369666D01*
X49572856Y32355939D01*
X49553875Y32342469D01*
X49553844Y32342454D01*
X49553815Y32342433D01*
X49532617Y32331936D01*
X49511694Y32321568D01*
X49511660Y32321558D01*
X49511629Y32321542D01*
X49488936Y32314455D01*
X49466763Y32307523D01*
X49466729Y32307519D01*
X49466694Y32307507D01*
X49442198Y32303914D01*
X49420187Y32300680D01*
X49420142Y32300679D01*
X49420117Y32300675D01*
X49420040Y32300676D01*
X49396640Y32300019D01*
X48838424Y32306269D01*
X48838261Y32306278D01*
X48838107Y32306273D01*
X48328070Y32312523D01*
X48327913Y32312532D01*
X48327757Y32312527D01*
X47857842Y32318777D01*
X47857691Y32318785D01*
X47857535Y32318781D01*
X47421252Y32325031D01*
X47421108Y32325039D01*
X47420954Y32325035D01*
X47012997Y32331285D01*
X47012847Y32331294D01*
X47012711Y32331290D01*
X46628689Y32337540D01*
X46628560Y32337548D01*
X46628418Y32337544D01*
X46264645Y32343794D01*
X46264511Y32343802D01*
X46264391Y32343799D01*
X45917741Y32350049D01*
X45917627Y32350056D01*
X45917506Y32350053D01*
X45585284Y32356303D01*
X45585178Y32356310D01*
X45585071Y32356307D01*
X45264930Y32362557D01*
X45264832Y32362563D01*
X45264741Y32362561D01*
X44954607Y32368811D01*
X44954530Y32368816D01*
X44954445Y32368814D01*
X44652456Y32375064D01*
X44652386Y32375069D01*
X44652321Y32375067D01*
X44356787Y32381317D01*
X44356737Y32381321D01*
X44356680Y32381319D01*
X44066031Y32387569D01*
X44065988Y32387572D01*
X44065955Y32387571D01*
X43778716Y32393821D01*
X43778693Y32393823D01*
X43778670Y32393822D01*
X43496633Y32400002D01*
X32215206Y32406250D01*
X32212005Y32406378D01*
X32208803Y32406322D01*
X31923463Y32412571D01*
X31636001Y32418820D01*
X31635994Y32418819D01*
X31344955Y32425067D01*
X31048819Y32431315D01*
X31048818Y32431314D01*
X30745962Y32437561D01*
X30745949Y32437560D01*
X30434563Y32443807D01*
X30434561Y32443806D01*
X30112673Y32450052D01*
X29777810Y32456303D01*
X29428161Y32462545D01*
X29428154Y32462544D01*
X29060021Y32468790D01*
X29060016Y32468789D01*
X28669873Y32475039D01*
X28254499Y32481281D01*
X28254490Y32481280D01*
X27807997Y32487526D01*
X27324607Y32493772D01*
X26796451Y32500022D01*
X26773056Y32501219D01*
X26773001Y32501219D01*
X26772983Y32501223D01*
X26772926Y32501225D01*
X26747467Y32505567D01*
X26726593Y32509121D01*
X26726560Y32509133D01*
X26726520Y32509139D01*
X26702481Y32517266D01*
X26681993Y32524186D01*
X26681963Y32524202D01*
X26681924Y32524215D01*
X26660038Y32535695D01*
X26640299Y32546042D01*
X26640270Y32546064D01*
X26640235Y32546082D01*
X26619935Y32561202D01*
X26602538Y32574151D01*
X26602515Y32574176D01*
X26602481Y32574200D01*
X26585620Y32591466D01*
X26569638Y32607822D01*
X26569616Y32607855D01*
X26569590Y32607880D01*
X26556183Y32626800D01*
X26542411Y32646224D01*
X26542395Y32646258D01*
X26542372Y32646289D01*
X26531802Y32667656D01*
X26521526Y32688414D01*
X26521515Y32688451D01*
X26521498Y32688484D01*
X26514837Y32709842D01*
X26507498Y32733351D01*
X26507493Y32733392D01*
X26507482Y32733424D01*
X26504283Y32755299D01*
X26500673Y32779929D01*
X26500672Y32779980D01*
X26500668Y32780004D01*
X26500669Y32780078D01*
X26500021Y32803476D01*
X26506270Y33342961D01*
X26506279Y33343126D01*
X26506274Y33343289D01*
X26512524Y33836194D01*
X26512533Y33836353D01*
X26512528Y33836519D01*
X26518778Y34290627D01*
X26518787Y34290792D01*
X26518783Y34290945D01*
X26525033Y34712534D01*
X26525042Y34712692D01*
X26525038Y34712842D01*
X26531288Y35107039D01*
X26531297Y35107189D01*
X26531293Y35107335D01*
X26537543Y35478384D01*
X26537551Y35478514D01*
X26537547Y35478665D01*
X26543797Y35830127D01*
X26543805Y35830262D01*
X26543802Y35830391D01*
X26550052Y36165292D01*
X26550060Y36165419D01*
X26550057Y36165535D01*
X26556307Y36486475D01*
X26556314Y36486581D01*
X26556311Y36486696D01*
X26562561Y36795946D01*
X26562567Y36796044D01*
X26562565Y36796142D01*
X26568815Y37095704D01*
X26568821Y37095794D01*
X26568819Y37095873D01*
X26575069Y37387545D01*
X26575074Y37387615D01*
X26575072Y37387686D01*
X26581322Y37673106D01*
X26581326Y37673156D01*
X26581324Y37673216D01*
X26587574Y37953896D01*
X26587577Y37953939D01*
X26587576Y37953976D01*
X26593826Y38231341D01*
X26593828Y38231364D01*
X26593827Y38231389D01*
X26600077Y38506806D01*
X26600925Y38520471D01*
X26600925Y38523538D01*
X26601238Y38525513D01*
X26601536Y38530317D01*
X26605138Y38550133D01*
X26608289Y38570034D01*
X26609344Y38573278D01*
X26609953Y38576634D01*
X26616610Y38595640D01*
X26622836Y38614805D01*
X26624386Y38617845D01*
X26625512Y38621063D01*
X26635060Y38638795D01*
X26644208Y38656750D01*
X26646213Y38659508D01*
X26647830Y38662513D01*
X26660038Y38678537D01*
X26671878Y38694834D01*
X26674291Y38697246D01*
X26676357Y38699959D01*
X26690909Y38713864D01*
X26705166Y38728122D01*
X26707930Y38730129D01*
X26710392Y38732483D01*
X26726930Y38743934D01*
X26743250Y38755792D01*
X26746294Y38757342D01*
X26749094Y38759282D01*
X26767228Y38768008D01*
X26785195Y38777164D01*
X26788442Y38778219D01*
X26791513Y38779697D01*
X26810804Y38785484D01*
X26829966Y38791711D01*
X26833334Y38792244D01*
X26836602Y38793225D01*
X26856573Y38795924D01*
X26876462Y38799075D01*
X26881271Y38799263D01*
X26883253Y38799532D01*
X26886321Y38799462D01*
X26900000Y38800000D01*
X27800000Y38800000D01*
X27823538Y38799075D01*
X27870034Y38791711D01*
X27914805Y38777164D01*
X27956750Y38755792D01*
X27994834Y38728122D01*
X28028122Y38694834D01*
X28055792Y38656750D01*
X28077164Y38614805D01*
X28091711Y38570034D01*
X28099075Y38523538D01*
X28100000Y38500000D01*
X28099075Y38476462D01*
X28091711Y38429966D01*
X28077164Y38385195D01*
X28055792Y38343250D01*
X28028122Y38305166D01*
X27994834Y38271878D01*
X27956750Y38244208D01*
X27914805Y38222836D01*
X27870034Y38208289D01*
X27823538Y38200925D01*
X27800000Y38200000D01*
X27193273Y38200000D01*
X27187426Y37940544D01*
X27187426Y37940538D01*
X27181176Y37659859D01*
X27181176Y37659849D01*
X27174929Y37374552D01*
X27168685Y37083198D01*
X27168685Y37083188D01*
X27162437Y36783686D01*
X27156189Y36474572D01*
X27156189Y36474565D01*
X27149948Y36154103D01*
X27149948Y36154096D01*
X27143703Y35819462D01*
X27143703Y35819459D01*
X27137453Y35467997D01*
X27137452Y35467979D01*
X27131212Y35097527D01*
X27124967Y34703643D01*
X27124967Y34703640D01*
X27118722Y34282377D01*
X27118722Y34282369D01*
X27112472Y33828261D01*
X27112472Y33828259D01*
X27106229Y33335855D01*
X27103456Y33096432D01*
X27331707Y33093730D01*
X27331870Y33093722D01*
X27332033Y33093726D01*
X27815749Y33087476D01*
X27815906Y33087468D01*
X27816069Y33087472D01*
X28262882Y33081222D01*
X28263044Y33081214D01*
X28263193Y33081217D01*
X28679185Y33074967D01*
X28679326Y33074960D01*
X28679483Y33074963D01*
X29069626Y33068713D01*
X29069773Y33068705D01*
X29069910Y33068708D01*
X29438332Y33062458D01*
X29438470Y33062451D01*
X29438597Y33062453D01*
X29788763Y33056203D01*
X29788880Y33056197D01*
X29789008Y33056199D01*
X30123872Y33049948D01*
X30123980Y33049942D01*
X30124093Y33049944D01*
X30446201Y33043694D01*
X30446301Y33043689D01*
X30446397Y33043690D01*
X30757982Y33037440D01*
X30758074Y33037435D01*
X30758151Y33037436D01*
X31061190Y33031186D01*
X31061262Y33031182D01*
X31061331Y33031183D01*
X31357609Y33024933D01*
X31357660Y33024930D01*
X31357720Y33024931D01*
X31648871Y33018681D01*
X31648915Y33018679D01*
X31648952Y33018679D01*
X31936501Y33012429D01*
X31936525Y33012428D01*
X31936550Y33012428D01*
X32218734Y33006249D01*
X43500166Y33000000D01*
X43503368Y32999873D01*
X43506572Y32999928D01*
X43791813Y32993678D01*
X44079007Y32987429D01*
X44369579Y32981181D01*
X44369585Y32981181D01*
X44665007Y32974933D01*
X44966860Y32968686D01*
X44966867Y32968686D01*
X45276831Y32962439D01*
X45596783Y32956193D01*
X45928792Y32949947D01*
X45928797Y32949947D01*
X46274953Y32943706D01*
X46638725Y32937456D01*
X46638735Y32937456D01*
X47022189Y32931215D01*
X47430145Y32924965D01*
X47430152Y32924965D01*
X47866129Y32918719D01*
X47866131Y32918719D01*
X48335736Y32912473D01*
X48845459Y32906227D01*
X49103447Y32903339D01*
X49106270Y33150317D01*
X49106277Y33150465D01*
X49106273Y33150631D01*
X49112523Y33651480D01*
X49112531Y33651635D01*
X49112527Y33651790D01*
X49118777Y34114409D01*
X49118785Y34114570D01*
X49118782Y34114709D01*
X49125032Y34545395D01*
X49125039Y34545536D01*
X49125036Y34545684D01*
X49131286Y34949588D01*
X49131293Y34949721D01*
X49131290Y34949862D01*
X49137540Y35331257D01*
X49137547Y35331394D01*
X49137545Y35331513D01*
X49143795Y35693988D01*
X49143801Y35694105D01*
X49143799Y35694225D01*
X49150049Y36040839D01*
X49150055Y36040947D01*
X49150053Y36041053D01*
X49156303Y36374443D01*
X49156308Y36374530D01*
X49156306Y36374633D01*
X49162556Y36697109D01*
X49162561Y36697202D01*
X49162560Y36697274D01*
X49168810Y37010884D01*
X49168813Y37010943D01*
X49168812Y37011020D01*
X49175062Y37317613D01*
X49175065Y37317677D01*
X49175065Y37317721D01*
X49181315Y37618988D01*
X49181316Y37619019D01*
X49181316Y37619066D01*
X49187566Y37916584D01*
X49187567Y37916608D01*
X49187567Y37916632D01*
X49193817Y38211895D01*
X49193818Y38211912D01*
X49193818Y38211913D01*
X49200067Y38506334D01*
X49200067Y38506353D01*
X49206316Y38801375D01*
X49206316Y38801377D01*
X49212566Y39098488D01*
X49212566Y39098501D01*
X49218815Y39399033D01*
X49218815Y39399035D01*
X49225060Y39704440D01*
X49225060Y39704449D01*
X49231310Y40016752D01*
X49231310Y40016753D01*
X49237553Y40337106D01*
X49237553Y40337118D01*
X49243803Y40668151D01*
X49243804Y40668169D01*
X49250049Y41011395D01*
X49256291Y41369359D01*
X49256291Y41369377D01*
X49262541Y41745458D01*
X49262541Y41745461D01*
X49268787Y42142190D01*
X49268787Y42142192D01*
X49275032Y42563621D01*
X49281276Y43014139D01*
X49287521Y43499436D01*
X49287521Y43499439D01*
X49293771Y44026609D01*
X49293771Y44026617D01*
X49296768Y44303331D01*
X49031068Y44306267D01*
X49030909Y44306274D01*
X49030763Y44306271D01*
X48512779Y44312521D01*
X48512626Y44312528D01*
X48512480Y44312525D01*
X48034055Y44318775D01*
X48033909Y44318782D01*
X48033765Y44318779D01*
X47588385Y44325029D01*
X47588245Y44325036D01*
X47588105Y44325033D01*
X47170440Y44331283D01*
X47170308Y44331290D01*
X47170176Y44331287D01*
X46775808Y44337537D01*
X46775684Y44337543D01*
X46775560Y44337541D01*
X46400775Y44343791D01*
X46400659Y44343797D01*
X46400545Y44343795D01*
X46042182Y44350045D01*
X46042086Y44350050D01*
X46041973Y44350048D01*
X45697301Y44356299D01*
X45697201Y44356304D01*
X45697118Y44356303D01*
X45363750Y44362553D01*
X45363670Y44362557D01*
X45363590Y44362556D01*
X45039408Y44368806D01*
X45039349Y44368809D01*
X45039276Y44368808D01*
X44722368Y44375058D01*
X44722316Y44375061D01*
X44722263Y44375060D01*
X44410881Y44381310D01*
X44410837Y44381312D01*
X44410805Y44381312D01*
X44103318Y44387562D01*
X44103293Y44387563D01*
X44103271Y44387563D01*
X43801130Y44393751D01*
X32499834Y44400000D01*
X32496845Y44400119D01*
X32493852Y44400063D01*
X32189005Y44406312D01*
X32189001Y44406312D01*
X31882087Y44412561D01*
X31571600Y44418809D01*
X31571599Y44418809D01*
X31255974Y44425056D01*
X31255961Y44425056D01*
X30933497Y44431303D01*
X30933495Y44431303D01*
X30602393Y44437550D01*
X30260468Y44443800D01*
X30260456Y44443800D01*
X29906105Y44450043D01*
X29906101Y44450043D01*
X29536188Y44456288D01*
X29536188Y44456289D01*
X29148052Y44462535D01*
X28738351Y44468781D01*
X28303154Y44475026D01*
X28303154Y44475027D01*
X27837774Y44481273D01*
X27837770Y44481273D01*
X27336245Y44487523D01*
X26792531Y44493767D01*
X26496776Y44496869D01*
X26493733Y44212443D01*
X26493726Y44212299D01*
X26493730Y44212147D01*
X26487480Y43677031D01*
X26487473Y43676880D01*
X26487476Y43676741D01*
X26481226Y43182510D01*
X26481219Y43182365D01*
X26481222Y43182229D01*
X26474972Y42722154D01*
X26474966Y42722028D01*
X26474969Y42721883D01*
X26468719Y42290460D01*
X26468712Y42290329D01*
X26468715Y42290203D01*
X26462465Y41882861D01*
X26462459Y41882738D01*
X26462461Y41882621D01*
X26456211Y41495527D01*
X26456205Y41495411D01*
X26456207Y41495305D01*
X26449957Y41125190D01*
X26449952Y41125095D01*
X26449954Y41124989D01*
X26443704Y40769035D01*
X26443700Y40768948D01*
X26443701Y40768856D01*
X26437451Y40424597D01*
X26437447Y40424517D01*
X26437448Y40424443D01*
X26431198Y40089688D01*
X26431194Y40089616D01*
X26431195Y40089559D01*
X26424945Y39762337D01*
X26424942Y39762285D01*
X26424943Y39762235D01*
X26418693Y39440738D01*
X26418692Y39440706D01*
X26418692Y39440664D01*
X26412442Y39123207D01*
X26412441Y39123183D01*
X26412441Y39123162D01*
X26406191Y38808153D01*
X26406191Y38808148D01*
X26406191Y38808136D01*
X26399941Y38494032D01*
X26399941Y38494027D01*
X26393692Y38179372D01*
X26393692Y38179366D01*
X26387442Y37862507D01*
X26387442Y37862499D01*
X26381195Y37542120D01*
X26381195Y37542116D01*
X26374945Y37216236D01*
X26374945Y37216229D01*
X26368700Y36883579D01*
X26368700Y36883572D01*
X26362450Y36541722D01*
X26356203Y36189077D01*
X26356203Y36189071D01*
X26349960Y35823424D01*
X26349960Y35823414D01*
X26343714Y35441749D01*
X26343714Y35441743D01*
X26337464Y35041043D01*
X26337464Y35041028D01*
X26331221Y34618612D01*
X26331221Y34618608D01*
X26324975Y34169648D01*
X26324975Y34169641D01*
X26318725Y33689275D01*
X26318725Y33689266D01*
X26312478Y33172223D01*
X26312478Y33172219D01*
X26306232Y32611133D01*
X26303036Y32296877D01*
X26606187Y32293735D01*
X26606330Y32293728D01*
X26606474Y32293732D01*
X27158725Y32287482D01*
X27158875Y32287475D01*
X27159006Y32287478D01*
X27669042Y32281228D01*
X27669173Y32281222D01*
X27669315Y32281225D01*
X28144084Y32274975D01*
X28144221Y32274968D01*
X28144346Y32274971D01*
X28589531Y32268721D01*
X28589648Y32268715D01*
X28589780Y32268718D01*
X29010094Y32262468D01*
X29010217Y32262462D01*
X29010328Y32262464D01*
X29409731Y32256214D01*
X29409833Y32256209D01*
X29409946Y32256211D01*
X29791811Y32249961D01*
X29791906Y32249956D01*
X29792008Y32249958D01*
X30159243Y32243707D01*
X30159330Y32243703D01*
X30159416Y32243704D01*
X30514567Y32237454D01*
X30514647Y32237450D01*
X30514717Y32237451D01*
X30860043Y32231201D01*
X30860102Y32231198D01*
X30860168Y32231199D01*
X31197706Y32224949D01*
X31197758Y32224947D01*
X31197805Y32224947D01*
X31529417Y32218697D01*
X31529462Y32218695D01*
X31529489Y32218695D01*
X31856914Y32212445D01*
X31856926Y32212445D01*
X31856958Y32212445D01*
X32179134Y32206248D01*
X38000322Y32200000D01*
X43824866Y32193750D01*
X43827579Y32193641D01*
X43830282Y32193695D01*
X44157012Y32187445D01*
X44157018Y32187445D01*
X44487470Y32181196D01*
X44823373Y32174948D01*
X44823376Y32174948D01*
X45166503Y32168700D01*
X45518782Y32162453D01*
X45882326Y32156206D01*
X45882328Y32156206D01*
X46259488Y32149959D01*
X46259494Y32149959D01*
X46652710Y32143716D01*
X47065719Y32137466D01*
X47065729Y32137466D01*
X47501143Y32131223D01*
X47964141Y32124973D01*
X47964148Y32124973D01*
X48458939Y32118726D01*
X48458943Y32118726D01*
X48991806Y32112479D01*
X49570102Y32106232D01*
X49903029Y32102947D01*
X49906265Y32424825D01*
X49906271Y32424965D01*
X49906268Y32425103D01*
X49912518Y32994487D01*
X49912524Y32994622D01*
X49912521Y32994760D01*
X49918771Y33520601D01*
X49918777Y33520731D01*
X49918774Y33520866D01*
X49925024Y34010329D01*
X49925031Y34010465D01*
X49925028Y34010584D01*
X49931278Y34469530D01*
X49931284Y34469646D01*
X49931281Y34469772D01*
X49937531Y34903059D01*
X49937537Y34903181D01*
X49937535Y34903286D01*
X49943785Y35314998D01*
X49943790Y35315100D01*
X49943788Y35315207D01*
X49950038Y35708822D01*
X49950043Y35708916D01*
X49950041Y35709011D01*
X49956291Y36087529D01*
X49956295Y36087616D01*
X49956294Y36087698D01*
X49962544Y36453741D01*
X49962547Y36453807D01*
X49962546Y36453886D01*
X49968796Y36809785D01*
X49968799Y36809844D01*
X49968798Y36809906D01*
X49975048Y37157758D01*
X49975050Y37157810D01*
X49975050Y37157855D01*
X49981300Y37499583D01*
X49981301Y37499615D01*
X49981301Y37499653D01*
X49987551Y37837046D01*
X49987552Y37837071D01*
X49987552Y37837090D01*
X49993802Y38171845D01*
X49993803Y38171863D01*
X50000052Y38505586D01*
X50000052Y38505607D01*
X50006302Y38839976D01*
X50006303Y38839993D01*
X50012552Y39176541D01*
X50012552Y39176544D01*
X50018799Y39516873D01*
X50018799Y39516883D01*
X50025049Y39862992D01*
X50031294Y40216288D01*
X50031294Y40216303D01*
X50037544Y40579297D01*
X50037544Y40579313D01*
X50043789Y40953589D01*
X50050039Y41342186D01*
X50050039Y41342187D01*
X50056282Y41747155D01*
X50056282Y41747172D01*
X50062532Y42172490D01*
X50062532Y42172495D01*
X50068779Y42621147D01*
X50068779Y42621152D01*
X50075026Y43097660D01*
X50075026Y43097662D01*
X50081269Y43606877D01*
X50081269Y43606897D01*
X50087519Y44155840D01*
X50087520Y44155860D01*
X50093764Y44751002D01*
X50093764Y44751006D01*
X50097138Y45102939D01*
X49756533Y45106263D01*
X49756394Y45106269D01*
X49756263Y45106266D01*
X49169745Y45112517D01*
X49169612Y45112523D01*
X49169481Y45112520D01*
X48627833Y45118769D01*
X48627705Y45118775D01*
X48627575Y45118772D01*
X48123418Y45125022D01*
X48123296Y45125028D01*
X48123171Y45125025D01*
X47650465Y45131275D01*
X47650350Y45131281D01*
X47650230Y45131278D01*
X47203970Y45137528D01*
X47203849Y45137534D01*
X47203749Y45137532D01*
X46779727Y45143783D01*
X46779626Y45143788D01*
X46779525Y45143786D01*
X46374160Y45150035D01*
X46374066Y45150040D01*
X46373974Y45150038D01*
X45984176Y45156288D01*
X45984102Y45156292D01*
X45984012Y45156290D01*
X45607077Y45162541D01*
X45606998Y45162545D01*
X45606935Y45162544D01*
X45240465Y45168794D01*
X45240406Y45168797D01*
X45240347Y45168796D01*
X44882179Y45175046D01*
X44882140Y45175048D01*
X44882085Y45175047D01*
X44530242Y45181297D01*
X44530197Y45181299D01*
X44530173Y45181299D01*
X44182811Y45187549D01*
X44182799Y45187549D01*
X44182769Y45187549D01*
X43838140Y45193799D01*
X43838124Y45193800D01*
X43497213Y45200001D01*
X32155641Y45206250D01*
X32153016Y45206354D01*
X32150395Y45206299D01*
X31803981Y45212548D01*
X31453616Y45218796D01*
X31453604Y45218796D01*
X31097491Y45225044D01*
X31097489Y45225044D01*
X30733745Y45231292D01*
X30360346Y45237539D01*
X30360335Y45237539D01*
X29974843Y45243789D01*
X29974825Y45243790D01*
X29575301Y45250033D01*
X29575301Y45250034D01*
X29158359Y45256281D01*
X28720976Y45262527D01*
X28720956Y45262527D01*
X28259333Y45268774D01*
X27769062Y45275021D01*
X27244869Y45281268D01*
X26680120Y45287518D01*
X26680104Y45287518D01*
X26067812Y45293763D01*
X26067804Y45293763D01*
X25697144Y45297217D01*
X25693737Y44937885D01*
X25693731Y44937748D01*
X25693734Y44937623D01*
X25687484Y44333971D01*
X25687478Y44333839D01*
X25687481Y44333714D01*
X25681232Y43776261D01*
X25681226Y43776134D01*
X25681229Y43776010D01*
X25674978Y43257158D01*
X25674972Y43257037D01*
X25674975Y43256918D01*
X25668725Y42770452D01*
X25668720Y42770337D01*
X25668722Y42770223D01*
X25662472Y42310990D01*
X25662467Y42310882D01*
X25662469Y42310776D01*
X25656219Y41874445D01*
X25656214Y41874344D01*
X25656216Y41874247D01*
X25649966Y41457131D01*
X25649962Y41457050D01*
X25649964Y41456952D01*
X25643714Y41055872D01*
X25643710Y41055786D01*
X25643711Y41055713D01*
X25637461Y40667886D01*
X25637458Y40667820D01*
X25637459Y40667748D01*
X25631209Y40290706D01*
X25631206Y40290647D01*
X25631207Y40290590D01*
X25624957Y39922108D01*
X25624955Y39922056D01*
X25624955Y39922017D01*
X25618705Y39560058D01*
X25618704Y39560026D01*
X25618704Y39559991D01*
X25612454Y39202659D01*
X25612453Y39202634D01*
X25612453Y39202618D01*
X25606203Y38848118D01*
X25606203Y38848113D01*
X25606203Y38848101D01*
X25599953Y38494696D01*
X25599075Y38479298D01*
X25599075Y38476462D01*
X25598823Y38474867D01*
X25598612Y38471178D01*
X25594981Y38450611D01*
X25591711Y38429966D01*
X25590890Y38427437D01*
X25590427Y38424819D01*
X25583619Y38405060D01*
X25577164Y38385195D01*
X25575958Y38382828D01*
X25575091Y38380312D01*
X25565279Y38361869D01*
X25555792Y38343250D01*
X25554228Y38341097D01*
X25552980Y38338752D01*
X25540417Y38322088D01*
X25528122Y38305166D01*
X25526241Y38303285D01*
X25524641Y38301163D01*
X25509620Y38286664D01*
X25494834Y38271878D01*
X25492682Y38270315D01*
X25490770Y38268469D01*
X25473667Y38256499D01*
X25456750Y38244208D01*
X25454379Y38243000D01*
X25452203Y38241477D01*
X25433448Y38232336D01*
X25414805Y38222836D01*
X25412272Y38222013D01*
X25409886Y38220850D01*
X25389943Y38214758D01*
X25370034Y38208289D01*
X25367403Y38207873D01*
X25364865Y38207097D01*
X25344207Y38204199D01*
X25323538Y38200925D01*
X25319841Y38200780D01*
X25318246Y38200556D01*
X25315420Y38200606D01*
X25300000Y38200000D01*
X24306081Y38200000D01*
X24309205Y38112043D01*
X24320675Y37918377D01*
X24336731Y37724974D01*
X24357355Y37532033D01*
X24382537Y37339642D01*
X24412270Y37147867D01*
X24446526Y36956886D01*
X24485292Y36766770D01*
X24528550Y36577604D01*
X24576274Y36389504D01*
X24628428Y36202610D01*
X24684989Y36017010D01*
X24747050Y35829400D01*
X24753564Y35806762D01*
X24761175Y35760306D01*
X24761425Y35713232D01*
X24754308Y35666697D01*
X24739998Y35621850D01*
X24718849Y35579791D01*
X24691382Y35541561D01*
X24658272Y35508097D01*
X24620335Y35480225D01*
X24578504Y35458631D01*
X24533810Y35443846D01*
X24487354Y35436235D01*
X24440279Y35435985D01*
X24393744Y35443103D01*
X24348897Y35457412D01*
X24306839Y35478561D01*
X24268608Y35506028D01*
X24235144Y35539139D01*
X24207273Y35577076D01*
X24185679Y35618906D01*
X24177408Y35640963D01*
X24114237Y35831928D01*
X24113254Y35835346D01*
X24112088Y35838693D01*
X24053453Y36031099D01*
X24052555Y36034525D01*
X24051463Y36037915D01*
X23997398Y36231654D01*
X23996579Y36235110D01*
X23995571Y36238514D01*
X23946105Y36433478D01*
X23945366Y36436961D01*
X23944441Y36440380D01*
X23899602Y36636459D01*
X23898946Y36639959D01*
X23898102Y36643398D01*
X23857915Y36840485D01*
X23857343Y36843989D01*
X23856579Y36847457D01*
X23821067Y37045439D01*
X23820579Y37048954D01*
X23819896Y37052442D01*
X23789079Y37251209D01*
X23788675Y37254729D01*
X23788074Y37258236D01*
X23761968Y37457676D01*
X23761646Y37461216D01*
X23761130Y37464727D01*
X23739751Y37664728D01*
X23739512Y37668288D01*
X23739081Y37671795D01*
X23722439Y37872247D01*
X23722284Y37875807D01*
X23721936Y37879330D01*
X23710044Y38080120D01*
X23709974Y38083665D01*
X23709708Y38087209D01*
X23702569Y38288225D01*
X23702583Y38291776D01*
X23702401Y38295323D01*
X23700021Y38496450D01*
X23700667Y38519998D01*
X23700925Y38521762D01*
X23700925Y38523538D01*
X23704330Y38545031D01*
X23707481Y38566577D01*
X23708011Y38568273D01*
X23708289Y38570034D01*
X23715023Y38590756D01*
X23721497Y38611517D01*
X23722286Y38613111D01*
X23722836Y38614805D01*
X23732723Y38634208D01*
X23742371Y38653712D01*
X23743400Y38655163D01*
X23744208Y38656750D01*
X23757017Y38674378D01*
X23769589Y38692121D01*
X23770831Y38693392D01*
X23771878Y38694834D01*
X23787265Y38710220D01*
X23802480Y38725801D01*
X23803911Y38726866D01*
X23805166Y38728122D01*
X23822763Y38740906D01*
X23840234Y38753919D01*
X23841810Y38754745D01*
X23843250Y38755792D01*
X23862649Y38765676D01*
X23881923Y38775786D01*
X23883610Y38776356D01*
X23885195Y38777164D01*
X23905891Y38783888D01*
X23926519Y38790862D01*
X23928275Y38791161D01*
X23929966Y38791711D01*
X23951445Y38795112D01*
X23972925Y38798776D01*
X23974708Y38798797D01*
X23976462Y38799075D01*
X24000000Y38800000D01*
X25005259Y38800000D01*
X25006297Y38858711D01*
X25006298Y38858718D01*
X25012547Y39213145D01*
X25012546Y39213152D01*
X25018796Y39570483D01*
X25018797Y39570486D01*
X25025044Y39932273D01*
X25025043Y39932284D01*
X25031292Y40300649D01*
X25031291Y40300650D01*
X25037541Y40677692D01*
X25037542Y40677697D01*
X25043787Y41065210D01*
X25043786Y41065221D01*
X25050036Y41466300D01*
X25050037Y41466317D01*
X25056282Y41883038D01*
X25056281Y41883039D01*
X25062530Y42319266D01*
X25068777Y42778313D01*
X25075024Y43264490D01*
X25081271Y43783015D01*
X25087517Y44340180D01*
X25087516Y44340183D01*
X25093764Y44943565D01*
X25093763Y44943573D01*
X25100013Y45602844D01*
X25101157Y45626256D01*
X25101157Y45626324D01*
X25101161Y45626346D01*
X25101162Y45626372D01*
X25104419Y45645745D01*
X25108954Y45672750D01*
X25108963Y45672775D01*
X25108966Y45672796D01*
X25115646Y45692708D01*
X25123918Y45717383D01*
X25123930Y45717405D01*
X25123937Y45717427D01*
X25135271Y45739159D01*
X25145680Y45759127D01*
X25145693Y45759143D01*
X25145705Y45759168D01*
X25161234Y45780120D01*
X25173704Y45796952D01*
X25173720Y45796967D01*
X25173735Y45796988D01*
X25190930Y45813859D01*
X25207300Y45829928D01*
X25207320Y45829942D01*
X25207337Y45829959D01*
X25225406Y45842826D01*
X25245641Y45857242D01*
X25245666Y45857254D01*
X25245682Y45857266D01*
X25264608Y45866684D01*
X25287783Y45878222D01*
X25287808Y45878229D01*
X25287828Y45878240D01*
X25311410Y45885655D01*
X25332688Y45892351D01*
X25332709Y45892354D01*
X25332734Y45892362D01*
X25359238Y45896302D01*
X25379250Y45899281D01*
X25379277Y45899281D01*
X25379298Y45899285D01*
X25379363Y45899284D01*
X25402796Y45899987D01*
X26073396Y45893737D01*
G37*
%TD.AperFunction*%
%TD*%
D11*
%TO.N,*%
%TO.C,J1*%
X76200000Y42500000D03*
X76200000Y31500000D03*
D12*
%TO.N,/PGND*%
X66200000Y34500000D03*
D13*
%TO.N,/VIN_RAW*%
X66200000Y39500000D03*
%TD*%
D11*
%TO.N,*%
%TO.C,J2*%
X8800000Y31500000D03*
X8800000Y42500000D03*
D14*
%TO.N,/SGND*%
X13800000Y34500000D03*
D13*
%TO.N,/VOUT*%
X13800000Y39500000D03*
%TD*%
D15*
%TO.N,/PRI_A*%
%TO.C,T1*%
X51537772Y35735180D03*
%TO.N,/TANK_C*%
X51537772Y41264820D03*
%TO.N,/SEC_A*%
X24462228Y41264820D03*
%TO.N,/VOUT*%
X27800000Y38500000D03*
%TO.N,/SEC_B*%
X24462228Y35735180D03*
%TO.N,unconnected-(T1-P_MID-Pad6)*%
X48200000Y38500000D03*
%TD*%
D16*
%TO.N,/AGND*%
X52000000Y30975000D03*
X44325000Y8800000D03*
X47200000Y18375000D03*
X38800000Y16325000D03*
X35950000Y8130000D03*
X44325000Y21300000D03*
X56100000Y30200000D03*
X55100000Y52275000D03*
X42125000Y13600000D03*
X58000000Y55000000D03*
X38800000Y20575000D03*
X53000000Y30500000D03*
X39575000Y23000000D03*
X45600000Y16370000D03*
X49950000Y20150000D03*
X51950000Y27200000D03*
X46000000Y23325000D03*
X58275000Y46300000D03*
X35950000Y15730000D03*
%TO.N,/BIAS12*%
X54000000Y15675000D03*
X60950000Y9500000D03*
X52000000Y29425000D03*
X47200000Y16825000D03*
X56100000Y31150000D03*
X56100000Y29250000D03*
X49100000Y10825000D03*
X62000000Y17275000D03*
X49100000Y5525000D03*
X45600000Y17630000D03*
%TO.N,/BIAS_BST*%
X54225000Y25500000D03*
X55000000Y20870000D03*
%TO.N,/BIAS_EN*%
X62500000Y19375000D03*
X61000000Y22140000D03*
X62500000Y24825000D03*
%TO.N,/BIAS_FB*%
X54000000Y17325000D03*
X58000000Y17275000D03*
X55000000Y23410000D03*
X56000000Y15675000D03*
%TO.N,/BIAS_SW*%
X55050000Y9500000D03*
X55775000Y25500000D03*
X60000000Y15675000D03*
X55000000Y19600000D03*
%TO.N,/CS_AC*%
X49800000Y23375000D03*
X47800000Y28175000D03*
%TO.N,/DT*%
X40475000Y13600000D03*
X40400000Y18900000D03*
%TO.N,/FB_COL*%
X35950000Y18270000D03*
X40400000Y10725000D03*
%TO.N,/FB_K*%
X27450000Y18240000D03*
X22575000Y13600000D03*
X30500000Y21225000D03*
X29650000Y15730000D03*
%TO.N,/FB_LED*%
X27625000Y22000000D03*
X29650000Y18270000D03*
%TO.N,/GD1*%
X42675000Y23000000D03*
X45600000Y18900000D03*
%TO.N,/GD2*%
X45600000Y15100000D03*
X42675000Y10500000D03*
%TO.N,/HI*%
X44325000Y23000000D03*
X61100000Y44900000D03*
%TO.N,/LI*%
X44325000Y10500000D03*
X60330000Y46300000D03*
%TO.N,/OC*%
X40400000Y16370000D03*
X49950000Y22050000D03*
X38025000Y23000000D03*
X46000000Y21675000D03*
%TO.N,/OV_LED*%
X24000000Y10175000D03*
X22300000Y11825000D03*
X29650000Y10670000D03*
%TO.N,/OV_REF*%
X25550000Y10640000D03*
X25725000Y6000000D03*
X19000000Y9325000D03*
X21000000Y6775000D03*
%TO.N,/PGND*%
X49100000Y13775000D03*
X59725000Y36700000D03*
X56000000Y17325000D03*
X59770000Y42660000D03*
X55975000Y42900000D03*
X49100000Y8475000D03*
X48300000Y52690000D03*
X60775000Y28000000D03*
X61200000Y30925000D03*
X58000000Y21500000D03*
X72500000Y25000000D03*
X55975000Y40100000D03*
X61000000Y19600000D03*
X60000000Y40200000D03*
X54000000Y48575000D03*
X62500000Y21025000D03*
%TO.N,/RIPPLE*%
X60000000Y17325000D03*
X62000000Y15725000D03*
X58000000Y15725000D03*
%TO.N,/RT*%
X38800000Y14675000D03*
X40400000Y17630000D03*
X40400000Y9075000D03*
%TO.N,/SEC_A*%
X20310000Y44610000D03*
%TO.N,/SGND*%
X19990000Y34100000D03*
X17300000Y43275000D03*
X23500000Y28975000D03*
X19960000Y41900000D03*
X26500000Y8160000D03*
X27275000Y6000000D03*
X21290000Y34100000D03*
X11500000Y25000000D03*
X22500000Y36600000D03*
X26500000Y15760000D03*
X20640000Y34100000D03*
X19310000Y41900000D03*
X21000000Y8425000D03*
X23500000Y23975000D03*
X20610000Y41900000D03*
X17300000Y39130000D03*
X21775000Y50000000D03*
X19000000Y28975000D03*
X21000000Y17825000D03*
X20450000Y35000000D03*
%TO.N,/SS*%
X38800000Y19025000D03*
X40400000Y15100000D03*
X35950000Y10670000D03*
%TO.N,/SW*%
X57800000Y38000000D03*
X62000000Y44500000D03*
X62200000Y47075000D03*
%TO.N,/TANK_C*%
X53025000Y40100000D03*
X47800000Y26625000D03*
%TO.N,/V5*%
X53900000Y29250000D03*
X59600000Y45600000D03*
X55100000Y50725000D03*
X55000000Y55000000D03*
X56725000Y46300000D03*
%TO.N,/VG1*%
X24325000Y42700000D03*
X17300000Y40400000D03*
%TO.N,/VG2*%
X22500000Y40400000D03*
X17000000Y31175000D03*
%TO.N,/VIN*%
X62500000Y23175000D03*
X57825000Y28000000D03*
X61200000Y33875000D03*
X54000000Y45625000D03*
X70000000Y25000000D03*
X61000000Y20870000D03*
X48300000Y48310000D03*
X50550000Y51000000D03*
%TO.N,/VIN_RAW*%
X53450000Y51000000D03*
%TO.N,/VOUT*%
X18825000Y50000000D03*
X19000000Y7675000D03*
X23500000Y26025000D03*
X9000000Y25000000D03*
X22300000Y10175000D03*
X25975000Y22000000D03*
X22500000Y39130000D03*
X23500000Y21025000D03*
X19000000Y26025000D03*
X17300000Y41725000D03*
X19000000Y16175000D03*
%TO.N,/VREF*%
X25550000Y18240000D03*
X27775000Y13600000D03*
X19000000Y17825000D03*
X30500000Y22775000D03*
X21000000Y16175000D03*
%TO.N,/VS1*%
X17300000Y36600000D03*
X24000000Y45825000D03*
%TO.N,/VS2*%
X22500000Y37870000D03*
X24000000Y32625000D03*
%TD*%
%TO.N,/BIAS12*%
D17*
X60950000Y9500000D02*
X62800000Y7650000D01*
D18*
X62000000Y17275000D02*
X63200000Y18475000D01*
D17*
X48900000Y16000000D02*
X47200000Y16825000D01*
D18*
X51800000Y13525000D02*
X54000000Y15675000D01*
X56100000Y29250000D02*
X55500000Y28400000D01*
D17*
X62800000Y5300000D02*
X49100000Y5300000D01*
X50400000Y14500000D02*
X48900000Y16000000D01*
X47200000Y16825000D02*
X45600000Y17630000D01*
X50400000Y6825000D02*
X50400000Y12100000D01*
D18*
X55500000Y28400000D02*
X52800000Y28400000D01*
D17*
X62800000Y7650000D02*
X62800000Y5300000D01*
X49100000Y5300000D02*
X49100000Y5525000D01*
D18*
X49100000Y10825000D02*
X51800000Y13525000D01*
D19*
X60900000Y16700000D02*
X62000000Y17275000D01*
D17*
X49100000Y10825000D02*
X50400000Y10825000D01*
X49100000Y5525000D02*
X50400000Y6825000D01*
D18*
X63200000Y27100000D02*
X61050000Y29250000D01*
D17*
X50400000Y12100000D02*
X50400000Y14500000D01*
D19*
X60950000Y9500000D02*
X60900000Y10500000D01*
D18*
X61050000Y29250000D02*
X56100000Y29250000D01*
X52800000Y28400000D02*
X52000000Y29425000D01*
X63200000Y18475000D02*
X63200000Y27100000D01*
D19*
X60900000Y10500000D02*
X60900000Y16700000D01*
%TO.N,/SS*%
D20*
X39600000Y18225000D02*
X38800000Y19025000D01*
X38170000Y10670000D02*
X35950000Y10670000D01*
X39600000Y15900000D02*
X39600000Y18225000D01*
X39500000Y12000000D02*
X38170000Y10670000D01*
X40400000Y15100000D02*
X39500000Y14200000D01*
X39500000Y14200000D02*
X39500000Y12000000D01*
X40400000Y15100000D02*
X39600000Y15900000D01*
%TO.N,/V5*%
D21*
X57500000Y45525000D02*
X57500000Y49000000D01*
D22*
X55100000Y50725000D02*
X55100000Y49900001D01*
X55100000Y49900001D02*
X56200000Y49900001D01*
D21*
X56725000Y46300000D02*
X57500000Y45525000D01*
D22*
X56200000Y55000000D02*
X55000000Y55000000D01*
D21*
X57500000Y49000000D02*
X55100000Y50725000D01*
D22*
X56200000Y49900001D02*
X56200000Y55000000D01*
%TD*%
%TA.AperFunction,Conductor*%
%TO.N,/SGND*%
G36*
X27471780Y53381518D02*
G01*
X27498800Y53334718D01*
X27500000Y53321000D01*
X27500000Y46879000D01*
X27481518Y46828220D01*
X27434718Y46801200D01*
X27421000Y46800000D01*
X23099999Y46800000D01*
X23099999Y40756603D01*
X23081517Y40705823D01*
X23034717Y40678803D01*
X22981499Y40688187D01*
X22952584Y40717102D01*
X22940508Y40738016D01*
X22940508Y40738017D01*
X22838017Y40840508D01*
X22712486Y40912984D01*
X22712484Y40912985D01*
X22572475Y40950500D01*
X22427525Y40950500D01*
X22427524Y40950500D01*
X22287515Y40912985D01*
X22287513Y40912984D01*
X22161982Y40840508D01*
X22059492Y40738018D01*
X21987016Y40612487D01*
X21987015Y40612485D01*
X21949500Y40472476D01*
X21949500Y40327525D01*
X21987015Y40187516D01*
X21987016Y40187514D01*
X22059492Y40061983D01*
X22161982Y39959493D01*
X22280420Y39891112D01*
X22287515Y39887016D01*
X22427525Y39849500D01*
X22427527Y39849500D01*
X22572473Y39849500D01*
X22572475Y39849500D01*
X22712485Y39887016D01*
X22838015Y39959491D01*
X22940509Y40061985D01*
X22952583Y40082899D01*
X22993979Y40117634D01*
X23048019Y40117634D01*
X23089415Y40082898D01*
X23099999Y40043398D01*
X23099999Y39486603D01*
X23081517Y39435823D01*
X23034717Y39408803D01*
X22981499Y39418187D01*
X22952584Y39447102D01*
X22940508Y39468016D01*
X22940508Y39468017D01*
X22838017Y39570508D01*
X22712486Y39642984D01*
X22712484Y39642985D01*
X22572475Y39680500D01*
X22427525Y39680500D01*
X22427524Y39680500D01*
X22287515Y39642985D01*
X22287513Y39642984D01*
X22161982Y39570508D01*
X22059492Y39468018D01*
X21987016Y39342487D01*
X21987015Y39342485D01*
X21949500Y39202476D01*
X21949500Y39057525D01*
X21987015Y38917516D01*
X21987016Y38917514D01*
X22059492Y38791983D01*
X22161982Y38689493D01*
X22161984Y38689492D01*
X22161985Y38689491D01*
X22287515Y38617016D01*
X22427525Y38579500D01*
X22427527Y38579500D01*
X22572473Y38579500D01*
X22572475Y38579500D01*
X22712485Y38617016D01*
X22838015Y38689491D01*
X22940509Y38791985D01*
X22952583Y38812899D01*
X22993979Y38847634D01*
X23048019Y38847634D01*
X23089415Y38812898D01*
X23099999Y38773398D01*
X23099999Y38226603D01*
X23081517Y38175823D01*
X23034717Y38148803D01*
X22981499Y38158187D01*
X22952584Y38187102D01*
X22940508Y38208016D01*
X22940508Y38208017D01*
X22838017Y38310508D01*
X22712486Y38382984D01*
X22712484Y38382985D01*
X22572475Y38420500D01*
X22427525Y38420500D01*
X22427524Y38420500D01*
X22287515Y38382985D01*
X22287513Y38382984D01*
X22161982Y38310508D01*
X22059492Y38208018D01*
X21987016Y38082487D01*
X21987015Y38082485D01*
X21949500Y37942476D01*
X21949500Y37797525D01*
X21987015Y37657516D01*
X21987016Y37657514D01*
X22059492Y37531983D01*
X22161982Y37429493D01*
X22255004Y37375786D01*
X22287515Y37357016D01*
X22427525Y37319500D01*
X22427527Y37319500D01*
X22572473Y37319500D01*
X22572475Y37319500D01*
X22712485Y37357016D01*
X22838015Y37429491D01*
X22940509Y37531985D01*
X22952583Y37552899D01*
X22993979Y37587634D01*
X23048019Y37587634D01*
X23089415Y37552898D01*
X23099999Y37513398D01*
X23099999Y30000000D01*
X28908867Y26772852D01*
X28944280Y26732037D01*
X28949500Y26703796D01*
X28949500Y25812465D01*
X28979898Y25640067D01*
X29039775Y25475553D01*
X29060009Y25440508D01*
X29127307Y25323945D01*
X29239837Y25189837D01*
X29373945Y25077307D01*
X29461475Y25026772D01*
X29525552Y24989776D01*
X29525555Y24989775D01*
X29690063Y24929899D01*
X29862468Y24899500D01*
X29862472Y24899500D01*
X32260430Y24899500D01*
X32298795Y24889559D01*
X32959366Y24522574D01*
X32994780Y24481758D01*
X33000000Y24453517D01*
X33000000Y4679000D01*
X32981518Y4628220D01*
X32934718Y4601200D01*
X32921000Y4600000D01*
X9579500Y4600000D01*
X9528720Y4618482D01*
X9501700Y4665282D01*
X9500500Y4679000D01*
X9500500Y4718335D01*
X9500499Y4718337D01*
X9462443Y5153318D01*
X9386619Y5583337D01*
X9273605Y6005112D01*
X9249087Y6072476D01*
X25174500Y6072476D01*
X25174500Y5927525D01*
X25212015Y5787516D01*
X25212016Y5787514D01*
X25284492Y5661983D01*
X25386982Y5559493D01*
X25386984Y5559492D01*
X25386985Y5559491D01*
X25512515Y5487016D01*
X25652525Y5449500D01*
X25652527Y5449500D01*
X25797473Y5449500D01*
X25797475Y5449500D01*
X25937485Y5487016D01*
X26063015Y5559491D01*
X26165509Y5661985D01*
X26237984Y5787515D01*
X26275500Y5927525D01*
X26275500Y6072475D01*
X26237984Y6212485D01*
X26165509Y6338015D01*
X26165508Y6338016D01*
X26165507Y6338018D01*
X26063017Y6440508D01*
X25937486Y6512984D01*
X25937484Y6512985D01*
X25797475Y6550500D01*
X25652525Y6550500D01*
X25652524Y6550500D01*
X25512515Y6512985D01*
X25512513Y6512984D01*
X25386982Y6440508D01*
X25284492Y6338018D01*
X25212016Y6212487D01*
X25212015Y6212485D01*
X25174500Y6072476D01*
X9249087Y6072476D01*
X9124261Y6415432D01*
X9124255Y6415445D01*
X9124255Y6415447D01*
X8939726Y6811167D01*
X8939724Y6811171D01*
X8939723Y6811174D01*
X8918764Y6847476D01*
X20449500Y6847476D01*
X20449500Y6702525D01*
X20487015Y6562516D01*
X20487016Y6562514D01*
X20559492Y6436983D01*
X20661982Y6334493D01*
X20661984Y6334492D01*
X20661985Y6334491D01*
X20787515Y6262016D01*
X20927525Y6224500D01*
X20927527Y6224500D01*
X21072473Y6224500D01*
X21072475Y6224500D01*
X21212485Y6262016D01*
X21338015Y6334491D01*
X21440509Y6436985D01*
X21512984Y6562515D01*
X21550500Y6702525D01*
X21550500Y6847475D01*
X21512984Y6987485D01*
X21440509Y7113015D01*
X21440508Y7113016D01*
X21440507Y7113018D01*
X21338017Y7215508D01*
X21212486Y7287984D01*
X21212484Y7287985D01*
X21072475Y7325500D01*
X20927525Y7325500D01*
X20927524Y7325500D01*
X20787515Y7287985D01*
X20787513Y7287984D01*
X20661982Y7215508D01*
X20559492Y7113018D01*
X20487016Y6987487D01*
X20487015Y6987485D01*
X20449500Y6847476D01*
X8918764Y6847476D01*
X8721397Y7189326D01*
X8703064Y7215508D01*
X8470944Y7547011D01*
X8470931Y7547028D01*
X8341000Y7701873D01*
X8302734Y7747476D01*
X18449500Y7747476D01*
X18449500Y7602525D01*
X18487015Y7462516D01*
X18487016Y7462514D01*
X18559492Y7336983D01*
X18661982Y7234493D01*
X18661984Y7234492D01*
X18661985Y7234491D01*
X18787515Y7162016D01*
X18927525Y7124500D01*
X18927527Y7124500D01*
X19072473Y7124500D01*
X19072475Y7124500D01*
X19212485Y7162016D01*
X19338015Y7234491D01*
X19440509Y7336985D01*
X19512984Y7462515D01*
X19550500Y7602525D01*
X19550500Y7747475D01*
X19512984Y7887485D01*
X19440509Y8013015D01*
X19440508Y8013016D01*
X19440507Y8013018D01*
X19338017Y8115508D01*
X19212486Y8187984D01*
X19212484Y8187985D01*
X19072475Y8225500D01*
X18927525Y8225500D01*
X18927524Y8225500D01*
X18787515Y8187985D01*
X18787513Y8187984D01*
X18661982Y8115508D01*
X18559492Y8013018D01*
X18487016Y7887487D01*
X18487015Y7887485D01*
X18449500Y7747476D01*
X8302734Y7747476D01*
X8190271Y7881504D01*
X8190259Y7881517D01*
X7881516Y8190260D01*
X7881503Y8190272D01*
X7547027Y8470932D01*
X7547010Y8470945D01*
X7189335Y8721391D01*
X7189331Y8721393D01*
X7189326Y8721397D01*
X6906839Y8884491D01*
X6811175Y8939723D01*
X6811166Y8939727D01*
X6415445Y9124256D01*
X6415434Y9124260D01*
X6415432Y9124261D01*
X6005112Y9273605D01*
X6005113Y9273605D01*
X6005107Y9273607D01*
X6005100Y9273609D01*
X5808283Y9326345D01*
X5583342Y9386618D01*
X5583338Y9386619D01*
X5583337Y9386619D01*
X5521764Y9397476D01*
X18449500Y9397476D01*
X18449500Y9252525D01*
X18487015Y9112516D01*
X18487016Y9112514D01*
X18559492Y8986983D01*
X18661982Y8884493D01*
X18661984Y8884492D01*
X18661985Y8884491D01*
X18787515Y8812016D01*
X18927525Y8774500D01*
X18927527Y8774500D01*
X19072473Y8774500D01*
X19072475Y8774500D01*
X19212485Y8812016D01*
X19338015Y8884491D01*
X19440509Y8986985D01*
X19512984Y9112515D01*
X19550500Y9252525D01*
X19550500Y9397475D01*
X19512984Y9537485D01*
X19440509Y9663015D01*
X19440508Y9663016D01*
X19440507Y9663018D01*
X19338017Y9765508D01*
X19212486Y9837984D01*
X19212484Y9837985D01*
X19072475Y9875500D01*
X18927525Y9875500D01*
X18927524Y9875500D01*
X18787515Y9837985D01*
X18787513Y9837984D01*
X18661982Y9765508D01*
X18559492Y9663018D01*
X18487016Y9537487D01*
X18487015Y9537485D01*
X18449500Y9397476D01*
X5521764Y9397476D01*
X5153318Y9462443D01*
X5153317Y9462444D01*
X5153312Y9462444D01*
X5072114Y9469548D01*
X5023138Y9492386D01*
X5000301Y9541362D01*
X5000000Y9548247D01*
X5000000Y10247476D01*
X21749500Y10247476D01*
X21749500Y10102525D01*
X21787015Y9962516D01*
X21787016Y9962514D01*
X21859492Y9836983D01*
X21961982Y9734493D01*
X22085784Y9663015D01*
X22087515Y9662016D01*
X22227525Y9624500D01*
X22227527Y9624500D01*
X22372473Y9624500D01*
X22372475Y9624500D01*
X22512485Y9662016D01*
X22638015Y9734491D01*
X22740509Y9836985D01*
X22812984Y9962515D01*
X22850500Y10102525D01*
X22850500Y10247475D01*
X22850500Y10247476D01*
X23449500Y10247476D01*
X23449500Y10102525D01*
X23487015Y9962516D01*
X23487016Y9962514D01*
X23559492Y9836983D01*
X23661982Y9734493D01*
X23785784Y9663015D01*
X23787515Y9662016D01*
X23927525Y9624500D01*
X23927527Y9624500D01*
X24072473Y9624500D01*
X24072475Y9624500D01*
X24212485Y9662016D01*
X24338015Y9734491D01*
X24440509Y9836985D01*
X24512984Y9962515D01*
X24550500Y10102525D01*
X24550500Y10247475D01*
X24512984Y10387485D01*
X24440509Y10513015D01*
X24440508Y10513016D01*
X24440507Y10513018D01*
X24338017Y10615508D01*
X24279597Y10649237D01*
X24212486Y10687984D01*
X24212484Y10687985D01*
X24121082Y10712476D01*
X24999500Y10712476D01*
X24999500Y10567525D01*
X25037015Y10427516D01*
X25037016Y10427514D01*
X25109492Y10301983D01*
X25211982Y10199493D01*
X25211984Y10199492D01*
X25211985Y10199491D01*
X25337515Y10127016D01*
X25477525Y10089500D01*
X25477527Y10089500D01*
X25622473Y10089500D01*
X25622475Y10089500D01*
X25762485Y10127016D01*
X25888015Y10199491D01*
X25990509Y10301985D01*
X26062984Y10427515D01*
X26100500Y10567525D01*
X26100500Y10712475D01*
X26092461Y10742475D01*
X26092461Y10742476D01*
X29099500Y10742476D01*
X29099500Y10597525D01*
X29137015Y10457516D01*
X29137016Y10457514D01*
X29209492Y10331983D01*
X29311982Y10229493D01*
X29311984Y10229492D01*
X29311985Y10229491D01*
X29437515Y10157016D01*
X29577525Y10119500D01*
X29577527Y10119500D01*
X29722473Y10119500D01*
X29722475Y10119500D01*
X29862485Y10157016D01*
X29988015Y10229491D01*
X30090509Y10331985D01*
X30162984Y10457515D01*
X30200500Y10597525D01*
X30200500Y10742475D01*
X30162984Y10882485D01*
X30090509Y11008015D01*
X30090508Y11008016D01*
X30090507Y11008018D01*
X29988017Y11110508D01*
X29862486Y11182984D01*
X29862484Y11182985D01*
X29722475Y11220500D01*
X29577525Y11220500D01*
X29577524Y11220500D01*
X29437515Y11182985D01*
X29437513Y11182984D01*
X29311982Y11110508D01*
X29209492Y11008018D01*
X29137016Y10882487D01*
X29137015Y10882485D01*
X29099500Y10742476D01*
X26092461Y10742476D01*
X26062984Y10852485D01*
X26062983Y10852487D01*
X25990507Y10978018D01*
X25888017Y11080508D01*
X25762486Y11152984D01*
X25762484Y11152985D01*
X25622475Y11190500D01*
X25477525Y11190500D01*
X25477524Y11190500D01*
X25337515Y11152985D01*
X25337513Y11152984D01*
X25211982Y11080508D01*
X25109492Y10978018D01*
X25037016Y10852487D01*
X25037015Y10852485D01*
X24999500Y10712476D01*
X24121082Y10712476D01*
X24072475Y10725500D01*
X23927525Y10725500D01*
X23927524Y10725500D01*
X23787515Y10687985D01*
X23787513Y10687984D01*
X23661982Y10615508D01*
X23559492Y10513018D01*
X23487016Y10387487D01*
X23487015Y10387485D01*
X23449500Y10247476D01*
X22850500Y10247476D01*
X22812984Y10387485D01*
X22740509Y10513015D01*
X22740508Y10513016D01*
X22740507Y10513018D01*
X22638017Y10615508D01*
X22512486Y10687984D01*
X22512484Y10687985D01*
X22372475Y10725500D01*
X22227525Y10725500D01*
X22227524Y10725500D01*
X22087515Y10687985D01*
X22087513Y10687984D01*
X21961982Y10615508D01*
X21859492Y10513018D01*
X21787016Y10387487D01*
X21787015Y10387485D01*
X21749500Y10247476D01*
X5000000Y10247476D01*
X5000000Y11897476D01*
X21749500Y11897476D01*
X21749500Y11752525D01*
X21787015Y11612516D01*
X21787016Y11612514D01*
X21859492Y11486983D01*
X21961982Y11384493D01*
X21961984Y11384492D01*
X21961985Y11384491D01*
X22087515Y11312016D01*
X22227525Y11274500D01*
X22227527Y11274500D01*
X22372473Y11274500D01*
X22372475Y11274500D01*
X22512485Y11312016D01*
X22638015Y11384491D01*
X22740509Y11486985D01*
X22812984Y11612515D01*
X22850500Y11752525D01*
X22850500Y11897475D01*
X22812984Y12037485D01*
X22740509Y12163015D01*
X22740508Y12163016D01*
X22740507Y12163018D01*
X22638017Y12265508D01*
X22512486Y12337984D01*
X22512484Y12337985D01*
X22372475Y12375500D01*
X22227525Y12375500D01*
X22227524Y12375500D01*
X22087515Y12337985D01*
X22087513Y12337984D01*
X21961982Y12265508D01*
X21859492Y12163018D01*
X21787016Y12037487D01*
X21787015Y12037485D01*
X21749500Y11897476D01*
X5000000Y11897476D01*
X5000000Y13672476D01*
X22024500Y13672476D01*
X22024500Y13527525D01*
X22062015Y13387516D01*
X22062016Y13387514D01*
X22134492Y13261983D01*
X22236982Y13159493D01*
X22236984Y13159492D01*
X22236985Y13159491D01*
X22362515Y13087016D01*
X22502525Y13049500D01*
X22502527Y13049500D01*
X22647473Y13049500D01*
X22647475Y13049500D01*
X22787485Y13087016D01*
X22913015Y13159491D01*
X23015509Y13261985D01*
X23087984Y13387515D01*
X23125500Y13527525D01*
X23125500Y13672475D01*
X23125500Y13672476D01*
X27224500Y13672476D01*
X27224500Y13527525D01*
X27262015Y13387516D01*
X27262016Y13387514D01*
X27334492Y13261983D01*
X27436982Y13159493D01*
X27436984Y13159492D01*
X27436985Y13159491D01*
X27562515Y13087016D01*
X27702525Y13049500D01*
X27702527Y13049500D01*
X27847473Y13049500D01*
X27847475Y13049500D01*
X27987485Y13087016D01*
X28113015Y13159491D01*
X28215509Y13261985D01*
X28287984Y13387515D01*
X28325500Y13527525D01*
X28325500Y13672475D01*
X28287984Y13812485D01*
X28215509Y13938015D01*
X28215508Y13938016D01*
X28215507Y13938018D01*
X28113017Y14040508D01*
X27987486Y14112984D01*
X27987484Y14112985D01*
X27847475Y14150500D01*
X27702525Y14150500D01*
X27702524Y14150500D01*
X27562515Y14112985D01*
X27562513Y14112984D01*
X27436982Y14040508D01*
X27334492Y13938018D01*
X27262016Y13812487D01*
X27262015Y13812485D01*
X27224500Y13672476D01*
X23125500Y13672476D01*
X23087984Y13812485D01*
X23015509Y13938015D01*
X23015508Y13938016D01*
X23015507Y13938018D01*
X22913017Y14040508D01*
X22787486Y14112984D01*
X22787484Y14112985D01*
X22647475Y14150500D01*
X22502525Y14150500D01*
X22502524Y14150500D01*
X22362515Y14112985D01*
X22362513Y14112984D01*
X22236982Y14040508D01*
X22134492Y13938018D01*
X22062016Y13812487D01*
X22062015Y13812485D01*
X22024500Y13672476D01*
X5000000Y13672476D01*
X5000000Y16247476D01*
X18449500Y16247476D01*
X18449500Y16102525D01*
X18487015Y15962516D01*
X18487016Y15962514D01*
X18559492Y15836983D01*
X18661982Y15734493D01*
X18661984Y15734492D01*
X18661985Y15734491D01*
X18787515Y15662016D01*
X18927525Y15624500D01*
X18927527Y15624500D01*
X19072473Y15624500D01*
X19072475Y15624500D01*
X19212485Y15662016D01*
X19338015Y15734491D01*
X19440509Y15836985D01*
X19512984Y15962515D01*
X19550500Y16102525D01*
X19550500Y16247475D01*
X19550500Y16247476D01*
X20449500Y16247476D01*
X20449500Y16102525D01*
X20487015Y15962516D01*
X20487016Y15962514D01*
X20559492Y15836983D01*
X20661982Y15734493D01*
X20661984Y15734492D01*
X20661985Y15734491D01*
X20787515Y15662016D01*
X20927525Y15624500D01*
X20927527Y15624500D01*
X21072473Y15624500D01*
X21072475Y15624500D01*
X21212485Y15662016D01*
X21338015Y15734491D01*
X21406000Y15802476D01*
X29099500Y15802476D01*
X29099500Y15657525D01*
X29137015Y15517516D01*
X29137016Y15517514D01*
X29209492Y15391983D01*
X29311982Y15289493D01*
X29311984Y15289492D01*
X29311985Y15289491D01*
X29437515Y15217016D01*
X29577525Y15179500D01*
X29577527Y15179500D01*
X29722473Y15179500D01*
X29722475Y15179500D01*
X29862485Y15217016D01*
X29988015Y15289491D01*
X30090509Y15391985D01*
X30162984Y15517515D01*
X30200500Y15657525D01*
X30200500Y15802475D01*
X30162984Y15942485D01*
X30090509Y16068015D01*
X30090508Y16068016D01*
X30090507Y16068018D01*
X29988017Y16170508D01*
X29862486Y16242984D01*
X29862484Y16242985D01*
X29722475Y16280500D01*
X29577525Y16280500D01*
X29577524Y16280500D01*
X29437515Y16242985D01*
X29437513Y16242984D01*
X29311982Y16170508D01*
X29209492Y16068018D01*
X29137016Y15942487D01*
X29137015Y15942485D01*
X29099500Y15802476D01*
X21406000Y15802476D01*
X21440509Y15836985D01*
X21512984Y15962515D01*
X21550500Y16102525D01*
X21550500Y16247475D01*
X21512984Y16387485D01*
X21440509Y16513015D01*
X21440508Y16513016D01*
X21440507Y16513018D01*
X21338017Y16615508D01*
X21212486Y16687984D01*
X21212484Y16687985D01*
X21072475Y16725500D01*
X20927525Y16725500D01*
X20927524Y16725500D01*
X20787515Y16687985D01*
X20787513Y16687984D01*
X20661982Y16615508D01*
X20559492Y16513018D01*
X20487016Y16387487D01*
X20487015Y16387485D01*
X20449500Y16247476D01*
X19550500Y16247476D01*
X19512984Y16387485D01*
X19440509Y16513015D01*
X19440508Y16513016D01*
X19440507Y16513018D01*
X19338017Y16615508D01*
X19212486Y16687984D01*
X19212484Y16687985D01*
X19072475Y16725500D01*
X18927525Y16725500D01*
X18927524Y16725500D01*
X18787515Y16687985D01*
X18787513Y16687984D01*
X18661982Y16615508D01*
X18559492Y16513018D01*
X18487016Y16387487D01*
X18487015Y16387485D01*
X18449500Y16247476D01*
X5000000Y16247476D01*
X5000000Y17897476D01*
X18449500Y17897476D01*
X18449500Y17752525D01*
X18487015Y17612516D01*
X18487016Y17612514D01*
X18559492Y17486983D01*
X18661982Y17384493D01*
X18661984Y17384492D01*
X18661985Y17384491D01*
X18787515Y17312016D01*
X18927525Y17274500D01*
X18927527Y17274500D01*
X19072473Y17274500D01*
X19072475Y17274500D01*
X19212485Y17312016D01*
X19338015Y17384491D01*
X19440509Y17486985D01*
X19512984Y17612515D01*
X19550500Y17752525D01*
X19550500Y17897475D01*
X19512984Y18037485D01*
X19440509Y18163015D01*
X19440508Y18163016D01*
X19440507Y18163018D01*
X19338017Y18265508D01*
X19256667Y18312476D01*
X24999500Y18312476D01*
X24999500Y18167525D01*
X25037015Y18027516D01*
X25037016Y18027514D01*
X25109492Y17901983D01*
X25211982Y17799493D01*
X25211984Y17799492D01*
X25211985Y17799491D01*
X25337515Y17727016D01*
X25477525Y17689500D01*
X25477527Y17689500D01*
X25622473Y17689500D01*
X25622475Y17689500D01*
X25762485Y17727016D01*
X25888015Y17799491D01*
X25990509Y17901985D01*
X26062984Y18027515D01*
X26100500Y18167525D01*
X26100500Y18312475D01*
X26100500Y18312476D01*
X26899500Y18312476D01*
X26899500Y18167525D01*
X26937015Y18027516D01*
X26937016Y18027514D01*
X27009492Y17901983D01*
X27111982Y17799493D01*
X27111984Y17799492D01*
X27111985Y17799491D01*
X27237515Y17727016D01*
X27377525Y17689500D01*
X27377527Y17689500D01*
X27522473Y17689500D01*
X27522475Y17689500D01*
X27662485Y17727016D01*
X27788015Y17799491D01*
X27890509Y17901985D01*
X27962984Y18027515D01*
X28000500Y18167525D01*
X28000500Y18312475D01*
X27992461Y18342475D01*
X27992461Y18342476D01*
X29099500Y18342476D01*
X29099500Y18197525D01*
X29137015Y18057516D01*
X29137016Y18057514D01*
X29209492Y17931983D01*
X29311982Y17829493D01*
X29311984Y17829492D01*
X29311985Y17829491D01*
X29437515Y17757016D01*
X29577525Y17719500D01*
X29577527Y17719500D01*
X29722473Y17719500D01*
X29722475Y17719500D01*
X29862485Y17757016D01*
X29988015Y17829491D01*
X30090509Y17931985D01*
X30162984Y18057515D01*
X30200500Y18197525D01*
X30200500Y18342475D01*
X30162984Y18482485D01*
X30090509Y18608015D01*
X30090508Y18608016D01*
X30090507Y18608018D01*
X29988017Y18710508D01*
X29862486Y18782984D01*
X29862484Y18782985D01*
X29722475Y18820500D01*
X29577525Y18820500D01*
X29577524Y18820500D01*
X29437515Y18782985D01*
X29437513Y18782984D01*
X29311982Y18710508D01*
X29209492Y18608018D01*
X29137016Y18482487D01*
X29137015Y18482485D01*
X29099500Y18342476D01*
X27992461Y18342476D01*
X27962984Y18452485D01*
X27962983Y18452487D01*
X27890507Y18578018D01*
X27788017Y18680508D01*
X27662486Y18752984D01*
X27662484Y18752985D01*
X27522475Y18790500D01*
X27377525Y18790500D01*
X27377524Y18790500D01*
X27237515Y18752985D01*
X27237513Y18752984D01*
X27111982Y18680508D01*
X27009492Y18578018D01*
X26937016Y18452487D01*
X26937015Y18452485D01*
X26899500Y18312476D01*
X26100500Y18312476D01*
X26062984Y18452485D01*
X25990509Y18578015D01*
X25990508Y18578016D01*
X25990507Y18578018D01*
X25888017Y18680508D01*
X25762486Y18752984D01*
X25762484Y18752985D01*
X25622475Y18790500D01*
X25477525Y18790500D01*
X25477524Y18790500D01*
X25337515Y18752985D01*
X25337513Y18752984D01*
X25211982Y18680508D01*
X25109492Y18578018D01*
X25037016Y18452487D01*
X25037015Y18452485D01*
X24999500Y18312476D01*
X19256667Y18312476D01*
X19212486Y18337984D01*
X19212484Y18337985D01*
X19072475Y18375500D01*
X18927525Y18375500D01*
X18927524Y18375500D01*
X18787515Y18337985D01*
X18787513Y18337984D01*
X18661982Y18265508D01*
X18559492Y18163018D01*
X18487016Y18037487D01*
X18487015Y18037485D01*
X18449500Y17897476D01*
X5000000Y17897476D01*
X5000000Y21097476D01*
X22949500Y21097476D01*
X22949500Y20952525D01*
X22987015Y20812516D01*
X22987016Y20812514D01*
X23059492Y20686983D01*
X23161982Y20584493D01*
X23161984Y20584492D01*
X23161985Y20584491D01*
X23287515Y20512016D01*
X23427525Y20474500D01*
X23427527Y20474500D01*
X23572473Y20474500D01*
X23572475Y20474500D01*
X23712485Y20512016D01*
X23838015Y20584491D01*
X23940509Y20686985D01*
X24012984Y20812515D01*
X24050500Y20952525D01*
X24050500Y21097475D01*
X24012984Y21237485D01*
X23978348Y21297476D01*
X29949500Y21297476D01*
X29949500Y21152525D01*
X29987015Y21012516D01*
X29987016Y21012514D01*
X30059492Y20886983D01*
X30161982Y20784493D01*
X30161984Y20784492D01*
X30161985Y20784491D01*
X30287515Y20712016D01*
X30427525Y20674500D01*
X30427527Y20674500D01*
X30572473Y20674500D01*
X30572475Y20674500D01*
X30712485Y20712016D01*
X30838015Y20784491D01*
X30940509Y20886985D01*
X31012984Y21012515D01*
X31050500Y21152525D01*
X31050500Y21297475D01*
X31012984Y21437485D01*
X30940509Y21563015D01*
X30940508Y21563016D01*
X30940507Y21563018D01*
X30838017Y21665508D01*
X30712486Y21737984D01*
X30712484Y21737985D01*
X30572475Y21775500D01*
X30427525Y21775500D01*
X30427524Y21775500D01*
X30287515Y21737985D01*
X30287513Y21737984D01*
X30161982Y21665508D01*
X30059492Y21563018D01*
X29987016Y21437487D01*
X29987015Y21437485D01*
X29949500Y21297476D01*
X23978348Y21297476D01*
X23940509Y21363015D01*
X23940508Y21363016D01*
X23940507Y21363018D01*
X23838017Y21465508D01*
X23712486Y21537984D01*
X23712484Y21537985D01*
X23572475Y21575500D01*
X23427525Y21575500D01*
X23427524Y21575500D01*
X23287515Y21537985D01*
X23287513Y21537984D01*
X23161982Y21465508D01*
X23059492Y21363018D01*
X22987016Y21237487D01*
X22987015Y21237485D01*
X22949500Y21097476D01*
X5000000Y21097476D01*
X5000000Y22072476D01*
X25424500Y22072476D01*
X25424500Y21927525D01*
X25462015Y21787516D01*
X25462016Y21787514D01*
X25534492Y21661983D01*
X25636982Y21559493D01*
X25636984Y21559492D01*
X25636985Y21559491D01*
X25762515Y21487016D01*
X25902525Y21449500D01*
X25902527Y21449500D01*
X26047473Y21449500D01*
X26047475Y21449500D01*
X26187485Y21487016D01*
X26313015Y21559491D01*
X26415509Y21661985D01*
X26487984Y21787515D01*
X26525500Y21927525D01*
X26525500Y22072475D01*
X26525500Y22072476D01*
X27074500Y22072476D01*
X27074500Y21927525D01*
X27112015Y21787516D01*
X27112016Y21787514D01*
X27184492Y21661983D01*
X27286982Y21559493D01*
X27286984Y21559492D01*
X27286985Y21559491D01*
X27412515Y21487016D01*
X27552525Y21449500D01*
X27552527Y21449500D01*
X27697473Y21449500D01*
X27697475Y21449500D01*
X27837485Y21487016D01*
X27963015Y21559491D01*
X28065509Y21661985D01*
X28137984Y21787515D01*
X28175500Y21927525D01*
X28175500Y22072475D01*
X28137984Y22212485D01*
X28065509Y22338015D01*
X28065508Y22338016D01*
X28065507Y22338018D01*
X27963017Y22440508D01*
X27837486Y22512984D01*
X27837484Y22512985D01*
X27697475Y22550500D01*
X27552525Y22550500D01*
X27552524Y22550500D01*
X27412515Y22512985D01*
X27412513Y22512984D01*
X27286982Y22440508D01*
X27184492Y22338018D01*
X27112016Y22212487D01*
X27112015Y22212485D01*
X27074500Y22072476D01*
X26525500Y22072476D01*
X26487984Y22212485D01*
X26415509Y22338015D01*
X26415508Y22338016D01*
X26415507Y22338018D01*
X26313017Y22440508D01*
X26187486Y22512984D01*
X26187484Y22512985D01*
X26047475Y22550500D01*
X25902525Y22550500D01*
X25902524Y22550500D01*
X25762515Y22512985D01*
X25762513Y22512984D01*
X25636982Y22440508D01*
X25534492Y22338018D01*
X25462016Y22212487D01*
X25462015Y22212485D01*
X25424500Y22072476D01*
X5000000Y22072476D01*
X5000000Y22847476D01*
X29949500Y22847476D01*
X29949500Y22702525D01*
X29987015Y22562516D01*
X29987016Y22562514D01*
X30059492Y22436983D01*
X30161982Y22334493D01*
X30161984Y22334492D01*
X30161985Y22334491D01*
X30287515Y22262016D01*
X30427525Y22224500D01*
X30427527Y22224500D01*
X30572473Y22224500D01*
X30572475Y22224500D01*
X30712485Y22262016D01*
X30838015Y22334491D01*
X30940509Y22436985D01*
X31012984Y22562515D01*
X31050500Y22702525D01*
X31050500Y22847475D01*
X31012984Y22987485D01*
X30940509Y23113015D01*
X30940508Y23113016D01*
X30940507Y23113018D01*
X30838017Y23215508D01*
X30712486Y23287984D01*
X30712484Y23287985D01*
X30572475Y23325500D01*
X30427525Y23325500D01*
X30427524Y23325500D01*
X30287515Y23287985D01*
X30287513Y23287984D01*
X30161982Y23215508D01*
X30059492Y23113018D01*
X29987016Y22987487D01*
X29987015Y22987485D01*
X29949500Y22847476D01*
X5000000Y22847476D01*
X5000000Y25072476D01*
X8449500Y25072476D01*
X8449500Y24927525D01*
X8487015Y24787516D01*
X8487016Y24787514D01*
X8559492Y24661983D01*
X8661982Y24559493D01*
X8661984Y24559492D01*
X8661985Y24559491D01*
X8787515Y24487016D01*
X8927525Y24449500D01*
X8927527Y24449500D01*
X9072473Y24449500D01*
X9072475Y24449500D01*
X9212485Y24487016D01*
X9338015Y24559491D01*
X9440509Y24661985D01*
X9512984Y24787515D01*
X9550500Y24927525D01*
X9550500Y25072475D01*
X9512984Y25212485D01*
X9440509Y25338015D01*
X9440508Y25338016D01*
X9440507Y25338018D01*
X9338017Y25440508D01*
X9212486Y25512984D01*
X9212484Y25512985D01*
X9072475Y25550500D01*
X8927525Y25550500D01*
X8927524Y25550500D01*
X8787515Y25512985D01*
X8787513Y25512984D01*
X8661982Y25440508D01*
X8559492Y25338018D01*
X8487016Y25212487D01*
X8487015Y25212485D01*
X8449500Y25072476D01*
X5000000Y25072476D01*
X5000000Y26097476D01*
X18449500Y26097476D01*
X18449500Y25952525D01*
X18487015Y25812516D01*
X18487016Y25812514D01*
X18559492Y25686983D01*
X18661982Y25584493D01*
X18785836Y25512985D01*
X18787515Y25512016D01*
X18927525Y25474500D01*
X18927527Y25474500D01*
X19072473Y25474500D01*
X19072475Y25474500D01*
X19212485Y25512016D01*
X19338015Y25584491D01*
X19440509Y25686985D01*
X19512984Y25812515D01*
X19550500Y25952525D01*
X19550500Y26097475D01*
X19550500Y26097476D01*
X22949500Y26097476D01*
X22949500Y25952525D01*
X22987015Y25812516D01*
X22987016Y25812514D01*
X23059492Y25686983D01*
X23161982Y25584493D01*
X23285836Y25512985D01*
X23287515Y25512016D01*
X23427525Y25474500D01*
X23427527Y25474500D01*
X23572473Y25474500D01*
X23572475Y25474500D01*
X23712485Y25512016D01*
X23838015Y25584491D01*
X23940509Y25686985D01*
X24012984Y25812515D01*
X24050500Y25952525D01*
X24050500Y26097475D01*
X24012984Y26237485D01*
X23940509Y26363015D01*
X23940508Y26363016D01*
X23940507Y26363018D01*
X23838017Y26465508D01*
X23712486Y26537984D01*
X23712484Y26537985D01*
X23572475Y26575500D01*
X23427525Y26575500D01*
X23427524Y26575500D01*
X23287515Y26537985D01*
X23287513Y26537984D01*
X23161982Y26465508D01*
X23059492Y26363018D01*
X22987016Y26237487D01*
X22987015Y26237485D01*
X22949500Y26097476D01*
X19550500Y26097476D01*
X19512984Y26237485D01*
X19440509Y26363015D01*
X19440508Y26363016D01*
X19440507Y26363018D01*
X19338017Y26465508D01*
X19212486Y26537984D01*
X19212484Y26537985D01*
X19072475Y26575500D01*
X18927525Y26575500D01*
X18927524Y26575500D01*
X18787515Y26537985D01*
X18787513Y26537984D01*
X18661982Y26465508D01*
X18559492Y26363018D01*
X18487016Y26237487D01*
X18487015Y26237485D01*
X18449500Y26097476D01*
X5000000Y26097476D01*
X5000000Y31593616D01*
X7849500Y31593616D01*
X7849500Y31406384D01*
X7853259Y31387487D01*
X7886026Y31222749D01*
X7886027Y31222747D01*
X7957675Y31049775D01*
X7957678Y31049769D01*
X8061696Y30894094D01*
X8061702Y30894087D01*
X8194086Y30761703D01*
X8194093Y30761697D01*
X8271930Y30709688D01*
X8349769Y30657678D01*
X8349774Y30657676D01*
X8522746Y30586028D01*
X8522748Y30586027D01*
X8706384Y30549500D01*
X8893616Y30549500D01*
X9077251Y30586027D01*
X9077253Y30586028D01*
X9250231Y30657678D01*
X9405908Y30761698D01*
X9538302Y30894092D01*
X9642322Y31049769D01*
X9713973Y31222749D01*
X9718891Y31247475D01*
X9718891Y31247476D01*
X16449500Y31247476D01*
X16449500Y31102525D01*
X16487015Y30962516D01*
X16487016Y30962514D01*
X16559492Y30836983D01*
X16661982Y30734493D01*
X16661984Y30734492D01*
X16661985Y30734491D01*
X16787515Y30662016D01*
X16927525Y30624500D01*
X16927527Y30624500D01*
X17072473Y30624500D01*
X17072475Y30624500D01*
X17212485Y30662016D01*
X17338015Y30734491D01*
X17440509Y30836985D01*
X17512984Y30962515D01*
X17550500Y31102525D01*
X17550500Y31247475D01*
X17512984Y31387485D01*
X17490864Y31425797D01*
X17478986Y31446371D01*
X17440509Y31513015D01*
X17440508Y31513016D01*
X17440507Y31513018D01*
X17338017Y31615508D01*
X17212486Y31687984D01*
X17212484Y31687985D01*
X17072475Y31725500D01*
X16927525Y31725500D01*
X16927524Y31725500D01*
X16787515Y31687985D01*
X16787513Y31687984D01*
X16661982Y31615508D01*
X16559492Y31513018D01*
X16487016Y31387487D01*
X16487015Y31387485D01*
X16449500Y31247476D01*
X9718891Y31247476D01*
X9722987Y31268065D01*
X9735724Y31332100D01*
X9750500Y31406384D01*
X9750500Y31593616D01*
X9718387Y31755062D01*
X9713973Y31777252D01*
X9713972Y31777254D01*
X9642324Y31950226D01*
X9642321Y31950232D01*
X9538303Y32105907D01*
X9538297Y32105914D01*
X9405913Y32238298D01*
X9405906Y32238304D01*
X9250231Y32342322D01*
X9250225Y32342325D01*
X9077253Y32413973D01*
X9077251Y32413974D01*
X8893616Y32450500D01*
X8706384Y32450500D01*
X8522748Y32413974D01*
X8522746Y32413973D01*
X8349774Y32342325D01*
X8349768Y32342322D01*
X8194093Y32238304D01*
X8194086Y32238298D01*
X8061702Y32105914D01*
X8061696Y32105907D01*
X7957678Y31950232D01*
X7957675Y31950226D01*
X7886027Y31777254D01*
X7886026Y31777252D01*
X7852891Y31610666D01*
X7849500Y31593616D01*
X5000000Y31593616D01*
X5000000Y36672476D01*
X16749500Y36672476D01*
X16749500Y36527525D01*
X16787015Y36387516D01*
X16787016Y36387514D01*
X16859492Y36261983D01*
X16961982Y36159493D01*
X16961984Y36159492D01*
X16961985Y36159491D01*
X17087515Y36087016D01*
X17227525Y36049500D01*
X17227527Y36049500D01*
X17372473Y36049500D01*
X17372475Y36049500D01*
X17512485Y36087016D01*
X17638015Y36159491D01*
X17740509Y36261985D01*
X17812984Y36387515D01*
X17850500Y36527525D01*
X17850500Y36672475D01*
X17812984Y36812485D01*
X17740509Y36938015D01*
X17740508Y36938016D01*
X17740507Y36938018D01*
X17638017Y37040508D01*
X17512486Y37112984D01*
X17512484Y37112985D01*
X17372475Y37150500D01*
X17227525Y37150500D01*
X17227524Y37150500D01*
X17087515Y37112985D01*
X17087513Y37112984D01*
X16961982Y37040508D01*
X16859492Y36938018D01*
X16787016Y36812487D01*
X16787015Y36812485D01*
X16749500Y36672476D01*
X5000000Y36672476D01*
X5000000Y39631124D01*
X11799500Y39631124D01*
X11799500Y39368877D01*
X11833728Y39108889D01*
X11901598Y38855593D01*
X11901605Y38855573D01*
X12001954Y38613308D01*
X12130881Y38389998D01*
X12133076Y38386197D01*
X12285848Y38187102D01*
X12292720Y38178147D01*
X12292726Y38178140D01*
X12478139Y37992727D01*
X12478146Y37992721D01*
X12478149Y37992718D01*
X12686197Y37833076D01*
X12913303Y37701957D01*
X12913304Y37701957D01*
X12913307Y37701955D01*
X13020593Y37657516D01*
X13155581Y37601602D01*
X13408884Y37533730D01*
X13408886Y37533730D01*
X13408889Y37533729D01*
X13408887Y37533729D01*
X13668877Y37499500D01*
X13668880Y37499500D01*
X13931123Y37499500D01*
X14191111Y37533729D01*
X14191113Y37533730D01*
X14191116Y37533730D01*
X14444419Y37601602D01*
X14686697Y37701957D01*
X14913803Y37833076D01*
X15121851Y37992718D01*
X15307282Y38178149D01*
X15466924Y38386197D01*
X15598043Y38613303D01*
X15698398Y38855581D01*
X15766270Y39108884D01*
X15773095Y39160723D01*
X15800500Y39368877D01*
X15800500Y39631124D01*
X15766271Y39891112D01*
X15747948Y39959493D01*
X15698398Y40144419D01*
X15622552Y40327528D01*
X15598045Y40386693D01*
X15568335Y40438153D01*
X15548519Y40472476D01*
X16749500Y40472476D01*
X16749500Y40327525D01*
X16787015Y40187516D01*
X16787016Y40187514D01*
X16859492Y40061983D01*
X16961982Y39959493D01*
X17080420Y39891112D01*
X17087515Y39887016D01*
X17227525Y39849500D01*
X17227527Y39849500D01*
X17372473Y39849500D01*
X17372475Y39849500D01*
X17512485Y39887016D01*
X17638015Y39959491D01*
X17740509Y40061985D01*
X17812984Y40187515D01*
X17850500Y40327525D01*
X17850500Y40472475D01*
X17812984Y40612485D01*
X17740509Y40738015D01*
X17740508Y40738016D01*
X17740507Y40738018D01*
X17638017Y40840508D01*
X17512486Y40912984D01*
X17512484Y40912985D01*
X17372475Y40950500D01*
X17227525Y40950500D01*
X17227524Y40950500D01*
X17087515Y40912985D01*
X17087513Y40912984D01*
X16961982Y40840508D01*
X16859492Y40738018D01*
X16787016Y40612487D01*
X16787015Y40612485D01*
X16749500Y40472476D01*
X15548519Y40472476D01*
X15466925Y40613801D01*
X15466924Y40613803D01*
X15307282Y40821851D01*
X15307279Y40821854D01*
X15307273Y40821861D01*
X15121860Y41007274D01*
X15121853Y41007280D01*
X15121851Y41007282D01*
X14913803Y41166924D01*
X14900679Y41174501D01*
X14686692Y41298046D01*
X14444427Y41398395D01*
X14444422Y41398397D01*
X14444419Y41398398D01*
X14444416Y41398399D01*
X14444407Y41398402D01*
X14191110Y41466272D01*
X14191112Y41466272D01*
X13931123Y41500500D01*
X13931120Y41500500D01*
X13668880Y41500500D01*
X13668877Y41500500D01*
X13408888Y41466272D01*
X13155592Y41398402D01*
X13155572Y41398395D01*
X12913307Y41298046D01*
X12686199Y41166926D01*
X12686195Y41166923D01*
X12478146Y41007280D01*
X12478139Y41007274D01*
X12292726Y40821861D01*
X12292720Y40821854D01*
X12133077Y40613805D01*
X12133074Y40613801D01*
X12001954Y40386693D01*
X11901605Y40144428D01*
X11901598Y40144408D01*
X11833728Y39891112D01*
X11799500Y39631124D01*
X5000000Y39631124D01*
X5000000Y42593616D01*
X7849500Y42593616D01*
X7849500Y42406385D01*
X7886026Y42222749D01*
X7886027Y42222747D01*
X7957675Y42049775D01*
X7957678Y42049769D01*
X8061696Y41894094D01*
X8061702Y41894087D01*
X8194086Y41761703D01*
X8194093Y41761697D01*
X8212042Y41749704D01*
X8349769Y41657678D01*
X8388962Y41641444D01*
X8522746Y41586028D01*
X8522748Y41586027D01*
X8706384Y41549500D01*
X8893616Y41549500D01*
X9077251Y41586027D01*
X9077253Y41586028D01*
X9250231Y41657678D01*
X9405908Y41761698D01*
X9441686Y41797476D01*
X16749500Y41797476D01*
X16749500Y41652525D01*
X16787015Y41512516D01*
X16787016Y41512514D01*
X16859492Y41386983D01*
X16961982Y41284493D01*
X16961984Y41284492D01*
X16961985Y41284491D01*
X17087515Y41212016D01*
X17227525Y41174500D01*
X17227527Y41174500D01*
X17372473Y41174500D01*
X17372475Y41174500D01*
X17512485Y41212016D01*
X17638015Y41284491D01*
X17740509Y41386985D01*
X17812984Y41512515D01*
X17850500Y41652525D01*
X17850500Y41797475D01*
X17812984Y41937485D01*
X17799854Y41960226D01*
X17765285Y42020101D01*
X17740509Y42063015D01*
X17740508Y42063016D01*
X17740507Y42063018D01*
X17638017Y42165508D01*
X17512486Y42237984D01*
X17512484Y42237985D01*
X17372475Y42275500D01*
X17227525Y42275500D01*
X17227524Y42275500D01*
X17087515Y42237985D01*
X17087513Y42237984D01*
X16961982Y42165508D01*
X16859492Y42063018D01*
X16787016Y41937487D01*
X16787015Y41937485D01*
X16749500Y41797476D01*
X9441686Y41797476D01*
X9502725Y41858514D01*
X9538297Y41894087D01*
X9538302Y41894092D01*
X9642322Y42049769D01*
X9713973Y42222749D01*
X9750500Y42406384D01*
X9750500Y42593616D01*
X9743755Y42627525D01*
X9713973Y42777252D01*
X9713972Y42777254D01*
X9642324Y42950226D01*
X9642321Y42950232D01*
X9538303Y43105907D01*
X9538297Y43105914D01*
X9405913Y43238298D01*
X9405906Y43238304D01*
X9250231Y43342322D01*
X9250225Y43342325D01*
X9077253Y43413973D01*
X9077251Y43413974D01*
X8893616Y43450500D01*
X8706384Y43450500D01*
X8522748Y43413974D01*
X8522746Y43413973D01*
X8349774Y43342325D01*
X8349768Y43342322D01*
X8194093Y43238304D01*
X8194086Y43238298D01*
X8061702Y43105914D01*
X8061696Y43105907D01*
X7957678Y42950232D01*
X7957675Y42950226D01*
X7886027Y42777254D01*
X7886026Y42777252D01*
X7849500Y42593616D01*
X5000000Y42593616D01*
X5000000Y44682476D01*
X19759500Y44682476D01*
X19759500Y44537525D01*
X19797015Y44397516D01*
X19797016Y44397514D01*
X19869492Y44271983D01*
X19971982Y44169493D01*
X19971984Y44169492D01*
X19971985Y44169491D01*
X20036722Y44132115D01*
X20080052Y44107098D01*
X20097515Y44097016D01*
X20237525Y44059500D01*
X20237527Y44059500D01*
X20382473Y44059500D01*
X20382475Y44059500D01*
X20522485Y44097016D01*
X20648015Y44169491D01*
X20750509Y44271985D01*
X20822984Y44397515D01*
X20860500Y44537525D01*
X20860500Y44682475D01*
X20822984Y44822485D01*
X20750509Y44948015D01*
X20750508Y44948016D01*
X20750507Y44948018D01*
X20648017Y45050508D01*
X20522486Y45122984D01*
X20522484Y45122985D01*
X20382475Y45160500D01*
X20237525Y45160500D01*
X20237524Y45160500D01*
X20097515Y45122985D01*
X20097513Y45122984D01*
X19971982Y45050508D01*
X19869492Y44948018D01*
X19797016Y44822487D01*
X19797015Y44822485D01*
X19759500Y44682476D01*
X5000000Y44682476D01*
X5000000Y48451754D01*
X5018482Y48502534D01*
X5065282Y48529554D01*
X5072106Y48530452D01*
X5153318Y48537557D01*
X5583337Y48613381D01*
X6005112Y48726395D01*
X6415432Y48875739D01*
X6415445Y48875745D01*
X6415446Y48875745D01*
X6581532Y48953193D01*
X6811174Y49060277D01*
X7189326Y49278603D01*
X7547012Y49529057D01*
X7547019Y49529063D01*
X7547027Y49529069D01*
X7755077Y49703646D01*
X7881507Y49809732D01*
X8144251Y50072476D01*
X18274500Y50072476D01*
X18274500Y49927525D01*
X18312015Y49787516D01*
X18312016Y49787514D01*
X18384492Y49661983D01*
X18486982Y49559493D01*
X18486984Y49559492D01*
X18486985Y49559491D01*
X18612515Y49487016D01*
X18752525Y49449500D01*
X18752527Y49449500D01*
X18897473Y49449500D01*
X18897475Y49449500D01*
X19037485Y49487016D01*
X19163015Y49559491D01*
X19265509Y49661985D01*
X19337984Y49787515D01*
X19375500Y49927525D01*
X19375500Y50072475D01*
X19337984Y50212485D01*
X19265509Y50338015D01*
X19265508Y50338016D01*
X19265507Y50338018D01*
X19163017Y50440508D01*
X19037486Y50512984D01*
X19037484Y50512985D01*
X18897475Y50550500D01*
X18752525Y50550500D01*
X18752524Y50550500D01*
X18612515Y50512985D01*
X18612513Y50512984D01*
X18486982Y50440508D01*
X18384492Y50338018D01*
X18312016Y50212487D01*
X18312015Y50212485D01*
X18274500Y50072476D01*
X8144251Y50072476D01*
X8190268Y50118493D01*
X8388003Y50354145D01*
X8470931Y50452973D01*
X8470937Y50452981D01*
X8470943Y50452988D01*
X8721397Y50810674D01*
X8939723Y51188826D01*
X9100731Y51534108D01*
X9124255Y51584554D01*
X9124255Y51584556D01*
X9124261Y51584568D01*
X9273605Y51994888D01*
X9386619Y52416663D01*
X9462443Y52846682D01*
X9500499Y53281665D01*
X9500500Y53281665D01*
X9500500Y53321000D01*
X9518982Y53371780D01*
X9565782Y53398800D01*
X9579500Y53400000D01*
X27421000Y53400000D01*
X27471780Y53381518D01*
G37*
%TD.AperFunction*%
%TD*%
M02*
