%TF.GenerationSoftware,KiCad,Pcbnew,10.0.6*%
%TF.CreationDate,2026-10-10T12:18:00-04:00*%
%TF.ProjectId,PS-GAN-60W,50532d47-414e-42d3-9630-572e6b696361,A1 REVIEW - NOT FOR FABRICATION*%
%TF.SameCoordinates,Original*%
%TF.FileFunction,Paste,Top*%
%TF.FilePolarity,Positive*%
%FSLAX46Y46*%
G04 Gerber Fmt 4.6, Leading zero omitted, Abs format (unit mm)*
G04 Created by KiCad (PCBNEW 10.0.6) date 2026-10-10 12:18:00*
%MOMM*%
%LPD*%
G01*
G04 APERTURE LIST*
G04 Aperture macros list*
%AMRoundRect*
0 Rectangle with rounded corners*
0 $1 Rounding radius*
0 $2 $3 $4 $5 $6 $7 $8 $9 X,Y pos of 4 corners*
0 Add a 4 corners polygon primitive as box body*
4,1,4,$2,$3,$4,$5,$6,$7,$8,$9,$2,$3,0*
0 Add four circle primitives for the rounded corners*
1,1,$1+$1,$2,$3*
1,1,$1+$1,$4,$5*
1,1,$1+$1,$6,$7*
1,1,$1+$1,$8,$9*
0 Add four rect primitives between the rounded corners*
20,1,$1+$1,$2,$3,$4,$5,0*
20,1,$1+$1,$4,$5,$6,$7,0*
20,1,$1+$1,$6,$7,$8,$9,0*
20,1,$1+$1,$8,$9,$2,$3,0*%
%AMFreePoly0*
4,1,19,0.385418,0.660373,0.400063,0.625018,0.400063,0.125003,0.400088,0.124943,0.400088,-0.125044,0.385443,-0.160399,0.350088,-0.175044,-0.349910,-0.175044,-0.385265,-0.160399,-0.399910,-0.125044,-0.399910,0.124943,-0.385265,0.160298,-0.349910,0.174943,0.050076,0.174943,0.050076,0.625018,0.064721,0.660373,0.100076,0.675018,0.350063,0.675018,0.385418,0.660373,0.385418,0.660373,
$1*%
%AMFreePoly1*
4,1,45,0.385443,1.285441,0.400088,1.250086,0.400088,-1.249909,0.385443,-1.285264,0.350088,-1.299909,-0.024917,-1.299909,-0.060272,-1.285264,-0.074917,-1.249909,-0.074917,-0.911898,-0.349910,-0.911898,-0.385265,-0.897253,-0.399910,-0.861898,-0.399910,-0.611911,-0.385265,-0.576556,-0.349910,-0.561911,-0.074917,-0.561911,-0.074917,-0.411899,-0.349910,-0.411899,-0.385265,-0.397254,-0.399910,-0.361899,
-0.399910,-0.111912,-0.385265,-0.076557,-0.349910,-0.061912,-0.074917,-0.061912,-0.074917,0.088100,-0.349910,0.088100,-0.385265,0.102745,-0.399910,0.138100,-0.399910,0.388087,-0.385265,0.423442,-0.349910,0.438087,-0.074917,0.438087,-0.074917,0.588099,-0.349910,0.588099,-0.385265,0.602744,-0.399910,0.638099,-0.399910,0.888086,-0.385265,0.923441,-0.349910,0.938086,-0.074917,0.938086,
-0.074917,1.250086,-0.060272,1.285441,-0.024917,1.300086,0.350088,1.300086,0.385443,1.285441,0.385443,1.285441,$1*%
%AMFreePoly2*
4,1,37,0.985340,1.483460,0.999985,1.448105,0.999985,-1.447902,0.985340,-1.483257,0.949985,-1.497902,0.499986,-1.497902,0.499986,-1.772844,0.485341,-1.808199,0.449986,-1.822844,0.200000,-1.822844,0.164645,-1.808199,0.150000,-1.772844,0.150000,-1.497902,-0.000013,-1.497902,-0.000013,-1.772844,-0.014658,-1.808199,-0.050013,-1.822844,-0.299999,-1.822844,-0.335354,-1.808199,-0.349999,-1.772844,
-0.349999,-1.497902,-0.500012,-1.497902,-0.500012,-1.772844,-0.514657,-1.808199,-0.550012,-1.822844,-0.799998,-1.822844,-0.835353,-1.808199,-0.849998,-1.772844,-0.849998,-1.497902,-0.950011,-1.497902,-0.985366,-1.483257,-1.000011,-1.447902,-1.000011,1.448105,-0.985366,1.483460,-0.950011,1.498105,0.949985,1.498105,0.985340,1.483460,0.985340,1.483460,$1*%
%AMFreePoly3*
4,1,51,0.024920,1.300086,0.060275,1.285439,0.074917,1.250086,0.074917,0.912097,0.349914,0.912076,0.385268,0.897429,0.399910,0.862076,0.399910,0.612115,0.385265,0.576760,0.349914,0.562115,0.074917,0.562092,0.074917,0.412080,0.349906,0.412102,0.385263,0.397460,0.399910,0.362106,0.399910,0.112090,0.385265,0.076735,0.349910,0.062090,0.074917,0.062111,0.074917,-0.087900,
0.349914,-0.087922,0.385268,-0.102569,0.399910,-0.137922,0.399910,-0.387883,0.385265,-0.423238,0.349910,-0.437883,0.074917,-0.437883,0.074917,-0.587917,0.349906,-0.587896,0.385263,-0.602538,0.399910,-0.637892,0.399910,-0.887882,0.385265,-0.923237,0.349914,-0.937882,0.074917,-0.937904,0.074917,-1.249909,0.060272,-1.285264,0.024917,-1.299909,-0.350091,-1.299883,-0.385446,-1.285236,
-0.400088,-1.249887,-0.400114,-0.887903,-0.400088,-0.637891,-0.400088,-0.387888,-0.400114,-0.137902,-0.400114,0.112121,-0.400088,0.362107,-0.400088,1.250112,-0.385443,1.285467,-0.350088,1.300112,0.024920,1.300086,0.024920,1.300086,$1*%
%AMFreePoly4*
4,1,19,-0.064721,0.660805,-0.050076,0.625450,-0.050076,0.175019,0.349961,0.175019,0.385316,0.160374,0.399961,0.125019,0.399961,-0.125070,0.385316,-0.160425,0.349961,-0.175070,-0.350037,-0.175070,-0.385392,-0.160425,-0.400037,-0.125070,-0.400037,-0.074611,-0.400063,-0.074549,-0.400063,0.625450,-0.385418,0.660805,-0.350063,0.675450,-0.100076,0.675450,-0.064721,0.660805,-0.064721,0.660805,
$1*%
%AMFreePoly5*
4,1,17,1.210369,0.700672,1.225029,0.665323,1.225029,-0.664693,1.210384,-0.700048,1.175029,-0.714693,-0.724967,-0.714693,-0.760322,-0.700048,-0.774967,-0.664693,-0.774967,-0.600697,-1.174979,-0.600697,-1.210334,-0.586052,-1.224979,-0.550696,-1.224953,0.664313,-1.210308,0.699668,-1.174974,0.714312,1.175008,0.715302,1.210369,0.700672,1.210369,0.700672,$1*%
G04 Aperture macros list end*
%ADD10R,1.300000X0.560000*%
%ADD11RoundRect,0.250000X-0.325000X-1.100000X0.325000X-1.100000X0.325000X1.100000X-0.325000X1.100000X0*%
%ADD12RoundRect,0.200000X0.275000X-0.200000X0.275000X0.200000X-0.275000X0.200000X-0.275000X-0.200000X0*%
%ADD13RoundRect,0.225000X0.250000X-0.225000X0.250000X0.225000X-0.250000X0.225000X-0.250000X-0.225000X0*%
%ADD14O,1.800000X0.588000*%
%ADD15R,0.300000X0.680000*%
%ADD16R,0.300000X0.600000*%
%ADD17R,2.650000X2.000000*%
%ADD18RoundRect,0.250000X-0.250000X-0.475000X0.250000X-0.475000X0.250000X0.475000X-0.250000X0.475000X0*%
%ADD19RoundRect,0.250000X1.100000X-0.325000X1.100000X0.325000X-1.100000X0.325000X-1.100000X-0.325000X0*%
%ADD20RoundRect,0.250000X0.750000X0.650000X-0.750000X0.650000X-0.750000X-0.650000X0.750000X-0.650000X0*%
%ADD21R,0.600000X1.070000*%
%ADD22RoundRect,0.225000X-0.225000X-0.250000X0.225000X-0.250000X0.225000X0.250000X-0.225000X0.250000X0*%
%ADD23R,1.000000X0.800000*%
%ADD24RoundRect,0.200000X-0.200000X-0.275000X0.200000X-0.275000X0.200000X0.275000X-0.200000X0.275000X0*%
%ADD25FreePoly0,0.000000*%
%ADD26R,0.700000X0.250000*%
%ADD27FreePoly1,0.000000*%
%ADD28FreePoly2,0.000000*%
%ADD29FreePoly3,0.000000*%
%ADD30FreePoly4,0.000000*%
%ADD31R,0.250000X0.700000*%
%ADD32FreePoly5,0.000000*%
%ADD33RoundRect,0.250000X-1.100000X0.325000X-1.100000X-0.325000X1.100000X-0.325000X1.100000X0.325000X0*%
%ADD34R,1.190000X1.728000*%
%ADD35RoundRect,0.250000X0.325000X0.650000X-0.325000X0.650000X-0.325000X-0.650000X0.325000X-0.650000X0*%
%ADD36R,1.000000X0.600000*%
%ADD37R,2.500000X3.500000*%
%ADD38RoundRect,0.200000X0.200000X0.275000X-0.200000X0.275000X-0.200000X-0.275000X0.200000X-0.275000X0*%
%ADD39R,1.700000X1.800000*%
%ADD40RoundRect,0.250000X-0.325000X-0.650000X0.325000X-0.650000X0.325000X0.650000X-0.325000X0.650000X0*%
%ADD41O,1.600000X0.600000*%
%ADD42R,2.500000X3.200000*%
G04 APERTURE END LIST*
D10*
%TO.C,U6*%
X29650000Y18270000D03*
X29650000Y15730000D03*
X35950000Y15730000D03*
X35950000Y18270000D03*
%TD*%
D11*
%TO.C,C19*%
X57825000Y28000000D03*
X60775000Y28000000D03*
%TD*%
D12*
%TO.C,R15*%
X62500000Y19375000D03*
X62500000Y21025000D03*
%TD*%
%TO.C,R9*%
X46000000Y21675000D03*
X46000000Y23325000D03*
%TD*%
%TO.C,R17*%
X54000000Y15675000D03*
X54000000Y17325000D03*
%TD*%
D13*
%TO.C,C23*%
X62000000Y15725000D03*
X62000000Y17275000D03*
%TD*%
D14*
%TO.C,U2*%
X40400000Y18900000D03*
X40400000Y17630000D03*
X40400000Y16370000D03*
X40400000Y15100000D03*
X45600000Y15100000D03*
X45600000Y16370000D03*
X45600000Y17630000D03*
X45600000Y18900000D03*
%TD*%
D13*
%TO.C,C24*%
X58000000Y15725000D03*
X58000000Y17275000D03*
%TD*%
D15*
%TO.C,Q1*%
X19310000Y42700000D03*
X19960000Y42700000D03*
X20610000Y42700000D03*
X21260000Y42700000D03*
D16*
X21290000Y45700000D03*
X20640000Y45700000D03*
X19990000Y45700000D03*
X19340000Y45700000D03*
D17*
X20310000Y44610000D03*
%TD*%
D14*
%TO.C,U3*%
X17300000Y40400000D03*
X17300000Y39130000D03*
X17300000Y37870000D03*
X17300000Y36600000D03*
X22500000Y36600000D03*
X22500000Y37870000D03*
X22500000Y39130000D03*
X22500000Y40400000D03*
%TD*%
D12*
%TO.C,R14*%
X62500000Y23175000D03*
X62500000Y24825000D03*
%TD*%
D13*
%TO.C,C25*%
X52000000Y29425000D03*
X52000000Y30975000D03*
%TD*%
D18*
%TO.C,C11*%
X18550000Y35000000D03*
X20450000Y35000000D03*
%TD*%
D19*
%TO.C,C13*%
X19000000Y26025000D03*
X19000000Y28975000D03*
%TD*%
D13*
%TO.C,C10*%
X47200000Y16825000D03*
X47200000Y18375000D03*
%TD*%
D20*
%TO.C,L1*%
X57450000Y35000000D03*
X52950000Y35000000D03*
%TD*%
D13*
%TO.C,C4*%
X62200000Y45525000D03*
X62200000Y47075000D03*
%TD*%
D21*
%TO.C,U7*%
X27450000Y18240000D03*
X25550000Y18240000D03*
X26500000Y15760000D03*
%TD*%
D22*
%TO.C,C18*%
X38025000Y23000000D03*
X39575000Y23000000D03*
%TD*%
D23*
%TO.C,D2*%
X49950000Y20150000D03*
X49950000Y22050000D03*
X47650000Y21100000D03*
%TD*%
D12*
%TO.C,R25*%
X22300000Y10175000D03*
X22300000Y11825000D03*
%TD*%
D22*
%TO.C,C20*%
X54225000Y25500000D03*
X55775000Y25500000D03*
%TD*%
D24*
%TO.C,R4*%
X42675000Y23000000D03*
X44325000Y23000000D03*
%TD*%
D13*
%TO.C,C17*%
X47800000Y26625000D03*
X47800000Y28175000D03*
%TD*%
D19*
%TO.C,C16*%
X23500000Y21025000D03*
X23500000Y23975000D03*
%TD*%
D13*
%TO.C,C5*%
X55100000Y50725000D03*
X55100000Y52275000D03*
%TD*%
D25*
%TO.C,U1*%
X57900000Y43700000D03*
D26*
X57900000Y43200000D03*
X57900000Y42700000D03*
X57900000Y42200000D03*
D27*
X57900000Y40020000D03*
D28*
X60000000Y40200000D03*
D29*
X62100000Y40020000D03*
D26*
X62100000Y42200000D03*
X62100000Y42700000D03*
X62100000Y43200000D03*
D30*
X62100000Y43700000D03*
D31*
X60820000Y43980000D03*
X60330000Y43980000D03*
X59820000Y43980000D03*
X59330000Y43980000D03*
X58820000Y43980000D03*
D32*
X59770000Y42660000D03*
%TD*%
D19*
%TO.C,C1*%
X54000000Y45625000D03*
X54000000Y48575000D03*
%TD*%
D12*
%TO.C,R8*%
X49800000Y23375000D03*
X49800000Y25025000D03*
%TD*%
D13*
%TO.C,C28*%
X30500000Y21225000D03*
X30500000Y22775000D03*
%TD*%
D12*
%TO.C,R22*%
X19000000Y16175000D03*
X19000000Y17825000D03*
%TD*%
D33*
%TO.C,C2*%
X61200000Y33875000D03*
X61200000Y30925000D03*
%TD*%
D12*
%TO.C,R12*%
X24000000Y44175000D03*
X24000000Y45825000D03*
%TD*%
D34*
%TO.C,F1*%
X53450000Y51000000D03*
X50550000Y51000000D03*
%TD*%
D24*
%TO.C,R16*%
X57675000Y25500000D03*
X59325000Y25500000D03*
%TD*%
D35*
%TO.C,C3*%
X62675000Y36700000D03*
X59725000Y36700000D03*
%TD*%
D13*
%TO.C,C12*%
X17300000Y41725000D03*
X17300000Y43275000D03*
%TD*%
D12*
%TO.C,R3*%
X40400000Y9075000D03*
X40400000Y10725000D03*
%TD*%
D36*
%TO.C,U5*%
X56100000Y29250000D03*
X56100000Y30200000D03*
X56100000Y31150000D03*
X53900000Y31150000D03*
X53900000Y29250000D03*
%TD*%
D12*
%TO.C,R11*%
X17000000Y31175000D03*
X17000000Y32825000D03*
%TD*%
%TO.C,R18*%
X56000000Y15675000D03*
X56000000Y17325000D03*
%TD*%
D11*
%TO.C,C15*%
X18825000Y50000000D03*
X21775000Y50000000D03*
%TD*%
D37*
%TO.C,L2*%
X55050000Y9500000D03*
X60950000Y9500000D03*
%TD*%
D19*
%TO.C,C21*%
X49100000Y10825000D03*
X49100000Y13775000D03*
%TD*%
D38*
%TO.C,R10*%
X24325000Y42700000D03*
X22675000Y42700000D03*
%TD*%
D24*
%TO.C,R6*%
X42675000Y10500000D03*
X44325000Y10500000D03*
%TD*%
D22*
%TO.C,C6*%
X56725000Y46300000D03*
X58275000Y46300000D03*
%TD*%
D12*
%TO.C,R23*%
X21000000Y16175000D03*
X21000000Y17825000D03*
%TD*%
D21*
%TO.C,U9*%
X27450000Y10640000D03*
X25550000Y10640000D03*
X26500000Y8160000D03*
%TD*%
D10*
%TO.C,U8*%
X29650000Y10670000D03*
X29650000Y8130000D03*
X35950000Y8130000D03*
X35950000Y10670000D03*
%TD*%
D22*
%TO.C,C29*%
X25725000Y6000000D03*
X27275000Y6000000D03*
%TD*%
D15*
%TO.C,Q2*%
X21290000Y33300000D03*
X20640000Y33300000D03*
X19990000Y33300000D03*
X19340000Y33300000D03*
D16*
X19310000Y30300000D03*
X19960000Y30300000D03*
X20610000Y30300000D03*
X21260000Y30300000D03*
D17*
X20290000Y31390000D03*
%TD*%
D19*
%TO.C,C22*%
X49100000Y5525000D03*
X49100000Y8475000D03*
%TD*%
D12*
%TO.C,R28*%
X21000000Y6775000D03*
X21000000Y8425000D03*
%TD*%
D24*
%TO.C,R1*%
X40475000Y13600000D03*
X42125000Y13600000D03*
%TD*%
%TO.C,R5*%
X42675000Y21300000D03*
X44325000Y21300000D03*
%TD*%
D39*
%TO.C,D1*%
X48300000Y48310000D03*
X48300000Y52690000D03*
%TD*%
D40*
%TO.C,C7*%
X53025000Y42900000D03*
X55975000Y42900000D03*
%TD*%
D12*
%TO.C,R2*%
X38800000Y14675000D03*
X38800000Y16325000D03*
%TD*%
D18*
%TO.C,C26*%
X50050000Y27200000D03*
X51950000Y27200000D03*
%TD*%
D12*
%TO.C,R26*%
X24000000Y10175000D03*
X24000000Y11825000D03*
%TD*%
D24*
%TO.C,R20*%
X25975000Y22000000D03*
X27625000Y22000000D03*
%TD*%
D40*
%TO.C,C8*%
X53025000Y40100000D03*
X55975000Y40100000D03*
%TD*%
D24*
%TO.C,R7*%
X42675000Y8800000D03*
X44325000Y8800000D03*
%TD*%
D12*
%TO.C,R19*%
X60000000Y15675000D03*
X60000000Y17325000D03*
%TD*%
D19*
%TO.C,C14*%
X23500000Y26025000D03*
X23500000Y28975000D03*
%TD*%
D41*
%TO.C,U4*%
X61000000Y19600000D03*
X61000000Y20870000D03*
X61000000Y22140000D03*
X61000000Y23410000D03*
X55000000Y23410000D03*
X55000000Y22140000D03*
X55000000Y20870000D03*
X55000000Y19600000D03*
D42*
X58000000Y21500000D03*
%TD*%
D24*
%TO.C,R24*%
X22575000Y13600000D03*
X24225000Y13600000D03*
%TD*%
D12*
%TO.C,R13*%
X24000000Y30975000D03*
X24000000Y32625000D03*
%TD*%
D24*
%TO.C,R21*%
X25975000Y20300000D03*
X27625000Y20300000D03*
%TD*%
D22*
%TO.C,C27*%
X26225000Y13600000D03*
X27775000Y13600000D03*
%TD*%
D13*
%TO.C,C9*%
X38800000Y19025000D03*
X38800000Y20575000D03*
%TD*%
D12*
%TO.C,R27*%
X19000000Y7675000D03*
X19000000Y9325000D03*
%TD*%
M02*
