%TF.GenerationSoftware,KiCad,Pcbnew,10.0.6*%
%TF.CreationDate,2026-10-10T13:40:47-04:00*%
%TF.ProjectId,PS-GAN-60W,50532d47-414e-42d3-9630-572e6b696361,A2 REVIEW - NOT FOR FABRICATION*%
%TF.SameCoordinates,Original*%
%TF.FileFunction,Legend,Top*%
%TF.FilePolarity,Positive*%
%FSLAX46Y46*%
G04 Gerber Fmt 4.6, Leading zero omitted, Abs format (unit mm)*
G04 Created by KiCad (PCBNEW 10.0.6) date 2026-10-10 13:40:47*
%MOMM*%
%LPD*%
G01*
G04 APERTURE LIST*
G04 Aperture macros list*
%AMRoundRect*
0 Rectangle with rounded corners*
0 $1 Rounding radius*
0 $2 $3 $4 $5 $6 $7 $8 $9 X,Y pos of 4 corners*
0 Add a 4 corners polygon primitive as box body*
4,1,4,$2,$3,$4,$5,$6,$7,$8,$9,$2,$3,0*
0 Add four circle primitives for the rounded corners*
1,1,$1+$1,$2,$3*
1,1,$1+$1,$4,$5*
1,1,$1+$1,$6,$7*
1,1,$1+$1,$8,$9*
0 Add four rect primitives between the rounded corners*
20,1,$1+$1,$2,$3,$4,$5,0*
20,1,$1+$1,$4,$5,$6,$7,0*
20,1,$1+$1,$6,$7,$8,$9,0*
20,1,$1+$1,$8,$9,$2,$3,0*%
%AMFreePoly0*
4,1,19,0.385418,0.660373,0.400063,0.625018,0.400063,0.125003,0.400088,0.124943,0.400088,-0.125044,0.385443,-0.160399,0.350088,-0.175044,-0.349910,-0.175044,-0.385265,-0.160399,-0.399910,-0.125044,-0.399910,0.124943,-0.385265,0.160298,-0.349910,0.174943,0.050076,0.174943,0.050076,0.625018,0.064721,0.660373,0.100076,0.675018,0.350063,0.675018,0.385418,0.660373,0.385418,0.660373,
$1*%
%AMFreePoly1*
4,1,45,0.385443,1.285441,0.400088,1.250086,0.400088,-1.249909,0.385443,-1.285264,0.350088,-1.299909,-0.024917,-1.299909,-0.060272,-1.285264,-0.074917,-1.249909,-0.074917,-0.911898,-0.349910,-0.911898,-0.385265,-0.897253,-0.399910,-0.861898,-0.399910,-0.611911,-0.385265,-0.576556,-0.349910,-0.561911,-0.074917,-0.561911,-0.074917,-0.411899,-0.349910,-0.411899,-0.385265,-0.397254,-0.399910,-0.361899,
-0.399910,-0.111912,-0.385265,-0.076557,-0.349910,-0.061912,-0.074917,-0.061912,-0.074917,0.088100,-0.349910,0.088100,-0.385265,0.102745,-0.399910,0.138100,-0.399910,0.388087,-0.385265,0.423442,-0.349910,0.438087,-0.074917,0.438087,-0.074917,0.588099,-0.349910,0.588099,-0.385265,0.602744,-0.399910,0.638099,-0.399910,0.888086,-0.385265,0.923441,-0.349910,0.938086,-0.074917,0.938086,
-0.074917,1.250086,-0.060272,1.285441,-0.024917,1.300086,0.350088,1.300086,0.385443,1.285441,0.385443,1.285441,$1*%
%AMFreePoly2*
4,1,37,0.985340,1.483460,0.999985,1.448105,0.999985,-1.447902,0.985340,-1.483257,0.949985,-1.497902,0.499986,-1.497902,0.499986,-1.772844,0.485341,-1.808199,0.449986,-1.822844,0.200000,-1.822844,0.164645,-1.808199,0.150000,-1.772844,0.150000,-1.497902,-0.000013,-1.497902,-0.000013,-1.772844,-0.014658,-1.808199,-0.050013,-1.822844,-0.299999,-1.822844,-0.335354,-1.808199,-0.349999,-1.772844,
-0.349999,-1.497902,-0.500012,-1.497902,-0.500012,-1.772844,-0.514657,-1.808199,-0.550012,-1.822844,-0.799998,-1.822844,-0.835353,-1.808199,-0.849998,-1.772844,-0.849998,-1.497902,-0.950011,-1.497902,-0.985366,-1.483257,-1.000011,-1.447902,-1.000011,1.448105,-0.985366,1.483460,-0.950011,1.498105,0.949985,1.498105,0.985340,1.483460,0.985340,1.483460,$1*%
%AMFreePoly3*
4,1,51,0.024920,1.300086,0.060275,1.285439,0.074917,1.250086,0.074917,0.912097,0.349914,0.912076,0.385268,0.897429,0.399910,0.862076,0.399910,0.612115,0.385265,0.576760,0.349914,0.562115,0.074917,0.562092,0.074917,0.412080,0.349906,0.412102,0.385263,0.397460,0.399910,0.362106,0.399910,0.112090,0.385265,0.076735,0.349910,0.062090,0.074917,0.062111,0.074917,-0.087900,
0.349914,-0.087922,0.385268,-0.102569,0.399910,-0.137922,0.399910,-0.387883,0.385265,-0.423238,0.349910,-0.437883,0.074917,-0.437883,0.074917,-0.587917,0.349906,-0.587896,0.385263,-0.602538,0.399910,-0.637892,0.399910,-0.887882,0.385265,-0.923237,0.349914,-0.937882,0.074917,-0.937904,0.074917,-1.249909,0.060272,-1.285264,0.024917,-1.299909,-0.350091,-1.299883,-0.385446,-1.285236,
-0.400088,-1.249887,-0.400114,-0.887903,-0.400088,-0.637891,-0.400088,-0.387888,-0.400114,-0.137902,-0.400114,0.112121,-0.400088,0.362107,-0.400088,1.250112,-0.385443,1.285467,-0.350088,1.300112,0.024920,1.300086,0.024920,1.300086,$1*%
%AMFreePoly4*
4,1,19,-0.064721,0.660805,-0.050076,0.625450,-0.050076,0.175019,0.349961,0.175019,0.385316,0.160374,0.399961,0.125019,0.399961,-0.125070,0.385316,-0.160425,0.349961,-0.175070,-0.350037,-0.175070,-0.385392,-0.160425,-0.400037,-0.125070,-0.400037,-0.074611,-0.400063,-0.074549,-0.400063,0.625450,-0.385418,0.660805,-0.350063,0.675450,-0.100076,0.675450,-0.064721,0.660805,-0.064721,0.660805,
$1*%
%AMFreePoly5*
4,1,17,1.210369,0.700672,1.225029,0.665323,1.225029,-0.664693,1.210384,-0.700048,1.175029,-0.714693,-0.724967,-0.714693,-0.760322,-0.700048,-0.774967,-0.664693,-0.774967,-0.600697,-1.174979,-0.600697,-1.210334,-0.586052,-1.224979,-0.550696,-1.224953,0.664313,-1.210308,0.699668,-1.174974,0.714312,1.175008,0.715302,1.210369,0.700672,1.210369,0.700672,$1*%
G04 Aperture macros list end*
%ADD10C,0.150000*%
%ADD11C,0.000000*%
%ADD12C,1.200000*%
%ADD13RoundRect,0.225000X0.250000X-0.225000X0.250000X0.225000X-0.250000X0.225000X-0.250000X-0.225000X0*%
%ADD14RoundRect,0.200000X0.275000X-0.200000X0.275000X0.200000X-0.275000X0.200000X-0.275000X-0.200000X0*%
%ADD15C,3.200000*%
%ADD16RoundRect,0.250000X1.100000X-0.325000X1.100000X0.325000X-1.100000X0.325000X-1.100000X-0.325000X0*%
%ADD17O,1.800000X0.588000*%
%ADD18C,3.000000*%
%ADD19RoundRect,0.250000X-1.100000X0.325000X-1.100000X-0.325000X1.100000X-0.325000X1.100000X0.325000X0*%
%ADD20R,0.300000X0.680000*%
%ADD21R,0.300000X0.600000*%
%ADD22R,2.650000X2.000000*%
%ADD23RoundRect,0.225000X-0.225000X-0.250000X0.225000X-0.250000X0.225000X0.250000X-0.225000X0.250000X0*%
%ADD24R,1.700000X1.800000*%
%ADD25R,1.300000X0.560000*%
%ADD26R,1.000000X0.800000*%
%ADD27RoundRect,0.200000X0.200000X0.275000X-0.200000X0.275000X-0.200000X-0.275000X0.200000X-0.275000X0*%
%ADD28RoundRect,0.200000X-0.200000X-0.275000X0.200000X-0.275000X0.200000X0.275000X-0.200000X0.275000X0*%
%ADD29RoundRect,0.250000X-0.325000X-0.650000X0.325000X-0.650000X0.325000X0.650000X-0.325000X0.650000X0*%
%ADD30R,0.600000X1.070000*%
%ADD31R,2.500000X3.500000*%
%ADD32RoundRect,0.250000X0.325000X0.650000X-0.325000X0.650000X-0.325000X-0.650000X0.325000X-0.650000X0*%
%ADD33R,1.000000X0.600000*%
%ADD34FreePoly0,0.000000*%
%ADD35R,0.700000X0.250000*%
%ADD36FreePoly1,0.000000*%
%ADD37FreePoly2,0.000000*%
%ADD38FreePoly3,0.000000*%
%ADD39FreePoly4,0.000000*%
%ADD40R,0.250000X0.700000*%
%ADD41FreePoly5,0.000000*%
%ADD42O,1.600000X0.600000*%
%ADD43R,2.500000X3.200000*%
%ADD44R,3.000000X3.000000*%
%ADD45RoundRect,0.250000X-0.250000X-0.475000X0.250000X-0.475000X0.250000X0.475000X-0.250000X0.475000X0*%
%ADD46C,0.600000*%
%ADD47RoundRect,0.250000X-0.325000X-1.100000X0.325000X-1.100000X0.325000X1.100000X-0.325000X1.100000X0*%
%ADD48RoundRect,0.250000X0.750000X0.650000X-0.750000X0.650000X-0.750000X-0.650000X0.750000X-0.650000X0*%
%ADD49R,1.190000X1.728000*%
G04 APERTURE END LIST*
D10*
X3004761Y24637705D02*
X2547618Y24637705D01*
X2776190Y24637705D02*
X2776190Y25437705D01*
X2776190Y25437705D02*
X2699999Y25323420D01*
X2699999Y25323420D02*
X2623809Y25247229D01*
X2623809Y25247229D02*
X2547618Y25209134D01*
X3309523Y25361515D02*
X3347619Y25399610D01*
X3347619Y25399610D02*
X3423809Y25437705D01*
X3423809Y25437705D02*
X3614285Y25437705D01*
X3614285Y25437705D02*
X3690476Y25399610D01*
X3690476Y25399610D02*
X3728571Y25361515D01*
X3728571Y25361515D02*
X3766666Y25285324D01*
X3766666Y25285324D02*
X3766666Y25209134D01*
X3766666Y25209134D02*
X3728571Y25094848D01*
X3728571Y25094848D02*
X3271428Y24637705D01*
X3271428Y24637705D02*
X3766666Y24637705D01*
X3995238Y25437705D02*
X4261905Y24637705D01*
X4261905Y24637705D02*
X4528571Y25437705D01*
X2890476Y18399610D02*
X2814286Y18437705D01*
X2814286Y18437705D02*
X2700000Y18437705D01*
X2700000Y18437705D02*
X2585714Y18399610D01*
X2585714Y18399610D02*
X2509524Y18323420D01*
X2509524Y18323420D02*
X2471429Y18247229D01*
X2471429Y18247229D02*
X2433333Y18094848D01*
X2433333Y18094848D02*
X2433333Y17980562D01*
X2433333Y17980562D02*
X2471429Y17828181D01*
X2471429Y17828181D02*
X2509524Y17751991D01*
X2509524Y17751991D02*
X2585714Y17675800D01*
X2585714Y17675800D02*
X2700000Y17637705D01*
X2700000Y17637705D02*
X2776191Y17637705D01*
X2776191Y17637705D02*
X2890476Y17675800D01*
X2890476Y17675800D02*
X2928572Y17713896D01*
X2928572Y17713896D02*
X2928572Y17980562D01*
X2928572Y17980562D02*
X2776191Y17980562D01*
X3271429Y17637705D02*
X3271429Y18437705D01*
X3271429Y18437705D02*
X3728572Y17637705D01*
X3728572Y17637705D02*
X3728572Y18437705D01*
X4109524Y17637705D02*
X4109524Y18437705D01*
X4109524Y18437705D02*
X4300000Y18437705D01*
X4300000Y18437705D02*
X4414286Y18399610D01*
X4414286Y18399610D02*
X4490476Y18323420D01*
X4490476Y18323420D02*
X4528571Y18247229D01*
X4528571Y18247229D02*
X4566667Y18094848D01*
X4566667Y18094848D02*
X4566667Y17980562D01*
X4566667Y17980562D02*
X4528571Y17828181D01*
X4528571Y17828181D02*
X4490476Y17751991D01*
X4490476Y17751991D02*
X4414286Y17675800D01*
X4414286Y17675800D02*
X4300000Y17637705D01*
X4300000Y17637705D02*
X4109524Y17637705D01*
X1866667Y13637705D02*
X1866667Y14437705D01*
X2209523Y13675800D02*
X2323809Y13637705D01*
X2323809Y13637705D02*
X2514285Y13637705D01*
X2514285Y13637705D02*
X2590476Y13675800D01*
X2590476Y13675800D02*
X2628571Y13713896D01*
X2628571Y13713896D02*
X2666666Y13790086D01*
X2666666Y13790086D02*
X2666666Y13866277D01*
X2666666Y13866277D02*
X2628571Y13942467D01*
X2628571Y13942467D02*
X2590476Y13980562D01*
X2590476Y13980562D02*
X2514285Y14018658D01*
X2514285Y14018658D02*
X2361904Y14056753D01*
X2361904Y14056753D02*
X2285714Y14094848D01*
X2285714Y14094848D02*
X2247619Y14132943D01*
X2247619Y14132943D02*
X2209523Y14209134D01*
X2209523Y14209134D02*
X2209523Y14285324D01*
X2209523Y14285324D02*
X2247619Y14361515D01*
X2247619Y14361515D02*
X2285714Y14399610D01*
X2285714Y14399610D02*
X2361904Y14437705D01*
X2361904Y14437705D02*
X2552381Y14437705D01*
X2552381Y14437705D02*
X2666666Y14399610D01*
X3161905Y14437705D02*
X3314286Y14437705D01*
X3314286Y14437705D02*
X3390476Y14399610D01*
X3390476Y14399610D02*
X3466667Y14323420D01*
X3466667Y14323420D02*
X3504762Y14171039D01*
X3504762Y14171039D02*
X3504762Y13904372D01*
X3504762Y13904372D02*
X3466667Y13751991D01*
X3466667Y13751991D02*
X3390476Y13675800D01*
X3390476Y13675800D02*
X3314286Y13637705D01*
X3314286Y13637705D02*
X3161905Y13637705D01*
X3161905Y13637705D02*
X3085714Y13675800D01*
X3085714Y13675800D02*
X3009524Y13751991D01*
X3009524Y13751991D02*
X2971428Y13904372D01*
X2971428Y13904372D02*
X2971428Y14171039D01*
X2971428Y14171039D02*
X3009524Y14323420D01*
X3009524Y14323420D02*
X3085714Y14399610D01*
X3085714Y14399610D02*
X3161905Y14437705D01*
X4228571Y13637705D02*
X3847619Y13637705D01*
X3847619Y13637705D02*
X3847619Y14437705D01*
X4457142Y13866277D02*
X4838095Y13866277D01*
X4380952Y13637705D02*
X4647619Y14437705D01*
X4647619Y14437705D02*
X4914285Y13637705D01*
X5066666Y14437705D02*
X5523809Y14437705D01*
X5295237Y13637705D02*
X5295237Y14437705D01*
X5790476Y14056753D02*
X6057142Y14056753D01*
X6171428Y13637705D02*
X5790476Y13637705D01*
X5790476Y13637705D02*
X5790476Y14437705D01*
X5790476Y14437705D02*
X6171428Y14437705D01*
X6514286Y13637705D02*
X6514286Y14437705D01*
X6514286Y14437705D02*
X6704762Y14437705D01*
X6704762Y14437705D02*
X6819048Y14399610D01*
X6819048Y14399610D02*
X6895238Y14323420D01*
X6895238Y14323420D02*
X6933333Y14247229D01*
X6933333Y14247229D02*
X6971429Y14094848D01*
X6971429Y14094848D02*
X6971429Y13980562D01*
X6971429Y13980562D02*
X6933333Y13828181D01*
X6933333Y13828181D02*
X6895238Y13751991D01*
X6895238Y13751991D02*
X6819048Y13675800D01*
X6819048Y13675800D02*
X6704762Y13637705D01*
X6704762Y13637705D02*
X6514286Y13637705D01*
X6595238Y37642467D02*
X7204762Y37642467D01*
X6595238Y28942467D02*
X7204762Y28942467D01*
X6900000Y28637705D02*
X6900000Y29247229D01*
X45176190Y55337705D02*
X44795238Y55337705D01*
X44795238Y55337705D02*
X44757142Y54956753D01*
X44757142Y54956753D02*
X44795238Y54994848D01*
X44795238Y54994848D02*
X44871428Y55032943D01*
X44871428Y55032943D02*
X45061904Y55032943D01*
X45061904Y55032943D02*
X45138095Y54994848D01*
X45138095Y54994848D02*
X45176190Y54956753D01*
X45176190Y54956753D02*
X45214285Y54880562D01*
X45214285Y54880562D02*
X45214285Y54690086D01*
X45214285Y54690086D02*
X45176190Y54613896D01*
X45176190Y54613896D02*
X45138095Y54575800D01*
X45138095Y54575800D02*
X45061904Y54537705D01*
X45061904Y54537705D02*
X44871428Y54537705D01*
X44871428Y54537705D02*
X44795238Y54575800D01*
X44795238Y54575800D02*
X44757142Y54613896D01*
X45442857Y55337705D02*
X45709524Y54537705D01*
X45709524Y54537705D02*
X45976190Y55337705D01*
X47423809Y54766277D02*
X47804762Y54766277D01*
X47347619Y54537705D02*
X47614286Y55337705D01*
X47614286Y55337705D02*
X47880952Y54537705D01*
X48566666Y55299610D02*
X48490476Y55337705D01*
X48490476Y55337705D02*
X48376190Y55337705D01*
X48376190Y55337705D02*
X48261904Y55299610D01*
X48261904Y55299610D02*
X48185714Y55223420D01*
X48185714Y55223420D02*
X48147619Y55147229D01*
X48147619Y55147229D02*
X48109523Y54994848D01*
X48109523Y54994848D02*
X48109523Y54880562D01*
X48109523Y54880562D02*
X48147619Y54728181D01*
X48147619Y54728181D02*
X48185714Y54651991D01*
X48185714Y54651991D02*
X48261904Y54575800D01*
X48261904Y54575800D02*
X48376190Y54537705D01*
X48376190Y54537705D02*
X48452381Y54537705D01*
X48452381Y54537705D02*
X48566666Y54575800D01*
X48566666Y54575800D02*
X48604762Y54613896D01*
X48604762Y54613896D02*
X48604762Y54880562D01*
X48604762Y54880562D02*
X48452381Y54880562D01*
X48947619Y54537705D02*
X48947619Y55337705D01*
X48947619Y55337705D02*
X49404762Y54537705D01*
X49404762Y54537705D02*
X49404762Y55337705D01*
X49785714Y54537705D02*
X49785714Y55337705D01*
X49785714Y55337705D02*
X49976190Y55337705D01*
X49976190Y55337705D02*
X50090476Y55299610D01*
X50090476Y55299610D02*
X50166666Y55223420D01*
X50166666Y55223420D02*
X50204761Y55147229D01*
X50204761Y55147229D02*
X50242857Y54994848D01*
X50242857Y54994848D02*
X50242857Y54880562D01*
X50242857Y54880562D02*
X50204761Y54728181D01*
X50204761Y54728181D02*
X50166666Y54651991D01*
X50166666Y54651991D02*
X50090476Y54575800D01*
X50090476Y54575800D02*
X49976190Y54537705D01*
X49976190Y54537705D02*
X49785714Y54537705D01*
X56795238Y21137705D02*
X57061905Y20337705D01*
X57061905Y20337705D02*
X57328571Y21137705D01*
X57595238Y20337705D02*
X57595238Y21137705D01*
X57976190Y20337705D02*
X57976190Y21137705D01*
X57976190Y21137705D02*
X58433333Y20337705D01*
X58433333Y20337705D02*
X58433333Y21137705D01*
X60452380Y21099610D02*
X60376190Y21137705D01*
X60376190Y21137705D02*
X60261904Y21137705D01*
X60261904Y21137705D02*
X60147618Y21099610D01*
X60147618Y21099610D02*
X60071428Y21023420D01*
X60071428Y21023420D02*
X60033333Y20947229D01*
X60033333Y20947229D02*
X59995237Y20794848D01*
X59995237Y20794848D02*
X59995237Y20680562D01*
X59995237Y20680562D02*
X60033333Y20528181D01*
X60033333Y20528181D02*
X60071428Y20451991D01*
X60071428Y20451991D02*
X60147618Y20375800D01*
X60147618Y20375800D02*
X60261904Y20337705D01*
X60261904Y20337705D02*
X60338095Y20337705D01*
X60338095Y20337705D02*
X60452380Y20375800D01*
X60452380Y20375800D02*
X60490476Y20413896D01*
X60490476Y20413896D02*
X60490476Y20680562D01*
X60490476Y20680562D02*
X60338095Y20680562D01*
X60833333Y20337705D02*
X60833333Y21137705D01*
X60833333Y21137705D02*
X61290476Y20337705D01*
X61290476Y20337705D02*
X61290476Y21137705D01*
X61671428Y20337705D02*
X61671428Y21137705D01*
X61671428Y21137705D02*
X61861904Y21137705D01*
X61861904Y21137705D02*
X61976190Y21099610D01*
X61976190Y21099610D02*
X62052380Y21023420D01*
X62052380Y21023420D02*
X62090475Y20947229D01*
X62090475Y20947229D02*
X62128571Y20794848D01*
X62128571Y20794848D02*
X62128571Y20680562D01*
X62128571Y20680562D02*
X62090475Y20528181D01*
X62090475Y20528181D02*
X62052380Y20451991D01*
X62052380Y20451991D02*
X61976190Y20375800D01*
X61976190Y20375800D02*
X61861904Y20337705D01*
X61861904Y20337705D02*
X61671428Y20337705D01*
X57157143Y13637705D02*
X57157143Y14437705D01*
X57157143Y14437705D02*
X57461905Y14437705D01*
X57461905Y14437705D02*
X57538095Y14399610D01*
X57538095Y14399610D02*
X57576190Y14361515D01*
X57576190Y14361515D02*
X57614286Y14285324D01*
X57614286Y14285324D02*
X57614286Y14171039D01*
X57614286Y14171039D02*
X57576190Y14094848D01*
X57576190Y14094848D02*
X57538095Y14056753D01*
X57538095Y14056753D02*
X57461905Y14018658D01*
X57461905Y14018658D02*
X57157143Y14018658D01*
X58414286Y13637705D02*
X58147619Y14018658D01*
X57957143Y13637705D02*
X57957143Y14437705D01*
X57957143Y14437705D02*
X58261905Y14437705D01*
X58261905Y14437705D02*
X58338095Y14399610D01*
X58338095Y14399610D02*
X58376190Y14361515D01*
X58376190Y14361515D02*
X58414286Y14285324D01*
X58414286Y14285324D02*
X58414286Y14171039D01*
X58414286Y14171039D02*
X58376190Y14094848D01*
X58376190Y14094848D02*
X58338095Y14056753D01*
X58338095Y14056753D02*
X58261905Y14018658D01*
X58261905Y14018658D02*
X57957143Y14018658D01*
X58757143Y13637705D02*
X58757143Y14437705D01*
X59138095Y13637705D02*
X59138095Y14437705D01*
X59138095Y14437705D02*
X59404761Y13866277D01*
X59404761Y13866277D02*
X59671428Y14437705D01*
X59671428Y14437705D02*
X59671428Y13637705D01*
X60014285Y13866277D02*
X60395238Y13866277D01*
X59938095Y13637705D02*
X60204762Y14437705D01*
X60204762Y14437705D02*
X60471428Y13637705D01*
X61195238Y13637705D02*
X60928571Y14018658D01*
X60738095Y13637705D02*
X60738095Y14437705D01*
X60738095Y14437705D02*
X61042857Y14437705D01*
X61042857Y14437705D02*
X61119047Y14399610D01*
X61119047Y14399610D02*
X61157142Y14361515D01*
X61157142Y14361515D02*
X61195238Y14285324D01*
X61195238Y14285324D02*
X61195238Y14171039D01*
X61195238Y14171039D02*
X61157142Y14094848D01*
X61157142Y14094848D02*
X61119047Y14056753D01*
X61119047Y14056753D02*
X61042857Y14018658D01*
X61042857Y14018658D02*
X60738095Y14018658D01*
X61690476Y14018658D02*
X61690476Y13637705D01*
X61423809Y14437705D02*
X61690476Y14018658D01*
X61690476Y14018658D02*
X61957142Y14437705D01*
X24280952Y1014573D02*
X24280952Y1864573D01*
X24280952Y1864573D02*
X24604762Y1864573D01*
X24604762Y1864573D02*
X24685714Y1824097D01*
X24685714Y1824097D02*
X24726191Y1783621D01*
X24726191Y1783621D02*
X24766667Y1702669D01*
X24766667Y1702669D02*
X24766667Y1581240D01*
X24766667Y1581240D02*
X24726191Y1500288D01*
X24726191Y1500288D02*
X24685714Y1459811D01*
X24685714Y1459811D02*
X24604762Y1419335D01*
X24604762Y1419335D02*
X24280952Y1419335D01*
X25090476Y1055049D02*
X25211905Y1014573D01*
X25211905Y1014573D02*
X25414286Y1014573D01*
X25414286Y1014573D02*
X25495238Y1055049D01*
X25495238Y1055049D02*
X25535714Y1095526D01*
X25535714Y1095526D02*
X25576191Y1176478D01*
X25576191Y1176478D02*
X25576191Y1257430D01*
X25576191Y1257430D02*
X25535714Y1338383D01*
X25535714Y1338383D02*
X25495238Y1378859D01*
X25495238Y1378859D02*
X25414286Y1419335D01*
X25414286Y1419335D02*
X25252381Y1459811D01*
X25252381Y1459811D02*
X25171429Y1500288D01*
X25171429Y1500288D02*
X25130952Y1540764D01*
X25130952Y1540764D02*
X25090476Y1621716D01*
X25090476Y1621716D02*
X25090476Y1702669D01*
X25090476Y1702669D02*
X25130952Y1783621D01*
X25130952Y1783621D02*
X25171429Y1824097D01*
X25171429Y1824097D02*
X25252381Y1864573D01*
X25252381Y1864573D02*
X25454762Y1864573D01*
X25454762Y1864573D02*
X25576191Y1824097D01*
X25940476Y1338383D02*
X26588096Y1338383D01*
X27438096Y1824097D02*
X27357143Y1864573D01*
X27357143Y1864573D02*
X27235715Y1864573D01*
X27235715Y1864573D02*
X27114286Y1824097D01*
X27114286Y1824097D02*
X27033334Y1743145D01*
X27033334Y1743145D02*
X26992857Y1662192D01*
X26992857Y1662192D02*
X26952381Y1500288D01*
X26952381Y1500288D02*
X26952381Y1378859D01*
X26952381Y1378859D02*
X26992857Y1216954D01*
X26992857Y1216954D02*
X27033334Y1136002D01*
X27033334Y1136002D02*
X27114286Y1055049D01*
X27114286Y1055049D02*
X27235715Y1014573D01*
X27235715Y1014573D02*
X27316667Y1014573D01*
X27316667Y1014573D02*
X27438096Y1055049D01*
X27438096Y1055049D02*
X27478572Y1095526D01*
X27478572Y1095526D02*
X27478572Y1378859D01*
X27478572Y1378859D02*
X27316667Y1378859D01*
X27802381Y1257430D02*
X28207143Y1257430D01*
X27721429Y1014573D02*
X28004762Y1864573D01*
X28004762Y1864573D02*
X28288096Y1014573D01*
X28571428Y1014573D02*
X28571428Y1864573D01*
X28571428Y1864573D02*
X29057143Y1014573D01*
X29057143Y1014573D02*
X29057143Y1864573D01*
X29461904Y1338383D02*
X30109524Y1338383D01*
X30878571Y1864573D02*
X30716666Y1864573D01*
X30716666Y1864573D02*
X30635714Y1824097D01*
X30635714Y1824097D02*
X30595238Y1783621D01*
X30595238Y1783621D02*
X30514285Y1662192D01*
X30514285Y1662192D02*
X30473809Y1500288D01*
X30473809Y1500288D02*
X30473809Y1176478D01*
X30473809Y1176478D02*
X30514285Y1095526D01*
X30514285Y1095526D02*
X30554762Y1055049D01*
X30554762Y1055049D02*
X30635714Y1014573D01*
X30635714Y1014573D02*
X30797619Y1014573D01*
X30797619Y1014573D02*
X30878571Y1055049D01*
X30878571Y1055049D02*
X30919047Y1095526D01*
X30919047Y1095526D02*
X30959524Y1176478D01*
X30959524Y1176478D02*
X30959524Y1378859D01*
X30959524Y1378859D02*
X30919047Y1459811D01*
X30919047Y1459811D02*
X30878571Y1500288D01*
X30878571Y1500288D02*
X30797619Y1540764D01*
X30797619Y1540764D02*
X30635714Y1540764D01*
X30635714Y1540764D02*
X30554762Y1500288D01*
X30554762Y1500288D02*
X30514285Y1459811D01*
X30514285Y1459811D02*
X30473809Y1378859D01*
X31485714Y1864573D02*
X31566667Y1864573D01*
X31566667Y1864573D02*
X31647619Y1824097D01*
X31647619Y1824097D02*
X31688095Y1783621D01*
X31688095Y1783621D02*
X31728571Y1702669D01*
X31728571Y1702669D02*
X31769048Y1540764D01*
X31769048Y1540764D02*
X31769048Y1338383D01*
X31769048Y1338383D02*
X31728571Y1176478D01*
X31728571Y1176478D02*
X31688095Y1095526D01*
X31688095Y1095526D02*
X31647619Y1055049D01*
X31647619Y1055049D02*
X31566667Y1014573D01*
X31566667Y1014573D02*
X31485714Y1014573D01*
X31485714Y1014573D02*
X31404762Y1055049D01*
X31404762Y1055049D02*
X31364286Y1095526D01*
X31364286Y1095526D02*
X31323809Y1176478D01*
X31323809Y1176478D02*
X31283333Y1338383D01*
X31283333Y1338383D02*
X31283333Y1540764D01*
X31283333Y1540764D02*
X31323809Y1702669D01*
X31323809Y1702669D02*
X31364286Y1783621D01*
X31364286Y1783621D02*
X31404762Y1824097D01*
X31404762Y1824097D02*
X31485714Y1864573D01*
X32052381Y1864573D02*
X32254762Y1014573D01*
X32254762Y1014573D02*
X32416667Y1621716D01*
X32416667Y1621716D02*
X32578572Y1014573D01*
X32578572Y1014573D02*
X32780953Y1864573D01*
X35007143Y1905049D02*
X34278572Y812192D01*
X36545238Y1257430D02*
X36950000Y1257430D01*
X36464286Y1014573D02*
X36747619Y1864573D01*
X36747619Y1864573D02*
X37030953Y1014573D01*
X37273809Y1783621D02*
X37314285Y1824097D01*
X37314285Y1824097D02*
X37395238Y1864573D01*
X37395238Y1864573D02*
X37597619Y1864573D01*
X37597619Y1864573D02*
X37678571Y1824097D01*
X37678571Y1824097D02*
X37719047Y1783621D01*
X37719047Y1783621D02*
X37759524Y1702669D01*
X37759524Y1702669D02*
X37759524Y1621716D01*
X37759524Y1621716D02*
X37719047Y1500288D01*
X37719047Y1500288D02*
X37233333Y1014573D01*
X37233333Y1014573D02*
X37759524Y1014573D01*
X2814286Y43391443D02*
X2300000Y43391443D01*
X2557143Y43391443D02*
X2557143Y44291443D01*
X2557143Y44291443D02*
X2471429Y44162872D01*
X2471429Y44162872D02*
X2385714Y44077158D01*
X2385714Y44077158D02*
X2300000Y44034300D01*
X3157143Y44205729D02*
X3200000Y44248586D01*
X3200000Y44248586D02*
X3285715Y44291443D01*
X3285715Y44291443D02*
X3500000Y44291443D01*
X3500000Y44291443D02*
X3585715Y44248586D01*
X3585715Y44248586D02*
X3628572Y44205729D01*
X3628572Y44205729D02*
X3671429Y44120015D01*
X3671429Y44120015D02*
X3671429Y44034300D01*
X3671429Y44034300D02*
X3628572Y43905729D01*
X3628572Y43905729D02*
X3114286Y43391443D01*
X3114286Y43391443D02*
X3671429Y43391443D01*
X3928572Y44291443D02*
X4228572Y43391443D01*
X4228572Y43391443D02*
X4528572Y44291443D01*
X5685715Y44291443D02*
X5857143Y44291443D01*
X5857143Y44291443D02*
X5942858Y44248586D01*
X5942858Y44248586D02*
X6028572Y44162872D01*
X6028572Y44162872D02*
X6071429Y43991443D01*
X6071429Y43991443D02*
X6071429Y43691443D01*
X6071429Y43691443D02*
X6028572Y43520015D01*
X6028572Y43520015D02*
X5942858Y43434300D01*
X5942858Y43434300D02*
X5857143Y43391443D01*
X5857143Y43391443D02*
X5685715Y43391443D01*
X5685715Y43391443D02*
X5600001Y43434300D01*
X5600001Y43434300D02*
X5514286Y43520015D01*
X5514286Y43520015D02*
X5471429Y43691443D01*
X5471429Y43691443D02*
X5471429Y43991443D01*
X5471429Y43991443D02*
X5514286Y44162872D01*
X5514286Y44162872D02*
X5600001Y44248586D01*
X5600001Y44248586D02*
X5685715Y44291443D01*
X6457143Y44291443D02*
X6457143Y43562872D01*
X6457143Y43562872D02*
X6500000Y43477158D01*
X6500000Y43477158D02*
X6542858Y43434300D01*
X6542858Y43434300D02*
X6628572Y43391443D01*
X6628572Y43391443D02*
X6800000Y43391443D01*
X6800000Y43391443D02*
X6885715Y43434300D01*
X6885715Y43434300D02*
X6928572Y43477158D01*
X6928572Y43477158D02*
X6971429Y43562872D01*
X6971429Y43562872D02*
X6971429Y44291443D01*
X7271429Y44291443D02*
X7785715Y44291443D01*
X7528572Y43391443D02*
X7528572Y44291443D01*
X56328572Y43991443D02*
X56328572Y43391443D01*
X56114286Y44334300D02*
X55900000Y43691443D01*
X55900000Y43691443D02*
X56457143Y43691443D01*
X56928572Y43905729D02*
X56842857Y43948586D01*
X56842857Y43948586D02*
X56800000Y43991443D01*
X56800000Y43991443D02*
X56757143Y44077158D01*
X56757143Y44077158D02*
X56757143Y44120015D01*
X56757143Y44120015D02*
X56800000Y44205729D01*
X56800000Y44205729D02*
X56842857Y44248586D01*
X56842857Y44248586D02*
X56928572Y44291443D01*
X56928572Y44291443D02*
X57100000Y44291443D01*
X57100000Y44291443D02*
X57185715Y44248586D01*
X57185715Y44248586D02*
X57228572Y44205729D01*
X57228572Y44205729D02*
X57271429Y44120015D01*
X57271429Y44120015D02*
X57271429Y44077158D01*
X57271429Y44077158D02*
X57228572Y43991443D01*
X57228572Y43991443D02*
X57185715Y43948586D01*
X57185715Y43948586D02*
X57100000Y43905729D01*
X57100000Y43905729D02*
X56928572Y43905729D01*
X56928572Y43905729D02*
X56842857Y43862872D01*
X56842857Y43862872D02*
X56800000Y43820015D01*
X56800000Y43820015D02*
X56757143Y43734300D01*
X56757143Y43734300D02*
X56757143Y43562872D01*
X56757143Y43562872D02*
X56800000Y43477158D01*
X56800000Y43477158D02*
X56842857Y43434300D01*
X56842857Y43434300D02*
X56928572Y43391443D01*
X56928572Y43391443D02*
X57100000Y43391443D01*
X57100000Y43391443D02*
X57185715Y43434300D01*
X57185715Y43434300D02*
X57228572Y43477158D01*
X57228572Y43477158D02*
X57271429Y43562872D01*
X57271429Y43562872D02*
X57271429Y43734300D01*
X57271429Y43734300D02*
X57228572Y43820015D01*
X57228572Y43820015D02*
X57185715Y43862872D01*
X57185715Y43862872D02*
X57100000Y43905729D01*
X57528572Y44291443D02*
X57828572Y43391443D01*
X57828572Y43391443D02*
X58128572Y44291443D01*
X59114286Y43391443D02*
X59114286Y44291443D01*
X59542857Y43391443D02*
X59542857Y44291443D01*
X59542857Y44291443D02*
X60057143Y43391443D01*
X60057143Y43391443D02*
X60057143Y44291443D01*
X54419048Y35966134D02*
X55180953Y35966134D01*
X54800000Y35585181D02*
X54800000Y36347086D01*
X54419048Y30886135D02*
X55180953Y30886135D01*
X20314285Y53052658D02*
X20314285Y54252658D01*
X20314285Y54252658D02*
X20771428Y54252658D01*
X20771428Y54252658D02*
X20885713Y54195515D01*
X20885713Y54195515D02*
X20942856Y54138372D01*
X20942856Y54138372D02*
X20999999Y54024086D01*
X20999999Y54024086D02*
X20999999Y53852658D01*
X20999999Y53852658D02*
X20942856Y53738372D01*
X20942856Y53738372D02*
X20885713Y53681229D01*
X20885713Y53681229D02*
X20771428Y53624086D01*
X20771428Y53624086D02*
X20314285Y53624086D01*
X22085713Y53052658D02*
X21514285Y53052658D01*
X21514285Y53052658D02*
X21514285Y54252658D01*
X22428571Y53395515D02*
X23000000Y53395515D01*
X22314285Y53052658D02*
X22714285Y54252658D01*
X22714285Y54252658D02*
X23114285Y53052658D01*
X23514285Y53052658D02*
X23514285Y54252658D01*
X23514285Y54252658D02*
X24199999Y53052658D01*
X24199999Y53052658D02*
X24199999Y54252658D01*
X24714285Y53395515D02*
X25285714Y53395515D01*
X24599999Y53052658D02*
X24999999Y54252658D01*
X24999999Y54252658D02*
X25399999Y53052658D01*
X26485713Y53052658D02*
X26085713Y53624086D01*
X25799999Y53052658D02*
X25799999Y54252658D01*
X25799999Y54252658D02*
X26257142Y54252658D01*
X26257142Y54252658D02*
X26371427Y54195515D01*
X26371427Y54195515D02*
X26428570Y54138372D01*
X26428570Y54138372D02*
X26485713Y54024086D01*
X26485713Y54024086D02*
X26485713Y53852658D01*
X26485713Y53852658D02*
X26428570Y53738372D01*
X26428570Y53738372D02*
X26371427Y53681229D01*
X26371427Y53681229D02*
X26257142Y53624086D01*
X26257142Y53624086D02*
X25799999Y53624086D01*
X27857142Y53109800D02*
X28028571Y53052658D01*
X28028571Y53052658D02*
X28314285Y53052658D01*
X28314285Y53052658D02*
X28428571Y53109800D01*
X28428571Y53109800D02*
X28485713Y53166943D01*
X28485713Y53166943D02*
X28542856Y53281229D01*
X28542856Y53281229D02*
X28542856Y53395515D01*
X28542856Y53395515D02*
X28485713Y53509800D01*
X28485713Y53509800D02*
X28428571Y53566943D01*
X28428571Y53566943D02*
X28314285Y53624086D01*
X28314285Y53624086D02*
X28085713Y53681229D01*
X28085713Y53681229D02*
X27971428Y53738372D01*
X27971428Y53738372D02*
X27914285Y53795515D01*
X27914285Y53795515D02*
X27857142Y53909800D01*
X27857142Y53909800D02*
X27857142Y54024086D01*
X27857142Y54024086D02*
X27914285Y54138372D01*
X27914285Y54138372D02*
X27971428Y54195515D01*
X27971428Y54195515D02*
X28085713Y54252658D01*
X28085713Y54252658D02*
X28371428Y54252658D01*
X28371428Y54252658D02*
X28542856Y54195515D01*
X28885713Y54252658D02*
X29571428Y54252658D01*
X29228570Y53052658D02*
X29228570Y54252658D01*
X29971428Y54252658D02*
X29971428Y53281229D01*
X29971428Y53281229D02*
X30028571Y53166943D01*
X30028571Y53166943D02*
X30085714Y53109800D01*
X30085714Y53109800D02*
X30199999Y53052658D01*
X30199999Y53052658D02*
X30428571Y53052658D01*
X30428571Y53052658D02*
X30542856Y53109800D01*
X30542856Y53109800D02*
X30599999Y53166943D01*
X30599999Y53166943D02*
X30657142Y53281229D01*
X30657142Y53281229D02*
X30657142Y54252658D01*
X31228571Y53052658D02*
X31228571Y54252658D01*
X31228571Y54252658D02*
X31514285Y54252658D01*
X31514285Y54252658D02*
X31685714Y54195515D01*
X31685714Y54195515D02*
X31799999Y54081229D01*
X31799999Y54081229D02*
X31857142Y53966943D01*
X31857142Y53966943D02*
X31914285Y53738372D01*
X31914285Y53738372D02*
X31914285Y53566943D01*
X31914285Y53566943D02*
X31857142Y53338372D01*
X31857142Y53338372D02*
X31799999Y53224086D01*
X31799999Y53224086D02*
X31685714Y53109800D01*
X31685714Y53109800D02*
X31514285Y53052658D01*
X31514285Y53052658D02*
X31228571Y53052658D01*
X32428571Y53052658D02*
X32428571Y54252658D01*
X33228571Y54252658D02*
X33457143Y54252658D01*
X33457143Y54252658D02*
X33571428Y54195515D01*
X33571428Y54195515D02*
X33685714Y54081229D01*
X33685714Y54081229D02*
X33742857Y53852658D01*
X33742857Y53852658D02*
X33742857Y53452658D01*
X33742857Y53452658D02*
X33685714Y53224086D01*
X33685714Y53224086D02*
X33571428Y53109800D01*
X33571428Y53109800D02*
X33457143Y53052658D01*
X33457143Y53052658D02*
X33228571Y53052658D01*
X33228571Y53052658D02*
X33114286Y53109800D01*
X33114286Y53109800D02*
X33000000Y53224086D01*
X33000000Y53224086D02*
X32942857Y53452658D01*
X32942857Y53452658D02*
X32942857Y53852658D01*
X32942857Y53852658D02*
X33000000Y54081229D01*
X33000000Y54081229D02*
X33114286Y54195515D01*
X33114286Y54195515D02*
X33228571Y54252658D01*
X58738095Y8445181D02*
X58738095Y9445181D01*
X58738095Y8968991D02*
X59309523Y8968991D01*
X59309523Y8445181D02*
X59309523Y9445181D01*
X60214285Y9111848D02*
X60214285Y8445181D01*
X59976190Y9492800D02*
X59738095Y8778515D01*
X59738095Y8778515D02*
X60357142Y8778515D01*
X3738095Y8445181D02*
X3738095Y9445181D01*
X3738095Y8968991D02*
X4309523Y8968991D01*
X4309523Y8445181D02*
X4309523Y9445181D01*
X4690476Y9445181D02*
X5309523Y9445181D01*
X5309523Y9445181D02*
X4976190Y9064229D01*
X4976190Y9064229D02*
X5119047Y9064229D01*
X5119047Y9064229D02*
X5214285Y9016610D01*
X5214285Y9016610D02*
X5261904Y8968991D01*
X5261904Y8968991D02*
X5309523Y8873753D01*
X5309523Y8873753D02*
X5309523Y8635658D01*
X5309523Y8635658D02*
X5261904Y8540420D01*
X5261904Y8540420D02*
X5214285Y8492800D01*
X5214285Y8492800D02*
X5119047Y8445181D01*
X5119047Y8445181D02*
X4833333Y8445181D01*
X4833333Y8445181D02*
X4738095Y8492800D01*
X4738095Y8492800D02*
X4690476Y8540420D01*
X58738095Y46645181D02*
X58738095Y47645181D01*
X58738095Y47168991D02*
X59309523Y47168991D01*
X59309523Y46645181D02*
X59309523Y47645181D01*
X59738095Y47549943D02*
X59785714Y47597562D01*
X59785714Y47597562D02*
X59880952Y47645181D01*
X59880952Y47645181D02*
X60119047Y47645181D01*
X60119047Y47645181D02*
X60214285Y47597562D01*
X60214285Y47597562D02*
X60261904Y47549943D01*
X60261904Y47549943D02*
X60309523Y47454705D01*
X60309523Y47454705D02*
X60309523Y47359467D01*
X60309523Y47359467D02*
X60261904Y47216610D01*
X60261904Y47216610D02*
X59690476Y46645181D01*
X59690476Y46645181D02*
X60309523Y46645181D01*
X3738095Y46645181D02*
X3738095Y47645181D01*
X3738095Y47168991D02*
X4309523Y47168991D01*
X4309523Y46645181D02*
X4309523Y47645181D01*
X5309523Y46645181D02*
X4738095Y46645181D01*
X5023809Y46645181D02*
X5023809Y47645181D01*
X5023809Y47645181D02*
X4928571Y47502324D01*
X4928571Y47502324D02*
X4833333Y47407086D01*
X4833333Y47407086D02*
X4738095Y47359467D01*
%LPC*%
D11*
%TO.C,H4*%
G36*
X67700000Y1300000D02*
G01*
X59500000Y1300000D01*
X59290710Y1306851D01*
X59082316Y1327376D01*
X58875711Y1361487D01*
X58671779Y1409037D01*
X58471394Y1469824D01*
X58275413Y1543585D01*
X58084676Y1630007D01*
X57900000Y1728719D01*
X57722175Y1839297D01*
X57551963Y1961269D01*
X57390093Y2094113D01*
X57237258Y2237258D01*
X57094113Y2390093D01*
X56961269Y2551963D01*
X56839297Y2722175D01*
X56728719Y2900000D01*
X56630007Y3084676D01*
X56543585Y3275413D01*
X56469824Y3471394D01*
X56409037Y3671779D01*
X56361487Y3875711D01*
X56327376Y4082316D01*
X56306851Y4290710D01*
X56300000Y4500000D01*
X56306851Y4709290D01*
X56327376Y4917684D01*
X56361487Y5124289D01*
X56409037Y5328221D01*
X56469824Y5528606D01*
X56543585Y5724587D01*
X56630007Y5915324D01*
X56728719Y6100000D01*
X56839297Y6277825D01*
X56961269Y6448037D01*
X57094113Y6609907D01*
X57237258Y6762742D01*
X57390093Y6905887D01*
X57551963Y7038731D01*
X57722175Y7160703D01*
X57900000Y7271281D01*
X58084676Y7369993D01*
X58275413Y7456415D01*
X58471394Y7530176D01*
X58671779Y7590963D01*
X58875711Y7638513D01*
X59082316Y7672624D01*
X59290710Y7693149D01*
X59500000Y7700000D01*
X67700000Y7700000D01*
X67700000Y1300000D01*
G37*
%TO.C,H3*%
G36*
X4709290Y7693149D02*
G01*
X4917684Y7672624D01*
X5124289Y7638513D01*
X5328221Y7590963D01*
X5528606Y7530176D01*
X5724587Y7456415D01*
X5915324Y7369993D01*
X6100000Y7271281D01*
X6277825Y7160703D01*
X6448037Y7038731D01*
X6609907Y6905887D01*
X6762742Y6762742D01*
X6905887Y6609907D01*
X7038731Y6448037D01*
X7160703Y6277825D01*
X7271281Y6100000D01*
X7369993Y5915324D01*
X7456415Y5724587D01*
X7530176Y5528606D01*
X7590963Y5328221D01*
X7638513Y5124289D01*
X7672624Y4917684D01*
X7693149Y4709290D01*
X7700000Y4500000D01*
X7693149Y4290710D01*
X7672624Y4082316D01*
X7638513Y3875711D01*
X7590963Y3671779D01*
X7530176Y3471394D01*
X7456415Y3275413D01*
X7369993Y3084676D01*
X7271281Y2900000D01*
X7160703Y2722175D01*
X7038731Y2551963D01*
X6905887Y2390093D01*
X6762742Y2237258D01*
X6609907Y2094113D01*
X6448037Y1961269D01*
X6277825Y1839297D01*
X6100000Y1728719D01*
X5915324Y1630007D01*
X5724587Y1543585D01*
X5528606Y1469824D01*
X5328221Y1409037D01*
X5124289Y1361487D01*
X4917684Y1327376D01*
X4709290Y1306851D01*
X4500000Y1300000D01*
X-3700000Y1300000D01*
X-3700000Y7700000D01*
X4500000Y7700000D01*
X4709290Y7693149D01*
G37*
%TO.C,H2*%
G36*
X67700000Y48300000D02*
G01*
X59500000Y48300000D01*
X59290710Y48306851D01*
X59082316Y48327376D01*
X58875711Y48361487D01*
X58671779Y48409037D01*
X58471394Y48469824D01*
X58275413Y48543585D01*
X58084676Y48630007D01*
X57900000Y48728719D01*
X57722175Y48839297D01*
X57551963Y48961269D01*
X57390093Y49094113D01*
X57237258Y49237258D01*
X57094113Y49390093D01*
X56961269Y49551963D01*
X56839297Y49722175D01*
X56728719Y49900000D01*
X56630007Y50084676D01*
X56543585Y50275413D01*
X56469824Y50471394D01*
X56409037Y50671779D01*
X56361487Y50875711D01*
X56327376Y51082316D01*
X56306851Y51290710D01*
X56300000Y51500000D01*
X56306851Y51709290D01*
X56327376Y51917684D01*
X56361487Y52124289D01*
X56409037Y52328221D01*
X56469824Y52528606D01*
X56543585Y52724587D01*
X56630007Y52915324D01*
X56728719Y53100000D01*
X56839297Y53277825D01*
X56961269Y53448037D01*
X57094113Y53609907D01*
X57237258Y53762742D01*
X57390093Y53905887D01*
X57551963Y54038731D01*
X57722175Y54160703D01*
X57900000Y54271281D01*
X58084676Y54369993D01*
X58275413Y54456415D01*
X58471394Y54530176D01*
X58671779Y54590963D01*
X58875711Y54638513D01*
X59082316Y54672624D01*
X59290710Y54693149D01*
X59500000Y54700000D01*
X67700000Y54700000D01*
X67700000Y48300000D01*
G37*
%TO.C,H1*%
G36*
X4709290Y54693149D02*
G01*
X4917684Y54672624D01*
X5124289Y54638513D01*
X5328221Y54590963D01*
X5528606Y54530176D01*
X5724587Y54456415D01*
X5915324Y54369993D01*
X6100000Y54271281D01*
X6277825Y54160703D01*
X6448037Y54038731D01*
X6609907Y53905887D01*
X6762742Y53762742D01*
X6905887Y53609907D01*
X7038731Y53448037D01*
X7160703Y53277825D01*
X7271281Y53100000D01*
X7369993Y52915324D01*
X7456415Y52724587D01*
X7530176Y52528606D01*
X7590963Y52328221D01*
X7638513Y52124289D01*
X7672624Y51917684D01*
X7693149Y51709290D01*
X7700000Y51500000D01*
X7693149Y51290710D01*
X7672624Y51082316D01*
X7638513Y50875711D01*
X7590963Y50671779D01*
X7530176Y50471394D01*
X7456415Y50275413D01*
X7369993Y50084676D01*
X7271281Y49900000D01*
X7160703Y49722175D01*
X7038731Y49551963D01*
X6905887Y49390093D01*
X6762742Y49237258D01*
X6609907Y49094113D01*
X6448037Y48961269D01*
X6277825Y48839297D01*
X6100000Y48728719D01*
X5915324Y48630007D01*
X5724587Y48543585D01*
X5528606Y48469824D01*
X5328221Y48409037D01*
X5124289Y48361487D01*
X4917684Y48327376D01*
X4709290Y48306851D01*
X4500000Y48300000D01*
X-3700000Y48300000D01*
X-3700000Y54700000D01*
X4500000Y54700000D01*
X4709290Y54693149D01*
G37*
%TD*%
D12*
%TO.C,TP6*%
X49000000Y53000000D03*
%TD*%
D13*
%TO.C,C9*%
X29800000Y17025000D03*
X29800000Y18575000D03*
%TD*%
D14*
%TO.C,R28*%
X12000000Y4775000D03*
X12000000Y6425000D03*
%TD*%
%TO.C,R27*%
X10600000Y7875000D03*
X10600000Y9525000D03*
%TD*%
D15*
%TO.C,H4*%
X59500000Y4500000D03*
%TD*%
D14*
%TO.C,R13*%
X15000000Y28975000D03*
X15000000Y30625000D03*
%TD*%
D13*
%TO.C,C28*%
X21500000Y19225000D03*
X21500000Y20775000D03*
%TD*%
D16*
%TO.C,C21*%
X40100000Y8825000D03*
X40100000Y11775000D03*
%TD*%
D17*
%TO.C,U3*%
X8300000Y38400000D03*
X8300000Y37130000D03*
X8300000Y35870000D03*
X8300000Y34600000D03*
X13500000Y34600000D03*
X13500000Y35870000D03*
X13500000Y37130000D03*
X13500000Y38400000D03*
%TD*%
D18*
%TO.C,FID1*%
X3500000Y12500000D03*
%TD*%
D14*
%TO.C,R9*%
X37000000Y19675000D03*
X37000000Y21325000D03*
%TD*%
%TO.C,R19*%
X51000000Y13675000D03*
X51000000Y15325000D03*
%TD*%
D17*
%TO.C,U2*%
X31400000Y16900000D03*
X31400000Y15630000D03*
X31400000Y14370000D03*
X31400000Y13100000D03*
X36600000Y13100000D03*
X36600000Y14370000D03*
X36600000Y15630000D03*
X36600000Y16900000D03*
%TD*%
D18*
%TO.C,FID3*%
X42000000Y53700000D03*
%TD*%
D19*
%TO.C,C2*%
X52200000Y31875000D03*
X52200000Y28925000D03*
%TD*%
D12*
%TO.C,TP5*%
X46000000Y53000000D03*
%TD*%
D14*
%TO.C,R17*%
X45000000Y13675000D03*
X45000000Y15325000D03*
%TD*%
D20*
%TO.C,Q2*%
X12290000Y31300000D03*
X11640000Y31300000D03*
X10990000Y31300000D03*
X10340000Y31300000D03*
D21*
X10310000Y28300000D03*
X10960000Y28300000D03*
X11610000Y28300000D03*
X12260000Y28300000D03*
D22*
X11290000Y29390000D03*
%TD*%
D23*
%TO.C,C20*%
X45225000Y23500000D03*
X46775000Y23500000D03*
%TD*%
%TO.C,C29*%
X16725000Y4000000D03*
X18275000Y4000000D03*
%TD*%
D13*
%TO.C,C24*%
X49000000Y13725000D03*
X49000000Y15275000D03*
%TD*%
D24*
%TO.C,D1*%
X39300000Y46310000D03*
X39300000Y50690000D03*
%TD*%
D25*
%TO.C,U6*%
X20650000Y16270000D03*
X20650000Y13730000D03*
X26950000Y13730000D03*
X26950000Y16270000D03*
%TD*%
D16*
%TO.C,C16*%
X14500000Y19025000D03*
X14500000Y21975000D03*
%TD*%
D26*
%TO.C,D2*%
X40950000Y18150000D03*
X40950000Y20050000D03*
X38650000Y19100000D03*
%TD*%
D16*
%TO.C,C13*%
X10000000Y24025000D03*
X10000000Y26975000D03*
%TD*%
D13*
%TO.C,C25*%
X43000000Y27425000D03*
X43000000Y28975000D03*
%TD*%
D27*
%TO.C,R10*%
X15325000Y40700000D03*
X13675000Y40700000D03*
%TD*%
D28*
%TO.C,R7*%
X33675000Y6800000D03*
X35325000Y6800000D03*
%TD*%
D23*
%TO.C,C6*%
X47725000Y44300000D03*
X49275000Y44300000D03*
%TD*%
D13*
%TO.C,C10*%
X38200000Y14825000D03*
X38200000Y16375000D03*
%TD*%
D25*
%TO.C,U8*%
X20650000Y8670000D03*
X20650000Y6130000D03*
X26950000Y6130000D03*
X26950000Y8670000D03*
%TD*%
D14*
%TO.C,R23*%
X12000000Y14175000D03*
X12000000Y15825000D03*
%TD*%
D29*
%TO.C,C8*%
X44025000Y38100000D03*
X46975000Y38100000D03*
%TD*%
D30*
%TO.C,U7*%
X18450000Y16240000D03*
X16550000Y16240000D03*
X17500000Y13760000D03*
%TD*%
D28*
%TO.C,R21*%
X16975000Y18300000D03*
X18625000Y18300000D03*
%TD*%
D23*
%TO.C,C18*%
X29025000Y21000000D03*
X30575000Y21000000D03*
%TD*%
D28*
%TO.C,R5*%
X33675000Y19300000D03*
X35325000Y19300000D03*
%TD*%
D31*
%TO.C,L2*%
X46050000Y7500000D03*
X51950000Y7500000D03*
%TD*%
D14*
%TO.C,R12*%
X15000000Y42175000D03*
X15000000Y43825000D03*
%TD*%
D13*
%TO.C,C17*%
X38800000Y24625000D03*
X38800000Y26175000D03*
%TD*%
D14*
%TO.C,R15*%
X53500000Y17375000D03*
X53500000Y19025000D03*
%TD*%
D32*
%TO.C,C3*%
X53675000Y34700000D03*
X50725000Y34700000D03*
%TD*%
D14*
%TO.C,R8*%
X40800000Y21375000D03*
X40800000Y23025000D03*
%TD*%
D33*
%TO.C,U5*%
X47100000Y27250000D03*
X47100000Y28200000D03*
X47100000Y29150000D03*
X44900000Y29150000D03*
X44900000Y27250000D03*
%TD*%
D14*
%TO.C,R2*%
X29800000Y12675000D03*
X29800000Y14325000D03*
%TD*%
D16*
%TO.C,C22*%
X40100000Y3525000D03*
X40100000Y6475000D03*
%TD*%
D14*
%TO.C,R14*%
X53500000Y21175000D03*
X53500000Y22825000D03*
%TD*%
D28*
%TO.C,R24*%
X13575000Y11600000D03*
X15225000Y11600000D03*
%TD*%
D13*
%TO.C,C23*%
X53000000Y13725000D03*
X53000000Y15275000D03*
%TD*%
D34*
%TO.C,U1*%
X48900000Y41700000D03*
D35*
X48900000Y41200000D03*
X48900000Y40700000D03*
X48900000Y40200000D03*
D36*
X48900000Y38020000D03*
D37*
X51000000Y38200000D03*
D38*
X53100000Y38020000D03*
D35*
X53100000Y40200000D03*
X53100000Y40700000D03*
X53100000Y41200000D03*
D39*
X53100000Y41700000D03*
D40*
X51820000Y41980000D03*
X51330000Y41980000D03*
X50820000Y41980000D03*
X50330000Y41980000D03*
X49820000Y41980000D03*
D41*
X50770000Y40660000D03*
%TD*%
D13*
%TO.C,C4*%
X53200000Y43525000D03*
X53200000Y45075000D03*
%TD*%
D12*
%TO.C,TP4*%
X3500000Y20000000D03*
%TD*%
D42*
%TO.C,U4*%
X52000000Y17600000D03*
X52000000Y18870000D03*
X52000000Y20140000D03*
X52000000Y21410000D03*
X46000000Y21410000D03*
X46000000Y20140000D03*
X46000000Y18870000D03*
X46000000Y17600000D03*
D43*
X49000000Y19500000D03*
%TD*%
D12*
%TO.C,TP1*%
X58000000Y23000000D03*
%TD*%
D28*
%TO.C,R6*%
X33675000Y8500000D03*
X35325000Y8500000D03*
%TD*%
D44*
%TO.C,J1*%
X57000000Y30960000D03*
D18*
X57000000Y36040000D03*
%TD*%
D14*
%TO.C,R11*%
X8000000Y29175000D03*
X8000000Y30825000D03*
%TD*%
D28*
%TO.C,R1*%
X31475000Y11600000D03*
X33125000Y11600000D03*
%TD*%
D14*
%TO.C,R18*%
X47000000Y13675000D03*
X47000000Y15325000D03*
%TD*%
D45*
%TO.C,C26*%
X41050000Y25200000D03*
X42950000Y25200000D03*
%TD*%
D14*
%TO.C,R25*%
X13300000Y8175000D03*
X13300000Y9825000D03*
%TD*%
%TO.C,R22*%
X10000000Y14175000D03*
X10000000Y15825000D03*
%TD*%
%TO.C,R3*%
X31400000Y7075000D03*
X31400000Y8725000D03*
%TD*%
D12*
%TO.C,TP3*%
X3500000Y23000000D03*
%TD*%
D46*
%TO.C,T1*%
X42537772Y33735180D03*
X42537772Y39264820D03*
X15462228Y39264820D03*
X18800000Y36500000D03*
X15462228Y33735180D03*
%TD*%
D16*
%TO.C,C14*%
X14500000Y24025000D03*
X14500000Y26975000D03*
%TD*%
D28*
%TO.C,R20*%
X16975000Y20000000D03*
X18625000Y20000000D03*
%TD*%
D13*
%TO.C,C12*%
X8300000Y39725000D03*
X8300000Y41275000D03*
%TD*%
D15*
%TO.C,H3*%
X4500000Y4500000D03*
%TD*%
%TO.C,H2*%
X59500000Y51500000D03*
%TD*%
D14*
%TO.C,R26*%
X15000000Y8175000D03*
X15000000Y9825000D03*
%TD*%
D23*
%TO.C,C27*%
X17225000Y11600000D03*
X18775000Y11600000D03*
%TD*%
D28*
%TO.C,R16*%
X48675000Y23500000D03*
X50325000Y23500000D03*
%TD*%
D44*
%TO.C,J2*%
X5000000Y36040000D03*
D18*
X5000000Y30960000D03*
%TD*%
D16*
%TO.C,C1*%
X45000000Y43625000D03*
X45000000Y46575000D03*
%TD*%
D18*
%TO.C,FID2*%
X60500000Y12500000D03*
%TD*%
D20*
%TO.C,Q1*%
X10310000Y40700000D03*
X10960000Y40700000D03*
X11610000Y40700000D03*
X12260000Y40700000D03*
D21*
X12290000Y43700000D03*
X11640000Y43700000D03*
X10990000Y43700000D03*
X10340000Y43700000D03*
D22*
X11310000Y42610000D03*
%TD*%
D47*
%TO.C,C19*%
X48825000Y26000000D03*
X51775000Y26000000D03*
%TD*%
D30*
%TO.C,U9*%
X18450000Y8640000D03*
X16550000Y8640000D03*
X17500000Y6160000D03*
%TD*%
D45*
%TO.C,C11*%
X9550000Y33000000D03*
X11450000Y33000000D03*
%TD*%
D12*
%TO.C,TP2*%
X61000000Y23000000D03*
%TD*%
D47*
%TO.C,C15*%
X11025000Y48000000D03*
X13975000Y48000000D03*
%TD*%
D28*
%TO.C,R4*%
X33675000Y21000000D03*
X35325000Y21000000D03*
%TD*%
D48*
%TO.C,L1*%
X48450000Y33000000D03*
X43950000Y33000000D03*
%TD*%
D15*
%TO.C,H1*%
X4500000Y51500000D03*
%TD*%
D49*
%TO.C,F1*%
X44450000Y49000000D03*
X41550000Y49000000D03*
%TD*%
D29*
%TO.C,C7*%
X44025000Y40900000D03*
X46975000Y40900000D03*
%TD*%
D13*
%TO.C,C5*%
X46100000Y48725000D03*
X46100000Y50275000D03*
%TD*%
%LPD*%
M02*
