%TF.GenerationSoftware,KiCad,Pcbnew,10.0.6*%
%TF.CreationDate,2026-10-10T14:59:28-04:00*%
%TF.ProjectId,PS-GAN-60W,50532d47-414e-42d3-9630-572e6b696361,A4 REVIEW - NOT FOR FABRICATION*%
%TF.SameCoordinates,Original*%
%TF.FileFunction,Copper,L7,Inr*%
%TF.FilePolarity,Positive*%
%FSLAX46Y46*%
G04 Gerber Fmt 4.6, Leading zero omitted, Abs format (unit mm)*
G04 Created by KiCad (PCBNEW 10.0.6) date 2026-10-10 14:59:28*
%MOMM*%
%LPD*%
G01*
G04 APERTURE LIST*
%TA.AperFunction,EtchedComponent*%
%ADD10C,0.000000*%
%TD*%
%TA.AperFunction,ComponentPad*%
%ADD11R,3.000000X3.000000*%
%TD*%
%TA.AperFunction,ComponentPad*%
%ADD12C,3.000000*%
%TD*%
%TA.AperFunction,ComponentPad*%
%ADD13C,0.600000*%
%TD*%
%TA.AperFunction,ViaPad*%
%ADD14C,0.600000*%
%TD*%
%TA.AperFunction,Conductor*%
%ADD15C,0.300000*%
%TD*%
%TA.AperFunction,Conductor*%
%ADD16C,0.200000*%
%TD*%
%TA.AperFunction,Conductor*%
%ADD17C,0.350000*%
%TD*%
G04 APERTURE END LIST*
D10*
%TA.AperFunction,EtchedComponent*%
%TO.C,T1*%
G36*
X17073396Y43893737D02*
G01*
X17073534Y43893730D01*
X17073659Y43893734D01*
X17686499Y43887484D01*
X17686620Y43887478D01*
X17686760Y43887482D01*
X18251508Y43881232D01*
X18251637Y43881225D01*
X18251763Y43881229D01*
X18776212Y43874979D01*
X18776335Y43874972D01*
X18776459Y43874976D01*
X19266977Y43868726D01*
X19267095Y43868719D01*
X19267214Y43868723D01*
X19729075Y43862473D01*
X19729199Y43862466D01*
X19729300Y43862469D01*
X20166927Y43856219D01*
X20167031Y43856213D01*
X20167137Y43856216D01*
X20584289Y43849966D01*
X20584387Y43849960D01*
X20584483Y43849963D01*
X20984394Y43843713D01*
X20984472Y43843708D01*
X20984569Y43843711D01*
X21370062Y43837461D01*
X21370145Y43837456D01*
X21370216Y43837458D01*
X21743782Y43831208D01*
X21743846Y43831204D01*
X21743916Y43831206D01*
X22107793Y43824956D01*
X22107850Y43824952D01*
X22107904Y43824954D01*
X22464130Y43818704D01*
X22464180Y43818701D01*
X22464216Y43818702D01*
X22814679Y43812452D01*
X22814709Y43812450D01*
X22814741Y43812451D01*
X23158580Y43806248D01*
X34500166Y43800000D01*
X34502815Y43799894D01*
X34505456Y43799950D01*
X34849001Y43793700D01*
X34849020Y43793701D01*
X35193648Y43787451D01*
X35193667Y43787449D01*
X35540878Y43781202D01*
X35540898Y43781203D01*
X35892742Y43774953D01*
X35892758Y43774952D01*
X36250816Y43768704D01*
X36250816Y43768703D01*
X36617010Y43762458D01*
X36617025Y43762459D01*
X36993961Y43756208D01*
X36993977Y43756207D01*
X37383593Y43749960D01*
X37788773Y43743714D01*
X38212353Y43737469D01*
X38212372Y43737470D01*
X38658632Y43731220D01*
X38658634Y43731219D01*
X39131103Y43724973D01*
X39131104Y43724972D01*
X39635013Y43718726D01*
X40176403Y43712480D01*
X40762657Y43706232D01*
X41402927Y43699985D01*
X41426339Y43698835D01*
X41426404Y43698835D01*
X41426425Y43698831D01*
X41426454Y43698830D01*
X41448041Y43695194D01*
X41472828Y43691025D01*
X41472851Y43691017D01*
X41472876Y43691013D01*
X41495465Y43683429D01*
X41517457Y43676050D01*
X41517481Y43676037D01*
X41517503Y43676030D01*
X41537469Y43665610D01*
X41559195Y43654276D01*
X41559215Y43654260D01*
X41559238Y43654249D01*
X41576455Y43641481D01*
X41597012Y43626243D01*
X41597032Y43626221D01*
X41597050Y43626209D01*
X41612512Y43610441D01*
X41629979Y43592637D01*
X41629992Y43592617D01*
X41630012Y43592598D01*
X41644513Y43572223D01*
X41657283Y43554289D01*
X41657293Y43554267D01*
X41657309Y43554246D01*
X41666975Y43534806D01*
X41678252Y43512141D01*
X41678261Y43512111D01*
X41678270Y43512094D01*
X41683999Y43493857D01*
X41692369Y43467233D01*
X41692373Y43467204D01*
X41692380Y43467183D01*
X41695408Y43446773D01*
X41699287Y43420669D01*
X41699288Y43420630D01*
X41699290Y43420618D01*
X41699289Y43420580D01*
X41699986Y43397123D01*
X41693736Y42745254D01*
X41693729Y42745114D01*
X41693733Y42744983D01*
X41687483Y42149277D01*
X41687476Y42149155D01*
X41687481Y42149010D01*
X41681231Y41600066D01*
X41681223Y41599923D01*
X41681227Y41599804D01*
X41674977Y41090050D01*
X41674970Y41089925D01*
X41674974Y41089796D01*
X41668724Y40613037D01*
X41668717Y40612918D01*
X41668721Y40612793D01*
X41662471Y40163905D01*
X41662465Y40163793D01*
X41662468Y40163674D01*
X41656218Y39738356D01*
X41656211Y39738238D01*
X41656214Y39738140D01*
X41649964Y39332738D01*
X41649958Y39332639D01*
X41649961Y39332538D01*
X41643711Y38943908D01*
X41643705Y38943817D01*
X41643708Y38943727D01*
X41637458Y38569127D01*
X41637454Y38569056D01*
X41637456Y38568967D01*
X41631206Y38205974D01*
X41631201Y38205897D01*
X41631203Y38205837D01*
X41624953Y37852274D01*
X41624949Y37852217D01*
X41624951Y37852160D01*
X41618701Y37506050D01*
X41618698Y37506000D01*
X41618699Y37505960D01*
X41612449Y37165467D01*
X41612447Y37165437D01*
X41612448Y37165403D01*
X41606198Y36828800D01*
X41606197Y36828790D01*
X41606198Y36828762D01*
X41599948Y36494394D01*
X41599946Y36494374D01*
X41593697Y36160663D01*
X41593698Y36160645D01*
X41587448Y35825939D01*
X41587449Y35825934D01*
X41581199Y35488541D01*
X41581198Y35488534D01*
X41574951Y35146986D01*
X41574952Y35146980D01*
X41568702Y34799128D01*
X41568701Y34799125D01*
X41562454Y34443351D01*
X41562453Y34443339D01*
X41556208Y34077627D01*
X41556209Y34077623D01*
X41549959Y33699106D01*
X41549958Y33699106D01*
X41543712Y33305681D01*
X41543711Y33305677D01*
X41537468Y32894420D01*
X41537469Y32894405D01*
X41531219Y32461118D01*
X41531218Y32461111D01*
X41524975Y32002682D01*
X41524976Y32002669D01*
X41518726Y31513205D01*
X41518725Y31513201D01*
X41512479Y30987645D01*
X41506234Y30418740D01*
X41499985Y29796986D01*
X41498828Y29773573D01*
X41498828Y29773512D01*
X41498824Y29773492D01*
X41498823Y29773459D01*
X41495465Y29753559D01*
X41491006Y29727091D01*
X41490995Y29727060D01*
X41490992Y29727039D01*
X41484999Y29709209D01*
X41476018Y29682466D01*
X41476003Y29682439D01*
X41475996Y29682416D01*
X41466162Y29663586D01*
X41454233Y29640734D01*
X41454216Y29640712D01*
X41454204Y29640688D01*
X41440790Y29622611D01*
X41426188Y29602925D01*
X41426167Y29602905D01*
X41426152Y29602884D01*
X41411266Y29588296D01*
X41392573Y29569967D01*
X41392546Y29569949D01*
X41392531Y29569933D01*
X41377586Y29559303D01*
X41354218Y29542674D01*
X41354187Y29542660D01*
X41354171Y29542647D01*
X41338834Y29535026D01*
X41312064Y29521717D01*
X41312029Y29521707D01*
X41312013Y29521698D01*
X41294442Y29516184D01*
X41267152Y29507613D01*
X41267124Y29507609D01*
X41267099Y29507601D01*
X41246019Y29504480D01*
X41220585Y29500708D01*
X41220542Y29500707D01*
X41220531Y29500705D01*
X41220495Y29500706D01*
X41197039Y29500016D01*
X40563900Y29506265D01*
X40563771Y29506272D01*
X40563621Y29506267D01*
X39985048Y29512518D01*
X39984911Y29512525D01*
X39984773Y29512521D01*
X39451635Y29518771D01*
X39451503Y29518778D01*
X39451364Y29518774D01*
X38956305Y29525024D01*
X38956179Y29525031D01*
X38956042Y29525027D01*
X38493045Y29531277D01*
X38492912Y29531284D01*
X38492793Y29531281D01*
X38056879Y29537531D01*
X38056766Y29537538D01*
X38056640Y29537534D01*
X37643632Y29543784D01*
X37643513Y29543791D01*
X37643409Y29543788D01*
X37249757Y29550038D01*
X37249658Y29550044D01*
X37249552Y29550041D01*
X36872203Y29556291D01*
X36872111Y29556297D01*
X36872017Y29556294D01*
X36508309Y29562544D01*
X36508224Y29562549D01*
X36508143Y29562547D01*
X36155722Y29568797D01*
X36155645Y29568802D01*
X36155579Y29568800D01*
X35812332Y29575050D01*
X35812275Y29575054D01*
X35812214Y29575052D01*
X35476219Y29581302D01*
X35476169Y29581305D01*
X35476126Y29581304D01*
X35145602Y29587554D01*
X35145572Y29587556D01*
X35145537Y29587555D01*
X34821530Y29593753D01*
X28999678Y29600000D01*
X23175748Y29606250D01*
X23173014Y29606361D01*
X23170300Y29606306D01*
X22845418Y29612555D01*
X22845397Y29612557D01*
X22518127Y29618804D01*
X22518111Y29618803D01*
X22186602Y29625052D01*
X22186598Y29625051D01*
X21849186Y29631299D01*
X21504017Y29637547D01*
X21504009Y29637546D01*
X21149031Y29643793D01*
X20781992Y29650041D01*
X20400128Y29656291D01*
X20001182Y29662535D01*
X20001173Y29662534D01*
X19580860Y29668784D01*
X19136195Y29675028D01*
X19136186Y29675027D01*
X18661417Y29681277D01*
X18151949Y29687521D01*
X18151935Y29687520D01*
X17599970Y29693767D01*
X16996892Y29700017D01*
X16973477Y29701181D01*
X16973423Y29701181D01*
X16973406Y29701185D01*
X16973365Y29701186D01*
X16949550Y29705212D01*
X16927004Y29709017D01*
X16926977Y29709027D01*
X16926948Y29709031D01*
X16905427Y29716272D01*
X16882383Y29724019D01*
X16882356Y29724034D01*
X16882330Y29724042D01*
X16862949Y29734172D01*
X16840658Y29745816D01*
X16840634Y29745835D01*
X16840609Y29745847D01*
X16821668Y29759912D01*
X16802857Y29773872D01*
X16802838Y29773892D01*
X16802813Y29773910D01*
X16787559Y29789484D01*
X16769909Y29807497D01*
X16769893Y29807520D01*
X16769872Y29807541D01*
X16756049Y29826988D01*
X16742628Y29845860D01*
X16742616Y29845886D01*
X16742598Y29845910D01*
X16731287Y29868690D01*
X16721684Y29888021D01*
X16721677Y29888045D01*
X16721662Y29888074D01*
X16714284Y29911610D01*
X16707593Y29932937D01*
X16707589Y29932967D01*
X16707580Y29932994D01*
X16704146Y29956236D01*
X16700702Y29979506D01*
X16700701Y29979545D01*
X16700698Y29979564D01*
X16700699Y29979623D01*
X16700017Y30003052D01*
X16706266Y30617460D01*
X16706274Y30617604D01*
X16706269Y30617748D01*
X16712519Y31179186D01*
X16712526Y31179325D01*
X16712522Y31179471D01*
X16718772Y31696802D01*
X16718779Y31696936D01*
X16718775Y31697081D01*
X16725025Y32177447D01*
X16725033Y32177587D01*
X16725029Y32177718D01*
X16731279Y32626954D01*
X16731287Y32627088D01*
X16731283Y32627214D01*
X16737533Y33050155D01*
X16737540Y33050269D01*
X16737536Y33050400D01*
X16743786Y33451101D01*
X16743793Y33451221D01*
X16743790Y33451331D01*
X16750040Y33833232D01*
X16750047Y33833345D01*
X16750044Y33833445D01*
X16756294Y34199511D01*
X16756300Y34199603D01*
X16756297Y34199704D01*
X16762547Y34552520D01*
X16762552Y34552605D01*
X16762550Y34552690D01*
X16768800Y34894540D01*
X16768805Y34894617D01*
X16768803Y34894686D01*
X16775053Y35227620D01*
X16775057Y35227677D01*
X16775055Y35227742D01*
X16781305Y35553622D01*
X16781308Y35553672D01*
X16781307Y35553717D01*
X16787557Y35874272D01*
X16787559Y35874302D01*
X16787558Y35874340D01*
X16793808Y36191198D01*
X16793810Y36191221D01*
X16793809Y36191239D01*
X16800059Y36505957D01*
X16800060Y36505959D01*
X16800059Y36505968D01*
X16806309Y36820072D01*
X16806310Y36820080D01*
X16812559Y37135015D01*
X16812558Y37135018D01*
X16818808Y37452474D01*
X16818809Y37452485D01*
X16825056Y37773794D01*
X16825055Y37773795D01*
X16831303Y38100874D01*
X16831302Y38100888D01*
X16837550Y38435485D01*
X16837549Y38435488D01*
X16843799Y38779748D01*
X16843800Y38779751D01*
X16850046Y39135523D01*
X16850047Y39135533D01*
X16856290Y39505207D01*
X16856289Y39505214D01*
X16862536Y39892063D01*
X16862535Y39892066D01*
X16868782Y40299149D01*
X16868781Y40299151D01*
X16875031Y40730575D01*
X16875032Y40730591D01*
X16881275Y41190092D01*
X16881274Y41190097D01*
X16887521Y41684029D01*
X16887520Y41684038D01*
X16893770Y42219155D01*
X16893771Y42219158D01*
X16900017Y42803208D01*
X16901188Y42826598D01*
X16901188Y42826673D01*
X16901193Y42826697D01*
X16901194Y42826734D01*
X16904897Y42848597D01*
X16909040Y42873089D01*
X16909050Y42873117D01*
X16909055Y42873149D01*
X16916851Y42896297D01*
X16924056Y42917705D01*
X16924070Y42917730D01*
X16924080Y42917762D01*
X16934974Y42938589D01*
X16945866Y42959424D01*
X16945886Y42959450D01*
X16945899Y42959476D01*
X16959373Y42977609D01*
X16973934Y42997215D01*
X16973957Y42997236D01*
X16973975Y42997262D01*
X16991879Y43014786D01*
X17007570Y43030152D01*
X17007593Y43030167D01*
X17007617Y43030192D01*
X17028270Y43044861D01*
X17045942Y43057421D01*
X17045969Y43057434D01*
X17045995Y43057453D01*
X17067845Y43068292D01*
X17088109Y43078352D01*
X17088138Y43078361D01*
X17088166Y43078375D01*
X17109264Y43084981D01*
X17133030Y43092429D01*
X17133065Y43092434D01*
X17133090Y43092442D01*
X17156769Y43095933D01*
X17179601Y43099304D01*
X17179635Y43099304D01*
X17179662Y43099309D01*
X17179745Y43099308D01*
X17203147Y43099982D01*
X17798825Y43093733D01*
X17798971Y43093725D01*
X17799123Y43093730D01*
X18343428Y43087480D01*
X18343568Y43087472D01*
X18343721Y43087477D01*
X18845246Y43081227D01*
X18845394Y43081219D01*
X18845534Y43081223D01*
X19311206Y43074973D01*
X19311348Y43074965D01*
X19311485Y43074969D01*
X19746961Y43068719D01*
X19747096Y43068711D01*
X19747229Y43068715D01*
X20157198Y43062465D01*
X20157326Y43062458D01*
X20157452Y43062461D01*
X20545842Y43056211D01*
X20545962Y43056204D01*
X20546080Y43056207D01*
X20916231Y43049957D01*
X20916344Y43049950D01*
X20916450Y43049953D01*
X21271235Y43043703D01*
X21271328Y43043697D01*
X21271434Y43043700D01*
X21613359Y43037450D01*
X21613444Y43037445D01*
X21613535Y43037447D01*
X21944813Y43031197D01*
X21944891Y43031192D01*
X21944965Y43031194D01*
X22267582Y43024944D01*
X22267652Y43024939D01*
X22267708Y43024941D01*
X22583473Y43018691D01*
X22583523Y43018688D01*
X22583572Y43018689D01*
X22894159Y43012439D01*
X22894189Y43012437D01*
X22894230Y43012438D01*
X23201214Y43006188D01*
X23201237Y43006186D01*
X23201255Y43006187D01*
X23503156Y42999998D01*
X34804445Y42993750D01*
X34807435Y42993630D01*
X34810423Y42993687D01*
X35115559Y42987437D01*
X35422998Y42981188D01*
X35734304Y42974940D01*
X35734306Y42974939D01*
X36051107Y42968692D01*
X36051121Y42968691D01*
X36375155Y42962444D01*
X36708167Y42956200D01*
X36708181Y42956201D01*
X37052853Y42949950D01*
X37052869Y42949949D01*
X37411008Y42943703D01*
X37785564Y42937457D01*
X38179683Y42931211D01*
X38597083Y42924965D01*
X39042184Y42918719D01*
X39520318Y42912473D01*
X40037696Y42906231D01*
X40603314Y42899982D01*
X40626706Y42898803D01*
X40626775Y42898803D01*
X40626797Y42898799D01*
X40626840Y42898797D01*
X40649745Y42894909D01*
X40673188Y42890935D01*
X40673218Y42890924D01*
X40673252Y42890919D01*
X40698785Y42882310D01*
X40717799Y42875904D01*
X40717824Y42875890D01*
X40717859Y42875879D01*
X40743700Y42862351D01*
X40759510Y42854079D01*
X40759531Y42854063D01*
X40759566Y42854045D01*
X40782673Y42836863D01*
X40797292Y42825998D01*
X40797309Y42825980D01*
X40797342Y42825956D01*
X40815848Y42807036D01*
X40830218Y42792352D01*
X40830236Y42792326D01*
X40830260Y42792302D01*
X40845578Y42770720D01*
X40857474Y42753970D01*
X40857485Y42753946D01*
X40857508Y42753915D01*
X40869752Y42729213D01*
X40878390Y42711796D01*
X40878398Y42711770D01*
X40878415Y42711736D01*
X40886183Y42686896D01*
X40892451Y42666871D01*
X40892455Y42666840D01*
X40892466Y42666807D01*
X40896283Y42640850D01*
X40899311Y42620297D01*
X40899312Y42620259D01*
X40899316Y42620233D01*
X40899315Y42620152D01*
X40899981Y42596751D01*
X40893732Y42019804D01*
X40893724Y42019656D01*
X40893729Y42019497D01*
X40887479Y41492326D01*
X40887471Y41492170D01*
X40887475Y41492022D01*
X40881225Y41006302D01*
X40881217Y41006153D01*
X40881221Y41006005D01*
X40874971Y40555028D01*
X40874963Y40554885D01*
X40874967Y40554739D01*
X40868717Y40133023D01*
X40868709Y40132887D01*
X40868713Y40132746D01*
X40862463Y39735751D01*
X40862455Y39735622D01*
X40862459Y39735488D01*
X40856209Y39359407D01*
X40856201Y39359273D01*
X40856204Y39359161D01*
X40849954Y39000762D01*
X40849947Y39000648D01*
X40849950Y39000534D01*
X40843700Y38657030D01*
X40843694Y38656937D01*
X40843697Y38656825D01*
X40837447Y38325792D01*
X40837441Y38325694D01*
X40837443Y38325610D01*
X40831193Y38004904D01*
X40831188Y38004826D01*
X40831190Y38004746D01*
X40824940Y37692444D01*
X40824935Y37692374D01*
X40824937Y37692314D01*
X40818687Y37386664D01*
X40818684Y37386614D01*
X40818685Y37386561D01*
X40812435Y37085943D01*
X40812433Y37085913D01*
X40812434Y37085870D01*
X40806184Y36788758D01*
X40806182Y36788735D01*
X40806183Y36788715D01*
X40799933Y36493647D01*
X40799931Y36493629D01*
X40793682Y36199214D01*
X40793683Y36199197D01*
X40787433Y35903934D01*
X40781184Y35606465D01*
X40781183Y35606449D01*
X40774937Y35305404D01*
X40774938Y35305385D01*
X40768688Y34998791D01*
X40768686Y34998773D01*
X40762443Y34685502D01*
X40762444Y34685483D01*
X40756194Y34363006D01*
X40756193Y34362992D01*
X40749950Y34030005D01*
X40743701Y33683408D01*
X40743700Y33683407D01*
X40737459Y33321440D01*
X40737460Y33321425D01*
X40731210Y32940031D01*
X40731209Y32940026D01*
X40724964Y32536401D01*
X40724963Y32536397D01*
X40718722Y32106320D01*
X40718723Y32106303D01*
X40712474Y31643825D01*
X40706227Y31143145D01*
X40706226Y31143131D01*
X40699979Y30596571D01*
X40698792Y30573203D01*
X40698792Y30573115D01*
X40698787Y30573087D01*
X40698785Y30573045D01*
X40695379Y30553028D01*
X40690908Y30526704D01*
X40690895Y30526666D01*
X40690890Y30526636D01*
X40683459Y30504627D01*
X40675860Y30482099D01*
X40675845Y30482072D01*
X40675833Y30482034D01*
X40663817Y30459103D01*
X40654020Y30440396D01*
X40654001Y30440371D01*
X40653983Y30440336D01*
X40638892Y30420058D01*
X40625925Y30402624D01*
X40625900Y30402601D01*
X40625879Y30402571D01*
X40608818Y30385897D01*
X40592267Y30369711D01*
X40592237Y30369691D01*
X40592213Y30369666D01*
X40572856Y30355939D01*
X40553875Y30342469D01*
X40553844Y30342454D01*
X40553815Y30342433D01*
X40532617Y30331936D01*
X40511694Y30321568D01*
X40511660Y30321558D01*
X40511629Y30321542D01*
X40488936Y30314455D01*
X40466763Y30307523D01*
X40466729Y30307519D01*
X40466694Y30307507D01*
X40442198Y30303914D01*
X40420187Y30300680D01*
X40420142Y30300679D01*
X40420117Y30300675D01*
X40420040Y30300676D01*
X40396640Y30300019D01*
X39838424Y30306269D01*
X39838261Y30306278D01*
X39838107Y30306273D01*
X39328070Y30312523D01*
X39327913Y30312532D01*
X39327757Y30312527D01*
X38857842Y30318777D01*
X38857691Y30318785D01*
X38857535Y30318781D01*
X38421252Y30325031D01*
X38421108Y30325039D01*
X38420954Y30325035D01*
X38012997Y30331285D01*
X38012847Y30331294D01*
X38012711Y30331290D01*
X37628689Y30337540D01*
X37628560Y30337548D01*
X37628418Y30337544D01*
X37264645Y30343794D01*
X37264511Y30343802D01*
X37264391Y30343799D01*
X36917741Y30350049D01*
X36917627Y30350056D01*
X36917506Y30350053D01*
X36585284Y30356303D01*
X36585178Y30356310D01*
X36585071Y30356307D01*
X36264930Y30362557D01*
X36264832Y30362563D01*
X36264741Y30362561D01*
X35954607Y30368811D01*
X35954530Y30368816D01*
X35954445Y30368814D01*
X35652456Y30375064D01*
X35652386Y30375069D01*
X35652321Y30375067D01*
X35356787Y30381317D01*
X35356737Y30381321D01*
X35356680Y30381319D01*
X35066031Y30387569D01*
X35065988Y30387572D01*
X35065955Y30387571D01*
X34778716Y30393821D01*
X34778693Y30393823D01*
X34778670Y30393822D01*
X34496633Y30400002D01*
X23215206Y30406250D01*
X23212005Y30406378D01*
X23208803Y30406322D01*
X22923463Y30412571D01*
X22636001Y30418820D01*
X22635994Y30418819D01*
X22344955Y30425067D01*
X22048819Y30431315D01*
X22048818Y30431314D01*
X21745962Y30437561D01*
X21745949Y30437560D01*
X21434563Y30443807D01*
X21434561Y30443806D01*
X21112673Y30450052D01*
X20777810Y30456303D01*
X20428161Y30462545D01*
X20428154Y30462544D01*
X20060021Y30468790D01*
X20060016Y30468789D01*
X19669873Y30475039D01*
X19254499Y30481281D01*
X19254490Y30481280D01*
X18807997Y30487526D01*
X18324607Y30493772D01*
X17796451Y30500022D01*
X17773056Y30501219D01*
X17773001Y30501219D01*
X17772983Y30501223D01*
X17772926Y30501225D01*
X17747467Y30505567D01*
X17726593Y30509121D01*
X17726560Y30509133D01*
X17726520Y30509139D01*
X17702481Y30517266D01*
X17681993Y30524186D01*
X17681963Y30524202D01*
X17681924Y30524215D01*
X17660038Y30535695D01*
X17640299Y30546042D01*
X17640270Y30546064D01*
X17640235Y30546082D01*
X17619935Y30561202D01*
X17602538Y30574151D01*
X17602515Y30574176D01*
X17602481Y30574200D01*
X17585620Y30591466D01*
X17569638Y30607822D01*
X17569616Y30607855D01*
X17569590Y30607880D01*
X17556183Y30626800D01*
X17542411Y30646224D01*
X17542395Y30646258D01*
X17542372Y30646289D01*
X17531802Y30667656D01*
X17521526Y30688414D01*
X17521515Y30688451D01*
X17521498Y30688484D01*
X17514837Y30709842D01*
X17507498Y30733351D01*
X17507493Y30733392D01*
X17507482Y30733424D01*
X17504283Y30755299D01*
X17500673Y30779929D01*
X17500672Y30779980D01*
X17500668Y30780004D01*
X17500669Y30780078D01*
X17500021Y30803476D01*
X17506270Y31342961D01*
X17506279Y31343126D01*
X17506274Y31343289D01*
X17512524Y31836194D01*
X17512533Y31836353D01*
X17512528Y31836519D01*
X17518778Y32290627D01*
X17518787Y32290792D01*
X17518783Y32290945D01*
X17525033Y32712534D01*
X17525042Y32712692D01*
X17525038Y32712842D01*
X17531288Y33107039D01*
X17531297Y33107189D01*
X17531293Y33107335D01*
X17537543Y33478384D01*
X17537551Y33478514D01*
X17537547Y33478665D01*
X17543797Y33830127D01*
X17543805Y33830262D01*
X17543802Y33830391D01*
X17550052Y34165292D01*
X17550060Y34165419D01*
X17550057Y34165535D01*
X17556307Y34486475D01*
X17556314Y34486581D01*
X17556311Y34486696D01*
X17562561Y34795946D01*
X17562567Y34796044D01*
X17562565Y34796142D01*
X17568815Y35095704D01*
X17568821Y35095794D01*
X17568819Y35095873D01*
X17575069Y35387545D01*
X17575074Y35387615D01*
X17575072Y35387686D01*
X17581322Y35673106D01*
X17581326Y35673156D01*
X17581324Y35673216D01*
X17587574Y35953896D01*
X17587577Y35953939D01*
X17587576Y35953976D01*
X17593826Y36231341D01*
X17593828Y36231364D01*
X17593827Y36231389D01*
X17600077Y36506806D01*
X17600925Y36520471D01*
X17600925Y36523538D01*
X17601238Y36525513D01*
X17601536Y36530317D01*
X17605138Y36550133D01*
X17608289Y36570034D01*
X17609344Y36573278D01*
X17609953Y36576634D01*
X17616610Y36595640D01*
X17622836Y36614805D01*
X17624386Y36617845D01*
X17625512Y36621063D01*
X17635060Y36638795D01*
X17644208Y36656750D01*
X17646213Y36659508D01*
X17647830Y36662513D01*
X17660038Y36678537D01*
X17671878Y36694834D01*
X17674291Y36697246D01*
X17676357Y36699959D01*
X17690909Y36713864D01*
X17705166Y36728122D01*
X17707930Y36730129D01*
X17710392Y36732483D01*
X17726930Y36743934D01*
X17743250Y36755792D01*
X17746294Y36757342D01*
X17749094Y36759282D01*
X17767228Y36768008D01*
X17785195Y36777164D01*
X17788442Y36778219D01*
X17791513Y36779697D01*
X17810804Y36785484D01*
X17829966Y36791711D01*
X17833334Y36792244D01*
X17836602Y36793225D01*
X17856573Y36795924D01*
X17876462Y36799075D01*
X17881271Y36799263D01*
X17883253Y36799532D01*
X17886321Y36799462D01*
X17900000Y36800000D01*
X18800000Y36800000D01*
X18823538Y36799075D01*
X18870034Y36791711D01*
X18914805Y36777164D01*
X18956750Y36755792D01*
X18994834Y36728122D01*
X19028122Y36694834D01*
X19055792Y36656750D01*
X19077164Y36614805D01*
X19091711Y36570034D01*
X19099075Y36523538D01*
X19100000Y36500000D01*
X19099075Y36476462D01*
X19091711Y36429966D01*
X19077164Y36385195D01*
X19055792Y36343250D01*
X19028122Y36305166D01*
X18994834Y36271878D01*
X18956750Y36244208D01*
X18914805Y36222836D01*
X18870034Y36208289D01*
X18823538Y36200925D01*
X18800000Y36200000D01*
X18193273Y36200000D01*
X18187426Y35940544D01*
X18187426Y35940538D01*
X18181176Y35659859D01*
X18181176Y35659849D01*
X18174929Y35374552D01*
X18168685Y35083198D01*
X18168685Y35083188D01*
X18162437Y34783686D01*
X18156189Y34474572D01*
X18156189Y34474565D01*
X18149948Y34154103D01*
X18149948Y34154096D01*
X18143703Y33819462D01*
X18143703Y33819459D01*
X18137453Y33467997D01*
X18137452Y33467979D01*
X18131212Y33097527D01*
X18124967Y32703643D01*
X18124967Y32703640D01*
X18118722Y32282377D01*
X18118722Y32282369D01*
X18112472Y31828261D01*
X18112472Y31828259D01*
X18106229Y31335855D01*
X18103456Y31096432D01*
X18331707Y31093730D01*
X18331870Y31093722D01*
X18332033Y31093726D01*
X18815749Y31087476D01*
X18815906Y31087468D01*
X18816069Y31087472D01*
X19262882Y31081222D01*
X19263044Y31081214D01*
X19263193Y31081217D01*
X19679185Y31074967D01*
X19679326Y31074960D01*
X19679483Y31074963D01*
X20069626Y31068713D01*
X20069773Y31068705D01*
X20069910Y31068708D01*
X20438332Y31062458D01*
X20438470Y31062451D01*
X20438597Y31062453D01*
X20788763Y31056203D01*
X20788880Y31056197D01*
X20789008Y31056199D01*
X21123872Y31049948D01*
X21123980Y31049942D01*
X21124093Y31049944D01*
X21446201Y31043694D01*
X21446301Y31043689D01*
X21446397Y31043690D01*
X21757982Y31037440D01*
X21758074Y31037435D01*
X21758151Y31037436D01*
X22061190Y31031186D01*
X22061262Y31031182D01*
X22061331Y31031183D01*
X22357609Y31024933D01*
X22357660Y31024930D01*
X22357720Y31024931D01*
X22648871Y31018681D01*
X22648915Y31018679D01*
X22648952Y31018679D01*
X22936501Y31012429D01*
X22936525Y31012428D01*
X22936550Y31012428D01*
X23218734Y31006249D01*
X34500166Y31000000D01*
X34503368Y30999873D01*
X34506572Y30999928D01*
X34791813Y30993678D01*
X35079007Y30987429D01*
X35369579Y30981181D01*
X35369585Y30981181D01*
X35665007Y30974933D01*
X35966860Y30968686D01*
X35966867Y30968686D01*
X36276831Y30962439D01*
X36596783Y30956193D01*
X36928792Y30949947D01*
X36928797Y30949947D01*
X37274953Y30943706D01*
X37638725Y30937456D01*
X37638735Y30937456D01*
X38022189Y30931215D01*
X38430145Y30924965D01*
X38430152Y30924965D01*
X38866129Y30918719D01*
X38866131Y30918719D01*
X39335736Y30912473D01*
X39845459Y30906227D01*
X40103447Y30903339D01*
X40106270Y31150317D01*
X40106277Y31150465D01*
X40106273Y31150631D01*
X40112523Y31651480D01*
X40112531Y31651635D01*
X40112527Y31651790D01*
X40118777Y32114409D01*
X40118785Y32114570D01*
X40118782Y32114709D01*
X40125032Y32545395D01*
X40125039Y32545536D01*
X40125036Y32545684D01*
X40131286Y32949588D01*
X40131293Y32949721D01*
X40131290Y32949862D01*
X40137540Y33331257D01*
X40137547Y33331394D01*
X40137545Y33331513D01*
X40143795Y33693988D01*
X40143801Y33694105D01*
X40143799Y33694225D01*
X40150049Y34040839D01*
X40150055Y34040947D01*
X40150053Y34041053D01*
X40156303Y34374443D01*
X40156308Y34374530D01*
X40156306Y34374633D01*
X40162556Y34697109D01*
X40162561Y34697202D01*
X40162560Y34697274D01*
X40168810Y35010884D01*
X40168813Y35010943D01*
X40168812Y35011020D01*
X40175062Y35317613D01*
X40175065Y35317677D01*
X40175065Y35317721D01*
X40181315Y35618988D01*
X40181316Y35619019D01*
X40181316Y35619066D01*
X40187566Y35916584D01*
X40187567Y35916608D01*
X40187567Y35916632D01*
X40193817Y36211895D01*
X40193818Y36211912D01*
X40193818Y36211913D01*
X40200067Y36506334D01*
X40200067Y36506353D01*
X40206316Y36801375D01*
X40206316Y36801377D01*
X40212566Y37098488D01*
X40212566Y37098501D01*
X40218815Y37399033D01*
X40218815Y37399035D01*
X40225060Y37704440D01*
X40225060Y37704449D01*
X40231310Y38016752D01*
X40231310Y38016753D01*
X40237553Y38337106D01*
X40237553Y38337118D01*
X40243803Y38668151D01*
X40243804Y38668169D01*
X40250049Y39011395D01*
X40256291Y39369359D01*
X40256291Y39369377D01*
X40262541Y39745458D01*
X40262541Y39745461D01*
X40268787Y40142190D01*
X40268787Y40142192D01*
X40275032Y40563621D01*
X40281276Y41014139D01*
X40287521Y41499436D01*
X40287521Y41499439D01*
X40293771Y42026609D01*
X40293771Y42026617D01*
X40296768Y42303331D01*
X40031068Y42306267D01*
X40030909Y42306274D01*
X40030763Y42306271D01*
X39512779Y42312521D01*
X39512626Y42312528D01*
X39512480Y42312525D01*
X39034055Y42318775D01*
X39033909Y42318782D01*
X39033765Y42318779D01*
X38588385Y42325029D01*
X38588245Y42325036D01*
X38588105Y42325033D01*
X38170440Y42331283D01*
X38170308Y42331290D01*
X38170176Y42331287D01*
X37775808Y42337537D01*
X37775684Y42337543D01*
X37775560Y42337541D01*
X37400775Y42343791D01*
X37400659Y42343797D01*
X37400545Y42343795D01*
X37042182Y42350045D01*
X37042086Y42350050D01*
X37041973Y42350048D01*
X36697301Y42356299D01*
X36697201Y42356304D01*
X36697118Y42356303D01*
X36363750Y42362553D01*
X36363670Y42362557D01*
X36363590Y42362556D01*
X36039408Y42368806D01*
X36039349Y42368809D01*
X36039276Y42368808D01*
X35722368Y42375058D01*
X35722316Y42375061D01*
X35722263Y42375060D01*
X35410881Y42381310D01*
X35410837Y42381312D01*
X35410805Y42381312D01*
X35103318Y42387562D01*
X35103293Y42387563D01*
X35103271Y42387563D01*
X34801130Y42393751D01*
X23499834Y42400000D01*
X23496845Y42400119D01*
X23493852Y42400063D01*
X23189005Y42406312D01*
X23189001Y42406312D01*
X22882087Y42412561D01*
X22571600Y42418809D01*
X22571599Y42418809D01*
X22255974Y42425056D01*
X22255961Y42425056D01*
X21933497Y42431303D01*
X21933495Y42431303D01*
X21602393Y42437550D01*
X21260468Y42443800D01*
X21260456Y42443800D01*
X20906105Y42450043D01*
X20906101Y42450043D01*
X20536188Y42456288D01*
X20536188Y42456289D01*
X20148052Y42462535D01*
X19738351Y42468781D01*
X19303154Y42475026D01*
X19303154Y42475027D01*
X18837774Y42481273D01*
X18837770Y42481273D01*
X18336245Y42487523D01*
X17792531Y42493767D01*
X17496776Y42496869D01*
X17493733Y42212443D01*
X17493726Y42212299D01*
X17493730Y42212147D01*
X17487480Y41677031D01*
X17487473Y41676880D01*
X17487476Y41676741D01*
X17481226Y41182510D01*
X17481219Y41182365D01*
X17481222Y41182229D01*
X17474972Y40722154D01*
X17474966Y40722028D01*
X17474969Y40721883D01*
X17468719Y40290460D01*
X17468712Y40290329D01*
X17468715Y40290203D01*
X17462465Y39882861D01*
X17462459Y39882738D01*
X17462461Y39882621D01*
X17456211Y39495527D01*
X17456205Y39495411D01*
X17456207Y39495305D01*
X17449957Y39125190D01*
X17449952Y39125095D01*
X17449954Y39124989D01*
X17443704Y38769035D01*
X17443700Y38768948D01*
X17443701Y38768856D01*
X17437451Y38424597D01*
X17437447Y38424517D01*
X17437448Y38424443D01*
X17431198Y38089688D01*
X17431194Y38089616D01*
X17431195Y38089559D01*
X17424945Y37762337D01*
X17424942Y37762285D01*
X17424943Y37762235D01*
X17418693Y37440738D01*
X17418692Y37440706D01*
X17418692Y37440664D01*
X17412442Y37123207D01*
X17412441Y37123183D01*
X17412441Y37123162D01*
X17406191Y36808153D01*
X17406191Y36808148D01*
X17406191Y36808136D01*
X17399941Y36494032D01*
X17399941Y36494027D01*
X17393692Y36179372D01*
X17393692Y36179366D01*
X17387442Y35862507D01*
X17387442Y35862499D01*
X17381195Y35542120D01*
X17381195Y35542116D01*
X17374945Y35216236D01*
X17374945Y35216229D01*
X17368700Y34883579D01*
X17368700Y34883572D01*
X17362450Y34541722D01*
X17356203Y34189077D01*
X17356203Y34189071D01*
X17349960Y33823424D01*
X17349960Y33823414D01*
X17343714Y33441749D01*
X17343714Y33441743D01*
X17337464Y33041043D01*
X17337464Y33041028D01*
X17331221Y32618612D01*
X17331221Y32618608D01*
X17324975Y32169648D01*
X17324975Y32169641D01*
X17318725Y31689275D01*
X17318725Y31689266D01*
X17312478Y31172223D01*
X17312478Y31172219D01*
X17306232Y30611133D01*
X17303036Y30296877D01*
X17606187Y30293735D01*
X17606330Y30293728D01*
X17606474Y30293732D01*
X18158725Y30287482D01*
X18158875Y30287475D01*
X18159006Y30287478D01*
X18669042Y30281228D01*
X18669173Y30281222D01*
X18669315Y30281225D01*
X19144084Y30274975D01*
X19144221Y30274968D01*
X19144346Y30274971D01*
X19589531Y30268721D01*
X19589648Y30268715D01*
X19589780Y30268718D01*
X20010094Y30262468D01*
X20010217Y30262462D01*
X20010328Y30262464D01*
X20409731Y30256214D01*
X20409833Y30256209D01*
X20409946Y30256211D01*
X20791811Y30249961D01*
X20791906Y30249956D01*
X20792008Y30249958D01*
X21159243Y30243707D01*
X21159330Y30243703D01*
X21159416Y30243704D01*
X21514567Y30237454D01*
X21514647Y30237450D01*
X21514717Y30237451D01*
X21860043Y30231201D01*
X21860102Y30231198D01*
X21860168Y30231199D01*
X22197706Y30224949D01*
X22197758Y30224947D01*
X22197805Y30224947D01*
X22529417Y30218697D01*
X22529462Y30218695D01*
X22529489Y30218695D01*
X22856914Y30212445D01*
X22856926Y30212445D01*
X22856958Y30212445D01*
X23179134Y30206248D01*
X29000322Y30200000D01*
X34824866Y30193750D01*
X34827579Y30193641D01*
X34830282Y30193695D01*
X35157012Y30187445D01*
X35157018Y30187445D01*
X35487470Y30181196D01*
X35823373Y30174948D01*
X35823376Y30174948D01*
X36166503Y30168700D01*
X36518782Y30162453D01*
X36882326Y30156206D01*
X36882328Y30156206D01*
X37259488Y30149959D01*
X37259494Y30149959D01*
X37652710Y30143716D01*
X38065719Y30137466D01*
X38065729Y30137466D01*
X38501143Y30131223D01*
X38964141Y30124973D01*
X38964148Y30124973D01*
X39458939Y30118726D01*
X39458943Y30118726D01*
X39991806Y30112479D01*
X40570102Y30106232D01*
X40903029Y30102947D01*
X40906265Y30424825D01*
X40906271Y30424965D01*
X40906268Y30425103D01*
X40912518Y30994487D01*
X40912524Y30994622D01*
X40912521Y30994760D01*
X40918771Y31520601D01*
X40918777Y31520731D01*
X40918774Y31520866D01*
X40925024Y32010329D01*
X40925031Y32010465D01*
X40925028Y32010584D01*
X40931278Y32469530D01*
X40931284Y32469646D01*
X40931281Y32469772D01*
X40937531Y32903059D01*
X40937537Y32903181D01*
X40937535Y32903286D01*
X40943785Y33314998D01*
X40943790Y33315100D01*
X40943788Y33315207D01*
X40950038Y33708822D01*
X40950043Y33708916D01*
X40950041Y33709011D01*
X40956291Y34087529D01*
X40956295Y34087616D01*
X40956294Y34087698D01*
X40962544Y34453741D01*
X40962547Y34453807D01*
X40962546Y34453886D01*
X40968796Y34809785D01*
X40968799Y34809844D01*
X40968798Y34809906D01*
X40975048Y35157758D01*
X40975050Y35157810D01*
X40975050Y35157855D01*
X40981300Y35499583D01*
X40981301Y35499615D01*
X40981301Y35499653D01*
X40987551Y35837046D01*
X40987552Y35837071D01*
X40987552Y35837090D01*
X40993802Y36171845D01*
X40993803Y36171863D01*
X41000052Y36505586D01*
X41000052Y36505607D01*
X41006302Y36839976D01*
X41006303Y36839993D01*
X41012552Y37176541D01*
X41012552Y37176544D01*
X41018799Y37516873D01*
X41018799Y37516883D01*
X41025049Y37862992D01*
X41031294Y38216288D01*
X41031294Y38216303D01*
X41037544Y38579297D01*
X41037544Y38579313D01*
X41043789Y38953589D01*
X41050039Y39342186D01*
X41050039Y39342187D01*
X41056282Y39747155D01*
X41056282Y39747172D01*
X41062532Y40172490D01*
X41062532Y40172495D01*
X41068779Y40621147D01*
X41068779Y40621152D01*
X41075026Y41097660D01*
X41075026Y41097662D01*
X41081269Y41606877D01*
X41081269Y41606897D01*
X41087519Y42155840D01*
X41087520Y42155860D01*
X41093764Y42751002D01*
X41093764Y42751006D01*
X41097138Y43102939D01*
X40756533Y43106263D01*
X40756394Y43106269D01*
X40756263Y43106266D01*
X40169745Y43112517D01*
X40169612Y43112523D01*
X40169481Y43112520D01*
X39627833Y43118769D01*
X39627705Y43118775D01*
X39627575Y43118772D01*
X39123418Y43125022D01*
X39123296Y43125028D01*
X39123171Y43125025D01*
X38650465Y43131275D01*
X38650350Y43131281D01*
X38650230Y43131278D01*
X38203970Y43137528D01*
X38203849Y43137534D01*
X38203749Y43137532D01*
X37779727Y43143783D01*
X37779626Y43143788D01*
X37779525Y43143786D01*
X37374160Y43150035D01*
X37374066Y43150040D01*
X37373974Y43150038D01*
X36984176Y43156288D01*
X36984102Y43156292D01*
X36984012Y43156290D01*
X36607077Y43162541D01*
X36606998Y43162545D01*
X36606935Y43162544D01*
X36240465Y43168794D01*
X36240406Y43168797D01*
X36240347Y43168796D01*
X35882179Y43175046D01*
X35882140Y43175048D01*
X35882085Y43175047D01*
X35530242Y43181297D01*
X35530197Y43181299D01*
X35530173Y43181299D01*
X35182811Y43187549D01*
X35182799Y43187549D01*
X35182769Y43187549D01*
X34838140Y43193799D01*
X34838124Y43193800D01*
X34497213Y43200001D01*
X23155641Y43206250D01*
X23153016Y43206354D01*
X23150395Y43206299D01*
X22803981Y43212548D01*
X22453616Y43218796D01*
X22453604Y43218796D01*
X22097491Y43225044D01*
X22097489Y43225044D01*
X21733745Y43231292D01*
X21360346Y43237539D01*
X21360335Y43237539D01*
X20974843Y43243789D01*
X20974825Y43243790D01*
X20575301Y43250033D01*
X20575301Y43250034D01*
X20158359Y43256281D01*
X19720976Y43262527D01*
X19720956Y43262527D01*
X19259333Y43268774D01*
X18769062Y43275021D01*
X18244869Y43281268D01*
X17680120Y43287518D01*
X17680104Y43287518D01*
X17067812Y43293763D01*
X17067804Y43293763D01*
X16697144Y43297217D01*
X16693737Y42937885D01*
X16693731Y42937748D01*
X16693734Y42937623D01*
X16687484Y42333971D01*
X16687478Y42333839D01*
X16687481Y42333714D01*
X16681232Y41776261D01*
X16681226Y41776134D01*
X16681229Y41776010D01*
X16674978Y41257158D01*
X16674972Y41257037D01*
X16674975Y41256918D01*
X16668725Y40770452D01*
X16668720Y40770337D01*
X16668722Y40770223D01*
X16662472Y40310990D01*
X16662467Y40310882D01*
X16662469Y40310776D01*
X16656219Y39874445D01*
X16656214Y39874344D01*
X16656216Y39874247D01*
X16649966Y39457131D01*
X16649962Y39457050D01*
X16649964Y39456952D01*
X16643714Y39055872D01*
X16643710Y39055786D01*
X16643711Y39055713D01*
X16637461Y38667886D01*
X16637458Y38667820D01*
X16637459Y38667748D01*
X16631209Y38290706D01*
X16631206Y38290647D01*
X16631207Y38290590D01*
X16624957Y37922108D01*
X16624955Y37922056D01*
X16624955Y37922017D01*
X16618705Y37560058D01*
X16618704Y37560026D01*
X16618704Y37559991D01*
X16612454Y37202659D01*
X16612453Y37202634D01*
X16612453Y37202618D01*
X16606203Y36848118D01*
X16606203Y36848113D01*
X16606203Y36848101D01*
X16599953Y36494696D01*
X16599075Y36479298D01*
X16599075Y36476462D01*
X16598823Y36474867D01*
X16598612Y36471178D01*
X16594981Y36450611D01*
X16591711Y36429966D01*
X16590890Y36427437D01*
X16590427Y36424819D01*
X16583619Y36405060D01*
X16577164Y36385195D01*
X16575958Y36382828D01*
X16575091Y36380312D01*
X16565279Y36361869D01*
X16555792Y36343250D01*
X16554228Y36341097D01*
X16552980Y36338752D01*
X16540417Y36322088D01*
X16528122Y36305166D01*
X16526241Y36303285D01*
X16524641Y36301163D01*
X16509620Y36286664D01*
X16494834Y36271878D01*
X16492682Y36270315D01*
X16490770Y36268469D01*
X16473667Y36256499D01*
X16456750Y36244208D01*
X16454379Y36243000D01*
X16452203Y36241477D01*
X16433448Y36232336D01*
X16414805Y36222836D01*
X16412272Y36222013D01*
X16409886Y36220850D01*
X16389943Y36214758D01*
X16370034Y36208289D01*
X16367403Y36207873D01*
X16364865Y36207097D01*
X16344207Y36204199D01*
X16323538Y36200925D01*
X16319841Y36200780D01*
X16318246Y36200556D01*
X16315420Y36200606D01*
X16300000Y36200000D01*
X15306081Y36200000D01*
X15309205Y36112043D01*
X15320675Y35918377D01*
X15336731Y35724974D01*
X15357355Y35532033D01*
X15382537Y35339642D01*
X15412270Y35147867D01*
X15446526Y34956886D01*
X15485292Y34766770D01*
X15528550Y34577604D01*
X15576274Y34389504D01*
X15628428Y34202610D01*
X15684989Y34017010D01*
X15747050Y33829400D01*
X15753564Y33806762D01*
X15761175Y33760306D01*
X15761425Y33713232D01*
X15754308Y33666697D01*
X15739998Y33621850D01*
X15718849Y33579791D01*
X15691382Y33541561D01*
X15658272Y33508097D01*
X15620335Y33480225D01*
X15578504Y33458631D01*
X15533810Y33443846D01*
X15487354Y33436235D01*
X15440279Y33435985D01*
X15393744Y33443103D01*
X15348897Y33457412D01*
X15306839Y33478561D01*
X15268608Y33506028D01*
X15235144Y33539139D01*
X15207273Y33577076D01*
X15185679Y33618906D01*
X15177408Y33640963D01*
X15114237Y33831928D01*
X15113254Y33835346D01*
X15112088Y33838693D01*
X15053453Y34031099D01*
X15052555Y34034525D01*
X15051463Y34037915D01*
X14997398Y34231654D01*
X14996579Y34235110D01*
X14995571Y34238514D01*
X14946105Y34433478D01*
X14945366Y34436961D01*
X14944441Y34440380D01*
X14899602Y34636459D01*
X14898946Y34639959D01*
X14898102Y34643398D01*
X14857915Y34840485D01*
X14857343Y34843989D01*
X14856579Y34847457D01*
X14821067Y35045439D01*
X14820579Y35048954D01*
X14819896Y35052442D01*
X14789079Y35251209D01*
X14788675Y35254729D01*
X14788074Y35258236D01*
X14761968Y35457676D01*
X14761646Y35461216D01*
X14761130Y35464727D01*
X14739751Y35664728D01*
X14739512Y35668288D01*
X14739081Y35671795D01*
X14722439Y35872247D01*
X14722284Y35875807D01*
X14721936Y35879330D01*
X14710044Y36080120D01*
X14709974Y36083665D01*
X14709708Y36087209D01*
X14702569Y36288225D01*
X14702583Y36291776D01*
X14702401Y36295323D01*
X14700021Y36496450D01*
X14700667Y36519998D01*
X14700925Y36521762D01*
X14700925Y36523538D01*
X14704330Y36545031D01*
X14707481Y36566577D01*
X14708011Y36568273D01*
X14708289Y36570034D01*
X14715023Y36590756D01*
X14721497Y36611517D01*
X14722286Y36613111D01*
X14722836Y36614805D01*
X14732723Y36634208D01*
X14742371Y36653712D01*
X14743400Y36655163D01*
X14744208Y36656750D01*
X14757017Y36674378D01*
X14769589Y36692121D01*
X14770831Y36693392D01*
X14771878Y36694834D01*
X14787265Y36710220D01*
X14802480Y36725801D01*
X14803911Y36726866D01*
X14805166Y36728122D01*
X14822763Y36740906D01*
X14840234Y36753919D01*
X14841810Y36754745D01*
X14843250Y36755792D01*
X14862649Y36765676D01*
X14881923Y36775786D01*
X14883610Y36776356D01*
X14885195Y36777164D01*
X14905891Y36783888D01*
X14926519Y36790862D01*
X14928275Y36791161D01*
X14929966Y36791711D01*
X14951445Y36795112D01*
X14972925Y36798776D01*
X14974708Y36798797D01*
X14976462Y36799075D01*
X15000000Y36800000D01*
X16005259Y36800000D01*
X16006297Y36858711D01*
X16006298Y36858718D01*
X16012547Y37213145D01*
X16012546Y37213152D01*
X16018796Y37570483D01*
X16018797Y37570486D01*
X16025044Y37932273D01*
X16025043Y37932284D01*
X16031292Y38300649D01*
X16031291Y38300650D01*
X16037541Y38677692D01*
X16037542Y38677697D01*
X16043787Y39065210D01*
X16043786Y39065221D01*
X16050036Y39466300D01*
X16050037Y39466317D01*
X16056282Y39883038D01*
X16056281Y39883039D01*
X16062530Y40319266D01*
X16068777Y40778313D01*
X16075024Y41264490D01*
X16081271Y41783015D01*
X16087517Y42340180D01*
X16087516Y42340183D01*
X16093764Y42943565D01*
X16093763Y42943573D01*
X16100013Y43602844D01*
X16101157Y43626256D01*
X16101157Y43626324D01*
X16101161Y43626346D01*
X16101162Y43626372D01*
X16104419Y43645745D01*
X16108954Y43672750D01*
X16108963Y43672775D01*
X16108966Y43672796D01*
X16115646Y43692708D01*
X16123918Y43717383D01*
X16123930Y43717405D01*
X16123937Y43717427D01*
X16135271Y43739159D01*
X16145680Y43759127D01*
X16145693Y43759143D01*
X16145705Y43759168D01*
X16161234Y43780120D01*
X16173704Y43796952D01*
X16173720Y43796967D01*
X16173735Y43796988D01*
X16190930Y43813859D01*
X16207300Y43829928D01*
X16207320Y43829942D01*
X16207337Y43829959D01*
X16225406Y43842826D01*
X16245641Y43857242D01*
X16245666Y43857254D01*
X16245682Y43857266D01*
X16264608Y43866684D01*
X16287783Y43878222D01*
X16287808Y43878229D01*
X16287828Y43878240D01*
X16311410Y43885655D01*
X16332688Y43892351D01*
X16332709Y43892354D01*
X16332734Y43892362D01*
X16359238Y43896302D01*
X16379250Y43899281D01*
X16379277Y43899281D01*
X16379298Y43899285D01*
X16379363Y43899284D01*
X16402796Y43899987D01*
X17073396Y43893737D01*
G37*
%TD.AperFunction*%
%TD*%
D11*
%TO.N,PGND*%
%TO.C,J1*%
X57000000Y30960000D03*
D12*
%TO.N,/VIN_RAW*%
X57000000Y36040000D03*
%TD*%
D11*
%TO.N,SGND*%
%TO.C,J2*%
X5000000Y36040000D03*
D12*
%TO.N,VOUT*%
X5000000Y30960000D03*
%TD*%
D13*
%TO.N,Net-(T1-P_DOT)*%
%TO.C,T1*%
X42537772Y33735180D03*
%TO.N,/TANK_C*%
X42537772Y39264820D03*
%TO.N,Net-(T1-S_DOT)*%
X15462228Y39264820D03*
%TO.N,VOUT*%
X18800000Y36500000D03*
%TO.N,Net-(T1-S_END)*%
X15462228Y33735180D03*
%TO.N,unconnected-(T1-P_MID-Pad6)*%
X39200000Y36500000D03*
%TD*%
D14*
%TO.N,AGND*%
X47100000Y28200000D03*
X49925000Y47500000D03*
X29800000Y14325000D03*
X40950000Y18150000D03*
X37000000Y21325000D03*
X49000000Y53000000D03*
X26950000Y6130000D03*
X36600000Y14370000D03*
X43000000Y28975000D03*
X49925000Y44300000D03*
X30575000Y21000000D03*
X44000000Y28500000D03*
X57825000Y43100000D03*
X38200000Y16375000D03*
X29800000Y18575000D03*
X42950000Y25200000D03*
X26950000Y13730000D03*
X33125000Y11600000D03*
X61500000Y42825000D03*
%TO.N,BIAS12*%
X36600000Y15630000D03*
X40100000Y8825000D03*
X47100000Y29150000D03*
X42300000Y21325000D03*
X53975000Y11800000D03*
X38200000Y14825000D03*
X47100000Y27250000D03*
X43000000Y27425000D03*
%TO.N,Net-(U4-EN{slash}UVLO)*%
X57000000Y24675000D03*
X55000000Y26325000D03*
X52000000Y20140000D03*
%TO.N,Net-(U4-FB)*%
X42300000Y18225000D03*
X42300000Y14975000D03*
%TO.N,Net-(U4-SW)*%
X52375000Y14500000D03*
X47500000Y14450000D03*
%TO.N,Net-(C17-Pad2)*%
X40800000Y21375000D03*
X38800000Y26175000D03*
%TO.N,Net-(U2-DT)*%
X31400000Y16900000D03*
X31475000Y11600000D03*
%TO.N,/FB_COL*%
X31400000Y8725000D03*
X26950000Y16270000D03*
%TO.N,Net-(U6-CA)*%
X13575000Y11600000D03*
X18450000Y16240000D03*
X21500000Y19225000D03*
X20650000Y13730000D03*
%TO.N,Net-(U6-AN)*%
X18625000Y20000000D03*
X20650000Y16270000D03*
%TO.N,Net-(U2-GD1)*%
X56175000Y45000000D03*
X36600000Y16900000D03*
%TO.N,Net-(U2-GD2)*%
X36600000Y13100000D03*
X59500000Y41175000D03*
%TO.N,/LI*%
X61500000Y41175000D03*
X52650000Y43670000D03*
%TO.N,Net-(D2-C)*%
X29025000Y21000000D03*
X40950000Y20050000D03*
X31400000Y14370000D03*
X37000000Y19675000D03*
%TO.N,Net-(U8-AN)*%
X20650000Y8670000D03*
X15000000Y8175000D03*
X13300000Y9825000D03*
%TO.N,Net-(U9-REF)*%
X12000000Y4775000D03*
X16550000Y8640000D03*
X10600000Y9525000D03*
X16725000Y4000000D03*
%TO.N,PGND*%
X40100000Y6475000D03*
X50725000Y34050001D03*
X46975000Y37450000D03*
X46975000Y40250000D03*
X50725000Y34700000D03*
X40100000Y11775000D03*
X52000000Y17600000D03*
X55100000Y17425000D03*
X50770000Y40660000D03*
X48675000Y23500000D03*
X50725000Y35350000D03*
X48400000Y20000000D03*
X52850000Y28925000D03*
X46975000Y41550001D03*
X52200000Y28925000D03*
X46975000Y40900000D03*
X51000000Y39200000D03*
X45000000Y46575000D03*
X49800000Y19000000D03*
X51550000Y28925000D03*
X46975000Y38100000D03*
X61000000Y23000000D03*
X51000000Y38200000D03*
X49000000Y19500000D03*
X39300000Y50690000D03*
X50200000Y40800000D03*
X57000000Y26325000D03*
X48600000Y19000000D03*
X42300000Y16575000D03*
X46975000Y38750000D03*
X49300000Y20100000D03*
X51000000Y37500000D03*
%TO.N,Net-(C23-Pad1)*%
X52425000Y11800000D03*
X54025000Y14500000D03*
X42300000Y13425000D03*
%TO.N,Net-(U2-RT)*%
X31400000Y7075000D03*
X29800000Y12675000D03*
X31400000Y15630000D03*
%TO.N,Net-(T1-S_DOT)*%
X11310000Y42610000D03*
%TO.N,SGND*%
X10000000Y26975000D03*
X12000000Y15825000D03*
X13974999Y48650000D03*
X13849999Y26975000D03*
X17500000Y6160000D03*
X10960000Y39900000D03*
X18275000Y4000000D03*
X12000000Y6425000D03*
X11450000Y33000000D03*
X10990000Y32100000D03*
X17500000Y13760000D03*
X3500000Y20000000D03*
X13974999Y48000000D03*
X15150000Y26975000D03*
X8300000Y41275000D03*
X11640000Y32100000D03*
X11610000Y39900000D03*
X13500000Y34600000D03*
X10310000Y39900000D03*
X14500000Y21975000D03*
X12290000Y32100000D03*
X14500000Y26975000D03*
X8300000Y37130000D03*
X12290000Y31300000D03*
%TO.N,/SS*%
X26950000Y8670000D03*
X31400000Y13100000D03*
X29800000Y17025000D03*
%TO.N,/TANK_C*%
X44025000Y38100000D03*
X38800000Y24625000D03*
%TO.N,V5*%
X51475000Y47500000D03*
X47800000Y30000000D03*
X44900000Y27250000D03*
X46000000Y53000000D03*
%TO.N,Net-(U3-VG2)*%
X13500000Y38400000D03*
X8000000Y33225000D03*
%TO.N,VIN*%
X41550000Y49000000D03*
X52200000Y31875000D03*
X58000000Y23000000D03*
X55100000Y20375000D03*
X39300000Y46310000D03*
X45000000Y43625000D03*
X55000000Y24675000D03*
%TO.N,/VIN_RAW*%
X44450000Y49000000D03*
%TO.N,VOUT*%
X10600000Y7875000D03*
X3500000Y23000000D03*
X11025000Y47350000D03*
X10000000Y24025000D03*
X11025000Y48650000D03*
X13300000Y8175000D03*
X14500000Y19025000D03*
X14500000Y24025000D03*
X13849999Y24025000D03*
X15150000Y24025000D03*
X8300000Y39725000D03*
X13500000Y37130000D03*
X11025000Y48000000D03*
X16975000Y20000000D03*
X10000000Y14175000D03*
%TO.N,Net-(U7-REF)*%
X16550000Y16240000D03*
X12000000Y14175000D03*
X18775000Y11600000D03*
X21500000Y20775000D03*
X10000000Y15825000D03*
%TO.N,Net-(U3-VD1)*%
X15000000Y43825000D03*
X8300000Y34600000D03*
%TO.N,Net-(U3-VD2)*%
X15000000Y30625000D03*
X13500000Y35870000D03*
%TD*%
%TO.N,AGND*%
D15*
X57800000Y41000000D02*
X56000000Y39200000D01*
X46300000Y31500000D02*
X44000000Y29200000D01*
X49925000Y44300000D02*
X48500000Y44300000D01*
X48500000Y44300000D02*
X47000000Y42800000D01*
X43000000Y28975000D02*
X44000000Y28975000D01*
X42950000Y25200000D02*
X44000000Y25200000D01*
X53700000Y42200000D02*
X50800000Y42200000D01*
X50800000Y42200000D02*
X49925000Y44300000D01*
X57825000Y43100000D02*
X57800000Y44000000D01*
X47000000Y42800000D02*
X46300000Y42100000D01*
X56000000Y39200000D02*
X53700000Y42200000D01*
X57825000Y43100000D02*
X57800000Y41000000D01*
X44000000Y29200000D02*
X44000000Y25200000D01*
X57800000Y44000000D02*
X57800000Y42825000D01*
X44000000Y25200000D02*
X42000000Y22200000D01*
X46300000Y42100000D02*
X46300000Y31500000D01*
X57800000Y42825000D02*
X61500000Y42825000D01*
%TO.N,/FB_COL*%
D16*
X26950000Y16270000D02*
X28000000Y16270001D01*
X29275000Y8725000D02*
X31400000Y8725000D01*
X28000000Y16270001D02*
X28000000Y10000000D01*
X28000000Y10000000D02*
X29275000Y8725000D01*
%TO.N,Net-(C23-Pad1)*%
X51000000Y12700000D02*
X42300000Y12700000D01*
X54000000Y14500000D02*
X54000000Y12700000D01*
X54000000Y12700000D02*
X51725000Y12700000D01*
X54025000Y14500000D02*
X54000000Y14500000D01*
X52425000Y11800000D02*
X51000000Y12700000D01*
X42300000Y12700000D02*
X42300000Y13425000D01*
X51725000Y12700000D02*
X52425000Y11800000D01*
%TO.N,V5*%
D17*
X47800000Y30000000D02*
X47800000Y26200000D01*
X44900000Y26200000D02*
X44900000Y27250000D01*
X47800000Y26200000D02*
X44900000Y26200000D01*
%TO.N,Net-(U3-VD1)*%
D16*
X7700000Y43825000D02*
X15000000Y43825000D01*
X7700000Y34600000D02*
X7700000Y43825000D01*
X8300000Y34600000D02*
X7700000Y34600000D01*
%TO.N,Net-(U3-VD2)*%
X14300000Y31325000D02*
X15000000Y30625000D01*
X14300000Y35070000D02*
X14300000Y31325000D01*
X13500000Y35870000D02*
X14300000Y35070000D01*
%TD*%
%TA.AperFunction,Conductor*%
%TO.N,AGND*%
G36*
X42471780Y22481518D02*
G01*
X42498800Y22434718D01*
X42500000Y22421000D01*
X42500000Y21944285D01*
X42481518Y21893505D01*
X42434718Y21866485D01*
X42400555Y21867976D01*
X42397440Y21868811D01*
X42372475Y21875500D01*
X42227525Y21875500D01*
X42227524Y21875500D01*
X42087515Y21837985D01*
X42087513Y21837984D01*
X41961982Y21765508D01*
X41859492Y21663018D01*
X41787016Y21537487D01*
X41787015Y21537485D01*
X41749500Y21397476D01*
X41749500Y21252525D01*
X41787015Y21112516D01*
X41787016Y21112514D01*
X41859492Y20986983D01*
X41961982Y20884493D01*
X41961984Y20884492D01*
X41961985Y20884491D01*
X42087515Y20812016D01*
X42227525Y20774500D01*
X42227527Y20774500D01*
X42372473Y20774500D01*
X42372475Y20774500D01*
X42400553Y20782024D01*
X42454386Y20777315D01*
X42492598Y20739104D01*
X42500000Y20705716D01*
X42500000Y18844285D01*
X42481518Y18793505D01*
X42434718Y18766485D01*
X42400555Y18767976D01*
X42397440Y18768811D01*
X42372475Y18775500D01*
X42227525Y18775500D01*
X42227524Y18775500D01*
X42087515Y18737985D01*
X42087513Y18737984D01*
X41961982Y18665508D01*
X41859492Y18563018D01*
X41787016Y18437487D01*
X41787015Y18437485D01*
X41749500Y18297476D01*
X41749500Y18152525D01*
X41787015Y18012516D01*
X41787016Y18012514D01*
X41859492Y17886983D01*
X41961982Y17784493D01*
X41961984Y17784492D01*
X41961985Y17784491D01*
X42087515Y17712016D01*
X42227525Y17674500D01*
X42227527Y17674500D01*
X42372473Y17674500D01*
X42372475Y17674500D01*
X42400553Y17682024D01*
X42454386Y17677315D01*
X42492598Y17639104D01*
X42500000Y17605716D01*
X42500000Y17194285D01*
X42481518Y17143505D01*
X42434718Y17116485D01*
X42400555Y17117976D01*
X42397440Y17118811D01*
X42372475Y17125500D01*
X42227525Y17125500D01*
X42227524Y17125500D01*
X42087515Y17087985D01*
X42087513Y17087984D01*
X41961982Y17015508D01*
X41859492Y16913018D01*
X41787016Y16787487D01*
X41787015Y16787485D01*
X41749500Y16647476D01*
X41749500Y16502525D01*
X41787015Y16362516D01*
X41787016Y16362514D01*
X41859492Y16236983D01*
X41961982Y16134493D01*
X41961984Y16134492D01*
X41961985Y16134491D01*
X42087515Y16062016D01*
X42227525Y16024500D01*
X42227527Y16024500D01*
X42372473Y16024500D01*
X42372475Y16024500D01*
X42400553Y16032024D01*
X42454386Y16027315D01*
X42492598Y15989104D01*
X42500000Y15955716D01*
X42500000Y15594285D01*
X42481518Y15543505D01*
X42434718Y15516485D01*
X42400555Y15517976D01*
X42397440Y15518811D01*
X42372475Y15525500D01*
X42227525Y15525500D01*
X42227524Y15525500D01*
X42087515Y15487985D01*
X42087513Y15487984D01*
X41961982Y15415508D01*
X41859492Y15313018D01*
X41787016Y15187487D01*
X41787015Y15187485D01*
X41749500Y15047476D01*
X41749500Y14902525D01*
X41787015Y14762516D01*
X41787016Y14762514D01*
X41859492Y14636983D01*
X41961982Y14534493D01*
X41961984Y14534492D01*
X41961985Y14534491D01*
X42087515Y14462016D01*
X42227525Y14424500D01*
X42227527Y14424500D01*
X42372473Y14424500D01*
X42372475Y14424500D01*
X42400553Y14432024D01*
X42454386Y14427315D01*
X42492598Y14389104D01*
X42500000Y14355716D01*
X42500000Y14044285D01*
X42481518Y13993505D01*
X42434718Y13966485D01*
X42400555Y13967976D01*
X42397440Y13968811D01*
X42372475Y13975500D01*
X42227525Y13975500D01*
X42227524Y13975500D01*
X42087515Y13937985D01*
X42087513Y13937984D01*
X41961982Y13865508D01*
X41859492Y13763018D01*
X41787016Y13637487D01*
X41787015Y13637485D01*
X41749500Y13497476D01*
X41749500Y13352525D01*
X41787015Y13212516D01*
X41787016Y13212514D01*
X41843023Y13115508D01*
X41859491Y13086985D01*
X41926361Y13020115D01*
X41949199Y12971140D01*
X41949500Y12964254D01*
X41949500Y12653854D01*
X41973385Y12564715D01*
X41973386Y12564711D01*
X42019531Y12484787D01*
X42084786Y12419532D01*
X42084788Y12419531D01*
X42164712Y12373386D01*
X42253856Y12349500D01*
X42253858Y12349500D01*
X42421000Y12349500D01*
X42471780Y12331018D01*
X42498800Y12284218D01*
X42500000Y12270500D01*
X42500000Y2679000D01*
X42481518Y2628220D01*
X42434718Y2601200D01*
X42421000Y2600000D01*
X25579000Y2600000D01*
X25528220Y2618482D01*
X25501200Y2665282D01*
X25500000Y2679000D01*
X25500000Y7147476D01*
X30849500Y7147476D01*
X30849500Y7002525D01*
X30887015Y6862516D01*
X30887016Y6862514D01*
X30959492Y6736983D01*
X31061982Y6634493D01*
X31061984Y6634492D01*
X31061985Y6634491D01*
X31187515Y6562016D01*
X31327525Y6524500D01*
X31327527Y6524500D01*
X31472473Y6524500D01*
X31472475Y6524500D01*
X31558222Y6547476D01*
X39549500Y6547476D01*
X39549500Y6402525D01*
X39587015Y6262516D01*
X39587016Y6262514D01*
X39659492Y6136983D01*
X39761982Y6034493D01*
X39761984Y6034492D01*
X39761985Y6034491D01*
X39887515Y5962016D01*
X40027525Y5924500D01*
X40027527Y5924500D01*
X40172473Y5924500D01*
X40172475Y5924500D01*
X40312485Y5962016D01*
X40438015Y6034491D01*
X40540509Y6136985D01*
X40612984Y6262515D01*
X40650500Y6402525D01*
X40650500Y6547475D01*
X40612984Y6687485D01*
X40540509Y6813015D01*
X40540508Y6813016D01*
X40540507Y6813018D01*
X40438017Y6915508D01*
X40312486Y6987984D01*
X40312484Y6987985D01*
X40172475Y7025500D01*
X40027525Y7025500D01*
X40027524Y7025500D01*
X39887515Y6987985D01*
X39887513Y6987984D01*
X39761982Y6915508D01*
X39659492Y6813018D01*
X39587016Y6687487D01*
X39587015Y6687485D01*
X39549500Y6547476D01*
X31558222Y6547476D01*
X31612485Y6562016D01*
X31738015Y6634491D01*
X31840509Y6736985D01*
X31912984Y6862515D01*
X31950500Y7002525D01*
X31950500Y7147475D01*
X31912984Y7287485D01*
X31840509Y7413015D01*
X31840508Y7413016D01*
X31840507Y7413018D01*
X31738017Y7515508D01*
X31612486Y7587984D01*
X31612484Y7587985D01*
X31472475Y7625500D01*
X31327525Y7625500D01*
X31327524Y7625500D01*
X31187515Y7587985D01*
X31187513Y7587984D01*
X31061982Y7515508D01*
X30959492Y7413018D01*
X30887016Y7287487D01*
X30887015Y7287485D01*
X30849500Y7147476D01*
X25500000Y7147476D01*
X25500000Y8742476D01*
X26399500Y8742476D01*
X26399500Y8597525D01*
X26437015Y8457516D01*
X26437016Y8457514D01*
X26509492Y8331983D01*
X26611982Y8229493D01*
X26611984Y8229492D01*
X26611985Y8229491D01*
X26737515Y8157016D01*
X26877525Y8119500D01*
X26877527Y8119500D01*
X27022473Y8119500D01*
X27022475Y8119500D01*
X27162485Y8157016D01*
X27288015Y8229491D01*
X27390509Y8331985D01*
X27462984Y8457515D01*
X27500500Y8597525D01*
X27500500Y8742475D01*
X27462984Y8882485D01*
X27454329Y8897475D01*
X27390507Y9008018D01*
X27288017Y9110508D01*
X27162486Y9182984D01*
X27162484Y9182985D01*
X27022475Y9220500D01*
X26877525Y9220500D01*
X26877524Y9220500D01*
X26737515Y9182985D01*
X26737513Y9182984D01*
X26611982Y9110508D01*
X26509492Y9008018D01*
X26437016Y8882487D01*
X26437015Y8882485D01*
X26399500Y8742476D01*
X25500000Y8742476D01*
X25500000Y16342476D01*
X26399500Y16342476D01*
X26399500Y16197525D01*
X26437015Y16057516D01*
X26437016Y16057514D01*
X26509492Y15931983D01*
X26611982Y15829493D01*
X26611984Y15829492D01*
X26611985Y15829491D01*
X26737515Y15757016D01*
X26877525Y15719500D01*
X26877527Y15719500D01*
X27022473Y15719500D01*
X27022475Y15719500D01*
X27162485Y15757016D01*
X27288015Y15829491D01*
X27354885Y15896363D01*
X27403861Y15919200D01*
X27410747Y15919501D01*
X27570500Y15919501D01*
X27621280Y15901019D01*
X27648300Y15854219D01*
X27649500Y15840501D01*
X27649500Y9953854D01*
X27673385Y9864715D01*
X27673386Y9864711D01*
X27719531Y9784786D01*
X28994531Y8509788D01*
X29046803Y8457516D01*
X29059789Y8444530D01*
X29139710Y8398387D01*
X29139712Y8398386D01*
X29228856Y8374500D01*
X30939254Y8374500D01*
X30990034Y8356018D01*
X30995104Y8351372D01*
X31061985Y8284491D01*
X31079290Y8274500D01*
X31157247Y8229491D01*
X31187515Y8212016D01*
X31327525Y8174500D01*
X31327527Y8174500D01*
X31472473Y8174500D01*
X31472475Y8174500D01*
X31612485Y8212016D01*
X31738015Y8284491D01*
X31840509Y8386985D01*
X31912984Y8512515D01*
X31950500Y8652525D01*
X31950500Y8797475D01*
X31923705Y8897476D01*
X39549500Y8897476D01*
X39549500Y8752525D01*
X39587015Y8612516D01*
X39587016Y8612514D01*
X39659492Y8486983D01*
X39761982Y8384493D01*
X39761984Y8384492D01*
X39761985Y8384491D01*
X39887515Y8312016D01*
X40027525Y8274500D01*
X40027527Y8274500D01*
X40172473Y8274500D01*
X40172475Y8274500D01*
X40312485Y8312016D01*
X40438015Y8384491D01*
X40540509Y8486985D01*
X40612984Y8612515D01*
X40650500Y8752525D01*
X40650500Y8897475D01*
X40612984Y9037485D01*
X40598242Y9063018D01*
X40540507Y9163018D01*
X40438017Y9265508D01*
X40312486Y9337984D01*
X40312484Y9337985D01*
X40172475Y9375500D01*
X40027525Y9375500D01*
X40027524Y9375500D01*
X39887515Y9337985D01*
X39887513Y9337984D01*
X39761982Y9265508D01*
X39659492Y9163018D01*
X39587016Y9037487D01*
X39587015Y9037485D01*
X39549500Y8897476D01*
X31923705Y8897476D01*
X31912984Y8937485D01*
X31840509Y9063015D01*
X31840508Y9063016D01*
X31840507Y9063018D01*
X31738017Y9165508D01*
X31612486Y9237984D01*
X31612484Y9237985D01*
X31472475Y9275500D01*
X31327525Y9275500D01*
X31327524Y9275500D01*
X31187515Y9237985D01*
X31187513Y9237984D01*
X31061984Y9165509D01*
X31028550Y9132074D01*
X30995114Y9098639D01*
X30946140Y9075801D01*
X30939254Y9075500D01*
X29452903Y9075500D01*
X29402123Y9093982D01*
X29397042Y9098639D01*
X28373639Y10122043D01*
X28350801Y10171019D01*
X28350500Y10177904D01*
X28350500Y11672476D01*
X30924500Y11672476D01*
X30924500Y11527525D01*
X30962015Y11387516D01*
X30962016Y11387514D01*
X31034492Y11261983D01*
X31136982Y11159493D01*
X31136984Y11159492D01*
X31136985Y11159491D01*
X31262515Y11087016D01*
X31402525Y11049500D01*
X31402527Y11049500D01*
X31547473Y11049500D01*
X31547475Y11049500D01*
X31687485Y11087016D01*
X31813015Y11159491D01*
X31915509Y11261985D01*
X31987984Y11387515D01*
X32025500Y11527525D01*
X32025500Y11672475D01*
X31987984Y11812485D01*
X31967782Y11847476D01*
X39549500Y11847476D01*
X39549500Y11702525D01*
X39587015Y11562516D01*
X39587016Y11562514D01*
X39659492Y11436983D01*
X39761982Y11334493D01*
X39761984Y11334492D01*
X39761985Y11334491D01*
X39887515Y11262016D01*
X40027525Y11224500D01*
X40027527Y11224500D01*
X40172473Y11224500D01*
X40172475Y11224500D01*
X40312485Y11262016D01*
X40438015Y11334491D01*
X40540509Y11436985D01*
X40612984Y11562515D01*
X40650500Y11702525D01*
X40650500Y11847475D01*
X40612984Y11987485D01*
X40540509Y12113015D01*
X40540508Y12113016D01*
X40540507Y12113018D01*
X40438017Y12215508D01*
X40312486Y12287984D01*
X40312484Y12287985D01*
X40172475Y12325500D01*
X40027525Y12325500D01*
X40027524Y12325500D01*
X39887515Y12287985D01*
X39887513Y12287984D01*
X39761982Y12215508D01*
X39659492Y12113018D01*
X39587016Y11987487D01*
X39587015Y11987485D01*
X39549500Y11847476D01*
X31967782Y11847476D01*
X31915509Y11938015D01*
X31915508Y11938016D01*
X31915507Y11938018D01*
X31813017Y12040508D01*
X31687486Y12112984D01*
X31687484Y12112985D01*
X31547475Y12150500D01*
X31402525Y12150500D01*
X31402524Y12150500D01*
X31262515Y12112985D01*
X31262513Y12112984D01*
X31136982Y12040508D01*
X31034492Y11938018D01*
X30962016Y11812487D01*
X30962015Y11812485D01*
X30924500Y11672476D01*
X28350500Y11672476D01*
X28350500Y12747476D01*
X29249500Y12747476D01*
X29249500Y12602525D01*
X29287015Y12462516D01*
X29287016Y12462514D01*
X29359492Y12336983D01*
X29461982Y12234493D01*
X29461984Y12234492D01*
X29461985Y12234491D01*
X29587515Y12162016D01*
X29727525Y12124500D01*
X29727527Y12124500D01*
X29872473Y12124500D01*
X29872475Y12124500D01*
X30012485Y12162016D01*
X30138015Y12234491D01*
X30240509Y12336985D01*
X30312984Y12462515D01*
X30350500Y12602525D01*
X30350500Y12747475D01*
X30312984Y12887485D01*
X30240509Y13013015D01*
X30240508Y13013016D01*
X30240507Y13013018D01*
X30138020Y13115505D01*
X30138014Y13115510D01*
X30039347Y13172476D01*
X30849500Y13172476D01*
X30849500Y13027525D01*
X30887015Y12887516D01*
X30887016Y12887514D01*
X30959492Y12761983D01*
X31061982Y12659493D01*
X31160647Y12602528D01*
X31187515Y12587016D01*
X31327525Y12549500D01*
X31327527Y12549500D01*
X31472473Y12549500D01*
X31472475Y12549500D01*
X31612485Y12587016D01*
X31738015Y12659491D01*
X31840509Y12761985D01*
X31912984Y12887515D01*
X31950500Y13027525D01*
X31950500Y13172475D01*
X31950500Y13172476D01*
X36049500Y13172476D01*
X36049500Y13027525D01*
X36087015Y12887516D01*
X36087016Y12887514D01*
X36159492Y12761983D01*
X36261982Y12659493D01*
X36360647Y12602528D01*
X36387515Y12587016D01*
X36527525Y12549500D01*
X36527527Y12549500D01*
X36672473Y12549500D01*
X36672475Y12549500D01*
X36812485Y12587016D01*
X36938015Y12659491D01*
X37040509Y12761985D01*
X37112984Y12887515D01*
X37150500Y13027525D01*
X37150500Y13172475D01*
X37112984Y13312485D01*
X37040509Y13438015D01*
X37040508Y13438016D01*
X37040507Y13438018D01*
X36938017Y13540508D01*
X36812486Y13612984D01*
X36812484Y13612985D01*
X36672475Y13650500D01*
X36527525Y13650500D01*
X36527524Y13650500D01*
X36387515Y13612985D01*
X36387513Y13612984D01*
X36261982Y13540508D01*
X36159492Y13438018D01*
X36087016Y13312487D01*
X36087015Y13312485D01*
X36049500Y13172476D01*
X31950500Y13172476D01*
X31912984Y13312485D01*
X31840509Y13438015D01*
X31840508Y13438016D01*
X31840507Y13438018D01*
X31738017Y13540508D01*
X31612486Y13612984D01*
X31612484Y13612985D01*
X31472475Y13650500D01*
X31327525Y13650500D01*
X31327524Y13650500D01*
X31187515Y13612985D01*
X31187513Y13612984D01*
X31061982Y13540508D01*
X30959492Y13438018D01*
X30887016Y13312487D01*
X30887015Y13312485D01*
X30849500Y13172476D01*
X30039347Y13172476D01*
X30012486Y13187984D01*
X30012484Y13187985D01*
X29872475Y13225500D01*
X29727525Y13225500D01*
X29727524Y13225500D01*
X29587515Y13187985D01*
X29587513Y13187984D01*
X29461982Y13115508D01*
X29359492Y13013018D01*
X29287016Y12887487D01*
X29287015Y12887485D01*
X29249500Y12747476D01*
X28350500Y12747476D01*
X28350500Y14442476D01*
X30849500Y14442476D01*
X30849500Y14297525D01*
X30887015Y14157516D01*
X30887016Y14157514D01*
X30959492Y14031983D01*
X31061982Y13929493D01*
X31061984Y13929492D01*
X31061985Y13929491D01*
X31187515Y13857016D01*
X31327525Y13819500D01*
X31327527Y13819500D01*
X31472473Y13819500D01*
X31472475Y13819500D01*
X31612485Y13857016D01*
X31738015Y13929491D01*
X31840509Y14031985D01*
X31912984Y14157515D01*
X31950500Y14297525D01*
X31950500Y14442475D01*
X31912984Y14582485D01*
X31840509Y14708015D01*
X31840508Y14708016D01*
X31840507Y14708018D01*
X31738017Y14810508D01*
X31696917Y14834237D01*
X31612486Y14882984D01*
X31612484Y14882985D01*
X31558402Y14897476D01*
X37649500Y14897476D01*
X37649500Y14752525D01*
X37687015Y14612516D01*
X37687016Y14612514D01*
X37759492Y14486983D01*
X37861982Y14384493D01*
X37861984Y14384492D01*
X37861985Y14384491D01*
X37987515Y14312016D01*
X38127525Y14274500D01*
X38127527Y14274500D01*
X38272473Y14274500D01*
X38272475Y14274500D01*
X38412485Y14312016D01*
X38538015Y14384491D01*
X38640509Y14486985D01*
X38712984Y14612515D01*
X38750500Y14752525D01*
X38750500Y14897475D01*
X38712984Y15037485D01*
X38640509Y15163015D01*
X38640508Y15163016D01*
X38640507Y15163018D01*
X38538017Y15265508D01*
X38412486Y15337984D01*
X38412484Y15337985D01*
X38272475Y15375500D01*
X38127525Y15375500D01*
X38127524Y15375500D01*
X37987515Y15337985D01*
X37987513Y15337984D01*
X37861982Y15265508D01*
X37759492Y15163018D01*
X37687016Y15037487D01*
X37687015Y15037485D01*
X37649500Y14897476D01*
X31558402Y14897476D01*
X31472475Y14920500D01*
X31327525Y14920500D01*
X31327524Y14920500D01*
X31187515Y14882985D01*
X31187513Y14882984D01*
X31061982Y14810508D01*
X30959492Y14708018D01*
X30887016Y14582487D01*
X30887015Y14582485D01*
X30849500Y14442476D01*
X28350500Y14442476D01*
X28350500Y15702476D01*
X30849500Y15702476D01*
X30849500Y15557525D01*
X30887015Y15417516D01*
X30887016Y15417514D01*
X30959492Y15291983D01*
X31061982Y15189493D01*
X31061984Y15189492D01*
X31061985Y15189491D01*
X31187515Y15117016D01*
X31327525Y15079500D01*
X31327527Y15079500D01*
X31472473Y15079500D01*
X31472475Y15079500D01*
X31612485Y15117016D01*
X31738015Y15189491D01*
X31840509Y15291985D01*
X31912984Y15417515D01*
X31950500Y15557525D01*
X31950500Y15702475D01*
X31950500Y15702476D01*
X36049500Y15702476D01*
X36049500Y15557525D01*
X36087015Y15417516D01*
X36087016Y15417514D01*
X36159492Y15291983D01*
X36261982Y15189493D01*
X36261984Y15189492D01*
X36261985Y15189491D01*
X36387515Y15117016D01*
X36527525Y15079500D01*
X36527527Y15079500D01*
X36672473Y15079500D01*
X36672475Y15079500D01*
X36812485Y15117016D01*
X36938015Y15189491D01*
X37040509Y15291985D01*
X37112984Y15417515D01*
X37150500Y15557525D01*
X37150500Y15702475D01*
X37112984Y15842485D01*
X37040509Y15968015D01*
X37040508Y15968016D01*
X37040507Y15968018D01*
X36938017Y16070508D01*
X36812486Y16142984D01*
X36812484Y16142985D01*
X36672475Y16180500D01*
X36527525Y16180500D01*
X36527524Y16180500D01*
X36387515Y16142985D01*
X36387513Y16142984D01*
X36261982Y16070508D01*
X36159492Y15968018D01*
X36087016Y15842487D01*
X36087015Y15842485D01*
X36049500Y15702476D01*
X31950500Y15702476D01*
X31912984Y15842485D01*
X31840509Y15968015D01*
X31840508Y15968016D01*
X31840507Y15968018D01*
X31738017Y16070508D01*
X31612486Y16142984D01*
X31612484Y16142985D01*
X31472475Y16180500D01*
X31327525Y16180500D01*
X31327524Y16180500D01*
X31187515Y16142985D01*
X31187513Y16142984D01*
X31061982Y16070508D01*
X30959492Y15968018D01*
X30887016Y15842487D01*
X30887015Y15842485D01*
X30849500Y15702476D01*
X28350500Y15702476D01*
X28350500Y16316143D01*
X28350499Y16316148D01*
X28343445Y16342475D01*
X28326614Y16405289D01*
X28280469Y16485213D01*
X28280468Y16485215D01*
X28215213Y16550470D01*
X28135289Y16596615D01*
X28135285Y16596616D01*
X28046146Y16620501D01*
X28046144Y16620501D01*
X27953856Y16620501D01*
X27953855Y16620501D01*
X27410745Y16620501D01*
X27359965Y16638983D01*
X27354894Y16643630D01*
X27288015Y16710509D01*
X27162486Y16782984D01*
X27162484Y16782985D01*
X27022475Y16820500D01*
X26877525Y16820500D01*
X26877524Y16820500D01*
X26737515Y16782985D01*
X26737513Y16782984D01*
X26611982Y16710508D01*
X26509492Y16608018D01*
X26437016Y16482487D01*
X26437015Y16482485D01*
X26399500Y16342476D01*
X25500000Y16342476D01*
X25500000Y17097476D01*
X29249500Y17097476D01*
X29249500Y16952525D01*
X29287015Y16812516D01*
X29287016Y16812514D01*
X29359492Y16686983D01*
X29461982Y16584493D01*
X29461984Y16584492D01*
X29461985Y16584491D01*
X29587515Y16512016D01*
X29727525Y16474500D01*
X29727527Y16474500D01*
X29872473Y16474500D01*
X29872475Y16474500D01*
X30012485Y16512016D01*
X30138015Y16584491D01*
X30240509Y16686985D01*
X30312984Y16812515D01*
X30350500Y16952525D01*
X30350500Y16972476D01*
X30849500Y16972476D01*
X30849500Y16827525D01*
X30887015Y16687516D01*
X30887016Y16687514D01*
X30959492Y16561983D01*
X31061982Y16459493D01*
X31061984Y16459492D01*
X31061985Y16459491D01*
X31187515Y16387016D01*
X31327525Y16349500D01*
X31327527Y16349500D01*
X31472473Y16349500D01*
X31472475Y16349500D01*
X31612485Y16387016D01*
X31738015Y16459491D01*
X31840509Y16561985D01*
X31912984Y16687515D01*
X31950500Y16827525D01*
X31950500Y16972475D01*
X31950500Y16972476D01*
X36049500Y16972476D01*
X36049500Y16827525D01*
X36087015Y16687516D01*
X36087016Y16687514D01*
X36159492Y16561983D01*
X36261982Y16459493D01*
X36261984Y16459492D01*
X36261985Y16459491D01*
X36387515Y16387016D01*
X36527525Y16349500D01*
X36527527Y16349500D01*
X36672473Y16349500D01*
X36672475Y16349500D01*
X36812485Y16387016D01*
X36938015Y16459491D01*
X37040509Y16561985D01*
X37112984Y16687515D01*
X37150500Y16827525D01*
X37150500Y16972475D01*
X37112984Y17112485D01*
X37040509Y17238015D01*
X37040508Y17238016D01*
X37040507Y17238018D01*
X36938017Y17340508D01*
X36812486Y17412984D01*
X36812484Y17412985D01*
X36672475Y17450500D01*
X36527525Y17450500D01*
X36527524Y17450500D01*
X36387515Y17412985D01*
X36387513Y17412984D01*
X36261982Y17340508D01*
X36159492Y17238018D01*
X36087016Y17112487D01*
X36087015Y17112485D01*
X36049500Y16972476D01*
X31950500Y16972476D01*
X31912984Y17112485D01*
X31840509Y17238015D01*
X31840508Y17238016D01*
X31840507Y17238018D01*
X31738017Y17340508D01*
X31612486Y17412984D01*
X31612484Y17412985D01*
X31472475Y17450500D01*
X31327525Y17450500D01*
X31327524Y17450500D01*
X31187515Y17412985D01*
X31187513Y17412984D01*
X31061982Y17340508D01*
X30959492Y17238018D01*
X30887016Y17112487D01*
X30887015Y17112485D01*
X30849500Y16972476D01*
X30350500Y16972476D01*
X30350500Y17097475D01*
X30312984Y17237485D01*
X30240509Y17363015D01*
X30240508Y17363016D01*
X30240507Y17363018D01*
X30138017Y17465508D01*
X30012486Y17537984D01*
X30012484Y17537985D01*
X29872475Y17575500D01*
X29727525Y17575500D01*
X29727524Y17575500D01*
X29587515Y17537985D01*
X29587513Y17537984D01*
X29461982Y17465508D01*
X29359492Y17363018D01*
X29287016Y17237487D01*
X29287015Y17237485D01*
X29249500Y17097476D01*
X25500000Y17097476D01*
X25500000Y19747476D01*
X36449500Y19747476D01*
X36449500Y19602525D01*
X36487015Y19462516D01*
X36487016Y19462514D01*
X36559492Y19336983D01*
X36661982Y19234493D01*
X36661984Y19234492D01*
X36661985Y19234491D01*
X36787515Y19162016D01*
X36927525Y19124500D01*
X36927527Y19124500D01*
X37072473Y19124500D01*
X37072475Y19124500D01*
X37212485Y19162016D01*
X37338015Y19234491D01*
X37440509Y19336985D01*
X37512984Y19462515D01*
X37550500Y19602525D01*
X37550500Y19747475D01*
X37512984Y19887485D01*
X37440509Y20013015D01*
X37440508Y20013016D01*
X37440507Y20013018D01*
X37338017Y20115508D01*
X37325948Y20122476D01*
X40399500Y20122476D01*
X40399500Y19977525D01*
X40437015Y19837516D01*
X40437016Y19837514D01*
X40509492Y19711983D01*
X40611982Y19609493D01*
X40611984Y19609492D01*
X40611985Y19609491D01*
X40737515Y19537016D01*
X40877525Y19499500D01*
X40877527Y19499500D01*
X41022473Y19499500D01*
X41022475Y19499500D01*
X41162485Y19537016D01*
X41288015Y19609491D01*
X41390509Y19711985D01*
X41462984Y19837515D01*
X41500500Y19977525D01*
X41500500Y20122475D01*
X41462984Y20262485D01*
X41390509Y20388015D01*
X41390508Y20388016D01*
X41390507Y20388018D01*
X41288017Y20490508D01*
X41162486Y20562984D01*
X41162484Y20562985D01*
X41022475Y20600500D01*
X40877525Y20600500D01*
X40877524Y20600500D01*
X40737515Y20562985D01*
X40737513Y20562984D01*
X40611982Y20490508D01*
X40509492Y20388018D01*
X40437016Y20262487D01*
X40437015Y20262485D01*
X40399500Y20122476D01*
X37325948Y20122476D01*
X37212486Y20187984D01*
X37212484Y20187985D01*
X37072475Y20225500D01*
X36927525Y20225500D01*
X36927524Y20225500D01*
X36787515Y20187985D01*
X36787513Y20187984D01*
X36661982Y20115508D01*
X36559492Y20013018D01*
X36487016Y19887487D01*
X36487015Y19887485D01*
X36449500Y19747476D01*
X25500000Y19747476D01*
X25500000Y21072476D01*
X28474500Y21072476D01*
X28474500Y20927525D01*
X28512015Y20787516D01*
X28512016Y20787514D01*
X28584492Y20661983D01*
X28686982Y20559493D01*
X28806466Y20490508D01*
X28812515Y20487016D01*
X28952525Y20449500D01*
X28952527Y20449500D01*
X29097473Y20449500D01*
X29097475Y20449500D01*
X29237485Y20487016D01*
X29363015Y20559491D01*
X29465509Y20661985D01*
X29537984Y20787515D01*
X29575500Y20927525D01*
X29575500Y21072475D01*
X29537984Y21212485D01*
X29465509Y21338015D01*
X29465508Y21338016D01*
X29465507Y21338018D01*
X29363017Y21440508D01*
X29350948Y21447476D01*
X40249500Y21447476D01*
X40249500Y21302525D01*
X40287015Y21162516D01*
X40287016Y21162514D01*
X40359492Y21036983D01*
X40461982Y20934493D01*
X40461984Y20934492D01*
X40461985Y20934491D01*
X40587515Y20862016D01*
X40727525Y20824500D01*
X40727527Y20824500D01*
X40872473Y20824500D01*
X40872475Y20824500D01*
X41012485Y20862016D01*
X41138015Y20934491D01*
X41240509Y21036985D01*
X41312984Y21162515D01*
X41350500Y21302525D01*
X41350500Y21447475D01*
X41312984Y21587485D01*
X41240509Y21713015D01*
X41240508Y21713016D01*
X41240507Y21713018D01*
X41138017Y21815508D01*
X41012486Y21887984D01*
X41012484Y21887985D01*
X40872475Y21925500D01*
X40727525Y21925500D01*
X40727524Y21925500D01*
X40587515Y21887985D01*
X40587513Y21887984D01*
X40461982Y21815508D01*
X40359492Y21713018D01*
X40287016Y21587487D01*
X40287015Y21587485D01*
X40249500Y21447476D01*
X29350948Y21447476D01*
X29237486Y21512984D01*
X29237484Y21512985D01*
X29097475Y21550500D01*
X28952525Y21550500D01*
X28952524Y21550500D01*
X28812515Y21512985D01*
X28812513Y21512984D01*
X28686982Y21440508D01*
X28584492Y21338018D01*
X28512016Y21212487D01*
X28512015Y21212485D01*
X28474500Y21072476D01*
X25500000Y21072476D01*
X25500000Y22421000D01*
X25518482Y22471780D01*
X25565282Y22498800D01*
X25579000Y22500000D01*
X42421000Y22500000D01*
X42471780Y22481518D01*
G37*
%TD.AperFunction*%
%TD*%
%TA.AperFunction,Conductor*%
%TO.N,PGND*%
G36*
X49565033Y43881018D02*
G01*
X49570114Y43876361D01*
X49586982Y43859493D01*
X49586984Y43859492D01*
X49586985Y43859491D01*
X49679301Y43806193D01*
X49712724Y43768162D01*
X50079660Y42887515D01*
X50335082Y42274500D01*
X50418025Y42075438D01*
X50421410Y42065500D01*
X50426791Y42045415D01*
X50437696Y42026527D01*
X50442202Y42017414D01*
X50450588Y41997288D01*
X50463281Y41980817D01*
X50469120Y41972099D01*
X50479521Y41954086D01*
X50494934Y41938673D01*
X50501647Y41931035D01*
X50514958Y41913763D01*
X50531486Y41901136D01*
X50539376Y41894231D01*
X50554087Y41879520D01*
X50569465Y41870642D01*
X50572968Y41868619D01*
X50581427Y41862980D01*
X50598754Y41849742D01*
X50617992Y41841821D01*
X50627393Y41837197D01*
X50645413Y41826793D01*
X50657897Y41823449D01*
X50666467Y41821152D01*
X50676106Y41817891D01*
X50696264Y41809590D01*
X50696262Y41809590D01*
X50709832Y41807833D01*
X50716892Y41806919D01*
X50727182Y41804884D01*
X50747273Y41799500D01*
X50769072Y41799500D01*
X50779218Y41798847D01*
X50800845Y41796045D01*
X50821453Y41798803D01*
X50831929Y41799500D01*
X53463413Y41799500D01*
X53514193Y41781018D01*
X53526108Y41768566D01*
X55663098Y38981187D01*
X55668819Y38972621D01*
X55679518Y38954089D01*
X55679519Y38954088D01*
X55679520Y38954087D01*
X55694514Y38939093D01*
X55701341Y38931305D01*
X55714242Y38914478D01*
X55731216Y38901442D01*
X55738950Y38894657D01*
X55754087Y38879520D01*
X55772456Y38868914D01*
X55781057Y38863165D01*
X55797876Y38850248D01*
X55815331Y38843010D01*
X55817644Y38842050D01*
X55826879Y38837493D01*
X55845412Y38826793D01*
X55865891Y38821306D01*
X55875696Y38817975D01*
X55883424Y38814771D01*
X55895286Y38809851D01*
X55895285Y38809851D01*
X55902902Y38808846D01*
X55916508Y38807049D01*
X55926602Y38805039D01*
X55947273Y38799500D01*
X55968469Y38799500D01*
X55978810Y38798821D01*
X55999832Y38796044D01*
X56021048Y38798829D01*
X56031326Y38799500D01*
X56052724Y38799500D01*
X56052727Y38799500D01*
X56073213Y38804990D01*
X56083360Y38807006D01*
X56104390Y38809765D01*
X56124165Y38817948D01*
X56133900Y38821251D01*
X56154588Y38826793D01*
X56165053Y38832836D01*
X56172953Y38837396D01*
X56182250Y38841979D01*
X56201833Y38850080D01*
X56218824Y38863108D01*
X56227382Y38868821D01*
X56232666Y38871872D01*
X56245913Y38879520D01*
X56260897Y38894506D01*
X56268693Y38901341D01*
X56285522Y38914241D01*
X56298565Y38931226D01*
X56305344Y38938953D01*
X58081207Y40714816D01*
X58081704Y40715308D01*
X58117530Y40750289D01*
X58117534Y40750298D01*
X58117723Y40750536D01*
X58117944Y40750785D01*
X58118721Y40751797D01*
X58119314Y40752559D01*
X58120102Y40753561D01*
X58120292Y40753842D01*
X58120477Y40754085D01*
X58120480Y40754087D01*
X58120481Y40754091D01*
X58120484Y40754093D01*
X58145375Y40797208D01*
X58145851Y40798023D01*
X58171340Y40840981D01*
X58171341Y40840987D01*
X58171471Y40841287D01*
X58171618Y40841581D01*
X58172076Y40842687D01*
X58172463Y40843607D01*
X58172969Y40844789D01*
X58173083Y40845118D01*
X58173199Y40845401D01*
X58173206Y40845412D01*
X58186138Y40893676D01*
X58186306Y40894291D01*
X58199844Y40942509D01*
X58199844Y40942520D01*
X58199886Y40942808D01*
X58199952Y40943128D01*
X58200116Y40944372D01*
X58200248Y40945327D01*
X58200435Y40946631D01*
X58200460Y40946978D01*
X58200497Y40947265D01*
X58200500Y40947273D01*
X58200500Y40997178D01*
X58200506Y40998118D01*
X58202527Y41167864D01*
X58203475Y41247476D01*
X58949500Y41247476D01*
X58949500Y41102525D01*
X58987015Y40962516D01*
X58987016Y40962514D01*
X59059492Y40836983D01*
X59161982Y40734493D01*
X59161984Y40734492D01*
X59161985Y40734491D01*
X59287515Y40662016D01*
X59427525Y40624500D01*
X59427527Y40624500D01*
X59572473Y40624500D01*
X59572475Y40624500D01*
X59712485Y40662016D01*
X59838015Y40734491D01*
X59940509Y40836985D01*
X60012984Y40962515D01*
X60050500Y41102525D01*
X60050500Y41247475D01*
X60012984Y41387485D01*
X59940509Y41513015D01*
X59940508Y41513016D01*
X59940507Y41513018D01*
X59838017Y41615508D01*
X59712486Y41687984D01*
X59712484Y41687985D01*
X59572475Y41725500D01*
X59427525Y41725500D01*
X59427524Y41725500D01*
X59287515Y41687985D01*
X59287513Y41687984D01*
X59161982Y41615508D01*
X59059492Y41513018D01*
X58987016Y41387487D01*
X58987015Y41387485D01*
X58949500Y41247476D01*
X58203475Y41247476D01*
X58213274Y42070580D01*
X58216558Y42346440D01*
X58235643Y42396997D01*
X58282761Y42423458D01*
X58295552Y42424500D01*
X61089253Y42424500D01*
X61140033Y42406018D01*
X61145114Y42401361D01*
X61161982Y42384493D01*
X61161984Y42384492D01*
X61161985Y42384491D01*
X61287515Y42312016D01*
X61427525Y42274500D01*
X61427527Y42274500D01*
X61572473Y42274500D01*
X61572475Y42274500D01*
X61712485Y42312016D01*
X61838015Y42384491D01*
X61850521Y42396997D01*
X61865139Y42411614D01*
X61914115Y42434452D01*
X61966313Y42420466D01*
X61997308Y42376200D01*
X62000000Y42355753D01*
X62000000Y41644247D01*
X61981518Y41593467D01*
X61934718Y41566447D01*
X61881500Y41575831D01*
X61865139Y41588386D01*
X61838017Y41615508D01*
X61712486Y41687984D01*
X61712484Y41687985D01*
X61572475Y41725500D01*
X61427525Y41725500D01*
X61427524Y41725500D01*
X61287515Y41687985D01*
X61287513Y41687984D01*
X61161982Y41615508D01*
X61059492Y41513018D01*
X60987016Y41387487D01*
X60987015Y41387485D01*
X60949500Y41247476D01*
X60949500Y41102525D01*
X60987015Y40962516D01*
X60987016Y40962514D01*
X61059492Y40836983D01*
X61161982Y40734493D01*
X61161984Y40734492D01*
X61161985Y40734491D01*
X61287515Y40662016D01*
X61427525Y40624500D01*
X61427527Y40624500D01*
X61572473Y40624500D01*
X61572475Y40624500D01*
X61712485Y40662016D01*
X61838015Y40734491D01*
X61838017Y40734493D01*
X61865139Y40761614D01*
X61914115Y40784452D01*
X61966313Y40770466D01*
X61997308Y40726200D01*
X62000000Y40705753D01*
X62000000Y9579000D01*
X61981518Y9528220D01*
X61934718Y9501200D01*
X61921000Y9500000D01*
X59727491Y9500000D01*
X59720605Y9500301D01*
X59718327Y9500500D01*
X59281673Y9500500D01*
X59281663Y9500500D01*
X58846688Y9462444D01*
X58846687Y9462444D01*
X58416657Y9386618D01*
X57994899Y9273609D01*
X57994892Y9273607D01*
X57720099Y9173591D01*
X57584568Y9124261D01*
X57584565Y9124260D01*
X57584555Y9124256D01*
X57584553Y9124256D01*
X57188833Y8939727D01*
X57188824Y8939723D01*
X56810679Y8721400D01*
X56810664Y8721391D01*
X56452989Y8470945D01*
X56452972Y8470932D01*
X56118496Y8190272D01*
X56118483Y8190260D01*
X55809740Y7881517D01*
X55809728Y7881504D01*
X55529068Y7547028D01*
X55529055Y7547011D01*
X55278609Y7189336D01*
X55278600Y7189321D01*
X55060277Y6811176D01*
X55060273Y6811167D01*
X54875744Y6415447D01*
X54875744Y6415445D01*
X54726393Y6005108D01*
X54726391Y6005101D01*
X54613382Y5583343D01*
X54537556Y5153313D01*
X54537556Y5153312D01*
X54499500Y4718337D01*
X54499500Y4281664D01*
X54537556Y3846689D01*
X54537556Y3846688D01*
X54613382Y3416658D01*
X54726391Y2994900D01*
X54726396Y2994886D01*
X54831534Y2706019D01*
X54831534Y2651980D01*
X54796798Y2610584D01*
X54757298Y2600000D01*
X48579000Y2600000D01*
X48528220Y2618482D01*
X48501200Y2665282D01*
X48500000Y2679000D01*
X48500000Y12270500D01*
X48518482Y12321280D01*
X48565282Y12348300D01*
X48579000Y12349500D01*
X50875724Y12349500D01*
X50917909Y12337294D01*
X50927846Y12331018D01*
X51846566Y11750775D01*
X51879631Y11708032D01*
X51880689Y11704428D01*
X51912015Y11587516D01*
X51912016Y11587514D01*
X51984492Y11461983D01*
X52086982Y11359493D01*
X52086984Y11359492D01*
X52086985Y11359491D01*
X52212515Y11287016D01*
X52352525Y11249500D01*
X52352527Y11249500D01*
X52497473Y11249500D01*
X52497475Y11249500D01*
X52637485Y11287016D01*
X52763015Y11359491D01*
X52865509Y11461985D01*
X52937984Y11587515D01*
X52975500Y11727525D01*
X52975500Y11872475D01*
X52937984Y12012485D01*
X52865509Y12138015D01*
X52865508Y12138016D01*
X52865507Y12138018D01*
X52788886Y12214639D01*
X52766048Y12263615D01*
X52780034Y12315813D01*
X52824300Y12346808D01*
X52844747Y12349500D01*
X53555253Y12349500D01*
X53606033Y12331018D01*
X53633053Y12284218D01*
X53623669Y12231000D01*
X53611114Y12214639D01*
X53534492Y12138018D01*
X53462016Y12012487D01*
X53462015Y12012485D01*
X53424500Y11872476D01*
X53424500Y11727525D01*
X53462015Y11587516D01*
X53462016Y11587514D01*
X53534492Y11461983D01*
X53636982Y11359493D01*
X53636984Y11359492D01*
X53636985Y11359491D01*
X53762515Y11287016D01*
X53902525Y11249500D01*
X53902527Y11249500D01*
X54047473Y11249500D01*
X54047475Y11249500D01*
X54187485Y11287016D01*
X54313015Y11359491D01*
X54415509Y11461985D01*
X54487984Y11587515D01*
X54525500Y11727525D01*
X54525500Y11872475D01*
X54487984Y12012485D01*
X54415509Y12138015D01*
X54415508Y12138016D01*
X54415507Y12138018D01*
X54313017Y12240508D01*
X54226462Y12290481D01*
X54191726Y12331878D01*
X54191726Y12385917D01*
X54212792Y12414628D01*
X54211551Y12415869D01*
X54280468Y12484787D01*
X54326613Y12564711D01*
X54326614Y12564712D01*
X54350500Y12653856D01*
X54350500Y14014253D01*
X54368982Y14065033D01*
X54373639Y14070114D01*
X54465507Y14161983D01*
X54465509Y14161985D01*
X54537984Y14287515D01*
X54575500Y14427525D01*
X54575500Y14572475D01*
X54537984Y14712485D01*
X54465509Y14838015D01*
X54465508Y14838016D01*
X54465507Y14838018D01*
X54363017Y14940508D01*
X54237486Y15012984D01*
X54237484Y15012985D01*
X54097475Y15050500D01*
X53952525Y15050500D01*
X53952524Y15050500D01*
X53812515Y15012985D01*
X53812513Y15012984D01*
X53686982Y14940508D01*
X53584492Y14838018D01*
X53512016Y14712487D01*
X53512015Y14712485D01*
X53474500Y14572476D01*
X53474500Y14427525D01*
X53512015Y14287516D01*
X53512016Y14287514D01*
X53584491Y14161985D01*
X53626361Y14120115D01*
X53649199Y14071140D01*
X53649500Y14064254D01*
X53649500Y13129500D01*
X53631018Y13078720D01*
X53584218Y13051700D01*
X53570500Y13050500D01*
X51751733Y13050500D01*
X51741935Y13051110D01*
X51722687Y13053516D01*
X51706267Y13051245D01*
X51695445Y13050500D01*
X51678856Y13050500D01*
X51660106Y13045477D01*
X51650489Y13043531D01*
X51631266Y13040873D01*
X51615980Y13034424D01*
X51605727Y13030906D01*
X51589711Y13026614D01*
X51572903Y13016911D01*
X51564121Y13012545D01*
X51546243Y13005002D01*
X51546238Y13004999D01*
X51533140Y12994812D01*
X51524148Y12988761D01*
X51509789Y12980470D01*
X51509788Y12980470D01*
X51496066Y12966749D01*
X51488715Y12960259D01*
X51473390Y12948339D01*
X51463375Y12935110D01*
X51456256Y12926939D01*
X51440872Y12911553D01*
X51439325Y12913100D01*
X51400746Y12888538D01*
X51347171Y12895608D01*
X51341485Y12898878D01*
X51227652Y12970773D01*
X51219373Y12977392D01*
X51219318Y12977319D01*
X51215217Y12980466D01*
X51182624Y12999284D01*
X51179940Y13000906D01*
X51148151Y13020984D01*
X51143447Y13023155D01*
X51143484Y13023237D01*
X51140105Y13024716D01*
X51140071Y13024633D01*
X51135291Y13026613D01*
X51135288Y13026614D01*
X51098906Y13036364D01*
X51095934Y13037224D01*
X51060025Y13048391D01*
X51060024Y13048392D01*
X51060021Y13048392D01*
X51054917Y13049272D01*
X51054932Y13049360D01*
X51051287Y13049913D01*
X51051276Y13049825D01*
X51046148Y13050500D01*
X51046144Y13050500D01*
X51008520Y13050500D01*
X51005385Y13050562D01*
X50967810Y13052055D01*
X50967809Y13052055D01*
X50967808Y13052055D01*
X50962654Y13051583D01*
X50962645Y13051675D01*
X50952116Y13050500D01*
X48579000Y13050500D01*
X48528220Y13068982D01*
X48501200Y13115782D01*
X48500000Y13129500D01*
X48500000Y14572476D01*
X51824500Y14572476D01*
X51824500Y14427525D01*
X51862015Y14287516D01*
X51862016Y14287514D01*
X51934492Y14161983D01*
X52036982Y14059493D01*
X52036984Y14059492D01*
X52036985Y14059491D01*
X52162515Y13987016D01*
X52302525Y13949500D01*
X52302527Y13949500D01*
X52447473Y13949500D01*
X52447475Y13949500D01*
X52587485Y13987016D01*
X52713015Y14059491D01*
X52815509Y14161985D01*
X52887984Y14287515D01*
X52925500Y14427525D01*
X52925500Y14572475D01*
X52887984Y14712485D01*
X52815509Y14838015D01*
X52815508Y14838016D01*
X52815507Y14838018D01*
X52713017Y14940508D01*
X52587486Y15012984D01*
X52587484Y15012985D01*
X52447475Y15050500D01*
X52302525Y15050500D01*
X52302524Y15050500D01*
X52162515Y15012985D01*
X52162513Y15012984D01*
X52036982Y14940508D01*
X51934492Y14838018D01*
X51862016Y14712487D01*
X51862015Y14712485D01*
X51824500Y14572476D01*
X48500000Y14572476D01*
X48500000Y20212476D01*
X51449500Y20212476D01*
X51449500Y20067525D01*
X51487015Y19927516D01*
X51487016Y19927514D01*
X51559492Y19801983D01*
X51661982Y19699493D01*
X51661984Y19699492D01*
X51661985Y19699491D01*
X51787515Y19627016D01*
X51927525Y19589500D01*
X51927527Y19589500D01*
X52072473Y19589500D01*
X52072475Y19589500D01*
X52212485Y19627016D01*
X52338015Y19699491D01*
X52440509Y19801985D01*
X52512984Y19927515D01*
X52550500Y20067525D01*
X52550500Y20212475D01*
X52512984Y20352485D01*
X52458141Y20447476D01*
X54549500Y20447476D01*
X54549500Y20302525D01*
X54587015Y20162516D01*
X54587016Y20162514D01*
X54659492Y20036983D01*
X54761982Y19934493D01*
X54761984Y19934492D01*
X54761985Y19934491D01*
X54887515Y19862016D01*
X55027525Y19824500D01*
X55027527Y19824500D01*
X55172473Y19824500D01*
X55172475Y19824500D01*
X55312485Y19862016D01*
X55438015Y19934491D01*
X55540509Y20036985D01*
X55612984Y20162515D01*
X55650500Y20302525D01*
X55650500Y20447475D01*
X55612984Y20587485D01*
X55540509Y20713015D01*
X55540508Y20713016D01*
X55540507Y20713018D01*
X55438017Y20815508D01*
X55312486Y20887984D01*
X55312484Y20887985D01*
X55172475Y20925500D01*
X55027525Y20925500D01*
X55027524Y20925500D01*
X54887515Y20887985D01*
X54887513Y20887984D01*
X54761982Y20815508D01*
X54659492Y20713018D01*
X54587016Y20587487D01*
X54587015Y20587485D01*
X54549500Y20447476D01*
X52458141Y20447476D01*
X52440509Y20478015D01*
X52440508Y20478016D01*
X52440507Y20478018D01*
X52338017Y20580508D01*
X52212486Y20652984D01*
X52212484Y20652985D01*
X52072475Y20690500D01*
X51927525Y20690500D01*
X51927524Y20690500D01*
X51787515Y20652985D01*
X51787513Y20652984D01*
X51661982Y20580508D01*
X51559492Y20478018D01*
X51487016Y20352487D01*
X51487015Y20352485D01*
X51449500Y20212476D01*
X48500000Y20212476D01*
X48500000Y23072476D01*
X57449500Y23072476D01*
X57449500Y22927525D01*
X57487015Y22787516D01*
X57487016Y22787514D01*
X57559492Y22661983D01*
X57661982Y22559493D01*
X57661984Y22559492D01*
X57661985Y22559491D01*
X57787515Y22487016D01*
X57927525Y22449500D01*
X57927527Y22449500D01*
X58072473Y22449500D01*
X58072475Y22449500D01*
X58212485Y22487016D01*
X58338015Y22559491D01*
X58440509Y22661985D01*
X58512984Y22787515D01*
X58550500Y22927525D01*
X58550500Y23072475D01*
X58512984Y23212485D01*
X58440509Y23338015D01*
X58440508Y23338016D01*
X58440507Y23338018D01*
X58338017Y23440508D01*
X58212486Y23512984D01*
X58212484Y23512985D01*
X58072475Y23550500D01*
X57927525Y23550500D01*
X57927524Y23550500D01*
X57787515Y23512985D01*
X57787513Y23512984D01*
X57661982Y23440508D01*
X57559492Y23338018D01*
X57487016Y23212487D01*
X57487015Y23212485D01*
X57449500Y23072476D01*
X48500000Y23072476D01*
X48500000Y24747476D01*
X54449500Y24747476D01*
X54449500Y24602525D01*
X54487015Y24462516D01*
X54487016Y24462514D01*
X54559492Y24336983D01*
X54661982Y24234493D01*
X54661984Y24234492D01*
X54661985Y24234491D01*
X54787515Y24162016D01*
X54927525Y24124500D01*
X54927527Y24124500D01*
X55072473Y24124500D01*
X55072475Y24124500D01*
X55212485Y24162016D01*
X55338015Y24234491D01*
X55440509Y24336985D01*
X55512984Y24462515D01*
X55550500Y24602525D01*
X55550500Y24747475D01*
X55550500Y24747476D01*
X56449500Y24747476D01*
X56449500Y24602525D01*
X56487015Y24462516D01*
X56487016Y24462514D01*
X56559492Y24336983D01*
X56661982Y24234493D01*
X56661984Y24234492D01*
X56661985Y24234491D01*
X56787515Y24162016D01*
X56927525Y24124500D01*
X56927527Y24124500D01*
X57072473Y24124500D01*
X57072475Y24124500D01*
X57212485Y24162016D01*
X57338015Y24234491D01*
X57440509Y24336985D01*
X57512984Y24462515D01*
X57550500Y24602525D01*
X57550500Y24747475D01*
X57512984Y24887485D01*
X57440509Y25013015D01*
X57440508Y25013016D01*
X57440507Y25013018D01*
X57338017Y25115508D01*
X57212486Y25187984D01*
X57212484Y25187985D01*
X57072475Y25225500D01*
X56927525Y25225500D01*
X56927524Y25225500D01*
X56787515Y25187985D01*
X56787513Y25187984D01*
X56661982Y25115508D01*
X56559492Y25013018D01*
X56487016Y24887487D01*
X56487015Y24887485D01*
X56449500Y24747476D01*
X55550500Y24747476D01*
X55512984Y24887485D01*
X55440509Y25013015D01*
X55440508Y25013016D01*
X55440507Y25013018D01*
X55338017Y25115508D01*
X55212486Y25187984D01*
X55212484Y25187985D01*
X55072475Y25225500D01*
X54927525Y25225500D01*
X54927524Y25225500D01*
X54787515Y25187985D01*
X54787513Y25187984D01*
X54661982Y25115508D01*
X54559492Y25013018D01*
X54487016Y24887487D01*
X54487015Y24887485D01*
X54449500Y24747476D01*
X48500000Y24747476D01*
X48500000Y26397476D01*
X54449500Y26397476D01*
X54449500Y26252525D01*
X54487015Y26112516D01*
X54487016Y26112514D01*
X54559492Y25986983D01*
X54661982Y25884493D01*
X54661984Y25884492D01*
X54661985Y25884491D01*
X54787515Y25812016D01*
X54927525Y25774500D01*
X54927527Y25774500D01*
X55072473Y25774500D01*
X55072475Y25774500D01*
X55212485Y25812016D01*
X55338015Y25884491D01*
X55440509Y25986985D01*
X55512984Y26112515D01*
X55550500Y26252525D01*
X55550500Y26397475D01*
X55512984Y26537485D01*
X55440509Y26663015D01*
X55440508Y26663016D01*
X55440507Y26663018D01*
X55338017Y26765508D01*
X55212486Y26837984D01*
X55212484Y26837985D01*
X55072475Y26875500D01*
X54927525Y26875500D01*
X54927524Y26875500D01*
X54787515Y26837985D01*
X54787513Y26837984D01*
X54661982Y26765508D01*
X54559492Y26663018D01*
X54487016Y26537487D01*
X54487015Y26537485D01*
X54449500Y26397476D01*
X48500000Y26397476D01*
X48500000Y31947476D01*
X51649500Y31947476D01*
X51649500Y31802525D01*
X51687015Y31662516D01*
X51687016Y31662514D01*
X51759492Y31536983D01*
X51861982Y31434493D01*
X51861984Y31434492D01*
X51861985Y31434491D01*
X51987515Y31362016D01*
X52127525Y31324500D01*
X52127527Y31324500D01*
X52272473Y31324500D01*
X52272475Y31324500D01*
X52412485Y31362016D01*
X52538015Y31434491D01*
X52640509Y31536985D01*
X52712984Y31662515D01*
X52750500Y31802525D01*
X52750500Y31947475D01*
X52712984Y32087485D01*
X52640509Y32213015D01*
X52640508Y32213016D01*
X52640507Y32213018D01*
X52538017Y32315508D01*
X52412486Y32387984D01*
X52412484Y32387985D01*
X52272475Y32425500D01*
X52127525Y32425500D01*
X52127524Y32425500D01*
X51987515Y32387985D01*
X51987513Y32387984D01*
X51861982Y32315508D01*
X51759492Y32213018D01*
X51687016Y32087487D01*
X51687015Y32087485D01*
X51649500Y31947476D01*
X48500000Y31947476D01*
X48500000Y32282501D01*
X48518482Y32333281D01*
X48565270Y32360299D01*
X48647233Y32374762D01*
X48802336Y32447114D01*
X48933427Y32557145D01*
X49295896Y33074960D01*
X49304743Y33085506D01*
X49320130Y33100891D01*
X49347037Y33147498D01*
X49350728Y33153291D01*
X49381574Y33197355D01*
X49389007Y33217789D01*
X49394827Y33230271D01*
X49405704Y33249109D01*
X49419630Y33301087D01*
X49421694Y33307632D01*
X49440088Y33358188D01*
X49440087Y33358188D01*
X49440089Y33358190D01*
X49441981Y33379863D01*
X49444373Y33393428D01*
X49450000Y33414426D01*
X49450000Y33468222D01*
X49450300Y33475097D01*
X49454981Y33528688D01*
X49451202Y33550103D01*
X49450000Y33563832D01*
X49450000Y35981972D01*
X49450097Y35985878D01*
X49458457Y36154738D01*
X55249500Y36154738D01*
X55249500Y35925263D01*
X55279451Y35697762D01*
X55338839Y35476121D01*
X55338845Y35476105D01*
X55426653Y35264117D01*
X55541387Y35065391D01*
X55541390Y35065387D01*
X55681083Y34883337D01*
X55681089Y34883330D01*
X55843329Y34721090D01*
X55843336Y34721084D01*
X55843339Y34721081D01*
X56025388Y34581389D01*
X56224112Y34466656D01*
X56224113Y34466656D01*
X56224116Y34466654D01*
X56342355Y34417678D01*
X56436113Y34378842D01*
X56436118Y34378841D01*
X56436120Y34378840D01*
X56657761Y34319452D01*
X56885263Y34289500D01*
X56885266Y34289500D01*
X57114737Y34289500D01*
X57342238Y34319452D01*
X57563887Y34378842D01*
X57775888Y34466656D01*
X57974612Y34581389D01*
X58156661Y34721081D01*
X58318919Y34883339D01*
X58458611Y35065388D01*
X58573344Y35264112D01*
X58661158Y35476113D01*
X58720548Y35697762D01*
X58750500Y35925266D01*
X58750500Y36154734D01*
X58750500Y36154738D01*
X58720548Y36382239D01*
X58661160Y36603880D01*
X58661159Y36603882D01*
X58661158Y36603887D01*
X58573344Y36815888D01*
X58458611Y37014612D01*
X58318919Y37196661D01*
X58318916Y37196664D01*
X58318910Y37196671D01*
X58156670Y37358911D01*
X58156663Y37358917D01*
X58156661Y37358919D01*
X57974612Y37498611D01*
X57775888Y37613344D01*
X57775883Y37613347D01*
X57563895Y37701155D01*
X57563879Y37701161D01*
X57342238Y37760549D01*
X57114737Y37790500D01*
X57114734Y37790500D01*
X56885266Y37790500D01*
X56885263Y37790500D01*
X56657761Y37760549D01*
X56436120Y37701161D01*
X56436104Y37701155D01*
X56224116Y37613347D01*
X56025390Y37498613D01*
X56025386Y37498610D01*
X55843336Y37358917D01*
X55843329Y37358911D01*
X55681089Y37196671D01*
X55681083Y37196664D01*
X55541390Y37014614D01*
X55541387Y37014610D01*
X55426653Y36815884D01*
X55338845Y36603896D01*
X55338839Y36603880D01*
X55279451Y36382239D01*
X55249500Y36154738D01*
X49458457Y36154738D01*
X49458778Y36161226D01*
X49501024Y37014614D01*
X49553436Y38073331D01*
X49517368Y38240636D01*
X49439228Y38392904D01*
X49324338Y38519760D01*
X49203662Y38597633D01*
X49180534Y38612558D01*
X49017607Y38664975D01*
X48846670Y38673437D01*
X48679369Y38637371D01*
X48679365Y38637370D01*
X48679365Y38637369D01*
X48615067Y38604373D01*
X48561451Y38597633D01*
X48516045Y38626933D01*
X48500000Y38674659D01*
X48500000Y43700885D01*
X48518482Y43751665D01*
X48523139Y43756746D01*
X48642754Y43876361D01*
X48691730Y43899199D01*
X48698615Y43899500D01*
X49514253Y43899500D01*
X49565033Y43881018D01*
G37*
%TD.AperFunction*%
%TD*%
M02*
