%TF.GenerationSoftware,KiCad,Pcbnew,10.0.6*%
%TF.CreationDate,2026-10-10T14:59:28-04:00*%
%TF.ProjectId,PS-GAN-60W,50532d47-414e-42d3-9630-572e6b696361,A4 REVIEW - NOT FOR FABRICATION*%
%TF.SameCoordinates,Original*%
%TF.FileFunction,Copper,L4,Inr*%
%TF.FilePolarity,Positive*%
%FSLAX46Y46*%
G04 Gerber Fmt 4.6, Leading zero omitted, Abs format (unit mm)*
G04 Created by KiCad (PCBNEW 10.0.6) date 2026-10-10 14:59:28*
%MOMM*%
%LPD*%
G01*
G04 APERTURE LIST*
%TA.AperFunction,ComponentPad*%
%ADD10R,3.000000X3.000000*%
%TD*%
%TA.AperFunction,ComponentPad*%
%ADD11C,3.000000*%
%TD*%
%TA.AperFunction,ComponentPad*%
%ADD12C,0.600000*%
%TD*%
%TA.AperFunction,ViaPad*%
%ADD13C,0.600000*%
%TD*%
%TA.AperFunction,Conductor*%
%ADD14C,0.300000*%
%TD*%
%TA.AperFunction,Conductor*%
%ADD15C,0.200000*%
%TD*%
%TA.AperFunction,Conductor*%
%ADD16C,0.800000*%
%TD*%
%TA.AperFunction,Conductor*%
%ADD17C,0.700000*%
%TD*%
%TA.AperFunction,Conductor*%
%ADD18C,0.250000*%
%TD*%
%TA.AperFunction,Conductor*%
%ADD19C,0.500000*%
%TD*%
%TA.AperFunction,Conductor*%
%ADD20C,1.000000*%
%TD*%
G04 APERTURE END LIST*
D10*
%TO.N,PGND*%
%TO.C,J1*%
X57000000Y30960000D03*
D11*
%TO.N,/VIN_RAW*%
X57000000Y36040000D03*
%TD*%
D10*
%TO.N,SGND*%
%TO.C,J2*%
X5000000Y36040000D03*
D11*
%TO.N,VOUT*%
X5000000Y30960000D03*
%TD*%
D12*
%TO.N,Net-(T1-P_DOT)*%
%TO.C,T1*%
X42537772Y33735180D03*
%TO.N,/TANK_C*%
X42537772Y39264820D03*
%TO.N,Net-(T1-S_DOT)*%
X15462228Y39264820D03*
%TO.N,VOUT*%
X18800000Y36500000D03*
%TO.N,Net-(T1-S_END)*%
X15462228Y33735180D03*
%TO.N,unconnected-(T1-P_MID-Pad6)*%
X39200000Y36500000D03*
%TD*%
D13*
%TO.N,AGND*%
X47100000Y28200000D03*
X49925000Y47500000D03*
X29800000Y14325000D03*
X40950000Y18150000D03*
X37000000Y21325000D03*
X49000000Y53000000D03*
X26950000Y6130000D03*
X36600000Y14370000D03*
X43000000Y28975000D03*
X49925000Y44300000D03*
X30575000Y21000000D03*
X44000000Y28500000D03*
X57825000Y43100000D03*
X38200000Y16375000D03*
X29800000Y18575000D03*
X42950000Y25200000D03*
X26950000Y13730000D03*
X33125000Y11600000D03*
X61500000Y42825000D03*
%TO.N,BIAS12*%
X36600000Y15630000D03*
X40100000Y8825000D03*
X47100000Y29150000D03*
X42300000Y21325000D03*
X53975000Y11800000D03*
X38200000Y14825000D03*
X47100000Y27250000D03*
X43000000Y27425000D03*
%TO.N,Net-(U4-EN{slash}UVLO)*%
X57000000Y24675000D03*
X55000000Y26325000D03*
X52000000Y20140000D03*
%TO.N,Net-(U4-FB)*%
X42300000Y18225000D03*
X42300000Y14975000D03*
%TO.N,Net-(U4-SW)*%
X52375000Y14500000D03*
X47500000Y14450000D03*
%TO.N,Net-(C17-Pad2)*%
X40800000Y21375000D03*
X38800000Y26175000D03*
%TO.N,Net-(U2-DT)*%
X31400000Y16900000D03*
X31475000Y11600000D03*
%TO.N,/FB_COL*%
X31400000Y8725000D03*
X26950000Y16270000D03*
%TO.N,Net-(U6-CA)*%
X13575000Y11600000D03*
X18450000Y16240000D03*
X21500000Y19225000D03*
X20650000Y13730000D03*
%TO.N,Net-(U6-AN)*%
X18625000Y20000000D03*
X20650000Y16270000D03*
%TO.N,Net-(U2-GD1)*%
X56175000Y45000000D03*
X36600000Y16900000D03*
%TO.N,Net-(U2-GD2)*%
X36600000Y13100000D03*
X59500000Y41175000D03*
%TO.N,/LI*%
X61500000Y41175000D03*
X52650000Y43670000D03*
%TO.N,Net-(D2-C)*%
X29025000Y21000000D03*
X40950000Y20050000D03*
X31400000Y14370000D03*
X37000000Y19675000D03*
%TO.N,Net-(U8-AN)*%
X20650000Y8670000D03*
X15000000Y8175000D03*
X13300000Y9825000D03*
%TO.N,Net-(U9-REF)*%
X12000000Y4775000D03*
X16550000Y8640000D03*
X10600000Y9525000D03*
X16725000Y4000000D03*
%TO.N,PGND*%
X40100000Y6475000D03*
X50725000Y34050001D03*
X46975000Y37450000D03*
X46975000Y40250000D03*
X50725000Y34700000D03*
X40100000Y11775000D03*
X52000000Y17600000D03*
X55100000Y17425000D03*
X50770000Y40660000D03*
X48675000Y23500000D03*
X50725000Y35350000D03*
X48400000Y20000000D03*
X52850000Y28925000D03*
X46975000Y41550001D03*
X52200000Y28925000D03*
X46975000Y40900000D03*
X51000000Y39200000D03*
X45000000Y46575000D03*
X49800000Y19000000D03*
X51550000Y28925000D03*
X46975000Y38100000D03*
X61000000Y23000000D03*
X51000000Y38200000D03*
X49000000Y19500000D03*
X39300000Y50690000D03*
X50200000Y40800000D03*
X57000000Y26325000D03*
X48600000Y19000000D03*
X42300000Y16575000D03*
X46975000Y38750000D03*
X49300000Y20100000D03*
X51000000Y37500000D03*
%TO.N,Net-(C23-Pad1)*%
X52425000Y11800000D03*
X54025000Y14500000D03*
X42300000Y13425000D03*
%TO.N,Net-(U2-RT)*%
X31400000Y7075000D03*
X29800000Y12675000D03*
X31400000Y15630000D03*
%TO.N,Net-(T1-S_DOT)*%
X11310000Y42610000D03*
%TO.N,SGND*%
X10000000Y26975000D03*
X12000000Y15825000D03*
X13974999Y48650000D03*
X13849999Y26975000D03*
X17500000Y6160000D03*
X10960000Y39900000D03*
X18275000Y4000000D03*
X12000000Y6425000D03*
X11450000Y33000000D03*
X10990000Y32100000D03*
X17500000Y13760000D03*
X3500000Y20000000D03*
X13974999Y48000000D03*
X15150000Y26975000D03*
X8300000Y41275000D03*
X11640000Y32100000D03*
X11610000Y39900000D03*
X13500000Y34600000D03*
X10310000Y39900000D03*
X14500000Y21975000D03*
X12290000Y32100000D03*
X14500000Y26975000D03*
X8300000Y37130000D03*
X12290000Y31300000D03*
%TO.N,/SS*%
X26950000Y8670000D03*
X31400000Y13100000D03*
X29800000Y17025000D03*
%TO.N,/TANK_C*%
X44025000Y38100000D03*
X38800000Y24625000D03*
%TO.N,V5*%
X51475000Y47500000D03*
X47800000Y30000000D03*
X44900000Y27250000D03*
X46000000Y53000000D03*
%TO.N,Net-(U3-VG2)*%
X13500000Y38400000D03*
X8000000Y33225000D03*
%TO.N,VIN*%
X41550000Y49000000D03*
X52200000Y31875000D03*
X58000000Y23000000D03*
X55100000Y20375000D03*
X39300000Y46310000D03*
X45000000Y43625000D03*
X55000000Y24675000D03*
%TO.N,/VIN_RAW*%
X44450000Y49000000D03*
%TO.N,VOUT*%
X10600000Y7875000D03*
X3500000Y23000000D03*
X11025000Y47350000D03*
X10000000Y24025000D03*
X11025000Y48650000D03*
X13300000Y8175000D03*
X14500000Y19025000D03*
X14500000Y24025000D03*
X13849999Y24025000D03*
X15150000Y24025000D03*
X8300000Y39725000D03*
X13500000Y37130000D03*
X11025000Y48000000D03*
X16975000Y20000000D03*
X10000000Y14175000D03*
%TO.N,Net-(U7-REF)*%
X16550000Y16240000D03*
X12000000Y14175000D03*
X18775000Y11600000D03*
X21500000Y20775000D03*
X10000000Y15825000D03*
%TO.N,Net-(U3-VD1)*%
X15000000Y43825000D03*
X8300000Y34600000D03*
%TO.N,Net-(U3-VD2)*%
X15000000Y30625000D03*
X13500000Y35870000D03*
%TD*%
%TO.N,Net-(U4-SW)*%
D14*
X47500000Y14450000D02*
X49200000Y15200000D01*
X49200000Y15200000D02*
X52375000Y14500000D01*
%TO.N,Net-(D2-C)*%
D15*
X37000000Y19675000D02*
X40950000Y20050000D01*
X35900000Y18400000D02*
X37000000Y19675000D01*
X28300000Y21000000D02*
X29025000Y21000000D01*
X32300000Y18400000D02*
X35900000Y18400000D01*
X31400000Y14370000D02*
X30600000Y15170000D01*
X28300000Y15170000D02*
X28300000Y21000000D01*
X31400000Y14370000D02*
X32300000Y15270001D01*
X30600000Y15170000D02*
X28300000Y15170000D01*
X32300000Y15270001D02*
X32300000Y18400000D01*
%TO.N,Net-(T1-S_DOT)*%
D16*
X13800000Y39264800D02*
X13200000Y41800000D01*
X15462228Y39264820D02*
X13800000Y39264800D01*
X13200000Y41800000D02*
X11310000Y42610000D01*
%TO.N,SGND*%
D15*
X13900000Y34200000D02*
X13900000Y32450000D01*
X13500000Y34600000D02*
X13900000Y34200000D01*
X13900000Y32450000D02*
X12290000Y31300000D01*
%TO.N,/TANK_C*%
D14*
X44025000Y38100000D02*
X44025000Y30500000D01*
X41400000Y28000000D02*
X39500000Y24625000D01*
X39500000Y24625000D02*
X38800000Y24625000D01*
X44025000Y30500000D02*
X41400000Y30500000D01*
X41400000Y30500000D02*
X41400000Y28000000D01*
%TO.N,VIN*%
D17*
X54400000Y32500000D02*
X52200000Y31875000D01*
D16*
X43000000Y49000000D02*
X43800000Y47700000D01*
D17*
X54400000Y49000000D02*
X54400000Y32500000D01*
D16*
X54000000Y30000000D02*
X56000000Y28000000D01*
D18*
X55100000Y20375000D02*
X55000000Y24675000D01*
D16*
X58400000Y20375000D02*
X55100000Y20375000D01*
D19*
X58400000Y20375000D02*
X58000000Y23000000D01*
D16*
X56000000Y28000000D02*
X58400000Y28000000D01*
D19*
X55100000Y20375000D02*
X58400000Y20375000D01*
D20*
X41550000Y46000000D02*
X39300000Y46310000D01*
D16*
X43800000Y47700000D02*
X43800000Y43625000D01*
D17*
X47200000Y47800000D02*
X47200000Y51000000D01*
D16*
X43800000Y43625000D02*
X45000000Y43625000D01*
D17*
X53600000Y51000000D02*
X54400000Y49000000D01*
D20*
X41550000Y49000000D02*
X41550000Y46000000D01*
D16*
X41550000Y49000000D02*
X43000000Y49000000D01*
D17*
X45000000Y43625000D02*
X46000000Y43625000D01*
X47200000Y51000000D02*
X53600000Y51000000D01*
X46000000Y43625000D02*
X46000000Y46600000D01*
D16*
X58400000Y26000000D02*
X58400000Y20375000D01*
X52200000Y31875000D02*
X54000000Y30000000D01*
D17*
X46000000Y46600000D02*
X47200000Y47800000D01*
D16*
X58400000Y28000000D02*
X58400000Y26000000D01*
%TO.N,VOUT*%
D14*
X9400000Y39725000D02*
X9400000Y37800000D01*
X12500000Y37800000D02*
X13500000Y37130000D01*
X9400000Y37800000D02*
X12500000Y37800000D01*
X8300000Y39725000D02*
X9400000Y39725000D01*
%TD*%
M02*
