%TF.GenerationSoftware,KiCad,Pcbnew,10.0.6*%
%TF.CreationDate,2026-10-10T12:18:00-04:00*%
%TF.ProjectId,PS-GAN-60W,50532d47-414e-42d3-9630-572e6b696361,A1 REVIEW - NOT FOR FABRICATION*%
%TF.SameCoordinates,Original*%
%TF.FileFunction,Legend,Top*%
%TF.FilePolarity,Positive*%
%FSLAX46Y46*%
G04 Gerber Fmt 4.6, Leading zero omitted, Abs format (unit mm)*
G04 Created by KiCad (PCBNEW 10.0.6) date 2026-10-10 12:18:00*
%MOMM*%
%LPD*%
G01*
G04 APERTURE LIST*
G04 Aperture macros list*
%AMRoundRect*
0 Rectangle with rounded corners*
0 $1 Rounding radius*
0 $2 $3 $4 $5 $6 $7 $8 $9 X,Y pos of 4 corners*
0 Add a 4 corners polygon primitive as box body*
4,1,4,$2,$3,$4,$5,$6,$7,$8,$9,$2,$3,0*
0 Add four circle primitives for the rounded corners*
1,1,$1+$1,$2,$3*
1,1,$1+$1,$4,$5*
1,1,$1+$1,$6,$7*
1,1,$1+$1,$8,$9*
0 Add four rect primitives between the rounded corners*
20,1,$1+$1,$2,$3,$4,$5,0*
20,1,$1+$1,$4,$5,$6,$7,0*
20,1,$1+$1,$6,$7,$8,$9,0*
20,1,$1+$1,$8,$9,$2,$3,0*%
%AMFreePoly0*
4,1,19,0.385418,0.660373,0.400063,0.625018,0.400063,0.125003,0.400088,0.124943,0.400088,-0.125044,0.385443,-0.160399,0.350088,-0.175044,-0.349910,-0.175044,-0.385265,-0.160399,-0.399910,-0.125044,-0.399910,0.124943,-0.385265,0.160298,-0.349910,0.174943,0.050076,0.174943,0.050076,0.625018,0.064721,0.660373,0.100076,0.675018,0.350063,0.675018,0.385418,0.660373,0.385418,0.660373,
$1*%
%AMFreePoly1*
4,1,45,0.385443,1.285441,0.400088,1.250086,0.400088,-1.249909,0.385443,-1.285264,0.350088,-1.299909,-0.024917,-1.299909,-0.060272,-1.285264,-0.074917,-1.249909,-0.074917,-0.911898,-0.349910,-0.911898,-0.385265,-0.897253,-0.399910,-0.861898,-0.399910,-0.611911,-0.385265,-0.576556,-0.349910,-0.561911,-0.074917,-0.561911,-0.074917,-0.411899,-0.349910,-0.411899,-0.385265,-0.397254,-0.399910,-0.361899,
-0.399910,-0.111912,-0.385265,-0.076557,-0.349910,-0.061912,-0.074917,-0.061912,-0.074917,0.088100,-0.349910,0.088100,-0.385265,0.102745,-0.399910,0.138100,-0.399910,0.388087,-0.385265,0.423442,-0.349910,0.438087,-0.074917,0.438087,-0.074917,0.588099,-0.349910,0.588099,-0.385265,0.602744,-0.399910,0.638099,-0.399910,0.888086,-0.385265,0.923441,-0.349910,0.938086,-0.074917,0.938086,
-0.074917,1.250086,-0.060272,1.285441,-0.024917,1.300086,0.350088,1.300086,0.385443,1.285441,0.385443,1.285441,$1*%
%AMFreePoly2*
4,1,37,0.985340,1.483460,0.999985,1.448105,0.999985,-1.447902,0.985340,-1.483257,0.949985,-1.497902,0.499986,-1.497902,0.499986,-1.772844,0.485341,-1.808199,0.449986,-1.822844,0.200000,-1.822844,0.164645,-1.808199,0.150000,-1.772844,0.150000,-1.497902,-0.000013,-1.497902,-0.000013,-1.772844,-0.014658,-1.808199,-0.050013,-1.822844,-0.299999,-1.822844,-0.335354,-1.808199,-0.349999,-1.772844,
-0.349999,-1.497902,-0.500012,-1.497902,-0.500012,-1.772844,-0.514657,-1.808199,-0.550012,-1.822844,-0.799998,-1.822844,-0.835353,-1.808199,-0.849998,-1.772844,-0.849998,-1.497902,-0.950011,-1.497902,-0.985366,-1.483257,-1.000011,-1.447902,-1.000011,1.448105,-0.985366,1.483460,-0.950011,1.498105,0.949985,1.498105,0.985340,1.483460,0.985340,1.483460,$1*%
%AMFreePoly3*
4,1,51,0.024920,1.300086,0.060275,1.285439,0.074917,1.250086,0.074917,0.912097,0.349914,0.912076,0.385268,0.897429,0.399910,0.862076,0.399910,0.612115,0.385265,0.576760,0.349914,0.562115,0.074917,0.562092,0.074917,0.412080,0.349906,0.412102,0.385263,0.397460,0.399910,0.362106,0.399910,0.112090,0.385265,0.076735,0.349910,0.062090,0.074917,0.062111,0.074917,-0.087900,
0.349914,-0.087922,0.385268,-0.102569,0.399910,-0.137922,0.399910,-0.387883,0.385265,-0.423238,0.349910,-0.437883,0.074917,-0.437883,0.074917,-0.587917,0.349906,-0.587896,0.385263,-0.602538,0.399910,-0.637892,0.399910,-0.887882,0.385265,-0.923237,0.349914,-0.937882,0.074917,-0.937904,0.074917,-1.249909,0.060272,-1.285264,0.024917,-1.299909,-0.350091,-1.299883,-0.385446,-1.285236,
-0.400088,-1.249887,-0.400114,-0.887903,-0.400088,-0.637891,-0.400088,-0.387888,-0.400114,-0.137902,-0.400114,0.112121,-0.400088,0.362107,-0.400088,1.250112,-0.385443,1.285467,-0.350088,1.300112,0.024920,1.300086,0.024920,1.300086,$1*%
%AMFreePoly4*
4,1,19,-0.064721,0.660805,-0.050076,0.625450,-0.050076,0.175019,0.349961,0.175019,0.385316,0.160374,0.399961,0.125019,0.399961,-0.125070,0.385316,-0.160425,0.349961,-0.175070,-0.350037,-0.175070,-0.385392,-0.160425,-0.400037,-0.125070,-0.400037,-0.074611,-0.400063,-0.074549,-0.400063,0.625450,-0.385418,0.660805,-0.350063,0.675450,-0.100076,0.675450,-0.064721,0.660805,-0.064721,0.660805,
$1*%
%AMFreePoly5*
4,1,17,1.210369,0.700672,1.225029,0.665323,1.225029,-0.664693,1.210384,-0.700048,1.175029,-0.714693,-0.724967,-0.714693,-0.760322,-0.700048,-0.774967,-0.664693,-0.774967,-0.600697,-1.174979,-0.600697,-1.210334,-0.586052,-1.224979,-0.550696,-1.224953,0.664313,-1.210308,0.699668,-1.174974,0.714312,1.175008,0.715302,1.210369,0.700672,1.210369,0.700672,$1*%
G04 Aperture macros list end*
%ADD10C,0.150000*%
%ADD11C,0.000000*%
%ADD12R,1.300000X0.560000*%
%ADD13RoundRect,0.250000X-0.325000X-1.100000X0.325000X-1.100000X0.325000X1.100000X-0.325000X1.100000X0*%
%ADD14RoundRect,0.200000X0.275000X-0.200000X0.275000X0.200000X-0.275000X0.200000X-0.275000X-0.200000X0*%
%ADD15C,1.200000*%
%ADD16C,3.200000*%
%ADD17RoundRect,0.225000X0.250000X-0.225000X0.250000X0.225000X-0.250000X0.225000X-0.250000X-0.225000X0*%
%ADD18O,1.800000X0.588000*%
%ADD19R,0.300000X0.680000*%
%ADD20R,0.300000X0.600000*%
%ADD21R,2.650000X2.000000*%
%ADD22RoundRect,0.250000X-0.250000X-0.475000X0.250000X-0.475000X0.250000X0.475000X-0.250000X0.475000X0*%
%ADD23RoundRect,0.250000X1.100000X-0.325000X1.100000X0.325000X-1.100000X0.325000X-1.100000X-0.325000X0*%
%ADD24RoundRect,0.250000X0.750000X0.650000X-0.750000X0.650000X-0.750000X-0.650000X0.750000X-0.650000X0*%
%ADD25R,0.600000X1.070000*%
%ADD26RoundRect,0.225000X-0.225000X-0.250000X0.225000X-0.250000X0.225000X0.250000X-0.225000X0.250000X0*%
%ADD27R,1.000000X0.800000*%
%ADD28C,3.000000*%
%ADD29RoundRect,0.200000X-0.200000X-0.275000X0.200000X-0.275000X0.200000X0.275000X-0.200000X0.275000X0*%
%ADD30FreePoly0,0.000000*%
%ADD31R,0.700000X0.250000*%
%ADD32FreePoly1,0.000000*%
%ADD33FreePoly2,0.000000*%
%ADD34FreePoly3,0.000000*%
%ADD35FreePoly4,0.000000*%
%ADD36R,0.250000X0.700000*%
%ADD37FreePoly5,0.000000*%
%ADD38C,1.400000*%
%ADD39RoundRect,0.770000X-0.980000X0.980000X-0.980000X-0.980000X0.980000X-0.980000X0.980000X0.980000X0*%
%ADD40C,3.500000*%
%ADD41RoundRect,0.770000X0.980000X-0.980000X0.980000X0.980000X-0.980000X0.980000X-0.980000X-0.980000X0*%
%ADD42RoundRect,0.250000X-1.100000X0.325000X-1.100000X-0.325000X1.100000X-0.325000X1.100000X0.325000X0*%
%ADD43R,1.190000X1.728000*%
%ADD44RoundRect,0.250000X0.325000X0.650000X-0.325000X0.650000X-0.325000X-0.650000X0.325000X-0.650000X0*%
%ADD45R,1.000000X0.600000*%
%ADD46R,2.500000X3.500000*%
%ADD47C,0.600000*%
%ADD48RoundRect,0.200000X0.200000X0.275000X-0.200000X0.275000X-0.200000X-0.275000X0.200000X-0.275000X0*%
%ADD49R,1.700000X1.800000*%
%ADD50RoundRect,0.250000X-0.325000X-0.650000X0.325000X-0.650000X0.325000X0.650000X-0.325000X0.650000X0*%
%ADD51O,1.600000X0.600000*%
%ADD52R,2.500000X3.200000*%
G04 APERTURE END LIST*
D10*
X54176190Y57337705D02*
X53795238Y57337705D01*
X53795238Y57337705D02*
X53757142Y56956753D01*
X53757142Y56956753D02*
X53795238Y56994848D01*
X53795238Y56994848D02*
X53871428Y57032943D01*
X53871428Y57032943D02*
X54061904Y57032943D01*
X54061904Y57032943D02*
X54138095Y56994848D01*
X54138095Y56994848D02*
X54176190Y56956753D01*
X54176190Y56956753D02*
X54214285Y56880562D01*
X54214285Y56880562D02*
X54214285Y56690086D01*
X54214285Y56690086D02*
X54176190Y56613896D01*
X54176190Y56613896D02*
X54138095Y56575800D01*
X54138095Y56575800D02*
X54061904Y56537705D01*
X54061904Y56537705D02*
X53871428Y56537705D01*
X53871428Y56537705D02*
X53795238Y56575800D01*
X53795238Y56575800D02*
X53757142Y56613896D01*
X54442857Y57337705D02*
X54709524Y56537705D01*
X54709524Y56537705D02*
X54976190Y57337705D01*
X56423809Y56766277D02*
X56804762Y56766277D01*
X56347619Y56537705D02*
X56614286Y57337705D01*
X56614286Y57337705D02*
X56880952Y56537705D01*
X57566666Y57299610D02*
X57490476Y57337705D01*
X57490476Y57337705D02*
X57376190Y57337705D01*
X57376190Y57337705D02*
X57261904Y57299610D01*
X57261904Y57299610D02*
X57185714Y57223420D01*
X57185714Y57223420D02*
X57147619Y57147229D01*
X57147619Y57147229D02*
X57109523Y56994848D01*
X57109523Y56994848D02*
X57109523Y56880562D01*
X57109523Y56880562D02*
X57147619Y56728181D01*
X57147619Y56728181D02*
X57185714Y56651991D01*
X57185714Y56651991D02*
X57261904Y56575800D01*
X57261904Y56575800D02*
X57376190Y56537705D01*
X57376190Y56537705D02*
X57452381Y56537705D01*
X57452381Y56537705D02*
X57566666Y56575800D01*
X57566666Y56575800D02*
X57604762Y56613896D01*
X57604762Y56613896D02*
X57604762Y56880562D01*
X57604762Y56880562D02*
X57452381Y56880562D01*
X57947619Y56537705D02*
X57947619Y57337705D01*
X57947619Y57337705D02*
X58404762Y56537705D01*
X58404762Y56537705D02*
X58404762Y57337705D01*
X58785714Y56537705D02*
X58785714Y57337705D01*
X58785714Y57337705D02*
X58976190Y57337705D01*
X58976190Y57337705D02*
X59090476Y57299610D01*
X59090476Y57299610D02*
X59166666Y57223420D01*
X59166666Y57223420D02*
X59204761Y57147229D01*
X59204761Y57147229D02*
X59242857Y56994848D01*
X59242857Y56994848D02*
X59242857Y56880562D01*
X59242857Y56880562D02*
X59204761Y56728181D01*
X59204761Y56728181D02*
X59166666Y56651991D01*
X59166666Y56651991D02*
X59090476Y56575800D01*
X59090476Y56575800D02*
X58976190Y56537705D01*
X58976190Y56537705D02*
X58785714Y56537705D01*
X5701191Y14614573D02*
X5215476Y14614573D01*
X5458333Y14614573D02*
X5458333Y15464573D01*
X5458333Y15464573D02*
X5377381Y15343145D01*
X5377381Y15343145D02*
X5296429Y15262192D01*
X5296429Y15262192D02*
X5215476Y15221716D01*
X6025000Y15383621D02*
X6065476Y15424097D01*
X6065476Y15424097D02*
X6146429Y15464573D01*
X6146429Y15464573D02*
X6348810Y15464573D01*
X6348810Y15464573D02*
X6429762Y15424097D01*
X6429762Y15424097D02*
X6470238Y15383621D01*
X6470238Y15383621D02*
X6510715Y15302669D01*
X6510715Y15302669D02*
X6510715Y15221716D01*
X6510715Y15221716D02*
X6470238Y15100288D01*
X6470238Y15100288D02*
X5984524Y14614573D01*
X5984524Y14614573D02*
X6510715Y14614573D01*
X6753572Y15464573D02*
X7036905Y14614573D01*
X7036905Y14614573D02*
X7320239Y15464573D01*
X8736905Y14614573D02*
X8453571Y15019335D01*
X8251190Y14614573D02*
X8251190Y15464573D01*
X8251190Y15464573D02*
X8575000Y15464573D01*
X8575000Y15464573D02*
X8655952Y15424097D01*
X8655952Y15424097D02*
X8696429Y15383621D01*
X8696429Y15383621D02*
X8736905Y15302669D01*
X8736905Y15302669D02*
X8736905Y15181240D01*
X8736905Y15181240D02*
X8696429Y15100288D01*
X8696429Y15100288D02*
X8655952Y15059811D01*
X8655952Y15059811D02*
X8575000Y15019335D01*
X8575000Y15019335D02*
X8251190Y15019335D01*
X9101190Y15059811D02*
X9384524Y15059811D01*
X9505952Y14614573D02*
X9101190Y14614573D01*
X9101190Y14614573D02*
X9101190Y15464573D01*
X9101190Y15464573D02*
X9505952Y15464573D01*
X9748810Y15464573D02*
X10234524Y15464573D01*
X9991667Y14614573D02*
X9991667Y15464573D01*
X10517857Y15464573D02*
X10517857Y14776478D01*
X10517857Y14776478D02*
X10558334Y14695526D01*
X10558334Y14695526D02*
X10598810Y14655049D01*
X10598810Y14655049D02*
X10679762Y14614573D01*
X10679762Y14614573D02*
X10841667Y14614573D01*
X10841667Y14614573D02*
X10922619Y14655049D01*
X10922619Y14655049D02*
X10963096Y14695526D01*
X10963096Y14695526D02*
X11003572Y14776478D01*
X11003572Y14776478D02*
X11003572Y15464573D01*
X11894048Y14614573D02*
X11610714Y15019335D01*
X11408333Y14614573D02*
X11408333Y15464573D01*
X11408333Y15464573D02*
X11732143Y15464573D01*
X11732143Y15464573D02*
X11813095Y15424097D01*
X11813095Y15424097D02*
X11853572Y15383621D01*
X11853572Y15383621D02*
X11894048Y15302669D01*
X11894048Y15302669D02*
X11894048Y15181240D01*
X11894048Y15181240D02*
X11853572Y15100288D01*
X11853572Y15100288D02*
X11813095Y15059811D01*
X11813095Y15059811D02*
X11732143Y15019335D01*
X11732143Y15019335D02*
X11408333Y15019335D01*
X12258333Y14614573D02*
X12258333Y15464573D01*
X12258333Y15464573D02*
X12744048Y14614573D01*
X12744048Y14614573D02*
X12744048Y15464573D01*
X7780953Y22414573D02*
X7295238Y22414573D01*
X7538095Y22414573D02*
X7538095Y23264573D01*
X7538095Y23264573D02*
X7457143Y23143145D01*
X7457143Y23143145D02*
X7376191Y23062192D01*
X7376191Y23062192D02*
X7295238Y23021716D01*
X8104762Y23183621D02*
X8145238Y23224097D01*
X8145238Y23224097D02*
X8226191Y23264573D01*
X8226191Y23264573D02*
X8428572Y23264573D01*
X8428572Y23264573D02*
X8509524Y23224097D01*
X8509524Y23224097D02*
X8550000Y23183621D01*
X8550000Y23183621D02*
X8590477Y23102669D01*
X8590477Y23102669D02*
X8590477Y23021716D01*
X8590477Y23021716D02*
X8550000Y22900288D01*
X8550000Y22900288D02*
X8064286Y22414573D01*
X8064286Y22414573D02*
X8590477Y22414573D01*
X8833334Y23264573D02*
X9116667Y22414573D01*
X9116667Y22414573D02*
X9400001Y23264573D01*
X11423810Y23224097D02*
X11342857Y23264573D01*
X11342857Y23264573D02*
X11221429Y23264573D01*
X11221429Y23264573D02*
X11100000Y23224097D01*
X11100000Y23224097D02*
X11019048Y23143145D01*
X11019048Y23143145D02*
X10978571Y23062192D01*
X10978571Y23062192D02*
X10938095Y22900288D01*
X10938095Y22900288D02*
X10938095Y22778859D01*
X10938095Y22778859D02*
X10978571Y22616954D01*
X10978571Y22616954D02*
X11019048Y22536002D01*
X11019048Y22536002D02*
X11100000Y22455049D01*
X11100000Y22455049D02*
X11221429Y22414573D01*
X11221429Y22414573D02*
X11302381Y22414573D01*
X11302381Y22414573D02*
X11423810Y22455049D01*
X11423810Y22455049D02*
X11464286Y22495526D01*
X11464286Y22495526D02*
X11464286Y22778859D01*
X11464286Y22778859D02*
X11302381Y22778859D01*
X11828571Y22414573D02*
X11828571Y23264573D01*
X11828571Y23264573D02*
X12314286Y22414573D01*
X12314286Y22414573D02*
X12314286Y23264573D01*
X12719047Y22414573D02*
X12719047Y23264573D01*
X12719047Y23264573D02*
X12921428Y23264573D01*
X12921428Y23264573D02*
X13042857Y23224097D01*
X13042857Y23224097D02*
X13123809Y23143145D01*
X13123809Y23143145D02*
X13164286Y23062192D01*
X13164286Y23062192D02*
X13204762Y22900288D01*
X13204762Y22900288D02*
X13204762Y22778859D01*
X13204762Y22778859D02*
X13164286Y22616954D01*
X13164286Y22616954D02*
X13123809Y22536002D01*
X13123809Y22536002D02*
X13042857Y22455049D01*
X13042857Y22455049D02*
X12921428Y22414573D01*
X12921428Y22414573D02*
X12719047Y22414573D01*
X67620238Y15181240D02*
X67620238Y14614573D01*
X67417857Y15505049D02*
X67215476Y14897907D01*
X67215476Y14897907D02*
X67741667Y14897907D01*
X68186905Y15100288D02*
X68105953Y15140764D01*
X68105953Y15140764D02*
X68065476Y15181240D01*
X68065476Y15181240D02*
X68025000Y15262192D01*
X68025000Y15262192D02*
X68025000Y15302669D01*
X68025000Y15302669D02*
X68065476Y15383621D01*
X68065476Y15383621D02*
X68105953Y15424097D01*
X68105953Y15424097D02*
X68186905Y15464573D01*
X68186905Y15464573D02*
X68348810Y15464573D01*
X68348810Y15464573D02*
X68429762Y15424097D01*
X68429762Y15424097D02*
X68470238Y15383621D01*
X68470238Y15383621D02*
X68510715Y15302669D01*
X68510715Y15302669D02*
X68510715Y15262192D01*
X68510715Y15262192D02*
X68470238Y15181240D01*
X68470238Y15181240D02*
X68429762Y15140764D01*
X68429762Y15140764D02*
X68348810Y15100288D01*
X68348810Y15100288D02*
X68186905Y15100288D01*
X68186905Y15100288D02*
X68105953Y15059811D01*
X68105953Y15059811D02*
X68065476Y15019335D01*
X68065476Y15019335D02*
X68025000Y14938383D01*
X68025000Y14938383D02*
X68025000Y14776478D01*
X68025000Y14776478D02*
X68065476Y14695526D01*
X68065476Y14695526D02*
X68105953Y14655049D01*
X68105953Y14655049D02*
X68186905Y14614573D01*
X68186905Y14614573D02*
X68348810Y14614573D01*
X68348810Y14614573D02*
X68429762Y14655049D01*
X68429762Y14655049D02*
X68470238Y14695526D01*
X68470238Y14695526D02*
X68510715Y14776478D01*
X68510715Y14776478D02*
X68510715Y14938383D01*
X68510715Y14938383D02*
X68470238Y15019335D01*
X68470238Y15019335D02*
X68429762Y15059811D01*
X68429762Y15059811D02*
X68348810Y15100288D01*
X68753572Y15464573D02*
X69036905Y14614573D01*
X69036905Y14614573D02*
X69320239Y15464573D01*
X70736905Y14614573D02*
X70453571Y15019335D01*
X70251190Y14614573D02*
X70251190Y15464573D01*
X70251190Y15464573D02*
X70575000Y15464573D01*
X70575000Y15464573D02*
X70655952Y15424097D01*
X70655952Y15424097D02*
X70696429Y15383621D01*
X70696429Y15383621D02*
X70736905Y15302669D01*
X70736905Y15302669D02*
X70736905Y15181240D01*
X70736905Y15181240D02*
X70696429Y15100288D01*
X70696429Y15100288D02*
X70655952Y15059811D01*
X70655952Y15059811D02*
X70575000Y15019335D01*
X70575000Y15019335D02*
X70251190Y15019335D01*
X71101190Y15059811D02*
X71384524Y15059811D01*
X71505952Y14614573D02*
X71101190Y14614573D01*
X71101190Y14614573D02*
X71101190Y15464573D01*
X71101190Y15464573D02*
X71505952Y15464573D01*
X71748810Y15464573D02*
X72234524Y15464573D01*
X71991667Y14614573D02*
X71991667Y15464573D01*
X72517857Y15464573D02*
X72517857Y14776478D01*
X72517857Y14776478D02*
X72558334Y14695526D01*
X72558334Y14695526D02*
X72598810Y14655049D01*
X72598810Y14655049D02*
X72679762Y14614573D01*
X72679762Y14614573D02*
X72841667Y14614573D01*
X72841667Y14614573D02*
X72922619Y14655049D01*
X72922619Y14655049D02*
X72963096Y14695526D01*
X72963096Y14695526D02*
X73003572Y14776478D01*
X73003572Y14776478D02*
X73003572Y15464573D01*
X73894048Y14614573D02*
X73610714Y15019335D01*
X73408333Y14614573D02*
X73408333Y15464573D01*
X73408333Y15464573D02*
X73732143Y15464573D01*
X73732143Y15464573D02*
X73813095Y15424097D01*
X73813095Y15424097D02*
X73853572Y15383621D01*
X73853572Y15383621D02*
X73894048Y15302669D01*
X73894048Y15302669D02*
X73894048Y15181240D01*
X73894048Y15181240D02*
X73853572Y15100288D01*
X73853572Y15100288D02*
X73813095Y15059811D01*
X73813095Y15059811D02*
X73732143Y15019335D01*
X73732143Y15019335D02*
X73408333Y15019335D01*
X74258333Y14614573D02*
X74258333Y15464573D01*
X74258333Y15464573D02*
X74744048Y14614573D01*
X74744048Y14614573D02*
X74744048Y15464573D01*
X68376191Y23264573D02*
X68659524Y22414573D01*
X68659524Y22414573D02*
X68942858Y23264573D01*
X69226190Y22414573D02*
X69226190Y23264573D01*
X69630952Y22414573D02*
X69630952Y23264573D01*
X69630952Y23264573D02*
X70116667Y22414573D01*
X70116667Y22414573D02*
X70116667Y23264573D01*
X72261905Y23224097D02*
X72180952Y23264573D01*
X72180952Y23264573D02*
X72059524Y23264573D01*
X72059524Y23264573D02*
X71938095Y23224097D01*
X71938095Y23224097D02*
X71857143Y23143145D01*
X71857143Y23143145D02*
X71816666Y23062192D01*
X71816666Y23062192D02*
X71776190Y22900288D01*
X71776190Y22900288D02*
X71776190Y22778859D01*
X71776190Y22778859D02*
X71816666Y22616954D01*
X71816666Y22616954D02*
X71857143Y22536002D01*
X71857143Y22536002D02*
X71938095Y22455049D01*
X71938095Y22455049D02*
X72059524Y22414573D01*
X72059524Y22414573D02*
X72140476Y22414573D01*
X72140476Y22414573D02*
X72261905Y22455049D01*
X72261905Y22455049D02*
X72302381Y22495526D01*
X72302381Y22495526D02*
X72302381Y22778859D01*
X72302381Y22778859D02*
X72140476Y22778859D01*
X72666666Y22414573D02*
X72666666Y23264573D01*
X72666666Y23264573D02*
X73152381Y22414573D01*
X73152381Y22414573D02*
X73152381Y23264573D01*
X73557142Y22414573D02*
X73557142Y23264573D01*
X73557142Y23264573D02*
X73759523Y23264573D01*
X73759523Y23264573D02*
X73880952Y23224097D01*
X73880952Y23224097D02*
X73961904Y23143145D01*
X73961904Y23143145D02*
X74002381Y23062192D01*
X74002381Y23062192D02*
X74042857Y22900288D01*
X74042857Y22900288D02*
X74042857Y22778859D01*
X74042857Y22778859D02*
X74002381Y22616954D01*
X74002381Y22616954D02*
X73961904Y22536002D01*
X73961904Y22536002D02*
X73880952Y22455049D01*
X73880952Y22455049D02*
X73759523Y22414573D01*
X73759523Y22414573D02*
X73557142Y22414573D01*
X5946427Y29218312D02*
X5494046Y29218312D01*
X5494046Y29218312D02*
X5448808Y28765931D01*
X5448808Y28765931D02*
X5494046Y28811170D01*
X5494046Y28811170D02*
X5584522Y28856408D01*
X5584522Y28856408D02*
X5810713Y28856408D01*
X5810713Y28856408D02*
X5901189Y28811170D01*
X5901189Y28811170D02*
X5946427Y28765931D01*
X5946427Y28765931D02*
X5991665Y28675455D01*
X5991665Y28675455D02*
X5991665Y28449265D01*
X5991665Y28449265D02*
X5946427Y28358789D01*
X5946427Y28358789D02*
X5901189Y28313550D01*
X5901189Y28313550D02*
X5810713Y28268312D01*
X5810713Y28268312D02*
X5584522Y28268312D01*
X5584522Y28268312D02*
X5494046Y28313550D01*
X5494046Y28313550D02*
X5448808Y28358789D01*
X6353570Y28539741D02*
X6805951Y28539741D01*
X6263094Y28268312D02*
X6579760Y29218312D01*
X6579760Y29218312D02*
X6896427Y28268312D01*
X7801190Y29218312D02*
X8344047Y29218312D01*
X8072618Y28268312D02*
X8072618Y29218312D01*
X8615476Y28539741D02*
X9067857Y28539741D01*
X8525000Y28268312D02*
X8841666Y29218312D01*
X8841666Y29218312D02*
X9158333Y28268312D01*
X10017857Y28268312D02*
X9701190Y28720693D01*
X9475000Y28268312D02*
X9475000Y29218312D01*
X9475000Y29218312D02*
X9836905Y29218312D01*
X9836905Y29218312D02*
X9927381Y29173074D01*
X9927381Y29173074D02*
X9972619Y29127836D01*
X9972619Y29127836D02*
X10017857Y29037360D01*
X10017857Y29037360D02*
X10017857Y28901646D01*
X10017857Y28901646D02*
X9972619Y28811170D01*
X9972619Y28811170D02*
X9927381Y28765931D01*
X9927381Y28765931D02*
X9836905Y28720693D01*
X9836905Y28720693D02*
X9475000Y28720693D01*
X10922619Y29173074D02*
X10832143Y29218312D01*
X10832143Y29218312D02*
X10696429Y29218312D01*
X10696429Y29218312D02*
X10560714Y29173074D01*
X10560714Y29173074D02*
X10470238Y29082598D01*
X10470238Y29082598D02*
X10425000Y28992122D01*
X10425000Y28992122D02*
X10379762Y28811170D01*
X10379762Y28811170D02*
X10379762Y28675455D01*
X10379762Y28675455D02*
X10425000Y28494503D01*
X10425000Y28494503D02*
X10470238Y28404027D01*
X10470238Y28404027D02*
X10560714Y28313550D01*
X10560714Y28313550D02*
X10696429Y28268312D01*
X10696429Y28268312D02*
X10786905Y28268312D01*
X10786905Y28268312D02*
X10922619Y28313550D01*
X10922619Y28313550D02*
X10967857Y28358789D01*
X10967857Y28358789D02*
X10967857Y28675455D01*
X10967857Y28675455D02*
X10786905Y28675455D01*
X11375000Y28765931D02*
X11691667Y28765931D01*
X11827381Y28268312D02*
X11375000Y28268312D01*
X11375000Y28268312D02*
X11375000Y29218312D01*
X11375000Y29218312D02*
X11827381Y29218312D01*
X12098810Y29218312D02*
X12641667Y29218312D01*
X12370238Y28268312D02*
X12370238Y29218312D01*
X68828571Y28901646D02*
X68828571Y28268312D01*
X68602380Y29263550D02*
X68376190Y28584979D01*
X68376190Y28584979D02*
X68964285Y28584979D01*
X69733333Y29218312D02*
X69552380Y29218312D01*
X69552380Y29218312D02*
X69461904Y29173074D01*
X69461904Y29173074D02*
X69416666Y29127836D01*
X69416666Y29127836D02*
X69326190Y28992122D01*
X69326190Y28992122D02*
X69280952Y28811170D01*
X69280952Y28811170D02*
X69280952Y28449265D01*
X69280952Y28449265D02*
X69326190Y28358789D01*
X69326190Y28358789D02*
X69371428Y28313550D01*
X69371428Y28313550D02*
X69461904Y28268312D01*
X69461904Y28268312D02*
X69642857Y28268312D01*
X69642857Y28268312D02*
X69733333Y28313550D01*
X69733333Y28313550D02*
X69778571Y28358789D01*
X69778571Y28358789D02*
X69823809Y28449265D01*
X69823809Y28449265D02*
X69823809Y28675455D01*
X69823809Y28675455D02*
X69778571Y28765931D01*
X69778571Y28765931D02*
X69733333Y28811170D01*
X69733333Y28811170D02*
X69642857Y28856408D01*
X69642857Y28856408D02*
X69461904Y28856408D01*
X69461904Y28856408D02*
X69371428Y28811170D01*
X69371428Y28811170D02*
X69326190Y28765931D01*
X69326190Y28765931D02*
X69280952Y28675455D01*
X70230952Y28630217D02*
X70954762Y28630217D01*
X71859523Y29218312D02*
X71407142Y29218312D01*
X71407142Y29218312D02*
X71361904Y28765931D01*
X71361904Y28765931D02*
X71407142Y28811170D01*
X71407142Y28811170D02*
X71497618Y28856408D01*
X71497618Y28856408D02*
X71723809Y28856408D01*
X71723809Y28856408D02*
X71814285Y28811170D01*
X71814285Y28811170D02*
X71859523Y28765931D01*
X71859523Y28765931D02*
X71904761Y28675455D01*
X71904761Y28675455D02*
X71904761Y28449265D01*
X71904761Y28449265D02*
X71859523Y28358789D01*
X71859523Y28358789D02*
X71814285Y28313550D01*
X71814285Y28313550D02*
X71723809Y28268312D01*
X71723809Y28268312D02*
X71497618Y28268312D01*
X71497618Y28268312D02*
X71407142Y28313550D01*
X71407142Y28313550D02*
X71361904Y28358789D01*
X72492856Y29218312D02*
X72583333Y29218312D01*
X72583333Y29218312D02*
X72673809Y29173074D01*
X72673809Y29173074D02*
X72719047Y29127836D01*
X72719047Y29127836D02*
X72764285Y29037360D01*
X72764285Y29037360D02*
X72809523Y28856408D01*
X72809523Y28856408D02*
X72809523Y28630217D01*
X72809523Y28630217D02*
X72764285Y28449265D01*
X72764285Y28449265D02*
X72719047Y28358789D01*
X72719047Y28358789D02*
X72673809Y28313550D01*
X72673809Y28313550D02*
X72583333Y28268312D01*
X72583333Y28268312D02*
X72492856Y28268312D01*
X72492856Y28268312D02*
X72402380Y28313550D01*
X72402380Y28313550D02*
X72357142Y28358789D01*
X72357142Y28358789D02*
X72311904Y28449265D01*
X72311904Y28449265D02*
X72266666Y28630217D01*
X72266666Y28630217D02*
X72266666Y28856408D01*
X72266666Y28856408D02*
X72311904Y29037360D01*
X72311904Y29037360D02*
X72357142Y29127836D01*
X72357142Y29127836D02*
X72402380Y29173074D01*
X72402380Y29173074D02*
X72492856Y29218312D01*
X73080952Y29218312D02*
X73397618Y28268312D01*
X73397618Y28268312D02*
X73714285Y29218312D01*
X5833333Y16545181D02*
X5833333Y17545181D01*
X6261904Y16592800D02*
X6404761Y16545181D01*
X6404761Y16545181D02*
X6642856Y16545181D01*
X6642856Y16545181D02*
X6738094Y16592800D01*
X6738094Y16592800D02*
X6785713Y16640420D01*
X6785713Y16640420D02*
X6833332Y16735658D01*
X6833332Y16735658D02*
X6833332Y16830896D01*
X6833332Y16830896D02*
X6785713Y16926134D01*
X6785713Y16926134D02*
X6738094Y16973753D01*
X6738094Y16973753D02*
X6642856Y17021372D01*
X6642856Y17021372D02*
X6452380Y17068991D01*
X6452380Y17068991D02*
X6357142Y17116610D01*
X6357142Y17116610D02*
X6309523Y17164229D01*
X6309523Y17164229D02*
X6261904Y17259467D01*
X6261904Y17259467D02*
X6261904Y17354705D01*
X6261904Y17354705D02*
X6309523Y17449943D01*
X6309523Y17449943D02*
X6357142Y17497562D01*
X6357142Y17497562D02*
X6452380Y17545181D01*
X6452380Y17545181D02*
X6690475Y17545181D01*
X6690475Y17545181D02*
X6833332Y17497562D01*
X7452380Y17545181D02*
X7642856Y17545181D01*
X7642856Y17545181D02*
X7738094Y17497562D01*
X7738094Y17497562D02*
X7833332Y17402324D01*
X7833332Y17402324D02*
X7880951Y17211848D01*
X7880951Y17211848D02*
X7880951Y16878515D01*
X7880951Y16878515D02*
X7833332Y16688039D01*
X7833332Y16688039D02*
X7738094Y16592800D01*
X7738094Y16592800D02*
X7642856Y16545181D01*
X7642856Y16545181D02*
X7452380Y16545181D01*
X7452380Y16545181D02*
X7357142Y16592800D01*
X7357142Y16592800D02*
X7261904Y16688039D01*
X7261904Y16688039D02*
X7214285Y16878515D01*
X7214285Y16878515D02*
X7214285Y17211848D01*
X7214285Y17211848D02*
X7261904Y17402324D01*
X7261904Y17402324D02*
X7357142Y17497562D01*
X7357142Y17497562D02*
X7452380Y17545181D01*
X8785713Y16545181D02*
X8309523Y16545181D01*
X8309523Y16545181D02*
X8309523Y17545181D01*
X9071428Y16830896D02*
X9547618Y16830896D01*
X8976190Y16545181D02*
X9309523Y17545181D01*
X9309523Y17545181D02*
X9642856Y16545181D01*
X9833333Y17545181D02*
X10404761Y17545181D01*
X10119047Y16545181D02*
X10119047Y17545181D01*
X10738095Y17068991D02*
X11071428Y17068991D01*
X11214285Y16545181D02*
X10738095Y16545181D01*
X10738095Y16545181D02*
X10738095Y17545181D01*
X10738095Y17545181D02*
X11214285Y17545181D01*
X11642857Y16545181D02*
X11642857Y17545181D01*
X11642857Y17545181D02*
X11880952Y17545181D01*
X11880952Y17545181D02*
X12023809Y17497562D01*
X12023809Y17497562D02*
X12119047Y17402324D01*
X12119047Y17402324D02*
X12166666Y17307086D01*
X12166666Y17307086D02*
X12214285Y17116610D01*
X12214285Y17116610D02*
X12214285Y16973753D01*
X12214285Y16973753D02*
X12166666Y16783277D01*
X12166666Y16783277D02*
X12119047Y16688039D01*
X12119047Y16688039D02*
X12023809Y16592800D01*
X12023809Y16592800D02*
X11880952Y16545181D01*
X11880952Y16545181D02*
X11642857Y16545181D01*
X10319048Y39426134D02*
X11080953Y39426134D01*
X10700000Y39045181D02*
X10700000Y39807086D01*
X10319048Y34426134D02*
X11080953Y34426134D01*
X68919048Y39426134D02*
X69680953Y39426134D01*
X69300000Y39045181D02*
X69300000Y39807086D01*
X68919048Y34426134D02*
X69680953Y34426134D01*
X68071429Y16545181D02*
X68071429Y17545181D01*
X68071429Y17545181D02*
X68452381Y17545181D01*
X68452381Y17545181D02*
X68547619Y17497562D01*
X68547619Y17497562D02*
X68595238Y17449943D01*
X68595238Y17449943D02*
X68642857Y17354705D01*
X68642857Y17354705D02*
X68642857Y17211848D01*
X68642857Y17211848D02*
X68595238Y17116610D01*
X68595238Y17116610D02*
X68547619Y17068991D01*
X68547619Y17068991D02*
X68452381Y17021372D01*
X68452381Y17021372D02*
X68071429Y17021372D01*
X69642857Y16545181D02*
X69309524Y17021372D01*
X69071429Y16545181D02*
X69071429Y17545181D01*
X69071429Y17545181D02*
X69452381Y17545181D01*
X69452381Y17545181D02*
X69547619Y17497562D01*
X69547619Y17497562D02*
X69595238Y17449943D01*
X69595238Y17449943D02*
X69642857Y17354705D01*
X69642857Y17354705D02*
X69642857Y17211848D01*
X69642857Y17211848D02*
X69595238Y17116610D01*
X69595238Y17116610D02*
X69547619Y17068991D01*
X69547619Y17068991D02*
X69452381Y17021372D01*
X69452381Y17021372D02*
X69071429Y17021372D01*
X70071429Y16545181D02*
X70071429Y17545181D01*
X70547619Y16545181D02*
X70547619Y17545181D01*
X70547619Y17545181D02*
X70880952Y16830896D01*
X70880952Y16830896D02*
X71214285Y17545181D01*
X71214285Y17545181D02*
X71214285Y16545181D01*
X71642857Y16830896D02*
X72119047Y16830896D01*
X71547619Y16545181D02*
X71880952Y17545181D01*
X71880952Y17545181D02*
X72214285Y16545181D01*
X73119047Y16545181D02*
X72785714Y17021372D01*
X72547619Y16545181D02*
X72547619Y17545181D01*
X72547619Y17545181D02*
X72928571Y17545181D01*
X72928571Y17545181D02*
X73023809Y17497562D01*
X73023809Y17497562D02*
X73071428Y17449943D01*
X73071428Y17449943D02*
X73119047Y17354705D01*
X73119047Y17354705D02*
X73119047Y17211848D01*
X73119047Y17211848D02*
X73071428Y17116610D01*
X73071428Y17116610D02*
X73023809Y17068991D01*
X73023809Y17068991D02*
X72928571Y17021372D01*
X72928571Y17021372D02*
X72547619Y17021372D01*
X73738095Y17021372D02*
X73738095Y16545181D01*
X73404762Y17545181D02*
X73738095Y17021372D01*
X73738095Y17021372D02*
X74071428Y17545181D01*
X6828572Y45998920D02*
X6200000Y45998920D01*
X6514286Y45998920D02*
X6514286Y47098920D01*
X6514286Y47098920D02*
X6409524Y46941777D01*
X6409524Y46941777D02*
X6304762Y46837015D01*
X6304762Y46837015D02*
X6200000Y46784634D01*
X7247619Y46994158D02*
X7300000Y47046539D01*
X7300000Y47046539D02*
X7404762Y47098920D01*
X7404762Y47098920D02*
X7666667Y47098920D01*
X7666667Y47098920D02*
X7771429Y47046539D01*
X7771429Y47046539D02*
X7823810Y46994158D01*
X7823810Y46994158D02*
X7876191Y46889396D01*
X7876191Y46889396D02*
X7876191Y46784634D01*
X7876191Y46784634D02*
X7823810Y46627491D01*
X7823810Y46627491D02*
X7195238Y45998920D01*
X7195238Y45998920D02*
X7876191Y45998920D01*
X8190476Y47098920D02*
X8557143Y45998920D01*
X8557143Y45998920D02*
X8923810Y47098920D01*
X10338095Y47098920D02*
X10547619Y47098920D01*
X10547619Y47098920D02*
X10652381Y47046539D01*
X10652381Y47046539D02*
X10757143Y46941777D01*
X10757143Y46941777D02*
X10809524Y46732253D01*
X10809524Y46732253D02*
X10809524Y46365586D01*
X10809524Y46365586D02*
X10757143Y46156062D01*
X10757143Y46156062D02*
X10652381Y46051300D01*
X10652381Y46051300D02*
X10547619Y45998920D01*
X10547619Y45998920D02*
X10338095Y45998920D01*
X10338095Y45998920D02*
X10233333Y46051300D01*
X10233333Y46051300D02*
X10128571Y46156062D01*
X10128571Y46156062D02*
X10076190Y46365586D01*
X10076190Y46365586D02*
X10076190Y46732253D01*
X10076190Y46732253D02*
X10128571Y46941777D01*
X10128571Y46941777D02*
X10233333Y47046539D01*
X10233333Y47046539D02*
X10338095Y47098920D01*
X11280952Y47098920D02*
X11280952Y46208443D01*
X11280952Y46208443D02*
X11333333Y46103681D01*
X11333333Y46103681D02*
X11385714Y46051300D01*
X11385714Y46051300D02*
X11490476Y45998920D01*
X11490476Y45998920D02*
X11700000Y45998920D01*
X11700000Y45998920D02*
X11804762Y46051300D01*
X11804762Y46051300D02*
X11857143Y46103681D01*
X11857143Y46103681D02*
X11909524Y46208443D01*
X11909524Y46208443D02*
X11909524Y47098920D01*
X12276190Y47098920D02*
X12904762Y47098920D01*
X12590476Y45998920D02*
X12590476Y47098920D01*
X30304762Y1498920D02*
X30304762Y2598920D01*
X30304762Y2598920D02*
X30723810Y2598920D01*
X30723810Y2598920D02*
X30828572Y2546539D01*
X30828572Y2546539D02*
X30880953Y2494158D01*
X30880953Y2494158D02*
X30933334Y2389396D01*
X30933334Y2389396D02*
X30933334Y2232253D01*
X30933334Y2232253D02*
X30880953Y2127491D01*
X30880953Y2127491D02*
X30828572Y2075110D01*
X30828572Y2075110D02*
X30723810Y2022729D01*
X30723810Y2022729D02*
X30304762Y2022729D01*
X31352381Y1551300D02*
X31509524Y1498920D01*
X31509524Y1498920D02*
X31771429Y1498920D01*
X31771429Y1498920D02*
X31876191Y1551300D01*
X31876191Y1551300D02*
X31928572Y1603681D01*
X31928572Y1603681D02*
X31980953Y1708443D01*
X31980953Y1708443D02*
X31980953Y1813205D01*
X31980953Y1813205D02*
X31928572Y1917967D01*
X31928572Y1917967D02*
X31876191Y1970348D01*
X31876191Y1970348D02*
X31771429Y2022729D01*
X31771429Y2022729D02*
X31561905Y2075110D01*
X31561905Y2075110D02*
X31457143Y2127491D01*
X31457143Y2127491D02*
X31404762Y2179872D01*
X31404762Y2179872D02*
X31352381Y2284634D01*
X31352381Y2284634D02*
X31352381Y2389396D01*
X31352381Y2389396D02*
X31404762Y2494158D01*
X31404762Y2494158D02*
X31457143Y2546539D01*
X31457143Y2546539D02*
X31561905Y2598920D01*
X31561905Y2598920D02*
X31823810Y2598920D01*
X31823810Y2598920D02*
X31980953Y2546539D01*
X32452381Y1917967D02*
X33290477Y1917967D01*
X34390477Y2546539D02*
X34285715Y2598920D01*
X34285715Y2598920D02*
X34128572Y2598920D01*
X34128572Y2598920D02*
X33971429Y2546539D01*
X33971429Y2546539D02*
X33866667Y2441777D01*
X33866667Y2441777D02*
X33814286Y2337015D01*
X33814286Y2337015D02*
X33761905Y2127491D01*
X33761905Y2127491D02*
X33761905Y1970348D01*
X33761905Y1970348D02*
X33814286Y1760824D01*
X33814286Y1760824D02*
X33866667Y1656062D01*
X33866667Y1656062D02*
X33971429Y1551300D01*
X33971429Y1551300D02*
X34128572Y1498920D01*
X34128572Y1498920D02*
X34233334Y1498920D01*
X34233334Y1498920D02*
X34390477Y1551300D01*
X34390477Y1551300D02*
X34442858Y1603681D01*
X34442858Y1603681D02*
X34442858Y1970348D01*
X34442858Y1970348D02*
X34233334Y1970348D01*
X34861905Y1813205D02*
X35385715Y1813205D01*
X34757143Y1498920D02*
X35123810Y2598920D01*
X35123810Y2598920D02*
X35490477Y1498920D01*
X35857143Y1498920D02*
X35857143Y2598920D01*
X35857143Y2598920D02*
X36485715Y1498920D01*
X36485715Y1498920D02*
X36485715Y2598920D01*
X37009524Y1917967D02*
X37847620Y1917967D01*
X38842858Y2598920D02*
X38633334Y2598920D01*
X38633334Y2598920D02*
X38528572Y2546539D01*
X38528572Y2546539D02*
X38476191Y2494158D01*
X38476191Y2494158D02*
X38371429Y2337015D01*
X38371429Y2337015D02*
X38319048Y2127491D01*
X38319048Y2127491D02*
X38319048Y1708443D01*
X38319048Y1708443D02*
X38371429Y1603681D01*
X38371429Y1603681D02*
X38423810Y1551300D01*
X38423810Y1551300D02*
X38528572Y1498920D01*
X38528572Y1498920D02*
X38738096Y1498920D01*
X38738096Y1498920D02*
X38842858Y1551300D01*
X38842858Y1551300D02*
X38895239Y1603681D01*
X38895239Y1603681D02*
X38947620Y1708443D01*
X38947620Y1708443D02*
X38947620Y1970348D01*
X38947620Y1970348D02*
X38895239Y2075110D01*
X38895239Y2075110D02*
X38842858Y2127491D01*
X38842858Y2127491D02*
X38738096Y2179872D01*
X38738096Y2179872D02*
X38528572Y2179872D01*
X38528572Y2179872D02*
X38423810Y2127491D01*
X38423810Y2127491D02*
X38371429Y2075110D01*
X38371429Y2075110D02*
X38319048Y1970348D01*
X39628572Y2598920D02*
X39733334Y2598920D01*
X39733334Y2598920D02*
X39838096Y2546539D01*
X39838096Y2546539D02*
X39890477Y2494158D01*
X39890477Y2494158D02*
X39942858Y2389396D01*
X39942858Y2389396D02*
X39995239Y2179872D01*
X39995239Y2179872D02*
X39995239Y1917967D01*
X39995239Y1917967D02*
X39942858Y1708443D01*
X39942858Y1708443D02*
X39890477Y1603681D01*
X39890477Y1603681D02*
X39838096Y1551300D01*
X39838096Y1551300D02*
X39733334Y1498920D01*
X39733334Y1498920D02*
X39628572Y1498920D01*
X39628572Y1498920D02*
X39523810Y1551300D01*
X39523810Y1551300D02*
X39471429Y1603681D01*
X39471429Y1603681D02*
X39419048Y1708443D01*
X39419048Y1708443D02*
X39366667Y1917967D01*
X39366667Y1917967D02*
X39366667Y2179872D01*
X39366667Y2179872D02*
X39419048Y2389396D01*
X39419048Y2389396D02*
X39471429Y2494158D01*
X39471429Y2494158D02*
X39523810Y2546539D01*
X39523810Y2546539D02*
X39628572Y2598920D01*
X40361905Y2598920D02*
X40623810Y1498920D01*
X40623810Y1498920D02*
X40833334Y2284634D01*
X40833334Y2284634D02*
X41042858Y1498920D01*
X41042858Y1498920D02*
X41304763Y2598920D01*
X44185715Y2651300D02*
X43242857Y1237015D01*
X46176190Y1813205D02*
X46700000Y1813205D01*
X46071428Y1498920D02*
X46438095Y2598920D01*
X46438095Y2598920D02*
X46804762Y1498920D01*
X47747619Y1498920D02*
X47119047Y1498920D01*
X47433333Y1498920D02*
X47433333Y2598920D01*
X47433333Y2598920D02*
X47328571Y2441777D01*
X47328571Y2441777D02*
X47223809Y2337015D01*
X47223809Y2337015D02*
X47119047Y2284634D01*
X67957143Y46732253D02*
X67957143Y45998920D01*
X67695238Y47151300D02*
X67433333Y46365586D01*
X67433333Y46365586D02*
X68114286Y46365586D01*
X68690476Y46627491D02*
X68585714Y46679872D01*
X68585714Y46679872D02*
X68533333Y46732253D01*
X68533333Y46732253D02*
X68480952Y46837015D01*
X68480952Y46837015D02*
X68480952Y46889396D01*
X68480952Y46889396D02*
X68533333Y46994158D01*
X68533333Y46994158D02*
X68585714Y47046539D01*
X68585714Y47046539D02*
X68690476Y47098920D01*
X68690476Y47098920D02*
X68900000Y47098920D01*
X68900000Y47098920D02*
X69004762Y47046539D01*
X69004762Y47046539D02*
X69057143Y46994158D01*
X69057143Y46994158D02*
X69109524Y46889396D01*
X69109524Y46889396D02*
X69109524Y46837015D01*
X69109524Y46837015D02*
X69057143Y46732253D01*
X69057143Y46732253D02*
X69004762Y46679872D01*
X69004762Y46679872D02*
X68900000Y46627491D01*
X68900000Y46627491D02*
X68690476Y46627491D01*
X68690476Y46627491D02*
X68585714Y46575110D01*
X68585714Y46575110D02*
X68533333Y46522729D01*
X68533333Y46522729D02*
X68480952Y46417967D01*
X68480952Y46417967D02*
X68480952Y46208443D01*
X68480952Y46208443D02*
X68533333Y46103681D01*
X68533333Y46103681D02*
X68585714Y46051300D01*
X68585714Y46051300D02*
X68690476Y45998920D01*
X68690476Y45998920D02*
X68900000Y45998920D01*
X68900000Y45998920D02*
X69004762Y46051300D01*
X69004762Y46051300D02*
X69057143Y46103681D01*
X69057143Y46103681D02*
X69109524Y46208443D01*
X69109524Y46208443D02*
X69109524Y46417967D01*
X69109524Y46417967D02*
X69057143Y46522729D01*
X69057143Y46522729D02*
X69004762Y46575110D01*
X69004762Y46575110D02*
X68900000Y46627491D01*
X69423809Y47098920D02*
X69790476Y45998920D01*
X69790476Y45998920D02*
X70157143Y47098920D01*
X71361904Y45998920D02*
X71361904Y47098920D01*
X71885714Y45998920D02*
X71885714Y47098920D01*
X71885714Y47098920D02*
X72514286Y45998920D01*
X72514286Y45998920D02*
X72514286Y47098920D01*
X28199999Y54960134D02*
X28199999Y56360134D01*
X28199999Y56360134D02*
X28733332Y56360134D01*
X28733332Y56360134D02*
X28866666Y56293467D01*
X28866666Y56293467D02*
X28933332Y56226800D01*
X28933332Y56226800D02*
X28999999Y56093467D01*
X28999999Y56093467D02*
X28999999Y55893467D01*
X28999999Y55893467D02*
X28933332Y55760134D01*
X28933332Y55760134D02*
X28866666Y55693467D01*
X28866666Y55693467D02*
X28733332Y55626800D01*
X28733332Y55626800D02*
X28199999Y55626800D01*
X30266666Y54960134D02*
X29599999Y54960134D01*
X29599999Y54960134D02*
X29599999Y56360134D01*
X30666665Y55360134D02*
X31333332Y55360134D01*
X30533332Y54960134D02*
X30999999Y56360134D01*
X30999999Y56360134D02*
X31466665Y54960134D01*
X31933332Y54960134D02*
X31933332Y56360134D01*
X31933332Y56360134D02*
X32733332Y54960134D01*
X32733332Y54960134D02*
X32733332Y56360134D01*
X33333332Y55360134D02*
X33999999Y55360134D01*
X33199999Y54960134D02*
X33666666Y56360134D01*
X33666666Y56360134D02*
X34133332Y54960134D01*
X35399999Y54960134D02*
X34933332Y55626800D01*
X34599999Y54960134D02*
X34599999Y56360134D01*
X34599999Y56360134D02*
X35133332Y56360134D01*
X35133332Y56360134D02*
X35266666Y56293467D01*
X35266666Y56293467D02*
X35333332Y56226800D01*
X35333332Y56226800D02*
X35399999Y56093467D01*
X35399999Y56093467D02*
X35399999Y55893467D01*
X35399999Y55893467D02*
X35333332Y55760134D01*
X35333332Y55760134D02*
X35266666Y55693467D01*
X35266666Y55693467D02*
X35133332Y55626800D01*
X35133332Y55626800D02*
X34599999Y55626800D01*
X36999999Y55026800D02*
X37199999Y54960134D01*
X37199999Y54960134D02*
X37533333Y54960134D01*
X37533333Y54960134D02*
X37666666Y55026800D01*
X37666666Y55026800D02*
X37733333Y55093467D01*
X37733333Y55093467D02*
X37799999Y55226800D01*
X37799999Y55226800D02*
X37799999Y55360134D01*
X37799999Y55360134D02*
X37733333Y55493467D01*
X37733333Y55493467D02*
X37666666Y55560134D01*
X37666666Y55560134D02*
X37533333Y55626800D01*
X37533333Y55626800D02*
X37266666Y55693467D01*
X37266666Y55693467D02*
X37133333Y55760134D01*
X37133333Y55760134D02*
X37066666Y55826800D01*
X37066666Y55826800D02*
X36999999Y55960134D01*
X36999999Y55960134D02*
X36999999Y56093467D01*
X36999999Y56093467D02*
X37066666Y56226800D01*
X37066666Y56226800D02*
X37133333Y56293467D01*
X37133333Y56293467D02*
X37266666Y56360134D01*
X37266666Y56360134D02*
X37599999Y56360134D01*
X37599999Y56360134D02*
X37799999Y56293467D01*
X38199999Y56360134D02*
X38999999Y56360134D01*
X38599999Y54960134D02*
X38599999Y56360134D01*
X39466666Y56360134D02*
X39466666Y55226800D01*
X39466666Y55226800D02*
X39533333Y55093467D01*
X39533333Y55093467D02*
X39599999Y55026800D01*
X39599999Y55026800D02*
X39733333Y54960134D01*
X39733333Y54960134D02*
X39999999Y54960134D01*
X39999999Y54960134D02*
X40133333Y55026800D01*
X40133333Y55026800D02*
X40199999Y55093467D01*
X40199999Y55093467D02*
X40266666Y55226800D01*
X40266666Y55226800D02*
X40266666Y56360134D01*
X40933333Y54960134D02*
X40933333Y56360134D01*
X40933333Y56360134D02*
X41266666Y56360134D01*
X41266666Y56360134D02*
X41466666Y56293467D01*
X41466666Y56293467D02*
X41600000Y56160134D01*
X41600000Y56160134D02*
X41666666Y56026800D01*
X41666666Y56026800D02*
X41733333Y55760134D01*
X41733333Y55760134D02*
X41733333Y55560134D01*
X41733333Y55560134D02*
X41666666Y55293467D01*
X41666666Y55293467D02*
X41600000Y55160134D01*
X41600000Y55160134D02*
X41466666Y55026800D01*
X41466666Y55026800D02*
X41266666Y54960134D01*
X41266666Y54960134D02*
X40933333Y54960134D01*
X42333333Y54960134D02*
X42333333Y56360134D01*
X43266667Y56360134D02*
X43533333Y56360134D01*
X43533333Y56360134D02*
X43666667Y56293467D01*
X43666667Y56293467D02*
X43800000Y56160134D01*
X43800000Y56160134D02*
X43866667Y55893467D01*
X43866667Y55893467D02*
X43866667Y55426800D01*
X43866667Y55426800D02*
X43800000Y55160134D01*
X43800000Y55160134D02*
X43666667Y55026800D01*
X43666667Y55026800D02*
X43533333Y54960134D01*
X43533333Y54960134D02*
X43266667Y54960134D01*
X43266667Y54960134D02*
X43133333Y55026800D01*
X43133333Y55026800D02*
X43000000Y55160134D01*
X43000000Y55160134D02*
X42933333Y55426800D01*
X42933333Y55426800D02*
X42933333Y55893467D01*
X42933333Y55893467D02*
X43000000Y56160134D01*
X43000000Y56160134D02*
X43133333Y56293467D01*
X43133333Y56293467D02*
X43266667Y56360134D01*
X3738095Y8445181D02*
X3738095Y9445181D01*
X3738095Y8968991D02*
X4309523Y8968991D01*
X4309523Y8445181D02*
X4309523Y9445181D01*
X4690476Y9445181D02*
X5309523Y9445181D01*
X5309523Y9445181D02*
X4976190Y9064229D01*
X4976190Y9064229D02*
X5119047Y9064229D01*
X5119047Y9064229D02*
X5214285Y9016610D01*
X5214285Y9016610D02*
X5261904Y8968991D01*
X5261904Y8968991D02*
X5309523Y8873753D01*
X5309523Y8873753D02*
X5309523Y8635658D01*
X5309523Y8635658D02*
X5261904Y8540420D01*
X5261904Y8540420D02*
X5214285Y8492800D01*
X5214285Y8492800D02*
X5119047Y8445181D01*
X5119047Y8445181D02*
X4833333Y8445181D01*
X4833333Y8445181D02*
X4738095Y8492800D01*
X4738095Y8492800D02*
X4690476Y8540420D01*
X74738095Y8445181D02*
X74738095Y9445181D01*
X74738095Y8968991D02*
X75309523Y8968991D01*
X75309523Y8445181D02*
X75309523Y9445181D01*
X76214285Y9111848D02*
X76214285Y8445181D01*
X75976190Y9492800D02*
X75738095Y8778515D01*
X75738095Y8778515D02*
X76357142Y8778515D01*
X74738095Y48645181D02*
X74738095Y49645181D01*
X74738095Y49168991D02*
X75309523Y49168991D01*
X75309523Y48645181D02*
X75309523Y49645181D01*
X75738095Y49549943D02*
X75785714Y49597562D01*
X75785714Y49597562D02*
X75880952Y49645181D01*
X75880952Y49645181D02*
X76119047Y49645181D01*
X76119047Y49645181D02*
X76214285Y49597562D01*
X76214285Y49597562D02*
X76261904Y49549943D01*
X76261904Y49549943D02*
X76309523Y49454705D01*
X76309523Y49454705D02*
X76309523Y49359467D01*
X76309523Y49359467D02*
X76261904Y49216610D01*
X76261904Y49216610D02*
X75690476Y48645181D01*
X75690476Y48645181D02*
X76309523Y48645181D01*
X3738095Y48645181D02*
X3738095Y49645181D01*
X3738095Y49168991D02*
X4309523Y49168991D01*
X4309523Y48645181D02*
X4309523Y49645181D01*
X5309523Y48645181D02*
X4738095Y48645181D01*
X5023809Y48645181D02*
X5023809Y49645181D01*
X5023809Y49645181D02*
X4928571Y49502324D01*
X4928571Y49502324D02*
X4833333Y49407086D01*
X4833333Y49407086D02*
X4738095Y49359467D01*
%LPC*%
D11*
%TO.C,H3*%
G36*
X4709290Y7693149D02*
G01*
X4917684Y7672624D01*
X5124289Y7638513D01*
X5328221Y7590963D01*
X5528606Y7530176D01*
X5724587Y7456415D01*
X5915324Y7369993D01*
X6100000Y7271281D01*
X6277825Y7160703D01*
X6448037Y7038731D01*
X6609907Y6905887D01*
X6762742Y6762742D01*
X6905887Y6609907D01*
X7038731Y6448037D01*
X7160703Y6277825D01*
X7271281Y6100000D01*
X7369993Y5915324D01*
X7456415Y5724587D01*
X7530176Y5528606D01*
X7590963Y5328221D01*
X7638513Y5124289D01*
X7672624Y4917684D01*
X7693149Y4709290D01*
X7700000Y4500000D01*
X7693149Y4290710D01*
X7672624Y4082316D01*
X7638513Y3875711D01*
X7590963Y3671779D01*
X7530176Y3471394D01*
X7456415Y3275413D01*
X7369993Y3084676D01*
X7271281Y2900000D01*
X7160703Y2722175D01*
X7038731Y2551963D01*
X6905887Y2390093D01*
X6762742Y2237258D01*
X6609907Y2094113D01*
X6448037Y1961269D01*
X6277825Y1839297D01*
X6100000Y1728719D01*
X5915324Y1630007D01*
X5724587Y1543585D01*
X5528606Y1469824D01*
X5328221Y1409037D01*
X5124289Y1361487D01*
X4917684Y1327376D01*
X4709290Y1306851D01*
X4500000Y1300000D01*
X-3700000Y1300000D01*
X-3700000Y7700000D01*
X4500000Y7700000D01*
X4709290Y7693149D01*
G37*
%TO.C,H4*%
G36*
X83700000Y1300000D02*
G01*
X75500000Y1300000D01*
X75290710Y1306851D01*
X75082316Y1327376D01*
X74875711Y1361487D01*
X74671779Y1409037D01*
X74471394Y1469824D01*
X74275413Y1543585D01*
X74084676Y1630007D01*
X73900000Y1728719D01*
X73722175Y1839297D01*
X73551963Y1961269D01*
X73390093Y2094113D01*
X73237258Y2237258D01*
X73094113Y2390093D01*
X72961269Y2551963D01*
X72839297Y2722175D01*
X72728719Y2900000D01*
X72630007Y3084676D01*
X72543585Y3275413D01*
X72469824Y3471394D01*
X72409037Y3671779D01*
X72361487Y3875711D01*
X72327376Y4082316D01*
X72306851Y4290710D01*
X72300000Y4500000D01*
X72306851Y4709290D01*
X72327376Y4917684D01*
X72361487Y5124289D01*
X72409037Y5328221D01*
X72469824Y5528606D01*
X72543585Y5724587D01*
X72630007Y5915324D01*
X72728719Y6100000D01*
X72839297Y6277825D01*
X72961269Y6448037D01*
X73094113Y6609907D01*
X73237258Y6762742D01*
X73390093Y6905887D01*
X73551963Y7038731D01*
X73722175Y7160703D01*
X73900000Y7271281D01*
X74084676Y7369993D01*
X74275413Y7456415D01*
X74471394Y7530176D01*
X74671779Y7590963D01*
X74875711Y7638513D01*
X75082316Y7672624D01*
X75290710Y7693149D01*
X75500000Y7700000D01*
X83700000Y7700000D01*
X83700000Y1300000D01*
G37*
%TO.C,H2*%
G36*
X83700000Y50300000D02*
G01*
X75500000Y50300000D01*
X75290710Y50306851D01*
X75082316Y50327376D01*
X74875711Y50361487D01*
X74671779Y50409037D01*
X74471394Y50469824D01*
X74275413Y50543585D01*
X74084676Y50630007D01*
X73900000Y50728719D01*
X73722175Y50839297D01*
X73551963Y50961269D01*
X73390093Y51094113D01*
X73237258Y51237258D01*
X73094113Y51390093D01*
X72961269Y51551963D01*
X72839297Y51722175D01*
X72728719Y51900000D01*
X72630007Y52084676D01*
X72543585Y52275413D01*
X72469824Y52471394D01*
X72409037Y52671779D01*
X72361487Y52875711D01*
X72327376Y53082316D01*
X72306851Y53290710D01*
X72300000Y53500000D01*
X72306851Y53709290D01*
X72327376Y53917684D01*
X72361487Y54124289D01*
X72409037Y54328221D01*
X72469824Y54528606D01*
X72543585Y54724587D01*
X72630007Y54915324D01*
X72728719Y55100000D01*
X72839297Y55277825D01*
X72961269Y55448037D01*
X73094113Y55609907D01*
X73237258Y55762742D01*
X73390093Y55905887D01*
X73551963Y56038731D01*
X73722175Y56160703D01*
X73900000Y56271281D01*
X74084676Y56369993D01*
X74275413Y56456415D01*
X74471394Y56530176D01*
X74671779Y56590963D01*
X74875711Y56638513D01*
X75082316Y56672624D01*
X75290710Y56693149D01*
X75500000Y56700000D01*
X83700000Y56700000D01*
X83700000Y50300000D01*
G37*
%TO.C,H1*%
G36*
X4709290Y56693149D02*
G01*
X4917684Y56672624D01*
X5124289Y56638513D01*
X5328221Y56590963D01*
X5528606Y56530176D01*
X5724587Y56456415D01*
X5915324Y56369993D01*
X6100000Y56271281D01*
X6277825Y56160703D01*
X6448037Y56038731D01*
X6609907Y55905887D01*
X6762742Y55762742D01*
X6905887Y55609907D01*
X7038731Y55448037D01*
X7160703Y55277825D01*
X7271281Y55100000D01*
X7369993Y54915324D01*
X7456415Y54724587D01*
X7530176Y54528606D01*
X7590963Y54328221D01*
X7638513Y54124289D01*
X7672624Y53917684D01*
X7693149Y53709290D01*
X7700000Y53500000D01*
X7693149Y53290710D01*
X7672624Y53082316D01*
X7638513Y52875711D01*
X7590963Y52671779D01*
X7530176Y52471394D01*
X7456415Y52275413D01*
X7369993Y52084676D01*
X7271281Y51900000D01*
X7160703Y51722175D01*
X7038731Y51551963D01*
X6905887Y51390093D01*
X6762742Y51237258D01*
X6609907Y51094113D01*
X6448037Y50961269D01*
X6277825Y50839297D01*
X6100000Y50728719D01*
X5915324Y50630007D01*
X5724587Y50543585D01*
X5528606Y50469824D01*
X5328221Y50409037D01*
X5124289Y50361487D01*
X4917684Y50327376D01*
X4709290Y50306851D01*
X4500000Y50300000D01*
X-3700000Y50300000D01*
X-3700000Y56700000D01*
X4500000Y56700000D01*
X4709290Y56693149D01*
G37*
%TD*%
D12*
%TO.C,U6*%
X29650000Y18270000D03*
X29650000Y15730000D03*
X35950000Y15730000D03*
X35950000Y18270000D03*
%TD*%
D13*
%TO.C,C19*%
X57825000Y28000000D03*
X60775000Y28000000D03*
%TD*%
D14*
%TO.C,R15*%
X62500000Y19375000D03*
X62500000Y21025000D03*
%TD*%
D15*
%TO.C,TP5*%
X55000000Y55000000D03*
%TD*%
D14*
%TO.C,R9*%
X46000000Y21675000D03*
X46000000Y23325000D03*
%TD*%
%TO.C,R17*%
X54000000Y15675000D03*
X54000000Y17325000D03*
%TD*%
D16*
%TO.C,H3*%
X4500000Y4500000D03*
%TD*%
D17*
%TO.C,C23*%
X62000000Y15725000D03*
X62000000Y17275000D03*
%TD*%
D18*
%TO.C,U2*%
X40400000Y18900000D03*
X40400000Y17630000D03*
X40400000Y16370000D03*
X40400000Y15100000D03*
X45600000Y15100000D03*
X45600000Y16370000D03*
X45600000Y17630000D03*
X45600000Y18900000D03*
%TD*%
D17*
%TO.C,C24*%
X58000000Y15725000D03*
X58000000Y17275000D03*
%TD*%
D19*
%TO.C,Q1*%
X19310000Y42700000D03*
X19960000Y42700000D03*
X20610000Y42700000D03*
X21260000Y42700000D03*
D20*
X21290000Y45700000D03*
X20640000Y45700000D03*
X19990000Y45700000D03*
X19340000Y45700000D03*
D21*
X20310000Y44610000D03*
%TD*%
D18*
%TO.C,U3*%
X17300000Y40400000D03*
X17300000Y39130000D03*
X17300000Y37870000D03*
X17300000Y36600000D03*
X22500000Y36600000D03*
X22500000Y37870000D03*
X22500000Y39130000D03*
X22500000Y40400000D03*
%TD*%
D14*
%TO.C,R14*%
X62500000Y23175000D03*
X62500000Y24825000D03*
%TD*%
D17*
%TO.C,C25*%
X52000000Y29425000D03*
X52000000Y30975000D03*
%TD*%
D22*
%TO.C,C11*%
X18550000Y35000000D03*
X20450000Y35000000D03*
%TD*%
D23*
%TO.C,C13*%
X19000000Y26025000D03*
X19000000Y28975000D03*
%TD*%
D17*
%TO.C,C10*%
X47200000Y16825000D03*
X47200000Y18375000D03*
%TD*%
D24*
%TO.C,L1*%
X57450000Y35000000D03*
X52950000Y35000000D03*
%TD*%
D17*
%TO.C,C4*%
X62200000Y45525000D03*
X62200000Y47075000D03*
%TD*%
D25*
%TO.C,U7*%
X27450000Y18240000D03*
X25550000Y18240000D03*
X26500000Y15760000D03*
%TD*%
D26*
%TO.C,C18*%
X38025000Y23000000D03*
X39575000Y23000000D03*
%TD*%
D27*
%TO.C,D2*%
X49950000Y20150000D03*
X49950000Y22050000D03*
X47650000Y21100000D03*
%TD*%
D16*
%TO.C,H4*%
X75500000Y4500000D03*
%TD*%
%TO.C,H2*%
X75500000Y53500000D03*
%TD*%
D28*
%TO.C,FID3*%
X51000000Y55700000D03*
%TD*%
D14*
%TO.C,R25*%
X22300000Y10175000D03*
X22300000Y11825000D03*
%TD*%
D15*
%TO.C,TP6*%
X58000000Y55000000D03*
%TD*%
D26*
%TO.C,C20*%
X54225000Y25500000D03*
X55775000Y25500000D03*
%TD*%
D29*
%TO.C,R4*%
X42675000Y23000000D03*
X44325000Y23000000D03*
%TD*%
D17*
%TO.C,C17*%
X47800000Y26625000D03*
X47800000Y28175000D03*
%TD*%
D23*
%TO.C,C16*%
X23500000Y21025000D03*
X23500000Y23975000D03*
%TD*%
D17*
%TO.C,C5*%
X55100000Y50725000D03*
X55100000Y52275000D03*
%TD*%
D30*
%TO.C,U1*%
X57900000Y43700000D03*
D31*
X57900000Y43200000D03*
X57900000Y42700000D03*
X57900000Y42200000D03*
D32*
X57900000Y40020000D03*
D33*
X60000000Y40200000D03*
D34*
X62100000Y40020000D03*
D31*
X62100000Y42200000D03*
X62100000Y42700000D03*
X62100000Y43200000D03*
D35*
X62100000Y43700000D03*
D36*
X60820000Y43980000D03*
X60330000Y43980000D03*
X59820000Y43980000D03*
X59330000Y43980000D03*
X58820000Y43980000D03*
D37*
X59770000Y42660000D03*
%TD*%
D38*
%TO.C,J1*%
X76200000Y42500000D03*
X76200000Y31500000D03*
D39*
X66200000Y34500000D03*
D40*
X66200000Y39500000D03*
%TD*%
D23*
%TO.C,C1*%
X54000000Y45625000D03*
X54000000Y48575000D03*
%TD*%
D14*
%TO.C,R8*%
X49800000Y23375000D03*
X49800000Y25025000D03*
%TD*%
D17*
%TO.C,C28*%
X30500000Y21225000D03*
X30500000Y22775000D03*
%TD*%
D38*
%TO.C,J2*%
X8800000Y31500000D03*
X8800000Y42500000D03*
D41*
X13800000Y34500000D03*
D40*
X13800000Y39500000D03*
%TD*%
D15*
%TO.C,TP4*%
X11500000Y25000000D03*
%TD*%
D14*
%TO.C,R22*%
X19000000Y16175000D03*
X19000000Y17825000D03*
%TD*%
D42*
%TO.C,C2*%
X61200000Y33875000D03*
X61200000Y30925000D03*
%TD*%
D28*
%TO.C,FID1*%
X9000000Y11000000D03*
%TD*%
D14*
%TO.C,R12*%
X24000000Y44175000D03*
X24000000Y45825000D03*
%TD*%
D43*
%TO.C,F1*%
X53450000Y51000000D03*
X50550000Y51000000D03*
%TD*%
D15*
%TO.C,TP3*%
X9000000Y25000000D03*
%TD*%
D29*
%TO.C,R16*%
X57675000Y25500000D03*
X59325000Y25500000D03*
%TD*%
D28*
%TO.C,FID2*%
X71000000Y11000000D03*
%TD*%
D44*
%TO.C,C3*%
X62675000Y36700000D03*
X59725000Y36700000D03*
%TD*%
D17*
%TO.C,C12*%
X17300000Y41725000D03*
X17300000Y43275000D03*
%TD*%
D14*
%TO.C,R3*%
X40400000Y9075000D03*
X40400000Y10725000D03*
%TD*%
D45*
%TO.C,U5*%
X56100000Y29250000D03*
X56100000Y30200000D03*
X56100000Y31150000D03*
X53900000Y31150000D03*
X53900000Y29250000D03*
%TD*%
D14*
%TO.C,R11*%
X17000000Y31175000D03*
X17000000Y32825000D03*
%TD*%
D15*
%TO.C,TP2*%
X72500000Y25000000D03*
%TD*%
D14*
%TO.C,R18*%
X56000000Y15675000D03*
X56000000Y17325000D03*
%TD*%
D13*
%TO.C,C15*%
X18825000Y50000000D03*
X21775000Y50000000D03*
%TD*%
D46*
%TO.C,L2*%
X55050000Y9500000D03*
X60950000Y9500000D03*
%TD*%
D23*
%TO.C,C21*%
X49100000Y10825000D03*
X49100000Y13775000D03*
%TD*%
D47*
%TO.C,T1*%
X51537772Y35735180D03*
X51537772Y41264820D03*
X24462228Y41264820D03*
X27800000Y38500000D03*
X24462228Y35735180D03*
%TD*%
D48*
%TO.C,R10*%
X24325000Y42700000D03*
X22675000Y42700000D03*
%TD*%
D29*
%TO.C,R6*%
X42675000Y10500000D03*
X44325000Y10500000D03*
%TD*%
D26*
%TO.C,C6*%
X56725000Y46300000D03*
X58275000Y46300000D03*
%TD*%
D14*
%TO.C,R23*%
X21000000Y16175000D03*
X21000000Y17825000D03*
%TD*%
D25*
%TO.C,U9*%
X27450000Y10640000D03*
X25550000Y10640000D03*
X26500000Y8160000D03*
%TD*%
D12*
%TO.C,U8*%
X29650000Y10670000D03*
X29650000Y8130000D03*
X35950000Y8130000D03*
X35950000Y10670000D03*
%TD*%
D26*
%TO.C,C29*%
X25725000Y6000000D03*
X27275000Y6000000D03*
%TD*%
D16*
%TO.C,H1*%
X4500000Y53500000D03*
%TD*%
D19*
%TO.C,Q2*%
X21290000Y33300000D03*
X20640000Y33300000D03*
X19990000Y33300000D03*
X19340000Y33300000D03*
D20*
X19310000Y30300000D03*
X19960000Y30300000D03*
X20610000Y30300000D03*
X21260000Y30300000D03*
D21*
X20290000Y31390000D03*
%TD*%
D23*
%TO.C,C22*%
X49100000Y5525000D03*
X49100000Y8475000D03*
%TD*%
D14*
%TO.C,R28*%
X21000000Y6775000D03*
X21000000Y8425000D03*
%TD*%
D29*
%TO.C,R1*%
X40475000Y13600000D03*
X42125000Y13600000D03*
%TD*%
%TO.C,R5*%
X42675000Y21300000D03*
X44325000Y21300000D03*
%TD*%
D49*
%TO.C,D1*%
X48300000Y48310000D03*
X48300000Y52690000D03*
%TD*%
D50*
%TO.C,C7*%
X53025000Y42900000D03*
X55975000Y42900000D03*
%TD*%
D14*
%TO.C,R2*%
X38800000Y14675000D03*
X38800000Y16325000D03*
%TD*%
D22*
%TO.C,C26*%
X50050000Y27200000D03*
X51950000Y27200000D03*
%TD*%
D14*
%TO.C,R26*%
X24000000Y10175000D03*
X24000000Y11825000D03*
%TD*%
D29*
%TO.C,R20*%
X25975000Y22000000D03*
X27625000Y22000000D03*
%TD*%
D50*
%TO.C,C8*%
X53025000Y40100000D03*
X55975000Y40100000D03*
%TD*%
D29*
%TO.C,R7*%
X42675000Y8800000D03*
X44325000Y8800000D03*
%TD*%
D14*
%TO.C,R19*%
X60000000Y15675000D03*
X60000000Y17325000D03*
%TD*%
D23*
%TO.C,C14*%
X23500000Y26025000D03*
X23500000Y28975000D03*
%TD*%
D51*
%TO.C,U4*%
X61000000Y19600000D03*
X61000000Y20870000D03*
X61000000Y22140000D03*
X61000000Y23410000D03*
X55000000Y23410000D03*
X55000000Y22140000D03*
X55000000Y20870000D03*
X55000000Y19600000D03*
D52*
X58000000Y21500000D03*
%TD*%
D29*
%TO.C,R24*%
X22575000Y13600000D03*
X24225000Y13600000D03*
%TD*%
D15*
%TO.C,TP1*%
X70000000Y25000000D03*
%TD*%
D14*
%TO.C,R13*%
X24000000Y30975000D03*
X24000000Y32625000D03*
%TD*%
D29*
%TO.C,R21*%
X25975000Y20300000D03*
X27625000Y20300000D03*
%TD*%
D26*
%TO.C,C27*%
X26225000Y13600000D03*
X27775000Y13600000D03*
%TD*%
D17*
%TO.C,C9*%
X38800000Y19025000D03*
X38800000Y20575000D03*
%TD*%
D14*
%TO.C,R27*%
X19000000Y7675000D03*
X19000000Y9325000D03*
%TD*%
%LPD*%
M02*
