%TF.GenerationSoftware,KiCad,Pcbnew,10.0.6*%
%TF.CreationDate,2026-10-10T12:18:00-04:00*%
%TF.ProjectId,PS-GAN-60W,50532d47-414e-42d3-9630-572e6b696361,A1 REVIEW - NOT FOR FABRICATION*%
%TF.SameCoordinates,Original*%
%TF.FileFunction,Copper,L8,Bot*%
%TF.FilePolarity,Positive*%
%FSLAX46Y46*%
G04 Gerber Fmt 4.6, Leading zero omitted, Abs format (unit mm)*
G04 Created by KiCad (PCBNEW 10.0.6) date 2026-10-10 12:18:00*
%MOMM*%
%LPD*%
G01*
G04 APERTURE LIST*
G04 Aperture macros list*
%AMRoundRect*
0 Rectangle with rounded corners*
0 $1 Rounding radius*
0 $2 $3 $4 $5 $6 $7 $8 $9 X,Y pos of 4 corners*
0 Add a 4 corners polygon primitive as box body*
4,1,4,$2,$3,$4,$5,$6,$7,$8,$9,$2,$3,0*
0 Add four circle primitives for the rounded corners*
1,1,$1+$1,$2,$3*
1,1,$1+$1,$4,$5*
1,1,$1+$1,$6,$7*
1,1,$1+$1,$8,$9*
0 Add four rect primitives between the rounded corners*
20,1,$1+$1,$2,$3,$4,$5,0*
20,1,$1+$1,$4,$5,$6,$7,0*
20,1,$1+$1,$6,$7,$8,$9,0*
20,1,$1+$1,$8,$9,$2,$3,0*%
G04 Aperture macros list end*
%TA.AperFunction,EtchedComponent*%
%ADD10C,0.000000*%
%TD*%
%TA.AperFunction,ComponentPad*%
%ADD11C,1.400000*%
%TD*%
%TA.AperFunction,ComponentPad*%
%ADD12RoundRect,0.770000X-0.980000X0.980000X-0.980000X-0.980000X0.980000X-0.980000X0.980000X0.980000X0*%
%TD*%
%TA.AperFunction,ComponentPad*%
%ADD13C,3.500000*%
%TD*%
%TA.AperFunction,ComponentPad*%
%ADD14RoundRect,0.770000X0.980000X-0.980000X0.980000X0.980000X-0.980000X0.980000X-0.980000X-0.980000X0*%
%TD*%
%TA.AperFunction,ComponentPad*%
%ADD15C,0.600000*%
%TD*%
%TA.AperFunction,ViaPad*%
%ADD16C,0.600000*%
%TD*%
%TA.AperFunction,Conductor*%
%ADD17C,0.800000*%
%TD*%
G04 APERTURE END LIST*
D10*
%TA.AperFunction,EtchedComponent*%
%TO.C,T1*%
G36*
X26436100Y45493735D02*
G01*
X26436242Y45493728D01*
X26436380Y45493732D01*
X27014952Y45487482D01*
X27015089Y45487475D01*
X27015228Y45487479D01*
X27548366Y45481228D01*
X27548497Y45481221D01*
X27548635Y45481225D01*
X28043694Y45474976D01*
X28043820Y45474969D01*
X28043957Y45474973D01*
X28506955Y45468723D01*
X28507088Y45468716D01*
X28507207Y45468719D01*
X28943121Y45462469D01*
X28943234Y45462462D01*
X28943359Y45462466D01*
X29356368Y45456216D01*
X29356487Y45456209D01*
X29356592Y45456212D01*
X29750243Y45449962D01*
X29750342Y45449956D01*
X29750448Y45449959D01*
X30127797Y45443709D01*
X30127889Y45443703D01*
X30127983Y45443706D01*
X30491692Y45437456D01*
X30491776Y45437451D01*
X30491856Y45437453D01*
X30844278Y45431203D01*
X30844355Y45431198D01*
X30844421Y45431200D01*
X31187668Y45424950D01*
X31187725Y45424946D01*
X31187785Y45424948D01*
X31523781Y45418698D01*
X31523831Y45418695D01*
X31523874Y45418696D01*
X31854398Y45412446D01*
X31854428Y45412444D01*
X31854464Y45412445D01*
X32181194Y45406195D01*
X32181217Y45406193D01*
X32181232Y45406194D01*
X32502948Y45399998D01*
X43824096Y45393750D01*
X43826891Y45393638D01*
X43829700Y45393695D01*
X44154582Y45387445D01*
X44154603Y45387443D01*
X44481873Y45381196D01*
X44481889Y45381197D01*
X44813501Y45374947D01*
X45150940Y45368699D01*
X45150946Y45368698D01*
X45496141Y45362451D01*
X45851142Y45356204D01*
X46218203Y45349957D01*
X46218208Y45349956D01*
X46599872Y45343710D01*
X46599881Y45343709D01*
X46998826Y45337467D01*
X47419140Y45331217D01*
X47419152Y45331216D01*
X47863815Y45324974D01*
X48338583Y45318723D01*
X48338591Y45318722D01*
X48848051Y45312480D01*
X48848066Y45312481D01*
X49400316Y45306230D01*
X50003107Y45299984D01*
X50026522Y45298820D01*
X50026577Y45298820D01*
X50026595Y45298816D01*
X50026634Y45298815D01*
X50049610Y45294931D01*
X50072996Y45290984D01*
X50073024Y45290974D01*
X50073051Y45290970D01*
X50098806Y45282306D01*
X50117617Y45275982D01*
X50117641Y45275969D01*
X50117669Y45275960D01*
X50138060Y45265302D01*
X50159342Y45254185D01*
X50159366Y45254166D01*
X50159391Y45254154D01*
X50177104Y45241001D01*
X50197143Y45226129D01*
X50197164Y45226106D01*
X50197186Y45226091D01*
X50211931Y45211036D01*
X50230091Y45192504D01*
X50230109Y45192477D01*
X50230127Y45192460D01*
X50243700Y45173366D01*
X50257372Y45154140D01*
X50257385Y45154112D01*
X50257401Y45154091D01*
X50267165Y45134425D01*
X50278316Y45111980D01*
X50278325Y45111950D01*
X50278337Y45111927D01*
X50285224Y45089958D01*
X50292407Y45067064D01*
X50292411Y45067036D01*
X50292420Y45067008D01*
X50295616Y45045377D01*
X50299298Y45020495D01*
X50299299Y45020449D01*
X50299301Y45020438D01*
X50299300Y45020403D01*
X50299983Y44996949D01*
X50293734Y44382540D01*
X50293726Y44382396D01*
X50293731Y44382252D01*
X50287481Y43820813D01*
X50287474Y43820674D01*
X50287478Y43820529D01*
X50281228Y43303198D01*
X50281221Y43303064D01*
X50281225Y43302919D01*
X50274975Y42822553D01*
X50274967Y42822413D01*
X50274971Y42822283D01*
X50268721Y42373046D01*
X50268713Y42372912D01*
X50268717Y42372786D01*
X50262467Y41949845D01*
X50262460Y41949731D01*
X50262464Y41949599D01*
X50256214Y41548899D01*
X50256207Y41548779D01*
X50256210Y41548669D01*
X50249960Y41166768D01*
X50249953Y41166656D01*
X50249956Y41166556D01*
X50243706Y40800489D01*
X50243700Y40800397D01*
X50243703Y40800296D01*
X50237453Y40447481D01*
X50237448Y40447396D01*
X50237450Y40447310D01*
X50231200Y40105460D01*
X50231195Y40105383D01*
X50231197Y40105313D01*
X50224947Y39772380D01*
X50224943Y39772323D01*
X50224945Y39772258D01*
X50218695Y39446378D01*
X50218692Y39446328D01*
X50218693Y39446283D01*
X50212443Y39125728D01*
X50212441Y39125698D01*
X50212442Y39125660D01*
X50206192Y38808801D01*
X50206190Y38808778D01*
X50206191Y38808761D01*
X50199941Y38494044D01*
X50199940Y38494042D01*
X50199941Y38494032D01*
X50193691Y38179928D01*
X50193690Y38179920D01*
X50187441Y37864985D01*
X50187442Y37864982D01*
X50181192Y37547525D01*
X50181191Y37547514D01*
X50174944Y37226206D01*
X50174945Y37226205D01*
X50168697Y36899126D01*
X50168698Y36899112D01*
X50162450Y36564515D01*
X50162451Y36564511D01*
X50156201Y36220252D01*
X50156200Y36220249D01*
X50149954Y35864477D01*
X50149953Y35864467D01*
X50143710Y35494793D01*
X50143711Y35494787D01*
X50137464Y35107937D01*
X50137465Y35107934D01*
X50131218Y34700851D01*
X50131219Y34700849D01*
X50124969Y34269426D01*
X50124968Y34269410D01*
X50118725Y33809908D01*
X50118726Y33809903D01*
X50112479Y33315971D01*
X50112480Y33315962D01*
X50106230Y32780846D01*
X50106229Y32780843D01*
X50099983Y32196793D01*
X50098812Y32173402D01*
X50098812Y32173327D01*
X50098807Y32173303D01*
X50098806Y32173266D01*
X50095522Y32153882D01*
X50090961Y32126911D01*
X50090948Y32126876D01*
X50090945Y32126852D01*
X50085155Y32109662D01*
X50075945Y32082295D01*
X50075927Y32082262D01*
X50075920Y32082239D01*
X50067127Y32065430D01*
X50054134Y32040576D01*
X50054112Y32040548D01*
X50054101Y32040525D01*
X50042407Y32024788D01*
X50026066Y32002785D01*
X50026040Y32002761D01*
X50026025Y32002739D01*
X50011818Y31988833D01*
X49992431Y31969848D01*
X49992401Y31969827D01*
X49992383Y31969809D01*
X49976139Y31958272D01*
X49954058Y31942579D01*
X49954026Y31942564D01*
X49954005Y31942548D01*
X49934191Y31932718D01*
X49911891Y31921648D01*
X49911862Y31921639D01*
X49911834Y31921625D01*
X49890736Y31915019D01*
X49866970Y31907571D01*
X49866935Y31907566D01*
X49866910Y31907558D01*
X49846155Y31904499D01*
X49820400Y31900696D01*
X49820356Y31900695D01*
X49820338Y31900692D01*
X49820281Y31900693D01*
X49796853Y31900018D01*
X49201175Y31906267D01*
X49201029Y31906275D01*
X49200878Y31906270D01*
X48656572Y31912520D01*
X48656432Y31912528D01*
X48656279Y31912523D01*
X48154754Y31918773D01*
X48154606Y31918781D01*
X48154466Y31918777D01*
X47688794Y31925027D01*
X47688652Y31925035D01*
X47688515Y31925031D01*
X47253039Y31931281D01*
X47252904Y31931289D01*
X47252771Y31931285D01*
X46842802Y31937535D01*
X46842674Y31937542D01*
X46842548Y31937539D01*
X46454158Y31943789D01*
X46454038Y31943796D01*
X46453920Y31943793D01*
X46083769Y31950043D01*
X46083656Y31950050D01*
X46083550Y31950047D01*
X45728765Y31956297D01*
X45728672Y31956303D01*
X45728566Y31956300D01*
X45386641Y31962550D01*
X45386556Y31962555D01*
X45386465Y31962553D01*
X45055187Y31968803D01*
X45055110Y31968808D01*
X45055036Y31968806D01*
X44732418Y31975056D01*
X44732348Y31975061D01*
X44732292Y31975059D01*
X44416527Y31981309D01*
X44416477Y31981312D01*
X44416428Y31981311D01*
X44105841Y31987561D01*
X44105811Y31987563D01*
X44105771Y31987562D01*
X43798786Y31993812D01*
X43798763Y31993814D01*
X43798745Y31993813D01*
X43496844Y32000002D01*
X32195555Y32006250D01*
X32192565Y32006370D01*
X32189577Y32006313D01*
X31884490Y32012563D01*
X31884489Y32012562D01*
X31577090Y32018811D01*
X31577079Y32018810D01*
X31265802Y32025058D01*
X30948894Y32031308D01*
X30948881Y32031309D01*
X30625004Y32037553D01*
X30291834Y32043800D01*
X30291820Y32043799D01*
X29947148Y32050049D01*
X29947133Y32050050D01*
X29589222Y32056293D01*
X29589221Y32056292D01*
X29214685Y32062538D01*
X28820582Y32068784D01*
X28403197Y32075030D01*
X27958107Y32081276D01*
X27479985Y32087523D01*
X27479982Y32087522D01*
X26962312Y32093769D01*
X26962304Y32093768D01*
X26396686Y32100018D01*
X26373294Y32101197D01*
X26373225Y32101197D01*
X26373203Y32101201D01*
X26373160Y32101203D01*
X26352312Y32104742D01*
X26326812Y32109064D01*
X26326776Y32109077D01*
X26326748Y32109081D01*
X26309092Y32115034D01*
X26282201Y32124095D01*
X26282170Y32124112D01*
X26282141Y32124121D01*
X26262541Y32134382D01*
X26240490Y32145921D01*
X26240465Y32145941D01*
X26240434Y32145956D01*
X26221855Y32159772D01*
X26202708Y32174001D01*
X26202684Y32174027D01*
X26202658Y32174045D01*
X26186183Y32190889D01*
X26169782Y32207648D01*
X26169764Y32207674D01*
X26169740Y32207698D01*
X26157078Y32225539D01*
X26142526Y32246029D01*
X26142509Y32246064D01*
X26142493Y32246086D01*
X26132586Y32266074D01*
X26121610Y32288203D01*
X26121602Y32288232D01*
X26121585Y32288264D01*
X26113997Y32312531D01*
X26107549Y32333129D01*
X26107545Y32333160D01*
X26107534Y32333193D01*
X26103826Y32358407D01*
X26100689Y32379702D01*
X26100688Y32379742D01*
X26100684Y32379768D01*
X26100685Y32379848D01*
X26100019Y32403249D01*
X26106268Y32980196D01*
X26106276Y32980344D01*
X26106271Y32980504D01*
X26112521Y33507674D01*
X26112529Y33507830D01*
X26112525Y33507978D01*
X26118775Y33993698D01*
X26118783Y33993848D01*
X26118779Y33993996D01*
X26125029Y34444972D01*
X26125037Y34445115D01*
X26125033Y34445261D01*
X26131283Y34866978D01*
X26131291Y34867114D01*
X26131287Y34867255D01*
X26137537Y35264249D01*
X26137545Y35264378D01*
X26137541Y35264512D01*
X26143791Y35640593D01*
X26143799Y35640727D01*
X26143796Y35640839D01*
X26150046Y35999239D01*
X26150053Y35999352D01*
X26150050Y35999465D01*
X26156300Y36342970D01*
X26156306Y36343063D01*
X26156303Y36343175D01*
X26162553Y36674208D01*
X26162559Y36674306D01*
X26162557Y36674390D01*
X26168807Y36995096D01*
X26168812Y36995174D01*
X26168810Y36995253D01*
X26175060Y37307556D01*
X26175065Y37307626D01*
X26175063Y37307686D01*
X26181313Y37613336D01*
X26181316Y37613386D01*
X26181315Y37613439D01*
X26187565Y37914057D01*
X26187567Y37914087D01*
X26187566Y37914130D01*
X26193816Y38211241D01*
X26193818Y38211264D01*
X26193817Y38211285D01*
X26200067Y38506353D01*
X26200069Y38506370D01*
X26206318Y38800786D01*
X26206317Y38800803D01*
X26212567Y39096066D01*
X26212568Y39096066D01*
X26218816Y39393535D01*
X26218817Y39393551D01*
X26225063Y39694595D01*
X26225062Y39694615D01*
X26231312Y40001208D01*
X26231314Y40001225D01*
X26237557Y40314499D01*
X26237556Y40314517D01*
X26243806Y40636993D01*
X26243807Y40637007D01*
X26250050Y40969995D01*
X26256299Y41316593D01*
X26256300Y41316595D01*
X26262541Y41678560D01*
X26262540Y41678575D01*
X26268790Y42059970D01*
X26268791Y42059975D01*
X26275036Y42463600D01*
X26275037Y42463604D01*
X26281278Y42893680D01*
X26281277Y42893697D01*
X26287526Y43356188D01*
X26293773Y43856855D01*
X26293774Y43856869D01*
X26300021Y44403429D01*
X26301208Y44426797D01*
X26301208Y44426885D01*
X26301213Y44426913D01*
X26301215Y44426955D01*
X26304950Y44448908D01*
X26309092Y44473296D01*
X26309103Y44473328D01*
X26309109Y44473364D01*
X26316991Y44496709D01*
X26324140Y44517901D01*
X26324156Y44517929D01*
X26324167Y44517965D01*
X26335452Y44539500D01*
X26345980Y44559604D01*
X26346001Y44559631D01*
X26346017Y44559663D01*
X26360389Y44578975D01*
X26374075Y44597376D01*
X26374100Y44597399D01*
X26374121Y44597429D01*
X26391182Y44614103D01*
X26407733Y44630289D01*
X26407763Y44630309D01*
X26407787Y44630334D01*
X26427144Y44644061D01*
X26446125Y44657531D01*
X26446156Y44657546D01*
X26446185Y44657567D01*
X26467383Y44668064D01*
X26488306Y44678432D01*
X26488340Y44678442D01*
X26488371Y44678458D01*
X26509212Y44684966D01*
X26533237Y44692477D01*
X26533277Y44692482D01*
X26533306Y44692492D01*
X26553624Y44695472D01*
X26579813Y44699320D01*
X26579866Y44699321D01*
X26579883Y44699324D01*
X26579935Y44699323D01*
X26603360Y44699981D01*
X27161576Y44693731D01*
X27161739Y44693722D01*
X27161893Y44693727D01*
X27671930Y44687477D01*
X27672087Y44687468D01*
X27672244Y44687473D01*
X28142158Y44681223D01*
X28142309Y44681215D01*
X28142465Y44681219D01*
X28578748Y44674969D01*
X28578892Y44674961D01*
X28579047Y44674965D01*
X28987003Y44668715D01*
X28987153Y44668706D01*
X28987289Y44668710D01*
X29371311Y44662460D01*
X29371440Y44662452D01*
X29371583Y44662456D01*
X29735355Y44656206D01*
X29735489Y44656198D01*
X29735609Y44656201D01*
X30082259Y44649951D01*
X30082373Y44649944D01*
X30082494Y44649947D01*
X30414716Y44643697D01*
X30414822Y44643690D01*
X30414929Y44643693D01*
X30735070Y44637443D01*
X30735168Y44637437D01*
X30735259Y44637439D01*
X31045393Y44631189D01*
X31045471Y44631184D01*
X31045556Y44631186D01*
X31347544Y44624936D01*
X31347614Y44624931D01*
X31347679Y44624933D01*
X31643213Y44618683D01*
X31643263Y44618679D01*
X31643320Y44618681D01*
X31933968Y44612431D01*
X31934011Y44612428D01*
X31934045Y44612429D01*
X32221284Y44606179D01*
X32221307Y44606177D01*
X32221330Y44606178D01*
X32503366Y44599998D01*
X43784794Y44593750D01*
X43787995Y44593622D01*
X43791196Y44593678D01*
X44076586Y44587428D01*
X44076587Y44587427D01*
X44364086Y44581179D01*
X44655156Y44574931D01*
X44655164Y44574930D01*
X44951323Y44568683D01*
X45254051Y44562440D01*
X45565636Y44556190D01*
X45887547Y44549944D01*
X45887550Y44549943D01*
X46222189Y44543698D01*
X46222197Y44543697D01*
X46571846Y44537457D01*
X46940268Y44531207D01*
X47330127Y44524962D01*
X47330138Y44524961D01*
X47745510Y44518721D01*
X48192323Y44512471D01*
X48192326Y44512470D01*
X48675719Y44506225D01*
X49203549Y44499979D01*
X49226944Y44498782D01*
X49226999Y44498782D01*
X49227017Y44498778D01*
X49227074Y44498776D01*
X49253707Y44494234D01*
X49273407Y44490880D01*
X49273440Y44490868D01*
X49273480Y44490862D01*
X49295713Y44483345D01*
X49318007Y44475816D01*
X49318042Y44475797D01*
X49318076Y44475786D01*
X49338461Y44465093D01*
X49359701Y44453959D01*
X49359730Y44453937D01*
X49359765Y44453919D01*
X49380065Y44438799D01*
X49397462Y44425850D01*
X49397485Y44425825D01*
X49397519Y44425801D01*
X49414380Y44408535D01*
X49430362Y44392179D01*
X49430384Y44392146D01*
X49430410Y44392121D01*
X49443817Y44373201D01*
X49457589Y44353777D01*
X49457605Y44353743D01*
X49457628Y44353712D01*
X49468712Y44331307D01*
X49478474Y44311587D01*
X49478485Y44311550D01*
X49478502Y44311517D01*
X49485005Y44290664D01*
X49492502Y44266651D01*
X49492508Y44266608D01*
X49492518Y44266577D01*
X49495670Y44245025D01*
X49499327Y44220072D01*
X49499328Y44220021D01*
X49499332Y44219997D01*
X49499331Y44219923D01*
X49499979Y44196525D01*
X49493730Y43657039D01*
X49493721Y43656874D01*
X49493726Y43656710D01*
X49487476Y43163806D01*
X49487467Y43163647D01*
X49487472Y43163481D01*
X49481222Y42709373D01*
X49481213Y42709208D01*
X49481217Y42709055D01*
X49474967Y42287466D01*
X49474958Y42287308D01*
X49474962Y42287157D01*
X49468712Y41892961D01*
X49468703Y41892810D01*
X49468707Y41892664D01*
X49462457Y41521616D01*
X49462449Y41521486D01*
X49462453Y41521335D01*
X49456203Y41169873D01*
X49456195Y41169738D01*
X49456198Y41169609D01*
X49449948Y40834709D01*
X49449940Y40834582D01*
X49449943Y40834465D01*
X49443693Y40513525D01*
X49443686Y40513419D01*
X49443689Y40513304D01*
X49437439Y40204054D01*
X49437433Y40203956D01*
X49437435Y40203858D01*
X49431185Y39904296D01*
X49431179Y39904206D01*
X49431181Y39904127D01*
X49424931Y39612455D01*
X49424926Y39612385D01*
X49424928Y39612314D01*
X49418678Y39326895D01*
X49418674Y39326845D01*
X49418676Y39326783D01*
X49412426Y39046104D01*
X49412423Y39046061D01*
X49412424Y39046025D01*
X49406174Y38768659D01*
X49406172Y38768636D01*
X49406173Y38768611D01*
X49399923Y38493194D01*
X49399075Y38479529D01*
X49399075Y38476462D01*
X49398762Y38474487D01*
X49398464Y38469683D01*
X49394862Y38449867D01*
X49391711Y38429966D01*
X49390656Y38426722D01*
X49390047Y38423366D01*
X49383388Y38404354D01*
X49377164Y38385195D01*
X49375615Y38382157D01*
X49374488Y38378936D01*
X49364934Y38361194D01*
X49355792Y38343250D01*
X49353787Y38340492D01*
X49352170Y38337487D01*
X49339962Y38321463D01*
X49328122Y38305166D01*
X49325709Y38302754D01*
X49323643Y38300041D01*
X49309082Y38286127D01*
X49294834Y38271878D01*
X49292074Y38269874D01*
X49289608Y38267516D01*
X49273053Y38256054D01*
X49256750Y38244208D01*
X49253707Y38242658D01*
X49250906Y38240718D01*
X49232772Y38231992D01*
X49214805Y38222836D01*
X49211558Y38221781D01*
X49208487Y38220303D01*
X49189196Y38214516D01*
X49170034Y38208289D01*
X49166666Y38207756D01*
X49163398Y38206775D01*
X49143427Y38204076D01*
X49123538Y38200925D01*
X49118729Y38200737D01*
X49116747Y38200468D01*
X49113679Y38200538D01*
X49100000Y38200000D01*
X48200000Y38200000D01*
X48176462Y38200925D01*
X48129966Y38208289D01*
X48085195Y38222836D01*
X48043250Y38244208D01*
X48005166Y38271878D01*
X47971878Y38305166D01*
X47944208Y38343250D01*
X47922836Y38385195D01*
X47908289Y38429966D01*
X47900925Y38476462D01*
X47900000Y38500000D01*
X47900925Y38523538D01*
X47908289Y38570034D01*
X47922836Y38614805D01*
X47944208Y38656750D01*
X47971878Y38694834D01*
X48005166Y38728122D01*
X48043250Y38755792D01*
X48085195Y38777164D01*
X48129966Y38791711D01*
X48176462Y38799075D01*
X48200000Y38800000D01*
X48806727Y38800000D01*
X48812574Y39059456D01*
X48812574Y39059461D01*
X48818824Y39340141D01*
X48818824Y39340151D01*
X48825072Y39625450D01*
X48831315Y39916802D01*
X48831315Y39916812D01*
X48837563Y40216314D01*
X48843811Y40525428D01*
X48843811Y40525435D01*
X48850052Y40845897D01*
X48850052Y40845904D01*
X48856297Y41180539D01*
X48856297Y41180541D01*
X48862547Y41532003D01*
X48862548Y41532021D01*
X48868788Y41902491D01*
X48875033Y42296357D01*
X48875033Y42296360D01*
X48881278Y42717623D01*
X48881278Y42717631D01*
X48887528Y43171739D01*
X48887528Y43171742D01*
X48893771Y43664145D01*
X48896544Y43903569D01*
X48668293Y43906271D01*
X48668130Y43906279D01*
X48667967Y43906275D01*
X48184251Y43912525D01*
X48184094Y43912533D01*
X48183931Y43912529D01*
X47737118Y43918779D01*
X47736956Y43918787D01*
X47736807Y43918784D01*
X47320815Y43925034D01*
X47320674Y43925041D01*
X47320517Y43925038D01*
X46930374Y43931288D01*
X46930227Y43931296D01*
X46930090Y43931293D01*
X46561668Y43937543D01*
X46561530Y43937550D01*
X46561403Y43937548D01*
X46211237Y43943798D01*
X46211120Y43943804D01*
X46210992Y43943802D01*
X45876129Y43950052D01*
X45876020Y43950058D01*
X45875907Y43950056D01*
X45553799Y43956306D01*
X45553699Y43956311D01*
X45553603Y43956310D01*
X45242019Y43962560D01*
X45241927Y43962565D01*
X45241849Y43962564D01*
X44938810Y43968814D01*
X44938738Y43968818D01*
X44938669Y43968817D01*
X44642391Y43975067D01*
X44642339Y43975070D01*
X44642279Y43975069D01*
X44351129Y43981319D01*
X44351085Y43981321D01*
X44351048Y43981321D01*
X44063499Y43987571D01*
X44063475Y43987572D01*
X44063449Y43987572D01*
X43781266Y43993751D01*
X32499834Y44000000D01*
X32496632Y44000127D01*
X32493428Y44000072D01*
X32208232Y44006320D01*
X32208232Y44006321D01*
X31921078Y44012569D01*
X31921069Y44012569D01*
X31630527Y44018817D01*
X31335133Y44025064D01*
X31335129Y44025064D01*
X31033303Y44031311D01*
X30723363Y44037557D01*
X30723358Y44037557D01*
X30403430Y44043803D01*
X30071443Y44050049D01*
X29725059Y44056294D01*
X29725048Y44056294D01*
X29361275Y44062544D01*
X28977821Y44068785D01*
X28977812Y44068785D01*
X28569855Y44075035D01*
X28134179Y44081277D01*
X27664578Y44087523D01*
X27154861Y44093769D01*
X27154858Y44093769D01*
X26896553Y44096661D01*
X26893730Y43849683D01*
X26893723Y43849535D01*
X26893727Y43849369D01*
X26887477Y43348520D01*
X26887469Y43348365D01*
X26887473Y43348210D01*
X26881223Y42885592D01*
X26881215Y42885431D01*
X26881218Y42885291D01*
X26874968Y42454605D01*
X26874961Y42454464D01*
X26874964Y42454316D01*
X26868714Y42050413D01*
X26868707Y42050280D01*
X26868710Y42050138D01*
X26862460Y41668744D01*
X26862453Y41668606D01*
X26862455Y41668487D01*
X26856205Y41306012D01*
X26856199Y41305895D01*
X26856201Y41305775D01*
X26849951Y40959162D01*
X26849945Y40959054D01*
X26849947Y40958947D01*
X26843697Y40625557D01*
X26843692Y40625470D01*
X26843694Y40625367D01*
X26837444Y40302890D01*
X26837439Y40302798D01*
X26837440Y40302726D01*
X26831190Y39989117D01*
X26831187Y39989058D01*
X26831188Y39988980D01*
X26824938Y39682386D01*
X26824935Y39682322D01*
X26824935Y39682279D01*
X26818685Y39381011D01*
X26818684Y39380980D01*
X26818684Y39380933D01*
X26812434Y39083416D01*
X26812433Y39083392D01*
X26812433Y39083368D01*
X26806183Y38788105D01*
X26806182Y38788088D01*
X26799933Y38493666D01*
X26799933Y38493647D01*
X26793684Y38198625D01*
X26793684Y38198623D01*
X26787434Y37901511D01*
X26787434Y37901498D01*
X26781185Y37600967D01*
X26781185Y37600965D01*
X26774940Y37295559D01*
X26774940Y37295550D01*
X26768690Y36983248D01*
X26768690Y36983247D01*
X26762447Y36662894D01*
X26762447Y36662882D01*
X26756197Y36331849D01*
X26756196Y36331831D01*
X26749951Y35988605D01*
X26743709Y35630642D01*
X26743709Y35630623D01*
X26737459Y35254542D01*
X26737459Y35254539D01*
X26731213Y34857810D01*
X26731213Y34857808D01*
X26724968Y34436380D01*
X26718724Y33985861D01*
X26712479Y33500565D01*
X26712479Y33500562D01*
X26706229Y32973391D01*
X26706229Y32973383D01*
X26703232Y32696668D01*
X26968933Y32693732D01*
X26969092Y32693725D01*
X26969238Y32693728D01*
X27487221Y32687478D01*
X27487374Y32687471D01*
X27487520Y32687474D01*
X27965945Y32681224D01*
X27966091Y32681217D01*
X27966235Y32681220D01*
X28411616Y32674970D01*
X28411755Y32674963D01*
X28411895Y32674966D01*
X28829560Y32668716D01*
X28829692Y32668709D01*
X28829825Y32668712D01*
X29224192Y32662462D01*
X29224316Y32662456D01*
X29224440Y32662458D01*
X29599225Y32656208D01*
X29599341Y32656202D01*
X29599454Y32656204D01*
X29957818Y32649954D01*
X29957913Y32649949D01*
X29958026Y32649951D01*
X30302698Y32643701D01*
X30302798Y32643696D01*
X30302882Y32643697D01*
X30636251Y32637447D01*
X30636331Y32637443D01*
X30636410Y32637444D01*
X30960591Y32631194D01*
X30960650Y32631191D01*
X30960724Y32631192D01*
X31277633Y32624942D01*
X31277685Y32624939D01*
X31277737Y32624940D01*
X31589120Y32618690D01*
X31589164Y32618688D01*
X31589196Y32618688D01*
X31896682Y32612438D01*
X31896707Y32612437D01*
X31896729Y32612437D01*
X32198870Y32606249D01*
X43500166Y32600000D01*
X43503155Y32599881D01*
X43506148Y32599937D01*
X43811041Y32593687D01*
X44117984Y32587438D01*
X44117994Y32587438D01*
X44428500Y32581189D01*
X44744027Y32574944D01*
X44744040Y32574944D01*
X45066657Y32568694D01*
X45397783Y32562447D01*
X45397788Y32562447D01*
X45739532Y32556200D01*
X45739544Y32556200D01*
X46094118Y32549953D01*
X46464050Y32543707D01*
X46852202Y32537461D01*
X47261917Y32531215D01*
X47697125Y32524969D01*
X48162518Y32518723D01*
X48663755Y32512477D01*
X48663764Y32512477D01*
X49207767Y32506230D01*
X49207770Y32506230D01*
X49503224Y32503131D01*
X49506267Y32787558D01*
X49506274Y32787702D01*
X49506270Y32787853D01*
X49512520Y33322970D01*
X49512527Y33323121D01*
X49512524Y33323259D01*
X49518774Y33817489D01*
X49518781Y33817634D01*
X49518778Y33817771D01*
X49525028Y34277846D01*
X49525034Y34277972D01*
X49525031Y34278117D01*
X49531281Y34709541D01*
X49531288Y34709672D01*
X49531285Y34709797D01*
X49537535Y35117138D01*
X49537541Y35117262D01*
X49537539Y35117380D01*
X49543789Y35504473D01*
X49543795Y35504589D01*
X49543793Y35504695D01*
X49550043Y35874809D01*
X49550048Y35874904D01*
X49550046Y35875011D01*
X49556296Y36230965D01*
X49556300Y36231052D01*
X49556299Y36231143D01*
X49562549Y36575403D01*
X49562553Y36575483D01*
X49562552Y36575557D01*
X49568802Y36910312D01*
X49568806Y36910384D01*
X49568805Y36910441D01*
X49575055Y37237663D01*
X49575058Y37237715D01*
X49575057Y37237765D01*
X49581307Y37559262D01*
X49581308Y37559294D01*
X49581308Y37559336D01*
X49587558Y37876792D01*
X49587559Y37876817D01*
X49587559Y37876838D01*
X49593809Y38191847D01*
X49593809Y38191852D01*
X49593809Y38191864D01*
X49600059Y38505968D01*
X49600059Y38505973D01*
X49606308Y38820629D01*
X49606308Y38820634D01*
X49612558Y39137492D01*
X49612558Y39137500D01*
X49618805Y39457880D01*
X49618805Y39457884D01*
X49625055Y39783764D01*
X49625055Y39783771D01*
X49631300Y40116421D01*
X49631300Y40116428D01*
X49637550Y40458278D01*
X49643797Y40810924D01*
X49643797Y40810930D01*
X49650040Y41176576D01*
X49650040Y41176586D01*
X49656286Y41558250D01*
X49656286Y41558256D01*
X49662536Y41958957D01*
X49662536Y41958972D01*
X49668779Y42381388D01*
X49668779Y42381393D01*
X49675025Y42830352D01*
X49675025Y42830359D01*
X49681275Y43310725D01*
X49681275Y43310734D01*
X49687522Y43827777D01*
X49687522Y43827781D01*
X49693768Y44388856D01*
X49696964Y44703123D01*
X49393813Y44706265D01*
X49393670Y44706272D01*
X49393525Y44706268D01*
X48841274Y44712519D01*
X48841125Y44712526D01*
X48840994Y44712523D01*
X48330959Y44718772D01*
X48330827Y44718778D01*
X48330684Y44718775D01*
X47855915Y44725026D01*
X47855778Y44725033D01*
X47855654Y44725030D01*
X47410469Y44731280D01*
X47410351Y44731286D01*
X47410219Y44731283D01*
X46989906Y44737533D01*
X46989783Y44737539D01*
X46989672Y44737537D01*
X46590269Y44743787D01*
X46590166Y44743792D01*
X46590053Y44743790D01*
X46208189Y44750040D01*
X46208094Y44750045D01*
X46207993Y44750043D01*
X45840758Y44756293D01*
X45840671Y44756297D01*
X45840584Y44756296D01*
X45485433Y44762546D01*
X45485354Y44762550D01*
X45485284Y44762549D01*
X45139957Y44768799D01*
X45139898Y44768802D01*
X45139832Y44768801D01*
X44802294Y44775051D01*
X44802242Y44775053D01*
X44802195Y44775053D01*
X44470583Y44781303D01*
X44470538Y44781305D01*
X44470511Y44781305D01*
X44143087Y44787555D01*
X44143062Y44787556D01*
X44143042Y44787556D01*
X43820938Y44793751D01*
X32499834Y44800000D01*
X32497024Y44800111D01*
X32494224Y44800056D01*
X32169726Y44806305D01*
X32169719Y44806305D01*
X31843054Y44812554D01*
X31512629Y44818802D01*
X31512622Y44818802D01*
X31176744Y44825050D01*
X30833650Y44831297D01*
X30833639Y44831297D01*
X30481385Y44837544D01*
X30481383Y44837544D01*
X30117861Y44843791D01*
X29740718Y44850038D01*
X29347301Y44856284D01*
X29347289Y44856284D01*
X28934281Y44862534D01*
X28498866Y44868777D01*
X28498856Y44868777D01*
X28035859Y44875027D01*
X27541331Y44881270D01*
X27008490Y44887517D01*
X27008471Y44887517D01*
X26430178Y44893764D01*
X26430178Y44893765D01*
X26096971Y44897053D01*
X26093735Y44575175D01*
X26093729Y44575035D01*
X26093732Y44574897D01*
X26087482Y44005513D01*
X26087476Y44005378D01*
X26087479Y44005241D01*
X26081229Y43479399D01*
X26081223Y43479269D01*
X26081226Y43479134D01*
X26074976Y42989670D01*
X26074969Y42989534D01*
X26074972Y42989416D01*
X26068722Y42530469D01*
X26068716Y42530353D01*
X26068719Y42530228D01*
X26062469Y42096941D01*
X26062463Y42096819D01*
X26062465Y42096714D01*
X26056215Y41685003D01*
X26056210Y41684901D01*
X26056212Y41684793D01*
X26049962Y41291178D01*
X26049957Y41291084D01*
X26049959Y41290988D01*
X26043709Y40912471D01*
X26043705Y40912384D01*
X26043706Y40912302D01*
X26037456Y40546260D01*
X26037453Y40546193D01*
X26037454Y40546113D01*
X26031204Y40190215D01*
X26031201Y40190156D01*
X26031202Y40190094D01*
X26024952Y39842242D01*
X26024950Y39842190D01*
X26024950Y39842145D01*
X26018700Y39500417D01*
X26018699Y39500385D01*
X26018699Y39500347D01*
X26012449Y39162954D01*
X26012448Y39162929D01*
X26012448Y39162910D01*
X26006198Y38828155D01*
X26006197Y38828138D01*
X25999948Y38494414D01*
X25999948Y38494393D01*
X25993698Y38160025D01*
X25993697Y38160008D01*
X25987448Y37823459D01*
X25987448Y37823456D01*
X25981201Y37483128D01*
X25981201Y37483118D01*
X25974951Y37137008D01*
X25968706Y36783711D01*
X25968706Y36783696D01*
X25962456Y36420703D01*
X25962456Y36420687D01*
X25956211Y36046411D01*
X25949961Y35657814D01*
X25949961Y35657812D01*
X25943718Y35252845D01*
X25943718Y35252828D01*
X25937468Y34827510D01*
X25937468Y34827505D01*
X25931221Y34378853D01*
X25931221Y34378848D01*
X25924974Y33902339D01*
X25924974Y33902336D01*
X25918731Y33393123D01*
X25918731Y33393103D01*
X25912481Y32844159D01*
X25912480Y32844139D01*
X25906236Y32248998D01*
X25906236Y32248994D01*
X25902862Y31897060D01*
X26243467Y31893736D01*
X26243606Y31893730D01*
X26243737Y31893733D01*
X26830254Y31887483D01*
X26830388Y31887477D01*
X26830519Y31887480D01*
X27372167Y31881231D01*
X27372295Y31881225D01*
X27372425Y31881228D01*
X27876583Y31874977D01*
X27876704Y31874971D01*
X27876829Y31874974D01*
X28349534Y31868725D01*
X28349650Y31868719D01*
X28349771Y31868722D01*
X28796031Y31862471D01*
X28796152Y31862465D01*
X28796250Y31862467D01*
X29220272Y31856217D01*
X29220374Y31856212D01*
X29220476Y31856214D01*
X29625841Y31849964D01*
X29625935Y31849959D01*
X29626026Y31849961D01*
X30015823Y31843711D01*
X30015897Y31843707D01*
X30015988Y31843709D01*
X30392923Y31837459D01*
X30393002Y31837455D01*
X30393065Y31837456D01*
X30759534Y31831206D01*
X30759593Y31831203D01*
X30759653Y31831204D01*
X31117822Y31824954D01*
X31117861Y31824952D01*
X31117915Y31824953D01*
X31469759Y31818703D01*
X31469803Y31818701D01*
X31469827Y31818701D01*
X31817189Y31812451D01*
X31817201Y31812451D01*
X31817232Y31812451D01*
X32159310Y31806248D01*
X38000321Y31800000D01*
X43844514Y31793750D01*
X43847064Y31793648D01*
X43849605Y31793701D01*
X44196080Y31787451D01*
X44196082Y31787451D01*
X44546482Y31781202D01*
X44902622Y31774954D01*
X45266388Y31768706D01*
X45266394Y31768706D01*
X45639820Y31762458D01*
X46025158Y31756211D01*
X46025176Y31756210D01*
X46424893Y31749963D01*
X46841851Y31743716D01*
X47279023Y31737473D01*
X47279043Y31737473D01*
X47740904Y31731223D01*
X48231185Y31724976D01*
X48755387Y31718729D01*
X49319880Y31712482D01*
X49319896Y31712482D01*
X49932196Y31706238D01*
X50302856Y31702784D01*
X50306263Y32062115D01*
X50306269Y32062252D01*
X50306266Y32062377D01*
X50312516Y32666029D01*
X50312522Y32666161D01*
X50312519Y32666286D01*
X50318769Y33223739D01*
X50318775Y33223866D01*
X50318772Y33223989D01*
X50325022Y33742841D01*
X50325028Y33742962D01*
X50325025Y33743082D01*
X50331275Y34229548D01*
X50331280Y34229662D01*
X50331278Y34229776D01*
X50337528Y34689010D01*
X50337533Y34689118D01*
X50337531Y34689224D01*
X50343781Y35125555D01*
X50343786Y35125655D01*
X50343784Y35125752D01*
X50350034Y35542869D01*
X50350038Y35542950D01*
X50350036Y35543048D01*
X50356286Y35944127D01*
X50356290Y35944213D01*
X50356289Y35944287D01*
X50362539Y36332114D01*
X50362542Y36332180D01*
X50362541Y36332252D01*
X50368791Y36709294D01*
X50368794Y36709353D01*
X50368793Y36709410D01*
X50375043Y37077892D01*
X50375045Y37077944D01*
X50375045Y37077983D01*
X50381295Y37439942D01*
X50381296Y37439974D01*
X50381296Y37440009D01*
X50387546Y37797340D01*
X50387547Y37797365D01*
X50387547Y37797382D01*
X50393797Y38151882D01*
X50393797Y38151887D01*
X50393797Y38151899D01*
X50400047Y38505305D01*
X50400925Y38520703D01*
X50400925Y38523538D01*
X50401177Y38525132D01*
X50401388Y38528823D01*
X50405020Y38549395D01*
X50408289Y38570034D01*
X50409110Y38572563D01*
X50409573Y38575181D01*
X50416381Y38594940D01*
X50422836Y38614805D01*
X50424042Y38617172D01*
X50424909Y38619688D01*
X50434721Y38638131D01*
X50444208Y38656750D01*
X50445772Y38658903D01*
X50447020Y38661248D01*
X50459583Y38677912D01*
X50471878Y38694834D01*
X50473759Y38696715D01*
X50475359Y38698837D01*
X50490380Y38713336D01*
X50505166Y38728122D01*
X50507318Y38729685D01*
X50509230Y38731531D01*
X50526349Y38743513D01*
X50543250Y38755792D01*
X50545616Y38756997D01*
X50547797Y38758524D01*
X50566597Y38767688D01*
X50585195Y38777164D01*
X50587722Y38777985D01*
X50590114Y38779151D01*
X50610109Y38785259D01*
X50629966Y38791711D01*
X50632590Y38792126D01*
X50635135Y38792904D01*
X50655824Y38795806D01*
X50676462Y38799075D01*
X50680159Y38799220D01*
X50681754Y38799444D01*
X50684580Y38799394D01*
X50700000Y38800000D01*
X51693919Y38800000D01*
X51690795Y38887959D01*
X51679323Y39081664D01*
X51663269Y39275033D01*
X51642645Y39467971D01*
X51617457Y39660398D01*
X51587730Y39852133D01*
X51553472Y40043121D01*
X51514708Y40233232D01*
X51471448Y40422406D01*
X51423726Y40610495D01*
X51371563Y40797418D01*
X51315011Y40982991D01*
X51252950Y41170601D01*
X51246436Y41193238D01*
X51238825Y41239694D01*
X51238575Y41286769D01*
X51245692Y41333304D01*
X51260002Y41378151D01*
X51281151Y41420209D01*
X51308618Y41458440D01*
X51341728Y41491903D01*
X51379665Y41519775D01*
X51421496Y41541369D01*
X51466190Y41556154D01*
X51512646Y41563765D01*
X51559721Y41564015D01*
X51606256Y41556898D01*
X51651103Y41542588D01*
X51693161Y41521439D01*
X51731392Y41493972D01*
X51764855Y41460862D01*
X51792727Y41422925D01*
X51814321Y41381094D01*
X51822592Y41359037D01*
X51885763Y41168073D01*
X51886747Y41164650D01*
X51887912Y41161307D01*
X51946547Y40968901D01*
X51947445Y40965475D01*
X51948537Y40962085D01*
X52002601Y40768347D01*
X52003417Y40764903D01*
X52004429Y40761487D01*
X52053895Y40566522D01*
X52054633Y40563043D01*
X52055559Y40559621D01*
X52100398Y40363541D01*
X52101054Y40360041D01*
X52101898Y40356602D01*
X52142085Y40159516D01*
X52142657Y40156008D01*
X52143421Y40152543D01*
X52178933Y39954560D01*
X52179421Y39951048D01*
X52180104Y39947558D01*
X52210921Y39748791D01*
X52211325Y39745273D01*
X52211926Y39741765D01*
X52238031Y39542324D01*
X52238351Y39538801D01*
X52238870Y39535274D01*
X52260249Y39335272D01*
X52260487Y39331728D01*
X52260920Y39328205D01*
X52277561Y39127752D01*
X52277715Y39124194D01*
X52278064Y39120670D01*
X52289956Y38919880D01*
X52290026Y38916335D01*
X52290292Y38912791D01*
X52297431Y38711774D01*
X52297417Y38708224D01*
X52297599Y38704677D01*
X52299979Y38503550D01*
X52299333Y38480003D01*
X52299075Y38478239D01*
X52299075Y38476462D01*
X52295669Y38454963D01*
X52292519Y38433423D01*
X52291989Y38431727D01*
X52291711Y38429966D01*
X52284977Y38409244D01*
X52278503Y38388483D01*
X52277714Y38386889D01*
X52277164Y38385195D01*
X52267277Y38365792D01*
X52257629Y38346288D01*
X52256600Y38344837D01*
X52255792Y38343250D01*
X52242983Y38325622D01*
X52230411Y38307879D01*
X52229169Y38306608D01*
X52228122Y38305166D01*
X52212735Y38289780D01*
X52197520Y38274199D01*
X52196089Y38273134D01*
X52194834Y38271878D01*
X52177237Y38259094D01*
X52159766Y38246081D01*
X52158190Y38245255D01*
X52156750Y38244208D01*
X52137351Y38234324D01*
X52118077Y38224214D01*
X52116390Y38223644D01*
X52114805Y38222836D01*
X52094109Y38216112D01*
X52073481Y38209138D01*
X52071725Y38208839D01*
X52070034Y38208289D01*
X52048511Y38204881D01*
X52027075Y38201225D01*
X52025299Y38201204D01*
X52023538Y38200925D01*
X52000000Y38200000D01*
X50994741Y38200000D01*
X50993703Y38141290D01*
X50993702Y38141283D01*
X50987453Y37786855D01*
X50987454Y37786848D01*
X50981204Y37429516D01*
X50981203Y37429512D01*
X50974956Y37067727D01*
X50974957Y37067716D01*
X50968708Y36699351D01*
X50968709Y36699350D01*
X50962459Y36322308D01*
X50962458Y36322303D01*
X50956213Y35934790D01*
X50956214Y35934779D01*
X50949964Y35533699D01*
X50949963Y35533682D01*
X50943718Y35116962D01*
X50943719Y35116961D01*
X50937470Y34680753D01*
X50931223Y34221687D01*
X50924976Y33735495D01*
X50918730Y33216985D01*
X50912483Y32659820D01*
X50912484Y32659817D01*
X50906236Y32056435D01*
X50906237Y32056427D01*
X50899987Y31397157D01*
X50898843Y31373745D01*
X50898843Y31373677D01*
X50898839Y31373655D01*
X50898838Y31373629D01*
X50895505Y31353802D01*
X50891046Y31327251D01*
X50891037Y31327227D01*
X50891034Y31327204D01*
X50883700Y31305341D01*
X50876082Y31282618D01*
X50876071Y31282597D01*
X50876063Y31282573D01*
X50864056Y31259552D01*
X50854320Y31240874D01*
X50854307Y31240858D01*
X50854295Y31240833D01*
X50838766Y31219881D01*
X50826296Y31203049D01*
X50826280Y31203034D01*
X50826265Y31203013D01*
X50807363Y31184467D01*
X50792699Y31170073D01*
X50792682Y31170062D01*
X50792663Y31170042D01*
X50771196Y31154755D01*
X50754359Y31142759D01*
X50754339Y31142750D01*
X50754318Y31142734D01*
X50732809Y31132031D01*
X50712217Y31121779D01*
X50712192Y31121772D01*
X50712172Y31121761D01*
X50688590Y31114346D01*
X50667312Y31107650D01*
X50667291Y31107647D01*
X50667266Y31107639D01*
X50640762Y31103699D01*
X50620750Y31100720D01*
X50620723Y31100720D01*
X50620702Y31100716D01*
X50620637Y31100717D01*
X50597204Y31100014D01*
X49926604Y31106264D01*
X49926466Y31106271D01*
X49926341Y31106267D01*
X49313501Y31112516D01*
X49313380Y31112522D01*
X49313241Y31112518D01*
X48748492Y31118768D01*
X48748363Y31118775D01*
X48748237Y31118771D01*
X48223788Y31125021D01*
X48223665Y31125028D01*
X48223541Y31125024D01*
X47733023Y31131274D01*
X47732905Y31131281D01*
X47732785Y31131277D01*
X47270925Y31137527D01*
X47270801Y31137534D01*
X47270700Y31137531D01*
X46833073Y31143781D01*
X46832969Y31143787D01*
X46832863Y31143784D01*
X46415711Y31150034D01*
X46415613Y31150040D01*
X46415517Y31150037D01*
X46015606Y31156287D01*
X46015528Y31156292D01*
X46015431Y31156289D01*
X45629939Y31162539D01*
X45629855Y31162544D01*
X45629783Y31162542D01*
X45256218Y31168792D01*
X45256154Y31168796D01*
X45256084Y31168794D01*
X44892207Y31175044D01*
X44892150Y31175048D01*
X44892096Y31175046D01*
X44535870Y31181296D01*
X44535820Y31181299D01*
X44535784Y31181298D01*
X44185321Y31187548D01*
X44185291Y31187550D01*
X44185259Y31187549D01*
X43841349Y31193753D01*
X37999679Y31200000D01*
X32156099Y31206250D01*
X32153543Y31206354D01*
X32150981Y31206299D01*
X31806352Y31212549D01*
X31806333Y31212551D01*
X31459122Y31218798D01*
X31459102Y31218797D01*
X31107259Y31225047D01*
X31107243Y31225048D01*
X30749303Y31231294D01*
X30382991Y31237542D01*
X30382976Y31237541D01*
X30006040Y31243791D01*
X30006025Y31243792D01*
X29616592Y31250037D01*
X29616591Y31250036D01*
X29211429Y31256283D01*
X28787647Y31262530D01*
X28787627Y31262529D01*
X28341603Y31268777D01*
X27869144Y31275023D01*
X27365245Y31281271D01*
X26823861Y31287517D01*
X26237616Y31293765D01*
X26237612Y31293764D01*
X25597073Y31300014D01*
X25573660Y31301164D01*
X25573596Y31301164D01*
X25573576Y31301168D01*
X25573545Y31301169D01*
X25550894Y31304984D01*
X25527172Y31308974D01*
X25527150Y31308982D01*
X25527123Y31308986D01*
X25504615Y31316543D01*
X25482543Y31323949D01*
X25482521Y31323961D01*
X25482496Y31323969D01*
X25462532Y31334388D01*
X25440805Y31345723D01*
X25440785Y31345739D01*
X25440762Y31345750D01*
X25425048Y31357403D01*
X25402988Y31373756D01*
X25402968Y31373778D01*
X25402950Y31373790D01*
X25387553Y31389490D01*
X25370021Y31407362D01*
X25370008Y31407382D01*
X25369988Y31407401D01*
X25356295Y31426640D01*
X25342717Y31445710D01*
X25342707Y31445732D01*
X25342691Y31445753D01*
X25331949Y31467355D01*
X25321748Y31487858D01*
X25321741Y31487882D01*
X25321729Y31487905D01*
X25315063Y31509125D01*
X25307631Y31532766D01*
X25307627Y31532795D01*
X25307620Y31532816D01*
X25304592Y31553226D01*
X25300713Y31579330D01*
X25300712Y31579369D01*
X25300710Y31579381D01*
X25300711Y31579419D01*
X25300014Y31602876D01*
X25306264Y32254746D01*
X25306271Y32254886D01*
X25306267Y32255017D01*
X25312517Y32850722D01*
X25312524Y32850845D01*
X25312519Y32850990D01*
X25318769Y33399933D01*
X25318777Y33400076D01*
X25318773Y33400196D01*
X25325023Y33909950D01*
X25325030Y33910075D01*
X25325026Y33910204D01*
X25331276Y34386962D01*
X25331283Y34387081D01*
X25331279Y34387206D01*
X25337529Y34836095D01*
X25337535Y34836207D01*
X25337532Y34836326D01*
X25343782Y35261644D01*
X25343789Y35261762D01*
X25343786Y35261861D01*
X25350036Y35667262D01*
X25350042Y35667361D01*
X25350039Y35667462D01*
X25356289Y36056092D01*
X25356295Y36056183D01*
X25356292Y36056273D01*
X25362542Y36430873D01*
X25362546Y36430944D01*
X25362544Y36431032D01*
X25368794Y36794026D01*
X25368799Y36794103D01*
X25368797Y36794164D01*
X25375047Y37147726D01*
X25375051Y37147783D01*
X25375049Y37147841D01*
X25381299Y37493950D01*
X25381302Y37494000D01*
X25381301Y37494040D01*
X25387551Y37834534D01*
X25387553Y37834564D01*
X25387552Y37834597D01*
X25393802Y38171200D01*
X25393803Y38171210D01*
X25393802Y38171238D01*
X25400052Y38505607D01*
X25400054Y38505628D01*
X25406303Y38839337D01*
X25406302Y38839355D01*
X25412552Y39174061D01*
X25412551Y39174066D01*
X25418801Y39511459D01*
X25418802Y39511466D01*
X25425049Y39853014D01*
X25425048Y39853020D01*
X25431298Y40200872D01*
X25431299Y40200875D01*
X25437546Y40556649D01*
X25437547Y40556661D01*
X25443792Y40922373D01*
X25443791Y40922376D01*
X25450041Y41300894D01*
X25450042Y41300894D01*
X25456288Y41694319D01*
X25456289Y41694323D01*
X25462532Y42105581D01*
X25462531Y42105595D01*
X25468781Y42538882D01*
X25468782Y42538889D01*
X25475025Y42997317D01*
X25475024Y42997331D01*
X25481274Y43486794D01*
X25481275Y43486797D01*
X25487521Y44012355D01*
X25493766Y44581249D01*
X25500015Y45203014D01*
X25501172Y45226428D01*
X25501172Y45226488D01*
X25501176Y45226507D01*
X25501177Y45226542D01*
X25504615Y45246920D01*
X25508994Y45272909D01*
X25509005Y45272940D01*
X25509008Y45272961D01*
X25515784Y45293122D01*
X25523983Y45317534D01*
X25523995Y45317556D01*
X25524004Y45317584D01*
X25535021Y45338679D01*
X25545767Y45359266D01*
X25545784Y45359288D01*
X25545796Y45359312D01*
X25559210Y45377389D01*
X25573812Y45397075D01*
X25573833Y45397095D01*
X25573848Y45397116D01*
X25589986Y45412932D01*
X25607427Y45430033D01*
X25607450Y45430049D01*
X25607469Y45430068D01*
X25626047Y45443282D01*
X25645782Y45457326D01*
X25645808Y45457338D01*
X25645829Y45457354D01*
X25665387Y45467072D01*
X25687936Y45478283D01*
X25687966Y45478292D01*
X25687987Y45478303D01*
X25708727Y45484812D01*
X25732848Y45492387D01*
X25732876Y45492391D01*
X25732901Y45492399D01*
X25753981Y45495520D01*
X25779415Y45499292D01*
X25779458Y45499293D01*
X25779469Y45499295D01*
X25779505Y45499294D01*
X25802961Y45499984D01*
X26436100Y45493735D01*
G37*
%TD.AperFunction*%
%TD*%
D11*
%TO.P,J1,*%
%TO.N,*%
X76200000Y42500000D03*
X76200000Y31500000D03*
D12*
%TO.P,J1,1*%
%TO.N,/PGND*%
X66200000Y34500000D03*
D13*
%TO.P,J1,2*%
%TO.N,/VIN_RAW*%
X66200000Y39500000D03*
%TD*%
D11*
%TO.P,J2,*%
%TO.N,*%
X8800000Y31500000D03*
X8800000Y42500000D03*
D14*
%TO.P,J2,1*%
%TO.N,/SGND*%
X13800000Y34500000D03*
D13*
%TO.P,J2,2*%
%TO.N,/VOUT*%
X13800000Y39500000D03*
%TD*%
D15*
%TO.P,T1,1*%
%TO.N,/PRI_A*%
X51537772Y35735180D03*
%TO.P,T1,2*%
%TO.N,/TANK_C*%
X51537772Y41264820D03*
%TO.P,T1,3*%
%TO.N,/SEC_A*%
X24462228Y41264820D03*
%TO.P,T1,4*%
%TO.N,/VOUT*%
X27800000Y38500000D03*
%TO.P,T1,5*%
%TO.N,/SEC_B*%
X24462228Y35735180D03*
%TO.P,T1,6*%
%TO.N,unconnected-(T1-P_MID-Pad6)*%
X48200000Y38500000D03*
%TD*%
D16*
%TO.N,/AGND*%
X52000000Y30975000D03*
X44325000Y8800000D03*
X47200000Y18375000D03*
X38800000Y16325000D03*
X35950000Y8130000D03*
X44325000Y21300000D03*
X56100000Y30200000D03*
X55100000Y52275000D03*
X42125000Y13600000D03*
X58000000Y55000000D03*
X38800000Y20575000D03*
X53000000Y30500000D03*
X39575000Y23000000D03*
X45600000Y16370000D03*
X49950000Y20150000D03*
X51950000Y27200000D03*
X46000000Y23325000D03*
X58275000Y46300000D03*
X35950000Y15730000D03*
%TO.N,/BIAS12*%
X54000000Y15675000D03*
X60950000Y9500000D03*
X52000000Y29425000D03*
X47200000Y16825000D03*
X56100000Y31150000D03*
X56100000Y29250000D03*
X49100000Y10825000D03*
X62000000Y17275000D03*
X49100000Y5525000D03*
X45600000Y17630000D03*
%TO.N,/BIAS_BST*%
X54225000Y25500000D03*
X55000000Y20870000D03*
%TO.N,/BIAS_EN*%
X62500000Y19375000D03*
X61000000Y22140000D03*
X62500000Y24825000D03*
%TO.N,/BIAS_FB*%
X54000000Y17325000D03*
X58000000Y17275000D03*
X55000000Y23410000D03*
X56000000Y15675000D03*
%TO.N,/BIAS_SW*%
X55050000Y9500000D03*
X55775000Y25500000D03*
X60000000Y15675000D03*
X55000000Y19600000D03*
%TO.N,/CS_AC*%
X49800000Y23375000D03*
X47800000Y28175000D03*
%TO.N,/DT*%
X40475000Y13600000D03*
X40400000Y18900000D03*
%TO.N,/FB_COL*%
X35950000Y18270000D03*
X40400000Y10725000D03*
%TO.N,/FB_K*%
X27450000Y18240000D03*
X22575000Y13600000D03*
X30500000Y21225000D03*
X29650000Y15730000D03*
%TO.N,/FB_LED*%
X27625000Y22000000D03*
X29650000Y18270000D03*
%TO.N,/GD1*%
X42675000Y23000000D03*
X45600000Y18900000D03*
%TO.N,/GD2*%
X45600000Y15100000D03*
X42675000Y10500000D03*
%TO.N,/HI*%
X44325000Y23000000D03*
X61100000Y44900000D03*
%TO.N,/LI*%
X44325000Y10500000D03*
X60330000Y46300000D03*
%TO.N,/OC*%
X40400000Y16370000D03*
X49950000Y22050000D03*
X38025000Y23000000D03*
X46000000Y21675000D03*
%TO.N,/OV_LED*%
X24000000Y10175000D03*
X22300000Y11825000D03*
X29650000Y10670000D03*
%TO.N,/OV_REF*%
X25550000Y10640000D03*
X25725000Y6000000D03*
X19000000Y9325000D03*
X21000000Y6775000D03*
%TO.N,/PGND*%
X49100000Y13775000D03*
X59725000Y36700000D03*
X56000000Y17325000D03*
X59770000Y42660000D03*
X55975000Y42900000D03*
X49100000Y8475000D03*
X48300000Y52690000D03*
X60775000Y28000000D03*
X61200000Y30925000D03*
X58000000Y21500000D03*
X72500000Y25000000D03*
X55975000Y40100000D03*
X61000000Y19600000D03*
X60000000Y40200000D03*
X54000000Y48575000D03*
X62500000Y21025000D03*
%TO.N,/RIPPLE*%
X60000000Y17325000D03*
X62000000Y15725000D03*
X58000000Y15725000D03*
%TO.N,/RT*%
X38800000Y14675000D03*
X40400000Y17630000D03*
X40400000Y9075000D03*
%TO.N,/SEC_A*%
X20310000Y44610000D03*
%TO.N,/SGND*%
X19990000Y34100000D03*
X17300000Y43275000D03*
X23500000Y28975000D03*
X19960000Y41900000D03*
X26500000Y8160000D03*
X27275000Y6000000D03*
X21290000Y34100000D03*
X11500000Y25000000D03*
X22500000Y36600000D03*
X26500000Y15760000D03*
X20640000Y34100000D03*
X19310000Y41900000D03*
X21000000Y8425000D03*
X23500000Y23975000D03*
X20610000Y41900000D03*
X17300000Y39130000D03*
X21775000Y50000000D03*
X19000000Y28975000D03*
X21000000Y17825000D03*
X20450000Y35000000D03*
%TO.N,/SS*%
X38800000Y19025000D03*
X40400000Y15100000D03*
X35950000Y10670000D03*
%TO.N,/SW*%
X57800000Y38000000D03*
X62000000Y44500000D03*
X62200000Y47075000D03*
%TO.N,/TANK_C*%
X53025000Y40100000D03*
X47800000Y26625000D03*
%TO.N,/V5*%
X53900000Y29250000D03*
X59600000Y45600000D03*
X55100000Y50725000D03*
X55000000Y55000000D03*
X56725000Y46300000D03*
%TO.N,/VG1*%
X24325000Y42700000D03*
X17300000Y40400000D03*
%TO.N,/VG2*%
X22500000Y40400000D03*
X17000000Y31175000D03*
%TO.N,/VIN*%
X62500000Y23175000D03*
X57825000Y28000000D03*
X61200000Y33875000D03*
X54000000Y45625000D03*
X70000000Y25000000D03*
X61000000Y20870000D03*
X48300000Y48310000D03*
X50550000Y51000000D03*
%TO.N,/VIN_RAW*%
X53450000Y51000000D03*
%TO.N,/VOUT*%
X18825000Y50000000D03*
X19000000Y7675000D03*
X23500000Y26025000D03*
X9000000Y25000000D03*
X22300000Y10175000D03*
X25975000Y22000000D03*
X22500000Y39130000D03*
X23500000Y21025000D03*
X19000000Y26025000D03*
X17300000Y41725000D03*
X19000000Y16175000D03*
%TO.N,/VREF*%
X25550000Y18240000D03*
X27775000Y13600000D03*
X19000000Y17825000D03*
X30500000Y22775000D03*
X21000000Y16175000D03*
%TO.N,/VS1*%
X17300000Y36600000D03*
X24000000Y45825000D03*
%TO.N,/VS2*%
X22500000Y37870000D03*
X24000000Y32625000D03*
%TD*%
%TO.N,/PGND*%
D17*
X48300000Y53250000D02*
X54000000Y53250000D01*
X48300000Y52690000D02*
X48300000Y53250000D01*
X54000000Y53250000D02*
X54000000Y52900000D01*
%TD*%
%TA.AperFunction,Conductor*%
%TO.N,/PGND*%
G36*
X70471280Y53381518D02*
G01*
X70498300Y53334718D01*
X70499500Y53321000D01*
X70499500Y53281664D01*
X70537556Y52846689D01*
X70537556Y52846688D01*
X70613382Y52416658D01*
X70726391Y51994900D01*
X70726393Y51994893D01*
X70726395Y51994888D01*
X70875739Y51584568D01*
X70875741Y51584562D01*
X70875744Y51584556D01*
X70875744Y51584554D01*
X71060273Y51188834D01*
X71060277Y51188825D01*
X71127452Y51072475D01*
X71278603Y50810674D01*
X71278607Y50810669D01*
X71278609Y50810665D01*
X71529055Y50452990D01*
X71529068Y50452973D01*
X71809728Y50118497D01*
X71809740Y50118484D01*
X72118483Y49809741D01*
X72118496Y49809729D01*
X72452972Y49529069D01*
X72452988Y49529057D01*
X72810674Y49278603D01*
X73188826Y49060277D01*
X73320740Y48998765D01*
X73584554Y48875745D01*
X73584559Y48875744D01*
X73584568Y48875739D01*
X73994888Y48726395D01*
X74416663Y48613381D01*
X74846682Y48537557D01*
X75281663Y48499501D01*
X75281665Y48499500D01*
X75281673Y48499500D01*
X75718326Y48499500D01*
X75718327Y48499500D01*
X75720605Y48499700D01*
X75727491Y48500000D01*
X75921000Y48500000D01*
X75971780Y48481518D01*
X75998800Y48434718D01*
X76000000Y48421000D01*
X76000000Y43494174D01*
X75981518Y43443394D01*
X75936416Y43416693D01*
X75922751Y43413975D01*
X75922743Y43413972D01*
X75749774Y43342325D01*
X75749768Y43342322D01*
X75594093Y43238304D01*
X75594086Y43238298D01*
X75461702Y43105914D01*
X75461696Y43105907D01*
X75357678Y42950232D01*
X75357675Y42950226D01*
X75286027Y42777254D01*
X75286026Y42777252D01*
X75249500Y42593616D01*
X75249500Y42406385D01*
X75286026Y42222749D01*
X75286027Y42222747D01*
X75357675Y42049775D01*
X75357678Y42049769D01*
X75461696Y41894094D01*
X75461702Y41894087D01*
X75594086Y41761703D01*
X75594092Y41761698D01*
X75749769Y41657678D01*
X75749774Y41657676D01*
X75922744Y41586029D01*
X75922745Y41586029D01*
X75922749Y41586027D01*
X75936411Y41583310D01*
X75982609Y41555279D01*
X76000000Y41505828D01*
X76000000Y32494174D01*
X75981518Y32443394D01*
X75936416Y32416693D01*
X75922751Y32413975D01*
X75922743Y32413972D01*
X75749774Y32342325D01*
X75749768Y32342322D01*
X75594093Y32238304D01*
X75594086Y32238298D01*
X75461702Y32105914D01*
X75461696Y32105907D01*
X75357678Y31950232D01*
X75357675Y31950226D01*
X75286027Y31777254D01*
X75286026Y31777252D01*
X75270760Y31700500D01*
X75249500Y31593616D01*
X75249500Y31406384D01*
X75253816Y31384687D01*
X75286026Y31222749D01*
X75286027Y31222747D01*
X75357675Y31049775D01*
X75357678Y31049769D01*
X75461696Y30894094D01*
X75461702Y30894087D01*
X75594086Y30761703D01*
X75594092Y30761698D01*
X75749769Y30657678D01*
X75799726Y30636985D01*
X75922744Y30586029D01*
X75922745Y30586029D01*
X75922749Y30586027D01*
X75936411Y30583310D01*
X75982609Y30555279D01*
X76000000Y30505828D01*
X76000000Y9579000D01*
X75981518Y9528220D01*
X75934718Y9501200D01*
X75921000Y9500000D01*
X75727491Y9500000D01*
X75720605Y9500301D01*
X75718327Y9500500D01*
X75281673Y9500500D01*
X75281663Y9500500D01*
X74846688Y9462444D01*
X74846687Y9462444D01*
X74416657Y9386618D01*
X73994899Y9273609D01*
X73994892Y9273607D01*
X73720099Y9173591D01*
X73584568Y9124261D01*
X73584565Y9124260D01*
X73584555Y9124256D01*
X73584553Y9124256D01*
X73188833Y8939727D01*
X73188824Y8939723D01*
X72810679Y8721400D01*
X72810664Y8721391D01*
X72452989Y8470945D01*
X72452972Y8470932D01*
X72118496Y8190272D01*
X72118483Y8190260D01*
X71809740Y7881517D01*
X71809728Y7881504D01*
X71529068Y7547028D01*
X71529055Y7547011D01*
X71278609Y7189336D01*
X71278600Y7189321D01*
X71060277Y6811176D01*
X71060273Y6811167D01*
X70875744Y6415447D01*
X70875744Y6415445D01*
X70726393Y6005108D01*
X70726391Y6005101D01*
X70613382Y5583343D01*
X70537556Y5153313D01*
X70537556Y5153312D01*
X70499500Y4718337D01*
X70499500Y4679000D01*
X70481018Y4628220D01*
X70434218Y4601200D01*
X70420500Y4600000D01*
X34579000Y4600000D01*
X34528220Y4618482D01*
X34501200Y4665282D01*
X34500000Y4679000D01*
X34500000Y5597476D01*
X48549500Y5597476D01*
X48549500Y5452525D01*
X48587015Y5312516D01*
X48587016Y5312514D01*
X48659492Y5186983D01*
X48761982Y5084493D01*
X48761984Y5084492D01*
X48761985Y5084491D01*
X48887515Y5012016D01*
X49027525Y4974500D01*
X49027527Y4974500D01*
X49172473Y4974500D01*
X49172475Y4974500D01*
X49312485Y5012016D01*
X49438015Y5084491D01*
X49540509Y5186985D01*
X49612984Y5312515D01*
X49650500Y5452525D01*
X49650500Y5597475D01*
X49612984Y5737485D01*
X49540509Y5863015D01*
X49540508Y5863016D01*
X49540507Y5863018D01*
X49438017Y5965508D01*
X49312486Y6037984D01*
X49312484Y6037985D01*
X49172475Y6075500D01*
X49027525Y6075500D01*
X49027524Y6075500D01*
X48887515Y6037985D01*
X48887513Y6037984D01*
X48761982Y5965508D01*
X48659492Y5863018D01*
X48587016Y5737487D01*
X48587015Y5737485D01*
X48549500Y5597476D01*
X34500000Y5597476D01*
X34500000Y8202476D01*
X35399500Y8202476D01*
X35399500Y8057525D01*
X35437015Y7917516D01*
X35437016Y7917514D01*
X35509492Y7791983D01*
X35611982Y7689493D01*
X35611984Y7689492D01*
X35611985Y7689491D01*
X35737515Y7617016D01*
X35877525Y7579500D01*
X35877527Y7579500D01*
X36022473Y7579500D01*
X36022475Y7579500D01*
X36162485Y7617016D01*
X36288015Y7689491D01*
X36390509Y7791985D01*
X36462984Y7917515D01*
X36500500Y8057525D01*
X36500500Y8202475D01*
X36462984Y8342485D01*
X36390509Y8468015D01*
X36390508Y8468016D01*
X36390507Y8468018D01*
X36288017Y8570508D01*
X36162486Y8642984D01*
X36162484Y8642985D01*
X36022475Y8680500D01*
X35877525Y8680500D01*
X35877524Y8680500D01*
X35737515Y8642985D01*
X35737513Y8642984D01*
X35611982Y8570508D01*
X35509492Y8468018D01*
X35437016Y8342487D01*
X35437015Y8342485D01*
X35399500Y8202476D01*
X34500000Y8202476D01*
X34500000Y9147476D01*
X39849500Y9147476D01*
X39849500Y9002525D01*
X39887015Y8862516D01*
X39887016Y8862514D01*
X39959492Y8736983D01*
X40061982Y8634493D01*
X40061984Y8634492D01*
X40061985Y8634491D01*
X40187515Y8562016D01*
X40327525Y8524500D01*
X40327527Y8524500D01*
X40472473Y8524500D01*
X40472475Y8524500D01*
X40612485Y8562016D01*
X40738015Y8634491D01*
X40840509Y8736985D01*
X40912984Y8862515D01*
X40915653Y8872476D01*
X43774500Y8872476D01*
X43774500Y8727525D01*
X43812015Y8587516D01*
X43812016Y8587514D01*
X43884492Y8461983D01*
X43986982Y8359493D01*
X43986984Y8359492D01*
X43986985Y8359491D01*
X44112515Y8287016D01*
X44252525Y8249500D01*
X44252527Y8249500D01*
X44397473Y8249500D01*
X44397475Y8249500D01*
X44537485Y8287016D01*
X44663015Y8359491D01*
X44765509Y8461985D01*
X44837984Y8587515D01*
X44875500Y8727525D01*
X44875500Y8872475D01*
X44837984Y9012485D01*
X44765509Y9138015D01*
X44765508Y9138016D01*
X44765507Y9138018D01*
X44663017Y9240508D01*
X44537486Y9312984D01*
X44537484Y9312985D01*
X44397475Y9350500D01*
X44252525Y9350500D01*
X44252524Y9350500D01*
X44112515Y9312985D01*
X44112513Y9312984D01*
X43986982Y9240508D01*
X43884492Y9138018D01*
X43812016Y9012487D01*
X43812015Y9012485D01*
X43774500Y8872476D01*
X40915653Y8872476D01*
X40950500Y9002525D01*
X40950500Y9147475D01*
X40912984Y9287485D01*
X40840509Y9413015D01*
X40840508Y9413016D01*
X40840507Y9413018D01*
X40738020Y9515505D01*
X40738014Y9515510D01*
X40639347Y9572476D01*
X54499500Y9572476D01*
X54499500Y9427525D01*
X54537015Y9287516D01*
X54537016Y9287514D01*
X54609492Y9161983D01*
X54711982Y9059493D01*
X54810647Y9002528D01*
X54837515Y8987016D01*
X54977525Y8949500D01*
X54977527Y8949500D01*
X55122473Y8949500D01*
X55122475Y8949500D01*
X55262485Y8987016D01*
X55388015Y9059491D01*
X55490509Y9161985D01*
X55562984Y9287515D01*
X55600500Y9427525D01*
X55600500Y9572475D01*
X55600500Y9572476D01*
X60399500Y9572476D01*
X60399500Y9427525D01*
X60437015Y9287516D01*
X60437016Y9287514D01*
X60509492Y9161983D01*
X60611982Y9059493D01*
X60710647Y9002528D01*
X60737515Y8987016D01*
X60877525Y8949500D01*
X60877527Y8949500D01*
X61022473Y8949500D01*
X61022475Y8949500D01*
X61162485Y8987016D01*
X61288015Y9059491D01*
X61390509Y9161985D01*
X61462984Y9287515D01*
X61500500Y9427525D01*
X61500500Y9572475D01*
X61462984Y9712485D01*
X61390509Y9838015D01*
X61390508Y9838016D01*
X61390507Y9838018D01*
X61288017Y9940508D01*
X61162486Y10012984D01*
X61162484Y10012985D01*
X61022475Y10050500D01*
X60877525Y10050500D01*
X60877524Y10050500D01*
X60737515Y10012985D01*
X60737513Y10012984D01*
X60611982Y9940508D01*
X60509492Y9838018D01*
X60437016Y9712487D01*
X60437015Y9712485D01*
X60399500Y9572476D01*
X55600500Y9572476D01*
X55562984Y9712485D01*
X55490509Y9838015D01*
X55490508Y9838016D01*
X55490507Y9838018D01*
X55388017Y9940508D01*
X55262486Y10012984D01*
X55262484Y10012985D01*
X55122475Y10050500D01*
X54977525Y10050500D01*
X54977524Y10050500D01*
X54837515Y10012985D01*
X54837513Y10012984D01*
X54711982Y9940508D01*
X54609492Y9838018D01*
X54537016Y9712487D01*
X54537015Y9712485D01*
X54499500Y9572476D01*
X40639347Y9572476D01*
X40612486Y9587984D01*
X40612484Y9587985D01*
X40472475Y9625500D01*
X40327525Y9625500D01*
X40327524Y9625500D01*
X40187515Y9587985D01*
X40187513Y9587984D01*
X40061982Y9515508D01*
X39959492Y9413018D01*
X39887016Y9287487D01*
X39887015Y9287485D01*
X39849500Y9147476D01*
X34500000Y9147476D01*
X34500000Y10742476D01*
X35399500Y10742476D01*
X35399500Y10597525D01*
X35437015Y10457516D01*
X35437016Y10457514D01*
X35509492Y10331983D01*
X35611982Y10229493D01*
X35611984Y10229492D01*
X35611985Y10229491D01*
X35737515Y10157016D01*
X35877525Y10119500D01*
X35877527Y10119500D01*
X36022473Y10119500D01*
X36022475Y10119500D01*
X36162485Y10157016D01*
X36288015Y10229491D01*
X36390509Y10331985D01*
X36462984Y10457515D01*
X36500500Y10597525D01*
X36500500Y10742475D01*
X36485762Y10797476D01*
X39849500Y10797476D01*
X39849500Y10652525D01*
X39887015Y10512516D01*
X39887016Y10512514D01*
X39959492Y10386983D01*
X40061982Y10284493D01*
X40157247Y10229491D01*
X40187515Y10212016D01*
X40327525Y10174500D01*
X40327527Y10174500D01*
X40472473Y10174500D01*
X40472475Y10174500D01*
X40612485Y10212016D01*
X40738015Y10284491D01*
X40840509Y10386985D01*
X40912984Y10512515D01*
X40929050Y10572473D01*
X40929051Y10572476D01*
X42124500Y10572476D01*
X42124500Y10427525D01*
X42162015Y10287516D01*
X42162016Y10287514D01*
X42234492Y10161983D01*
X42336982Y10059493D01*
X42336984Y10059492D01*
X42336985Y10059491D01*
X42462515Y9987016D01*
X42602525Y9949500D01*
X42602527Y9949500D01*
X42747473Y9949500D01*
X42747475Y9949500D01*
X42887485Y9987016D01*
X43013015Y10059491D01*
X43115509Y10161985D01*
X43187984Y10287515D01*
X43225500Y10427525D01*
X43225500Y10572475D01*
X43225500Y10572476D01*
X43774500Y10572476D01*
X43774500Y10427525D01*
X43812015Y10287516D01*
X43812016Y10287514D01*
X43884492Y10161983D01*
X43986982Y10059493D01*
X43986984Y10059492D01*
X43986985Y10059491D01*
X44112515Y9987016D01*
X44252525Y9949500D01*
X44252527Y9949500D01*
X44397473Y9949500D01*
X44397475Y9949500D01*
X44537485Y9987016D01*
X44663015Y10059491D01*
X44765509Y10161985D01*
X44837984Y10287515D01*
X44875500Y10427525D01*
X44875500Y10572475D01*
X44837984Y10712485D01*
X44820667Y10742478D01*
X44765507Y10838018D01*
X44706049Y10897476D01*
X48549500Y10897476D01*
X48549500Y10752525D01*
X48587015Y10612516D01*
X48587016Y10612514D01*
X48659492Y10486983D01*
X48761982Y10384493D01*
X48761984Y10384492D01*
X48761985Y10384491D01*
X48887515Y10312016D01*
X49027525Y10274500D01*
X49027527Y10274500D01*
X49172473Y10274500D01*
X49172475Y10274500D01*
X49312485Y10312016D01*
X49438015Y10384491D01*
X49540509Y10486985D01*
X49612984Y10612515D01*
X49650500Y10752525D01*
X49650500Y10897475D01*
X49612984Y11037485D01*
X49598242Y11063018D01*
X49540507Y11163018D01*
X49438017Y11265508D01*
X49312486Y11337984D01*
X49312484Y11337985D01*
X49172475Y11375500D01*
X49027525Y11375500D01*
X49027524Y11375500D01*
X48887515Y11337985D01*
X48887513Y11337984D01*
X48761982Y11265508D01*
X48659492Y11163018D01*
X48587016Y11037487D01*
X48587015Y11037485D01*
X48549500Y10897476D01*
X44706049Y10897476D01*
X44663017Y10940508D01*
X44537486Y11012984D01*
X44537484Y11012985D01*
X44397475Y11050500D01*
X44252525Y11050500D01*
X44252524Y11050500D01*
X44112515Y11012985D01*
X44112513Y11012984D01*
X43986982Y10940508D01*
X43884492Y10838018D01*
X43812016Y10712487D01*
X43812015Y10712485D01*
X43774500Y10572476D01*
X43225500Y10572476D01*
X43187984Y10712485D01*
X43170667Y10742478D01*
X43115507Y10838018D01*
X43013017Y10940508D01*
X42887486Y11012984D01*
X42887484Y11012985D01*
X42747475Y11050500D01*
X42602525Y11050500D01*
X42602524Y11050500D01*
X42462515Y11012985D01*
X42462513Y11012984D01*
X42336982Y10940508D01*
X42234492Y10838018D01*
X42162016Y10712487D01*
X42162015Y10712485D01*
X42124500Y10572476D01*
X40929051Y10572476D01*
X40935917Y10598100D01*
X40935917Y10598101D01*
X40950499Y10652523D01*
X40950500Y10652525D01*
X40950500Y10797475D01*
X40912984Y10937485D01*
X40840509Y11063015D01*
X40840508Y11063016D01*
X40840507Y11063018D01*
X40738017Y11165508D01*
X40612486Y11237984D01*
X40612484Y11237985D01*
X40472475Y11275500D01*
X40327525Y11275500D01*
X40327524Y11275500D01*
X40187515Y11237985D01*
X40187513Y11237984D01*
X40061982Y11165508D01*
X39959492Y11063018D01*
X39887016Y10937487D01*
X39887015Y10937485D01*
X39849500Y10797476D01*
X36485762Y10797476D01*
X36462984Y10882485D01*
X36462983Y10882487D01*
X36390507Y11008018D01*
X36288017Y11110508D01*
X36162486Y11182984D01*
X36162484Y11182985D01*
X36022475Y11220500D01*
X35877525Y11220500D01*
X35877524Y11220500D01*
X35737515Y11182985D01*
X35737513Y11182984D01*
X35611982Y11110508D01*
X35509492Y11008018D01*
X35437016Y10882487D01*
X35437015Y10882485D01*
X35399500Y10742476D01*
X34500000Y10742476D01*
X34500000Y13672476D01*
X39924500Y13672476D01*
X39924500Y13527525D01*
X39962015Y13387516D01*
X39962016Y13387514D01*
X40034492Y13261983D01*
X40136982Y13159493D01*
X40136984Y13159492D01*
X40136985Y13159491D01*
X40262515Y13087016D01*
X40402525Y13049500D01*
X40402527Y13049500D01*
X40547473Y13049500D01*
X40547475Y13049500D01*
X40687485Y13087016D01*
X40813015Y13159491D01*
X40915509Y13261985D01*
X40987984Y13387515D01*
X41025500Y13527525D01*
X41025500Y13672475D01*
X41025500Y13672476D01*
X41574500Y13672476D01*
X41574500Y13527525D01*
X41612015Y13387516D01*
X41612016Y13387514D01*
X41684492Y13261983D01*
X41786982Y13159493D01*
X41786984Y13159492D01*
X41786985Y13159491D01*
X41912515Y13087016D01*
X42052525Y13049500D01*
X42052527Y13049500D01*
X42197473Y13049500D01*
X42197475Y13049500D01*
X42337485Y13087016D01*
X42463015Y13159491D01*
X42565509Y13261985D01*
X42637984Y13387515D01*
X42675500Y13527525D01*
X42675500Y13672475D01*
X42637984Y13812485D01*
X42565509Y13938015D01*
X42565508Y13938016D01*
X42565507Y13938018D01*
X42463017Y14040508D01*
X42337486Y14112984D01*
X42337484Y14112985D01*
X42197475Y14150500D01*
X42052525Y14150500D01*
X42052524Y14150500D01*
X41912515Y14112985D01*
X41912513Y14112984D01*
X41786982Y14040508D01*
X41684492Y13938018D01*
X41612016Y13812487D01*
X41612015Y13812485D01*
X41574500Y13672476D01*
X41025500Y13672476D01*
X40987984Y13812485D01*
X40915509Y13938015D01*
X40915508Y13938016D01*
X40915507Y13938018D01*
X40813017Y14040508D01*
X40687486Y14112984D01*
X40687484Y14112985D01*
X40547475Y14150500D01*
X40402525Y14150500D01*
X40402524Y14150500D01*
X40262515Y14112985D01*
X40262513Y14112984D01*
X40136982Y14040508D01*
X40034492Y13938018D01*
X39962016Y13812487D01*
X39962015Y13812485D01*
X39924500Y13672476D01*
X34500000Y13672476D01*
X34500000Y14747476D01*
X38249500Y14747476D01*
X38249500Y14602525D01*
X38287015Y14462516D01*
X38287016Y14462514D01*
X38359492Y14336983D01*
X38461982Y14234493D01*
X38461984Y14234492D01*
X38461985Y14234491D01*
X38587515Y14162016D01*
X38727525Y14124500D01*
X38727527Y14124500D01*
X38872473Y14124500D01*
X38872475Y14124500D01*
X39012485Y14162016D01*
X39138015Y14234491D01*
X39240509Y14336985D01*
X39312984Y14462515D01*
X39350500Y14602525D01*
X39350500Y14747475D01*
X39312984Y14887485D01*
X39240509Y15013015D01*
X39240508Y15013016D01*
X39240507Y15013018D01*
X39138020Y15115505D01*
X39138014Y15115510D01*
X39039347Y15172476D01*
X39849500Y15172476D01*
X39849500Y15027525D01*
X39887015Y14887516D01*
X39887016Y14887514D01*
X39959492Y14761983D01*
X40061982Y14659493D01*
X40160647Y14602528D01*
X40187515Y14587016D01*
X40327525Y14549500D01*
X40327527Y14549500D01*
X40472473Y14549500D01*
X40472475Y14549500D01*
X40612485Y14587016D01*
X40738015Y14659491D01*
X40840509Y14761985D01*
X40912984Y14887515D01*
X40950500Y15027525D01*
X40950500Y15172475D01*
X40950500Y15172476D01*
X45049500Y15172476D01*
X45049500Y15027525D01*
X45087015Y14887516D01*
X45087016Y14887514D01*
X45159492Y14761983D01*
X45261982Y14659493D01*
X45360647Y14602528D01*
X45387515Y14587016D01*
X45527525Y14549500D01*
X45527527Y14549500D01*
X45672473Y14549500D01*
X45672475Y14549500D01*
X45812485Y14587016D01*
X45938015Y14659491D01*
X46040509Y14761985D01*
X46112984Y14887515D01*
X46150500Y15027525D01*
X46150500Y15172475D01*
X46112984Y15312485D01*
X46040509Y15438015D01*
X46040508Y15438016D01*
X46040507Y15438018D01*
X45938017Y15540508D01*
X45812486Y15612984D01*
X45812484Y15612985D01*
X45672475Y15650500D01*
X45527525Y15650500D01*
X45527524Y15650500D01*
X45387515Y15612985D01*
X45387513Y15612984D01*
X45261982Y15540508D01*
X45159492Y15438018D01*
X45087016Y15312487D01*
X45087015Y15312485D01*
X45049500Y15172476D01*
X40950500Y15172476D01*
X40912984Y15312485D01*
X40840509Y15438015D01*
X40840508Y15438016D01*
X40840507Y15438018D01*
X40738017Y15540508D01*
X40612486Y15612984D01*
X40612484Y15612985D01*
X40472475Y15650500D01*
X40327525Y15650500D01*
X40327524Y15650500D01*
X40187515Y15612985D01*
X40187513Y15612984D01*
X40061982Y15540508D01*
X39959492Y15438018D01*
X39887016Y15312487D01*
X39887015Y15312485D01*
X39849500Y15172476D01*
X39039347Y15172476D01*
X39012486Y15187984D01*
X39012484Y15187985D01*
X38872475Y15225500D01*
X38727525Y15225500D01*
X38727524Y15225500D01*
X38587515Y15187985D01*
X38587513Y15187984D01*
X38461982Y15115508D01*
X38359492Y15013018D01*
X38287016Y14887487D01*
X38287015Y14887485D01*
X38249500Y14747476D01*
X34500000Y14747476D01*
X34500000Y15802476D01*
X35399500Y15802476D01*
X35399500Y15802475D01*
X35399500Y15657525D01*
X35411435Y15612985D01*
X35437015Y15517516D01*
X35437016Y15517514D01*
X35509492Y15391983D01*
X35611982Y15289493D01*
X35611984Y15289492D01*
X35611985Y15289491D01*
X35691564Y15243546D01*
X35707247Y15234491D01*
X35737515Y15217016D01*
X35877525Y15179500D01*
X35877527Y15179500D01*
X36022473Y15179500D01*
X36022475Y15179500D01*
X36162485Y15217016D01*
X36288015Y15289491D01*
X36390509Y15391985D01*
X36462984Y15517515D01*
X36500500Y15657525D01*
X36500500Y15747476D01*
X53449500Y15747476D01*
X53449500Y15602525D01*
X53487015Y15462516D01*
X53487016Y15462514D01*
X53559492Y15336983D01*
X53661982Y15234493D01*
X53661984Y15234492D01*
X53661985Y15234491D01*
X53700911Y15212017D01*
X53769399Y15172475D01*
X53787515Y15162016D01*
X53927525Y15124500D01*
X53927527Y15124500D01*
X54072473Y15124500D01*
X54072475Y15124500D01*
X54212485Y15162016D01*
X54338015Y15234491D01*
X54440509Y15336985D01*
X54512984Y15462515D01*
X54550500Y15602525D01*
X54550500Y15747475D01*
X54550500Y15747476D01*
X55449500Y15747476D01*
X55449500Y15602525D01*
X55487015Y15462516D01*
X55487016Y15462514D01*
X55559492Y15336983D01*
X55661982Y15234493D01*
X55661984Y15234492D01*
X55661985Y15234491D01*
X55700911Y15212017D01*
X55769399Y15172475D01*
X55787515Y15162016D01*
X55927525Y15124500D01*
X55927527Y15124500D01*
X56072473Y15124500D01*
X56072475Y15124500D01*
X56212485Y15162016D01*
X56338015Y15234491D01*
X56440509Y15336985D01*
X56512984Y15462515D01*
X56550500Y15602525D01*
X56550500Y15747475D01*
X56543259Y15774500D01*
X56541194Y15782207D01*
X56537103Y15797476D01*
X57449500Y15797476D01*
X57449500Y15652525D01*
X57487015Y15512516D01*
X57487016Y15512514D01*
X57559492Y15386983D01*
X57661982Y15284493D01*
X57661984Y15284492D01*
X57661985Y15284491D01*
X57787515Y15212016D01*
X57927525Y15174500D01*
X57927527Y15174500D01*
X58072473Y15174500D01*
X58072475Y15174500D01*
X58212485Y15212016D01*
X58338015Y15284491D01*
X58440509Y15386985D01*
X58512984Y15512515D01*
X58550500Y15652525D01*
X58550500Y15747476D01*
X59449500Y15747476D01*
X59449500Y15602525D01*
X59487015Y15462516D01*
X59487016Y15462514D01*
X59559492Y15336983D01*
X59661982Y15234493D01*
X59661984Y15234492D01*
X59661985Y15234491D01*
X59700911Y15212017D01*
X59769399Y15172475D01*
X59787515Y15162016D01*
X59927525Y15124500D01*
X59927527Y15124500D01*
X60072473Y15124500D01*
X60072475Y15124500D01*
X60212485Y15162016D01*
X60338015Y15234491D01*
X60440509Y15336985D01*
X60512984Y15462515D01*
X60550500Y15602525D01*
X60550500Y15747475D01*
X60543259Y15774500D01*
X60541194Y15782207D01*
X60537103Y15797476D01*
X61449500Y15797476D01*
X61449500Y15652525D01*
X61487015Y15512516D01*
X61487016Y15512514D01*
X61559492Y15386983D01*
X61661982Y15284493D01*
X61661984Y15284492D01*
X61661985Y15284491D01*
X61787515Y15212016D01*
X61927525Y15174500D01*
X61927527Y15174500D01*
X62072473Y15174500D01*
X62072475Y15174500D01*
X62212485Y15212016D01*
X62338015Y15284491D01*
X62440509Y15386985D01*
X62512984Y15512515D01*
X62550500Y15652525D01*
X62550500Y15797475D01*
X62512984Y15937485D01*
X62440509Y16063015D01*
X62440508Y16063016D01*
X62440507Y16063018D01*
X62338017Y16165508D01*
X62212486Y16237984D01*
X62212484Y16237985D01*
X62072475Y16275500D01*
X61927525Y16275500D01*
X61927524Y16275500D01*
X61787515Y16237985D01*
X61787513Y16237984D01*
X61661982Y16165508D01*
X61559492Y16063018D01*
X61487016Y15937487D01*
X61487015Y15937485D01*
X61449500Y15797476D01*
X60537103Y15797476D01*
X60512984Y15887485D01*
X60512983Y15887487D01*
X60481228Y15942487D01*
X60440509Y16013015D01*
X60440508Y16013016D01*
X60440507Y16013018D01*
X60338017Y16115508D01*
X60212486Y16187984D01*
X60212484Y16187985D01*
X60072475Y16225500D01*
X59927525Y16225500D01*
X59927524Y16225500D01*
X59787515Y16187985D01*
X59787513Y16187984D01*
X59661982Y16115508D01*
X59559492Y16013018D01*
X59487016Y15887487D01*
X59487015Y15887485D01*
X59449500Y15747476D01*
X58550500Y15747476D01*
X58550500Y15797475D01*
X58512984Y15937485D01*
X58440509Y16063015D01*
X58440508Y16063016D01*
X58440507Y16063018D01*
X58338017Y16165508D01*
X58212486Y16237984D01*
X58212484Y16237985D01*
X58072475Y16275500D01*
X57927525Y16275500D01*
X57927524Y16275500D01*
X57787515Y16237985D01*
X57787513Y16237984D01*
X57661982Y16165508D01*
X57559492Y16063018D01*
X57487016Y15937487D01*
X57487015Y15937485D01*
X57449500Y15797476D01*
X56537103Y15797476D01*
X56512984Y15887485D01*
X56512983Y15887487D01*
X56481228Y15942487D01*
X56440509Y16013015D01*
X56440508Y16013016D01*
X56440507Y16013018D01*
X56338017Y16115508D01*
X56212486Y16187984D01*
X56212484Y16187985D01*
X56072475Y16225500D01*
X55927525Y16225500D01*
X55927524Y16225500D01*
X55787515Y16187985D01*
X55787513Y16187984D01*
X55661982Y16115508D01*
X55559492Y16013018D01*
X55487016Y15887487D01*
X55487015Y15887485D01*
X55449500Y15747476D01*
X54550500Y15747476D01*
X54512984Y15887485D01*
X54440509Y16013015D01*
X54440508Y16013016D01*
X54440507Y16013018D01*
X54338017Y16115508D01*
X54212486Y16187984D01*
X54212484Y16187985D01*
X54072475Y16225500D01*
X53927525Y16225500D01*
X53927524Y16225500D01*
X53787515Y16187985D01*
X53787513Y16187984D01*
X53661982Y16115508D01*
X53559492Y16013018D01*
X53487016Y15887487D01*
X53487015Y15887485D01*
X53449500Y15747476D01*
X36500500Y15747476D01*
X36500500Y15802475D01*
X36462984Y15942485D01*
X36390509Y16068015D01*
X36390508Y16068016D01*
X36390507Y16068018D01*
X36288017Y16170508D01*
X36162486Y16242984D01*
X36162484Y16242985D01*
X36022475Y16280500D01*
X35877525Y16280500D01*
X35877524Y16280500D01*
X35737515Y16242985D01*
X35737513Y16242984D01*
X35611982Y16170508D01*
X35509492Y16068018D01*
X35437016Y15942487D01*
X35437015Y15942485D01*
X35399500Y15802476D01*
X34500000Y15802476D01*
X34500000Y16397476D01*
X38249500Y16397476D01*
X38249500Y16252525D01*
X38287015Y16112516D01*
X38287016Y16112514D01*
X38359492Y15986983D01*
X38461982Y15884493D01*
X38574550Y15819501D01*
X38587515Y15812016D01*
X38727525Y15774500D01*
X38727527Y15774500D01*
X38872473Y15774500D01*
X38872475Y15774500D01*
X39012485Y15812016D01*
X39138015Y15884491D01*
X39240509Y15986985D01*
X39312984Y16112515D01*
X39350500Y16252525D01*
X39350500Y16397475D01*
X39338442Y16442476D01*
X39849500Y16442476D01*
X39849500Y16297525D01*
X39887015Y16157516D01*
X39887016Y16157514D01*
X39959492Y16031983D01*
X40061982Y15929493D01*
X40061984Y15929492D01*
X40061985Y15929491D01*
X40187515Y15857016D01*
X40327525Y15819500D01*
X40327527Y15819500D01*
X40472473Y15819500D01*
X40472475Y15819500D01*
X40612485Y15857016D01*
X40738015Y15929491D01*
X40840509Y16031985D01*
X40912984Y16157515D01*
X40950500Y16297525D01*
X40950500Y16442475D01*
X40950500Y16442476D01*
X45049500Y16442476D01*
X45049500Y16297525D01*
X45087015Y16157516D01*
X45087016Y16157514D01*
X45159492Y16031983D01*
X45261982Y15929493D01*
X45261984Y15929492D01*
X45261985Y15929491D01*
X45387515Y15857016D01*
X45527525Y15819500D01*
X45527527Y15819500D01*
X45672473Y15819500D01*
X45672475Y15819500D01*
X45812485Y15857016D01*
X45938015Y15929491D01*
X46040509Y16031985D01*
X46112984Y16157515D01*
X46150500Y16297525D01*
X46150500Y16442475D01*
X46112984Y16582485D01*
X46040509Y16708015D01*
X46040508Y16708016D01*
X46040507Y16708018D01*
X45938017Y16810508D01*
X45896917Y16834237D01*
X45812486Y16882984D01*
X45812484Y16882985D01*
X45758402Y16897476D01*
X46649500Y16897476D01*
X46649500Y16752525D01*
X46687015Y16612516D01*
X46687016Y16612514D01*
X46759492Y16486983D01*
X46861982Y16384493D01*
X46861984Y16384492D01*
X46861985Y16384491D01*
X46987515Y16312016D01*
X47127525Y16274500D01*
X47127527Y16274500D01*
X47272473Y16274500D01*
X47272475Y16274500D01*
X47412485Y16312016D01*
X47538015Y16384491D01*
X47640509Y16486985D01*
X47712984Y16612515D01*
X47750500Y16752525D01*
X47750500Y16897475D01*
X47712984Y17037485D01*
X47698533Y17062514D01*
X47640507Y17163018D01*
X47538017Y17265508D01*
X47418975Y17334237D01*
X47412485Y17337984D01*
X47412482Y17337985D01*
X47412484Y17337985D01*
X47272475Y17375500D01*
X47127525Y17375500D01*
X47127524Y17375500D01*
X46987515Y17337985D01*
X46987513Y17337984D01*
X46861982Y17265508D01*
X46759492Y17163018D01*
X46687016Y17037487D01*
X46687015Y17037485D01*
X46649500Y16897476D01*
X45758402Y16897476D01*
X45672475Y16920500D01*
X45527525Y16920500D01*
X45527524Y16920500D01*
X45387515Y16882985D01*
X45387513Y16882984D01*
X45261982Y16810508D01*
X45159492Y16708018D01*
X45087016Y16582487D01*
X45087015Y16582485D01*
X45049500Y16442476D01*
X40950500Y16442476D01*
X40912984Y16582485D01*
X40840509Y16708015D01*
X40840508Y16708016D01*
X40840507Y16708018D01*
X40738017Y16810508D01*
X40612486Y16882984D01*
X40612484Y16882985D01*
X40472475Y16920500D01*
X40327525Y16920500D01*
X40327524Y16920500D01*
X40187515Y16882985D01*
X40187513Y16882984D01*
X40061982Y16810508D01*
X39959492Y16708018D01*
X39887016Y16582487D01*
X39887015Y16582485D01*
X39849500Y16442476D01*
X39338442Y16442476D01*
X39312984Y16537485D01*
X39240509Y16663015D01*
X39240508Y16663016D01*
X39240507Y16663018D01*
X39138017Y16765508D01*
X39012486Y16837984D01*
X39012484Y16837985D01*
X38872475Y16875500D01*
X38727525Y16875500D01*
X38727524Y16875500D01*
X38587515Y16837985D01*
X38587513Y16837984D01*
X38461982Y16765508D01*
X38359492Y16663018D01*
X38287016Y16537487D01*
X38287015Y16537485D01*
X38249500Y16397476D01*
X34500000Y16397476D01*
X34500000Y17702476D01*
X39849500Y17702476D01*
X39849500Y17557525D01*
X39887015Y17417516D01*
X39887016Y17417514D01*
X39959492Y17291983D01*
X40061982Y17189493D01*
X40061984Y17189492D01*
X40061985Y17189491D01*
X40187515Y17117016D01*
X40327525Y17079500D01*
X40327527Y17079500D01*
X40472473Y17079500D01*
X40472475Y17079500D01*
X40612485Y17117016D01*
X40738015Y17189491D01*
X40840509Y17291985D01*
X40912984Y17417515D01*
X40950500Y17557525D01*
X40950500Y17702475D01*
X40950500Y17702476D01*
X45049500Y17702476D01*
X45049500Y17557525D01*
X45087015Y17417516D01*
X45087016Y17417514D01*
X45159492Y17291983D01*
X45261982Y17189493D01*
X45261984Y17189492D01*
X45261985Y17189491D01*
X45387515Y17117016D01*
X45527525Y17079500D01*
X45527527Y17079500D01*
X45672473Y17079500D01*
X45672475Y17079500D01*
X45812485Y17117016D01*
X45938015Y17189491D01*
X46040509Y17291985D01*
X46101414Y17397476D01*
X53449500Y17397476D01*
X53449500Y17252525D01*
X53487015Y17112516D01*
X53487016Y17112514D01*
X53559492Y16986983D01*
X53661982Y16884493D01*
X53661984Y16884492D01*
X53661985Y16884491D01*
X53787515Y16812016D01*
X53927525Y16774500D01*
X53927527Y16774500D01*
X54072473Y16774500D01*
X54072475Y16774500D01*
X54212485Y16812016D01*
X54338015Y16884491D01*
X54440509Y16986985D01*
X54512984Y17112515D01*
X54550500Y17252525D01*
X54550500Y17347476D01*
X57449500Y17347476D01*
X57449500Y17202525D01*
X57487015Y17062516D01*
X57487016Y17062514D01*
X57559492Y16936983D01*
X57661982Y16834493D01*
X57781466Y16765508D01*
X57787515Y16762016D01*
X57927525Y16724500D01*
X57927527Y16724500D01*
X58072473Y16724500D01*
X58072475Y16724500D01*
X58212485Y16762016D01*
X58338015Y16834491D01*
X58440509Y16936985D01*
X58512984Y17062515D01*
X58550500Y17202525D01*
X58550500Y17347475D01*
X58542991Y17375500D01*
X58541194Y17382207D01*
X58537103Y17397476D01*
X59449500Y17397476D01*
X59449500Y17252525D01*
X59487015Y17112516D01*
X59487016Y17112514D01*
X59559492Y16986983D01*
X59661982Y16884493D01*
X59661984Y16884492D01*
X59661985Y16884491D01*
X59787515Y16812016D01*
X59927525Y16774500D01*
X59927527Y16774500D01*
X60072473Y16774500D01*
X60072475Y16774500D01*
X60212485Y16812016D01*
X60338015Y16884491D01*
X60440509Y16986985D01*
X60512984Y17112515D01*
X60550500Y17252525D01*
X60550500Y17347476D01*
X61449500Y17347476D01*
X61449500Y17202525D01*
X61487015Y17062516D01*
X61487016Y17062514D01*
X61559492Y16936983D01*
X61661982Y16834493D01*
X61781466Y16765508D01*
X61787515Y16762016D01*
X61927525Y16724500D01*
X61927527Y16724500D01*
X62072473Y16724500D01*
X62072475Y16724500D01*
X62212485Y16762016D01*
X62338015Y16834491D01*
X62440509Y16936985D01*
X62512984Y17062515D01*
X62550500Y17202525D01*
X62550500Y17347475D01*
X62512984Y17487485D01*
X62440509Y17613015D01*
X62440508Y17613016D01*
X62440507Y17613018D01*
X62338017Y17715508D01*
X62212486Y17787984D01*
X62212484Y17787985D01*
X62072475Y17825500D01*
X61927525Y17825500D01*
X61927524Y17825500D01*
X61787515Y17787985D01*
X61787513Y17787984D01*
X61661982Y17715508D01*
X61559492Y17613018D01*
X61487016Y17487487D01*
X61487015Y17487485D01*
X61449500Y17347476D01*
X60550500Y17347476D01*
X60550500Y17397475D01*
X60512984Y17537485D01*
X60440509Y17663015D01*
X60440508Y17663016D01*
X60440507Y17663018D01*
X60338017Y17765508D01*
X60212486Y17837984D01*
X60212484Y17837985D01*
X60072475Y17875500D01*
X59927525Y17875500D01*
X59927524Y17875500D01*
X59787515Y17837985D01*
X59787513Y17837984D01*
X59661982Y17765508D01*
X59559492Y17663018D01*
X59487016Y17537487D01*
X59487015Y17537485D01*
X59449500Y17397476D01*
X58537103Y17397476D01*
X58512984Y17487485D01*
X58512983Y17487487D01*
X58472546Y17557525D01*
X58440509Y17613015D01*
X58440508Y17613016D01*
X58440507Y17613018D01*
X58338017Y17715508D01*
X58212486Y17787984D01*
X58212484Y17787985D01*
X58072475Y17825500D01*
X57927525Y17825500D01*
X57927524Y17825500D01*
X57787515Y17787985D01*
X57787513Y17787984D01*
X57661982Y17715508D01*
X57559492Y17613018D01*
X57487016Y17487487D01*
X57487015Y17487485D01*
X57449500Y17347476D01*
X54550500Y17347476D01*
X54550500Y17397475D01*
X54512984Y17537485D01*
X54440509Y17663015D01*
X54440508Y17663016D01*
X54440507Y17663018D01*
X54338017Y17765508D01*
X54212486Y17837984D01*
X54212484Y17837985D01*
X54072475Y17875500D01*
X53927525Y17875500D01*
X53927524Y17875500D01*
X53787515Y17837985D01*
X53787513Y17837984D01*
X53661982Y17765508D01*
X53559492Y17663018D01*
X53487016Y17537487D01*
X53487015Y17537485D01*
X53449500Y17397476D01*
X46101414Y17397476D01*
X46112984Y17417515D01*
X46150500Y17557525D01*
X46150500Y17702475D01*
X46112984Y17842485D01*
X46040509Y17968015D01*
X46040508Y17968016D01*
X46040507Y17968018D01*
X45938017Y18070508D01*
X45812486Y18142984D01*
X45812484Y18142985D01*
X45672475Y18180500D01*
X45527525Y18180500D01*
X45527524Y18180500D01*
X45387515Y18142985D01*
X45387513Y18142984D01*
X45261982Y18070508D01*
X45159492Y17968018D01*
X45087016Y17842487D01*
X45087015Y17842485D01*
X45049500Y17702476D01*
X40950500Y17702476D01*
X40912984Y17842485D01*
X40840509Y17968015D01*
X40840508Y17968016D01*
X40840507Y17968018D01*
X40738017Y18070508D01*
X40612486Y18142984D01*
X40612484Y18142985D01*
X40472475Y18180500D01*
X40327525Y18180500D01*
X40327524Y18180500D01*
X40187515Y18142985D01*
X40187513Y18142984D01*
X40061982Y18070508D01*
X39959492Y17968018D01*
X39887016Y17842487D01*
X39887015Y17842485D01*
X39849500Y17702476D01*
X34500000Y17702476D01*
X34500000Y18342476D01*
X35399500Y18342476D01*
X35399500Y18197525D01*
X35437015Y18057516D01*
X35437016Y18057514D01*
X35509492Y17931983D01*
X35611982Y17829493D01*
X35611984Y17829492D01*
X35611985Y17829491D01*
X35737515Y17757016D01*
X35877525Y17719500D01*
X35877527Y17719500D01*
X36022473Y17719500D01*
X36022475Y17719500D01*
X36162485Y17757016D01*
X36288015Y17829491D01*
X36390509Y17931985D01*
X36462984Y18057515D01*
X36500500Y18197525D01*
X36500500Y18342475D01*
X36462984Y18482485D01*
X36390509Y18608015D01*
X36390508Y18608016D01*
X36390507Y18608018D01*
X36288017Y18710508D01*
X36162486Y18782984D01*
X36162484Y18782985D01*
X36022475Y18820500D01*
X35877525Y18820500D01*
X35877524Y18820500D01*
X35737515Y18782985D01*
X35737513Y18782984D01*
X35611982Y18710508D01*
X35509492Y18608018D01*
X35437016Y18482487D01*
X35437015Y18482485D01*
X35399500Y18342476D01*
X34500000Y18342476D01*
X34500000Y19097476D01*
X38249500Y19097476D01*
X38249500Y18952525D01*
X38287015Y18812516D01*
X38287016Y18812514D01*
X38359492Y18686983D01*
X38461982Y18584493D01*
X38461984Y18584492D01*
X38461985Y18584491D01*
X38587515Y18512016D01*
X38727525Y18474500D01*
X38727527Y18474500D01*
X38872473Y18474500D01*
X38872475Y18474500D01*
X39012485Y18512016D01*
X39138015Y18584491D01*
X39240509Y18686985D01*
X39312984Y18812515D01*
X39350500Y18952525D01*
X39350500Y18972476D01*
X39849500Y18972476D01*
X39849500Y18827525D01*
X39887015Y18687516D01*
X39887016Y18687514D01*
X39959492Y18561983D01*
X40061982Y18459493D01*
X40061984Y18459492D01*
X40061985Y18459491D01*
X40187515Y18387016D01*
X40327525Y18349500D01*
X40327527Y18349500D01*
X40472473Y18349500D01*
X40472475Y18349500D01*
X40612485Y18387016D01*
X40738015Y18459491D01*
X40840509Y18561985D01*
X40912984Y18687515D01*
X40950500Y18827525D01*
X40950500Y18972475D01*
X40950500Y18972476D01*
X45049500Y18972476D01*
X45049500Y18827525D01*
X45087015Y18687516D01*
X45087016Y18687514D01*
X45159492Y18561983D01*
X45261982Y18459493D01*
X45261984Y18459492D01*
X45261985Y18459491D01*
X45387515Y18387016D01*
X45527525Y18349500D01*
X45527527Y18349500D01*
X45672473Y18349500D01*
X45672475Y18349500D01*
X45812485Y18387016D01*
X45917204Y18447476D01*
X46649500Y18447476D01*
X46649500Y18302525D01*
X46687015Y18162516D01*
X46687016Y18162514D01*
X46759492Y18036983D01*
X46861982Y17934493D01*
X46861984Y17934492D01*
X46861985Y17934491D01*
X46987515Y17862016D01*
X47127525Y17824500D01*
X47127527Y17824500D01*
X47272473Y17824500D01*
X47272475Y17824500D01*
X47412485Y17862016D01*
X47538015Y17934491D01*
X47640509Y18036985D01*
X47712984Y18162515D01*
X47750500Y18302525D01*
X47750500Y18447475D01*
X47712984Y18587485D01*
X47640509Y18713015D01*
X47640508Y18713016D01*
X47640507Y18713018D01*
X47538017Y18815508D01*
X47412486Y18887984D01*
X47412484Y18887985D01*
X47272475Y18925500D01*
X47127525Y18925500D01*
X47127524Y18925500D01*
X46987515Y18887985D01*
X46987513Y18887984D01*
X46861982Y18815508D01*
X46759492Y18713018D01*
X46687016Y18587487D01*
X46687015Y18587485D01*
X46649500Y18447476D01*
X45917204Y18447476D01*
X45938015Y18459491D01*
X45961011Y18482487D01*
X45987039Y18508514D01*
X46040507Y18561983D01*
X46040509Y18561985D01*
X46112984Y18687515D01*
X46150500Y18827525D01*
X46150500Y18972475D01*
X46112984Y19112485D01*
X46040509Y19238015D01*
X46040508Y19238016D01*
X46040507Y19238018D01*
X45938017Y19340508D01*
X45812486Y19412984D01*
X45812484Y19412985D01*
X45672475Y19450500D01*
X45527525Y19450500D01*
X45527524Y19450500D01*
X45387515Y19412985D01*
X45387513Y19412984D01*
X45261982Y19340508D01*
X45159492Y19238018D01*
X45087016Y19112487D01*
X45087015Y19112485D01*
X45049500Y18972476D01*
X40950500Y18972476D01*
X40912984Y19112485D01*
X40840509Y19238015D01*
X40840508Y19238016D01*
X40840507Y19238018D01*
X40738017Y19340508D01*
X40612486Y19412984D01*
X40612484Y19412985D01*
X40472475Y19450500D01*
X40327525Y19450500D01*
X40327524Y19450500D01*
X40187515Y19412985D01*
X40187513Y19412984D01*
X40061982Y19340508D01*
X39959492Y19238018D01*
X39887016Y19112487D01*
X39887015Y19112485D01*
X39849500Y18972476D01*
X39350500Y18972476D01*
X39350500Y19097475D01*
X39312984Y19237485D01*
X39240509Y19363015D01*
X39240508Y19363016D01*
X39240507Y19363018D01*
X39138017Y19465508D01*
X39012486Y19537984D01*
X39012484Y19537985D01*
X38872475Y19575500D01*
X38727525Y19575500D01*
X38727524Y19575500D01*
X38587515Y19537985D01*
X38587513Y19537984D01*
X38461982Y19465508D01*
X38359492Y19363018D01*
X38287016Y19237487D01*
X38287015Y19237485D01*
X38249500Y19097476D01*
X34500000Y19097476D01*
X34500000Y20647476D01*
X38249500Y20647476D01*
X38249500Y20502525D01*
X38287015Y20362516D01*
X38287016Y20362514D01*
X38359492Y20236983D01*
X38461982Y20134493D01*
X38461984Y20134492D01*
X38461985Y20134491D01*
X38499236Y20112984D01*
X38560647Y20077528D01*
X38587515Y20062016D01*
X38727525Y20024500D01*
X38727527Y20024500D01*
X38872473Y20024500D01*
X38872475Y20024500D01*
X39012485Y20062016D01*
X39138015Y20134491D01*
X39154024Y20150500D01*
X39226001Y20222476D01*
X49399500Y20222476D01*
X49399500Y20077525D01*
X49437015Y19937516D01*
X49437016Y19937514D01*
X49509492Y19811983D01*
X49611982Y19709493D01*
X49611984Y19709492D01*
X49611985Y19709491D01*
X49737515Y19637016D01*
X49877525Y19599500D01*
X49877527Y19599500D01*
X50022473Y19599500D01*
X50022475Y19599500D01*
X50162485Y19637016D01*
X50223903Y19672476D01*
X54449500Y19672476D01*
X54449500Y19527525D01*
X54487015Y19387516D01*
X54487016Y19387514D01*
X54559492Y19261983D01*
X54661982Y19159493D01*
X54769399Y19097475D01*
X54787515Y19087016D01*
X54927525Y19049500D01*
X54927527Y19049500D01*
X55072473Y19049500D01*
X55072475Y19049500D01*
X55212485Y19087016D01*
X55338015Y19159491D01*
X55440509Y19261985D01*
X55512984Y19387515D01*
X55529050Y19447473D01*
X55529051Y19447476D01*
X61949500Y19447476D01*
X61949500Y19302525D01*
X61987015Y19162516D01*
X61987016Y19162514D01*
X62059492Y19036983D01*
X62161982Y18934493D01*
X62161984Y18934492D01*
X62161985Y18934491D01*
X62287515Y18862016D01*
X62427525Y18824500D01*
X62427527Y18824500D01*
X62572473Y18824500D01*
X62572475Y18824500D01*
X62712485Y18862016D01*
X62838015Y18934491D01*
X62940509Y19036985D01*
X63012984Y19162515D01*
X63050500Y19302525D01*
X63050500Y19447475D01*
X63012984Y19587485D01*
X62940509Y19713015D01*
X62940508Y19713016D01*
X62940507Y19713018D01*
X62838017Y19815508D01*
X62712486Y19887984D01*
X62712484Y19887985D01*
X62572475Y19925500D01*
X62427525Y19925500D01*
X62427524Y19925500D01*
X62287515Y19887985D01*
X62287513Y19887984D01*
X62161982Y19815508D01*
X62059492Y19713018D01*
X61987016Y19587487D01*
X61987015Y19587485D01*
X61949500Y19447476D01*
X55529051Y19447476D01*
X55535917Y19473100D01*
X55535917Y19473101D01*
X55550499Y19527523D01*
X55550500Y19527525D01*
X55550500Y19672475D01*
X55512984Y19812485D01*
X55440509Y19938015D01*
X55440508Y19938016D01*
X55440507Y19938018D01*
X55338017Y20040508D01*
X55212486Y20112984D01*
X55212484Y20112985D01*
X55072475Y20150500D01*
X54927525Y20150500D01*
X54927524Y20150500D01*
X54787515Y20112985D01*
X54787513Y20112984D01*
X54661982Y20040508D01*
X54559492Y19938018D01*
X54487016Y19812487D01*
X54487015Y19812485D01*
X54449500Y19672476D01*
X50223903Y19672476D01*
X50288015Y19709491D01*
X50291542Y19713018D01*
X50312039Y19733514D01*
X50390507Y19811983D01*
X50390509Y19811985D01*
X50462984Y19937515D01*
X50500500Y20077525D01*
X50500500Y20222475D01*
X50462984Y20362485D01*
X50390509Y20488015D01*
X50390508Y20488016D01*
X50390507Y20488018D01*
X50288017Y20590508D01*
X50162486Y20662984D01*
X50162484Y20662985D01*
X50022475Y20700500D01*
X49877525Y20700500D01*
X49877524Y20700500D01*
X49737515Y20662985D01*
X49737513Y20662984D01*
X49611982Y20590508D01*
X49509492Y20488018D01*
X49437016Y20362487D01*
X49437015Y20362485D01*
X49399500Y20222476D01*
X39226001Y20222476D01*
X39240508Y20236983D01*
X39240508Y20236984D01*
X39240509Y20236985D01*
X39312984Y20362515D01*
X39350500Y20502525D01*
X39350500Y20647475D01*
X39312984Y20787485D01*
X39307187Y20797525D01*
X39240507Y20913018D01*
X39138017Y21015508D01*
X39012486Y21087984D01*
X39012484Y21087985D01*
X38872475Y21125500D01*
X38727525Y21125500D01*
X38727524Y21125500D01*
X38587515Y21087985D01*
X38587513Y21087984D01*
X38461982Y21015508D01*
X38359492Y20913018D01*
X38287016Y20787487D01*
X38287015Y20787485D01*
X38249500Y20647476D01*
X34500000Y20647476D01*
X34500000Y21372476D01*
X43774500Y21372476D01*
X43774500Y21227525D01*
X43812015Y21087516D01*
X43812016Y21087514D01*
X43884492Y20961983D01*
X43986982Y20859493D01*
X44111702Y20787485D01*
X44112515Y20787016D01*
X44252525Y20749500D01*
X44252527Y20749500D01*
X44397473Y20749500D01*
X44397475Y20749500D01*
X44537485Y20787016D01*
X44663015Y20859491D01*
X44746000Y20942476D01*
X54449500Y20942476D01*
X54449500Y20797525D01*
X54487015Y20657516D01*
X54487016Y20657514D01*
X54559492Y20531983D01*
X54661982Y20429493D01*
X54661984Y20429492D01*
X54661985Y20429491D01*
X54787515Y20357016D01*
X54927525Y20319500D01*
X54927527Y20319500D01*
X55072473Y20319500D01*
X55072475Y20319500D01*
X55212485Y20357016D01*
X55338015Y20429491D01*
X55440509Y20531985D01*
X55512984Y20657515D01*
X55550500Y20797525D01*
X55550500Y20942475D01*
X55550500Y20942476D01*
X60449500Y20942476D01*
X60449500Y20797525D01*
X60487015Y20657516D01*
X60487016Y20657514D01*
X60559492Y20531983D01*
X60661982Y20429493D01*
X60661984Y20429492D01*
X60661985Y20429491D01*
X60787515Y20357016D01*
X60927525Y20319500D01*
X60927527Y20319500D01*
X61072473Y20319500D01*
X61072475Y20319500D01*
X61212485Y20357016D01*
X61338015Y20429491D01*
X61440509Y20531985D01*
X61512984Y20657515D01*
X61550500Y20797525D01*
X61550500Y20942475D01*
X61512984Y21082485D01*
X61510080Y21087514D01*
X61440507Y21208018D01*
X61338017Y21310508D01*
X61212486Y21382984D01*
X61212484Y21382985D01*
X61072475Y21420500D01*
X60927525Y21420500D01*
X60927524Y21420500D01*
X60787515Y21382985D01*
X60787513Y21382984D01*
X60661982Y21310508D01*
X60559492Y21208018D01*
X60487016Y21082487D01*
X60487015Y21082485D01*
X60449500Y20942476D01*
X55550500Y20942476D01*
X55512984Y21082485D01*
X55510080Y21087514D01*
X55440507Y21208018D01*
X55338017Y21310508D01*
X55212486Y21382984D01*
X55212484Y21382985D01*
X55072475Y21420500D01*
X54927525Y21420500D01*
X54927524Y21420500D01*
X54787515Y21382985D01*
X54787513Y21382984D01*
X54661982Y21310508D01*
X54559492Y21208018D01*
X54487016Y21082487D01*
X54487015Y21082485D01*
X54449500Y20942476D01*
X44746000Y20942476D01*
X44765509Y20961985D01*
X44837984Y21087515D01*
X44875500Y21227525D01*
X44875500Y21372475D01*
X44837984Y21512485D01*
X44765509Y21638015D01*
X44765508Y21638016D01*
X44765507Y21638018D01*
X44663017Y21740508D01*
X44650948Y21747476D01*
X45449500Y21747476D01*
X45449500Y21602525D01*
X45487015Y21462516D01*
X45487016Y21462514D01*
X45559492Y21336983D01*
X45661982Y21234493D01*
X45661984Y21234492D01*
X45661985Y21234491D01*
X45787515Y21162016D01*
X45927525Y21124500D01*
X45927527Y21124500D01*
X46072473Y21124500D01*
X46072475Y21124500D01*
X46212485Y21162016D01*
X46338015Y21234491D01*
X46440509Y21336985D01*
X46512984Y21462515D01*
X46550500Y21602525D01*
X46550500Y21747475D01*
X46512984Y21887485D01*
X46440509Y22013015D01*
X46440508Y22013016D01*
X46440507Y22013018D01*
X46338017Y22115508D01*
X46325948Y22122476D01*
X49399500Y22122476D01*
X49399500Y21977525D01*
X49437015Y21837516D01*
X49437016Y21837514D01*
X49509492Y21711983D01*
X49611982Y21609493D01*
X49611984Y21609492D01*
X49611985Y21609491D01*
X49737515Y21537016D01*
X49877525Y21499500D01*
X49877527Y21499500D01*
X50022473Y21499500D01*
X50022475Y21499500D01*
X50162485Y21537016D01*
X50288015Y21609491D01*
X50390509Y21711985D01*
X50462984Y21837515D01*
X50500500Y21977525D01*
X50500500Y22122475D01*
X50482947Y22187984D01*
X50480476Y22197207D01*
X50476384Y22212476D01*
X60449500Y22212476D01*
X60449500Y22067525D01*
X60487015Y21927516D01*
X60487016Y21927514D01*
X60559492Y21801983D01*
X60661982Y21699493D01*
X60661984Y21699492D01*
X60661985Y21699491D01*
X60787515Y21627016D01*
X60927525Y21589500D01*
X60927527Y21589500D01*
X61072473Y21589500D01*
X61072475Y21589500D01*
X61212485Y21627016D01*
X61338015Y21699491D01*
X61440509Y21801985D01*
X61512984Y21927515D01*
X61550500Y22067525D01*
X61550500Y22212475D01*
X61512984Y22352485D01*
X61440509Y22478015D01*
X61440508Y22478016D01*
X61440507Y22478018D01*
X61338017Y22580508D01*
X61212486Y22652984D01*
X61212484Y22652985D01*
X61072475Y22690500D01*
X60927525Y22690500D01*
X60927524Y22690500D01*
X60787515Y22652985D01*
X60787513Y22652984D01*
X60661982Y22580508D01*
X60559492Y22478018D01*
X60487016Y22352487D01*
X60487015Y22352485D01*
X60449500Y22212476D01*
X50476384Y22212476D01*
X50462984Y22262485D01*
X50462983Y22262487D01*
X50390507Y22388018D01*
X50288017Y22490508D01*
X50162486Y22562984D01*
X50162484Y22562985D01*
X50022475Y22600500D01*
X49877525Y22600500D01*
X49877524Y22600500D01*
X49737515Y22562985D01*
X49737513Y22562984D01*
X49611982Y22490508D01*
X49509492Y22388018D01*
X49437016Y22262487D01*
X49437015Y22262485D01*
X49399500Y22122476D01*
X46325948Y22122476D01*
X46212486Y22187984D01*
X46212484Y22187985D01*
X46072475Y22225500D01*
X45927525Y22225500D01*
X45927524Y22225500D01*
X45787515Y22187985D01*
X45787513Y22187984D01*
X45661982Y22115508D01*
X45559492Y22013018D01*
X45487016Y21887487D01*
X45487015Y21887485D01*
X45449500Y21747476D01*
X44650948Y21747476D01*
X44537486Y21812984D01*
X44537484Y21812985D01*
X44397475Y21850500D01*
X44252525Y21850500D01*
X44252524Y21850500D01*
X44112515Y21812985D01*
X44112513Y21812984D01*
X43986982Y21740508D01*
X43884492Y21638018D01*
X43812016Y21512487D01*
X43812015Y21512485D01*
X43774500Y21372476D01*
X34500000Y21372476D01*
X34500000Y23072476D01*
X37474500Y23072476D01*
X37474500Y22927525D01*
X37512015Y22787516D01*
X37512016Y22787514D01*
X37584492Y22661983D01*
X37686982Y22559493D01*
X37806466Y22490508D01*
X37812515Y22487016D01*
X37952525Y22449500D01*
X37952527Y22449500D01*
X38097473Y22449500D01*
X38097475Y22449500D01*
X38237485Y22487016D01*
X38363015Y22559491D01*
X38465509Y22661985D01*
X38537984Y22787515D01*
X38575500Y22927525D01*
X38575500Y23072475D01*
X38575500Y23072476D01*
X39024500Y23072476D01*
X39024500Y22927525D01*
X39062015Y22787516D01*
X39062016Y22787514D01*
X39134492Y22661983D01*
X39236982Y22559493D01*
X39356466Y22490508D01*
X39362515Y22487016D01*
X39502525Y22449500D01*
X39502527Y22449500D01*
X39647473Y22449500D01*
X39647475Y22449500D01*
X39787485Y22487016D01*
X39913015Y22559491D01*
X40015509Y22661985D01*
X40087984Y22787515D01*
X40125500Y22927525D01*
X40125500Y23072475D01*
X40125500Y23072476D01*
X42124500Y23072476D01*
X42124500Y22927525D01*
X42162015Y22787516D01*
X42162016Y22787514D01*
X42234492Y22661983D01*
X42336982Y22559493D01*
X42456466Y22490508D01*
X42462515Y22487016D01*
X42602525Y22449500D01*
X42602527Y22449500D01*
X42747473Y22449500D01*
X42747475Y22449500D01*
X42887485Y22487016D01*
X43013015Y22559491D01*
X43115509Y22661985D01*
X43187984Y22787515D01*
X43225500Y22927525D01*
X43225500Y23072475D01*
X43225500Y23072476D01*
X43774500Y23072476D01*
X43774500Y22927525D01*
X43812015Y22787516D01*
X43812016Y22787514D01*
X43884492Y22661983D01*
X43986982Y22559493D01*
X44106466Y22490508D01*
X44112515Y22487016D01*
X44252525Y22449500D01*
X44252527Y22449500D01*
X44397473Y22449500D01*
X44397475Y22449500D01*
X44537485Y22487016D01*
X44663015Y22559491D01*
X44765509Y22661985D01*
X44837984Y22787515D01*
X44875500Y22927525D01*
X44875500Y23072475D01*
X44837984Y23212485D01*
X44765509Y23338015D01*
X44765508Y23338016D01*
X44765507Y23338018D01*
X44706049Y23397476D01*
X45449500Y23397476D01*
X45449500Y23252525D01*
X45487015Y23112516D01*
X45487016Y23112514D01*
X45559492Y22986983D01*
X45661982Y22884493D01*
X45661984Y22884492D01*
X45661985Y22884491D01*
X45787515Y22812016D01*
X45927525Y22774500D01*
X45927527Y22774500D01*
X46072473Y22774500D01*
X46072475Y22774500D01*
X46212485Y22812016D01*
X46338015Y22884491D01*
X46440509Y22986985D01*
X46512984Y23112515D01*
X46550500Y23252525D01*
X46550500Y23397475D01*
X46547946Y23407005D01*
X46541194Y23432207D01*
X46537103Y23447476D01*
X49249500Y23447476D01*
X49249500Y23302525D01*
X49287015Y23162516D01*
X49287016Y23162514D01*
X49359492Y23036983D01*
X49461982Y22934493D01*
X49461984Y22934492D01*
X49461985Y22934491D01*
X49587515Y22862016D01*
X49727525Y22824500D01*
X49727527Y22824500D01*
X49872473Y22824500D01*
X49872475Y22824500D01*
X50012485Y22862016D01*
X50138015Y22934491D01*
X50240509Y23036985D01*
X50312984Y23162515D01*
X50350500Y23302525D01*
X50350500Y23447475D01*
X50341121Y23482476D01*
X54449500Y23482476D01*
X54449500Y23337525D01*
X54487015Y23197516D01*
X54487016Y23197514D01*
X54559492Y23071983D01*
X54661982Y22969493D01*
X54661984Y22969492D01*
X54661985Y22969491D01*
X54787515Y22897016D01*
X54927525Y22859500D01*
X54927527Y22859500D01*
X55072473Y22859500D01*
X55072475Y22859500D01*
X55212485Y22897016D01*
X55338015Y22969491D01*
X55440509Y23071985D01*
X55512984Y23197515D01*
X55526371Y23247476D01*
X61949500Y23247476D01*
X61949500Y23102525D01*
X61987015Y22962516D01*
X61987016Y22962514D01*
X62059492Y22836983D01*
X62161982Y22734493D01*
X62161984Y22734492D01*
X62161985Y22734491D01*
X62287515Y22662016D01*
X62427525Y22624500D01*
X62427527Y22624500D01*
X62572473Y22624500D01*
X62572475Y22624500D01*
X62712485Y22662016D01*
X62838015Y22734491D01*
X62940509Y22836985D01*
X63012984Y22962515D01*
X63050500Y23102525D01*
X63050500Y23247475D01*
X63012984Y23387485D01*
X63007217Y23397473D01*
X62940507Y23513018D01*
X62838017Y23615508D01*
X62712486Y23687984D01*
X62712484Y23687985D01*
X62572475Y23725500D01*
X62427525Y23725500D01*
X62427524Y23725500D01*
X62287515Y23687985D01*
X62287513Y23687984D01*
X62161982Y23615508D01*
X62059492Y23513018D01*
X61987016Y23387487D01*
X61987015Y23387485D01*
X61949500Y23247476D01*
X55526371Y23247476D01*
X55550500Y23337525D01*
X55550500Y23482475D01*
X55512984Y23622485D01*
X55440509Y23748015D01*
X55440508Y23748016D01*
X55440507Y23748018D01*
X55338017Y23850508D01*
X55212486Y23922984D01*
X55212484Y23922985D01*
X55072475Y23960500D01*
X54927525Y23960500D01*
X54927524Y23960500D01*
X54787515Y23922985D01*
X54787513Y23922984D01*
X54661982Y23850508D01*
X54559492Y23748018D01*
X54487016Y23622487D01*
X54487015Y23622485D01*
X54449500Y23482476D01*
X50341121Y23482476D01*
X50312984Y23587485D01*
X50312983Y23587487D01*
X50240507Y23713018D01*
X50138017Y23815508D01*
X50012486Y23887984D01*
X50012484Y23887985D01*
X49872475Y23925500D01*
X49727525Y23925500D01*
X49727524Y23925500D01*
X49587515Y23887985D01*
X49587513Y23887984D01*
X49461982Y23815508D01*
X49359492Y23713018D01*
X49287016Y23587487D01*
X49287015Y23587485D01*
X49249500Y23447476D01*
X46537103Y23447476D01*
X46512984Y23537485D01*
X46512983Y23537487D01*
X46440507Y23663018D01*
X46338017Y23765508D01*
X46212486Y23837984D01*
X46212484Y23837985D01*
X46072475Y23875500D01*
X45927525Y23875500D01*
X45927524Y23875500D01*
X45787515Y23837985D01*
X45787513Y23837984D01*
X45661982Y23765508D01*
X45559492Y23663018D01*
X45487016Y23537487D01*
X45487015Y23537485D01*
X45449500Y23397476D01*
X44706049Y23397476D01*
X44663017Y23440508D01*
X44537486Y23512984D01*
X44537484Y23512985D01*
X44397475Y23550500D01*
X44252525Y23550500D01*
X44252524Y23550500D01*
X44112515Y23512985D01*
X44112513Y23512984D01*
X43986982Y23440508D01*
X43884492Y23338018D01*
X43812016Y23212487D01*
X43812015Y23212485D01*
X43774500Y23072476D01*
X43225500Y23072476D01*
X43187984Y23212485D01*
X43115509Y23338015D01*
X43115508Y23338016D01*
X43115507Y23338018D01*
X43013017Y23440508D01*
X42887486Y23512984D01*
X42887484Y23512985D01*
X42747475Y23550500D01*
X42602525Y23550500D01*
X42602524Y23550500D01*
X42462515Y23512985D01*
X42462513Y23512984D01*
X42336982Y23440508D01*
X42234492Y23338018D01*
X42162016Y23212487D01*
X42162015Y23212485D01*
X42124500Y23072476D01*
X40125500Y23072476D01*
X40087984Y23212485D01*
X40015509Y23338015D01*
X40015508Y23338016D01*
X40015507Y23338018D01*
X39913017Y23440508D01*
X39787486Y23512984D01*
X39787484Y23512985D01*
X39647475Y23550500D01*
X39502525Y23550500D01*
X39502524Y23550500D01*
X39362515Y23512985D01*
X39362513Y23512984D01*
X39236982Y23440508D01*
X39134492Y23338018D01*
X39062016Y23212487D01*
X39062015Y23212485D01*
X39024500Y23072476D01*
X38575500Y23072476D01*
X38537984Y23212485D01*
X38465509Y23338015D01*
X38465508Y23338016D01*
X38465507Y23338018D01*
X38363017Y23440508D01*
X38237486Y23512984D01*
X38237484Y23512985D01*
X38097475Y23550500D01*
X37952525Y23550500D01*
X37952524Y23550500D01*
X37812515Y23512985D01*
X37812513Y23512984D01*
X37686982Y23440508D01*
X37584492Y23338018D01*
X37512016Y23212487D01*
X37512015Y23212485D01*
X37474500Y23072476D01*
X34500000Y23072476D01*
X34500000Y24421000D01*
X34518482Y24471780D01*
X34565282Y24498800D01*
X34579000Y24500000D01*
X53400000Y24500000D01*
X53400000Y24897476D01*
X61949500Y24897476D01*
X61949500Y24752525D01*
X61987015Y24612516D01*
X61987016Y24612514D01*
X62059492Y24486983D01*
X62161982Y24384493D01*
X62161984Y24384492D01*
X62161985Y24384491D01*
X62287515Y24312016D01*
X62427525Y24274500D01*
X62427527Y24274500D01*
X62572473Y24274500D01*
X62572475Y24274500D01*
X62712485Y24312016D01*
X62838015Y24384491D01*
X62940509Y24486985D01*
X63012984Y24612515D01*
X63050500Y24752525D01*
X63050500Y24897475D01*
X63012984Y25037485D01*
X62992782Y25072476D01*
X69449500Y25072476D01*
X69449500Y24927525D01*
X69487015Y24787516D01*
X69487016Y24787514D01*
X69559492Y24661983D01*
X69661982Y24559493D01*
X69767104Y24498800D01*
X69787515Y24487016D01*
X69927525Y24449500D01*
X69927527Y24449500D01*
X70072473Y24449500D01*
X70072475Y24449500D01*
X70212485Y24487016D01*
X70338015Y24559491D01*
X70440509Y24661985D01*
X70512984Y24787515D01*
X70550500Y24927525D01*
X70550500Y25072475D01*
X70512984Y25212485D01*
X70440509Y25338015D01*
X70440508Y25338016D01*
X70440507Y25338018D01*
X70338017Y25440508D01*
X70212486Y25512984D01*
X70212484Y25512985D01*
X70072475Y25550500D01*
X69927525Y25550500D01*
X69927524Y25550500D01*
X69787515Y25512985D01*
X69787513Y25512984D01*
X69661982Y25440508D01*
X69559492Y25338018D01*
X69487016Y25212487D01*
X69487015Y25212485D01*
X69449500Y25072476D01*
X62992782Y25072476D01*
X62940509Y25163015D01*
X62940508Y25163016D01*
X62940507Y25163018D01*
X62838017Y25265508D01*
X62712486Y25337984D01*
X62712484Y25337985D01*
X62572475Y25375500D01*
X62427525Y25375500D01*
X62427524Y25375500D01*
X62287515Y25337985D01*
X62287513Y25337984D01*
X62161982Y25265508D01*
X62059492Y25163018D01*
X61987016Y25037487D01*
X61987015Y25037485D01*
X61949500Y24897476D01*
X53400000Y24897476D01*
X53400000Y25572476D01*
X53674500Y25572476D01*
X53674500Y25427525D01*
X53712015Y25287516D01*
X53712016Y25287514D01*
X53784492Y25161983D01*
X53886982Y25059493D01*
X53886984Y25059492D01*
X53886985Y25059491D01*
X53966564Y25013546D01*
X54007734Y24989776D01*
X54012515Y24987016D01*
X54152525Y24949500D01*
X54152527Y24949500D01*
X54297473Y24949500D01*
X54297475Y24949500D01*
X54437485Y24987016D01*
X54563015Y25059491D01*
X54665509Y25161985D01*
X54737984Y25287515D01*
X54775500Y25427525D01*
X54775500Y25572475D01*
X54775500Y25572476D01*
X55224500Y25572476D01*
X55224500Y25427525D01*
X55262015Y25287516D01*
X55262016Y25287514D01*
X55334492Y25161983D01*
X55436982Y25059493D01*
X55436984Y25059492D01*
X55436985Y25059491D01*
X55516564Y25013546D01*
X55557734Y24989776D01*
X55562515Y24987016D01*
X55702525Y24949500D01*
X55702527Y24949500D01*
X55847473Y24949500D01*
X55847475Y24949500D01*
X55987485Y24987016D01*
X56113015Y25059491D01*
X56215509Y25161985D01*
X56287984Y25287515D01*
X56325500Y25427525D01*
X56325500Y25572475D01*
X56287984Y25712485D01*
X56215509Y25838015D01*
X56215508Y25838016D01*
X56215507Y25838018D01*
X56113017Y25940508D01*
X55987486Y26012984D01*
X55987484Y26012985D01*
X55847475Y26050500D01*
X55702525Y26050500D01*
X55702524Y26050500D01*
X55562515Y26012985D01*
X55562513Y26012984D01*
X55436982Y25940508D01*
X55334492Y25838018D01*
X55262016Y25712487D01*
X55262015Y25712485D01*
X55224500Y25572476D01*
X54775500Y25572476D01*
X54737984Y25712485D01*
X54665509Y25838015D01*
X54665508Y25838016D01*
X54665507Y25838018D01*
X54563017Y25940508D01*
X54437486Y26012984D01*
X54437484Y26012985D01*
X54297475Y26050500D01*
X54152525Y26050500D01*
X54152524Y26050500D01*
X54012515Y26012985D01*
X54012513Y26012984D01*
X53886982Y25940508D01*
X53784492Y25838018D01*
X53712016Y25712487D01*
X53712015Y25712485D01*
X53674500Y25572476D01*
X53400000Y25572476D01*
X53400000Y28072476D01*
X57274500Y28072476D01*
X57274500Y27927525D01*
X57312015Y27787516D01*
X57312016Y27787514D01*
X57384492Y27661983D01*
X57486982Y27559493D01*
X57486984Y27559492D01*
X57486985Y27559491D01*
X57612515Y27487016D01*
X57752525Y27449500D01*
X57752527Y27449500D01*
X57897473Y27449500D01*
X57897475Y27449500D01*
X58037485Y27487016D01*
X58163015Y27559491D01*
X58265509Y27661985D01*
X58337984Y27787515D01*
X58375500Y27927525D01*
X58375500Y28072475D01*
X58337984Y28212485D01*
X58265509Y28338015D01*
X58265508Y28338016D01*
X58265507Y28338018D01*
X58163017Y28440508D01*
X58037486Y28512984D01*
X58037484Y28512985D01*
X57897475Y28550500D01*
X57752525Y28550500D01*
X57752524Y28550500D01*
X57612515Y28512985D01*
X57612513Y28512984D01*
X57486982Y28440508D01*
X57384492Y28338018D01*
X57312016Y28212487D01*
X57312015Y28212485D01*
X57274500Y28072476D01*
X53400000Y28072476D01*
X53400000Y28780753D01*
X53418482Y28831533D01*
X53465282Y28858553D01*
X53518500Y28849169D01*
X53534861Y28836614D01*
X53561982Y28809493D01*
X53561984Y28809492D01*
X53561985Y28809491D01*
X53687515Y28737016D01*
X53827525Y28699500D01*
X53827527Y28699500D01*
X53972473Y28699500D01*
X53972475Y28699500D01*
X54112485Y28737016D01*
X54238015Y28809491D01*
X54340509Y28911985D01*
X54412984Y29037515D01*
X54450500Y29177525D01*
X54450500Y29322475D01*
X54412984Y29462485D01*
X54340509Y29588015D01*
X54340508Y29588016D01*
X54340507Y29588018D01*
X54238017Y29690508D01*
X54112486Y29762984D01*
X54112484Y29762985D01*
X53972475Y29800500D01*
X53827525Y29800500D01*
X53827524Y29800500D01*
X53687515Y29762985D01*
X53687513Y29762984D01*
X53561982Y29690508D01*
X53534861Y29663386D01*
X53485885Y29640548D01*
X53433687Y29654534D01*
X53402692Y29698800D01*
X53400000Y29719247D01*
X53400000Y30088754D01*
X53418482Y30139534D01*
X53423129Y30144606D01*
X53440509Y30161985D01*
X53512984Y30287515D01*
X53550500Y30427525D01*
X53550500Y30572475D01*
X53512984Y30712485D01*
X53508464Y30720313D01*
X53484099Y30762515D01*
X53440509Y30838015D01*
X53440508Y30838016D01*
X53440507Y30838018D01*
X53423139Y30855386D01*
X53400301Y30904362D01*
X53400000Y30911247D01*
X53400000Y31222476D01*
X55549500Y31222476D01*
X55549500Y31077525D01*
X55587015Y30937516D01*
X55587016Y30937514D01*
X55659492Y30811983D01*
X55740614Y30730861D01*
X55763452Y30681885D01*
X55749466Y30629687D01*
X55740614Y30619139D01*
X55659492Y30538018D01*
X55587016Y30412487D01*
X55587015Y30412485D01*
X55549500Y30272476D01*
X55549500Y30127525D01*
X55587015Y29987516D01*
X55587016Y29987514D01*
X55659492Y29861983D01*
X55740614Y29780861D01*
X55763452Y29731885D01*
X55749466Y29679687D01*
X55740614Y29669139D01*
X55659492Y29588018D01*
X55587016Y29462487D01*
X55587015Y29462485D01*
X55549500Y29322476D01*
X55549500Y29177525D01*
X55587015Y29037516D01*
X55587016Y29037514D01*
X55659492Y28911983D01*
X55761982Y28809493D01*
X55761984Y28809492D01*
X55761985Y28809491D01*
X55887515Y28737016D01*
X56027525Y28699500D01*
X56027527Y28699500D01*
X56172473Y28699500D01*
X56172475Y28699500D01*
X56312485Y28737016D01*
X56438015Y28809491D01*
X56540509Y28911985D01*
X56612984Y29037515D01*
X56650500Y29177525D01*
X56650500Y29322475D01*
X56612984Y29462485D01*
X56540509Y29588015D01*
X56540508Y29588016D01*
X56540507Y29588018D01*
X56459386Y29669139D01*
X56436548Y29718115D01*
X56450534Y29770313D01*
X56459386Y29780861D01*
X56540507Y29861983D01*
X56540509Y29861985D01*
X56612984Y29987515D01*
X56650500Y30127525D01*
X56650500Y30272475D01*
X56612984Y30412485D01*
X56540509Y30538015D01*
X56540508Y30538016D01*
X56540507Y30538018D01*
X56459386Y30619139D01*
X56436548Y30668115D01*
X56450534Y30720313D01*
X56459386Y30730861D01*
X56540507Y30811983D01*
X56540509Y30811985D01*
X56612984Y30937515D01*
X56650500Y31077525D01*
X56650500Y31222475D01*
X56612984Y31362485D01*
X56540509Y31488015D01*
X56540508Y31488016D01*
X56540507Y31488018D01*
X56438017Y31590508D01*
X56312486Y31662984D01*
X56312484Y31662985D01*
X56172475Y31700500D01*
X56027525Y31700500D01*
X56027524Y31700500D01*
X55887515Y31662985D01*
X55887513Y31662984D01*
X55761982Y31590508D01*
X55659492Y31488018D01*
X55587016Y31362487D01*
X55587015Y31362485D01*
X55549500Y31222476D01*
X53400000Y31222476D01*
X53400000Y33947476D01*
X60649500Y33947476D01*
X60649500Y33802525D01*
X60687015Y33662516D01*
X60687016Y33662514D01*
X60759492Y33536983D01*
X60861982Y33434493D01*
X60861984Y33434492D01*
X60861985Y33434491D01*
X60987515Y33362016D01*
X61127525Y33324500D01*
X61127527Y33324500D01*
X61272473Y33324500D01*
X61272475Y33324500D01*
X61412485Y33362016D01*
X61538015Y33434491D01*
X61640509Y33536985D01*
X61712984Y33662515D01*
X61750500Y33802525D01*
X61750500Y33947475D01*
X61712984Y34087485D01*
X61640509Y34213015D01*
X61640508Y34213016D01*
X61640507Y34213018D01*
X61538017Y34315508D01*
X61412486Y34387984D01*
X61412484Y34387985D01*
X61272475Y34425500D01*
X61127525Y34425500D01*
X61127524Y34425500D01*
X60987515Y34387985D01*
X60987513Y34387984D01*
X60861982Y34315508D01*
X60759492Y34213018D01*
X60687016Y34087487D01*
X60687015Y34087485D01*
X60649500Y33947476D01*
X53400000Y33947476D01*
X53400000Y34971314D01*
X56795018Y34971314D01*
X56818388Y34838885D01*
X56824762Y34802767D01*
X56897114Y34647664D01*
X57007145Y34516573D01*
X57147354Y34418426D01*
X57147358Y34418425D01*
X57147359Y34418424D01*
X57308188Y34359911D01*
X57478686Y34345019D01*
X57478686Y34345020D01*
X57478688Y34345019D01*
X57647233Y34374762D01*
X57802336Y34447114D01*
X57933427Y34557145D01*
X58295896Y35074960D01*
X58304743Y35085506D01*
X58320130Y35100891D01*
X58347037Y35147498D01*
X58350728Y35153291D01*
X58381574Y35197355D01*
X58389007Y35217789D01*
X58394827Y35230271D01*
X58405704Y35249109D01*
X58419630Y35301087D01*
X58421694Y35307632D01*
X58440088Y35358188D01*
X58440087Y35358188D01*
X58440089Y35358190D01*
X58441981Y35379863D01*
X58444373Y35393428D01*
X58450000Y35414426D01*
X58450000Y35468222D01*
X58450300Y35475097D01*
X58454981Y35528688D01*
X58451202Y35550103D01*
X58450000Y35563832D01*
X58450000Y37627520D01*
X58468482Y37678300D01*
X58515282Y37705320D01*
X58516972Y37705599D01*
X61724614Y38199082D01*
X61736626Y38200000D01*
X61779566Y38200000D01*
X61799698Y38208340D01*
X61817924Y38213437D01*
X61839463Y38216750D01*
X61876172Y38239024D01*
X61886911Y38244466D01*
X61926582Y38260897D01*
X61941992Y38276309D01*
X61956874Y38287988D01*
X61975510Y38299294D01*
X62000899Y38333917D01*
X62008737Y38343054D01*
X62039103Y38373418D01*
X62047443Y38393556D01*
X62056725Y38410042D01*
X62069611Y38427613D01*
X62069613Y38427617D01*
X62079820Y38469323D01*
X62083565Y38480761D01*
X62100000Y38520435D01*
X62100000Y38542231D01*
X62102266Y38561015D01*
X62107446Y38582180D01*
X62107447Y38582183D01*
X62107446Y38582185D01*
X62107447Y38582187D01*
X62100919Y38624616D01*
X62100000Y38636629D01*
X62100000Y39631124D01*
X64199500Y39631124D01*
X64199500Y39368877D01*
X64233728Y39108889D01*
X64301598Y38855593D01*
X64301605Y38855573D01*
X64401954Y38613308D01*
X64530881Y38389998D01*
X64533076Y38386197D01*
X64681277Y38193059D01*
X64692720Y38178147D01*
X64692726Y38178140D01*
X64878139Y37992727D01*
X64878146Y37992721D01*
X64878149Y37992718D01*
X65086197Y37833076D01*
X65313303Y37701957D01*
X65313304Y37701957D01*
X65313307Y37701955D01*
X65409804Y37661985D01*
X65555581Y37601602D01*
X65808884Y37533730D01*
X65808886Y37533730D01*
X65808889Y37533729D01*
X65808887Y37533729D01*
X66068877Y37499500D01*
X66068880Y37499500D01*
X66331123Y37499500D01*
X66591111Y37533729D01*
X66591113Y37533730D01*
X66591116Y37533730D01*
X66844419Y37601602D01*
X67086697Y37701957D01*
X67313803Y37833076D01*
X67521851Y37992718D01*
X67707282Y38178149D01*
X67866924Y38386197D01*
X67998043Y38613303D01*
X68098398Y38855581D01*
X68166270Y39108884D01*
X68166271Y39108889D01*
X68200500Y39368877D01*
X68200500Y39631124D01*
X68166271Y39891112D01*
X68098401Y40144408D01*
X68098400Y40144409D01*
X68098398Y40144419D01*
X68034934Y40297635D01*
X67998045Y40386693D01*
X67968414Y40438015D01*
X67866924Y40613803D01*
X67707282Y40821851D01*
X67707279Y40821854D01*
X67707273Y40821861D01*
X67521860Y41007274D01*
X67521853Y41007280D01*
X67521851Y41007282D01*
X67313803Y41166924D01*
X67281964Y41185306D01*
X67086692Y41298046D01*
X66844427Y41398395D01*
X66844422Y41398397D01*
X66844419Y41398398D01*
X66844416Y41398399D01*
X66844407Y41398402D01*
X66591110Y41466272D01*
X66591112Y41466272D01*
X66331123Y41500500D01*
X66331120Y41500500D01*
X66068880Y41500500D01*
X66068877Y41500500D01*
X65808888Y41466272D01*
X65555592Y41398402D01*
X65555572Y41398395D01*
X65313307Y41298046D01*
X65086199Y41166926D01*
X65086195Y41166923D01*
X64878146Y41007280D01*
X64878139Y41007274D01*
X64692726Y40821861D01*
X64692720Y40821854D01*
X64533077Y40613805D01*
X64533074Y40613801D01*
X64401954Y40386693D01*
X64301605Y40144428D01*
X64301598Y40144408D01*
X64233728Y39891112D01*
X64199500Y39631124D01*
X62100000Y39631124D01*
X62100000Y43271319D01*
X62118482Y43322099D01*
X62163591Y43348802D01*
X62169614Y43350000D01*
X62169619Y43350000D01*
X62298259Y43403284D01*
X62396716Y43501741D01*
X62450000Y43630381D01*
X62450000Y43769619D01*
X62396716Y43898259D01*
X62396714Y43898261D01*
X62396712Y43898264D01*
X62342611Y43952365D01*
X62319773Y44001341D01*
X62333759Y44053539D01*
X62342605Y44064082D01*
X62440509Y44161985D01*
X62512984Y44287515D01*
X62550500Y44427525D01*
X62550500Y44572475D01*
X62512984Y44712485D01*
X62440509Y44838015D01*
X62440508Y44838016D01*
X62440507Y44838018D01*
X62338018Y44940507D01*
X62246094Y44993580D01*
X62211359Y45034977D01*
X62209641Y45040273D01*
X62143204Y45272804D01*
X62141242Y45281504D01*
X61978949Y46255271D01*
X61988832Y46308395D01*
X61997824Y46320734D01*
X62155381Y46497986D01*
X62202931Y46523659D01*
X62214426Y46524500D01*
X62272473Y46524500D01*
X62272475Y46524500D01*
X62412485Y46562016D01*
X62538015Y46634491D01*
X62640509Y46736985D01*
X62712984Y46862515D01*
X62750500Y47002525D01*
X62750500Y47147475D01*
X62712984Y47287485D01*
X62640509Y47413015D01*
X62640508Y47413016D01*
X62640507Y47413018D01*
X62538017Y47515508D01*
X62412486Y47587984D01*
X62412484Y47587985D01*
X62272475Y47625500D01*
X62127525Y47625500D01*
X62127524Y47625500D01*
X61987515Y47587985D01*
X61987513Y47587984D01*
X61861982Y47515508D01*
X61759492Y47413018D01*
X61687016Y47287487D01*
X61687015Y47287485D01*
X61649500Y47147476D01*
X61649500Y47012545D01*
X61631018Y46961765D01*
X61629545Y46960060D01*
X61379486Y46678743D01*
X61362262Y46664205D01*
X61355658Y46660085D01*
X61328469Y46622022D01*
X61323233Y46615459D01*
X61292153Y46580493D01*
X61292152Y46580492D01*
X61289600Y46573135D01*
X61279255Y46553121D01*
X61274728Y46546783D01*
X61264174Y46501209D01*
X61261847Y46493141D01*
X61246516Y46448949D01*
X61246973Y46441170D01*
X61245073Y46418719D01*
X61243317Y46411137D01*
X61243317Y46411129D01*
X61251005Y46364998D01*
X61251944Y46356652D01*
X61254692Y46309947D01*
X61258088Y46302943D01*
X61264928Y46281465D01*
X61394041Y45506786D01*
X61384158Y45453658D01*
X61342438Y45419312D01*
X61295669Y45417490D01*
X61172475Y45450500D01*
X61027525Y45450500D01*
X61027524Y45450500D01*
X60887515Y45412985D01*
X60887513Y45412984D01*
X60761982Y45340508D01*
X60659492Y45238018D01*
X60587016Y45112487D01*
X60587015Y45112485D01*
X60549500Y44972476D01*
X60549500Y44827525D01*
X60587015Y44687516D01*
X60587016Y44687514D01*
X60659492Y44561983D01*
X60761982Y44459493D01*
X60761984Y44459492D01*
X60761985Y44459491D01*
X60887515Y44387016D01*
X61027525Y44349500D01*
X61027527Y44349500D01*
X61172473Y44349500D01*
X61172475Y44349500D01*
X61306393Y44385384D01*
X61360225Y44380674D01*
X61398437Y44342463D01*
X61403147Y44288630D01*
X61394580Y44268430D01*
X61387339Y44256362D01*
X61375462Y44241149D01*
X61360896Y44226583D01*
X61344012Y44185821D01*
X61338769Y44175410D01*
X61316067Y44137572D01*
X61316066Y44137570D01*
X61313034Y44117197D01*
X61307883Y44098600D01*
X61300000Y44079568D01*
X61300000Y44035445D01*
X61299789Y44029673D01*
X61299573Y44026730D01*
X61292646Y43980175D01*
X61295365Y43969299D01*
X61295365Y43969297D01*
X61297641Y43960195D01*
X61300000Y43941035D01*
X61300000Y43906045D01*
X61293986Y43875813D01*
X61282469Y43848009D01*
X61280143Y43842912D01*
X61255816Y43794259D01*
X61255815Y43794256D01*
X61255815Y43794244D01*
X61250005Y43769632D01*
X61250000Y43769620D01*
X61250000Y43715224D01*
X61249801Y43709623D01*
X61245944Y43655368D01*
X61245945Y43655367D01*
X61250000Y43630382D01*
X61250000Y43630379D01*
X61270813Y43580130D01*
X61272771Y43574884D01*
X61292436Y43515893D01*
X61291803Y43515682D01*
X61300000Y43484754D01*
X61300000Y39010944D01*
X61281518Y38960164D01*
X61234718Y38933144D01*
X61233013Y38932863D01*
X58571682Y38523428D01*
X58518681Y38533974D01*
X58484860Y38576120D01*
X58480766Y38605412D01*
X58553436Y40073331D01*
X58517368Y40240636D01*
X58439228Y40392904D01*
X58324338Y40519760D01*
X58263173Y40559230D01*
X58180534Y40612558D01*
X58017607Y40664975D01*
X57846670Y40673437D01*
X57679367Y40637370D01*
X57679365Y40637370D01*
X57527100Y40559230D01*
X57527095Y40559227D01*
X57400240Y40444340D01*
X57400239Y40444338D01*
X57307442Y40300535D01*
X57255025Y40137608D01*
X57154636Y38109733D01*
X57152042Y38093195D01*
X57150000Y38085575D01*
X57150000Y38018025D01*
X57149903Y38014119D01*
X57146564Y37946671D01*
X57148226Y37938962D01*
X57150000Y37922313D01*
X57150000Y35729797D01*
X57135719Y35684493D01*
X56868427Y35302650D01*
X56868424Y35302644D01*
X56809910Y35141813D01*
X56809910Y35141811D01*
X56795018Y34971314D01*
X53400000Y34971314D01*
X53400000Y39663754D01*
X53418482Y39714534D01*
X53423128Y39719605D01*
X53465509Y39761985D01*
X53537984Y39887515D01*
X53575500Y40027525D01*
X53575500Y40172475D01*
X53537984Y40312485D01*
X53465509Y40438015D01*
X53465508Y40438016D01*
X53465507Y40438018D01*
X53423139Y40480386D01*
X53400301Y40529362D01*
X53400000Y40536247D01*
X53400000Y45268400D01*
X53418482Y45319180D01*
X53465282Y45346200D01*
X53518500Y45336816D01*
X53547416Y45307900D01*
X53559492Y45286983D01*
X53661982Y45184493D01*
X53661984Y45184492D01*
X53661985Y45184491D01*
X53705283Y45159493D01*
X53786702Y45112485D01*
X53787515Y45112016D01*
X53927525Y45074500D01*
X53927527Y45074500D01*
X54072473Y45074500D01*
X54072475Y45074500D01*
X54212485Y45112016D01*
X54338015Y45184491D01*
X54440509Y45286985D01*
X54512984Y45412515D01*
X54550500Y45552525D01*
X54550500Y45672476D01*
X59049500Y45672476D01*
X59049500Y45527525D01*
X59087015Y45387516D01*
X59087016Y45387514D01*
X59159492Y45261983D01*
X59261982Y45159493D01*
X59357486Y45104353D01*
X59387515Y45087016D01*
X59527525Y45049500D01*
X59527527Y45049500D01*
X59672473Y45049500D01*
X59672475Y45049500D01*
X59812485Y45087016D01*
X59938015Y45159491D01*
X60040509Y45261985D01*
X60112984Y45387515D01*
X60150500Y45527525D01*
X60150500Y45672475D01*
X60150500Y45672476D01*
X60150500Y45675223D01*
X60168982Y45726003D01*
X60215782Y45753023D01*
X60249944Y45751532D01*
X60257525Y45749500D01*
X60257527Y45749500D01*
X60402473Y45749500D01*
X60402475Y45749500D01*
X60542485Y45787016D01*
X60668015Y45859491D01*
X60770509Y45961985D01*
X60842984Y46087515D01*
X60880500Y46227525D01*
X60880500Y46372475D01*
X60842984Y46512485D01*
X60770509Y46638015D01*
X60770508Y46638016D01*
X60770507Y46638018D01*
X60668017Y46740508D01*
X60542486Y46812984D01*
X60542484Y46812985D01*
X60402475Y46850500D01*
X60257525Y46850500D01*
X60257524Y46850500D01*
X60117515Y46812985D01*
X60117513Y46812984D01*
X59991982Y46740508D01*
X59889492Y46638018D01*
X59817016Y46512487D01*
X59817015Y46512485D01*
X59779500Y46372476D01*
X59779500Y46224778D01*
X59761018Y46173998D01*
X59714218Y46146978D01*
X59680058Y46148469D01*
X59672480Y46150499D01*
X59672477Y46150500D01*
X59672475Y46150500D01*
X59527525Y46150500D01*
X59527524Y46150500D01*
X59387515Y46112985D01*
X59387513Y46112984D01*
X59261982Y46040508D01*
X59159492Y45938018D01*
X59087016Y45812487D01*
X59087015Y45812485D01*
X59049500Y45672476D01*
X54550500Y45672476D01*
X54550500Y45697475D01*
X54512984Y45837485D01*
X54440509Y45963015D01*
X54440508Y45963016D01*
X54440507Y45963018D01*
X54338017Y46065508D01*
X54212486Y46137984D01*
X54212484Y46137985D01*
X54072475Y46175500D01*
X53927525Y46175500D01*
X53927524Y46175500D01*
X53787515Y46137985D01*
X53787513Y46137984D01*
X53661982Y46065508D01*
X53559492Y45963017D01*
X53559491Y45963017D01*
X53547415Y45942100D01*
X53506019Y45907365D01*
X53451979Y45907366D01*
X53410583Y45942102D01*
X53400000Y45981601D01*
X53400000Y46372476D01*
X56174500Y46372476D01*
X56174500Y46227525D01*
X56212015Y46087516D01*
X56212016Y46087514D01*
X56284492Y45961983D01*
X56386982Y45859493D01*
X56386984Y45859492D01*
X56386985Y45859491D01*
X56466564Y45813546D01*
X56507734Y45789776D01*
X56512515Y45787016D01*
X56652525Y45749500D01*
X56652527Y45749500D01*
X56797473Y45749500D01*
X56797475Y45749500D01*
X56937485Y45787016D01*
X57063015Y45859491D01*
X57165509Y45961985D01*
X57237984Y46087515D01*
X57275500Y46227525D01*
X57275500Y46372475D01*
X57275500Y46372476D01*
X57724500Y46372476D01*
X57724500Y46227525D01*
X57762015Y46087516D01*
X57762016Y46087514D01*
X57834492Y45961983D01*
X57936982Y45859493D01*
X57936984Y45859492D01*
X57936985Y45859491D01*
X58016564Y45813546D01*
X58057734Y45789776D01*
X58062515Y45787016D01*
X58202525Y45749500D01*
X58202527Y45749500D01*
X58347473Y45749500D01*
X58347475Y45749500D01*
X58487485Y45787016D01*
X58613015Y45859491D01*
X58715509Y45961985D01*
X58787984Y46087515D01*
X58825500Y46227525D01*
X58825500Y46372475D01*
X58787984Y46512485D01*
X58715509Y46638015D01*
X58715508Y46638016D01*
X58715507Y46638018D01*
X58613017Y46740508D01*
X58487486Y46812984D01*
X58487484Y46812985D01*
X58347475Y46850500D01*
X58202525Y46850500D01*
X58202524Y46850500D01*
X58062515Y46812985D01*
X58062513Y46812984D01*
X57936982Y46740508D01*
X57834492Y46638018D01*
X57762016Y46512487D01*
X57762015Y46512485D01*
X57724500Y46372476D01*
X57275500Y46372476D01*
X57237984Y46512485D01*
X57165509Y46638015D01*
X57165508Y46638016D01*
X57165507Y46638018D01*
X57063017Y46740508D01*
X56937486Y46812984D01*
X56937484Y46812985D01*
X56797475Y46850500D01*
X56652525Y46850500D01*
X56652524Y46850500D01*
X56512515Y46812985D01*
X56512513Y46812984D01*
X56386982Y46740508D01*
X56284492Y46638018D01*
X56212016Y46512487D01*
X56212015Y46512485D01*
X56174500Y46372476D01*
X53400000Y46372476D01*
X53400000Y50370500D01*
X53418482Y50421280D01*
X53465282Y50448300D01*
X53479000Y50449500D01*
X53522473Y50449500D01*
X53522475Y50449500D01*
X53662485Y50487016D01*
X53788015Y50559491D01*
X53890509Y50661985D01*
X53962984Y50787515D01*
X53965653Y50797476D01*
X54549500Y50797476D01*
X54549500Y50652525D01*
X54587015Y50512516D01*
X54587016Y50512514D01*
X54659492Y50386983D01*
X54761982Y50284493D01*
X54761984Y50284492D01*
X54761985Y50284491D01*
X54887515Y50212016D01*
X55027525Y50174500D01*
X55027527Y50174500D01*
X55172473Y50174500D01*
X55172475Y50174500D01*
X55312485Y50212016D01*
X55438015Y50284491D01*
X55540509Y50386985D01*
X55612984Y50512515D01*
X55650500Y50652525D01*
X55650500Y50797475D01*
X55612984Y50937485D01*
X55540509Y51063015D01*
X55540508Y51063016D01*
X55540507Y51063018D01*
X55438017Y51165508D01*
X55312486Y51237984D01*
X55312484Y51237985D01*
X55172475Y51275500D01*
X55027525Y51275500D01*
X55027524Y51275500D01*
X54887515Y51237985D01*
X54887513Y51237984D01*
X54761982Y51165508D01*
X54659492Y51063018D01*
X54587016Y50937487D01*
X54587015Y50937485D01*
X54549500Y50797476D01*
X53965653Y50797476D01*
X54000500Y50927525D01*
X54000500Y51072475D01*
X53962984Y51212485D01*
X53890509Y51338015D01*
X53890508Y51338016D01*
X53890507Y51338018D01*
X53788017Y51440508D01*
X53662486Y51512984D01*
X53662484Y51512985D01*
X53522475Y51550500D01*
X53479000Y51550500D01*
X53428220Y51568982D01*
X53401200Y51615782D01*
X53400000Y51629500D01*
X53400000Y52347476D01*
X54549500Y52347476D01*
X54549500Y52202525D01*
X54587015Y52062516D01*
X54587016Y52062514D01*
X54659492Y51936983D01*
X54761982Y51834493D01*
X54761984Y51834492D01*
X54761985Y51834491D01*
X54887515Y51762016D01*
X55027525Y51724500D01*
X55027527Y51724500D01*
X55172473Y51724500D01*
X55172475Y51724500D01*
X55312485Y51762016D01*
X55438015Y51834491D01*
X55540509Y51936985D01*
X55612984Y52062515D01*
X55650500Y52202525D01*
X55650500Y52347475D01*
X55612984Y52487485D01*
X55540509Y52613015D01*
X55540508Y52613016D01*
X55540507Y52613018D01*
X55438017Y52715508D01*
X55312486Y52787984D01*
X55312484Y52787985D01*
X55172475Y52825500D01*
X55027525Y52825500D01*
X55027524Y52825500D01*
X54887515Y52787985D01*
X54887513Y52787984D01*
X54761982Y52715508D01*
X54659492Y52613018D01*
X54587016Y52487487D01*
X54587015Y52487485D01*
X54549500Y52347476D01*
X53400000Y52347476D01*
X53400000Y53321000D01*
X53418482Y53371780D01*
X53465282Y53398800D01*
X53479000Y53400000D01*
X70420500Y53400000D01*
X70471280Y53381518D01*
G37*
%TD.AperFunction*%
%TD*%
%TA.AperFunction,Conductor*%
%TO.N,/SGND*%
G36*
X27471780Y53381518D02*
G01*
X27498800Y53334718D01*
X27500000Y53321000D01*
X27500000Y46879000D01*
X27481518Y46828220D01*
X27434718Y46801200D01*
X27421000Y46800000D01*
X23099999Y46800000D01*
X23099999Y40756603D01*
X23081517Y40705823D01*
X23034717Y40678803D01*
X22981499Y40688187D01*
X22952584Y40717102D01*
X22940508Y40738016D01*
X22940508Y40738017D01*
X22838017Y40840508D01*
X22712486Y40912984D01*
X22712484Y40912985D01*
X22572475Y40950500D01*
X22427525Y40950500D01*
X22427524Y40950500D01*
X22287515Y40912985D01*
X22287513Y40912984D01*
X22161982Y40840508D01*
X22059492Y40738018D01*
X21987016Y40612487D01*
X21987015Y40612485D01*
X21949500Y40472476D01*
X21949500Y40327525D01*
X21987015Y40187516D01*
X21987016Y40187514D01*
X22059492Y40061983D01*
X22161982Y39959493D01*
X22280420Y39891112D01*
X22287515Y39887016D01*
X22427525Y39849500D01*
X22427527Y39849500D01*
X22572473Y39849500D01*
X22572475Y39849500D01*
X22712485Y39887016D01*
X22838015Y39959491D01*
X22940509Y40061985D01*
X22952583Y40082899D01*
X22993979Y40117634D01*
X23048019Y40117634D01*
X23089415Y40082898D01*
X23099999Y40043398D01*
X23099999Y39486603D01*
X23081517Y39435823D01*
X23034717Y39408803D01*
X22981499Y39418187D01*
X22952584Y39447102D01*
X22940508Y39468016D01*
X22940508Y39468017D01*
X22838017Y39570508D01*
X22712486Y39642984D01*
X22712484Y39642985D01*
X22572475Y39680500D01*
X22427525Y39680500D01*
X22427524Y39680500D01*
X22287515Y39642985D01*
X22287513Y39642984D01*
X22161982Y39570508D01*
X22059492Y39468018D01*
X21987016Y39342487D01*
X21987015Y39342485D01*
X21949500Y39202476D01*
X21949500Y39057525D01*
X21987015Y38917516D01*
X21987016Y38917514D01*
X22059492Y38791983D01*
X22161982Y38689493D01*
X22161984Y38689492D01*
X22161985Y38689491D01*
X22287515Y38617016D01*
X22427525Y38579500D01*
X22427527Y38579500D01*
X22572473Y38579500D01*
X22572475Y38579500D01*
X22712485Y38617016D01*
X22838015Y38689491D01*
X22940509Y38791985D01*
X22952583Y38812899D01*
X22993979Y38847634D01*
X23048019Y38847634D01*
X23089415Y38812898D01*
X23099999Y38773398D01*
X23099999Y38226603D01*
X23081517Y38175823D01*
X23034717Y38148803D01*
X22981499Y38158187D01*
X22952584Y38187102D01*
X22940508Y38208016D01*
X22940508Y38208017D01*
X22838017Y38310508D01*
X22712486Y38382984D01*
X22712484Y38382985D01*
X22572475Y38420500D01*
X22427525Y38420500D01*
X22427524Y38420500D01*
X22287515Y38382985D01*
X22287513Y38382984D01*
X22161982Y38310508D01*
X22059492Y38208018D01*
X21987016Y38082487D01*
X21987015Y38082485D01*
X21949500Y37942476D01*
X21949500Y37797525D01*
X21987015Y37657516D01*
X21987016Y37657514D01*
X22059492Y37531983D01*
X22161982Y37429493D01*
X22161984Y37429492D01*
X22161985Y37429491D01*
X22287515Y37357016D01*
X22427525Y37319500D01*
X22427527Y37319500D01*
X22572473Y37319500D01*
X22572475Y37319500D01*
X22712485Y37357016D01*
X22838015Y37429491D01*
X22940509Y37531985D01*
X22952583Y37552899D01*
X22993979Y37587634D01*
X23048019Y37587634D01*
X23089415Y37552898D01*
X23099999Y37513398D01*
X23099999Y30000000D01*
X28908867Y26772852D01*
X28944280Y26732037D01*
X28949500Y26703796D01*
X28949500Y25812465D01*
X28979898Y25640067D01*
X29039775Y25475553D01*
X29060009Y25440508D01*
X29127307Y25323945D01*
X29239837Y25189837D01*
X29373945Y25077307D01*
X29461475Y25026772D01*
X29525552Y24989776D01*
X29525555Y24989775D01*
X29690063Y24929899D01*
X29862468Y24899500D01*
X29862472Y24899500D01*
X32260430Y24899500D01*
X32298795Y24889559D01*
X32959366Y24522574D01*
X32994780Y24481758D01*
X33000000Y24453517D01*
X33000000Y4679000D01*
X32981518Y4628220D01*
X32934718Y4601200D01*
X32921000Y4600000D01*
X9579500Y4600000D01*
X9528720Y4618482D01*
X9501700Y4665282D01*
X9500500Y4679000D01*
X9500500Y4718335D01*
X9500499Y4718337D01*
X9462443Y5153318D01*
X9386619Y5583337D01*
X9273605Y6005112D01*
X9249087Y6072476D01*
X25174500Y6072476D01*
X25174500Y5927525D01*
X25212015Y5787516D01*
X25212016Y5787514D01*
X25284492Y5661983D01*
X25386982Y5559493D01*
X25386984Y5559492D01*
X25386985Y5559491D01*
X25512515Y5487016D01*
X25652525Y5449500D01*
X25652527Y5449500D01*
X25797473Y5449500D01*
X25797475Y5449500D01*
X25937485Y5487016D01*
X26063015Y5559491D01*
X26165509Y5661985D01*
X26237984Y5787515D01*
X26275500Y5927525D01*
X26275500Y6072475D01*
X26237984Y6212485D01*
X26165509Y6338015D01*
X26165508Y6338016D01*
X26165507Y6338018D01*
X26063017Y6440508D01*
X25937486Y6512984D01*
X25937484Y6512985D01*
X25797475Y6550500D01*
X25652525Y6550500D01*
X25652524Y6550500D01*
X25512515Y6512985D01*
X25512513Y6512984D01*
X25386982Y6440508D01*
X25284492Y6338018D01*
X25212016Y6212487D01*
X25212015Y6212485D01*
X25174500Y6072476D01*
X9249087Y6072476D01*
X9124261Y6415432D01*
X9124255Y6415445D01*
X9124255Y6415447D01*
X8939726Y6811167D01*
X8939724Y6811171D01*
X8939723Y6811174D01*
X8918764Y6847476D01*
X20449500Y6847476D01*
X20449500Y6702525D01*
X20487015Y6562516D01*
X20487016Y6562514D01*
X20559492Y6436983D01*
X20661982Y6334493D01*
X20661984Y6334492D01*
X20661985Y6334491D01*
X20787515Y6262016D01*
X20927525Y6224500D01*
X20927527Y6224500D01*
X21072473Y6224500D01*
X21072475Y6224500D01*
X21212485Y6262016D01*
X21338015Y6334491D01*
X21440509Y6436985D01*
X21512984Y6562515D01*
X21550500Y6702525D01*
X21550500Y6847475D01*
X21512984Y6987485D01*
X21440509Y7113015D01*
X21440508Y7113016D01*
X21440507Y7113018D01*
X21338017Y7215508D01*
X21212486Y7287984D01*
X21212484Y7287985D01*
X21072475Y7325500D01*
X20927525Y7325500D01*
X20927524Y7325500D01*
X20787515Y7287985D01*
X20787513Y7287984D01*
X20661982Y7215508D01*
X20559492Y7113018D01*
X20487016Y6987487D01*
X20487015Y6987485D01*
X20449500Y6847476D01*
X8918764Y6847476D01*
X8721397Y7189326D01*
X8703064Y7215508D01*
X8470944Y7547011D01*
X8470931Y7547028D01*
X8341000Y7701873D01*
X8302734Y7747476D01*
X18449500Y7747476D01*
X18449500Y7602525D01*
X18487015Y7462516D01*
X18487016Y7462514D01*
X18559492Y7336983D01*
X18661982Y7234493D01*
X18661984Y7234492D01*
X18661985Y7234491D01*
X18787515Y7162016D01*
X18927525Y7124500D01*
X18927527Y7124500D01*
X19072473Y7124500D01*
X19072475Y7124500D01*
X19212485Y7162016D01*
X19338015Y7234491D01*
X19440509Y7336985D01*
X19512984Y7462515D01*
X19550500Y7602525D01*
X19550500Y7747475D01*
X19512984Y7887485D01*
X19440509Y8013015D01*
X19440508Y8013016D01*
X19440507Y8013018D01*
X19338017Y8115508D01*
X19212486Y8187984D01*
X19212484Y8187985D01*
X19072475Y8225500D01*
X18927525Y8225500D01*
X18927524Y8225500D01*
X18787515Y8187985D01*
X18787513Y8187984D01*
X18661982Y8115508D01*
X18559492Y8013018D01*
X18487016Y7887487D01*
X18487015Y7887485D01*
X18449500Y7747476D01*
X8302734Y7747476D01*
X8190271Y7881504D01*
X8190259Y7881517D01*
X7881516Y8190260D01*
X7881503Y8190272D01*
X7547027Y8470932D01*
X7547010Y8470945D01*
X7189335Y8721391D01*
X7189331Y8721393D01*
X7189326Y8721397D01*
X6906839Y8884491D01*
X6811175Y8939723D01*
X6811166Y8939727D01*
X6415445Y9124256D01*
X6415434Y9124260D01*
X6415432Y9124261D01*
X6005112Y9273605D01*
X6005113Y9273605D01*
X6005107Y9273607D01*
X6005100Y9273609D01*
X5808283Y9326345D01*
X5583342Y9386618D01*
X5583338Y9386619D01*
X5583337Y9386619D01*
X5521764Y9397476D01*
X18449500Y9397476D01*
X18449500Y9252525D01*
X18487015Y9112516D01*
X18487016Y9112514D01*
X18559492Y8986983D01*
X18661982Y8884493D01*
X18661984Y8884492D01*
X18661985Y8884491D01*
X18787515Y8812016D01*
X18927525Y8774500D01*
X18927527Y8774500D01*
X19072473Y8774500D01*
X19072475Y8774500D01*
X19212485Y8812016D01*
X19338015Y8884491D01*
X19440509Y8986985D01*
X19512984Y9112515D01*
X19550500Y9252525D01*
X19550500Y9397475D01*
X19512984Y9537485D01*
X19440509Y9663015D01*
X19440508Y9663016D01*
X19440507Y9663018D01*
X19338017Y9765508D01*
X19212486Y9837984D01*
X19212484Y9837985D01*
X19072475Y9875500D01*
X18927525Y9875500D01*
X18927524Y9875500D01*
X18787515Y9837985D01*
X18787513Y9837984D01*
X18661982Y9765508D01*
X18559492Y9663018D01*
X18487016Y9537487D01*
X18487015Y9537485D01*
X18449500Y9397476D01*
X5521764Y9397476D01*
X5153318Y9462443D01*
X5153317Y9462444D01*
X5153312Y9462444D01*
X5072114Y9469548D01*
X5023138Y9492386D01*
X5000301Y9541362D01*
X5000000Y9548247D01*
X5000000Y10247476D01*
X21749500Y10247476D01*
X21749500Y10102525D01*
X21787015Y9962516D01*
X21787016Y9962514D01*
X21859492Y9836983D01*
X21961982Y9734493D01*
X22085784Y9663015D01*
X22087515Y9662016D01*
X22227525Y9624500D01*
X22227527Y9624500D01*
X22372473Y9624500D01*
X22372475Y9624500D01*
X22512485Y9662016D01*
X22638015Y9734491D01*
X22740509Y9836985D01*
X22812984Y9962515D01*
X22850500Y10102525D01*
X22850500Y10247475D01*
X22850500Y10247476D01*
X23449500Y10247476D01*
X23449500Y10102525D01*
X23487015Y9962516D01*
X23487016Y9962514D01*
X23559492Y9836983D01*
X23661982Y9734493D01*
X23785784Y9663015D01*
X23787515Y9662016D01*
X23927525Y9624500D01*
X23927527Y9624500D01*
X24072473Y9624500D01*
X24072475Y9624500D01*
X24212485Y9662016D01*
X24338015Y9734491D01*
X24440509Y9836985D01*
X24512984Y9962515D01*
X24550500Y10102525D01*
X24550500Y10247475D01*
X24512984Y10387485D01*
X24440509Y10513015D01*
X24440508Y10513016D01*
X24440507Y10513018D01*
X24338017Y10615508D01*
X24279597Y10649237D01*
X24212486Y10687984D01*
X24212484Y10687985D01*
X24121082Y10712476D01*
X24999500Y10712476D01*
X24999500Y10567525D01*
X25037015Y10427516D01*
X25037016Y10427514D01*
X25109492Y10301983D01*
X25211982Y10199493D01*
X25211984Y10199492D01*
X25211985Y10199491D01*
X25337515Y10127016D01*
X25477525Y10089500D01*
X25477527Y10089500D01*
X25622473Y10089500D01*
X25622475Y10089500D01*
X25762485Y10127016D01*
X25888015Y10199491D01*
X25990509Y10301985D01*
X26062984Y10427515D01*
X26100500Y10567525D01*
X26100500Y10712475D01*
X26092461Y10742475D01*
X26092461Y10742476D01*
X29099500Y10742476D01*
X29099500Y10597525D01*
X29137015Y10457516D01*
X29137016Y10457514D01*
X29209492Y10331983D01*
X29311982Y10229493D01*
X29311984Y10229492D01*
X29311985Y10229491D01*
X29437515Y10157016D01*
X29577525Y10119500D01*
X29577527Y10119500D01*
X29722473Y10119500D01*
X29722475Y10119500D01*
X29862485Y10157016D01*
X29988015Y10229491D01*
X30090509Y10331985D01*
X30162984Y10457515D01*
X30200500Y10597525D01*
X30200500Y10742475D01*
X30162984Y10882485D01*
X30090509Y11008015D01*
X30090508Y11008016D01*
X30090507Y11008018D01*
X29988017Y11110508D01*
X29862486Y11182984D01*
X29862484Y11182985D01*
X29722475Y11220500D01*
X29577525Y11220500D01*
X29577524Y11220500D01*
X29437515Y11182985D01*
X29437513Y11182984D01*
X29311982Y11110508D01*
X29209492Y11008018D01*
X29137016Y10882487D01*
X29137015Y10882485D01*
X29099500Y10742476D01*
X26092461Y10742476D01*
X26062984Y10852485D01*
X26062983Y10852487D01*
X25990507Y10978018D01*
X25888017Y11080508D01*
X25762486Y11152984D01*
X25762484Y11152985D01*
X25622475Y11190500D01*
X25477525Y11190500D01*
X25477524Y11190500D01*
X25337515Y11152985D01*
X25337513Y11152984D01*
X25211982Y11080508D01*
X25109492Y10978018D01*
X25037016Y10852487D01*
X25037015Y10852485D01*
X24999500Y10712476D01*
X24121082Y10712476D01*
X24072475Y10725500D01*
X23927525Y10725500D01*
X23927524Y10725500D01*
X23787515Y10687985D01*
X23787513Y10687984D01*
X23661982Y10615508D01*
X23559492Y10513018D01*
X23487016Y10387487D01*
X23487015Y10387485D01*
X23449500Y10247476D01*
X22850500Y10247476D01*
X22812984Y10387485D01*
X22740509Y10513015D01*
X22740508Y10513016D01*
X22740507Y10513018D01*
X22638017Y10615508D01*
X22512486Y10687984D01*
X22512484Y10687985D01*
X22372475Y10725500D01*
X22227525Y10725500D01*
X22227524Y10725500D01*
X22087515Y10687985D01*
X22087513Y10687984D01*
X21961982Y10615508D01*
X21859492Y10513018D01*
X21787016Y10387487D01*
X21787015Y10387485D01*
X21749500Y10247476D01*
X5000000Y10247476D01*
X5000000Y11897476D01*
X21749500Y11897476D01*
X21749500Y11752525D01*
X21787015Y11612516D01*
X21787016Y11612514D01*
X21859492Y11486983D01*
X21961982Y11384493D01*
X21961984Y11384492D01*
X21961985Y11384491D01*
X22087515Y11312016D01*
X22227525Y11274500D01*
X22227527Y11274500D01*
X22372473Y11274500D01*
X22372475Y11274500D01*
X22512485Y11312016D01*
X22638015Y11384491D01*
X22740509Y11486985D01*
X22812984Y11612515D01*
X22850500Y11752525D01*
X22850500Y11897475D01*
X22812984Y12037485D01*
X22740509Y12163015D01*
X22740508Y12163016D01*
X22740507Y12163018D01*
X22638017Y12265508D01*
X22512486Y12337984D01*
X22512484Y12337985D01*
X22372475Y12375500D01*
X22227525Y12375500D01*
X22227524Y12375500D01*
X22087515Y12337985D01*
X22087513Y12337984D01*
X21961982Y12265508D01*
X21859492Y12163018D01*
X21787016Y12037487D01*
X21787015Y12037485D01*
X21749500Y11897476D01*
X5000000Y11897476D01*
X5000000Y13672476D01*
X22024500Y13672476D01*
X22024500Y13527525D01*
X22062015Y13387516D01*
X22062016Y13387514D01*
X22134492Y13261983D01*
X22236982Y13159493D01*
X22236984Y13159492D01*
X22236985Y13159491D01*
X22362515Y13087016D01*
X22502525Y13049500D01*
X22502527Y13049500D01*
X22647473Y13049500D01*
X22647475Y13049500D01*
X22787485Y13087016D01*
X22913015Y13159491D01*
X23015509Y13261985D01*
X23087984Y13387515D01*
X23125500Y13527525D01*
X23125500Y13672475D01*
X23125500Y13672476D01*
X27224500Y13672476D01*
X27224500Y13527525D01*
X27262015Y13387516D01*
X27262016Y13387514D01*
X27334492Y13261983D01*
X27436982Y13159493D01*
X27436984Y13159492D01*
X27436985Y13159491D01*
X27562515Y13087016D01*
X27702525Y13049500D01*
X27702527Y13049500D01*
X27847473Y13049500D01*
X27847475Y13049500D01*
X27987485Y13087016D01*
X28113015Y13159491D01*
X28215509Y13261985D01*
X28287984Y13387515D01*
X28325500Y13527525D01*
X28325500Y13672475D01*
X28287984Y13812485D01*
X28215509Y13938015D01*
X28215508Y13938016D01*
X28215507Y13938018D01*
X28113017Y14040508D01*
X27987486Y14112984D01*
X27987484Y14112985D01*
X27847475Y14150500D01*
X27702525Y14150500D01*
X27702524Y14150500D01*
X27562515Y14112985D01*
X27562513Y14112984D01*
X27436982Y14040508D01*
X27334492Y13938018D01*
X27262016Y13812487D01*
X27262015Y13812485D01*
X27224500Y13672476D01*
X23125500Y13672476D01*
X23087984Y13812485D01*
X23015509Y13938015D01*
X23015508Y13938016D01*
X23015507Y13938018D01*
X22913017Y14040508D01*
X22787486Y14112984D01*
X22787484Y14112985D01*
X22647475Y14150500D01*
X22502525Y14150500D01*
X22502524Y14150500D01*
X22362515Y14112985D01*
X22362513Y14112984D01*
X22236982Y14040508D01*
X22134492Y13938018D01*
X22062016Y13812487D01*
X22062015Y13812485D01*
X22024500Y13672476D01*
X5000000Y13672476D01*
X5000000Y16247476D01*
X18449500Y16247476D01*
X18449500Y16102525D01*
X18487015Y15962516D01*
X18487016Y15962514D01*
X18559492Y15836983D01*
X18661982Y15734493D01*
X18661984Y15734492D01*
X18661985Y15734491D01*
X18787515Y15662016D01*
X18927525Y15624500D01*
X18927527Y15624500D01*
X19072473Y15624500D01*
X19072475Y15624500D01*
X19212485Y15662016D01*
X19338015Y15734491D01*
X19440509Y15836985D01*
X19512984Y15962515D01*
X19550500Y16102525D01*
X19550500Y16247475D01*
X19550500Y16247476D01*
X20449500Y16247476D01*
X20449500Y16102525D01*
X20487015Y15962516D01*
X20487016Y15962514D01*
X20559492Y15836983D01*
X20661982Y15734493D01*
X20661984Y15734492D01*
X20661985Y15734491D01*
X20787515Y15662016D01*
X20927525Y15624500D01*
X20927527Y15624500D01*
X21072473Y15624500D01*
X21072475Y15624500D01*
X21212485Y15662016D01*
X21338015Y15734491D01*
X21406000Y15802476D01*
X29099500Y15802476D01*
X29099500Y15657525D01*
X29137015Y15517516D01*
X29137016Y15517514D01*
X29209492Y15391983D01*
X29311982Y15289493D01*
X29311984Y15289492D01*
X29311985Y15289491D01*
X29437515Y15217016D01*
X29577525Y15179500D01*
X29577527Y15179500D01*
X29722473Y15179500D01*
X29722475Y15179500D01*
X29862485Y15217016D01*
X29988015Y15289491D01*
X30090509Y15391985D01*
X30162984Y15517515D01*
X30200500Y15657525D01*
X30200500Y15802475D01*
X30162984Y15942485D01*
X30090509Y16068015D01*
X30090508Y16068016D01*
X30090507Y16068018D01*
X29988017Y16170508D01*
X29862486Y16242984D01*
X29862484Y16242985D01*
X29722475Y16280500D01*
X29577525Y16280500D01*
X29577524Y16280500D01*
X29437515Y16242985D01*
X29437513Y16242984D01*
X29311982Y16170508D01*
X29209492Y16068018D01*
X29137016Y15942487D01*
X29137015Y15942485D01*
X29099500Y15802476D01*
X21406000Y15802476D01*
X21440509Y15836985D01*
X21512984Y15962515D01*
X21550500Y16102525D01*
X21550500Y16247475D01*
X21512984Y16387485D01*
X21440509Y16513015D01*
X21440508Y16513016D01*
X21440507Y16513018D01*
X21338017Y16615508D01*
X21212486Y16687984D01*
X21212484Y16687985D01*
X21072475Y16725500D01*
X20927525Y16725500D01*
X20927524Y16725500D01*
X20787515Y16687985D01*
X20787513Y16687984D01*
X20661982Y16615508D01*
X20559492Y16513018D01*
X20487016Y16387487D01*
X20487015Y16387485D01*
X20449500Y16247476D01*
X19550500Y16247476D01*
X19512984Y16387485D01*
X19440509Y16513015D01*
X19440508Y16513016D01*
X19440507Y16513018D01*
X19338017Y16615508D01*
X19212486Y16687984D01*
X19212484Y16687985D01*
X19072475Y16725500D01*
X18927525Y16725500D01*
X18927524Y16725500D01*
X18787515Y16687985D01*
X18787513Y16687984D01*
X18661982Y16615508D01*
X18559492Y16513018D01*
X18487016Y16387487D01*
X18487015Y16387485D01*
X18449500Y16247476D01*
X5000000Y16247476D01*
X5000000Y17897476D01*
X18449500Y17897476D01*
X18449500Y17752525D01*
X18487015Y17612516D01*
X18487016Y17612514D01*
X18559492Y17486983D01*
X18661982Y17384493D01*
X18661984Y17384492D01*
X18661985Y17384491D01*
X18787515Y17312016D01*
X18927525Y17274500D01*
X18927527Y17274500D01*
X19072473Y17274500D01*
X19072475Y17274500D01*
X19212485Y17312016D01*
X19338015Y17384491D01*
X19440509Y17486985D01*
X19512984Y17612515D01*
X19550500Y17752525D01*
X19550500Y17897475D01*
X19512984Y18037485D01*
X19440509Y18163015D01*
X19440508Y18163016D01*
X19440507Y18163018D01*
X19338017Y18265508D01*
X19256667Y18312476D01*
X24999500Y18312476D01*
X24999500Y18167525D01*
X25037015Y18027516D01*
X25037016Y18027514D01*
X25109492Y17901983D01*
X25211982Y17799493D01*
X25211984Y17799492D01*
X25211985Y17799491D01*
X25337515Y17727016D01*
X25477525Y17689500D01*
X25477527Y17689500D01*
X25622473Y17689500D01*
X25622475Y17689500D01*
X25762485Y17727016D01*
X25888015Y17799491D01*
X25990509Y17901985D01*
X26062984Y18027515D01*
X26100500Y18167525D01*
X26100500Y18312475D01*
X26100500Y18312476D01*
X26899500Y18312476D01*
X26899500Y18167525D01*
X26937015Y18027516D01*
X26937016Y18027514D01*
X27009492Y17901983D01*
X27111982Y17799493D01*
X27111984Y17799492D01*
X27111985Y17799491D01*
X27237515Y17727016D01*
X27377525Y17689500D01*
X27377527Y17689500D01*
X27522473Y17689500D01*
X27522475Y17689500D01*
X27662485Y17727016D01*
X27788015Y17799491D01*
X27890509Y17901985D01*
X27962984Y18027515D01*
X28000500Y18167525D01*
X28000500Y18312475D01*
X27992461Y18342475D01*
X27992461Y18342476D01*
X29099500Y18342476D01*
X29099500Y18197525D01*
X29137015Y18057516D01*
X29137016Y18057514D01*
X29209492Y17931983D01*
X29311982Y17829493D01*
X29311984Y17829492D01*
X29311985Y17829491D01*
X29437515Y17757016D01*
X29577525Y17719500D01*
X29577527Y17719500D01*
X29722473Y17719500D01*
X29722475Y17719500D01*
X29862485Y17757016D01*
X29988015Y17829491D01*
X30090509Y17931985D01*
X30162984Y18057515D01*
X30200500Y18197525D01*
X30200500Y18342475D01*
X30162984Y18482485D01*
X30090509Y18608015D01*
X30090508Y18608016D01*
X30090507Y18608018D01*
X29988017Y18710508D01*
X29862486Y18782984D01*
X29862484Y18782985D01*
X29722475Y18820500D01*
X29577525Y18820500D01*
X29577524Y18820500D01*
X29437515Y18782985D01*
X29437513Y18782984D01*
X29311982Y18710508D01*
X29209492Y18608018D01*
X29137016Y18482487D01*
X29137015Y18482485D01*
X29099500Y18342476D01*
X27992461Y18342476D01*
X27962984Y18452485D01*
X27962983Y18452487D01*
X27890507Y18578018D01*
X27788017Y18680508D01*
X27662486Y18752984D01*
X27662484Y18752985D01*
X27522475Y18790500D01*
X27377525Y18790500D01*
X27377524Y18790500D01*
X27237515Y18752985D01*
X27237513Y18752984D01*
X27111982Y18680508D01*
X27009492Y18578018D01*
X26937016Y18452487D01*
X26937015Y18452485D01*
X26899500Y18312476D01*
X26100500Y18312476D01*
X26062984Y18452485D01*
X25990509Y18578015D01*
X25990508Y18578016D01*
X25990507Y18578018D01*
X25888017Y18680508D01*
X25762486Y18752984D01*
X25762484Y18752985D01*
X25622475Y18790500D01*
X25477525Y18790500D01*
X25477524Y18790500D01*
X25337515Y18752985D01*
X25337513Y18752984D01*
X25211982Y18680508D01*
X25109492Y18578018D01*
X25037016Y18452487D01*
X25037015Y18452485D01*
X24999500Y18312476D01*
X19256667Y18312476D01*
X19212486Y18337984D01*
X19212484Y18337985D01*
X19072475Y18375500D01*
X18927525Y18375500D01*
X18927524Y18375500D01*
X18787515Y18337985D01*
X18787513Y18337984D01*
X18661982Y18265508D01*
X18559492Y18163018D01*
X18487016Y18037487D01*
X18487015Y18037485D01*
X18449500Y17897476D01*
X5000000Y17897476D01*
X5000000Y21097476D01*
X22949500Y21097476D01*
X22949500Y20952525D01*
X22987015Y20812516D01*
X22987016Y20812514D01*
X23059492Y20686983D01*
X23161982Y20584493D01*
X23161984Y20584492D01*
X23161985Y20584491D01*
X23287515Y20512016D01*
X23427525Y20474500D01*
X23427527Y20474500D01*
X23572473Y20474500D01*
X23572475Y20474500D01*
X23712485Y20512016D01*
X23838015Y20584491D01*
X23940509Y20686985D01*
X24012984Y20812515D01*
X24050500Y20952525D01*
X24050500Y21097475D01*
X24012984Y21237485D01*
X23978348Y21297476D01*
X29949500Y21297476D01*
X29949500Y21152525D01*
X29987015Y21012516D01*
X29987016Y21012514D01*
X30059492Y20886983D01*
X30161982Y20784493D01*
X30161984Y20784492D01*
X30161985Y20784491D01*
X30287515Y20712016D01*
X30427525Y20674500D01*
X30427527Y20674500D01*
X30572473Y20674500D01*
X30572475Y20674500D01*
X30712485Y20712016D01*
X30838015Y20784491D01*
X30940509Y20886985D01*
X31012984Y21012515D01*
X31050500Y21152525D01*
X31050500Y21297475D01*
X31012984Y21437485D01*
X30940509Y21563015D01*
X30940508Y21563016D01*
X30940507Y21563018D01*
X30838017Y21665508D01*
X30712486Y21737984D01*
X30712484Y21737985D01*
X30572475Y21775500D01*
X30427525Y21775500D01*
X30427524Y21775500D01*
X30287515Y21737985D01*
X30287513Y21737984D01*
X30161982Y21665508D01*
X30059492Y21563018D01*
X29987016Y21437487D01*
X29987015Y21437485D01*
X29949500Y21297476D01*
X23978348Y21297476D01*
X23940509Y21363015D01*
X23940508Y21363016D01*
X23940507Y21363018D01*
X23838017Y21465508D01*
X23712486Y21537984D01*
X23712484Y21537985D01*
X23572475Y21575500D01*
X23427525Y21575500D01*
X23427524Y21575500D01*
X23287515Y21537985D01*
X23287513Y21537984D01*
X23161982Y21465508D01*
X23059492Y21363018D01*
X22987016Y21237487D01*
X22987015Y21237485D01*
X22949500Y21097476D01*
X5000000Y21097476D01*
X5000000Y22072476D01*
X25424500Y22072476D01*
X25424500Y21927525D01*
X25462015Y21787516D01*
X25462016Y21787514D01*
X25534492Y21661983D01*
X25636982Y21559493D01*
X25636984Y21559492D01*
X25636985Y21559491D01*
X25762515Y21487016D01*
X25902525Y21449500D01*
X25902527Y21449500D01*
X26047473Y21449500D01*
X26047475Y21449500D01*
X26187485Y21487016D01*
X26313015Y21559491D01*
X26415509Y21661985D01*
X26487984Y21787515D01*
X26525500Y21927525D01*
X26525500Y22072475D01*
X26525500Y22072476D01*
X27074500Y22072476D01*
X27074500Y21927525D01*
X27112015Y21787516D01*
X27112016Y21787514D01*
X27184492Y21661983D01*
X27286982Y21559493D01*
X27286984Y21559492D01*
X27286985Y21559491D01*
X27412515Y21487016D01*
X27552525Y21449500D01*
X27552527Y21449500D01*
X27697473Y21449500D01*
X27697475Y21449500D01*
X27837485Y21487016D01*
X27963015Y21559491D01*
X28065509Y21661985D01*
X28137984Y21787515D01*
X28175500Y21927525D01*
X28175500Y22072475D01*
X28137984Y22212485D01*
X28065509Y22338015D01*
X28065508Y22338016D01*
X28065507Y22338018D01*
X27963017Y22440508D01*
X27837486Y22512984D01*
X27837484Y22512985D01*
X27697475Y22550500D01*
X27552525Y22550500D01*
X27552524Y22550500D01*
X27412515Y22512985D01*
X27412513Y22512984D01*
X27286982Y22440508D01*
X27184492Y22338018D01*
X27112016Y22212487D01*
X27112015Y22212485D01*
X27074500Y22072476D01*
X26525500Y22072476D01*
X26487984Y22212485D01*
X26415509Y22338015D01*
X26415508Y22338016D01*
X26415507Y22338018D01*
X26313017Y22440508D01*
X26187486Y22512984D01*
X26187484Y22512985D01*
X26047475Y22550500D01*
X25902525Y22550500D01*
X25902524Y22550500D01*
X25762515Y22512985D01*
X25762513Y22512984D01*
X25636982Y22440508D01*
X25534492Y22338018D01*
X25462016Y22212487D01*
X25462015Y22212485D01*
X25424500Y22072476D01*
X5000000Y22072476D01*
X5000000Y22847476D01*
X29949500Y22847476D01*
X29949500Y22702525D01*
X29987015Y22562516D01*
X29987016Y22562514D01*
X30059492Y22436983D01*
X30161982Y22334493D01*
X30161984Y22334492D01*
X30161985Y22334491D01*
X30287515Y22262016D01*
X30427525Y22224500D01*
X30427527Y22224500D01*
X30572473Y22224500D01*
X30572475Y22224500D01*
X30712485Y22262016D01*
X30838015Y22334491D01*
X30940509Y22436985D01*
X31012984Y22562515D01*
X31050500Y22702525D01*
X31050500Y22847475D01*
X31012984Y22987485D01*
X30940509Y23113015D01*
X30940508Y23113016D01*
X30940507Y23113018D01*
X30838017Y23215508D01*
X30712486Y23287984D01*
X30712484Y23287985D01*
X30572475Y23325500D01*
X30427525Y23325500D01*
X30427524Y23325500D01*
X30287515Y23287985D01*
X30287513Y23287984D01*
X30161982Y23215508D01*
X30059492Y23113018D01*
X29987016Y22987487D01*
X29987015Y22987485D01*
X29949500Y22847476D01*
X5000000Y22847476D01*
X5000000Y25072476D01*
X8449500Y25072476D01*
X8449500Y24927525D01*
X8487015Y24787516D01*
X8487016Y24787514D01*
X8559492Y24661983D01*
X8661982Y24559493D01*
X8661984Y24559492D01*
X8661985Y24559491D01*
X8787515Y24487016D01*
X8927525Y24449500D01*
X8927527Y24449500D01*
X9072473Y24449500D01*
X9072475Y24449500D01*
X9212485Y24487016D01*
X9338015Y24559491D01*
X9440509Y24661985D01*
X9512984Y24787515D01*
X9550500Y24927525D01*
X9550500Y25072475D01*
X9512984Y25212485D01*
X9440509Y25338015D01*
X9440508Y25338016D01*
X9440507Y25338018D01*
X9338017Y25440508D01*
X9212486Y25512984D01*
X9212484Y25512985D01*
X9072475Y25550500D01*
X8927525Y25550500D01*
X8927524Y25550500D01*
X8787515Y25512985D01*
X8787513Y25512984D01*
X8661982Y25440508D01*
X8559492Y25338018D01*
X8487016Y25212487D01*
X8487015Y25212485D01*
X8449500Y25072476D01*
X5000000Y25072476D01*
X5000000Y26097476D01*
X18449500Y26097476D01*
X18449500Y25952525D01*
X18487015Y25812516D01*
X18487016Y25812514D01*
X18559492Y25686983D01*
X18661982Y25584493D01*
X18785836Y25512985D01*
X18787515Y25512016D01*
X18927525Y25474500D01*
X18927527Y25474500D01*
X19072473Y25474500D01*
X19072475Y25474500D01*
X19212485Y25512016D01*
X19338015Y25584491D01*
X19440509Y25686985D01*
X19512984Y25812515D01*
X19550500Y25952525D01*
X19550500Y26097475D01*
X19550500Y26097476D01*
X22949500Y26097476D01*
X22949500Y25952525D01*
X22987015Y25812516D01*
X22987016Y25812514D01*
X23059492Y25686983D01*
X23161982Y25584493D01*
X23285836Y25512985D01*
X23287515Y25512016D01*
X23427525Y25474500D01*
X23427527Y25474500D01*
X23572473Y25474500D01*
X23572475Y25474500D01*
X23712485Y25512016D01*
X23838015Y25584491D01*
X23940509Y25686985D01*
X24012984Y25812515D01*
X24050500Y25952525D01*
X24050500Y26097475D01*
X24012984Y26237485D01*
X23940509Y26363015D01*
X23940508Y26363016D01*
X23940507Y26363018D01*
X23838017Y26465508D01*
X23712486Y26537984D01*
X23712484Y26537985D01*
X23572475Y26575500D01*
X23427525Y26575500D01*
X23427524Y26575500D01*
X23287515Y26537985D01*
X23287513Y26537984D01*
X23161982Y26465508D01*
X23059492Y26363018D01*
X22987016Y26237487D01*
X22987015Y26237485D01*
X22949500Y26097476D01*
X19550500Y26097476D01*
X19512984Y26237485D01*
X19440509Y26363015D01*
X19440508Y26363016D01*
X19440507Y26363018D01*
X19338017Y26465508D01*
X19212486Y26537984D01*
X19212484Y26537985D01*
X19072475Y26575500D01*
X18927525Y26575500D01*
X18927524Y26575500D01*
X18787515Y26537985D01*
X18787513Y26537984D01*
X18661982Y26465508D01*
X18559492Y26363018D01*
X18487016Y26237487D01*
X18487015Y26237485D01*
X18449500Y26097476D01*
X5000000Y26097476D01*
X5000000Y31593616D01*
X7849500Y31593616D01*
X7849500Y31406384D01*
X7853259Y31387487D01*
X7886026Y31222749D01*
X7886027Y31222747D01*
X7957675Y31049775D01*
X7957678Y31049769D01*
X8061696Y30894094D01*
X8061702Y30894087D01*
X8194086Y30761703D01*
X8194093Y30761697D01*
X8271930Y30709688D01*
X8349769Y30657678D01*
X8349774Y30657676D01*
X8522746Y30586028D01*
X8522748Y30586027D01*
X8706384Y30549500D01*
X8893616Y30549500D01*
X9077251Y30586027D01*
X9077253Y30586028D01*
X9250231Y30657678D01*
X9405908Y30761698D01*
X9538302Y30894092D01*
X9642322Y31049769D01*
X9713973Y31222749D01*
X9718891Y31247475D01*
X9718891Y31247476D01*
X16449500Y31247476D01*
X16449500Y31102525D01*
X16487015Y30962516D01*
X16487016Y30962514D01*
X16559492Y30836983D01*
X16661982Y30734493D01*
X16661984Y30734492D01*
X16661985Y30734491D01*
X16787515Y30662016D01*
X16927525Y30624500D01*
X16927527Y30624500D01*
X17072473Y30624500D01*
X17072475Y30624500D01*
X17212485Y30662016D01*
X17338015Y30734491D01*
X17440509Y30836985D01*
X17512984Y30962515D01*
X17550500Y31102525D01*
X17550500Y31247475D01*
X17512984Y31387485D01*
X17510311Y31392114D01*
X17473345Y31456142D01*
X17440509Y31513015D01*
X17440508Y31513016D01*
X17440507Y31513018D01*
X17338017Y31615508D01*
X17212486Y31687984D01*
X17212484Y31687985D01*
X17072475Y31725500D01*
X16927525Y31725500D01*
X16927524Y31725500D01*
X16787515Y31687985D01*
X16787513Y31687984D01*
X16661982Y31615508D01*
X16559492Y31513018D01*
X16487016Y31387487D01*
X16487015Y31387485D01*
X16449500Y31247476D01*
X9718891Y31247476D01*
X9722987Y31268065D01*
X9746741Y31387487D01*
X9750500Y31406384D01*
X9750500Y31593616D01*
X9713973Y31777251D01*
X9642322Y31950231D01*
X9590312Y32028070D01*
X9538303Y32105907D01*
X9538297Y32105914D01*
X9405913Y32238298D01*
X9405906Y32238304D01*
X9250231Y32342322D01*
X9250225Y32342325D01*
X9077253Y32413973D01*
X9077251Y32413974D01*
X8893616Y32450500D01*
X8706384Y32450500D01*
X8522748Y32413974D01*
X8522746Y32413973D01*
X8349774Y32342325D01*
X8349768Y32342322D01*
X8194093Y32238304D01*
X8194086Y32238298D01*
X8061702Y32105914D01*
X8061696Y32105907D01*
X7957678Y31950232D01*
X7957675Y31950226D01*
X7886027Y31777254D01*
X7886026Y31777252D01*
X7851829Y31605326D01*
X7849500Y31593616D01*
X5000000Y31593616D01*
X5000000Y36672476D01*
X16749500Y36672476D01*
X16749500Y36527525D01*
X16787015Y36387516D01*
X16787016Y36387514D01*
X16859492Y36261983D01*
X16961982Y36159493D01*
X16961984Y36159492D01*
X16961985Y36159491D01*
X17087515Y36087016D01*
X17227525Y36049500D01*
X17227527Y36049500D01*
X17372473Y36049500D01*
X17372475Y36049500D01*
X17512485Y36087016D01*
X17638015Y36159491D01*
X17740509Y36261985D01*
X17812984Y36387515D01*
X17850500Y36527525D01*
X17850500Y36672475D01*
X17812984Y36812485D01*
X17740509Y36938015D01*
X17740508Y36938016D01*
X17740507Y36938018D01*
X17638017Y37040508D01*
X17512486Y37112984D01*
X17512484Y37112985D01*
X17372475Y37150500D01*
X17227525Y37150500D01*
X17227524Y37150500D01*
X17087515Y37112985D01*
X17087513Y37112984D01*
X16961982Y37040508D01*
X16859492Y36938018D01*
X16787016Y36812487D01*
X16787015Y36812485D01*
X16749500Y36672476D01*
X5000000Y36672476D01*
X5000000Y39631124D01*
X11799500Y39631124D01*
X11799500Y39368877D01*
X11833728Y39108889D01*
X11901598Y38855593D01*
X11901605Y38855573D01*
X12001954Y38613308D01*
X12130881Y38389998D01*
X12133076Y38386197D01*
X12285848Y38187102D01*
X12292720Y38178147D01*
X12292726Y38178140D01*
X12478139Y37992727D01*
X12478146Y37992721D01*
X12478149Y37992718D01*
X12686197Y37833076D01*
X12913303Y37701957D01*
X12913304Y37701957D01*
X12913307Y37701955D01*
X13020593Y37657516D01*
X13155581Y37601602D01*
X13408884Y37533730D01*
X13408886Y37533730D01*
X13408889Y37533729D01*
X13408887Y37533729D01*
X13668877Y37499500D01*
X13668880Y37499500D01*
X13931123Y37499500D01*
X14191111Y37533729D01*
X14191113Y37533730D01*
X14191116Y37533730D01*
X14444419Y37601602D01*
X14686697Y37701957D01*
X14913803Y37833076D01*
X15121851Y37992718D01*
X15307282Y38178149D01*
X15466924Y38386197D01*
X15598043Y38613303D01*
X15698398Y38855581D01*
X15766270Y39108884D01*
X15766271Y39108889D01*
X15800500Y39368877D01*
X15800500Y39631124D01*
X15766271Y39891112D01*
X15747948Y39959493D01*
X15698398Y40144419D01*
X15634934Y40297635D01*
X15598045Y40386693D01*
X15568335Y40438153D01*
X15548519Y40472476D01*
X16749500Y40472476D01*
X16749500Y40327525D01*
X16787015Y40187516D01*
X16787016Y40187514D01*
X16859492Y40061983D01*
X16961982Y39959493D01*
X17080420Y39891112D01*
X17087515Y39887016D01*
X17227525Y39849500D01*
X17227527Y39849500D01*
X17372473Y39849500D01*
X17372475Y39849500D01*
X17512485Y39887016D01*
X17638015Y39959491D01*
X17740509Y40061985D01*
X17812984Y40187515D01*
X17850500Y40327525D01*
X17850500Y40472475D01*
X17812984Y40612485D01*
X17808292Y40620611D01*
X17740507Y40738018D01*
X17638017Y40840508D01*
X17512486Y40912984D01*
X17512484Y40912985D01*
X17372475Y40950500D01*
X17227525Y40950500D01*
X17227524Y40950500D01*
X17087515Y40912985D01*
X17087513Y40912984D01*
X16961982Y40840508D01*
X16859492Y40738018D01*
X16787016Y40612487D01*
X16787015Y40612485D01*
X16749500Y40472476D01*
X15548519Y40472476D01*
X15497332Y40561135D01*
X15466924Y40613803D01*
X15307282Y40821851D01*
X15307279Y40821854D01*
X15307273Y40821861D01*
X15121860Y41007274D01*
X15121853Y41007280D01*
X15121851Y41007282D01*
X14913803Y41166924D01*
X14900679Y41174501D01*
X14686692Y41298046D01*
X14444427Y41398395D01*
X14444422Y41398397D01*
X14444419Y41398398D01*
X14444416Y41398399D01*
X14444407Y41398402D01*
X14191110Y41466272D01*
X14191112Y41466272D01*
X13931123Y41500500D01*
X13931120Y41500500D01*
X13668880Y41500500D01*
X13668877Y41500500D01*
X13408888Y41466272D01*
X13155592Y41398402D01*
X13155572Y41398395D01*
X12913307Y41298046D01*
X12686199Y41166926D01*
X12686195Y41166923D01*
X12478146Y41007280D01*
X12478139Y41007274D01*
X12292726Y40821861D01*
X12292720Y40821854D01*
X12133077Y40613805D01*
X12133074Y40613801D01*
X12001954Y40386693D01*
X11901605Y40144428D01*
X11901598Y40144408D01*
X11833728Y39891112D01*
X11799500Y39631124D01*
X5000000Y39631124D01*
X5000000Y42593616D01*
X7849500Y42593616D01*
X7849500Y42406385D01*
X7886026Y42222749D01*
X7886027Y42222747D01*
X7957675Y42049775D01*
X7957678Y42049769D01*
X8061696Y41894094D01*
X8061702Y41894087D01*
X8194086Y41761703D01*
X8194093Y41761697D01*
X8212042Y41749704D01*
X8349769Y41657678D01*
X8386453Y41642483D01*
X8522746Y41586028D01*
X8522748Y41586027D01*
X8706384Y41549500D01*
X8893616Y41549500D01*
X9077251Y41586027D01*
X9077253Y41586028D01*
X9250231Y41657678D01*
X9405908Y41761698D01*
X9441686Y41797476D01*
X16749500Y41797476D01*
X16749500Y41652525D01*
X16787015Y41512516D01*
X16787016Y41512514D01*
X16859492Y41386983D01*
X16961982Y41284493D01*
X16961984Y41284492D01*
X16961985Y41284491D01*
X17087515Y41212016D01*
X17227525Y41174500D01*
X17227527Y41174500D01*
X17372473Y41174500D01*
X17372475Y41174500D01*
X17512485Y41212016D01*
X17638015Y41284491D01*
X17740509Y41386985D01*
X17812984Y41512515D01*
X17850500Y41652525D01*
X17850500Y41797475D01*
X17812984Y41937485D01*
X17808027Y41946070D01*
X17750067Y42046460D01*
X17740509Y42063015D01*
X17740508Y42063016D01*
X17740507Y42063018D01*
X17638017Y42165508D01*
X17512486Y42237984D01*
X17512484Y42237985D01*
X17372475Y42275500D01*
X17227525Y42275500D01*
X17227524Y42275500D01*
X17087515Y42237985D01*
X17087513Y42237984D01*
X16961982Y42165508D01*
X16859492Y42063018D01*
X16787016Y41937487D01*
X16787015Y41937485D01*
X16749500Y41797476D01*
X9441686Y41797476D01*
X9453671Y41809461D01*
X9502725Y41858514D01*
X9538297Y41894087D01*
X9538302Y41894092D01*
X9642322Y42049769D01*
X9713973Y42222749D01*
X9750500Y42406384D01*
X9750500Y42593616D01*
X9743755Y42627525D01*
X9713973Y42777252D01*
X9713972Y42777254D01*
X9642324Y42950226D01*
X9642321Y42950232D01*
X9538303Y43105907D01*
X9538297Y43105914D01*
X9405913Y43238298D01*
X9405906Y43238304D01*
X9250231Y43342322D01*
X9250225Y43342325D01*
X9077253Y43413973D01*
X9077251Y43413974D01*
X8893616Y43450500D01*
X8706384Y43450500D01*
X8522748Y43413974D01*
X8522746Y43413973D01*
X8349774Y43342325D01*
X8349768Y43342322D01*
X8194093Y43238304D01*
X8194086Y43238298D01*
X8061702Y43105914D01*
X8061696Y43105907D01*
X7957678Y42950232D01*
X7957675Y42950226D01*
X7886027Y42777254D01*
X7886026Y42777252D01*
X7849500Y42593616D01*
X5000000Y42593616D01*
X5000000Y44682476D01*
X19759500Y44682476D01*
X19759500Y44537525D01*
X19797015Y44397516D01*
X19797016Y44397514D01*
X19869492Y44271983D01*
X19971982Y44169493D01*
X19971984Y44169492D01*
X19971985Y44169491D01*
X20097515Y44097016D01*
X20237525Y44059500D01*
X20237527Y44059500D01*
X20382473Y44059500D01*
X20382475Y44059500D01*
X20522485Y44097016D01*
X20648015Y44169491D01*
X20750509Y44271985D01*
X20822984Y44397515D01*
X20860500Y44537525D01*
X20860500Y44682475D01*
X20822984Y44822485D01*
X20750509Y44948015D01*
X20750508Y44948016D01*
X20750507Y44948018D01*
X20648017Y45050508D01*
X20522486Y45122984D01*
X20522484Y45122985D01*
X20382475Y45160500D01*
X20237525Y45160500D01*
X20237524Y45160500D01*
X20097515Y45122985D01*
X20097513Y45122984D01*
X19971982Y45050508D01*
X19869492Y44948018D01*
X19797016Y44822487D01*
X19797015Y44822485D01*
X19759500Y44682476D01*
X5000000Y44682476D01*
X5000000Y48451754D01*
X5018482Y48502534D01*
X5065282Y48529554D01*
X5072106Y48530452D01*
X5153318Y48537557D01*
X5583337Y48613381D01*
X6005112Y48726395D01*
X6415432Y48875739D01*
X6415445Y48875745D01*
X6415446Y48875745D01*
X6581532Y48953193D01*
X6811174Y49060277D01*
X7189326Y49278603D01*
X7547012Y49529057D01*
X7547019Y49529063D01*
X7547027Y49529069D01*
X7755077Y49703646D01*
X7881507Y49809732D01*
X8144251Y50072476D01*
X18274500Y50072476D01*
X18274500Y49927525D01*
X18312015Y49787516D01*
X18312016Y49787514D01*
X18384492Y49661983D01*
X18486982Y49559493D01*
X18486984Y49559492D01*
X18486985Y49559491D01*
X18612515Y49487016D01*
X18752525Y49449500D01*
X18752527Y49449500D01*
X18897473Y49449500D01*
X18897475Y49449500D01*
X19037485Y49487016D01*
X19163015Y49559491D01*
X19265509Y49661985D01*
X19337984Y49787515D01*
X19375500Y49927525D01*
X19375500Y50072475D01*
X19337984Y50212485D01*
X19265509Y50338015D01*
X19265508Y50338016D01*
X19265507Y50338018D01*
X19163017Y50440508D01*
X19037486Y50512984D01*
X19037484Y50512985D01*
X18897475Y50550500D01*
X18752525Y50550500D01*
X18752524Y50550500D01*
X18612515Y50512985D01*
X18612513Y50512984D01*
X18486982Y50440508D01*
X18384492Y50338018D01*
X18312016Y50212487D01*
X18312015Y50212485D01*
X18274500Y50072476D01*
X8144251Y50072476D01*
X8190268Y50118493D01*
X8388003Y50354145D01*
X8470931Y50452973D01*
X8470937Y50452981D01*
X8470943Y50452988D01*
X8721397Y50810674D01*
X8939723Y51188826D01*
X9100731Y51534108D01*
X9124255Y51584554D01*
X9124255Y51584556D01*
X9124261Y51584568D01*
X9273605Y51994888D01*
X9386619Y52416663D01*
X9462443Y52846682D01*
X9500499Y53281665D01*
X9500500Y53281665D01*
X9500500Y53321000D01*
X9518982Y53371780D01*
X9565782Y53398800D01*
X9579500Y53400000D01*
X27421000Y53400000D01*
X27471780Y53381518D01*
G37*
%TD.AperFunction*%
%TD*%
M02*
