%TF.GenerationSoftware,KiCad,Pcbnew,10.0.6*%
%TF.CreationDate,2026-10-10T12:18:01-04:00*%
%TF.ProjectId,PS-GAN-60W,50532d47-414e-42d3-9630-572e6b696361,A1 REVIEW - NOT FOR FABRICATION*%
%TF.SameCoordinates,Original*%
%TF.FileFunction,Profile,NP*%
%FSLAX46Y46*%
G04 Gerber Fmt 4.6, Leading zero omitted, Abs format (unit mm)*
G04 Created by KiCad (PCBNEW 10.0.6) date 2026-10-10 12:18:01*
%MOMM*%
%LPD*%
G01*
G04 APERTURE LIST*
%TA.AperFunction,Profile*%
%ADD10C,0.050000*%
%TD*%
G04 APERTURE END LIST*
D10*
X0Y56500000D02*
X1500000Y58000000D01*
X0Y1500000D02*
X0Y56500000D01*
X1500000Y58000000D02*
X78500000Y58000000D01*
X1500000Y0D02*
X0Y1500000D01*
X29450000Y51100000D02*
G75*
G02*
X29950000Y51600000I500000J0D01*
G01*
X29450000Y46700000D02*
X29450000Y51100000D01*
X29450000Y41050000D02*
G75*
G02*
X29950000Y41550000I500000J0D01*
G01*
X29450000Y35950000D02*
X29450000Y41050000D01*
X29450000Y30300000D02*
G75*
G02*
X29950000Y30800000I500000J0D01*
G01*
X29450000Y25900000D02*
X29450000Y30300000D01*
X29950000Y51600000D02*
X46050000Y51600000D01*
X29950000Y46200000D02*
G75*
G02*
X29450000Y46700000I0J500000D01*
G01*
X29950000Y41550000D02*
X46050000Y41550000D01*
X29950000Y35450000D02*
G75*
G02*
X29450000Y35950000I0J500000D01*
G01*
X29950000Y30800000D02*
X46050000Y30800000D01*
X29950000Y25400000D02*
G75*
G02*
X29450000Y25900000I0J500000D01*
G01*
X46050000Y51600000D02*
G75*
G02*
X46550000Y51100000I0J-500000D01*
G01*
X46050000Y46200000D02*
X29950000Y46200000D01*
X46050000Y41550000D02*
G75*
G02*
X46550000Y41050000I0J-500000D01*
G01*
X46050000Y35450000D02*
X29950000Y35450000D01*
X46050000Y30800000D02*
G75*
G02*
X46550000Y30300000I0J-500000D01*
G01*
X46050000Y25400000D02*
X29950000Y25400000D01*
X46550000Y51100000D02*
X46550000Y46700000D01*
X46550000Y46700000D02*
G75*
G02*
X46050000Y46200000I-500000J0D01*
G01*
X46550000Y41050000D02*
X46550000Y35950000D01*
X46550000Y35950000D02*
G75*
G02*
X46050000Y35450000I-500000J0D01*
G01*
X46550000Y30300000D02*
X46550000Y25900000D01*
X46550000Y25900000D02*
G75*
G02*
X46050000Y25400000I-500000J0D01*
G01*
X78500000Y58000000D02*
X80000000Y56500000D01*
X78500000Y0D02*
X1500000Y0D01*
X80000000Y56500000D02*
X80000000Y1500000D01*
X80000000Y1500000D02*
X78500000Y0D01*
M02*
