%TF.GenerationSoftware,KiCad,Pcbnew,10.0.6*%
%TF.CreationDate,2026-10-10T14:59:28-04:00*%
%TF.ProjectId,PS-GAN-60W,50532d47-414e-42d3-9630-572e6b696361,A4 REVIEW - NOT FOR FABRICATION*%
%TF.SameCoordinates,Original*%
%TF.FileFunction,Copper,L2,Inr*%
%TF.FilePolarity,Positive*%
%FSLAX46Y46*%
G04 Gerber Fmt 4.6, Leading zero omitted, Abs format (unit mm)*
G04 Created by KiCad (PCBNEW 10.0.6) date 2026-10-10 14:59:28*
%MOMM*%
%LPD*%
G01*
G04 APERTURE LIST*
%TA.AperFunction,EtchedComponent*%
%ADD10C,0.000000*%
%TD*%
%TA.AperFunction,ComponentPad*%
%ADD11R,3.000000X3.000000*%
%TD*%
%TA.AperFunction,ComponentPad*%
%ADD12C,3.000000*%
%TD*%
%TA.AperFunction,ComponentPad*%
%ADD13C,0.600000*%
%TD*%
%TA.AperFunction,ViaPad*%
%ADD14C,0.600000*%
%TD*%
%TA.AperFunction,Conductor*%
%ADD15C,0.200000*%
%TD*%
%TA.AperFunction,Conductor*%
%ADD16C,0.800000*%
%TD*%
%TA.AperFunction,Conductor*%
%ADD17C,1.000000*%
%TD*%
G04 APERTURE END LIST*
D10*
%TA.AperFunction,EtchedComponent*%
%TO.C,T1*%
G36*
X41220495Y43499294D02*
G01*
X41220531Y43499295D01*
X41220542Y43499293D01*
X41220585Y43499292D01*
X41246019Y43495520D01*
X41267099Y43492399D01*
X41267124Y43492391D01*
X41267152Y43492387D01*
X41291273Y43484812D01*
X41312013Y43478303D01*
X41312034Y43478292D01*
X41312064Y43478283D01*
X41334613Y43467072D01*
X41354171Y43457354D01*
X41354192Y43457338D01*
X41354218Y43457326D01*
X41373953Y43443282D01*
X41392531Y43430068D01*
X41392550Y43430049D01*
X41392573Y43430033D01*
X41410014Y43412932D01*
X41426152Y43397116D01*
X41426167Y43397095D01*
X41426188Y43397075D01*
X41440790Y43377389D01*
X41454204Y43359312D01*
X41454216Y43359288D01*
X41454233Y43359266D01*
X41464979Y43338679D01*
X41475996Y43317584D01*
X41476005Y43317556D01*
X41476017Y43317534D01*
X41484216Y43293122D01*
X41490992Y43272961D01*
X41490995Y43272940D01*
X41491006Y43272909D01*
X41495385Y43246920D01*
X41498823Y43226542D01*
X41498824Y43226507D01*
X41498828Y43226488D01*
X41498828Y43226428D01*
X41499985Y43203014D01*
X41506234Y42581249D01*
X41512479Y42012355D01*
X41518725Y41486797D01*
X41518726Y41486794D01*
X41524976Y40997331D01*
X41524975Y40997317D01*
X41531218Y40538889D01*
X41531219Y40538882D01*
X41537469Y40105595D01*
X41537468Y40105581D01*
X41543711Y39694323D01*
X41543712Y39694319D01*
X41549958Y39300894D01*
X41549959Y39300894D01*
X41556209Y38922376D01*
X41556208Y38922373D01*
X41562453Y38556661D01*
X41562454Y38556649D01*
X41568701Y38200875D01*
X41568702Y38200872D01*
X41574952Y37853020D01*
X41574951Y37853014D01*
X41581198Y37511466D01*
X41581199Y37511459D01*
X41587449Y37174066D01*
X41587448Y37174061D01*
X41593698Y36839355D01*
X41593697Y36839337D01*
X41599946Y36505628D01*
X41599948Y36505607D01*
X41606198Y36171238D01*
X41606197Y36171210D01*
X41606198Y36171200D01*
X41612448Y35834597D01*
X41612447Y35834564D01*
X41612449Y35834534D01*
X41618699Y35494040D01*
X41618698Y35494000D01*
X41618701Y35493950D01*
X41624951Y35147841D01*
X41624949Y35147783D01*
X41624953Y35147726D01*
X41631203Y34794164D01*
X41631201Y34794103D01*
X41631206Y34794026D01*
X41637456Y34431032D01*
X41637454Y34430944D01*
X41637458Y34430873D01*
X41643708Y34056273D01*
X41643705Y34056183D01*
X41643711Y34056092D01*
X41649961Y33667462D01*
X41649958Y33667361D01*
X41649964Y33667262D01*
X41656214Y33261861D01*
X41656211Y33261762D01*
X41656218Y33261644D01*
X41662468Y32836326D01*
X41662465Y32836207D01*
X41662471Y32836095D01*
X41668721Y32387206D01*
X41668717Y32387081D01*
X41668724Y32386962D01*
X41674974Y31910204D01*
X41674970Y31910075D01*
X41674977Y31909950D01*
X41681227Y31400196D01*
X41681223Y31400076D01*
X41681231Y31399933D01*
X41687481Y30850990D01*
X41687476Y30850845D01*
X41687483Y30850722D01*
X41693733Y30255017D01*
X41693729Y30254886D01*
X41693736Y30254746D01*
X41699985Y29602876D01*
X41699288Y29579419D01*
X41699289Y29579381D01*
X41699287Y29579369D01*
X41699286Y29579330D01*
X41695335Y29552741D01*
X41692379Y29532816D01*
X41692372Y29532796D01*
X41692368Y29532765D01*
X41684440Y29507546D01*
X41678270Y29487905D01*
X41678259Y29487884D01*
X41678251Y29487857D01*
X41666890Y29465022D01*
X41657308Y29445753D01*
X41657294Y29445734D01*
X41657282Y29445709D01*
X41643532Y29426399D01*
X41630011Y29407401D01*
X41629991Y29407382D01*
X41629978Y29407362D01*
X41612511Y29389558D01*
X41597049Y29373790D01*
X41597031Y29373778D01*
X41597011Y29373756D01*
X41574336Y29356948D01*
X41559237Y29345750D01*
X41559219Y29345741D01*
X41559194Y29345722D01*
X41536196Y29333726D01*
X41517503Y29323969D01*
X41517478Y29323961D01*
X41517456Y29323949D01*
X41496544Y29316933D01*
X41472876Y29308986D01*
X41472847Y29308982D01*
X41472826Y29308974D01*
X41449638Y29305074D01*
X41426454Y29301169D01*
X41426423Y29301168D01*
X41426403Y29301164D01*
X41426339Y29301164D01*
X41402926Y29300014D01*
X40762657Y29293767D01*
X40176403Y29287520D01*
X39635013Y29281273D01*
X39131104Y29275027D01*
X39131103Y29275026D01*
X38658634Y29268780D01*
X38658632Y29268779D01*
X38212372Y29262529D01*
X38212353Y29262530D01*
X37788774Y29256286D01*
X37383594Y29250039D01*
X36993975Y29243792D01*
X36993960Y29243791D01*
X36617024Y29237541D01*
X36617009Y29237542D01*
X36250815Y29231297D01*
X36250815Y29231296D01*
X35892757Y29225048D01*
X35892741Y29225047D01*
X35540898Y29218797D01*
X35540878Y29218798D01*
X35193667Y29212551D01*
X35193648Y29212549D01*
X34849019Y29206299D01*
X34846376Y29206355D01*
X34843745Y29206250D01*
X23502830Y29200002D01*
X23161252Y29193799D01*
X23161227Y29193800D01*
X23161217Y29193799D01*
X22814741Y29187549D01*
X22814709Y29187550D01*
X22814679Y29187548D01*
X22464216Y29181298D01*
X22464180Y29181299D01*
X22464130Y29181296D01*
X22107904Y29175046D01*
X22107850Y29175048D01*
X22107793Y29175044D01*
X21743916Y29168794D01*
X21743846Y29168796D01*
X21743782Y29168792D01*
X21370217Y29162542D01*
X21370144Y29162544D01*
X21370060Y29162539D01*
X20984568Y29156290D01*
X20984472Y29156293D01*
X20984394Y29156288D01*
X20584483Y29150038D01*
X20584387Y29150041D01*
X20584289Y29150035D01*
X20167137Y29143785D01*
X20167031Y29143788D01*
X20166927Y29143782D01*
X19729300Y29137532D01*
X19729200Y29137535D01*
X19729076Y29137528D01*
X19267215Y29131277D01*
X19267095Y29131281D01*
X19266977Y29131274D01*
X18776459Y29125024D01*
X18776335Y29125028D01*
X18776211Y29125021D01*
X18251763Y29118772D01*
X18251637Y29118776D01*
X18251508Y29118769D01*
X17686759Y29112519D01*
X17686620Y29112523D01*
X17686499Y29112517D01*
X17073659Y29106267D01*
X17073534Y29106271D01*
X17073396Y29106264D01*
X16402796Y29100014D01*
X16379363Y29100717D01*
X16379298Y29100716D01*
X16379277Y29100720D01*
X16379250Y29100720D01*
X16359238Y29103699D01*
X16332734Y29107639D01*
X16332709Y29107647D01*
X16332688Y29107650D01*
X16311410Y29114346D01*
X16287828Y29121761D01*
X16287808Y29121772D01*
X16287783Y29121779D01*
X16267191Y29132031D01*
X16245682Y29142734D01*
X16245661Y29142750D01*
X16245641Y29142759D01*
X16228804Y29154755D01*
X16207337Y29170042D01*
X16207318Y29170062D01*
X16207301Y29170073D01*
X16192637Y29184467D01*
X16173735Y29203013D01*
X16173720Y29203034D01*
X16173704Y29203049D01*
X16161234Y29219881D01*
X16145705Y29240833D01*
X16145693Y29240858D01*
X16145680Y29240874D01*
X16135944Y29259552D01*
X16123937Y29282573D01*
X16123929Y29282597D01*
X16123918Y29282618D01*
X16116300Y29305341D01*
X16108966Y29327204D01*
X16108963Y29327227D01*
X16108954Y29327251D01*
X16104495Y29353802D01*
X16101162Y29373629D01*
X16101161Y29373655D01*
X16101157Y29373677D01*
X16101157Y29373745D01*
X16100013Y29397157D01*
X16093763Y30056427D01*
X16093764Y30056435D01*
X16087516Y30659817D01*
X16087517Y30659820D01*
X16081270Y31216986D01*
X16075024Y31735495D01*
X16068777Y32221688D01*
X16062530Y32680753D01*
X16056281Y33116961D01*
X16056282Y33116962D01*
X16050037Y33533682D01*
X16050036Y33533699D01*
X16043786Y33934779D01*
X16043787Y33934790D01*
X16037542Y34322303D01*
X16037541Y34322308D01*
X16031291Y34699350D01*
X16031292Y34699351D01*
X16025043Y35067716D01*
X16025044Y35067727D01*
X16018797Y35429512D01*
X16018796Y35429516D01*
X16012546Y35786848D01*
X16012547Y35786855D01*
X16006298Y36141283D01*
X16006297Y36141290D01*
X16005259Y36200000D01*
X15000000Y36200000D01*
X14976462Y36200925D01*
X14974701Y36201204D01*
X14972925Y36201225D01*
X14951489Y36204881D01*
X14929966Y36208289D01*
X14928275Y36208839D01*
X14926519Y36209138D01*
X14905891Y36216112D01*
X14885195Y36222836D01*
X14883610Y36223644D01*
X14881923Y36224214D01*
X14862649Y36234324D01*
X14843250Y36244208D01*
X14841810Y36245255D01*
X14840234Y36246081D01*
X14822763Y36259094D01*
X14805166Y36271878D01*
X14803911Y36273134D01*
X14802480Y36274199D01*
X14787265Y36289780D01*
X14771878Y36305166D01*
X14770831Y36306608D01*
X14769589Y36307879D01*
X14757017Y36325622D01*
X14744208Y36343250D01*
X14743400Y36344837D01*
X14742371Y36346288D01*
X14732723Y36365792D01*
X14722836Y36385195D01*
X14722286Y36386889D01*
X14721497Y36388483D01*
X14715023Y36409244D01*
X14708289Y36429966D01*
X14708011Y36431727D01*
X14707481Y36433423D01*
X14704331Y36454963D01*
X14700925Y36476462D01*
X14700925Y36478239D01*
X14700667Y36480003D01*
X14700021Y36503550D01*
X14702401Y36704677D01*
X14702583Y36708224D01*
X14702569Y36711774D01*
X14709708Y36912791D01*
X14709974Y36916335D01*
X14710044Y36919880D01*
X14721936Y37120670D01*
X14722285Y37124194D01*
X14722439Y37127752D01*
X14739080Y37328205D01*
X14739513Y37331728D01*
X14739751Y37335272D01*
X14761130Y37535274D01*
X14761649Y37538801D01*
X14761969Y37542324D01*
X14788074Y37741765D01*
X14788675Y37745273D01*
X14789079Y37748791D01*
X14819896Y37947558D01*
X14820579Y37951048D01*
X14821067Y37954560D01*
X14856579Y38152543D01*
X14857343Y38156008D01*
X14857915Y38159516D01*
X14898102Y38356602D01*
X14898946Y38360041D01*
X14899602Y38363541D01*
X14944441Y38559621D01*
X14945367Y38563043D01*
X14946105Y38566522D01*
X14995571Y38761487D01*
X14996583Y38764903D01*
X14997399Y38768347D01*
X15051463Y38962085D01*
X15052555Y38965475D01*
X15053453Y38968901D01*
X15112088Y39161307D01*
X15113253Y39164650D01*
X15114237Y39168073D01*
X15177408Y39359037D01*
X15185679Y39381094D01*
X15207273Y39422925D01*
X15235145Y39460862D01*
X15268608Y39493972D01*
X15306839Y39521439D01*
X15348897Y39542588D01*
X15393744Y39556898D01*
X15440279Y39564015D01*
X15487354Y39563765D01*
X15533810Y39556154D01*
X15578504Y39541369D01*
X15620335Y39519775D01*
X15658272Y39491903D01*
X15691382Y39458440D01*
X15718849Y39420209D01*
X15739998Y39378151D01*
X15754308Y39333304D01*
X15761425Y39286769D01*
X15761175Y39239694D01*
X15753564Y39193238D01*
X15747050Y39170601D01*
X15684989Y38982990D01*
X15628437Y38797417D01*
X15576273Y38610494D01*
X15528552Y38422406D01*
X15485292Y38233231D01*
X15446527Y38043120D01*
X15412270Y37852132D01*
X15382543Y37660398D01*
X15357355Y37467971D01*
X15336731Y37275032D01*
X15320677Y37081663D01*
X15309205Y36887958D01*
X15306081Y36800000D01*
X16300000Y36800000D01*
X16315420Y36799394D01*
X16318246Y36799444D01*
X16319841Y36799220D01*
X16323538Y36799075D01*
X16344176Y36795806D01*
X16364865Y36792904D01*
X16367410Y36792126D01*
X16370034Y36791711D01*
X16389891Y36785259D01*
X16409886Y36779151D01*
X16412278Y36777985D01*
X16414805Y36777164D01*
X16433403Y36767688D01*
X16452203Y36758524D01*
X16454384Y36756997D01*
X16456750Y36755792D01*
X16473651Y36743513D01*
X16490770Y36731531D01*
X16492682Y36729685D01*
X16494834Y36728122D01*
X16509620Y36713336D01*
X16524641Y36698837D01*
X16526241Y36696715D01*
X16528122Y36694834D01*
X16540417Y36677912D01*
X16552980Y36661248D01*
X16554228Y36658903D01*
X16555792Y36656750D01*
X16565279Y36638131D01*
X16575091Y36619688D01*
X16575958Y36617172D01*
X16577164Y36614805D01*
X16583619Y36594940D01*
X16590427Y36575181D01*
X16590890Y36572563D01*
X16591711Y36570034D01*
X16594980Y36549395D01*
X16598612Y36528823D01*
X16598823Y36525132D01*
X16599075Y36523538D01*
X16599075Y36520703D01*
X16599953Y36505305D01*
X16606203Y36151899D01*
X16606203Y36151887D01*
X16606203Y36151882D01*
X16612453Y35797382D01*
X16612453Y35797365D01*
X16612454Y35797340D01*
X16618704Y35440009D01*
X16618704Y35439974D01*
X16618705Y35439942D01*
X16624955Y35077983D01*
X16624955Y35077944D01*
X16624957Y35077892D01*
X16631207Y34709410D01*
X16631206Y34709353D01*
X16631209Y34709294D01*
X16637459Y34332252D01*
X16637458Y34332180D01*
X16637461Y34332114D01*
X16643711Y33944287D01*
X16643710Y33944213D01*
X16643714Y33944127D01*
X16649964Y33543048D01*
X16649962Y33542950D01*
X16649966Y33542869D01*
X16656216Y33125752D01*
X16656214Y33125655D01*
X16656219Y33125555D01*
X16662469Y32689224D01*
X16662467Y32689118D01*
X16662472Y32689010D01*
X16668722Y32229776D01*
X16668720Y32229662D01*
X16668725Y32229548D01*
X16674975Y31743082D01*
X16674972Y31742962D01*
X16674978Y31742841D01*
X16681228Y31223989D01*
X16681225Y31223866D01*
X16681231Y31223739D01*
X16687481Y30666286D01*
X16687478Y30666161D01*
X16687484Y30666029D01*
X16693734Y30062377D01*
X16693731Y30062252D01*
X16693737Y30062115D01*
X16697144Y29702784D01*
X17067804Y29706238D01*
X17067812Y29706238D01*
X17680104Y29712483D01*
X17680120Y29712483D01*
X18244868Y29718733D01*
X18769063Y29724979D01*
X19259333Y29731226D01*
X19720956Y29737474D01*
X19720976Y29737474D01*
X20158359Y29743720D01*
X20575301Y29749967D01*
X20974825Y29756211D01*
X20974843Y29756212D01*
X21360336Y29762461D01*
X21360346Y29762461D01*
X21733746Y29768708D01*
X22097489Y29774956D01*
X22097491Y29774956D01*
X22453604Y29781204D01*
X22453616Y29781204D01*
X22803981Y29787452D01*
X23150343Y29793701D01*
X23150359Y29793701D01*
X23494553Y29799951D01*
X23497200Y29799896D01*
X23499834Y29800000D01*
X34840761Y29806249D01*
X35182768Y29812451D01*
X35182799Y29812451D01*
X35182811Y29812451D01*
X35530173Y29818701D01*
X35530197Y29818701D01*
X35530241Y29818703D01*
X35882085Y29824953D01*
X35882139Y29824952D01*
X35882178Y29824954D01*
X36240347Y29831204D01*
X36240407Y29831203D01*
X36240466Y29831206D01*
X36606935Y29837456D01*
X36606998Y29837455D01*
X36607077Y29837459D01*
X36984012Y29843709D01*
X36984103Y29843707D01*
X36984177Y29843711D01*
X37373974Y29849961D01*
X37374065Y29849959D01*
X37374159Y29849964D01*
X37779524Y29856214D01*
X37779626Y29856212D01*
X37779728Y29856217D01*
X38203750Y29862467D01*
X38203849Y29862465D01*
X38203970Y29862471D01*
X38650230Y29868721D01*
X38650350Y29868718D01*
X38650465Y29868724D01*
X39123171Y29874974D01*
X39123296Y29874971D01*
X39123418Y29874977D01*
X39627575Y29881227D01*
X39627705Y29881224D01*
X39627833Y29881230D01*
X40169481Y29887480D01*
X40169612Y29887477D01*
X40169746Y29887483D01*
X40756263Y29893733D01*
X40756394Y29893730D01*
X40756533Y29893736D01*
X41097137Y29897060D01*
X41093764Y30248994D01*
X41093764Y30248998D01*
X41087520Y30844139D01*
X41087519Y30844159D01*
X41081269Y31393103D01*
X41081269Y31393123D01*
X41075026Y31902336D01*
X41075026Y31902339D01*
X41068779Y32378848D01*
X41068779Y32378853D01*
X41062532Y32827505D01*
X41062532Y32827510D01*
X41056282Y33252828D01*
X41056282Y33252845D01*
X41050039Y33657812D01*
X41050039Y33657814D01*
X41043789Y34046411D01*
X41037544Y34420687D01*
X41037544Y34420703D01*
X41031294Y34783696D01*
X41031294Y34783711D01*
X41025049Y35137008D01*
X41018799Y35483118D01*
X41018799Y35483128D01*
X41012552Y35823456D01*
X41012552Y35823459D01*
X41006303Y36160008D01*
X41006302Y36160025D01*
X41000052Y36494393D01*
X41000052Y36494414D01*
X40993803Y36828138D01*
X40993802Y36828155D01*
X40987552Y37162910D01*
X40987552Y37162929D01*
X40987551Y37162954D01*
X40981301Y37500347D01*
X40981301Y37500385D01*
X40981300Y37500417D01*
X40975050Y37842145D01*
X40975050Y37842190D01*
X40975048Y37842242D01*
X40968798Y38190094D01*
X40968799Y38190156D01*
X40968796Y38190215D01*
X40962546Y38546113D01*
X40962547Y38546193D01*
X40962544Y38546260D01*
X40956294Y38912302D01*
X40956295Y38912384D01*
X40956291Y38912471D01*
X40950041Y39290988D01*
X40950043Y39291084D01*
X40950038Y39291178D01*
X40943788Y39684793D01*
X40943790Y39684901D01*
X40943785Y39685003D01*
X40937535Y40096714D01*
X40937537Y40096819D01*
X40937531Y40096941D01*
X40931281Y40530228D01*
X40931284Y40530353D01*
X40931278Y40530469D01*
X40925028Y40989416D01*
X40925031Y40989534D01*
X40925024Y40989670D01*
X40918774Y41479134D01*
X40918777Y41479269D01*
X40918771Y41479399D01*
X40912521Y42005241D01*
X40912524Y42005378D01*
X40912518Y42005513D01*
X40906268Y42574897D01*
X40906271Y42575035D01*
X40906265Y42575175D01*
X40903029Y42897053D01*
X40570102Y42893768D01*
X39991806Y42887520D01*
X39458943Y42881273D01*
X39458939Y42881273D01*
X38964148Y42875026D01*
X38964141Y42875026D01*
X38501144Y42868776D01*
X38065730Y42862534D01*
X38065720Y42862534D01*
X37652711Y42856283D01*
X37259493Y42850040D01*
X37259487Y42850040D01*
X36882327Y42843794D01*
X36882325Y42843794D01*
X36518782Y42837547D01*
X36166503Y42831300D01*
X35823376Y42825052D01*
X35823373Y42825052D01*
X35487470Y42818804D01*
X35157018Y42812555D01*
X35157012Y42812555D01*
X34830320Y42806306D01*
X34505776Y42800056D01*
X34502976Y42800111D01*
X34500166Y42800000D01*
X23179062Y42793751D01*
X22856958Y42787556D01*
X22856938Y42787556D01*
X22856913Y42787555D01*
X22529489Y42781305D01*
X22529462Y42781305D01*
X22529417Y42781303D01*
X22197805Y42775053D01*
X22197758Y42775053D01*
X22197706Y42775051D01*
X21860168Y42768801D01*
X21860102Y42768802D01*
X21860043Y42768799D01*
X21514716Y42762549D01*
X21514646Y42762550D01*
X21514567Y42762546D01*
X21159416Y42756296D01*
X21159329Y42756297D01*
X21159242Y42756293D01*
X20792007Y42750043D01*
X20791906Y42750045D01*
X20791811Y42750040D01*
X20409947Y42743790D01*
X20409834Y42743792D01*
X20409731Y42743787D01*
X20010328Y42737537D01*
X20010217Y42737539D01*
X20010094Y42737533D01*
X19589781Y42731283D01*
X19589649Y42731286D01*
X19589531Y42731280D01*
X19144346Y42725030D01*
X19144221Y42725033D01*
X19144084Y42725026D01*
X18669315Y42718776D01*
X18669173Y42718779D01*
X18669042Y42718773D01*
X18159006Y42712523D01*
X18158875Y42712526D01*
X18158725Y42712519D01*
X17606474Y42706269D01*
X17606330Y42706273D01*
X17606188Y42706266D01*
X17303036Y42703124D01*
X17306232Y42388855D01*
X17312478Y41827781D01*
X17312478Y41827777D01*
X17318725Y41310734D01*
X17318725Y41310725D01*
X17324975Y40830359D01*
X17324975Y40830352D01*
X17331221Y40381393D01*
X17331221Y40381388D01*
X17337464Y39958972D01*
X17337464Y39958957D01*
X17343714Y39558256D01*
X17343714Y39558250D01*
X17349960Y39176586D01*
X17349960Y39176576D01*
X17356203Y38810930D01*
X17356203Y38810924D01*
X17362450Y38458278D01*
X17368700Y38116428D01*
X17368700Y38116421D01*
X17374945Y37783771D01*
X17374945Y37783764D01*
X17381195Y37457884D01*
X17381195Y37457880D01*
X17387442Y37137500D01*
X17387442Y37137492D01*
X17393692Y36820634D01*
X17393692Y36820629D01*
X17399941Y36505973D01*
X17399941Y36505968D01*
X17406191Y36191864D01*
X17406191Y36191852D01*
X17406191Y36191847D01*
X17412441Y35876838D01*
X17412441Y35876817D01*
X17412442Y35876792D01*
X17418692Y35559336D01*
X17418692Y35559294D01*
X17418693Y35559262D01*
X17424943Y35237765D01*
X17424942Y35237715D01*
X17424945Y35237663D01*
X17431195Y34910441D01*
X17431194Y34910384D01*
X17431198Y34910312D01*
X17437448Y34575557D01*
X17437447Y34575483D01*
X17437451Y34575403D01*
X17443701Y34231143D01*
X17443700Y34231052D01*
X17443704Y34230965D01*
X17449954Y33875011D01*
X17449952Y33874904D01*
X17449957Y33874809D01*
X17456207Y33504695D01*
X17456205Y33504589D01*
X17456211Y33504473D01*
X17462461Y33117380D01*
X17462459Y33117262D01*
X17462465Y33117138D01*
X17468715Y32709797D01*
X17468712Y32709672D01*
X17468719Y32709541D01*
X17474969Y32278117D01*
X17474966Y32277972D01*
X17474972Y32277846D01*
X17481222Y31817771D01*
X17481219Y31817634D01*
X17481226Y31817489D01*
X17487476Y31323259D01*
X17487473Y31323121D01*
X17487480Y31322970D01*
X17493730Y30787853D01*
X17493726Y30787702D01*
X17493733Y30787558D01*
X17496776Y30503131D01*
X17792531Y30506233D01*
X18336245Y30512478D01*
X18837770Y30518728D01*
X18837774Y30518728D01*
X19303154Y30524974D01*
X19738351Y30531220D01*
X20148052Y30537466D01*
X20536188Y30543712D01*
X20906101Y30549958D01*
X20906106Y30549958D01*
X21260455Y30556200D01*
X21260468Y30556200D01*
X21602393Y30562450D01*
X21933495Y30568697D01*
X21933497Y30568697D01*
X22255960Y30574944D01*
X22255973Y30574944D01*
X22571599Y30581191D01*
X22571600Y30581191D01*
X22882087Y30587439D01*
X23189000Y30593688D01*
X23189005Y30593688D01*
X23493852Y30599937D01*
X23496845Y30599881D01*
X23499834Y30600000D01*
X34801130Y30606249D01*
X35103271Y30612437D01*
X35103293Y30612437D01*
X35103318Y30612438D01*
X35410804Y30618688D01*
X35410836Y30618688D01*
X35410880Y30618690D01*
X35722263Y30624940D01*
X35722315Y30624939D01*
X35722367Y30624942D01*
X36039276Y30631192D01*
X36039350Y30631191D01*
X36039409Y30631194D01*
X36363590Y30637444D01*
X36363669Y30637443D01*
X36363749Y30637447D01*
X36697118Y30643697D01*
X36697202Y30643696D01*
X36697302Y30643701D01*
X37041974Y30649951D01*
X37042087Y30649949D01*
X37042182Y30649954D01*
X37400546Y30656204D01*
X37400659Y30656202D01*
X37400775Y30656208D01*
X37775560Y30662458D01*
X37775684Y30662456D01*
X37775808Y30662462D01*
X38170175Y30668712D01*
X38170308Y30668709D01*
X38170440Y30668716D01*
X38588105Y30674966D01*
X38588245Y30674963D01*
X38588384Y30674970D01*
X39033765Y30681220D01*
X39033909Y30681217D01*
X39034055Y30681224D01*
X39512480Y30687474D01*
X39512626Y30687471D01*
X39512779Y30687478D01*
X40030762Y30693728D01*
X40030908Y30693725D01*
X40031067Y30693732D01*
X40296768Y30696668D01*
X40293771Y30973383D01*
X40293771Y30973391D01*
X40287521Y31500562D01*
X40287521Y31500565D01*
X40281276Y31985861D01*
X40275032Y32436380D01*
X40268787Y32857808D01*
X40268787Y32857810D01*
X40262541Y33254539D01*
X40262541Y33254542D01*
X40256291Y33630623D01*
X40256291Y33630642D01*
X40250048Y33988606D01*
X40243804Y34331831D01*
X40243803Y34331849D01*
X40237553Y34662882D01*
X40237553Y34662894D01*
X40231310Y34983247D01*
X40231310Y34983248D01*
X40225060Y35295550D01*
X40225060Y35295559D01*
X40218815Y35600965D01*
X40218815Y35600967D01*
X40212566Y35901498D01*
X40212566Y35901511D01*
X40206316Y36198623D01*
X40206316Y36198625D01*
X40200067Y36493647D01*
X40200067Y36493666D01*
X40193818Y36788088D01*
X40193817Y36788105D01*
X40187567Y37083368D01*
X40187567Y37083392D01*
X40187566Y37083416D01*
X40181316Y37380933D01*
X40181316Y37380980D01*
X40181315Y37381011D01*
X40175065Y37682279D01*
X40175065Y37682322D01*
X40175062Y37682386D01*
X40168812Y37988980D01*
X40168813Y37989058D01*
X40168810Y37989117D01*
X40162560Y38302726D01*
X40162561Y38302798D01*
X40162556Y38302890D01*
X40156306Y38625367D01*
X40156308Y38625470D01*
X40156303Y38625557D01*
X40150053Y38958947D01*
X40150055Y38959054D01*
X40150049Y38959162D01*
X40143799Y39305775D01*
X40143801Y39305895D01*
X40143795Y39306012D01*
X40137545Y39668487D01*
X40137547Y39668606D01*
X40137540Y39668744D01*
X40131290Y40050138D01*
X40131293Y40050280D01*
X40131286Y40050413D01*
X40125036Y40454316D01*
X40125039Y40454464D01*
X40125032Y40454605D01*
X40118782Y40885291D01*
X40118785Y40885431D01*
X40118777Y40885592D01*
X40112527Y41348210D01*
X40112531Y41348365D01*
X40112523Y41348520D01*
X40106273Y41849369D01*
X40106277Y41849535D01*
X40106270Y41849683D01*
X40103447Y42096660D01*
X39845459Y42093772D01*
X39335736Y42087526D01*
X38866131Y42081280D01*
X38866129Y42081280D01*
X38430152Y42075034D01*
X38430145Y42075034D01*
X38022188Y42068784D01*
X37638735Y42062543D01*
X37638725Y42062543D01*
X37274952Y42056293D01*
X36928796Y42050052D01*
X36928791Y42050052D01*
X36596783Y42043807D01*
X36276831Y42037561D01*
X35966867Y42031314D01*
X35966860Y42031314D01*
X35665007Y42025067D01*
X35369586Y42018819D01*
X35369580Y42018819D01*
X35079007Y42012571D01*
X34791814Y42006322D01*
X34506572Y42000072D01*
X34503368Y42000127D01*
X34500166Y42000000D01*
X23218734Y41993751D01*
X22936551Y41987572D01*
X22936525Y41987572D01*
X22936501Y41987571D01*
X22648952Y41981321D01*
X22648915Y41981321D01*
X22648871Y41981319D01*
X22357721Y41975069D01*
X22357661Y41975070D01*
X22357609Y41975067D01*
X22061331Y41968817D01*
X22061262Y41968818D01*
X22061190Y41968814D01*
X21758151Y41962564D01*
X21758073Y41962565D01*
X21757981Y41962560D01*
X21446397Y41956310D01*
X21446301Y41956311D01*
X21446201Y41956306D01*
X21124093Y41950056D01*
X21123980Y41950058D01*
X21123871Y41950052D01*
X20789008Y41943802D01*
X20788880Y41943804D01*
X20788763Y41943798D01*
X20438597Y41937548D01*
X20438470Y41937550D01*
X20438332Y41937543D01*
X20069910Y41931293D01*
X20069773Y41931296D01*
X20069626Y41931288D01*
X19679483Y41925038D01*
X19679326Y41925041D01*
X19679185Y41925034D01*
X19263193Y41918784D01*
X19263044Y41918787D01*
X19262882Y41918779D01*
X18816069Y41912529D01*
X18815906Y41912533D01*
X18815749Y41912525D01*
X18332033Y41906275D01*
X18331870Y41906279D01*
X18331707Y41906271D01*
X18103455Y41903569D01*
X18106229Y41664145D01*
X18112472Y41171742D01*
X18112472Y41171739D01*
X18118722Y40717631D01*
X18118722Y40717623D01*
X18124967Y40296360D01*
X18124967Y40296357D01*
X18131212Y39902491D01*
X18137452Y39532021D01*
X18137453Y39532003D01*
X18143703Y39180541D01*
X18143703Y39180539D01*
X18149948Y38845904D01*
X18149948Y38845897D01*
X18156189Y38525435D01*
X18156189Y38525428D01*
X18162437Y38216314D01*
X18168685Y37916812D01*
X18168685Y37916802D01*
X18174928Y37625450D01*
X18181176Y37340151D01*
X18181176Y37340141D01*
X18187426Y37059461D01*
X18187426Y37059456D01*
X18193273Y36800000D01*
X18800000Y36800000D01*
X18823538Y36799075D01*
X18870034Y36791711D01*
X18914805Y36777164D01*
X18956750Y36755792D01*
X18994834Y36728122D01*
X19028122Y36694834D01*
X19055792Y36656750D01*
X19077164Y36614805D01*
X19091711Y36570034D01*
X19099075Y36523538D01*
X19100000Y36500000D01*
X19099075Y36476462D01*
X19091711Y36429966D01*
X19077164Y36385195D01*
X19055792Y36343250D01*
X19028122Y36305166D01*
X18994834Y36271878D01*
X18956750Y36244208D01*
X18914805Y36222836D01*
X18870034Y36208289D01*
X18823538Y36200925D01*
X18800000Y36200000D01*
X17900000Y36200000D01*
X17886321Y36200538D01*
X17883253Y36200468D01*
X17881271Y36200737D01*
X17876462Y36200925D01*
X17856573Y36204076D01*
X17836602Y36206775D01*
X17833334Y36207756D01*
X17829966Y36208289D01*
X17810804Y36214516D01*
X17791513Y36220303D01*
X17788442Y36221781D01*
X17785195Y36222836D01*
X17767228Y36231992D01*
X17749094Y36240718D01*
X17746293Y36242658D01*
X17743250Y36244208D01*
X17726947Y36256054D01*
X17710392Y36267516D01*
X17707926Y36269874D01*
X17705166Y36271878D01*
X17690918Y36286127D01*
X17676357Y36300041D01*
X17674291Y36302754D01*
X17671878Y36305166D01*
X17660038Y36321463D01*
X17647830Y36337487D01*
X17646213Y36340492D01*
X17644208Y36343250D01*
X17635066Y36361194D01*
X17625512Y36378936D01*
X17624385Y36382157D01*
X17622836Y36385195D01*
X17616612Y36404354D01*
X17609953Y36423366D01*
X17609344Y36426722D01*
X17608289Y36429966D01*
X17605138Y36449867D01*
X17601536Y36469683D01*
X17601238Y36474487D01*
X17600925Y36476462D01*
X17600925Y36479529D01*
X17600077Y36493194D01*
X17593827Y36768611D01*
X17593828Y36768636D01*
X17593826Y36768659D01*
X17587576Y37046025D01*
X17587577Y37046061D01*
X17587574Y37046104D01*
X17581324Y37326783D01*
X17581326Y37326845D01*
X17581322Y37326895D01*
X17575072Y37612314D01*
X17575074Y37612385D01*
X17575069Y37612455D01*
X17568819Y37904127D01*
X17568821Y37904206D01*
X17568815Y37904296D01*
X17562565Y38203858D01*
X17562567Y38203956D01*
X17562561Y38204054D01*
X17556311Y38513304D01*
X17556314Y38513419D01*
X17556307Y38513525D01*
X17550057Y38834465D01*
X17550060Y38834582D01*
X17550052Y38834709D01*
X17543802Y39169609D01*
X17543805Y39169738D01*
X17543797Y39169873D01*
X17537547Y39521335D01*
X17537551Y39521486D01*
X17537543Y39521616D01*
X17531293Y39892664D01*
X17531297Y39892810D01*
X17531288Y39892961D01*
X17525038Y40287157D01*
X17525042Y40287308D01*
X17525033Y40287466D01*
X17518783Y40709055D01*
X17518787Y40709208D01*
X17518778Y40709373D01*
X17512528Y41163481D01*
X17512533Y41163647D01*
X17512524Y41163806D01*
X17506274Y41656710D01*
X17506279Y41656874D01*
X17506270Y41657039D01*
X17500021Y42196525D01*
X17500669Y42219923D01*
X17500668Y42219997D01*
X17500672Y42220021D01*
X17500673Y42220072D01*
X17504330Y42245025D01*
X17507482Y42266577D01*
X17507492Y42266608D01*
X17507498Y42266651D01*
X17514995Y42290664D01*
X17521498Y42311517D01*
X17521515Y42311550D01*
X17521526Y42311587D01*
X17531802Y42332345D01*
X17542372Y42353712D01*
X17542395Y42353743D01*
X17542411Y42353777D01*
X17556183Y42373201D01*
X17569590Y42392121D01*
X17569616Y42392146D01*
X17569638Y42392179D01*
X17585620Y42408535D01*
X17602481Y42425801D01*
X17602515Y42425825D01*
X17602538Y42425850D01*
X17619935Y42438799D01*
X17640235Y42453919D01*
X17640270Y42453937D01*
X17640299Y42453959D01*
X17661539Y42465093D01*
X17681924Y42475786D01*
X17681958Y42475797D01*
X17681993Y42475816D01*
X17704287Y42483345D01*
X17726520Y42490862D01*
X17726560Y42490868D01*
X17726593Y42490880D01*
X17747467Y42494434D01*
X17772926Y42498776D01*
X17772983Y42498778D01*
X17773001Y42498782D01*
X17773056Y42498782D01*
X17796451Y42499979D01*
X18324607Y42506229D01*
X18807997Y42512475D01*
X19254490Y42518721D01*
X19254499Y42518720D01*
X19669873Y42524962D01*
X20060016Y42531212D01*
X20060021Y42531211D01*
X20428154Y42537457D01*
X20428161Y42537456D01*
X20777811Y42543698D01*
X21112675Y42549948D01*
X21434561Y42556194D01*
X21434563Y42556193D01*
X21745949Y42562440D01*
X21745962Y42562439D01*
X22048818Y42568686D01*
X22048819Y42568685D01*
X22344955Y42574933D01*
X22635995Y42581181D01*
X22636002Y42581180D01*
X22923463Y42587429D01*
X23208804Y42593678D01*
X23212005Y42593622D01*
X23215206Y42593750D01*
X34496634Y42599998D01*
X34778670Y42606178D01*
X34778693Y42606177D01*
X34778716Y42606179D01*
X35065955Y42612429D01*
X35065989Y42612428D01*
X35066032Y42612431D01*
X35356680Y42618681D01*
X35356737Y42618679D01*
X35356787Y42618683D01*
X35652321Y42624933D01*
X35652386Y42624931D01*
X35652456Y42624936D01*
X35954444Y42631186D01*
X35954529Y42631184D01*
X35954607Y42631189D01*
X36264741Y42637439D01*
X36264832Y42637437D01*
X36264930Y42637443D01*
X36585071Y42643693D01*
X36585179Y42643690D01*
X36585285Y42643697D01*
X36917507Y42649946D01*
X36917628Y42649943D01*
X36917741Y42649950D01*
X37264391Y42656200D01*
X37264511Y42656197D01*
X37264645Y42656205D01*
X37628417Y42662455D01*
X37628560Y42662451D01*
X37628689Y42662459D01*
X38012711Y42668709D01*
X38012847Y42668705D01*
X38012997Y42668714D01*
X38420953Y42674964D01*
X38421108Y42674960D01*
X38421252Y42674968D01*
X38857535Y42681218D01*
X38857691Y42681214D01*
X38857842Y42681222D01*
X39327756Y42687472D01*
X39327913Y42687467D01*
X39328070Y42687476D01*
X39838107Y42693726D01*
X39838261Y42693721D01*
X39838424Y42693730D01*
X40396640Y42699980D01*
X40420065Y42699322D01*
X40420117Y42699323D01*
X40420134Y42699320D01*
X40420187Y42699319D01*
X40446376Y42695471D01*
X40466694Y42692491D01*
X40466723Y42692481D01*
X40466763Y42692476D01*
X40490788Y42684965D01*
X40511629Y42678457D01*
X40511660Y42678441D01*
X40511694Y42678431D01*
X40532617Y42668063D01*
X40553815Y42657566D01*
X40553844Y42657545D01*
X40553875Y42657530D01*
X40572856Y42644060D01*
X40592213Y42630333D01*
X40592237Y42630308D01*
X40592267Y42630288D01*
X40608818Y42614102D01*
X40625879Y42597428D01*
X40625900Y42597398D01*
X40625925Y42597375D01*
X40639611Y42578974D01*
X40653983Y42559662D01*
X40653999Y42559630D01*
X40654020Y42559603D01*
X40664548Y42539499D01*
X40675833Y42517964D01*
X40675844Y42517928D01*
X40675860Y42517900D01*
X40683702Y42494654D01*
X40690890Y42473363D01*
X40690895Y42473333D01*
X40690908Y42473295D01*
X40695379Y42446971D01*
X40698785Y42426954D01*
X40698787Y42426912D01*
X40698792Y42426884D01*
X40698792Y42426796D01*
X40699979Y42403428D01*
X40706226Y41856869D01*
X40706227Y41856855D01*
X40712474Y41356188D01*
X40718723Y40893697D01*
X40718722Y40893680D01*
X40724963Y40463604D01*
X40724964Y40463600D01*
X40731209Y40059975D01*
X40731210Y40059970D01*
X40737460Y39678575D01*
X40737459Y39678560D01*
X40743700Y39316595D01*
X40743701Y39316593D01*
X40749950Y38969995D01*
X40756193Y38637007D01*
X40756194Y38636993D01*
X40762444Y38314517D01*
X40762443Y38314499D01*
X40768686Y38001225D01*
X40768688Y38001208D01*
X40774938Y37694615D01*
X40774937Y37694595D01*
X40781183Y37393551D01*
X40781184Y37393535D01*
X40787432Y37096066D01*
X40787433Y37096066D01*
X40793683Y36800803D01*
X40793682Y36800786D01*
X40799931Y36506370D01*
X40799933Y36506353D01*
X40806183Y36211285D01*
X40806182Y36211264D01*
X40806184Y36211241D01*
X40812434Y35914130D01*
X40812433Y35914087D01*
X40812435Y35914057D01*
X40818685Y35613439D01*
X40818684Y35613386D01*
X40818687Y35613336D01*
X40824937Y35307686D01*
X40824935Y35307626D01*
X40824940Y35307556D01*
X40831190Y34995253D01*
X40831188Y34995174D01*
X40831193Y34995096D01*
X40837443Y34674390D01*
X40837441Y34674306D01*
X40837447Y34674208D01*
X40843697Y34343175D01*
X40843694Y34343063D01*
X40843700Y34342970D01*
X40849950Y33999465D01*
X40849947Y33999352D01*
X40849954Y33999239D01*
X40856204Y33640839D01*
X40856201Y33640727D01*
X40856209Y33640593D01*
X40862459Y33264512D01*
X40862455Y33264378D01*
X40862463Y33264249D01*
X40868713Y32867255D01*
X40868709Y32867114D01*
X40868717Y32866978D01*
X40874967Y32445261D01*
X40874963Y32445115D01*
X40874971Y32444972D01*
X40881221Y31993996D01*
X40881217Y31993848D01*
X40881225Y31993698D01*
X40887475Y31507978D01*
X40887471Y31507830D01*
X40887479Y31507674D01*
X40893729Y30980504D01*
X40893724Y30980344D01*
X40893732Y30980196D01*
X40899981Y30403249D01*
X40899315Y30379848D01*
X40899316Y30379768D01*
X40899312Y30379742D01*
X40899311Y30379702D01*
X40896174Y30358407D01*
X40892466Y30333193D01*
X40892455Y30333160D01*
X40892451Y30333129D01*
X40886003Y30312531D01*
X40878415Y30288264D01*
X40878398Y30288232D01*
X40878390Y30288203D01*
X40867414Y30266074D01*
X40857507Y30246086D01*
X40857491Y30246064D01*
X40857474Y30246029D01*
X40842922Y30225539D01*
X40830260Y30207698D01*
X40830236Y30207674D01*
X40830218Y30207648D01*
X40813817Y30190889D01*
X40797342Y30174045D01*
X40797316Y30174027D01*
X40797292Y30174001D01*
X40778145Y30159772D01*
X40759566Y30145956D01*
X40759535Y30145941D01*
X40759510Y30145921D01*
X40738146Y30134743D01*
X40717859Y30124121D01*
X40717830Y30124112D01*
X40717799Y30124095D01*
X40692925Y30115715D01*
X40673252Y30109081D01*
X40673224Y30109077D01*
X40673188Y30109064D01*
X40647688Y30104742D01*
X40626840Y30101203D01*
X40626797Y30101201D01*
X40626775Y30101197D01*
X40626706Y30101197D01*
X40603314Y30100018D01*
X40037696Y30093768D01*
X39520318Y30087526D01*
X39042183Y30081280D01*
X38597083Y30075034D01*
X38179683Y30068788D01*
X37785564Y30062542D01*
X37411008Y30056296D01*
X37052867Y30050050D01*
X37052852Y30050049D01*
X36708180Y30043799D01*
X36708166Y30043800D01*
X36375156Y30037556D01*
X36051119Y30031309D01*
X36051106Y30031308D01*
X35734304Y30025061D01*
X35734303Y30025060D01*
X35422998Y30018812D01*
X35115559Y30012563D01*
X34810423Y30006313D01*
X34807435Y30006370D01*
X34804445Y30006250D01*
X23503156Y30000002D01*
X23201255Y29993813D01*
X23201237Y29993814D01*
X23201214Y29993812D01*
X22894229Y29987562D01*
X22894189Y29987563D01*
X22894159Y29987561D01*
X22583572Y29981311D01*
X22583523Y29981312D01*
X22583473Y29981309D01*
X22267708Y29975059D01*
X22267652Y29975061D01*
X22267582Y29975056D01*
X21944964Y29968806D01*
X21944890Y29968808D01*
X21944813Y29968803D01*
X21613535Y29962553D01*
X21613444Y29962555D01*
X21613359Y29962550D01*
X21271434Y29956300D01*
X21271327Y29956303D01*
X21271234Y29956297D01*
X20916449Y29950048D01*
X20916344Y29950051D01*
X20916231Y29950044D01*
X20546080Y29943794D01*
X20545962Y29943797D01*
X20545842Y29943790D01*
X20157452Y29937540D01*
X20157326Y29937543D01*
X20157198Y29937536D01*
X19747229Y29931286D01*
X19747096Y29931290D01*
X19746961Y29931282D01*
X19311485Y29925032D01*
X19311348Y29925036D01*
X19311206Y29925028D01*
X18845534Y29918778D01*
X18845394Y29918782D01*
X18845246Y29918774D01*
X18343721Y29912524D01*
X18343568Y29912529D01*
X18343428Y29912521D01*
X17799123Y29906270D01*
X17798971Y29906275D01*
X17798825Y29906267D01*
X17203147Y29900018D01*
X17179719Y29900693D01*
X17179662Y29900692D01*
X17179644Y29900695D01*
X17179600Y29900696D01*
X17153845Y29904499D01*
X17133090Y29907558D01*
X17133065Y29907566D01*
X17133030Y29907571D01*
X17109264Y29915019D01*
X17088166Y29921625D01*
X17088138Y29921639D01*
X17088109Y29921648D01*
X17065809Y29932718D01*
X17045995Y29942548D01*
X17045974Y29942564D01*
X17045942Y29942579D01*
X17023861Y29958272D01*
X17007617Y29969809D01*
X17007599Y29969827D01*
X17007569Y29969848D01*
X16988182Y29988833D01*
X16973975Y30002739D01*
X16973960Y30002761D01*
X16973934Y30002785D01*
X16957593Y30024788D01*
X16945899Y30040525D01*
X16945888Y30040548D01*
X16945866Y30040576D01*
X16932873Y30065430D01*
X16924080Y30082239D01*
X16924073Y30082262D01*
X16924055Y30082295D01*
X16914845Y30109662D01*
X16909055Y30126852D01*
X16909052Y30126876D01*
X16909039Y30126911D01*
X16904478Y30153882D01*
X16901194Y30173266D01*
X16901193Y30173303D01*
X16901188Y30173327D01*
X16901188Y30173402D01*
X16900017Y30196793D01*
X16893771Y30780843D01*
X16893770Y30780846D01*
X16887520Y31315962D01*
X16887521Y31315971D01*
X16881274Y31809903D01*
X16881275Y31809908D01*
X16875032Y32269410D01*
X16875031Y32269426D01*
X16868781Y32700849D01*
X16868782Y32700851D01*
X16862535Y33107934D01*
X16862536Y33107937D01*
X16856289Y33494787D01*
X16856290Y33494793D01*
X16850047Y33864467D01*
X16850046Y33864477D01*
X16843800Y34220249D01*
X16843799Y34220252D01*
X16837549Y34564511D01*
X16837550Y34564515D01*
X16831302Y34899112D01*
X16831303Y34899126D01*
X16825055Y35226205D01*
X16825056Y35226206D01*
X16818809Y35547514D01*
X16818808Y35547525D01*
X16812558Y35864982D01*
X16812559Y35864985D01*
X16806310Y36179920D01*
X16806309Y36179928D01*
X16800059Y36494032D01*
X16800060Y36494042D01*
X16800059Y36494044D01*
X16793809Y36808761D01*
X16793810Y36808778D01*
X16793808Y36808801D01*
X16787558Y37125660D01*
X16787559Y37125698D01*
X16787557Y37125728D01*
X16781307Y37446283D01*
X16781308Y37446328D01*
X16781305Y37446378D01*
X16775055Y37772258D01*
X16775057Y37772323D01*
X16775053Y37772380D01*
X16768803Y38105313D01*
X16768805Y38105383D01*
X16768800Y38105460D01*
X16762550Y38447310D01*
X16762552Y38447396D01*
X16762547Y38447481D01*
X16756297Y38800296D01*
X16756300Y38800397D01*
X16756294Y38800489D01*
X16750044Y39166556D01*
X16750047Y39166656D01*
X16750040Y39166768D01*
X16743790Y39548669D01*
X16743793Y39548779D01*
X16743786Y39548899D01*
X16737536Y39949599D01*
X16737540Y39949731D01*
X16737533Y39949845D01*
X16731283Y40372786D01*
X16731287Y40372912D01*
X16731279Y40373046D01*
X16725029Y40822283D01*
X16725033Y40822413D01*
X16725025Y40822553D01*
X16718775Y41302919D01*
X16718779Y41303064D01*
X16718772Y41303198D01*
X16712522Y41820529D01*
X16712526Y41820674D01*
X16712519Y41820813D01*
X16706269Y42382252D01*
X16706274Y42382396D01*
X16706266Y42382540D01*
X16700017Y42996949D01*
X16700700Y43020403D01*
X16700699Y43020437D01*
X16700701Y43020448D01*
X16700702Y43020495D01*
X16704485Y43046055D01*
X16707580Y43067007D01*
X16707589Y43067034D01*
X16707593Y43067064D01*
X16715009Y43090702D01*
X16721663Y43111927D01*
X16721675Y43111950D01*
X16721684Y43111980D01*
X16732835Y43134425D01*
X16742599Y43154091D01*
X16742615Y43154112D01*
X16742628Y43154140D01*
X16757700Y43175335D01*
X16769873Y43192460D01*
X16769891Y43192477D01*
X16769909Y43192504D01*
X16788069Y43211036D01*
X16802814Y43226091D01*
X16802836Y43226106D01*
X16802857Y43226129D01*
X16822896Y43241001D01*
X16840609Y43254154D01*
X16840634Y43254166D01*
X16840658Y43254185D01*
X16862949Y43265829D01*
X16882330Y43275959D01*
X16882356Y43275967D01*
X16882383Y43275982D01*
X16905427Y43283729D01*
X16926948Y43290970D01*
X16926977Y43290974D01*
X16927004Y43290984D01*
X16949550Y43294789D01*
X16973365Y43298815D01*
X16973406Y43298816D01*
X16973423Y43298820D01*
X16973477Y43298820D01*
X16996893Y43299984D01*
X17599970Y43306234D01*
X18151935Y43312481D01*
X18151949Y43312480D01*
X18661417Y43318724D01*
X19136186Y43324974D01*
X19136195Y43324973D01*
X19580860Y43331217D01*
X20001174Y43337467D01*
X20001183Y43337466D01*
X20400128Y43343710D01*
X20781993Y43349960D01*
X21149032Y43356207D01*
X21504009Y43362454D01*
X21504017Y43362453D01*
X21849185Y43368701D01*
X22186598Y43374949D01*
X22186602Y43374948D01*
X22518111Y43381197D01*
X22518127Y43381196D01*
X22845397Y43387443D01*
X22845418Y43387445D01*
X23170300Y43393695D01*
X23173109Y43393638D01*
X23175904Y43393750D01*
X34497052Y43399998D01*
X34818768Y43406194D01*
X34818783Y43406193D01*
X34818806Y43406195D01*
X35145536Y43412445D01*
X35145572Y43412444D01*
X35145602Y43412446D01*
X35476126Y43418696D01*
X35476169Y43418695D01*
X35476219Y43418698D01*
X35812215Y43424948D01*
X35812275Y43424946D01*
X35812332Y43424950D01*
X36155579Y43431200D01*
X36155645Y43431198D01*
X36155722Y43431203D01*
X36508144Y43437453D01*
X36508224Y43437451D01*
X36508308Y43437456D01*
X36872017Y43443706D01*
X36872111Y43443703D01*
X36872203Y43443709D01*
X37249553Y43449958D01*
X37249659Y43449955D01*
X37249757Y43449961D01*
X37643408Y43456211D01*
X37643512Y43456208D01*
X37643631Y43456215D01*
X38056640Y43462466D01*
X38056766Y43462462D01*
X38056880Y43462469D01*
X38492794Y43468718D01*
X38492913Y43468715D01*
X38493045Y43468722D01*
X38956043Y43474972D01*
X38956179Y43474968D01*
X38956305Y43474975D01*
X39451365Y43481225D01*
X39451503Y43481221D01*
X39451635Y43481228D01*
X39984772Y43487478D01*
X39984911Y43487474D01*
X39985048Y43487481D01*
X40563620Y43493732D01*
X40563758Y43493728D01*
X40563900Y43493735D01*
X41197039Y43499984D01*
X41220495Y43499294D01*
G37*
%TD.AperFunction*%
%TD*%
D11*
%TO.N,PGND*%
%TO.C,J1*%
X57000000Y30960000D03*
D12*
%TO.N,/VIN_RAW*%
X57000000Y36040000D03*
%TD*%
D11*
%TO.N,SGND*%
%TO.C,J2*%
X5000000Y36040000D03*
D12*
%TO.N,VOUT*%
X5000000Y30960000D03*
%TD*%
D13*
%TO.N,Net-(T1-P_DOT)*%
%TO.C,T1*%
X42537772Y33735180D03*
%TO.N,/TANK_C*%
X42537772Y39264820D03*
%TO.N,Net-(T1-S_DOT)*%
X15462228Y39264820D03*
%TO.N,VOUT*%
X18800000Y36500000D03*
%TO.N,Net-(T1-S_END)*%
X15462228Y33735180D03*
%TO.N,unconnected-(T1-P_MID-Pad6)*%
X39200000Y36500000D03*
%TD*%
D14*
%TO.N,AGND*%
X47100000Y28200000D03*
X49925000Y47500000D03*
X29800000Y14325000D03*
X40950000Y18150000D03*
X37000000Y21325000D03*
X49000000Y53000000D03*
X26950000Y6130000D03*
X36600000Y14370000D03*
X43000000Y28975000D03*
X49925000Y44300000D03*
X30575000Y21000000D03*
X44000000Y28500000D03*
X57825000Y43100000D03*
X38200000Y16375000D03*
X29800000Y18575000D03*
X42950000Y25200000D03*
X26950000Y13730000D03*
X33125000Y11600000D03*
X61500000Y42825000D03*
%TO.N,BIAS12*%
X36600000Y15630000D03*
X40100000Y8825000D03*
X47100000Y29150000D03*
X42300000Y21325000D03*
X53975000Y11800000D03*
X38200000Y14825000D03*
X47100000Y27250000D03*
X43000000Y27425000D03*
%TO.N,Net-(U4-EN{slash}UVLO)*%
X57000000Y24675000D03*
X55000000Y26325000D03*
X52000000Y20140000D03*
%TO.N,Net-(U4-FB)*%
X42300000Y18225000D03*
X42300000Y14975000D03*
%TO.N,Net-(U4-SW)*%
X52375000Y14500000D03*
X47500000Y14450000D03*
%TO.N,Net-(C17-Pad2)*%
X40800000Y21375000D03*
X38800000Y26175000D03*
%TO.N,Net-(U2-DT)*%
X31400000Y16900000D03*
X31475000Y11600000D03*
%TO.N,/FB_COL*%
X31400000Y8725000D03*
X26950000Y16270000D03*
%TO.N,Net-(U6-CA)*%
X13575000Y11600000D03*
X18450000Y16240000D03*
X21500000Y19225000D03*
X20650000Y13730000D03*
%TO.N,Net-(U6-AN)*%
X18625000Y20000000D03*
X20650000Y16270000D03*
%TO.N,Net-(U2-GD1)*%
X56175000Y45000000D03*
X36600000Y16900000D03*
%TO.N,Net-(U2-GD2)*%
X36600000Y13100000D03*
X59500000Y41175000D03*
%TO.N,/LI*%
X61500000Y41175000D03*
X52650000Y43670000D03*
%TO.N,Net-(D2-C)*%
X29025000Y21000000D03*
X40950000Y20050000D03*
X31400000Y14370000D03*
X37000000Y19675000D03*
%TO.N,Net-(U8-AN)*%
X20650000Y8670000D03*
X15000000Y8175000D03*
X13300000Y9825000D03*
%TO.N,Net-(U9-REF)*%
X12000000Y4775000D03*
X16550000Y8640000D03*
X10600000Y9525000D03*
X16725000Y4000000D03*
%TO.N,PGND*%
X40100000Y6475000D03*
X50725000Y34050001D03*
X46975000Y37450000D03*
X46975000Y40250000D03*
X50725000Y34700000D03*
X40100000Y11775000D03*
X52000000Y17600000D03*
X55100000Y17425000D03*
X50770000Y40660000D03*
X48675000Y23500000D03*
X50725000Y35350000D03*
X48400000Y20000000D03*
X52850000Y28925000D03*
X46975000Y41550001D03*
X52200000Y28925000D03*
X46975000Y40900000D03*
X51000000Y39200000D03*
X45000000Y46575000D03*
X49800000Y19000000D03*
X51550000Y28925000D03*
X46975000Y38100000D03*
X61000000Y23000000D03*
X51000000Y38200000D03*
X49000000Y19500000D03*
X39300000Y50690000D03*
X50200000Y40800000D03*
X57000000Y26325000D03*
X48600000Y19000000D03*
X42300000Y16575000D03*
X46975000Y38750000D03*
X49300000Y20100000D03*
X51000000Y37500000D03*
%TO.N,Net-(C23-Pad1)*%
X52425000Y11800000D03*
X54025000Y14500000D03*
X42300000Y13425000D03*
%TO.N,Net-(U2-RT)*%
X31400000Y7075000D03*
X29800000Y12675000D03*
X31400000Y15630000D03*
%TO.N,Net-(T1-S_DOT)*%
X11310000Y42610000D03*
%TO.N,SGND*%
X10000000Y26975000D03*
X12000000Y15825000D03*
X13974999Y48650000D03*
X13849999Y26975000D03*
X17500000Y6160000D03*
X10960000Y39900000D03*
X18275000Y4000000D03*
X12000000Y6425000D03*
X11450000Y33000000D03*
X10990000Y32100000D03*
X17500000Y13760000D03*
X3500000Y20000000D03*
X13974999Y48000000D03*
X15150000Y26975000D03*
X8300000Y41275000D03*
X11640000Y32100000D03*
X11610000Y39900000D03*
X13500000Y34600000D03*
X10310000Y39900000D03*
X14500000Y21975000D03*
X12290000Y32100000D03*
X14500000Y26975000D03*
X8300000Y37130000D03*
X12290000Y31300000D03*
%TO.N,/SS*%
X26950000Y8670000D03*
X31400000Y13100000D03*
X29800000Y17025000D03*
%TO.N,/TANK_C*%
X44025000Y38100000D03*
X38800000Y24625000D03*
%TO.N,V5*%
X51475000Y47500000D03*
X47800000Y30000000D03*
X44900000Y27250000D03*
X46000000Y53000000D03*
%TO.N,Net-(U3-VG2)*%
X13500000Y38400000D03*
X8000000Y33225000D03*
%TO.N,VIN*%
X41550000Y49000000D03*
X52200000Y31875000D03*
X58000000Y23000000D03*
X55100000Y20375000D03*
X39300000Y46310000D03*
X45000000Y43625000D03*
X55000000Y24675000D03*
%TO.N,/VIN_RAW*%
X44450000Y49000000D03*
%TO.N,VOUT*%
X10600000Y7875000D03*
X3500000Y23000000D03*
X11025000Y47350000D03*
X10000000Y24025000D03*
X11025000Y48650000D03*
X13300000Y8175000D03*
X14500000Y19025000D03*
X14500000Y24025000D03*
X13849999Y24025000D03*
X15150000Y24025000D03*
X8300000Y39725000D03*
X13500000Y37130000D03*
X11025000Y48000000D03*
X16975000Y20000000D03*
X10000000Y14175000D03*
%TO.N,Net-(U7-REF)*%
X16550000Y16240000D03*
X12000000Y14175000D03*
X18775000Y11600000D03*
X21500000Y20775000D03*
X10000000Y15825000D03*
%TO.N,Net-(U3-VD1)*%
X15000000Y43825000D03*
X8300000Y34600000D03*
%TO.N,Net-(U3-VD2)*%
X15000000Y30625000D03*
X13500000Y35870000D03*
%TD*%
%TO.N,Net-(U4-EN{slash}UVLO)*%
D15*
X53000000Y26825000D02*
X55000000Y26325000D01*
X55000000Y26325000D02*
X57000000Y24675000D01*
X52000000Y20140000D02*
X53000000Y21000000D01*
X53000000Y21000000D02*
X53000000Y26825000D01*
%TO.N,Net-(U2-DT)*%
X32300000Y12700000D02*
X31475000Y11600000D01*
X32300000Y16000000D02*
X32300000Y12700000D01*
X31400000Y16900000D02*
X32300000Y16000000D01*
%TO.N,Net-(U6-CA)*%
X13575000Y12450000D02*
X13575000Y11600000D01*
X20650000Y13730000D02*
X21500000Y14580000D01*
X21500000Y14580000D02*
X21500000Y19225000D01*
X19000000Y15200000D02*
X19000000Y12800000D01*
X18450000Y16240000D02*
X19000000Y15200000D01*
X15900000Y12450000D02*
X13575000Y12450000D01*
X19000000Y12800000D02*
X15900000Y12450000D01*
%TO.N,Net-(U6-AN)*%
X19500000Y17420000D02*
X19500000Y19125000D01*
X19500000Y19125000D02*
X18625000Y20000000D01*
X20650000Y16270000D02*
X19500000Y17420000D01*
%TO.N,Net-(U8-AN)*%
X16000000Y7175000D02*
X19155000Y7175000D01*
X13300000Y9825000D02*
X13300000Y10600000D01*
X15000000Y8175000D02*
X16000000Y7175000D01*
X15800000Y8175000D02*
X15000000Y8175000D01*
X13300000Y10600000D02*
X15800000Y10600000D01*
X15800000Y10600000D02*
X15800000Y8175000D01*
X19155000Y7175000D02*
X20650000Y8670000D01*
%TO.N,PGND*%
D16*
X39000000Y10700000D02*
X39000000Y7600000D01*
X39000000Y7600000D02*
X40100000Y6475000D01*
X40100000Y11775000D02*
X39000000Y10700000D01*
%TO.N,/VIN_RAW*%
D17*
X57000000Y36040000D02*
X62000000Y36040000D01*
X54900000Y48000000D02*
X52500000Y50000000D01*
X62000000Y39800000D02*
X54900000Y39800000D01*
X52500000Y50000000D02*
X52500000Y51500000D01*
X43800000Y51500000D02*
X44450000Y49000000D01*
X62000000Y36040000D02*
X62000000Y39800000D01*
X54900000Y39800000D02*
X54900000Y48000000D01*
X52500000Y51500000D02*
X43800000Y51500000D01*
%TD*%
%TA.AperFunction,Conductor*%
%TO.N,PGND*%
G36*
X54209923Y39481518D02*
G01*
X54232129Y39451233D01*
X54234914Y39444508D01*
X54234916Y39444505D01*
X54317047Y39321586D01*
X54317048Y39321585D01*
X54317049Y39321584D01*
X54376861Y39261772D01*
X54399699Y39212797D01*
X54400000Y39205911D01*
X54400000Y28579000D01*
X54381518Y28528220D01*
X54334718Y28501200D01*
X54321000Y28500000D01*
X50079000Y28500000D01*
X50028220Y28518482D01*
X50001200Y28565282D01*
X50000000Y28579000D01*
X50000000Y31947476D01*
X51649500Y31947476D01*
X51649500Y31802525D01*
X51687015Y31662516D01*
X51687016Y31662514D01*
X51759492Y31536983D01*
X51861982Y31434493D01*
X51861984Y31434492D01*
X51861985Y31434491D01*
X51987515Y31362016D01*
X52127525Y31324500D01*
X52127527Y31324500D01*
X52272473Y31324500D01*
X52272475Y31324500D01*
X52412485Y31362016D01*
X52538015Y31434491D01*
X52640509Y31536985D01*
X52712984Y31662515D01*
X52750500Y31802525D01*
X52750500Y31947475D01*
X52712984Y32087485D01*
X52640509Y32213015D01*
X52640508Y32213016D01*
X52640507Y32213018D01*
X52538017Y32315508D01*
X52412486Y32387984D01*
X52412484Y32387985D01*
X52272475Y32425500D01*
X52127525Y32425500D01*
X52127524Y32425500D01*
X51987515Y32387985D01*
X51987513Y32387984D01*
X51861982Y32315508D01*
X51759492Y32213018D01*
X51687016Y32087487D01*
X51687015Y32087485D01*
X51649500Y31947476D01*
X50000000Y31947476D01*
X50000000Y39421000D01*
X50018482Y39471780D01*
X50065282Y39498800D01*
X50079000Y39500000D01*
X54159143Y39500000D01*
X54209923Y39481518D01*
G37*
%TD.AperFunction*%
%TD*%
%TA.AperFunction,Conductor*%
%TO.N,AGND*%
G36*
X52309652Y49181691D02*
G01*
X54121076Y47672172D01*
X54148253Y47625466D01*
X54149500Y47611484D01*
X54149500Y42879000D01*
X54131018Y42828220D01*
X54084218Y42801200D01*
X54070500Y42800000D01*
X44879000Y42800000D01*
X44828220Y42818482D01*
X44801200Y42865282D01*
X44800000Y42879000D01*
X44800000Y43005716D01*
X44818482Y43056496D01*
X44865282Y43083516D01*
X44899444Y43082025D01*
X44927525Y43074500D01*
X44927526Y43074500D01*
X45072473Y43074500D01*
X45072475Y43074500D01*
X45212485Y43112016D01*
X45338015Y43184491D01*
X45440509Y43286985D01*
X45512984Y43412515D01*
X45550500Y43552525D01*
X45550500Y43697475D01*
X45538442Y43742476D01*
X52099500Y43742476D01*
X52099500Y43597525D01*
X52137015Y43457516D01*
X52137016Y43457514D01*
X52209492Y43331983D01*
X52311982Y43229493D01*
X52311984Y43229492D01*
X52311985Y43229491D01*
X52437515Y43157016D01*
X52577525Y43119500D01*
X52577527Y43119500D01*
X52722473Y43119500D01*
X52722475Y43119500D01*
X52862485Y43157016D01*
X52988015Y43229491D01*
X53090509Y43331985D01*
X53162984Y43457515D01*
X53200500Y43597525D01*
X53200500Y43742475D01*
X53162984Y43882485D01*
X53090509Y44008015D01*
X53090508Y44008016D01*
X53090507Y44008018D01*
X52988017Y44110508D01*
X52862486Y44182984D01*
X52862484Y44182985D01*
X52722475Y44220500D01*
X52577525Y44220500D01*
X52577524Y44220500D01*
X52437515Y44182985D01*
X52437513Y44182984D01*
X52311982Y44110508D01*
X52209492Y44008018D01*
X52137016Y43882487D01*
X52137015Y43882485D01*
X52099500Y43742476D01*
X45538442Y43742476D01*
X45512984Y43837485D01*
X45440509Y43963015D01*
X45440508Y43963016D01*
X45440507Y43963018D01*
X45338017Y44065508D01*
X45212486Y44137984D01*
X45212484Y44137985D01*
X45072475Y44175500D01*
X44927525Y44175500D01*
X44899445Y44167976D01*
X44845612Y44172687D01*
X44807401Y44210900D01*
X44800000Y44244285D01*
X44800000Y45955716D01*
X44818482Y46006496D01*
X44865282Y46033516D01*
X44899444Y46032025D01*
X44927525Y46024500D01*
X44927526Y46024500D01*
X45072473Y46024500D01*
X45072475Y46024500D01*
X45212485Y46062016D01*
X45338015Y46134491D01*
X45440509Y46236985D01*
X45512984Y46362515D01*
X45550500Y46502525D01*
X45550500Y46647475D01*
X45512984Y46787485D01*
X45440509Y46913015D01*
X45440508Y46913016D01*
X45440507Y46913018D01*
X45338017Y47015508D01*
X45212486Y47087984D01*
X45212484Y47087985D01*
X45072475Y47125500D01*
X44927525Y47125500D01*
X44899445Y47117976D01*
X44845612Y47122687D01*
X44807401Y47160900D01*
X44800000Y47194285D01*
X44800000Y47572476D01*
X50924500Y47572476D01*
X50924500Y47427525D01*
X50962015Y47287516D01*
X50962016Y47287514D01*
X51034492Y47161983D01*
X51136982Y47059493D01*
X51136984Y47059492D01*
X51136985Y47059491D01*
X51262515Y46987016D01*
X51402525Y46949500D01*
X51402527Y46949500D01*
X51547473Y46949500D01*
X51547475Y46949500D01*
X51687485Y46987016D01*
X51813015Y47059491D01*
X51915509Y47161985D01*
X51987984Y47287515D01*
X52025500Y47427525D01*
X52025500Y47572475D01*
X51987984Y47712485D01*
X51915509Y47838015D01*
X51915508Y47838016D01*
X51915507Y47838018D01*
X51813017Y47940508D01*
X51687486Y48012984D01*
X51687484Y48012985D01*
X51547475Y48050500D01*
X51402525Y48050500D01*
X51402524Y48050500D01*
X51262515Y48012985D01*
X51262513Y48012984D01*
X51136982Y47940508D01*
X51034492Y47838018D01*
X50962016Y47712487D01*
X50962015Y47712485D01*
X50924500Y47572476D01*
X44800000Y47572476D01*
X44800000Y48286083D01*
X44818482Y48336863D01*
X44840518Y48354023D01*
X44840151Y48354624D01*
X44843455Y48356646D01*
X44843462Y48356649D01*
X44961414Y48445772D01*
X45059712Y48556193D01*
X45134579Y48683669D01*
X45183138Y48823302D01*
X45203523Y48969725D01*
X45195003Y49116419D01*
X45210510Y49168186D01*
X45255664Y49197874D01*
X45273870Y49200000D01*
X52259079Y49200000D01*
X52309652Y49181691D01*
G37*
%TD.AperFunction*%
%TA.AperFunction,Conductor*%
G36*
X55787536Y48144945D02*
G01*
X55809732Y48118493D01*
X55809738Y48118487D01*
X55809740Y48118484D01*
X56118483Y47809741D01*
X56118496Y47809729D01*
X56452972Y47529069D01*
X56452989Y47529056D01*
X56597991Y47427525D01*
X56810674Y47278603D01*
X57188826Y47060277D01*
X57190512Y47059491D01*
X57584554Y46875745D01*
X57584559Y46875744D01*
X57584568Y46875739D01*
X57994888Y46726395D01*
X57994892Y46726394D01*
X57994899Y46726392D01*
X58289429Y46647473D01*
X58416663Y46613381D01*
X58734719Y46557299D01*
X58781517Y46530280D01*
X58800000Y46479500D01*
X58800000Y42879000D01*
X58781518Y42828220D01*
X58734718Y42801200D01*
X58721000Y42800000D01*
X55729500Y42800000D01*
X55678720Y42818482D01*
X55651700Y42865282D01*
X55650500Y42879000D01*
X55650500Y44555253D01*
X55668982Y44606033D01*
X55715782Y44633053D01*
X55769000Y44623669D01*
X55785361Y44611114D01*
X55836982Y44559493D01*
X55836984Y44559492D01*
X55836985Y44559491D01*
X55962515Y44487016D01*
X56102525Y44449500D01*
X56102527Y44449500D01*
X56247473Y44449500D01*
X56247475Y44449500D01*
X56387485Y44487016D01*
X56513015Y44559491D01*
X56615509Y44661985D01*
X56687984Y44787515D01*
X56725500Y44927525D01*
X56725500Y45072475D01*
X56687984Y45212485D01*
X56615509Y45338015D01*
X56615508Y45338016D01*
X56615507Y45338018D01*
X56513017Y45440508D01*
X56387486Y45512984D01*
X56387484Y45512985D01*
X56247475Y45550500D01*
X56102525Y45550500D01*
X56102524Y45550500D01*
X55962515Y45512985D01*
X55962513Y45512984D01*
X55836982Y45440508D01*
X55785361Y45388886D01*
X55736385Y45366048D01*
X55684187Y45380034D01*
X55653192Y45424300D01*
X55650500Y45444747D01*
X55650500Y47956128D01*
X55650941Y47964464D01*
X55654110Y47994331D01*
X55650824Y48030482D01*
X55650500Y48037633D01*
X55650500Y48073913D01*
X55650500Y48073918D01*
X55649539Y48078747D01*
X55657755Y48132155D01*
X55698381Y48167789D01*
X55752407Y48168973D01*
X55787536Y48144945D01*
G37*
%TD.AperFunction*%
%TD*%
%TA.AperFunction,Conductor*%
%TO.N,PGND*%
G36*
X52621280Y22981518D02*
G01*
X52648300Y22934718D01*
X52649500Y22921000D01*
X52649500Y21197116D01*
X52631018Y21146336D01*
X52622011Y21137219D01*
X52338849Y20893699D01*
X52128576Y20712864D01*
X52124784Y20709603D01*
X52074232Y20690506D01*
X52073273Y20690500D01*
X51927524Y20690500D01*
X51787515Y20652985D01*
X51787513Y20652984D01*
X51661982Y20580508D01*
X51559492Y20478018D01*
X51487016Y20352487D01*
X51487015Y20352485D01*
X51449500Y20212476D01*
X51449500Y20067525D01*
X51487015Y19927516D01*
X51487016Y19927514D01*
X51559492Y19801983D01*
X51661982Y19699493D01*
X51661984Y19699492D01*
X51661985Y19699491D01*
X51787515Y19627016D01*
X51927525Y19589500D01*
X51927527Y19589500D01*
X52072473Y19589500D01*
X52072475Y19589500D01*
X52212485Y19627016D01*
X52338015Y19699491D01*
X52440509Y19801985D01*
X52512984Y19927515D01*
X52550500Y20067525D01*
X52550500Y20114886D01*
X52568982Y20165666D01*
X52577989Y20174783D01*
X52726526Y20302525D01*
X52895073Y20447476D01*
X54549500Y20447476D01*
X54549500Y20302525D01*
X54587015Y20162516D01*
X54587016Y20162514D01*
X54659492Y20036983D01*
X54761982Y19934493D01*
X54761984Y19934492D01*
X54761985Y19934491D01*
X54887515Y19862016D01*
X55027525Y19824500D01*
X55027527Y19824500D01*
X55172473Y19824500D01*
X55172475Y19824500D01*
X55312485Y19862016D01*
X55438015Y19934491D01*
X55540509Y20036985D01*
X55612984Y20162515D01*
X55650500Y20302525D01*
X55650500Y20447475D01*
X55612984Y20587485D01*
X55540509Y20713015D01*
X55540508Y20713016D01*
X55540507Y20713018D01*
X55438017Y20815508D01*
X55312486Y20887984D01*
X55312484Y20887985D01*
X55172475Y20925500D01*
X55027525Y20925500D01*
X55027524Y20925500D01*
X54887515Y20887985D01*
X54887513Y20887984D01*
X54761982Y20815508D01*
X54659492Y20713018D01*
X54587016Y20587487D01*
X54587015Y20587485D01*
X54549500Y20447476D01*
X52895073Y20447476D01*
X53198063Y20708048D01*
X53210068Y20716562D01*
X53215212Y20719531D01*
X53236434Y20740754D01*
X53240758Y20744766D01*
X53263525Y20764344D01*
X53266874Y20769254D01*
X53276270Y20780590D01*
X53280469Y20784788D01*
X53295469Y20810771D01*
X53298618Y20815781D01*
X53315539Y20840579D01*
X53317499Y20846177D01*
X53323649Y20859577D01*
X53326612Y20864708D01*
X53326612Y20864709D01*
X53326614Y20864712D01*
X53334386Y20893719D01*
X53336131Y20899370D01*
X53346047Y20927679D01*
X53346492Y20933599D01*
X53348963Y20948120D01*
X53349395Y20949736D01*
X53350500Y20953856D01*
X53350500Y20983872D01*
X53350723Y20989803D01*
X53352974Y21019706D01*
X53351872Y21025541D01*
X53350500Y21040202D01*
X53350500Y22921000D01*
X53368982Y22971780D01*
X53415782Y22998800D01*
X53429500Y23000000D01*
X57370677Y23000000D01*
X57421457Y22981518D01*
X57448477Y22934718D01*
X57449000Y22931317D01*
X57449498Y22927531D01*
X57487015Y22787516D01*
X57487016Y22787514D01*
X57559492Y22661983D01*
X57661982Y22559493D01*
X57661984Y22559492D01*
X57661985Y22559491D01*
X57787515Y22487016D01*
X57927525Y22449500D01*
X57927527Y22449500D01*
X58072473Y22449500D01*
X58072475Y22449500D01*
X58212485Y22487016D01*
X58338015Y22559491D01*
X58338017Y22559493D01*
X58365139Y22586614D01*
X58414115Y22609452D01*
X58466313Y22595466D01*
X58497308Y22551200D01*
X58500000Y22530753D01*
X58500000Y9467603D01*
X58481518Y9416823D01*
X58434722Y9389804D01*
X58416662Y9386619D01*
X57994899Y9273609D01*
X57994892Y9273607D01*
X57720099Y9173591D01*
X57584568Y9124261D01*
X57584565Y9124260D01*
X57584555Y9124256D01*
X57584553Y9124256D01*
X57188833Y8939727D01*
X57188824Y8939723D01*
X56810679Y8721400D01*
X56810664Y8721391D01*
X56452989Y8470945D01*
X56452972Y8470932D01*
X56118496Y8190272D01*
X56118483Y8190260D01*
X55809740Y7881517D01*
X55809728Y7881504D01*
X55529068Y7547028D01*
X55529055Y7547011D01*
X55278609Y7189336D01*
X55278600Y7189321D01*
X55060277Y6811176D01*
X55060273Y6811167D01*
X54875744Y6415447D01*
X54875744Y6415445D01*
X54726393Y6005108D01*
X54726391Y6005101D01*
X54613382Y5583343D01*
X54537556Y5153313D01*
X54537556Y5153312D01*
X54499500Y4718337D01*
X54499500Y4281664D01*
X54537556Y3846689D01*
X54537556Y3846688D01*
X54613382Y3416658D01*
X54698378Y3099447D01*
X54693668Y3045613D01*
X54655457Y3007402D01*
X54622070Y3000000D01*
X43079000Y3000000D01*
X43028220Y3018482D01*
X43001200Y3065282D01*
X43000000Y3079000D01*
X43000000Y11872476D01*
X51874500Y11872476D01*
X51874500Y11727525D01*
X51912015Y11587516D01*
X51912016Y11587514D01*
X51984492Y11461983D01*
X52086982Y11359493D01*
X52086984Y11359492D01*
X52086985Y11359491D01*
X52212515Y11287016D01*
X52352525Y11249500D01*
X52352527Y11249500D01*
X52497473Y11249500D01*
X52497475Y11249500D01*
X52637485Y11287016D01*
X52763015Y11359491D01*
X52865509Y11461985D01*
X52937984Y11587515D01*
X52975500Y11727525D01*
X52975500Y11872475D01*
X52975500Y11872476D01*
X53424500Y11872476D01*
X53424500Y11727525D01*
X53462015Y11587516D01*
X53462016Y11587514D01*
X53534492Y11461983D01*
X53636982Y11359493D01*
X53636984Y11359492D01*
X53636985Y11359491D01*
X53762515Y11287016D01*
X53902525Y11249500D01*
X53902527Y11249500D01*
X54047473Y11249500D01*
X54047475Y11249500D01*
X54187485Y11287016D01*
X54313015Y11359491D01*
X54415509Y11461985D01*
X54487984Y11587515D01*
X54525500Y11727525D01*
X54525500Y11872475D01*
X54487984Y12012485D01*
X54415509Y12138015D01*
X54415508Y12138016D01*
X54415507Y12138018D01*
X54313017Y12240508D01*
X54187486Y12312984D01*
X54187484Y12312985D01*
X54047475Y12350500D01*
X53902525Y12350500D01*
X53902524Y12350500D01*
X53762515Y12312985D01*
X53762513Y12312984D01*
X53636982Y12240508D01*
X53534492Y12138018D01*
X53462016Y12012487D01*
X53462015Y12012485D01*
X53424500Y11872476D01*
X52975500Y11872476D01*
X52937984Y12012485D01*
X52865509Y12138015D01*
X52865508Y12138016D01*
X52865507Y12138018D01*
X52763017Y12240508D01*
X52637486Y12312984D01*
X52637484Y12312985D01*
X52497475Y12350500D01*
X52352525Y12350500D01*
X52352524Y12350500D01*
X52212515Y12312985D01*
X52212513Y12312984D01*
X52086982Y12240508D01*
X51984492Y12138018D01*
X51912016Y12012487D01*
X51912015Y12012485D01*
X51874500Y11872476D01*
X43000000Y11872476D01*
X43000000Y14522476D01*
X46949500Y14522476D01*
X46949500Y14377525D01*
X46987015Y14237516D01*
X46987016Y14237514D01*
X47059492Y14111983D01*
X47161982Y14009493D01*
X47161984Y14009492D01*
X47161985Y14009491D01*
X47287515Y13937016D01*
X47427525Y13899500D01*
X47427527Y13899500D01*
X47572473Y13899500D01*
X47572475Y13899500D01*
X47712485Y13937016D01*
X47838015Y14009491D01*
X47940509Y14111985D01*
X48012984Y14237515D01*
X48050500Y14377525D01*
X48050500Y14522475D01*
X48047280Y14534491D01*
X48041194Y14557207D01*
X48037103Y14572476D01*
X51824500Y14572476D01*
X51824500Y14427525D01*
X51862015Y14287516D01*
X51862016Y14287514D01*
X51934492Y14161983D01*
X52036982Y14059493D01*
X52036984Y14059492D01*
X52036985Y14059491D01*
X52162515Y13987016D01*
X52302525Y13949500D01*
X52302527Y13949500D01*
X52447473Y13949500D01*
X52447475Y13949500D01*
X52587485Y13987016D01*
X52713015Y14059491D01*
X52815509Y14161985D01*
X52887984Y14287515D01*
X52925500Y14427525D01*
X52925500Y14572475D01*
X52925500Y14572476D01*
X53474500Y14572476D01*
X53474500Y14427525D01*
X53512015Y14287516D01*
X53512016Y14287514D01*
X53584492Y14161983D01*
X53686982Y14059493D01*
X53686984Y14059492D01*
X53686985Y14059491D01*
X53812515Y13987016D01*
X53952525Y13949500D01*
X53952527Y13949500D01*
X54097473Y13949500D01*
X54097475Y13949500D01*
X54237485Y13987016D01*
X54363015Y14059491D01*
X54465509Y14161985D01*
X54537984Y14287515D01*
X54575500Y14427525D01*
X54575500Y14572475D01*
X54537984Y14712485D01*
X54465509Y14838015D01*
X54465508Y14838016D01*
X54465507Y14838018D01*
X54363017Y14940508D01*
X54237486Y15012984D01*
X54237484Y15012985D01*
X54097475Y15050500D01*
X53952525Y15050500D01*
X53952524Y15050500D01*
X53812515Y15012985D01*
X53812513Y15012984D01*
X53686982Y14940508D01*
X53584492Y14838018D01*
X53512016Y14712487D01*
X53512015Y14712485D01*
X53474500Y14572476D01*
X52925500Y14572476D01*
X52887984Y14712485D01*
X52815509Y14838015D01*
X52815508Y14838016D01*
X52815507Y14838018D01*
X52713017Y14940508D01*
X52587486Y15012984D01*
X52587484Y15012985D01*
X52447475Y15050500D01*
X52302525Y15050500D01*
X52302524Y15050500D01*
X52162515Y15012985D01*
X52162513Y15012984D01*
X52036982Y14940508D01*
X51934492Y14838018D01*
X51862016Y14712487D01*
X51862015Y14712485D01*
X51824500Y14572476D01*
X48037103Y14572476D01*
X48012984Y14662485D01*
X48012983Y14662487D01*
X47940507Y14788018D01*
X47838017Y14890508D01*
X47712486Y14962984D01*
X47712484Y14962985D01*
X47572475Y15000500D01*
X47427525Y15000500D01*
X47427524Y15000500D01*
X47287515Y14962985D01*
X47287513Y14962984D01*
X47161982Y14890508D01*
X47059492Y14788018D01*
X46987016Y14662487D01*
X46987015Y14662485D01*
X46949500Y14522476D01*
X43000000Y14522476D01*
X43000000Y22921000D01*
X43018482Y22971780D01*
X43065282Y22998800D01*
X43079000Y23000000D01*
X52570500Y23000000D01*
X52621280Y22981518D01*
G37*
%TD.AperFunction*%
%TD*%
%TA.AperFunction,Conductor*%
%TO.N,SGND*%
G36*
X14471780Y44981518D02*
G01*
X14498800Y44934718D01*
X14500000Y44921000D01*
X14500000Y44081143D01*
X14489418Y44041646D01*
X14487016Y44037487D01*
X14487015Y44037485D01*
X14449500Y43897476D01*
X14449500Y43752525D01*
X14478875Y43642895D01*
X14487016Y43612515D01*
X14489415Y43608359D01*
X14500000Y43568859D01*
X14500000Y37500432D01*
X14499552Y37492035D01*
X14485700Y37362452D01*
X14485176Y37356435D01*
X14485059Y37355205D01*
X14484455Y37349338D01*
X14467813Y37148884D01*
X14467434Y37142881D01*
X14467347Y37141651D01*
X14466882Y37135774D01*
X14454991Y36934997D01*
X14454891Y36932458D01*
X14454755Y36929026D01*
X14454700Y36927854D01*
X14454367Y36921836D01*
X14447229Y36720846D01*
X14447136Y36714907D01*
X14447107Y36713670D01*
X14446918Y36707678D01*
X14444538Y36506616D01*
X14444617Y36496513D01*
X14445262Y36473008D01*
X14445263Y36472995D01*
X14447859Y36443007D01*
X14447908Y36442675D01*
X14448496Y36437444D01*
X14448570Y36436496D01*
X14451656Y36417014D01*
X14451795Y36416096D01*
X14452854Y36408856D01*
X14452868Y36408769D01*
X14454670Y36396452D01*
X14454879Y36395536D01*
X14455881Y36390332D01*
X14455913Y36390127D01*
X14459757Y36374101D01*
X14459962Y36373228D01*
X14463610Y36357218D01*
X14463666Y36357039D01*
X14465072Y36351941D01*
X14465293Y36351018D01*
X14465301Y36350990D01*
X14471403Y36332212D01*
X14471688Y36331318D01*
X14477580Y36312422D01*
X14477945Y36311512D01*
X14479741Y36306552D01*
X14479825Y36306293D01*
X14479829Y36306283D01*
X14486084Y36291175D01*
X14486428Y36290330D01*
X14492508Y36275152D01*
X14493117Y36273790D01*
X14500000Y36241539D01*
X14500000Y30881143D01*
X14489418Y30841646D01*
X14487016Y30837487D01*
X14487015Y30837485D01*
X14466714Y30761719D01*
X14449500Y30697475D01*
X14449500Y30552525D01*
X14487016Y30412515D01*
X14489415Y30408359D01*
X14500000Y30368859D01*
X14500000Y28079000D01*
X14481518Y28028220D01*
X14434718Y28001200D01*
X14421000Y28000000D01*
X6579000Y28000000D01*
X6528220Y28018482D01*
X6501200Y28065282D01*
X6500000Y28079000D01*
X6500000Y30035910D01*
X6510583Y30075407D01*
X6573344Y30184112D01*
X6661158Y30396113D01*
X6720548Y30617762D01*
X6739501Y30761719D01*
X6750500Y30845263D01*
X6750500Y31074738D01*
X6720548Y31302239D01*
X6661160Y31523880D01*
X6661159Y31523882D01*
X6661158Y31523887D01*
X6573344Y31735888D01*
X6510584Y31844592D01*
X6500000Y31884092D01*
X6500000Y33297476D01*
X7449500Y33297476D01*
X7449500Y33152525D01*
X7487015Y33012516D01*
X7487016Y33012514D01*
X7559492Y32886983D01*
X7661982Y32784493D01*
X7785391Y32713242D01*
X7787515Y32712016D01*
X7927525Y32674500D01*
X7927527Y32674500D01*
X8072473Y32674500D01*
X8072475Y32674500D01*
X8212485Y32712016D01*
X8338015Y32784491D01*
X8440509Y32886985D01*
X8512984Y33012515D01*
X8550500Y33152525D01*
X8550500Y33297475D01*
X8512984Y33437485D01*
X8440509Y33563015D01*
X8440508Y33563016D01*
X8440507Y33563018D01*
X8338017Y33665508D01*
X8212486Y33737984D01*
X8212484Y33737985D01*
X8072475Y33775500D01*
X7927525Y33775500D01*
X7927524Y33775500D01*
X7787515Y33737985D01*
X7787513Y33737984D01*
X7661982Y33665508D01*
X7559492Y33563018D01*
X7487016Y33437487D01*
X7487015Y33437485D01*
X7449500Y33297476D01*
X6500000Y33297476D01*
X6500000Y34672476D01*
X7749500Y34672476D01*
X7749500Y34527525D01*
X7787015Y34387516D01*
X7787016Y34387514D01*
X7859492Y34261983D01*
X7961982Y34159493D01*
X7961984Y34159492D01*
X7961985Y34159491D01*
X8087515Y34087016D01*
X8227525Y34049500D01*
X8227527Y34049500D01*
X8372473Y34049500D01*
X8372475Y34049500D01*
X8512485Y34087016D01*
X8638015Y34159491D01*
X8740509Y34261985D01*
X8812984Y34387515D01*
X8850500Y34527525D01*
X8850500Y34672475D01*
X8812984Y34812485D01*
X8740509Y34938015D01*
X8740508Y34938016D01*
X8740507Y34938018D01*
X8638017Y35040508D01*
X8512486Y35112984D01*
X8512484Y35112985D01*
X8372475Y35150500D01*
X8227525Y35150500D01*
X8227524Y35150500D01*
X8087515Y35112985D01*
X8087513Y35112984D01*
X7961982Y35040508D01*
X7859492Y34938018D01*
X7787016Y34812487D01*
X7787015Y34812485D01*
X7749500Y34672476D01*
X6500000Y34672476D01*
X6500000Y35200000D01*
X12900000Y35200000D01*
X12900000Y34000000D01*
X14099999Y34000000D01*
X14099999Y35200000D01*
X13726558Y35200000D01*
X13675778Y35218482D01*
X13648758Y35265282D01*
X13658142Y35318500D01*
X13699538Y35353236D01*
X13706111Y35355308D01*
X13707462Y35355671D01*
X13712485Y35357016D01*
X13838015Y35429491D01*
X13940509Y35531985D01*
X14012984Y35657515D01*
X14050500Y35797525D01*
X14050500Y35942475D01*
X14012984Y36082485D01*
X14007945Y36091212D01*
X13958985Y36176013D01*
X13940509Y36208015D01*
X13940508Y36208016D01*
X13940507Y36208018D01*
X13838017Y36310508D01*
X13712486Y36382984D01*
X13712484Y36382985D01*
X13572475Y36420500D01*
X13427525Y36420500D01*
X13427524Y36420500D01*
X13287515Y36382985D01*
X13287513Y36382984D01*
X13161982Y36310508D01*
X13059492Y36208018D01*
X12987016Y36082487D01*
X12987015Y36082485D01*
X12949500Y35942476D01*
X12949500Y35797525D01*
X12987015Y35657516D01*
X12987016Y35657514D01*
X13059492Y35531983D01*
X13161982Y35429493D01*
X13161984Y35429492D01*
X13161985Y35429491D01*
X13169693Y35425041D01*
X13287513Y35357017D01*
X13287515Y35357016D01*
X13293889Y35355308D01*
X13338155Y35324312D01*
X13352141Y35272114D01*
X13329303Y35223138D01*
X13280327Y35200301D01*
X13273442Y35200000D01*
X12900000Y35200000D01*
X6500000Y35200000D01*
X6500000Y37202476D01*
X12949500Y37202476D01*
X12949500Y37057525D01*
X12987015Y36917516D01*
X12987016Y36917514D01*
X13059492Y36791983D01*
X13161982Y36689493D01*
X13161984Y36689492D01*
X13161985Y36689491D01*
X13287515Y36617016D01*
X13427525Y36579500D01*
X13427527Y36579500D01*
X13572473Y36579500D01*
X13572475Y36579500D01*
X13712485Y36617016D01*
X13838015Y36689491D01*
X13940509Y36791985D01*
X14012984Y36917515D01*
X14050500Y37057525D01*
X14050500Y37202475D01*
X14012984Y37342485D01*
X14009027Y37349338D01*
X13955889Y37441376D01*
X13940509Y37468015D01*
X13940508Y37468016D01*
X13940507Y37468018D01*
X13838017Y37570508D01*
X13712486Y37642984D01*
X13712484Y37642985D01*
X13572475Y37680500D01*
X13427525Y37680500D01*
X13427524Y37680500D01*
X13287515Y37642985D01*
X13287513Y37642984D01*
X13161982Y37570508D01*
X13059492Y37468018D01*
X12987016Y37342487D01*
X12987015Y37342485D01*
X12949500Y37202476D01*
X6500000Y37202476D01*
X6500000Y38472476D01*
X12949500Y38472476D01*
X12949500Y38327525D01*
X12987015Y38187516D01*
X12987016Y38187514D01*
X13059492Y38061983D01*
X13161982Y37959493D01*
X13161984Y37959492D01*
X13161985Y37959491D01*
X13287515Y37887016D01*
X13427525Y37849500D01*
X13427527Y37849500D01*
X13572473Y37849500D01*
X13572475Y37849500D01*
X13712485Y37887016D01*
X13838015Y37959491D01*
X13940509Y38061985D01*
X14012984Y38187515D01*
X14050500Y38327525D01*
X14050500Y38472475D01*
X14012984Y38612485D01*
X14008292Y38620611D01*
X13940507Y38738018D01*
X13838017Y38840508D01*
X13712486Y38912984D01*
X13712484Y38912985D01*
X13572475Y38950500D01*
X13427525Y38950500D01*
X13427524Y38950500D01*
X13287515Y38912985D01*
X13287513Y38912984D01*
X13161982Y38840508D01*
X13059492Y38738018D01*
X12987016Y38612487D01*
X12987015Y38612485D01*
X12949500Y38472476D01*
X6500000Y38472476D01*
X6500000Y39797476D01*
X7749500Y39797476D01*
X7749500Y39652525D01*
X7787015Y39512516D01*
X7787016Y39512514D01*
X7859492Y39386983D01*
X7961982Y39284493D01*
X7961984Y39284492D01*
X7961985Y39284491D01*
X8087515Y39212016D01*
X8227525Y39174500D01*
X8227527Y39174500D01*
X8372473Y39174500D01*
X8372475Y39174500D01*
X8512485Y39212016D01*
X8638015Y39284491D01*
X8740509Y39386985D01*
X8812984Y39512515D01*
X8850500Y39652525D01*
X8850500Y39797475D01*
X8812984Y39937485D01*
X8808027Y39946070D01*
X8740507Y40063018D01*
X8638017Y40165508D01*
X8512486Y40237984D01*
X8512484Y40237985D01*
X8372475Y40275500D01*
X8227525Y40275500D01*
X8227524Y40275500D01*
X8087515Y40237985D01*
X8087513Y40237984D01*
X7961982Y40165508D01*
X7859492Y40063018D01*
X7787016Y39937487D01*
X7787015Y39937485D01*
X7749500Y39797476D01*
X6500000Y39797476D01*
X6500000Y42682476D01*
X10759500Y42682476D01*
X10759500Y42537525D01*
X10797015Y42397516D01*
X10797016Y42397514D01*
X10869492Y42271983D01*
X10971982Y42169493D01*
X10971984Y42169492D01*
X10971985Y42169491D01*
X11097515Y42097016D01*
X11237525Y42059500D01*
X11237527Y42059500D01*
X11382473Y42059500D01*
X11382475Y42059500D01*
X11522485Y42097016D01*
X11648015Y42169491D01*
X11750509Y42271985D01*
X11822984Y42397515D01*
X11860500Y42537525D01*
X11860500Y42682475D01*
X11822984Y42822485D01*
X11750509Y42948015D01*
X11750508Y42948016D01*
X11750507Y42948018D01*
X11648017Y43050508D01*
X11522486Y43122984D01*
X11522484Y43122985D01*
X11382475Y43160500D01*
X11237525Y43160500D01*
X11237524Y43160500D01*
X11097515Y43122985D01*
X11097513Y43122984D01*
X10971982Y43050508D01*
X10869492Y42948018D01*
X10797016Y42822487D01*
X10797015Y42822485D01*
X10759500Y42682476D01*
X6500000Y42682476D01*
X6500000Y44921000D01*
X6518482Y44971780D01*
X6565282Y44998800D01*
X6579000Y45000000D01*
X14421000Y45000000D01*
X14471780Y44981518D01*
G37*
%TD.AperFunction*%
%TD*%
M02*
