%TF.GenerationSoftware,KiCad,Pcbnew,10.0.6*%
%TF.CreationDate,2026-10-10T12:18:00-04:00*%
%TF.ProjectId,PS-GAN-60W,50532d47-414e-42d3-9630-572e6b696361,A1 REVIEW - NOT FOR FABRICATION*%
%TF.SameCoordinates,Original*%
%TF.FileFunction,Copper,L3,Inr*%
%TF.FilePolarity,Positive*%
%FSLAX46Y46*%
G04 Gerber Fmt 4.6, Leading zero omitted, Abs format (unit mm)*
G04 Created by KiCad (PCBNEW 10.0.6) date 2026-10-10 12:18:00*
%MOMM*%
%LPD*%
G01*
G04 APERTURE LIST*
G04 Aperture macros list*
%AMRoundRect*
0 Rectangle with rounded corners*
0 $1 Rounding radius*
0 $2 $3 $4 $5 $6 $7 $8 $9 X,Y pos of 4 corners*
0 Add a 4 corners polygon primitive as box body*
4,1,4,$2,$3,$4,$5,$6,$7,$8,$9,$2,$3,0*
0 Add four circle primitives for the rounded corners*
1,1,$1+$1,$2,$3*
1,1,$1+$1,$4,$5*
1,1,$1+$1,$6,$7*
1,1,$1+$1,$8,$9*
0 Add four rect primitives between the rounded corners*
20,1,$1+$1,$2,$3,$4,$5,0*
20,1,$1+$1,$4,$5,$6,$7,0*
20,1,$1+$1,$6,$7,$8,$9,0*
20,1,$1+$1,$8,$9,$2,$3,0*%
G04 Aperture macros list end*
%TA.AperFunction,EtchedComponent*%
%ADD10C,0.000000*%
%TD*%
%TA.AperFunction,ComponentPad*%
%ADD11C,1.400000*%
%TD*%
%TA.AperFunction,ComponentPad*%
%ADD12RoundRect,0.770000X-0.980000X0.980000X-0.980000X-0.980000X0.980000X-0.980000X0.980000X0.980000X0*%
%TD*%
%TA.AperFunction,ComponentPad*%
%ADD13C,3.500000*%
%TD*%
%TA.AperFunction,ComponentPad*%
%ADD14RoundRect,0.770000X0.980000X-0.980000X0.980000X0.980000X-0.980000X0.980000X-0.980000X-0.980000X0*%
%TD*%
%TA.AperFunction,ComponentPad*%
%ADD15C,0.600000*%
%TD*%
%TA.AperFunction,ViaPad*%
%ADD16C,0.600000*%
%TD*%
%TA.AperFunction,Conductor*%
%ADD17C,0.300000*%
%TD*%
%TA.AperFunction,Conductor*%
%ADD18C,0.200000*%
%TD*%
%TA.AperFunction,Conductor*%
%ADD19C,0.250000*%
%TD*%
G04 APERTURE END LIST*
D10*
%TA.AperFunction,EtchedComponent*%
%TO.C,T1*%
G36*
X50220495Y45499294D02*
G01*
X50220531Y45499295D01*
X50220542Y45499293D01*
X50220585Y45499292D01*
X50246019Y45495520D01*
X50267099Y45492399D01*
X50267124Y45492391D01*
X50267152Y45492387D01*
X50291273Y45484812D01*
X50312013Y45478303D01*
X50312034Y45478292D01*
X50312064Y45478283D01*
X50334613Y45467072D01*
X50354171Y45457354D01*
X50354192Y45457338D01*
X50354218Y45457326D01*
X50373953Y45443282D01*
X50392531Y45430068D01*
X50392550Y45430049D01*
X50392573Y45430033D01*
X50410014Y45412932D01*
X50426152Y45397116D01*
X50426167Y45397095D01*
X50426188Y45397075D01*
X50440790Y45377389D01*
X50454204Y45359312D01*
X50454216Y45359288D01*
X50454233Y45359266D01*
X50464979Y45338679D01*
X50475996Y45317584D01*
X50476005Y45317556D01*
X50476017Y45317534D01*
X50484216Y45293122D01*
X50490992Y45272961D01*
X50490995Y45272940D01*
X50491006Y45272909D01*
X50495385Y45246920D01*
X50498823Y45226542D01*
X50498824Y45226507D01*
X50498828Y45226488D01*
X50498828Y45226428D01*
X50499985Y45203014D01*
X50506234Y44581249D01*
X50512479Y44012355D01*
X50518725Y43486797D01*
X50518726Y43486794D01*
X50524976Y42997331D01*
X50524975Y42997317D01*
X50531218Y42538889D01*
X50531219Y42538882D01*
X50537469Y42105595D01*
X50537468Y42105581D01*
X50543711Y41694323D01*
X50543712Y41694319D01*
X50549958Y41300894D01*
X50549959Y41300894D01*
X50556209Y40922376D01*
X50556208Y40922373D01*
X50562453Y40556661D01*
X50562454Y40556649D01*
X50568701Y40200875D01*
X50568702Y40200872D01*
X50574952Y39853020D01*
X50574951Y39853014D01*
X50581198Y39511466D01*
X50581199Y39511459D01*
X50587449Y39174066D01*
X50587448Y39174061D01*
X50593698Y38839355D01*
X50593697Y38839337D01*
X50599946Y38505628D01*
X50599948Y38505607D01*
X50606198Y38171238D01*
X50606197Y38171210D01*
X50606198Y38171200D01*
X50612448Y37834597D01*
X50612447Y37834564D01*
X50612449Y37834534D01*
X50618699Y37494040D01*
X50618698Y37494000D01*
X50618701Y37493950D01*
X50624951Y37147841D01*
X50624949Y37147783D01*
X50624953Y37147726D01*
X50631203Y36794164D01*
X50631201Y36794103D01*
X50631206Y36794026D01*
X50637456Y36431032D01*
X50637454Y36430944D01*
X50637458Y36430873D01*
X50643708Y36056273D01*
X50643705Y36056183D01*
X50643711Y36056092D01*
X50649961Y35667462D01*
X50649958Y35667361D01*
X50649964Y35667262D01*
X50656214Y35261861D01*
X50656211Y35261762D01*
X50656218Y35261644D01*
X50662468Y34836326D01*
X50662465Y34836207D01*
X50662471Y34836095D01*
X50668721Y34387206D01*
X50668717Y34387081D01*
X50668724Y34386962D01*
X50674974Y33910204D01*
X50674970Y33910075D01*
X50674977Y33909950D01*
X50681227Y33400196D01*
X50681223Y33400076D01*
X50681231Y33399933D01*
X50687481Y32850990D01*
X50687476Y32850845D01*
X50687483Y32850722D01*
X50693733Y32255017D01*
X50693729Y32254886D01*
X50693736Y32254746D01*
X50699985Y31602876D01*
X50699288Y31579419D01*
X50699289Y31579381D01*
X50699287Y31579369D01*
X50699286Y31579330D01*
X50695335Y31552741D01*
X50692379Y31532816D01*
X50692372Y31532796D01*
X50692368Y31532765D01*
X50684440Y31507546D01*
X50678270Y31487905D01*
X50678259Y31487884D01*
X50678251Y31487857D01*
X50666890Y31465022D01*
X50657308Y31445753D01*
X50657294Y31445734D01*
X50657282Y31445709D01*
X50643532Y31426399D01*
X50630011Y31407401D01*
X50629991Y31407382D01*
X50629978Y31407362D01*
X50612511Y31389558D01*
X50597049Y31373790D01*
X50597031Y31373778D01*
X50597011Y31373756D01*
X50574336Y31356948D01*
X50559237Y31345750D01*
X50559219Y31345741D01*
X50559194Y31345722D01*
X50536196Y31333726D01*
X50517503Y31323969D01*
X50517478Y31323961D01*
X50517456Y31323949D01*
X50496544Y31316933D01*
X50472876Y31308986D01*
X50472847Y31308982D01*
X50472826Y31308974D01*
X50449638Y31305074D01*
X50426454Y31301169D01*
X50426423Y31301168D01*
X50426403Y31301164D01*
X50426339Y31301164D01*
X50402926Y31300014D01*
X49762657Y31293767D01*
X49176403Y31287520D01*
X48635013Y31281273D01*
X48131104Y31275027D01*
X48131103Y31275026D01*
X47658634Y31268780D01*
X47658632Y31268779D01*
X47212372Y31262529D01*
X47212353Y31262530D01*
X46788774Y31256286D01*
X46383594Y31250039D01*
X45993975Y31243792D01*
X45993960Y31243791D01*
X45617024Y31237541D01*
X45617009Y31237542D01*
X45250815Y31231297D01*
X45250815Y31231296D01*
X44892757Y31225048D01*
X44892741Y31225047D01*
X44540898Y31218797D01*
X44540878Y31218798D01*
X44193667Y31212551D01*
X44193648Y31212549D01*
X43849019Y31206299D01*
X43846376Y31206355D01*
X43843745Y31206250D01*
X32502830Y31200002D01*
X32161252Y31193799D01*
X32161227Y31193800D01*
X32161217Y31193799D01*
X31814741Y31187549D01*
X31814709Y31187550D01*
X31814679Y31187548D01*
X31464216Y31181298D01*
X31464180Y31181299D01*
X31464130Y31181296D01*
X31107904Y31175046D01*
X31107850Y31175048D01*
X31107793Y31175044D01*
X30743916Y31168794D01*
X30743846Y31168796D01*
X30743782Y31168792D01*
X30370217Y31162542D01*
X30370144Y31162544D01*
X30370060Y31162539D01*
X29984568Y31156290D01*
X29984472Y31156293D01*
X29984394Y31156288D01*
X29584483Y31150038D01*
X29584387Y31150041D01*
X29584289Y31150035D01*
X29167137Y31143785D01*
X29167031Y31143788D01*
X29166927Y31143782D01*
X28729300Y31137532D01*
X28729200Y31137535D01*
X28729076Y31137528D01*
X28267215Y31131277D01*
X28267095Y31131281D01*
X28266977Y31131274D01*
X27776459Y31125024D01*
X27776335Y31125028D01*
X27776211Y31125021D01*
X27251763Y31118772D01*
X27251637Y31118776D01*
X27251508Y31118769D01*
X26686759Y31112519D01*
X26686620Y31112523D01*
X26686499Y31112517D01*
X26073659Y31106267D01*
X26073534Y31106271D01*
X26073396Y31106264D01*
X25402796Y31100014D01*
X25379363Y31100717D01*
X25379298Y31100716D01*
X25379277Y31100720D01*
X25379250Y31100720D01*
X25359238Y31103699D01*
X25332734Y31107639D01*
X25332709Y31107647D01*
X25332688Y31107650D01*
X25311410Y31114346D01*
X25287828Y31121761D01*
X25287808Y31121772D01*
X25287783Y31121779D01*
X25267191Y31132031D01*
X25245682Y31142734D01*
X25245661Y31142750D01*
X25245641Y31142759D01*
X25228804Y31154755D01*
X25207337Y31170042D01*
X25207318Y31170062D01*
X25207301Y31170073D01*
X25192637Y31184467D01*
X25173735Y31203013D01*
X25173720Y31203034D01*
X25173704Y31203049D01*
X25161234Y31219881D01*
X25145705Y31240833D01*
X25145693Y31240858D01*
X25145680Y31240874D01*
X25135944Y31259552D01*
X25123937Y31282573D01*
X25123929Y31282597D01*
X25123918Y31282618D01*
X25116300Y31305341D01*
X25108966Y31327204D01*
X25108963Y31327227D01*
X25108954Y31327251D01*
X25104495Y31353802D01*
X25101162Y31373629D01*
X25101161Y31373655D01*
X25101157Y31373677D01*
X25101157Y31373745D01*
X25100013Y31397157D01*
X25093763Y32056427D01*
X25093764Y32056435D01*
X25087516Y32659817D01*
X25087517Y32659820D01*
X25081270Y33216986D01*
X25075024Y33735495D01*
X25068777Y34221688D01*
X25062530Y34680753D01*
X25056281Y35116961D01*
X25056282Y35116962D01*
X25050037Y35533682D01*
X25050036Y35533699D01*
X25043786Y35934779D01*
X25043787Y35934790D01*
X25037542Y36322303D01*
X25037541Y36322308D01*
X25031291Y36699350D01*
X25031292Y36699351D01*
X25025043Y37067716D01*
X25025044Y37067727D01*
X25018797Y37429512D01*
X25018796Y37429516D01*
X25012546Y37786848D01*
X25012547Y37786855D01*
X25006298Y38141283D01*
X25006297Y38141290D01*
X25005259Y38200000D01*
X24000000Y38200000D01*
X23976462Y38200925D01*
X23974701Y38201204D01*
X23972925Y38201225D01*
X23951489Y38204881D01*
X23929966Y38208289D01*
X23928275Y38208839D01*
X23926519Y38209138D01*
X23905891Y38216112D01*
X23885195Y38222836D01*
X23883610Y38223644D01*
X23881923Y38224214D01*
X23862649Y38234324D01*
X23843250Y38244208D01*
X23841810Y38245255D01*
X23840234Y38246081D01*
X23822763Y38259094D01*
X23805166Y38271878D01*
X23803911Y38273134D01*
X23802480Y38274199D01*
X23787265Y38289780D01*
X23771878Y38305166D01*
X23770831Y38306608D01*
X23769589Y38307879D01*
X23757017Y38325622D01*
X23744208Y38343250D01*
X23743400Y38344837D01*
X23742371Y38346288D01*
X23732723Y38365792D01*
X23722836Y38385195D01*
X23722286Y38386889D01*
X23721497Y38388483D01*
X23715023Y38409244D01*
X23708289Y38429966D01*
X23708011Y38431727D01*
X23707481Y38433423D01*
X23704331Y38454963D01*
X23700925Y38476462D01*
X23700925Y38478239D01*
X23700667Y38480003D01*
X23700021Y38503550D01*
X23702401Y38704677D01*
X23702583Y38708224D01*
X23702569Y38711774D01*
X23709708Y38912791D01*
X23709974Y38916335D01*
X23710044Y38919880D01*
X23721936Y39120670D01*
X23722285Y39124194D01*
X23722439Y39127752D01*
X23739080Y39328205D01*
X23739513Y39331728D01*
X23739751Y39335272D01*
X23761130Y39535274D01*
X23761649Y39538801D01*
X23761969Y39542324D01*
X23788074Y39741765D01*
X23788675Y39745273D01*
X23789079Y39748791D01*
X23819896Y39947558D01*
X23820579Y39951048D01*
X23821067Y39954560D01*
X23856579Y40152543D01*
X23857343Y40156008D01*
X23857915Y40159516D01*
X23898102Y40356602D01*
X23898946Y40360041D01*
X23899602Y40363541D01*
X23944441Y40559621D01*
X23945367Y40563043D01*
X23946105Y40566522D01*
X23995571Y40761487D01*
X23996583Y40764903D01*
X23997399Y40768347D01*
X24051463Y40962085D01*
X24052555Y40965475D01*
X24053453Y40968901D01*
X24112088Y41161307D01*
X24113253Y41164650D01*
X24114237Y41168073D01*
X24177408Y41359037D01*
X24185679Y41381094D01*
X24207273Y41422925D01*
X24235145Y41460862D01*
X24268608Y41493972D01*
X24306839Y41521439D01*
X24348897Y41542588D01*
X24393744Y41556898D01*
X24440279Y41564015D01*
X24487354Y41563765D01*
X24533810Y41556154D01*
X24578504Y41541369D01*
X24620335Y41519775D01*
X24658272Y41491903D01*
X24691382Y41458440D01*
X24718849Y41420209D01*
X24739998Y41378151D01*
X24754308Y41333304D01*
X24761425Y41286769D01*
X24761175Y41239694D01*
X24753564Y41193238D01*
X24747050Y41170601D01*
X24684989Y40982990D01*
X24628437Y40797417D01*
X24576273Y40610494D01*
X24528552Y40422406D01*
X24485292Y40233231D01*
X24446527Y40043120D01*
X24412270Y39852132D01*
X24382543Y39660398D01*
X24357355Y39467971D01*
X24336731Y39275032D01*
X24320677Y39081663D01*
X24309205Y38887958D01*
X24306081Y38800000D01*
X25300000Y38800000D01*
X25315420Y38799394D01*
X25318246Y38799444D01*
X25319841Y38799220D01*
X25323538Y38799075D01*
X25344176Y38795806D01*
X25364865Y38792904D01*
X25367410Y38792126D01*
X25370034Y38791711D01*
X25389891Y38785259D01*
X25409886Y38779151D01*
X25412278Y38777985D01*
X25414805Y38777164D01*
X25433403Y38767688D01*
X25452203Y38758524D01*
X25454384Y38756997D01*
X25456750Y38755792D01*
X25473651Y38743513D01*
X25490770Y38731531D01*
X25492682Y38729685D01*
X25494834Y38728122D01*
X25509620Y38713336D01*
X25524641Y38698837D01*
X25526241Y38696715D01*
X25528122Y38694834D01*
X25540417Y38677912D01*
X25552980Y38661248D01*
X25554228Y38658903D01*
X25555792Y38656750D01*
X25565279Y38638131D01*
X25575091Y38619688D01*
X25575958Y38617172D01*
X25577164Y38614805D01*
X25583619Y38594940D01*
X25590427Y38575181D01*
X25590890Y38572563D01*
X25591711Y38570034D01*
X25594980Y38549395D01*
X25598612Y38528823D01*
X25598823Y38525132D01*
X25599075Y38523538D01*
X25599075Y38520703D01*
X25599953Y38505305D01*
X25606203Y38151899D01*
X25606203Y38151887D01*
X25606203Y38151882D01*
X25612453Y37797382D01*
X25612453Y37797365D01*
X25612454Y37797340D01*
X25618704Y37440009D01*
X25618704Y37439974D01*
X25618705Y37439942D01*
X25624955Y37077983D01*
X25624955Y37077944D01*
X25624957Y37077892D01*
X25631207Y36709410D01*
X25631206Y36709353D01*
X25631209Y36709294D01*
X25637459Y36332252D01*
X25637458Y36332180D01*
X25637461Y36332114D01*
X25643711Y35944287D01*
X25643710Y35944213D01*
X25643714Y35944127D01*
X25649964Y35543048D01*
X25649962Y35542950D01*
X25649966Y35542869D01*
X25656216Y35125752D01*
X25656214Y35125655D01*
X25656219Y35125555D01*
X25662469Y34689224D01*
X25662467Y34689118D01*
X25662472Y34689010D01*
X25668722Y34229776D01*
X25668720Y34229662D01*
X25668725Y34229548D01*
X25674975Y33743082D01*
X25674972Y33742962D01*
X25674978Y33742841D01*
X25681228Y33223989D01*
X25681225Y33223866D01*
X25681231Y33223739D01*
X25687481Y32666286D01*
X25687478Y32666161D01*
X25687484Y32666029D01*
X25693734Y32062377D01*
X25693731Y32062252D01*
X25693737Y32062115D01*
X25697144Y31702784D01*
X26067804Y31706238D01*
X26067812Y31706238D01*
X26680104Y31712483D01*
X26680120Y31712483D01*
X27244868Y31718733D01*
X27769063Y31724979D01*
X28259333Y31731226D01*
X28720956Y31737474D01*
X28720976Y31737474D01*
X29158359Y31743720D01*
X29575301Y31749967D01*
X29974825Y31756211D01*
X29974843Y31756212D01*
X30360336Y31762461D01*
X30360346Y31762461D01*
X30733746Y31768708D01*
X31097489Y31774956D01*
X31097491Y31774956D01*
X31453604Y31781204D01*
X31453616Y31781204D01*
X31803981Y31787452D01*
X32150343Y31793701D01*
X32150359Y31793701D01*
X32494553Y31799951D01*
X32497200Y31799896D01*
X32499834Y31800000D01*
X43840761Y31806249D01*
X44182768Y31812451D01*
X44182799Y31812451D01*
X44182811Y31812451D01*
X44530173Y31818701D01*
X44530197Y31818701D01*
X44530241Y31818703D01*
X44882085Y31824953D01*
X44882139Y31824952D01*
X44882178Y31824954D01*
X45240347Y31831204D01*
X45240407Y31831203D01*
X45240466Y31831206D01*
X45606935Y31837456D01*
X45606998Y31837455D01*
X45607077Y31837459D01*
X45984012Y31843709D01*
X45984103Y31843707D01*
X45984177Y31843711D01*
X46373974Y31849961D01*
X46374065Y31849959D01*
X46374159Y31849964D01*
X46779524Y31856214D01*
X46779626Y31856212D01*
X46779728Y31856217D01*
X47203750Y31862467D01*
X47203849Y31862465D01*
X47203970Y31862471D01*
X47650230Y31868721D01*
X47650350Y31868718D01*
X47650465Y31868724D01*
X48123171Y31874974D01*
X48123296Y31874971D01*
X48123418Y31874977D01*
X48627575Y31881227D01*
X48627705Y31881224D01*
X48627833Y31881230D01*
X49169481Y31887480D01*
X49169612Y31887477D01*
X49169746Y31887483D01*
X49756263Y31893733D01*
X49756394Y31893730D01*
X49756533Y31893736D01*
X50097137Y31897060D01*
X50093764Y32248994D01*
X50093764Y32248998D01*
X50087520Y32844139D01*
X50087519Y32844159D01*
X50081269Y33393103D01*
X50081269Y33393123D01*
X50075026Y33902336D01*
X50075026Y33902339D01*
X50068779Y34378848D01*
X50068779Y34378853D01*
X50062532Y34827505D01*
X50062532Y34827510D01*
X50056282Y35252828D01*
X50056282Y35252845D01*
X50050039Y35657812D01*
X50050039Y35657814D01*
X50043789Y36046411D01*
X50037544Y36420687D01*
X50037544Y36420703D01*
X50031294Y36783696D01*
X50031294Y36783711D01*
X50025049Y37137008D01*
X50018799Y37483118D01*
X50018799Y37483128D01*
X50012552Y37823456D01*
X50012552Y37823459D01*
X50006303Y38160008D01*
X50006302Y38160025D01*
X50000052Y38494393D01*
X50000052Y38494414D01*
X49993803Y38828138D01*
X49993802Y38828155D01*
X49987552Y39162910D01*
X49987552Y39162929D01*
X49987551Y39162954D01*
X49981301Y39500347D01*
X49981301Y39500385D01*
X49981300Y39500417D01*
X49975050Y39842145D01*
X49975050Y39842190D01*
X49975048Y39842242D01*
X49968798Y40190094D01*
X49968799Y40190156D01*
X49968796Y40190215D01*
X49962546Y40546113D01*
X49962547Y40546193D01*
X49962544Y40546260D01*
X49956294Y40912302D01*
X49956295Y40912384D01*
X49956291Y40912471D01*
X49950041Y41290988D01*
X49950043Y41291084D01*
X49950038Y41291178D01*
X49943788Y41684793D01*
X49943790Y41684901D01*
X49943785Y41685003D01*
X49937535Y42096714D01*
X49937537Y42096819D01*
X49937531Y42096941D01*
X49931281Y42530228D01*
X49931284Y42530353D01*
X49931278Y42530469D01*
X49925028Y42989416D01*
X49925031Y42989534D01*
X49925024Y42989670D01*
X49918774Y43479134D01*
X49918777Y43479269D01*
X49918771Y43479399D01*
X49912521Y44005241D01*
X49912524Y44005378D01*
X49912518Y44005513D01*
X49906268Y44574897D01*
X49906271Y44575035D01*
X49906265Y44575175D01*
X49903029Y44897053D01*
X49570102Y44893768D01*
X48991806Y44887520D01*
X48458943Y44881273D01*
X48458939Y44881273D01*
X47964148Y44875026D01*
X47964141Y44875026D01*
X47501144Y44868776D01*
X47065730Y44862534D01*
X47065720Y44862534D01*
X46652711Y44856283D01*
X46259493Y44850040D01*
X46259487Y44850040D01*
X45882327Y44843794D01*
X45882325Y44843794D01*
X45518782Y44837547D01*
X45166503Y44831300D01*
X44823376Y44825052D01*
X44823373Y44825052D01*
X44487470Y44818804D01*
X44157018Y44812555D01*
X44157012Y44812555D01*
X43830320Y44806306D01*
X43505776Y44800056D01*
X43502976Y44800111D01*
X43500166Y44800000D01*
X32179062Y44793751D01*
X31856958Y44787556D01*
X31856938Y44787556D01*
X31856913Y44787555D01*
X31529489Y44781305D01*
X31529462Y44781305D01*
X31529417Y44781303D01*
X31197805Y44775053D01*
X31197758Y44775053D01*
X31197706Y44775051D01*
X30860168Y44768801D01*
X30860102Y44768802D01*
X30860043Y44768799D01*
X30514716Y44762549D01*
X30514646Y44762550D01*
X30514567Y44762546D01*
X30159416Y44756296D01*
X30159329Y44756297D01*
X30159242Y44756293D01*
X29792007Y44750043D01*
X29791906Y44750045D01*
X29791811Y44750040D01*
X29409947Y44743790D01*
X29409834Y44743792D01*
X29409731Y44743787D01*
X29010328Y44737537D01*
X29010217Y44737539D01*
X29010094Y44737533D01*
X28589781Y44731283D01*
X28589649Y44731286D01*
X28589531Y44731280D01*
X28144346Y44725030D01*
X28144221Y44725033D01*
X28144084Y44725026D01*
X27669315Y44718776D01*
X27669173Y44718779D01*
X27669042Y44718773D01*
X27159006Y44712523D01*
X27158875Y44712526D01*
X27158725Y44712519D01*
X26606474Y44706269D01*
X26606330Y44706273D01*
X26606188Y44706266D01*
X26303036Y44703124D01*
X26306232Y44388855D01*
X26312478Y43827781D01*
X26312478Y43827777D01*
X26318725Y43310734D01*
X26318725Y43310725D01*
X26324975Y42830359D01*
X26324975Y42830352D01*
X26331221Y42381393D01*
X26331221Y42381388D01*
X26337464Y41958972D01*
X26337464Y41958957D01*
X26343714Y41558256D01*
X26343714Y41558250D01*
X26349960Y41176586D01*
X26349960Y41176576D01*
X26356203Y40810930D01*
X26356203Y40810924D01*
X26362450Y40458278D01*
X26368700Y40116428D01*
X26368700Y40116421D01*
X26374945Y39783771D01*
X26374945Y39783764D01*
X26381195Y39457884D01*
X26381195Y39457880D01*
X26387442Y39137500D01*
X26387442Y39137492D01*
X26393692Y38820634D01*
X26393692Y38820629D01*
X26399941Y38505973D01*
X26399941Y38505968D01*
X26406191Y38191864D01*
X26406191Y38191852D01*
X26406191Y38191847D01*
X26412441Y37876838D01*
X26412441Y37876817D01*
X26412442Y37876792D01*
X26418692Y37559336D01*
X26418692Y37559294D01*
X26418693Y37559262D01*
X26424943Y37237765D01*
X26424942Y37237715D01*
X26424945Y37237663D01*
X26431195Y36910441D01*
X26431194Y36910384D01*
X26431198Y36910312D01*
X26437448Y36575557D01*
X26437447Y36575483D01*
X26437451Y36575403D01*
X26443701Y36231143D01*
X26443700Y36231052D01*
X26443704Y36230965D01*
X26449954Y35875011D01*
X26449952Y35874904D01*
X26449957Y35874809D01*
X26456207Y35504695D01*
X26456205Y35504589D01*
X26456211Y35504473D01*
X26462461Y35117380D01*
X26462459Y35117262D01*
X26462465Y35117138D01*
X26468715Y34709797D01*
X26468712Y34709672D01*
X26468719Y34709541D01*
X26474969Y34278117D01*
X26474966Y34277972D01*
X26474972Y34277846D01*
X26481222Y33817771D01*
X26481219Y33817634D01*
X26481226Y33817489D01*
X26487476Y33323259D01*
X26487473Y33323121D01*
X26487480Y33322970D01*
X26493730Y32787853D01*
X26493726Y32787702D01*
X26493733Y32787558D01*
X26496776Y32503131D01*
X26792531Y32506233D01*
X27336245Y32512478D01*
X27837770Y32518728D01*
X27837774Y32518728D01*
X28303154Y32524974D01*
X28738351Y32531220D01*
X29148052Y32537466D01*
X29536188Y32543712D01*
X29906101Y32549958D01*
X29906106Y32549958D01*
X30260455Y32556200D01*
X30260468Y32556200D01*
X30602393Y32562450D01*
X30933495Y32568697D01*
X30933497Y32568697D01*
X31255960Y32574944D01*
X31255973Y32574944D01*
X31571599Y32581191D01*
X31571600Y32581191D01*
X31882087Y32587439D01*
X32189000Y32593688D01*
X32189005Y32593688D01*
X32493852Y32599937D01*
X32496845Y32599881D01*
X32499834Y32600000D01*
X43801130Y32606249D01*
X44103271Y32612437D01*
X44103293Y32612437D01*
X44103318Y32612438D01*
X44410804Y32618688D01*
X44410836Y32618688D01*
X44410880Y32618690D01*
X44722263Y32624940D01*
X44722315Y32624939D01*
X44722367Y32624942D01*
X45039276Y32631192D01*
X45039350Y32631191D01*
X45039409Y32631194D01*
X45363590Y32637444D01*
X45363669Y32637443D01*
X45363749Y32637447D01*
X45697118Y32643697D01*
X45697202Y32643696D01*
X45697302Y32643701D01*
X46041974Y32649951D01*
X46042087Y32649949D01*
X46042182Y32649954D01*
X46400546Y32656204D01*
X46400659Y32656202D01*
X46400775Y32656208D01*
X46775560Y32662458D01*
X46775684Y32662456D01*
X46775808Y32662462D01*
X47170175Y32668712D01*
X47170308Y32668709D01*
X47170440Y32668716D01*
X47588105Y32674966D01*
X47588245Y32674963D01*
X47588384Y32674970D01*
X48033765Y32681220D01*
X48033909Y32681217D01*
X48034055Y32681224D01*
X48512480Y32687474D01*
X48512626Y32687471D01*
X48512779Y32687478D01*
X49030762Y32693728D01*
X49030908Y32693725D01*
X49031067Y32693732D01*
X49296768Y32696668D01*
X49293771Y32973383D01*
X49293771Y32973391D01*
X49287521Y33500562D01*
X49287521Y33500565D01*
X49281276Y33985861D01*
X49275032Y34436380D01*
X49268787Y34857808D01*
X49268787Y34857810D01*
X49262541Y35254539D01*
X49262541Y35254542D01*
X49256291Y35630623D01*
X49256291Y35630642D01*
X49250048Y35988606D01*
X49243804Y36331831D01*
X49243803Y36331849D01*
X49237553Y36662882D01*
X49237553Y36662894D01*
X49231310Y36983247D01*
X49231310Y36983248D01*
X49225060Y37295550D01*
X49225060Y37295559D01*
X49218815Y37600965D01*
X49218815Y37600967D01*
X49212566Y37901498D01*
X49212566Y37901511D01*
X49206316Y38198623D01*
X49206316Y38198625D01*
X49200067Y38493647D01*
X49200067Y38493666D01*
X49193818Y38788088D01*
X49193817Y38788105D01*
X49187567Y39083368D01*
X49187567Y39083392D01*
X49187566Y39083416D01*
X49181316Y39380933D01*
X49181316Y39380980D01*
X49181315Y39381011D01*
X49175065Y39682279D01*
X49175065Y39682322D01*
X49175062Y39682386D01*
X49168812Y39988980D01*
X49168813Y39989058D01*
X49168810Y39989117D01*
X49162560Y40302726D01*
X49162561Y40302798D01*
X49162556Y40302890D01*
X49156306Y40625367D01*
X49156308Y40625470D01*
X49156303Y40625557D01*
X49150053Y40958947D01*
X49150055Y40959054D01*
X49150049Y40959162D01*
X49143799Y41305775D01*
X49143801Y41305895D01*
X49143795Y41306012D01*
X49137545Y41668487D01*
X49137547Y41668606D01*
X49137540Y41668744D01*
X49131290Y42050138D01*
X49131293Y42050280D01*
X49131286Y42050413D01*
X49125036Y42454316D01*
X49125039Y42454464D01*
X49125032Y42454605D01*
X49118782Y42885291D01*
X49118785Y42885431D01*
X49118777Y42885592D01*
X49112527Y43348210D01*
X49112531Y43348365D01*
X49112523Y43348520D01*
X49106273Y43849369D01*
X49106277Y43849535D01*
X49106270Y43849683D01*
X49103447Y44096660D01*
X48845459Y44093772D01*
X48335736Y44087526D01*
X47866131Y44081280D01*
X47866129Y44081280D01*
X47430152Y44075034D01*
X47430145Y44075034D01*
X47022188Y44068784D01*
X46638735Y44062543D01*
X46638725Y44062543D01*
X46274952Y44056293D01*
X45928796Y44050052D01*
X45928791Y44050052D01*
X45596783Y44043807D01*
X45276831Y44037561D01*
X44966867Y44031314D01*
X44966860Y44031314D01*
X44665007Y44025067D01*
X44369586Y44018819D01*
X44369580Y44018819D01*
X44079007Y44012571D01*
X43791814Y44006322D01*
X43506572Y44000072D01*
X43503368Y44000127D01*
X43500166Y44000000D01*
X32218734Y43993751D01*
X31936551Y43987572D01*
X31936525Y43987572D01*
X31936501Y43987571D01*
X31648952Y43981321D01*
X31648915Y43981321D01*
X31648871Y43981319D01*
X31357721Y43975069D01*
X31357661Y43975070D01*
X31357609Y43975067D01*
X31061331Y43968817D01*
X31061262Y43968818D01*
X31061190Y43968814D01*
X30758151Y43962564D01*
X30758073Y43962565D01*
X30757981Y43962560D01*
X30446397Y43956310D01*
X30446301Y43956311D01*
X30446201Y43956306D01*
X30124093Y43950056D01*
X30123980Y43950058D01*
X30123871Y43950052D01*
X29789008Y43943802D01*
X29788880Y43943804D01*
X29788763Y43943798D01*
X29438597Y43937548D01*
X29438470Y43937550D01*
X29438332Y43937543D01*
X29069910Y43931293D01*
X29069773Y43931296D01*
X29069626Y43931288D01*
X28679483Y43925038D01*
X28679326Y43925041D01*
X28679185Y43925034D01*
X28263193Y43918784D01*
X28263044Y43918787D01*
X28262882Y43918779D01*
X27816069Y43912529D01*
X27815906Y43912533D01*
X27815749Y43912525D01*
X27332033Y43906275D01*
X27331870Y43906279D01*
X27331707Y43906271D01*
X27103455Y43903569D01*
X27106229Y43664145D01*
X27112472Y43171742D01*
X27112472Y43171739D01*
X27118722Y42717631D01*
X27118722Y42717623D01*
X27124967Y42296360D01*
X27124967Y42296357D01*
X27131212Y41902491D01*
X27137452Y41532021D01*
X27137453Y41532003D01*
X27143703Y41180541D01*
X27143703Y41180539D01*
X27149948Y40845904D01*
X27149948Y40845897D01*
X27156189Y40525435D01*
X27156189Y40525428D01*
X27162437Y40216314D01*
X27168685Y39916812D01*
X27168685Y39916802D01*
X27174928Y39625450D01*
X27181176Y39340151D01*
X27181176Y39340141D01*
X27187426Y39059461D01*
X27187426Y39059456D01*
X27193273Y38800000D01*
X27800000Y38800000D01*
X27823538Y38799075D01*
X27870034Y38791711D01*
X27914805Y38777164D01*
X27956750Y38755792D01*
X27994834Y38728122D01*
X28028122Y38694834D01*
X28055792Y38656750D01*
X28077164Y38614805D01*
X28091711Y38570034D01*
X28099075Y38523538D01*
X28100000Y38500000D01*
X28099075Y38476462D01*
X28091711Y38429966D01*
X28077164Y38385195D01*
X28055792Y38343250D01*
X28028122Y38305166D01*
X27994834Y38271878D01*
X27956750Y38244208D01*
X27914805Y38222836D01*
X27870034Y38208289D01*
X27823538Y38200925D01*
X27800000Y38200000D01*
X26900000Y38200000D01*
X26886321Y38200538D01*
X26883253Y38200468D01*
X26881271Y38200737D01*
X26876462Y38200925D01*
X26856573Y38204076D01*
X26836602Y38206775D01*
X26833334Y38207756D01*
X26829966Y38208289D01*
X26810804Y38214516D01*
X26791513Y38220303D01*
X26788442Y38221781D01*
X26785195Y38222836D01*
X26767228Y38231992D01*
X26749094Y38240718D01*
X26746293Y38242658D01*
X26743250Y38244208D01*
X26726947Y38256054D01*
X26710392Y38267516D01*
X26707926Y38269874D01*
X26705166Y38271878D01*
X26690918Y38286127D01*
X26676357Y38300041D01*
X26674291Y38302754D01*
X26671878Y38305166D01*
X26660038Y38321463D01*
X26647830Y38337487D01*
X26646213Y38340492D01*
X26644208Y38343250D01*
X26635066Y38361194D01*
X26625512Y38378936D01*
X26624385Y38382157D01*
X26622836Y38385195D01*
X26616612Y38404354D01*
X26609953Y38423366D01*
X26609344Y38426722D01*
X26608289Y38429966D01*
X26605138Y38449867D01*
X26601536Y38469683D01*
X26601238Y38474487D01*
X26600925Y38476462D01*
X26600925Y38479529D01*
X26600077Y38493194D01*
X26593827Y38768611D01*
X26593828Y38768636D01*
X26593826Y38768659D01*
X26587576Y39046025D01*
X26587577Y39046061D01*
X26587574Y39046104D01*
X26581324Y39326783D01*
X26581326Y39326845D01*
X26581322Y39326895D01*
X26575072Y39612314D01*
X26575074Y39612385D01*
X26575069Y39612455D01*
X26568819Y39904127D01*
X26568821Y39904206D01*
X26568815Y39904296D01*
X26562565Y40203858D01*
X26562567Y40203956D01*
X26562561Y40204054D01*
X26556311Y40513304D01*
X26556314Y40513419D01*
X26556307Y40513525D01*
X26550057Y40834465D01*
X26550060Y40834582D01*
X26550052Y40834709D01*
X26543802Y41169609D01*
X26543805Y41169738D01*
X26543797Y41169873D01*
X26537547Y41521335D01*
X26537551Y41521486D01*
X26537543Y41521616D01*
X26531293Y41892664D01*
X26531297Y41892810D01*
X26531288Y41892961D01*
X26525038Y42287157D01*
X26525042Y42287308D01*
X26525033Y42287466D01*
X26518783Y42709055D01*
X26518787Y42709208D01*
X26518778Y42709373D01*
X26512528Y43163481D01*
X26512533Y43163647D01*
X26512524Y43163806D01*
X26506274Y43656710D01*
X26506279Y43656874D01*
X26506270Y43657039D01*
X26500021Y44196525D01*
X26500669Y44219923D01*
X26500668Y44219997D01*
X26500672Y44220021D01*
X26500673Y44220072D01*
X26504330Y44245025D01*
X26507482Y44266577D01*
X26507492Y44266608D01*
X26507498Y44266651D01*
X26514995Y44290664D01*
X26521498Y44311517D01*
X26521515Y44311550D01*
X26521526Y44311587D01*
X26531802Y44332345D01*
X26542372Y44353712D01*
X26542395Y44353743D01*
X26542411Y44353777D01*
X26556183Y44373201D01*
X26569590Y44392121D01*
X26569616Y44392146D01*
X26569638Y44392179D01*
X26585620Y44408535D01*
X26602481Y44425801D01*
X26602515Y44425825D01*
X26602538Y44425850D01*
X26619935Y44438799D01*
X26640235Y44453919D01*
X26640270Y44453937D01*
X26640299Y44453959D01*
X26661539Y44465093D01*
X26681924Y44475786D01*
X26681958Y44475797D01*
X26681993Y44475816D01*
X26704287Y44483345D01*
X26726520Y44490862D01*
X26726560Y44490868D01*
X26726593Y44490880D01*
X26747467Y44494434D01*
X26772926Y44498776D01*
X26772983Y44498778D01*
X26773001Y44498782D01*
X26773056Y44498782D01*
X26796451Y44499979D01*
X27324607Y44506229D01*
X27807997Y44512475D01*
X28254490Y44518721D01*
X28254499Y44518720D01*
X28669873Y44524962D01*
X29060016Y44531212D01*
X29060021Y44531211D01*
X29428154Y44537457D01*
X29428161Y44537456D01*
X29777811Y44543698D01*
X30112675Y44549948D01*
X30434561Y44556194D01*
X30434563Y44556193D01*
X30745949Y44562440D01*
X30745962Y44562439D01*
X31048818Y44568686D01*
X31048819Y44568685D01*
X31344955Y44574933D01*
X31635995Y44581181D01*
X31636002Y44581180D01*
X31923463Y44587429D01*
X32208804Y44593678D01*
X32212005Y44593622D01*
X32215206Y44593750D01*
X43496634Y44599998D01*
X43778670Y44606178D01*
X43778693Y44606177D01*
X43778716Y44606179D01*
X44065955Y44612429D01*
X44065989Y44612428D01*
X44066032Y44612431D01*
X44356680Y44618681D01*
X44356737Y44618679D01*
X44356787Y44618683D01*
X44652321Y44624933D01*
X44652386Y44624931D01*
X44652456Y44624936D01*
X44954444Y44631186D01*
X44954529Y44631184D01*
X44954607Y44631189D01*
X45264741Y44637439D01*
X45264832Y44637437D01*
X45264930Y44637443D01*
X45585071Y44643693D01*
X45585179Y44643690D01*
X45585285Y44643697D01*
X45917507Y44649946D01*
X45917628Y44649943D01*
X45917741Y44649950D01*
X46264391Y44656200D01*
X46264511Y44656197D01*
X46264645Y44656205D01*
X46628417Y44662455D01*
X46628560Y44662451D01*
X46628689Y44662459D01*
X47012711Y44668709D01*
X47012847Y44668705D01*
X47012997Y44668714D01*
X47420953Y44674964D01*
X47421108Y44674960D01*
X47421252Y44674968D01*
X47857535Y44681218D01*
X47857691Y44681214D01*
X47857842Y44681222D01*
X48327756Y44687472D01*
X48327913Y44687467D01*
X48328070Y44687476D01*
X48838107Y44693726D01*
X48838261Y44693721D01*
X48838424Y44693730D01*
X49396640Y44699980D01*
X49420065Y44699322D01*
X49420117Y44699323D01*
X49420134Y44699320D01*
X49420187Y44699319D01*
X49446376Y44695471D01*
X49466694Y44692491D01*
X49466723Y44692481D01*
X49466763Y44692476D01*
X49490788Y44684965D01*
X49511629Y44678457D01*
X49511660Y44678441D01*
X49511694Y44678431D01*
X49532617Y44668063D01*
X49553815Y44657566D01*
X49553844Y44657545D01*
X49553875Y44657530D01*
X49572856Y44644060D01*
X49592213Y44630333D01*
X49592237Y44630308D01*
X49592267Y44630288D01*
X49608818Y44614102D01*
X49625879Y44597428D01*
X49625900Y44597398D01*
X49625925Y44597375D01*
X49639611Y44578974D01*
X49653983Y44559662D01*
X49653999Y44559630D01*
X49654020Y44559603D01*
X49664548Y44539499D01*
X49675833Y44517964D01*
X49675844Y44517928D01*
X49675860Y44517900D01*
X49683702Y44494654D01*
X49690890Y44473363D01*
X49690895Y44473333D01*
X49690908Y44473295D01*
X49695379Y44446971D01*
X49698785Y44426954D01*
X49698787Y44426912D01*
X49698792Y44426884D01*
X49698792Y44426796D01*
X49699979Y44403428D01*
X49706226Y43856869D01*
X49706227Y43856855D01*
X49712474Y43356188D01*
X49718723Y42893697D01*
X49718722Y42893680D01*
X49724963Y42463604D01*
X49724964Y42463600D01*
X49731209Y42059975D01*
X49731210Y42059970D01*
X49737460Y41678575D01*
X49737459Y41678560D01*
X49743700Y41316595D01*
X49743701Y41316593D01*
X49749950Y40969995D01*
X49756193Y40637007D01*
X49756194Y40636993D01*
X49762444Y40314517D01*
X49762443Y40314499D01*
X49768686Y40001225D01*
X49768688Y40001208D01*
X49774938Y39694615D01*
X49774937Y39694595D01*
X49781183Y39393551D01*
X49781184Y39393535D01*
X49787432Y39096066D01*
X49787433Y39096066D01*
X49793683Y38800803D01*
X49793682Y38800786D01*
X49799931Y38506370D01*
X49799933Y38506353D01*
X49806183Y38211285D01*
X49806182Y38211264D01*
X49806184Y38211241D01*
X49812434Y37914130D01*
X49812433Y37914087D01*
X49812435Y37914057D01*
X49818685Y37613439D01*
X49818684Y37613386D01*
X49818687Y37613336D01*
X49824937Y37307686D01*
X49824935Y37307626D01*
X49824940Y37307556D01*
X49831190Y36995253D01*
X49831188Y36995174D01*
X49831193Y36995096D01*
X49837443Y36674390D01*
X49837441Y36674306D01*
X49837447Y36674208D01*
X49843697Y36343175D01*
X49843694Y36343063D01*
X49843700Y36342970D01*
X49849950Y35999465D01*
X49849947Y35999352D01*
X49849954Y35999239D01*
X49856204Y35640839D01*
X49856201Y35640727D01*
X49856209Y35640593D01*
X49862459Y35264512D01*
X49862455Y35264378D01*
X49862463Y35264249D01*
X49868713Y34867255D01*
X49868709Y34867114D01*
X49868717Y34866978D01*
X49874967Y34445261D01*
X49874963Y34445115D01*
X49874971Y34444972D01*
X49881221Y33993996D01*
X49881217Y33993848D01*
X49881225Y33993698D01*
X49887475Y33507978D01*
X49887471Y33507830D01*
X49887479Y33507674D01*
X49893729Y32980504D01*
X49893724Y32980344D01*
X49893732Y32980196D01*
X49899981Y32403249D01*
X49899315Y32379848D01*
X49899316Y32379768D01*
X49899312Y32379742D01*
X49899311Y32379702D01*
X49896174Y32358407D01*
X49892466Y32333193D01*
X49892455Y32333160D01*
X49892451Y32333129D01*
X49886003Y32312531D01*
X49878415Y32288264D01*
X49878398Y32288232D01*
X49878390Y32288203D01*
X49867414Y32266074D01*
X49857507Y32246086D01*
X49857491Y32246064D01*
X49857474Y32246029D01*
X49842922Y32225539D01*
X49830260Y32207698D01*
X49830236Y32207674D01*
X49830218Y32207648D01*
X49813817Y32190889D01*
X49797342Y32174045D01*
X49797316Y32174027D01*
X49797292Y32174001D01*
X49778145Y32159772D01*
X49759566Y32145956D01*
X49759535Y32145941D01*
X49759510Y32145921D01*
X49738146Y32134743D01*
X49717859Y32124121D01*
X49717830Y32124112D01*
X49717799Y32124095D01*
X49692925Y32115715D01*
X49673252Y32109081D01*
X49673224Y32109077D01*
X49673188Y32109064D01*
X49647688Y32104742D01*
X49626840Y32101203D01*
X49626797Y32101201D01*
X49626775Y32101197D01*
X49626706Y32101197D01*
X49603314Y32100018D01*
X49037696Y32093768D01*
X48520318Y32087526D01*
X48042183Y32081280D01*
X47597083Y32075034D01*
X47179683Y32068788D01*
X46785564Y32062542D01*
X46411008Y32056296D01*
X46052867Y32050050D01*
X46052852Y32050049D01*
X45708180Y32043799D01*
X45708166Y32043800D01*
X45375156Y32037556D01*
X45051119Y32031309D01*
X45051106Y32031308D01*
X44734304Y32025061D01*
X44734303Y32025060D01*
X44422998Y32018812D01*
X44115559Y32012563D01*
X43810423Y32006313D01*
X43807435Y32006370D01*
X43804445Y32006250D01*
X32503156Y32000002D01*
X32201255Y31993813D01*
X32201237Y31993814D01*
X32201214Y31993812D01*
X31894229Y31987562D01*
X31894189Y31987563D01*
X31894159Y31987561D01*
X31583572Y31981311D01*
X31583523Y31981312D01*
X31583473Y31981309D01*
X31267708Y31975059D01*
X31267652Y31975061D01*
X31267582Y31975056D01*
X30944964Y31968806D01*
X30944890Y31968808D01*
X30944813Y31968803D01*
X30613535Y31962553D01*
X30613444Y31962555D01*
X30613359Y31962550D01*
X30271434Y31956300D01*
X30271327Y31956303D01*
X30271234Y31956297D01*
X29916449Y31950048D01*
X29916344Y31950051D01*
X29916231Y31950044D01*
X29546080Y31943794D01*
X29545962Y31943797D01*
X29545842Y31943790D01*
X29157452Y31937540D01*
X29157326Y31937543D01*
X29157198Y31937536D01*
X28747229Y31931286D01*
X28747096Y31931290D01*
X28746961Y31931282D01*
X28311485Y31925032D01*
X28311348Y31925036D01*
X28311206Y31925028D01*
X27845534Y31918778D01*
X27845394Y31918782D01*
X27845246Y31918774D01*
X27343721Y31912524D01*
X27343568Y31912529D01*
X27343428Y31912521D01*
X26799123Y31906270D01*
X26798971Y31906275D01*
X26798825Y31906267D01*
X26203147Y31900018D01*
X26179719Y31900693D01*
X26179662Y31900692D01*
X26179644Y31900695D01*
X26179600Y31900696D01*
X26153845Y31904499D01*
X26133090Y31907558D01*
X26133065Y31907566D01*
X26133030Y31907571D01*
X26109264Y31915019D01*
X26088166Y31921625D01*
X26088138Y31921639D01*
X26088109Y31921648D01*
X26065809Y31932718D01*
X26045995Y31942548D01*
X26045974Y31942564D01*
X26045942Y31942579D01*
X26023861Y31958272D01*
X26007617Y31969809D01*
X26007599Y31969827D01*
X26007569Y31969848D01*
X25988182Y31988833D01*
X25973975Y32002739D01*
X25973960Y32002761D01*
X25973934Y32002785D01*
X25957593Y32024788D01*
X25945899Y32040525D01*
X25945888Y32040548D01*
X25945866Y32040576D01*
X25932873Y32065430D01*
X25924080Y32082239D01*
X25924073Y32082262D01*
X25924055Y32082295D01*
X25914845Y32109662D01*
X25909055Y32126852D01*
X25909052Y32126876D01*
X25909039Y32126911D01*
X25904478Y32153882D01*
X25901194Y32173266D01*
X25901193Y32173303D01*
X25901188Y32173327D01*
X25901188Y32173402D01*
X25900017Y32196793D01*
X25893771Y32780843D01*
X25893770Y32780846D01*
X25887520Y33315962D01*
X25887521Y33315971D01*
X25881274Y33809903D01*
X25881275Y33809908D01*
X25875032Y34269410D01*
X25875031Y34269426D01*
X25868781Y34700849D01*
X25868782Y34700851D01*
X25862535Y35107934D01*
X25862536Y35107937D01*
X25856289Y35494787D01*
X25856290Y35494793D01*
X25850047Y35864467D01*
X25850046Y35864477D01*
X25843800Y36220249D01*
X25843799Y36220252D01*
X25837549Y36564511D01*
X25837550Y36564515D01*
X25831302Y36899112D01*
X25831303Y36899126D01*
X25825055Y37226205D01*
X25825056Y37226206D01*
X25818809Y37547514D01*
X25818808Y37547525D01*
X25812558Y37864982D01*
X25812559Y37864985D01*
X25806310Y38179920D01*
X25806309Y38179928D01*
X25800059Y38494032D01*
X25800060Y38494042D01*
X25800059Y38494044D01*
X25793809Y38808761D01*
X25793810Y38808778D01*
X25793808Y38808801D01*
X25787558Y39125660D01*
X25787559Y39125698D01*
X25787557Y39125728D01*
X25781307Y39446283D01*
X25781308Y39446328D01*
X25781305Y39446378D01*
X25775055Y39772258D01*
X25775057Y39772323D01*
X25775053Y39772380D01*
X25768803Y40105313D01*
X25768805Y40105383D01*
X25768800Y40105460D01*
X25762550Y40447310D01*
X25762552Y40447396D01*
X25762547Y40447481D01*
X25756297Y40800296D01*
X25756300Y40800397D01*
X25756294Y40800489D01*
X25750044Y41166556D01*
X25750047Y41166656D01*
X25750040Y41166768D01*
X25743790Y41548669D01*
X25743793Y41548779D01*
X25743786Y41548899D01*
X25737536Y41949599D01*
X25737540Y41949731D01*
X25737533Y41949845D01*
X25731283Y42372786D01*
X25731287Y42372912D01*
X25731279Y42373046D01*
X25725029Y42822283D01*
X25725033Y42822413D01*
X25725025Y42822553D01*
X25718775Y43302919D01*
X25718779Y43303064D01*
X25718772Y43303198D01*
X25712522Y43820529D01*
X25712526Y43820674D01*
X25712519Y43820813D01*
X25706269Y44382252D01*
X25706274Y44382396D01*
X25706266Y44382540D01*
X25700017Y44996949D01*
X25700700Y45020403D01*
X25700699Y45020437D01*
X25700701Y45020448D01*
X25700702Y45020495D01*
X25704485Y45046055D01*
X25707580Y45067007D01*
X25707589Y45067034D01*
X25707593Y45067064D01*
X25715009Y45090702D01*
X25721663Y45111927D01*
X25721675Y45111950D01*
X25721684Y45111980D01*
X25732835Y45134425D01*
X25742599Y45154091D01*
X25742615Y45154112D01*
X25742628Y45154140D01*
X25757700Y45175335D01*
X25769873Y45192460D01*
X25769891Y45192477D01*
X25769909Y45192504D01*
X25788069Y45211036D01*
X25802814Y45226091D01*
X25802836Y45226106D01*
X25802857Y45226129D01*
X25822896Y45241001D01*
X25840609Y45254154D01*
X25840634Y45254166D01*
X25840658Y45254185D01*
X25862949Y45265829D01*
X25882330Y45275959D01*
X25882356Y45275967D01*
X25882383Y45275982D01*
X25905427Y45283729D01*
X25926948Y45290970D01*
X25926977Y45290974D01*
X25927004Y45290984D01*
X25949550Y45294789D01*
X25973365Y45298815D01*
X25973406Y45298816D01*
X25973423Y45298820D01*
X25973477Y45298820D01*
X25996893Y45299984D01*
X26599970Y45306234D01*
X27151935Y45312481D01*
X27151949Y45312480D01*
X27661417Y45318724D01*
X28136186Y45324974D01*
X28136195Y45324973D01*
X28580860Y45331217D01*
X29001174Y45337467D01*
X29001183Y45337466D01*
X29400128Y45343710D01*
X29781993Y45349960D01*
X30149032Y45356207D01*
X30504009Y45362454D01*
X30504017Y45362453D01*
X30849185Y45368701D01*
X31186598Y45374949D01*
X31186602Y45374948D01*
X31518111Y45381197D01*
X31518127Y45381196D01*
X31845397Y45387443D01*
X31845418Y45387445D01*
X32170300Y45393695D01*
X32173109Y45393638D01*
X32175904Y45393750D01*
X43497052Y45399998D01*
X43818768Y45406194D01*
X43818783Y45406193D01*
X43818806Y45406195D01*
X44145536Y45412445D01*
X44145572Y45412444D01*
X44145602Y45412446D01*
X44476126Y45418696D01*
X44476169Y45418695D01*
X44476219Y45418698D01*
X44812215Y45424948D01*
X44812275Y45424946D01*
X44812332Y45424950D01*
X45155579Y45431200D01*
X45155645Y45431198D01*
X45155722Y45431203D01*
X45508144Y45437453D01*
X45508224Y45437451D01*
X45508308Y45437456D01*
X45872017Y45443706D01*
X45872111Y45443703D01*
X45872203Y45443709D01*
X46249553Y45449958D01*
X46249659Y45449955D01*
X46249757Y45449961D01*
X46643408Y45456211D01*
X46643512Y45456208D01*
X46643631Y45456215D01*
X47056640Y45462466D01*
X47056766Y45462462D01*
X47056880Y45462469D01*
X47492794Y45468718D01*
X47492913Y45468715D01*
X47493045Y45468722D01*
X47956043Y45474972D01*
X47956179Y45474968D01*
X47956305Y45474975D01*
X48451365Y45481225D01*
X48451503Y45481221D01*
X48451635Y45481228D01*
X48984772Y45487478D01*
X48984911Y45487474D01*
X48985048Y45487481D01*
X49563620Y45493732D01*
X49563758Y45493728D01*
X49563900Y45493735D01*
X50197039Y45499984D01*
X50220495Y45499294D01*
G37*
%TD.AperFunction*%
%TD*%
D11*
%TO.N,*%
%TO.C,J1*%
X76200000Y42500000D03*
X76200000Y31500000D03*
D12*
%TO.N,/PGND*%
X66200000Y34500000D03*
D13*
%TO.N,/VIN_RAW*%
X66200000Y39500000D03*
%TD*%
D11*
%TO.N,*%
%TO.C,J2*%
X8800000Y31500000D03*
X8800000Y42500000D03*
D14*
%TO.N,/SGND*%
X13800000Y34500000D03*
D13*
%TO.N,/VOUT*%
X13800000Y39500000D03*
%TD*%
D15*
%TO.N,/PRI_A*%
%TO.C,T1*%
X51537772Y35735180D03*
%TO.N,/TANK_C*%
X51537772Y41264820D03*
%TO.N,/SEC_A*%
X24462228Y41264820D03*
%TO.N,/VOUT*%
X27800000Y38500000D03*
%TO.N,/SEC_B*%
X24462228Y35735180D03*
%TO.N,unconnected-(T1-P_MID-Pad6)*%
X48200000Y38500000D03*
%TD*%
D16*
%TO.N,/AGND*%
X52000000Y30975000D03*
X44325000Y8800000D03*
X47200000Y18375000D03*
X38800000Y16325000D03*
X35950000Y8130000D03*
X44325000Y21300000D03*
X56100000Y30200000D03*
X55100000Y52275000D03*
X42125000Y13600000D03*
X58000000Y55000000D03*
X38800000Y20575000D03*
X53000000Y30500000D03*
X39575000Y23000000D03*
X45600000Y16370000D03*
X49950000Y20150000D03*
X51950000Y27200000D03*
X46000000Y23325000D03*
X58275000Y46300000D03*
X35950000Y15730000D03*
%TO.N,/BIAS12*%
X54000000Y15675000D03*
X60950000Y9500000D03*
X52000000Y29425000D03*
X47200000Y16825000D03*
X56100000Y31150000D03*
X56100000Y29250000D03*
X49100000Y10825000D03*
X62000000Y17275000D03*
X49100000Y5525000D03*
X45600000Y17630000D03*
%TO.N,/BIAS_BST*%
X54225000Y25500000D03*
X55000000Y20870000D03*
%TO.N,/BIAS_EN*%
X62500000Y19375000D03*
X61000000Y22140000D03*
X62500000Y24825000D03*
%TO.N,/BIAS_FB*%
X54000000Y17325000D03*
X58000000Y17275000D03*
X55000000Y23410000D03*
X56000000Y15675000D03*
%TO.N,/BIAS_SW*%
X55050000Y9500000D03*
X55775000Y25500000D03*
X60000000Y15675000D03*
X55000000Y19600000D03*
%TO.N,/CS_AC*%
X49800000Y23375000D03*
X47800000Y28175000D03*
%TO.N,/DT*%
X40475000Y13600000D03*
X40400000Y18900000D03*
%TO.N,/FB_COL*%
X35950000Y18270000D03*
X40400000Y10725000D03*
%TO.N,/FB_K*%
X27450000Y18240000D03*
X22575000Y13600000D03*
X30500000Y21225000D03*
X29650000Y15730000D03*
%TO.N,/FB_LED*%
X27625000Y22000000D03*
X29650000Y18270000D03*
%TO.N,/GD1*%
X42675000Y23000000D03*
X45600000Y18900000D03*
%TO.N,/GD2*%
X45600000Y15100000D03*
X42675000Y10500000D03*
%TO.N,/HI*%
X44325000Y23000000D03*
X61100000Y44900000D03*
%TO.N,/LI*%
X44325000Y10500000D03*
X60330000Y46300000D03*
%TO.N,/OC*%
X40400000Y16370000D03*
X49950000Y22050000D03*
X38025000Y23000000D03*
X46000000Y21675000D03*
%TO.N,/OV_LED*%
X24000000Y10175000D03*
X22300000Y11825000D03*
X29650000Y10670000D03*
%TO.N,/OV_REF*%
X25550000Y10640000D03*
X25725000Y6000000D03*
X19000000Y9325000D03*
X21000000Y6775000D03*
%TO.N,/PGND*%
X49100000Y13775000D03*
X59725000Y36700000D03*
X56000000Y17325000D03*
X59770000Y42660000D03*
X55975000Y42900000D03*
X49100000Y8475000D03*
X48300000Y52690000D03*
X60775000Y28000000D03*
X61200000Y30925000D03*
X58000000Y21500000D03*
X72500000Y25000000D03*
X55975000Y40100000D03*
X61000000Y19600000D03*
X60000000Y40200000D03*
X54000000Y48575000D03*
X62500000Y21025000D03*
%TO.N,/RIPPLE*%
X60000000Y17325000D03*
X62000000Y15725000D03*
X58000000Y15725000D03*
%TO.N,/RT*%
X38800000Y14675000D03*
X40400000Y17630000D03*
X40400000Y9075000D03*
%TO.N,/SEC_A*%
X20310000Y44610000D03*
%TO.N,/SGND*%
X19990000Y34100000D03*
X17300000Y43275000D03*
X23500000Y28975000D03*
X19960000Y41900000D03*
X26500000Y8160000D03*
X27275000Y6000000D03*
X21290000Y34100000D03*
X11500000Y25000000D03*
X22500000Y36600000D03*
X26500000Y15760000D03*
X20640000Y34100000D03*
X19310000Y41900000D03*
X21000000Y8425000D03*
X23500000Y23975000D03*
X20610000Y41900000D03*
X17300000Y39130000D03*
X21775000Y50000000D03*
X19000000Y28975000D03*
X21000000Y17825000D03*
X20450000Y35000000D03*
%TO.N,/SS*%
X38800000Y19025000D03*
X40400000Y15100000D03*
X35950000Y10670000D03*
%TO.N,/SW*%
X57800000Y38000000D03*
X62000000Y44500000D03*
X62200000Y47075000D03*
%TO.N,/TANK_C*%
X53025000Y40100000D03*
X47800000Y26625000D03*
%TO.N,/V5*%
X53900000Y29250000D03*
X59600000Y45600000D03*
X55100000Y50725000D03*
X55000000Y55000000D03*
X56725000Y46300000D03*
%TO.N,/VG1*%
X24325000Y42700000D03*
X17300000Y40400000D03*
%TO.N,/VG2*%
X22500000Y40400000D03*
X17000000Y31175000D03*
%TO.N,/VIN*%
X62500000Y23175000D03*
X57825000Y28000000D03*
X61200000Y33875000D03*
X54000000Y45625000D03*
X70000000Y25000000D03*
X61000000Y20870000D03*
X48300000Y48310000D03*
X50550000Y51000000D03*
%TO.N,/VIN_RAW*%
X53450000Y51000000D03*
%TO.N,/VOUT*%
X18825000Y50000000D03*
X19000000Y7675000D03*
X23500000Y26025000D03*
X9000000Y25000000D03*
X22300000Y10175000D03*
X25975000Y22000000D03*
X22500000Y39130000D03*
X23500000Y21025000D03*
X19000000Y26025000D03*
X17300000Y41725000D03*
X19000000Y16175000D03*
%TO.N,/VREF*%
X25550000Y18240000D03*
X27775000Y13600000D03*
X19000000Y17825000D03*
X30500000Y22775000D03*
X21000000Y16175000D03*
%TO.N,/VS1*%
X17300000Y36600000D03*
X24000000Y45825000D03*
%TO.N,/VS2*%
X22500000Y37870000D03*
X24000000Y32625000D03*
%TD*%
%TO.N,/AGND*%
D17*
X56100000Y30200000D02*
X55000000Y30200000D01*
X55000000Y30200000D02*
X54700000Y30500000D01*
X54700000Y30500000D02*
X53000000Y30500000D01*
%TO.N,/BIAS12*%
D18*
X57300000Y29250000D02*
X57300000Y31150000D01*
X57300000Y31150000D02*
X56100000Y31150000D01*
X56100000Y29250000D02*
X57300000Y29250000D01*
%TO.N,/BIAS_FB*%
X53300000Y14700000D02*
X56000000Y14700000D01*
X54000000Y17325000D02*
X53300000Y16625000D01*
X56000000Y14700000D02*
X56000000Y15675000D01*
X53300000Y16625000D02*
X53300000Y14700000D01*
X57000000Y15675000D02*
X58000000Y16675000D01*
X55000000Y23410000D02*
X54000000Y22410000D01*
X58000000Y16675000D02*
X58000000Y17275000D01*
X56000000Y15675000D02*
X57000000Y15675000D01*
X54000000Y22410000D02*
X54000000Y17325000D01*
%TO.N,/CS_AC*%
X47800000Y29000000D02*
X49000000Y29000000D01*
X47800000Y28175000D02*
X47800000Y29000000D01*
X49000000Y29000000D02*
X50700000Y27300000D01*
X50700000Y23375000D02*
X49800000Y23375000D01*
X50700000Y27300000D02*
X50700000Y23375000D01*
%TO.N,/GD1*%
D19*
X45600000Y19700000D02*
X42675000Y19700000D01*
X45600000Y18900000D02*
X45600000Y19700000D01*
X42675000Y19700000D02*
X42675000Y23000000D01*
%TO.N,/OV_REF*%
D18*
X24700000Y5000000D02*
X22775000Y5000000D01*
X24200000Y9290000D02*
X21500000Y9290000D01*
X25550000Y7000000D02*
X25725000Y6825000D01*
X21500000Y9290000D02*
X21000000Y9325000D01*
X25550000Y10640000D02*
X24200000Y9290000D01*
X21000000Y9325000D02*
X19000000Y9325000D01*
X25725000Y6825000D02*
X25725000Y6000000D01*
X25550000Y10640000D02*
X25550000Y7000000D01*
X25725000Y6000000D02*
X24700000Y5000000D01*
X22775000Y5000000D02*
X21000000Y6775000D01*
%TO.N,/RT*%
X39600000Y15475000D02*
X38800000Y14675000D01*
X38800000Y14675000D02*
X38800000Y10200000D01*
X38800000Y10200000D02*
X40400000Y9075000D01*
X39600000Y17630000D02*
X39600000Y15475000D01*
X40400000Y17630000D02*
X39600000Y17630000D01*
%TO.N,/SW*%
X61800000Y45200000D02*
X61600000Y46400000D01*
D17*
X61700000Y44000000D02*
X61700000Y38600000D01*
D18*
X62000000Y44500000D02*
X61800000Y45200000D01*
D17*
X62000000Y44500000D02*
X61700000Y44000000D01*
D18*
X61600000Y46400000D02*
X62200000Y47075000D01*
D17*
X61700000Y38600000D02*
X57800000Y38000000D01*
%TO.N,/VG2*%
D19*
X23200000Y35900000D02*
X17000000Y35900000D01*
X17000000Y35900000D02*
X17000000Y31175000D01*
X23200000Y39500000D02*
X23200000Y35900000D01*
X22500000Y40400000D02*
X23200000Y39500000D01*
%TO.N,/VREF*%
D18*
X19000000Y19290000D02*
X19000000Y17825000D01*
X25550000Y15100000D02*
X27775000Y12875000D01*
X25550000Y18240000D02*
X25000000Y18800000D01*
X25000000Y23800000D02*
X29500000Y23800000D01*
X29500000Y23800000D02*
X30500000Y22775000D01*
X25000000Y18800000D02*
X25000000Y23800000D01*
X25550000Y18240000D02*
X24500000Y19290000D01*
X22015000Y17190000D02*
X21000000Y16175000D01*
X27775000Y12875000D02*
X27775000Y13600000D01*
X25550000Y18240000D02*
X24500000Y17190000D01*
X24500000Y19290000D02*
X19000000Y19290000D01*
X24500000Y17190000D02*
X22015000Y17190000D01*
X25550000Y18240000D02*
X25550000Y15100000D01*
%TD*%
M02*
