%TF.GenerationSoftware,KiCad,Pcbnew,10.0.6*%
%TF.CreationDate,2026-10-10T14:59:28-04:00*%
%TF.ProjectId,PS-GAN-60W,50532d47-414e-42d3-9630-572e6b696361,A4 REVIEW - NOT FOR FABRICATION*%
%TF.SameCoordinates,Original*%
%TF.FileFunction,Soldermask,Bot*%
%TF.FilePolarity,Negative*%
%FSLAX46Y46*%
G04 Gerber Fmt 4.6, Leading zero omitted, Abs format (unit mm)*
G04 Created by KiCad (PCBNEW 10.0.6) date 2026-10-10 14:59:28*
%MOMM*%
%LPD*%
G01*
G04 APERTURE LIST*
%ADD10C,0.000000*%
%ADD11C,3.200000*%
%ADD12R,3.000000X3.000000*%
%ADD13C,3.000000*%
%ADD14C,0.600000*%
G04 APERTURE END LIST*
D10*
%TO.C,H4*%
G36*
X67700000Y1300000D02*
G01*
X59500000Y1300000D01*
X59290710Y1306851D01*
X59082316Y1327376D01*
X58875711Y1361487D01*
X58671779Y1409037D01*
X58471394Y1469824D01*
X58275413Y1543585D01*
X58084676Y1630007D01*
X57900000Y1728719D01*
X57722175Y1839297D01*
X57551963Y1961269D01*
X57390093Y2094113D01*
X57237258Y2237258D01*
X57094113Y2390093D01*
X56961269Y2551963D01*
X56839297Y2722175D01*
X56728719Y2900000D01*
X56630007Y3084676D01*
X56543585Y3275413D01*
X56469824Y3471394D01*
X56409037Y3671779D01*
X56361487Y3875711D01*
X56327376Y4082316D01*
X56306851Y4290710D01*
X56300000Y4500000D01*
X56306851Y4709290D01*
X56327376Y4917684D01*
X56361487Y5124289D01*
X56409037Y5328221D01*
X56469824Y5528606D01*
X56543585Y5724587D01*
X56630007Y5915324D01*
X56728719Y6100000D01*
X56839297Y6277825D01*
X56961269Y6448037D01*
X57094113Y6609907D01*
X57237258Y6762742D01*
X57390093Y6905887D01*
X57551963Y7038731D01*
X57722175Y7160703D01*
X57900000Y7271281D01*
X58084676Y7369993D01*
X58275413Y7456415D01*
X58471394Y7530176D01*
X58671779Y7590963D01*
X58875711Y7638513D01*
X59082316Y7672624D01*
X59290710Y7693149D01*
X59500000Y7700000D01*
X67700000Y7700000D01*
X67700000Y1300000D01*
G37*
%TO.C,H3*%
G36*
X4709290Y7693149D02*
G01*
X4917684Y7672624D01*
X5124289Y7638513D01*
X5328221Y7590963D01*
X5528606Y7530176D01*
X5724587Y7456415D01*
X5915324Y7369993D01*
X6100000Y7271281D01*
X6277825Y7160703D01*
X6448037Y7038731D01*
X6609907Y6905887D01*
X6762742Y6762742D01*
X6905887Y6609907D01*
X7038731Y6448037D01*
X7160703Y6277825D01*
X7271281Y6100000D01*
X7369993Y5915324D01*
X7456415Y5724587D01*
X7530176Y5528606D01*
X7590963Y5328221D01*
X7638513Y5124289D01*
X7672624Y4917684D01*
X7693149Y4709290D01*
X7700000Y4500000D01*
X7693149Y4290710D01*
X7672624Y4082316D01*
X7638513Y3875711D01*
X7590963Y3671779D01*
X7530176Y3471394D01*
X7456415Y3275413D01*
X7369993Y3084676D01*
X7271281Y2900000D01*
X7160703Y2722175D01*
X7038731Y2551963D01*
X6905887Y2390093D01*
X6762742Y2237258D01*
X6609907Y2094113D01*
X6448037Y1961269D01*
X6277825Y1839297D01*
X6100000Y1728719D01*
X5915324Y1630007D01*
X5724587Y1543585D01*
X5528606Y1469824D01*
X5328221Y1409037D01*
X5124289Y1361487D01*
X4917684Y1327376D01*
X4709290Y1306851D01*
X4500000Y1300000D01*
X-3700000Y1300000D01*
X-3700000Y7700000D01*
X4500000Y7700000D01*
X4709290Y7693149D01*
G37*
%TO.C,H2*%
G36*
X67700000Y48300000D02*
G01*
X59500000Y48300000D01*
X59290710Y48306851D01*
X59082316Y48327376D01*
X58875711Y48361487D01*
X58671779Y48409037D01*
X58471394Y48469824D01*
X58275413Y48543585D01*
X58084676Y48630007D01*
X57900000Y48728719D01*
X57722175Y48839297D01*
X57551963Y48961269D01*
X57390093Y49094113D01*
X57237258Y49237258D01*
X57094113Y49390093D01*
X56961269Y49551963D01*
X56839297Y49722175D01*
X56728719Y49900000D01*
X56630007Y50084676D01*
X56543585Y50275413D01*
X56469824Y50471394D01*
X56409037Y50671779D01*
X56361487Y50875711D01*
X56327376Y51082316D01*
X56306851Y51290710D01*
X56300000Y51500000D01*
X56306851Y51709290D01*
X56327376Y51917684D01*
X56361487Y52124289D01*
X56409037Y52328221D01*
X56469824Y52528606D01*
X56543585Y52724587D01*
X56630007Y52915324D01*
X56728719Y53100000D01*
X56839297Y53277825D01*
X56961269Y53448037D01*
X57094113Y53609907D01*
X57237258Y53762742D01*
X57390093Y53905887D01*
X57551963Y54038731D01*
X57722175Y54160703D01*
X57900000Y54271281D01*
X58084676Y54369993D01*
X58275413Y54456415D01*
X58471394Y54530176D01*
X58671779Y54590963D01*
X58875711Y54638513D01*
X59082316Y54672624D01*
X59290710Y54693149D01*
X59500000Y54700000D01*
X67700000Y54700000D01*
X67700000Y48300000D01*
G37*
%TO.C,H1*%
G36*
X4709290Y54693149D02*
G01*
X4917684Y54672624D01*
X5124289Y54638513D01*
X5328221Y54590963D01*
X5528606Y54530176D01*
X5724587Y54456415D01*
X5915324Y54369993D01*
X6100000Y54271281D01*
X6277825Y54160703D01*
X6448037Y54038731D01*
X6609907Y53905887D01*
X6762742Y53762742D01*
X6905887Y53609907D01*
X7038731Y53448037D01*
X7160703Y53277825D01*
X7271281Y53100000D01*
X7369993Y52915324D01*
X7456415Y52724587D01*
X7530176Y52528606D01*
X7590963Y52328221D01*
X7638513Y52124289D01*
X7672624Y51917684D01*
X7693149Y51709290D01*
X7700000Y51500000D01*
X7693149Y51290710D01*
X7672624Y51082316D01*
X7638513Y50875711D01*
X7590963Y50671779D01*
X7530176Y50471394D01*
X7456415Y50275413D01*
X7369993Y50084676D01*
X7271281Y49900000D01*
X7160703Y49722175D01*
X7038731Y49551963D01*
X6905887Y49390093D01*
X6762742Y49237258D01*
X6609907Y49094113D01*
X6448037Y48961269D01*
X6277825Y48839297D01*
X6100000Y48728719D01*
X5915324Y48630007D01*
X5724587Y48543585D01*
X5528606Y48469824D01*
X5328221Y48409037D01*
X5124289Y48361487D01*
X4917684Y48327376D01*
X4709290Y48306851D01*
X4500000Y48300000D01*
X-3700000Y48300000D01*
X-3700000Y54700000D01*
X4500000Y54700000D01*
X4709290Y54693149D01*
G37*
%TD*%
D11*
%TO.C,H4*%
X59500000Y4500000D03*
%TD*%
D12*
%TO.C,J1*%
X57000000Y30960000D03*
D13*
X57000000Y36040000D03*
%TD*%
D11*
%TO.C,H3*%
X4500000Y4500000D03*
%TD*%
D12*
%TO.C,J2*%
X5000000Y36040000D03*
D13*
X5000000Y30960000D03*
%TD*%
D11*
%TO.C,H2*%
X59500000Y51500000D03*
%TD*%
D14*
%TO.C,T1*%
X42537772Y33735180D03*
X42537772Y39264820D03*
X15462228Y39264820D03*
X18800000Y36500000D03*
X15462228Y33735180D03*
%TD*%
D11*
%TO.C,H1*%
X4500000Y51500000D03*
%TD*%
M02*
