%TF.GenerationSoftware,KiCad,Pcbnew,10.0.6*%
%TF.CreationDate,2026-10-10T13:15:10-04:00*%
%TF.ProjectId,PS-GAN-60W,50532d47-414e-42d3-9630-572e6b696361,A2 REVIEW - NOT FOR FABRICATION*%
%TF.SameCoordinates,Original*%
%TF.FileFunction,Legend,Bot*%
%TF.FilePolarity,Positive*%
%FSLAX46Y46*%
G04 Gerber Fmt 4.6, Leading zero omitted, Abs format (unit mm)*
G04 Created by KiCad (PCBNEW 10.0.6) date 2026-10-10 13:15:10*
%MOMM*%
%LPD*%
G01*
G04 APERTURE LIST*
%ADD10C,0.150000*%
%ADD11C,0.000000*%
%ADD12C,3.200000*%
%ADD13R,3.000000X3.000000*%
%ADD14C,3.000000*%
%ADD15C,0.600000*%
G04 APERTURE END LIST*
D10*
X38852381Y1459811D02*
X38569047Y1459811D01*
X38447619Y1014573D02*
X38852381Y1014573D01*
X38852381Y1014573D02*
X38852381Y1864573D01*
X38852381Y1864573D02*
X38447619Y1864573D01*
X38083333Y1014573D02*
X38083333Y1864573D01*
X38083333Y1864573D02*
X37597618Y1014573D01*
X37597618Y1014573D02*
X37597618Y1864573D01*
X36747618Y1824097D02*
X36828571Y1864573D01*
X36828571Y1864573D02*
X36949999Y1864573D01*
X36949999Y1864573D02*
X37071428Y1824097D01*
X37071428Y1824097D02*
X37152380Y1743145D01*
X37152380Y1743145D02*
X37192857Y1662192D01*
X37192857Y1662192D02*
X37233333Y1500288D01*
X37233333Y1500288D02*
X37233333Y1378859D01*
X37233333Y1378859D02*
X37192857Y1216954D01*
X37192857Y1216954D02*
X37152380Y1136002D01*
X37152380Y1136002D02*
X37071428Y1055049D01*
X37071428Y1055049D02*
X36949999Y1014573D01*
X36949999Y1014573D02*
X36869047Y1014573D01*
X36869047Y1014573D02*
X36747618Y1055049D01*
X36747618Y1055049D02*
X36707142Y1095526D01*
X36707142Y1095526D02*
X36707142Y1378859D01*
X36707142Y1378859D02*
X36869047Y1378859D01*
X36342857Y1014573D02*
X36342857Y1864573D01*
X35938095Y1014573D02*
X35938095Y1864573D01*
X35938095Y1864573D02*
X35452380Y1014573D01*
X35452380Y1014573D02*
X35452380Y1864573D01*
X35047619Y1459811D02*
X34764285Y1459811D01*
X34642857Y1014573D02*
X35047619Y1014573D01*
X35047619Y1014573D02*
X35047619Y1864573D01*
X35047619Y1864573D02*
X34642857Y1864573D01*
X34278571Y1459811D02*
X33995237Y1459811D01*
X33873809Y1014573D02*
X34278571Y1014573D01*
X34278571Y1014573D02*
X34278571Y1864573D01*
X34278571Y1864573D02*
X33873809Y1864573D01*
X33023808Y1014573D02*
X33307142Y1419335D01*
X33509523Y1014573D02*
X33509523Y1864573D01*
X33509523Y1864573D02*
X33185713Y1864573D01*
X33185713Y1864573D02*
X33104761Y1824097D01*
X33104761Y1824097D02*
X33064284Y1783621D01*
X33064284Y1783621D02*
X33023808Y1702669D01*
X33023808Y1702669D02*
X33023808Y1581240D01*
X33023808Y1581240D02*
X33064284Y1500288D01*
X33064284Y1500288D02*
X33104761Y1459811D01*
X33104761Y1459811D02*
X33185713Y1419335D01*
X33185713Y1419335D02*
X33509523Y1419335D01*
X32659523Y1014573D02*
X32659523Y1864573D01*
X32254761Y1014573D02*
X32254761Y1864573D01*
X32254761Y1864573D02*
X31769046Y1014573D01*
X31769046Y1014573D02*
X31769046Y1864573D01*
X30919046Y1824097D02*
X30999999Y1864573D01*
X30999999Y1864573D02*
X31121427Y1864573D01*
X31121427Y1864573D02*
X31242856Y1824097D01*
X31242856Y1824097D02*
X31323808Y1743145D01*
X31323808Y1743145D02*
X31364285Y1662192D01*
X31364285Y1662192D02*
X31404761Y1500288D01*
X31404761Y1500288D02*
X31404761Y1378859D01*
X31404761Y1378859D02*
X31364285Y1216954D01*
X31364285Y1216954D02*
X31323808Y1136002D01*
X31323808Y1136002D02*
X31242856Y1055049D01*
X31242856Y1055049D02*
X31121427Y1014573D01*
X31121427Y1014573D02*
X31040475Y1014573D01*
X31040475Y1014573D02*
X30919046Y1055049D01*
X30919046Y1055049D02*
X30878570Y1095526D01*
X30878570Y1095526D02*
X30878570Y1378859D01*
X30878570Y1378859D02*
X31040475Y1378859D01*
X29866666Y1014573D02*
X29866666Y1864573D01*
X29866666Y1864573D02*
X29542856Y1864573D01*
X29542856Y1864573D02*
X29461904Y1824097D01*
X29461904Y1824097D02*
X29421427Y1783621D01*
X29421427Y1783621D02*
X29380951Y1702669D01*
X29380951Y1702669D02*
X29380951Y1581240D01*
X29380951Y1581240D02*
X29421427Y1500288D01*
X29421427Y1500288D02*
X29461904Y1459811D01*
X29461904Y1459811D02*
X29542856Y1419335D01*
X29542856Y1419335D02*
X29866666Y1419335D01*
X28530951Y1014573D02*
X28814285Y1419335D01*
X29016666Y1014573D02*
X29016666Y1864573D01*
X29016666Y1864573D02*
X28692856Y1864573D01*
X28692856Y1864573D02*
X28611904Y1824097D01*
X28611904Y1824097D02*
X28571427Y1783621D01*
X28571427Y1783621D02*
X28530951Y1702669D01*
X28530951Y1702669D02*
X28530951Y1581240D01*
X28530951Y1581240D02*
X28571427Y1500288D01*
X28571427Y1500288D02*
X28611904Y1459811D01*
X28611904Y1459811D02*
X28692856Y1419335D01*
X28692856Y1419335D02*
X29016666Y1419335D01*
X28004761Y1864573D02*
X27842856Y1864573D01*
X27842856Y1864573D02*
X27761904Y1824097D01*
X27761904Y1824097D02*
X27680951Y1743145D01*
X27680951Y1743145D02*
X27640475Y1581240D01*
X27640475Y1581240D02*
X27640475Y1297907D01*
X27640475Y1297907D02*
X27680951Y1136002D01*
X27680951Y1136002D02*
X27761904Y1055049D01*
X27761904Y1055049D02*
X27842856Y1014573D01*
X27842856Y1014573D02*
X28004761Y1014573D01*
X28004761Y1014573D02*
X28085713Y1055049D01*
X28085713Y1055049D02*
X28166666Y1136002D01*
X28166666Y1136002D02*
X28207142Y1297907D01*
X28207142Y1297907D02*
X28207142Y1581240D01*
X28207142Y1581240D02*
X28166666Y1743145D01*
X28166666Y1743145D02*
X28085713Y1824097D01*
X28085713Y1824097D02*
X28004761Y1864573D01*
X27397618Y1864573D02*
X26911904Y1864573D01*
X27154761Y1014573D02*
X27154761Y1864573D01*
X26466666Y1864573D02*
X26304761Y1864573D01*
X26304761Y1864573D02*
X26223809Y1824097D01*
X26223809Y1824097D02*
X26142856Y1743145D01*
X26142856Y1743145D02*
X26102380Y1581240D01*
X26102380Y1581240D02*
X26102380Y1297907D01*
X26102380Y1297907D02*
X26142856Y1136002D01*
X26142856Y1136002D02*
X26223809Y1055049D01*
X26223809Y1055049D02*
X26304761Y1014573D01*
X26304761Y1014573D02*
X26466666Y1014573D01*
X26466666Y1014573D02*
X26547618Y1055049D01*
X26547618Y1055049D02*
X26628571Y1136002D01*
X26628571Y1136002D02*
X26669047Y1297907D01*
X26669047Y1297907D02*
X26669047Y1581240D01*
X26669047Y1581240D02*
X26628571Y1743145D01*
X26628571Y1743145D02*
X26547618Y1824097D01*
X26547618Y1824097D02*
X26466666Y1864573D01*
X25859523Y1864573D02*
X25373809Y1864573D01*
X25616666Y1014573D02*
X25616666Y1864573D01*
X24928571Y1419335D02*
X24928571Y1014573D01*
X25211904Y1864573D02*
X24928571Y1419335D01*
X24928571Y1419335D02*
X24645237Y1864573D01*
X24361905Y1014573D02*
X24361905Y1864573D01*
X24361905Y1864573D02*
X24038095Y1864573D01*
X24038095Y1864573D02*
X23957143Y1824097D01*
X23957143Y1824097D02*
X23916666Y1783621D01*
X23916666Y1783621D02*
X23876190Y1702669D01*
X23876190Y1702669D02*
X23876190Y1581240D01*
X23876190Y1581240D02*
X23916666Y1500288D01*
X23916666Y1500288D02*
X23957143Y1459811D01*
X23957143Y1459811D02*
X24038095Y1419335D01*
X24038095Y1419335D02*
X24361905Y1419335D01*
X23511905Y1459811D02*
X23228571Y1459811D01*
X23107143Y1014573D02*
X23511905Y1014573D01*
X23511905Y1014573D02*
X23511905Y1864573D01*
X23511905Y1864573D02*
X23107143Y1864573D01*
%LPC*%
D11*
%TO.C,H4*%
G36*
X67700000Y1300000D02*
G01*
X59500000Y1300000D01*
X59290710Y1306851D01*
X59082316Y1327376D01*
X58875711Y1361487D01*
X58671779Y1409037D01*
X58471394Y1469824D01*
X58275413Y1543585D01*
X58084676Y1630007D01*
X57900000Y1728719D01*
X57722175Y1839297D01*
X57551963Y1961269D01*
X57390093Y2094113D01*
X57237258Y2237258D01*
X57094113Y2390093D01*
X56961269Y2551963D01*
X56839297Y2722175D01*
X56728719Y2900000D01*
X56630007Y3084676D01*
X56543585Y3275413D01*
X56469824Y3471394D01*
X56409037Y3671779D01*
X56361487Y3875711D01*
X56327376Y4082316D01*
X56306851Y4290710D01*
X56300000Y4500000D01*
X56306851Y4709290D01*
X56327376Y4917684D01*
X56361487Y5124289D01*
X56409037Y5328221D01*
X56469824Y5528606D01*
X56543585Y5724587D01*
X56630007Y5915324D01*
X56728719Y6100000D01*
X56839297Y6277825D01*
X56961269Y6448037D01*
X57094113Y6609907D01*
X57237258Y6762742D01*
X57390093Y6905887D01*
X57551963Y7038731D01*
X57722175Y7160703D01*
X57900000Y7271281D01*
X58084676Y7369993D01*
X58275413Y7456415D01*
X58471394Y7530176D01*
X58671779Y7590963D01*
X58875711Y7638513D01*
X59082316Y7672624D01*
X59290710Y7693149D01*
X59500000Y7700000D01*
X67700000Y7700000D01*
X67700000Y1300000D01*
G37*
%TO.C,H1*%
G36*
X4709290Y54693149D02*
G01*
X4917684Y54672624D01*
X5124289Y54638513D01*
X5328221Y54590963D01*
X5528606Y54530176D01*
X5724587Y54456415D01*
X5915324Y54369993D01*
X6100000Y54271281D01*
X6277825Y54160703D01*
X6448037Y54038731D01*
X6609907Y53905887D01*
X6762742Y53762742D01*
X6905887Y53609907D01*
X7038731Y53448037D01*
X7160703Y53277825D01*
X7271281Y53100000D01*
X7369993Y52915324D01*
X7456415Y52724587D01*
X7530176Y52528606D01*
X7590963Y52328221D01*
X7638513Y52124289D01*
X7672624Y51917684D01*
X7693149Y51709290D01*
X7700000Y51500000D01*
X7693149Y51290710D01*
X7672624Y51082316D01*
X7638513Y50875711D01*
X7590963Y50671779D01*
X7530176Y50471394D01*
X7456415Y50275413D01*
X7369993Y50084676D01*
X7271281Y49900000D01*
X7160703Y49722175D01*
X7038731Y49551963D01*
X6905887Y49390093D01*
X6762742Y49237258D01*
X6609907Y49094113D01*
X6448037Y48961269D01*
X6277825Y48839297D01*
X6100000Y48728719D01*
X5915324Y48630007D01*
X5724587Y48543585D01*
X5528606Y48469824D01*
X5328221Y48409037D01*
X5124289Y48361487D01*
X4917684Y48327376D01*
X4709290Y48306851D01*
X4500000Y48300000D01*
X-3700000Y48300000D01*
X-3700000Y54700000D01*
X4500000Y54700000D01*
X4709290Y54693149D01*
G37*
%TO.C,H2*%
G36*
X67700000Y48300000D02*
G01*
X59500000Y48300000D01*
X59290710Y48306851D01*
X59082316Y48327376D01*
X58875711Y48361487D01*
X58671779Y48409037D01*
X58471394Y48469824D01*
X58275413Y48543585D01*
X58084676Y48630007D01*
X57900000Y48728719D01*
X57722175Y48839297D01*
X57551963Y48961269D01*
X57390093Y49094113D01*
X57237258Y49237258D01*
X57094113Y49390093D01*
X56961269Y49551963D01*
X56839297Y49722175D01*
X56728719Y49900000D01*
X56630007Y50084676D01*
X56543585Y50275413D01*
X56469824Y50471394D01*
X56409037Y50671779D01*
X56361487Y50875711D01*
X56327376Y51082316D01*
X56306851Y51290710D01*
X56300000Y51500000D01*
X56306851Y51709290D01*
X56327376Y51917684D01*
X56361487Y52124289D01*
X56409037Y52328221D01*
X56469824Y52528606D01*
X56543585Y52724587D01*
X56630007Y52915324D01*
X56728719Y53100000D01*
X56839297Y53277825D01*
X56961269Y53448037D01*
X57094113Y53609907D01*
X57237258Y53762742D01*
X57390093Y53905887D01*
X57551963Y54038731D01*
X57722175Y54160703D01*
X57900000Y54271281D01*
X58084676Y54369993D01*
X58275413Y54456415D01*
X58471394Y54530176D01*
X58671779Y54590963D01*
X58875711Y54638513D01*
X59082316Y54672624D01*
X59290710Y54693149D01*
X59500000Y54700000D01*
X67700000Y54700000D01*
X67700000Y48300000D01*
G37*
%TO.C,H3*%
G36*
X4709290Y7693149D02*
G01*
X4917684Y7672624D01*
X5124289Y7638513D01*
X5328221Y7590963D01*
X5528606Y7530176D01*
X5724587Y7456415D01*
X5915324Y7369993D01*
X6100000Y7271281D01*
X6277825Y7160703D01*
X6448037Y7038731D01*
X6609907Y6905887D01*
X6762742Y6762742D01*
X6905887Y6609907D01*
X7038731Y6448037D01*
X7160703Y6277825D01*
X7271281Y6100000D01*
X7369993Y5915324D01*
X7456415Y5724587D01*
X7530176Y5528606D01*
X7590963Y5328221D01*
X7638513Y5124289D01*
X7672624Y4917684D01*
X7693149Y4709290D01*
X7700000Y4500000D01*
X7693149Y4290710D01*
X7672624Y4082316D01*
X7638513Y3875711D01*
X7590963Y3671779D01*
X7530176Y3471394D01*
X7456415Y3275413D01*
X7369993Y3084676D01*
X7271281Y2900000D01*
X7160703Y2722175D01*
X7038731Y2551963D01*
X6905887Y2390093D01*
X6762742Y2237258D01*
X6609907Y2094113D01*
X6448037Y1961269D01*
X6277825Y1839297D01*
X6100000Y1728719D01*
X5915324Y1630007D01*
X5724587Y1543585D01*
X5528606Y1469824D01*
X5328221Y1409037D01*
X5124289Y1361487D01*
X4917684Y1327376D01*
X4709290Y1306851D01*
X4500000Y1300000D01*
X-3700000Y1300000D01*
X-3700000Y7700000D01*
X4500000Y7700000D01*
X4709290Y7693149D01*
G37*
%TD*%
D12*
%TO.C,H4*%
X59500000Y4500000D03*
%TD*%
D13*
%TO.C,J2*%
X5000000Y36040000D03*
D14*
X5000000Y30960000D03*
%TD*%
D12*
%TO.C,H1*%
X4500000Y51500000D03*
%TD*%
%TO.C,H2*%
X59500000Y51500000D03*
%TD*%
D13*
%TO.C,J1*%
X57000000Y30960000D03*
D14*
X57000000Y36040000D03*
%TD*%
D12*
%TO.C,H3*%
X4500000Y4500000D03*
%TD*%
D15*
%TO.C,T1*%
X42537772Y33735180D03*
X42537772Y39264820D03*
X15462228Y39264820D03*
X18800000Y36500000D03*
X15462228Y33735180D03*
%TD*%
%LPD*%
M02*
