%TF.GenerationSoftware,KiCad,Pcbnew,10.0.6*%
%TF.CreationDate,2026-10-10T12:18:00-04:00*%
%TF.ProjectId,PS-GAN-60W,50532d47-414e-42d3-9630-572e6b696361,A1 REVIEW - NOT FOR FABRICATION*%
%TF.SameCoordinates,Original*%
%TF.FileFunction,Copper,L4,Inr*%
%TF.FilePolarity,Positive*%
%FSLAX46Y46*%
G04 Gerber Fmt 4.6, Leading zero omitted, Abs format (unit mm)*
G04 Created by KiCad (PCBNEW 10.0.6) date 2026-10-10 12:18:00*
%MOMM*%
%LPD*%
G01*
G04 APERTURE LIST*
G04 Aperture macros list*
%AMRoundRect*
0 Rectangle with rounded corners*
0 $1 Rounding radius*
0 $2 $3 $4 $5 $6 $7 $8 $9 X,Y pos of 4 corners*
0 Add a 4 corners polygon primitive as box body*
4,1,4,$2,$3,$4,$5,$6,$7,$8,$9,$2,$3,0*
0 Add four circle primitives for the rounded corners*
1,1,$1+$1,$2,$3*
1,1,$1+$1,$4,$5*
1,1,$1+$1,$6,$7*
1,1,$1+$1,$8,$9*
0 Add four rect primitives between the rounded corners*
20,1,$1+$1,$2,$3,$4,$5,0*
20,1,$1+$1,$4,$5,$6,$7,0*
20,1,$1+$1,$6,$7,$8,$9,0*
20,1,$1+$1,$8,$9,$2,$3,0*%
G04 Aperture macros list end*
%TA.AperFunction,ComponentPad*%
%ADD10C,1.400000*%
%TD*%
%TA.AperFunction,ComponentPad*%
%ADD11RoundRect,0.770000X-0.980000X0.980000X-0.980000X-0.980000X0.980000X-0.980000X0.980000X0.980000X0*%
%TD*%
%TA.AperFunction,ComponentPad*%
%ADD12C,3.500000*%
%TD*%
%TA.AperFunction,ComponentPad*%
%ADD13RoundRect,0.770000X0.980000X-0.980000X0.980000X0.980000X-0.980000X0.980000X-0.980000X-0.980000X0*%
%TD*%
%TA.AperFunction,ComponentPad*%
%ADD14C,0.600000*%
%TD*%
%TA.AperFunction,ViaPad*%
%ADD15C,0.600000*%
%TD*%
%TA.AperFunction,Conductor*%
%ADD16C,0.800000*%
%TD*%
%TA.AperFunction,Conductor*%
%ADD17C,0.300000*%
%TD*%
%TA.AperFunction,Conductor*%
%ADD18C,0.400000*%
%TD*%
%TA.AperFunction,Conductor*%
%ADD19C,0.200000*%
%TD*%
%TA.AperFunction,Conductor*%
%ADD20C,0.700000*%
%TD*%
%TA.AperFunction,Conductor*%
%ADD21C,0.500000*%
%TD*%
%TA.AperFunction,Conductor*%
%ADD22C,0.250000*%
%TD*%
%TA.AperFunction,Conductor*%
%ADD23C,1.000000*%
%TD*%
G04 APERTURE END LIST*
D10*
%TO.N,*%
%TO.C,J1*%
X76200000Y42500000D03*
X76200000Y31500000D03*
D11*
%TO.N,/PGND*%
X66200000Y34500000D03*
D12*
%TO.N,/VIN_RAW*%
X66200000Y39500000D03*
%TD*%
D10*
%TO.N,*%
%TO.C,J2*%
X8800000Y31500000D03*
X8800000Y42500000D03*
D13*
%TO.N,/SGND*%
X13800000Y34500000D03*
D12*
%TO.N,/VOUT*%
X13800000Y39500000D03*
%TD*%
D14*
%TO.N,/PRI_A*%
%TO.C,T1*%
X51537772Y35735180D03*
%TO.N,/TANK_C*%
X51537772Y41264820D03*
%TO.N,/SEC_A*%
X24462228Y41264820D03*
%TO.N,/VOUT*%
X27800000Y38500000D03*
%TO.N,/SEC_B*%
X24462228Y35735180D03*
%TO.N,unconnected-(T1-P_MID-Pad6)*%
X48200000Y38500000D03*
%TD*%
D15*
%TO.N,/AGND*%
X52000000Y30975000D03*
X44325000Y8800000D03*
X47200000Y18375000D03*
X38800000Y16325000D03*
X35950000Y8130000D03*
X44325000Y21300000D03*
X56100000Y30200000D03*
X55100000Y52275000D03*
X42125000Y13600000D03*
X58000000Y55000000D03*
X38800000Y20575000D03*
X53000000Y30500000D03*
X39575000Y23000000D03*
X45600000Y16370000D03*
X49950000Y20150000D03*
X51950000Y27200000D03*
X46000000Y23325000D03*
X58275000Y46300000D03*
X35950000Y15730000D03*
%TO.N,/BIAS12*%
X54000000Y15675000D03*
X60950000Y9500000D03*
X52000000Y29425000D03*
X47200000Y16825000D03*
X56100000Y31150000D03*
X56100000Y29250000D03*
X49100000Y10825000D03*
X62000000Y17275000D03*
X49100000Y5525000D03*
X45600000Y17630000D03*
%TO.N,/BIAS_BST*%
X54225000Y25500000D03*
X55000000Y20870000D03*
%TO.N,/BIAS_EN*%
X62500000Y19375000D03*
X61000000Y22140000D03*
X62500000Y24825000D03*
%TO.N,/BIAS_FB*%
X54000000Y17325000D03*
X58000000Y17275000D03*
X55000000Y23410000D03*
X56000000Y15675000D03*
%TO.N,/BIAS_SW*%
X55050000Y9500000D03*
X55775000Y25500000D03*
X60000000Y15675000D03*
X55000000Y19600000D03*
%TO.N,/CS_AC*%
X49800000Y23375000D03*
X47800000Y28175000D03*
%TO.N,/DT*%
X40475000Y13600000D03*
X40400000Y18900000D03*
%TO.N,/FB_COL*%
X35950000Y18270000D03*
X40400000Y10725000D03*
%TO.N,/FB_K*%
X27450000Y18240000D03*
X22575000Y13600000D03*
X30500000Y21225000D03*
X29650000Y15730000D03*
%TO.N,/FB_LED*%
X27625000Y22000000D03*
X29650000Y18270000D03*
%TO.N,/GD1*%
X42675000Y23000000D03*
X45600000Y18900000D03*
%TO.N,/GD2*%
X45600000Y15100000D03*
X42675000Y10500000D03*
%TO.N,/HI*%
X44325000Y23000000D03*
X61100000Y44900000D03*
%TO.N,/LI*%
X44325000Y10500000D03*
X60330000Y46300000D03*
%TO.N,/OC*%
X40400000Y16370000D03*
X49950000Y22050000D03*
X38025000Y23000000D03*
X46000000Y21675000D03*
%TO.N,/OV_LED*%
X24000000Y10175000D03*
X22300000Y11825000D03*
X29650000Y10670000D03*
%TO.N,/OV_REF*%
X25550000Y10640000D03*
X25725000Y6000000D03*
X19000000Y9325000D03*
X21000000Y6775000D03*
%TO.N,/PGND*%
X49100000Y13775000D03*
X59725000Y36700000D03*
X56000000Y17325000D03*
X59770000Y42660000D03*
X55975000Y42900000D03*
X49100000Y8475000D03*
X48300000Y52690000D03*
X60775000Y28000000D03*
X61200000Y30925000D03*
X58000000Y21500000D03*
X72500000Y25000000D03*
X55975000Y40100000D03*
X61000000Y19600000D03*
X60000000Y40200000D03*
X54000000Y48575000D03*
X62500000Y21025000D03*
%TO.N,/RIPPLE*%
X60000000Y17325000D03*
X62000000Y15725000D03*
X58000000Y15725000D03*
%TO.N,/RT*%
X38800000Y14675000D03*
X40400000Y17630000D03*
X40400000Y9075000D03*
%TO.N,/SEC_A*%
X20310000Y44610000D03*
%TO.N,/SGND*%
X19990000Y34100000D03*
X17300000Y43275000D03*
X23500000Y28975000D03*
X19960000Y41900000D03*
X26500000Y8160000D03*
X27275000Y6000000D03*
X21290000Y34100000D03*
X11500000Y25000000D03*
X22500000Y36600000D03*
X26500000Y15760000D03*
X20640000Y34100000D03*
X19310000Y41900000D03*
X21000000Y8425000D03*
X23500000Y23975000D03*
X20610000Y41900000D03*
X17300000Y39130000D03*
X21775000Y50000000D03*
X19000000Y28975000D03*
X21000000Y17825000D03*
X20450000Y35000000D03*
%TO.N,/SS*%
X38800000Y19025000D03*
X40400000Y15100000D03*
X35950000Y10670000D03*
%TO.N,/SW*%
X57800000Y38000000D03*
X62000000Y44500000D03*
X62200000Y47075000D03*
%TO.N,/TANK_C*%
X53025000Y40100000D03*
X47800000Y26625000D03*
%TO.N,/V5*%
X53900000Y29250000D03*
X59600000Y45600000D03*
X55100000Y50725000D03*
X55000000Y55000000D03*
X56725000Y46300000D03*
%TO.N,/VG1*%
X24325000Y42700000D03*
X17300000Y40400000D03*
%TO.N,/VG2*%
X22500000Y40400000D03*
X17000000Y31175000D03*
%TO.N,/VIN*%
X62500000Y23175000D03*
X57825000Y28000000D03*
X61200000Y33875000D03*
X54000000Y45625000D03*
X70000000Y25000000D03*
X61000000Y20870000D03*
X48300000Y48310000D03*
X50550000Y51000000D03*
%TO.N,/VIN_RAW*%
X53450000Y51000000D03*
%TO.N,/VOUT*%
X18825000Y50000000D03*
X19000000Y7675000D03*
X23500000Y26025000D03*
X9000000Y25000000D03*
X22300000Y10175000D03*
X25975000Y22000000D03*
X22500000Y39130000D03*
X23500000Y21025000D03*
X19000000Y26025000D03*
X17300000Y41725000D03*
X19000000Y16175000D03*
%TO.N,/VREF*%
X25550000Y18240000D03*
X27775000Y13600000D03*
X19000000Y17825000D03*
X30500000Y22775000D03*
X21000000Y16175000D03*
%TO.N,/VS1*%
X17300000Y36600000D03*
X24000000Y45825000D03*
%TO.N,/VS2*%
X22500000Y37870000D03*
X24000000Y32625000D03*
%TD*%
%TO.N,/BIAS_SW*%
D16*
X52800000Y17400000D02*
X52800000Y11750000D01*
D17*
X60000000Y12500000D02*
X60000000Y15675000D01*
D16*
X55000000Y19600000D02*
X52800000Y17400000D01*
D18*
X56300000Y20900000D02*
X56300000Y24000000D01*
D17*
X55050000Y12500000D02*
X60000000Y12500000D01*
X55050000Y9500000D02*
X55050000Y12500000D01*
D18*
X55000000Y19600000D02*
X56300000Y20900000D01*
X56300000Y24000000D02*
X55775000Y25500000D01*
D16*
X52800000Y11750000D02*
X55050000Y9500000D01*
%TO.N,/OC*%
D19*
X46000000Y21675000D02*
X49950000Y22050000D01*
X39600000Y17170000D02*
X37300000Y17170000D01*
X40400000Y16370000D02*
X41300000Y17270001D01*
X37300000Y17170000D02*
X37300000Y23000000D01*
X40400000Y16370000D02*
X39600000Y17170000D01*
X41300000Y20400000D02*
X44900000Y20400000D01*
X44900000Y20400000D02*
X46000000Y21675000D01*
X41300000Y17270001D02*
X41300000Y20400000D01*
X37300000Y23000000D02*
X38025000Y23000000D01*
%TO.N,/SEC_A*%
D16*
X22200000Y43800000D02*
X20310000Y44610000D01*
X24462228Y41264820D02*
X22800000Y41264800D01*
X22800000Y41264800D02*
X22200000Y43800000D01*
%TO.N,/TANK_C*%
D17*
X48500000Y26625000D02*
X47800000Y26625000D01*
X53025000Y40100000D02*
X53025000Y32500000D01*
X53025000Y32500000D02*
X50400000Y32500000D01*
X50400000Y30000000D02*
X48500000Y26625000D01*
X50400000Y32500000D02*
X50400000Y30000000D01*
%TO.N,/VIN*%
D20*
X63400000Y53000000D02*
X63400000Y34500000D01*
D16*
X52000000Y51000000D02*
X52800000Y49700000D01*
D21*
X64200000Y26700000D02*
X70000000Y26700000D01*
D22*
X61800000Y23175000D02*
X61800000Y20870000D01*
D16*
X59000000Y26700000D02*
X57825000Y28000000D01*
D21*
X57500000Y26700000D02*
X64200000Y26700000D01*
D20*
X56200000Y49800000D02*
X56200000Y53000000D01*
D16*
X63000000Y26700000D02*
X59000000Y26700000D01*
D23*
X50550000Y48000000D02*
X48300000Y48310000D01*
D16*
X63000000Y32000000D02*
X63000000Y26700000D01*
D23*
X50550000Y51000000D02*
X50550000Y48000000D01*
D21*
X57500000Y28000000D02*
X57500000Y26700000D01*
D16*
X61200000Y33875000D02*
X63000000Y32000000D01*
D20*
X55000000Y45625000D02*
X55000000Y48600000D01*
X55000000Y48600000D02*
X56200000Y49800000D01*
D22*
X61800000Y20870000D02*
X61000000Y20870000D01*
D16*
X50550000Y51000000D02*
X52000000Y51000000D01*
D22*
X63400000Y26700000D02*
X63400000Y23175000D01*
X59000000Y26700000D02*
X63400000Y26700000D01*
D21*
X70000000Y26700000D02*
X70000000Y25000000D01*
X57825000Y28000000D02*
X57500000Y28000000D01*
D20*
X56200000Y53000000D02*
X63400000Y53000000D01*
D22*
X57825000Y28000000D02*
X59000000Y26700000D01*
X63400000Y23175000D02*
X62500000Y23175000D01*
X62500000Y23175000D02*
X61800000Y23175000D01*
D20*
X63400000Y34500000D02*
X61200000Y33875000D01*
D16*
X52800000Y45625000D02*
X54000000Y45625000D01*
D20*
X54000000Y45625000D02*
X55000000Y45625000D01*
D16*
X52800000Y49700000D02*
X52800000Y45625000D01*
%TO.N,/VOUT*%
D17*
X21500000Y39800000D02*
X22500000Y39130000D01*
X18400000Y41725000D02*
X18400000Y39800000D01*
X18400000Y39800000D02*
X21500000Y39800000D01*
X17300000Y41725000D02*
X18400000Y41725000D01*
%TD*%
M02*
