%TF.GenerationSoftware,KiCad,Pcbnew,10.0.6*%
%TF.CreationDate,2026-10-10T12:18:00-04:00*%
%TF.ProjectId,PS-GAN-60W,50532d47-414e-42d3-9630-572e6b696361,A1 REVIEW - NOT FOR FABRICATION*%
%TF.SameCoordinates,Original*%
%TF.FileFunction,Copper,L1,Top*%
%TF.FilePolarity,Positive*%
%FSLAX46Y46*%
G04 Gerber Fmt 4.6, Leading zero omitted, Abs format (unit mm)*
G04 Created by KiCad (PCBNEW 10.0.6) date 2026-10-10 12:18:00*
%MOMM*%
%LPD*%
G01*
G04 APERTURE LIST*
G04 Aperture macros list*
%AMRoundRect*
0 Rectangle with rounded corners*
0 $1 Rounding radius*
0 $2 $3 $4 $5 $6 $7 $8 $9 X,Y pos of 4 corners*
0 Add a 4 corners polygon primitive as box body*
4,1,4,$2,$3,$4,$5,$6,$7,$8,$9,$2,$3,0*
0 Add four circle primitives for the rounded corners*
1,1,$1+$1,$2,$3*
1,1,$1+$1,$4,$5*
1,1,$1+$1,$6,$7*
1,1,$1+$1,$8,$9*
0 Add four rect primitives between the rounded corners*
20,1,$1+$1,$2,$3,$4,$5,0*
20,1,$1+$1,$4,$5,$6,$7,0*
20,1,$1+$1,$6,$7,$8,$9,0*
20,1,$1+$1,$8,$9,$2,$3,0*%
%AMFreePoly0*
4,1,19,0.385418,0.660373,0.400063,0.625018,0.400063,0.125003,0.400088,0.124943,0.400088,-0.125044,0.385443,-0.160399,0.350088,-0.175044,-0.349910,-0.175044,-0.385265,-0.160399,-0.399910,-0.125044,-0.399910,0.124943,-0.385265,0.160298,-0.349910,0.174943,0.050076,0.174943,0.050076,0.625018,0.064721,0.660373,0.100076,0.675018,0.350063,0.675018,0.385418,0.660373,0.385418,0.660373,
$1*%
%AMFreePoly1*
4,1,45,0.385443,1.285441,0.400088,1.250086,0.400088,-1.249909,0.385443,-1.285264,0.350088,-1.299909,-0.024917,-1.299909,-0.060272,-1.285264,-0.074917,-1.249909,-0.074917,-0.911898,-0.349910,-0.911898,-0.385265,-0.897253,-0.399910,-0.861898,-0.399910,-0.611911,-0.385265,-0.576556,-0.349910,-0.561911,-0.074917,-0.561911,-0.074917,-0.411899,-0.349910,-0.411899,-0.385265,-0.397254,-0.399910,-0.361899,
-0.399910,-0.111912,-0.385265,-0.076557,-0.349910,-0.061912,-0.074917,-0.061912,-0.074917,0.088100,-0.349910,0.088100,-0.385265,0.102745,-0.399910,0.138100,-0.399910,0.388087,-0.385265,0.423442,-0.349910,0.438087,-0.074917,0.438087,-0.074917,0.588099,-0.349910,0.588099,-0.385265,0.602744,-0.399910,0.638099,-0.399910,0.888086,-0.385265,0.923441,-0.349910,0.938086,-0.074917,0.938086,
-0.074917,1.250086,-0.060272,1.285441,-0.024917,1.300086,0.350088,1.300086,0.385443,1.285441,0.385443,1.285441,$1*%
%AMFreePoly2*
4,1,37,0.985340,1.483460,0.999985,1.448105,0.999985,-1.447902,0.985340,-1.483257,0.949985,-1.497902,0.499986,-1.497902,0.499986,-1.772844,0.485341,-1.808199,0.449986,-1.822844,0.200000,-1.822844,0.164645,-1.808199,0.150000,-1.772844,0.150000,-1.497902,-0.000013,-1.497902,-0.000013,-1.772844,-0.014658,-1.808199,-0.050013,-1.822844,-0.299999,-1.822844,-0.335354,-1.808199,-0.349999,-1.772844,
-0.349999,-1.497902,-0.500012,-1.497902,-0.500012,-1.772844,-0.514657,-1.808199,-0.550012,-1.822844,-0.799998,-1.822844,-0.835353,-1.808199,-0.849998,-1.772844,-0.849998,-1.497902,-0.950011,-1.497902,-0.985366,-1.483257,-1.000011,-1.447902,-1.000011,1.448105,-0.985366,1.483460,-0.950011,1.498105,0.949985,1.498105,0.985340,1.483460,0.985340,1.483460,$1*%
%AMFreePoly3*
4,1,51,0.024920,1.300086,0.060275,1.285439,0.074917,1.250086,0.074917,0.912097,0.349914,0.912076,0.385268,0.897429,0.399910,0.862076,0.399910,0.612115,0.385265,0.576760,0.349914,0.562115,0.074917,0.562092,0.074917,0.412080,0.349906,0.412102,0.385263,0.397460,0.399910,0.362106,0.399910,0.112090,0.385265,0.076735,0.349910,0.062090,0.074917,0.062111,0.074917,-0.087900,
0.349914,-0.087922,0.385268,-0.102569,0.399910,-0.137922,0.399910,-0.387883,0.385265,-0.423238,0.349910,-0.437883,0.074917,-0.437883,0.074917,-0.587917,0.349906,-0.587896,0.385263,-0.602538,0.399910,-0.637892,0.399910,-0.887882,0.385265,-0.923237,0.349914,-0.937882,0.074917,-0.937904,0.074917,-1.249909,0.060272,-1.285264,0.024917,-1.299909,-0.350091,-1.299883,-0.385446,-1.285236,
-0.400088,-1.249887,-0.400114,-0.887903,-0.400088,-0.637891,-0.400088,-0.387888,-0.400114,-0.137902,-0.400114,0.112121,-0.400088,0.362107,-0.400088,1.250112,-0.385443,1.285467,-0.350088,1.300112,0.024920,1.300086,0.024920,1.300086,$1*%
%AMFreePoly4*
4,1,19,-0.064721,0.660805,-0.050076,0.625450,-0.050076,0.175019,0.349961,0.175019,0.385316,0.160374,0.399961,0.125019,0.399961,-0.125070,0.385316,-0.160425,0.349961,-0.175070,-0.350037,-0.175070,-0.385392,-0.160425,-0.400037,-0.125070,-0.400037,-0.074611,-0.400063,-0.074549,-0.400063,0.625450,-0.385418,0.660805,-0.350063,0.675450,-0.100076,0.675450,-0.064721,0.660805,-0.064721,0.660805,
$1*%
%AMFreePoly5*
4,1,17,1.210369,0.700672,1.225029,0.665323,1.225029,-0.664693,1.210384,-0.700048,1.175029,-0.714693,-0.724967,-0.714693,-0.760322,-0.700048,-0.774967,-0.664693,-0.774967,-0.600697,-1.174979,-0.600697,-1.210334,-0.586052,-1.224979,-0.550696,-1.224953,0.664313,-1.210308,0.699668,-1.174974,0.714312,1.175008,0.715302,1.210369,0.700672,1.210369,0.700672,$1*%
G04 Aperture macros list end*
%TA.AperFunction,EtchedComponent*%
%ADD10C,0.000000*%
%TD*%
%TA.AperFunction,SMDPad,CuDef*%
%ADD11R,1.300000X0.560000*%
%TD*%
%TA.AperFunction,SMDPad,CuDef*%
%ADD12RoundRect,0.250000X-0.325000X-1.100000X0.325000X-1.100000X0.325000X1.100000X-0.325000X1.100000X0*%
%TD*%
%TA.AperFunction,SMDPad,CuDef*%
%ADD13RoundRect,0.200000X0.275000X-0.200000X0.275000X0.200000X-0.275000X0.200000X-0.275000X-0.200000X0*%
%TD*%
%TA.AperFunction,SMDPad,CuDef*%
%ADD14C,1.200000*%
%TD*%
%TA.AperFunction,SMDPad,CuDef*%
%ADD15RoundRect,0.225000X0.250000X-0.225000X0.250000X0.225000X-0.250000X0.225000X-0.250000X-0.225000X0*%
%TD*%
%TA.AperFunction,SMDPad,CuDef*%
%ADD16O,1.800000X0.588000*%
%TD*%
%TA.AperFunction,SMDPad,CuDef*%
%ADD17R,0.300000X0.680000*%
%TD*%
%TA.AperFunction,SMDPad,CuDef*%
%ADD18R,0.300000X0.600000*%
%TD*%
%TA.AperFunction,SMDPad,CuDef*%
%ADD19R,2.650000X2.000000*%
%TD*%
%TA.AperFunction,SMDPad,CuDef*%
%ADD20RoundRect,0.250000X-0.250000X-0.475000X0.250000X-0.475000X0.250000X0.475000X-0.250000X0.475000X0*%
%TD*%
%TA.AperFunction,SMDPad,CuDef*%
%ADD21RoundRect,0.250000X1.100000X-0.325000X1.100000X0.325000X-1.100000X0.325000X-1.100000X-0.325000X0*%
%TD*%
%TA.AperFunction,SMDPad,CuDef*%
%ADD22RoundRect,0.250000X0.750000X0.650000X-0.750000X0.650000X-0.750000X-0.650000X0.750000X-0.650000X0*%
%TD*%
%TA.AperFunction,SMDPad,CuDef*%
%ADD23R,0.600000X1.070000*%
%TD*%
%TA.AperFunction,SMDPad,CuDef*%
%ADD24RoundRect,0.225000X-0.225000X-0.250000X0.225000X-0.250000X0.225000X0.250000X-0.225000X0.250000X0*%
%TD*%
%TA.AperFunction,SMDPad,CuDef*%
%ADD25R,1.000000X0.800000*%
%TD*%
%TA.AperFunction,SMDPad,CuDef*%
%ADD26C,1.000000*%
%TD*%
%TA.AperFunction,SMDPad,CuDef*%
%ADD27RoundRect,0.200000X-0.200000X-0.275000X0.200000X-0.275000X0.200000X0.275000X-0.200000X0.275000X0*%
%TD*%
%TA.AperFunction,SMDPad,CuDef*%
%ADD28FreePoly0,0.000000*%
%TD*%
%TA.AperFunction,SMDPad,CuDef*%
%ADD29R,0.700000X0.250000*%
%TD*%
%TA.AperFunction,SMDPad,CuDef*%
%ADD30FreePoly1,0.000000*%
%TD*%
%TA.AperFunction,SMDPad,CuDef*%
%ADD31FreePoly2,0.000000*%
%TD*%
%TA.AperFunction,SMDPad,CuDef*%
%ADD32FreePoly3,0.000000*%
%TD*%
%TA.AperFunction,SMDPad,CuDef*%
%ADD33FreePoly4,0.000000*%
%TD*%
%TA.AperFunction,SMDPad,CuDef*%
%ADD34R,0.250000X0.700000*%
%TD*%
%TA.AperFunction,SMDPad,CuDef*%
%ADD35FreePoly5,0.000000*%
%TD*%
%TA.AperFunction,ComponentPad*%
%ADD36C,1.400000*%
%TD*%
%TA.AperFunction,ComponentPad*%
%ADD37RoundRect,0.770000X-0.980000X0.980000X-0.980000X-0.980000X0.980000X-0.980000X0.980000X0.980000X0*%
%TD*%
%TA.AperFunction,ComponentPad*%
%ADD38C,3.500000*%
%TD*%
%TA.AperFunction,ComponentPad*%
%ADD39RoundRect,0.770000X0.980000X-0.980000X0.980000X0.980000X-0.980000X0.980000X-0.980000X-0.980000X0*%
%TD*%
%TA.AperFunction,SMDPad,CuDef*%
%ADD40RoundRect,0.250000X-1.100000X0.325000X-1.100000X-0.325000X1.100000X-0.325000X1.100000X0.325000X0*%
%TD*%
%TA.AperFunction,SMDPad,CuDef*%
%ADD41R,1.190000X1.728000*%
%TD*%
%TA.AperFunction,SMDPad,CuDef*%
%ADD42RoundRect,0.250000X0.325000X0.650000X-0.325000X0.650000X-0.325000X-0.650000X0.325000X-0.650000X0*%
%TD*%
%TA.AperFunction,SMDPad,CuDef*%
%ADD43R,1.000000X0.600000*%
%TD*%
%TA.AperFunction,SMDPad,CuDef*%
%ADD44R,2.500000X3.500000*%
%TD*%
%TA.AperFunction,ComponentPad*%
%ADD45C,0.600000*%
%TD*%
%TA.AperFunction,SMDPad,CuDef*%
%ADD46RoundRect,0.200000X0.200000X0.275000X-0.200000X0.275000X-0.200000X-0.275000X0.200000X-0.275000X0*%
%TD*%
%TA.AperFunction,SMDPad,CuDef*%
%ADD47R,1.700000X1.800000*%
%TD*%
%TA.AperFunction,SMDPad,CuDef*%
%ADD48RoundRect,0.250000X-0.325000X-0.650000X0.325000X-0.650000X0.325000X0.650000X-0.325000X0.650000X0*%
%TD*%
%TA.AperFunction,SMDPad,CuDef*%
%ADD49O,1.600000X0.600000*%
%TD*%
%TA.AperFunction,SMDPad,CuDef*%
%ADD50R,2.500000X3.200000*%
%TD*%
%TA.AperFunction,ViaPad*%
%ADD51C,0.600000*%
%TD*%
%TA.AperFunction,Conductor*%
%ADD52C,0.200000*%
%TD*%
%TA.AperFunction,Conductor*%
%ADD53C,0.160000*%
%TD*%
%TA.AperFunction,Conductor*%
%ADD54C,1.000000*%
%TD*%
%TA.AperFunction,Conductor*%
%ADD55C,0.800000*%
%TD*%
%TA.AperFunction,Conductor*%
%ADD56C,0.600000*%
%TD*%
%TA.AperFunction,Conductor*%
%ADD57C,0.250000*%
%TD*%
%TA.AperFunction,Conductor*%
%ADD58C,0.400000*%
%TD*%
%TA.AperFunction,Conductor*%
%ADD59C,0.350000*%
%TD*%
%TA.AperFunction,Conductor*%
%ADD60C,0.300000*%
%TD*%
%TA.AperFunction,Conductor*%
%ADD61C,0.500000*%
%TD*%
G04 APERTURE END LIST*
D10*
%TA.AperFunction,EtchedComponent*%
%TO.C,T1*%
G36*
X50620637Y45899283D02*
G01*
X50620702Y45899284D01*
X50620723Y45899280D01*
X50620750Y45899280D01*
X50640762Y45896301D01*
X50667266Y45892361D01*
X50667291Y45892353D01*
X50667312Y45892350D01*
X50688590Y45885654D01*
X50712172Y45878239D01*
X50712192Y45878228D01*
X50712217Y45878221D01*
X50735392Y45866683D01*
X50754318Y45857265D01*
X50754334Y45857253D01*
X50754359Y45857241D01*
X50774594Y45842825D01*
X50792663Y45829958D01*
X50792680Y45829941D01*
X50792700Y45829927D01*
X50809070Y45813858D01*
X50826265Y45796987D01*
X50826280Y45796966D01*
X50826296Y45796951D01*
X50838766Y45780119D01*
X50854295Y45759167D01*
X50854307Y45759142D01*
X50854320Y45759126D01*
X50864729Y45739158D01*
X50876063Y45717426D01*
X50876070Y45717404D01*
X50876082Y45717382D01*
X50884354Y45692707D01*
X50891034Y45672795D01*
X50891037Y45672774D01*
X50891046Y45672749D01*
X50895581Y45645744D01*
X50898838Y45626371D01*
X50898839Y45626345D01*
X50898843Y45626323D01*
X50898843Y45626255D01*
X50899987Y45602843D01*
X50906237Y44943573D01*
X50906236Y44943565D01*
X50912484Y44340183D01*
X50912483Y44340180D01*
X50918730Y43783000D01*
X50924976Y43264505D01*
X50931223Y42778312D01*
X50937470Y42319266D01*
X50943719Y41883039D01*
X50943718Y41883038D01*
X50949963Y41466317D01*
X50949964Y41466300D01*
X50956214Y41065221D01*
X50956213Y41065210D01*
X50962458Y40677697D01*
X50962459Y40677692D01*
X50968709Y40300650D01*
X50968708Y40300649D01*
X50974957Y39932284D01*
X50974956Y39932273D01*
X50981203Y39570486D01*
X50981204Y39570483D01*
X50987454Y39213152D01*
X50987453Y39213145D01*
X50993702Y38858718D01*
X50993703Y38858711D01*
X50994741Y38800000D01*
X52000000Y38800000D01*
X52023538Y38799075D01*
X52025292Y38798797D01*
X52027075Y38798776D01*
X52048555Y38795112D01*
X52070034Y38791711D01*
X52071725Y38791161D01*
X52073481Y38790862D01*
X52094109Y38783888D01*
X52114805Y38777164D01*
X52116390Y38776356D01*
X52118077Y38775786D01*
X52137351Y38765676D01*
X52156750Y38755792D01*
X52158190Y38754745D01*
X52159766Y38753919D01*
X52177237Y38740906D01*
X52194834Y38728122D01*
X52196089Y38726866D01*
X52197520Y38725801D01*
X52212735Y38710220D01*
X52228122Y38694834D01*
X52229169Y38693392D01*
X52230411Y38692121D01*
X52242983Y38674378D01*
X52255792Y38656750D01*
X52256600Y38655163D01*
X52257629Y38653712D01*
X52267277Y38634208D01*
X52277164Y38614805D01*
X52277714Y38613111D01*
X52278503Y38611517D01*
X52284977Y38590756D01*
X52291711Y38570034D01*
X52291989Y38568273D01*
X52292519Y38566577D01*
X52295670Y38545031D01*
X52299075Y38523538D01*
X52299075Y38521762D01*
X52299333Y38519998D01*
X52299979Y38496450D01*
X52297599Y38295323D01*
X52297417Y38291776D01*
X52297431Y38288225D01*
X52290292Y38087209D01*
X52290026Y38083665D01*
X52289956Y38080120D01*
X52278064Y37879330D01*
X52277716Y37875807D01*
X52277561Y37872247D01*
X52260919Y37671795D01*
X52260488Y37668288D01*
X52260249Y37664728D01*
X52238870Y37464727D01*
X52238354Y37461216D01*
X52238032Y37457676D01*
X52211926Y37258236D01*
X52211325Y37254729D01*
X52210921Y37251209D01*
X52180104Y37052442D01*
X52179421Y37048954D01*
X52178933Y37045439D01*
X52143421Y36847457D01*
X52142657Y36843989D01*
X52142085Y36840485D01*
X52101898Y36643398D01*
X52101054Y36639959D01*
X52100398Y36636459D01*
X52055559Y36440380D01*
X52054634Y36436961D01*
X52053895Y36433478D01*
X52004429Y36238514D01*
X52003421Y36235110D01*
X52002602Y36231654D01*
X51948537Y36037915D01*
X51947445Y36034525D01*
X51946547Y36031099D01*
X51887912Y35838693D01*
X51886746Y35835346D01*
X51885763Y35831928D01*
X51822592Y35640963D01*
X51814321Y35618906D01*
X51792727Y35577076D01*
X51764856Y35539139D01*
X51731392Y35506028D01*
X51693161Y35478561D01*
X51651103Y35457412D01*
X51606256Y35443103D01*
X51559721Y35435985D01*
X51512646Y35436235D01*
X51466190Y35443846D01*
X51421496Y35458631D01*
X51379665Y35480225D01*
X51341728Y35508097D01*
X51308618Y35541561D01*
X51281151Y35579791D01*
X51260002Y35621850D01*
X51245692Y35666697D01*
X51238575Y35713232D01*
X51238825Y35760306D01*
X51246436Y35806762D01*
X51252950Y35829400D01*
X51315011Y36017010D01*
X51371572Y36202610D01*
X51423726Y36389505D01*
X51471450Y36577605D01*
X51514708Y36766771D01*
X51553474Y36956887D01*
X51587730Y37147868D01*
X51617463Y37339643D01*
X51642645Y37532034D01*
X51663269Y37724975D01*
X51679325Y37918378D01*
X51690795Y38112044D01*
X51693919Y38200000D01*
X50700000Y38200000D01*
X50684580Y38200606D01*
X50681754Y38200556D01*
X50680159Y38200780D01*
X50676462Y38200925D01*
X50655793Y38204199D01*
X50635135Y38207097D01*
X50632597Y38207873D01*
X50629966Y38208289D01*
X50610057Y38214758D01*
X50590114Y38220850D01*
X50587728Y38222013D01*
X50585195Y38222836D01*
X50566552Y38232336D01*
X50547797Y38241477D01*
X50545621Y38243000D01*
X50543250Y38244208D01*
X50526333Y38256499D01*
X50509230Y38268469D01*
X50507318Y38270315D01*
X50505166Y38271878D01*
X50490380Y38286664D01*
X50475359Y38301163D01*
X50473759Y38303285D01*
X50471878Y38305166D01*
X50459583Y38322088D01*
X50447020Y38338752D01*
X50445772Y38341097D01*
X50444208Y38343250D01*
X50434721Y38361869D01*
X50424909Y38380312D01*
X50424042Y38382828D01*
X50422836Y38385195D01*
X50416381Y38405060D01*
X50409573Y38424819D01*
X50409110Y38427437D01*
X50408289Y38429966D01*
X50405019Y38450611D01*
X50401388Y38471178D01*
X50401177Y38474867D01*
X50400925Y38476462D01*
X50400925Y38479298D01*
X50400047Y38494696D01*
X50393797Y38848101D01*
X50393797Y38848113D01*
X50393797Y38848118D01*
X50387547Y39202618D01*
X50387547Y39202634D01*
X50387546Y39202659D01*
X50381296Y39559991D01*
X50381296Y39560026D01*
X50381295Y39560058D01*
X50375045Y39922017D01*
X50375045Y39922056D01*
X50375043Y39922108D01*
X50368793Y40290590D01*
X50368794Y40290647D01*
X50368791Y40290706D01*
X50362541Y40667748D01*
X50362542Y40667820D01*
X50362539Y40667886D01*
X50356289Y41055713D01*
X50356290Y41055786D01*
X50356286Y41055872D01*
X50350036Y41456952D01*
X50350038Y41457050D01*
X50350034Y41457131D01*
X50343784Y41874247D01*
X50343786Y41874344D01*
X50343781Y41874445D01*
X50337531Y42310776D01*
X50337533Y42310882D01*
X50337528Y42310990D01*
X50331278Y42770223D01*
X50331280Y42770337D01*
X50331275Y42770452D01*
X50325025Y43256918D01*
X50325028Y43257037D01*
X50325022Y43257158D01*
X50318772Y43776011D01*
X50318775Y43776134D01*
X50318769Y43776261D01*
X50312519Y44333714D01*
X50312522Y44333839D01*
X50312516Y44333971D01*
X50306266Y44937623D01*
X50306269Y44937748D01*
X50306263Y44937885D01*
X50302856Y45297216D01*
X49932196Y45293762D01*
X49319896Y45287518D01*
X49319880Y45287518D01*
X48755387Y45281271D01*
X48231185Y45275024D01*
X47740904Y45268777D01*
X47279044Y45262527D01*
X47279024Y45262527D01*
X46841851Y45256284D01*
X46424893Y45250037D01*
X46025175Y45243790D01*
X46025157Y45243789D01*
X45639820Y45237542D01*
X45266393Y45231294D01*
X45266388Y45231294D01*
X44902622Y45225046D01*
X44546482Y45218798D01*
X44196083Y45212549D01*
X44196081Y45212549D01*
X43849657Y45206299D01*
X43849641Y45206299D01*
X43505446Y45200049D01*
X43502799Y45200104D01*
X43500165Y45200000D01*
X32159239Y45193751D01*
X31817231Y45187549D01*
X31817201Y45187549D01*
X31817189Y45187549D01*
X31469827Y45181299D01*
X31469803Y45181299D01*
X31469758Y45181297D01*
X31117915Y45175047D01*
X31117860Y45175048D01*
X31117821Y45175046D01*
X30759653Y45168796D01*
X30759594Y45168797D01*
X30759535Y45168794D01*
X30393065Y45162544D01*
X30393002Y45162545D01*
X30392923Y45162541D01*
X30015987Y45156291D01*
X30015898Y45156293D01*
X30015824Y45156289D01*
X29626026Y45150039D01*
X29625935Y45150041D01*
X29625841Y45150036D01*
X29220476Y45143786D01*
X29220374Y45143788D01*
X29220272Y45143783D01*
X28796251Y45137533D01*
X28796152Y45137535D01*
X28796031Y45137529D01*
X28349771Y45131278D01*
X28349651Y45131281D01*
X28349535Y45131275D01*
X27876829Y45125026D01*
X27876704Y45125029D01*
X27876582Y45125023D01*
X27372425Y45118772D01*
X27372295Y45118775D01*
X27372167Y45118769D01*
X26830519Y45112520D01*
X26830388Y45112523D01*
X26830255Y45112517D01*
X26243737Y45106267D01*
X26243606Y45106270D01*
X26243467Y45106264D01*
X25902862Y45102940D01*
X25906236Y44751006D01*
X25906236Y44751002D01*
X25912480Y44155860D01*
X25912481Y44155840D01*
X25918731Y43606897D01*
X25918731Y43606877D01*
X25924974Y43097662D01*
X25924974Y43097660D01*
X25931221Y42621152D01*
X25931221Y42621147D01*
X25937468Y42172495D01*
X25937468Y42172490D01*
X25943718Y41747172D01*
X25943718Y41747155D01*
X25949961Y41342187D01*
X25949961Y41342186D01*
X25956211Y40953589D01*
X25962456Y40579313D01*
X25962456Y40579297D01*
X25968706Y40216303D01*
X25968706Y40216288D01*
X25974952Y39862985D01*
X25981201Y39516883D01*
X25981201Y39516873D01*
X25987448Y39176544D01*
X25987448Y39176541D01*
X25993697Y38839993D01*
X25993698Y38839976D01*
X25999948Y38505607D01*
X25999948Y38505586D01*
X26006197Y38171863D01*
X26006198Y38171845D01*
X26012448Y37837090D01*
X26012448Y37837071D01*
X26012449Y37837046D01*
X26018699Y37499653D01*
X26018699Y37499615D01*
X26018700Y37499583D01*
X26024950Y37157855D01*
X26024950Y37157810D01*
X26024952Y37157758D01*
X26031202Y36809906D01*
X26031201Y36809844D01*
X26031204Y36809785D01*
X26037454Y36453886D01*
X26037453Y36453807D01*
X26037456Y36453741D01*
X26043706Y36087698D01*
X26043705Y36087616D01*
X26043709Y36087529D01*
X26049959Y35709011D01*
X26049957Y35708916D01*
X26049962Y35708822D01*
X26056212Y35315207D01*
X26056210Y35315100D01*
X26056215Y35314998D01*
X26062465Y34903286D01*
X26062463Y34903181D01*
X26062469Y34903059D01*
X26068719Y34469772D01*
X26068716Y34469646D01*
X26068722Y34469530D01*
X26074972Y34010584D01*
X26074969Y34010465D01*
X26074976Y34010329D01*
X26081226Y33520866D01*
X26081223Y33520731D01*
X26081229Y33520601D01*
X26087479Y32994760D01*
X26087476Y32994622D01*
X26087482Y32994487D01*
X26093732Y32425103D01*
X26093729Y32424965D01*
X26093735Y32424825D01*
X26096971Y32102947D01*
X26430178Y32106235D01*
X27008470Y32112482D01*
X27541331Y32118730D01*
X28035859Y32124973D01*
X28498857Y32131223D01*
X28498867Y32131223D01*
X28934281Y32137466D01*
X29347290Y32143716D01*
X29347302Y32143716D01*
X29740717Y32149962D01*
X30117861Y32156209D01*
X30481383Y32162456D01*
X30481385Y32162456D01*
X30833640Y32168703D01*
X30833650Y32168703D01*
X31176744Y32174950D01*
X31512623Y32181198D01*
X31512630Y32181198D01*
X31843054Y32187446D01*
X32169718Y32193695D01*
X32169725Y32193695D01*
X32494224Y32199944D01*
X32497024Y32199889D01*
X32499834Y32200000D01*
X43820937Y32206249D01*
X44143042Y32212445D01*
X44143074Y32212445D01*
X44143086Y32212445D01*
X44470511Y32218695D01*
X44470538Y32218695D01*
X44470583Y32218697D01*
X44802195Y32224947D01*
X44802242Y32224947D01*
X44802294Y32224949D01*
X45139832Y32231199D01*
X45139898Y32231198D01*
X45139957Y32231201D01*
X45485283Y32237451D01*
X45485353Y32237450D01*
X45485433Y32237454D01*
X45840584Y32243704D01*
X45840671Y32243703D01*
X45840758Y32243707D01*
X46207993Y32249957D01*
X46208094Y32249955D01*
X46208189Y32249960D01*
X46590054Y32256210D01*
X46590167Y32256208D01*
X46590269Y32256213D01*
X46989672Y32262463D01*
X46989783Y32262461D01*
X46989906Y32262467D01*
X47410220Y32268717D01*
X47410352Y32268714D01*
X47410469Y32268720D01*
X47855654Y32274970D01*
X47855779Y32274967D01*
X47855916Y32274974D01*
X48330684Y32281225D01*
X48330827Y32281222D01*
X48330959Y32281228D01*
X48840995Y32287477D01*
X48841126Y32287474D01*
X48841275Y32287481D01*
X49393525Y32293732D01*
X49393670Y32293728D01*
X49393813Y32293735D01*
X49696964Y32296877D01*
X49693768Y32611133D01*
X49687522Y33172219D01*
X49687522Y33172223D01*
X49681275Y33689266D01*
X49681275Y33689275D01*
X49675025Y34169641D01*
X49675025Y34169648D01*
X49668779Y34618608D01*
X49668779Y34618612D01*
X49662536Y35041028D01*
X49662536Y35041043D01*
X49656286Y35441743D01*
X49656286Y35441749D01*
X49650040Y35823414D01*
X49650040Y35823424D01*
X49643797Y36189071D01*
X49643797Y36189077D01*
X49637550Y36541722D01*
X49631300Y36883572D01*
X49631300Y36883579D01*
X49625055Y37216229D01*
X49625055Y37216236D01*
X49618805Y37542116D01*
X49618805Y37542120D01*
X49612558Y37862499D01*
X49612558Y37862507D01*
X49606308Y38179366D01*
X49606308Y38179372D01*
X49600059Y38494027D01*
X49600059Y38494032D01*
X49593809Y38808136D01*
X49593809Y38808148D01*
X49593809Y38808153D01*
X49587559Y39123162D01*
X49587559Y39123183D01*
X49587558Y39123207D01*
X49581308Y39440664D01*
X49581308Y39440706D01*
X49581307Y39440738D01*
X49575057Y39762235D01*
X49575058Y39762285D01*
X49575055Y39762337D01*
X49568805Y40089559D01*
X49568806Y40089616D01*
X49568802Y40089688D01*
X49562552Y40424443D01*
X49562553Y40424517D01*
X49562549Y40424597D01*
X49556299Y40768856D01*
X49556300Y40768948D01*
X49556296Y40769035D01*
X49550046Y41124989D01*
X49550048Y41125095D01*
X49550043Y41125190D01*
X49543793Y41495305D01*
X49543795Y41495411D01*
X49543789Y41495527D01*
X49537539Y41882621D01*
X49537541Y41882738D01*
X49537535Y41882861D01*
X49531285Y42290203D01*
X49531288Y42290329D01*
X49531281Y42290460D01*
X49525031Y42721883D01*
X49525034Y42722028D01*
X49525028Y42722154D01*
X49518778Y43182229D01*
X49518781Y43182365D01*
X49518774Y43182510D01*
X49512524Y43676741D01*
X49512527Y43676880D01*
X49512520Y43677031D01*
X49506270Y44212147D01*
X49506274Y44212299D01*
X49506267Y44212443D01*
X49503224Y44496869D01*
X49207770Y44493770D01*
X49207767Y44493770D01*
X48663764Y44487523D01*
X48663755Y44487523D01*
X48162518Y44481277D01*
X47697125Y44475031D01*
X47261917Y44468785D01*
X46852202Y44462539D01*
X46464050Y44456293D01*
X46094118Y44450047D01*
X45739544Y44443800D01*
X45739532Y44443800D01*
X45397788Y44437553D01*
X45397783Y44437553D01*
X45066657Y44431306D01*
X44744039Y44425056D01*
X44428500Y44418811D01*
X44117994Y44412562D01*
X44117984Y44412562D01*
X43811041Y44406313D01*
X43506148Y44400063D01*
X43503155Y44400119D01*
X43500166Y44400000D01*
X32198870Y44393751D01*
X31896729Y44387563D01*
X31896707Y44387563D01*
X31896682Y44387562D01*
X31589195Y44381312D01*
X31589163Y44381312D01*
X31589119Y44381310D01*
X31277737Y44375060D01*
X31277684Y44375061D01*
X31277632Y44375058D01*
X30960724Y44368808D01*
X30960651Y44368809D01*
X30960592Y44368806D01*
X30636410Y44362556D01*
X30636330Y44362557D01*
X30636250Y44362553D01*
X30302882Y44356303D01*
X30302798Y44356304D01*
X30302698Y44356299D01*
X29958026Y44350049D01*
X29957913Y44350051D01*
X29957818Y44350046D01*
X29599455Y44343796D01*
X29599341Y44343798D01*
X29599225Y44343792D01*
X29224440Y44337542D01*
X29224316Y44337544D01*
X29224192Y44337538D01*
X28829824Y44331288D01*
X28829692Y44331291D01*
X28829560Y44331284D01*
X28411895Y44325034D01*
X28411755Y44325037D01*
X28411615Y44325030D01*
X27966235Y44318780D01*
X27966091Y44318783D01*
X27965945Y44318776D01*
X27487520Y44312526D01*
X27487374Y44312529D01*
X27487221Y44312522D01*
X26969237Y44306272D01*
X26969092Y44306275D01*
X26968933Y44306268D01*
X26703232Y44303332D01*
X26706229Y44026617D01*
X26706229Y44026609D01*
X26712479Y43499439D01*
X26712479Y43499436D01*
X26718724Y43014139D01*
X26724968Y42563621D01*
X26731213Y42142192D01*
X26731213Y42142190D01*
X26737459Y41745461D01*
X26737459Y41745458D01*
X26743709Y41369377D01*
X26743709Y41369359D01*
X26749952Y41011394D01*
X26756196Y40668169D01*
X26756197Y40668151D01*
X26762447Y40337118D01*
X26762447Y40337106D01*
X26768690Y40016753D01*
X26768690Y40016752D01*
X26774940Y39704449D01*
X26774940Y39704440D01*
X26781185Y39399035D01*
X26781185Y39399033D01*
X26787434Y39098501D01*
X26787434Y39098488D01*
X26793684Y38801377D01*
X26793684Y38801375D01*
X26799933Y38506353D01*
X26799933Y38506334D01*
X26806182Y38211913D01*
X26806182Y38211912D01*
X26806183Y38211895D01*
X26812433Y37916632D01*
X26812433Y37916608D01*
X26812434Y37916584D01*
X26818684Y37619066D01*
X26818684Y37619019D01*
X26818685Y37618988D01*
X26824935Y37317721D01*
X26824935Y37317677D01*
X26824938Y37317613D01*
X26831188Y37011020D01*
X26831187Y37010943D01*
X26831190Y37010884D01*
X26837440Y36697274D01*
X26837439Y36697202D01*
X26837444Y36697109D01*
X26843694Y36374633D01*
X26843692Y36374530D01*
X26843697Y36374443D01*
X26849947Y36041053D01*
X26849945Y36040947D01*
X26849951Y36040839D01*
X26856201Y35694225D01*
X26856199Y35694105D01*
X26856205Y35693988D01*
X26862455Y35331513D01*
X26862453Y35331394D01*
X26862460Y35331257D01*
X26868710Y34949862D01*
X26868707Y34949721D01*
X26868714Y34949588D01*
X26874964Y34545684D01*
X26874961Y34545536D01*
X26874968Y34545395D01*
X26881218Y34114709D01*
X26881215Y34114570D01*
X26881223Y34114409D01*
X26887473Y33651790D01*
X26887469Y33651635D01*
X26887477Y33651480D01*
X26893727Y33150631D01*
X26893723Y33150465D01*
X26893730Y33150317D01*
X26896553Y32903339D01*
X27154858Y32906231D01*
X27154861Y32906231D01*
X27664578Y32912477D01*
X28134178Y32918723D01*
X28569855Y32924965D01*
X28977811Y32931215D01*
X28977820Y32931215D01*
X29361275Y32937456D01*
X29725047Y32943706D01*
X29725058Y32943706D01*
X30071443Y32949951D01*
X30403430Y32956197D01*
X30723358Y32962443D01*
X30723363Y32962443D01*
X31033303Y32968689D01*
X31335128Y32974936D01*
X31335132Y32974936D01*
X31630527Y32981183D01*
X31921069Y32987431D01*
X31921078Y32987431D01*
X32208232Y32993679D01*
X32208233Y32993679D01*
X32493428Y32999928D01*
X32496632Y32999873D01*
X32499834Y33000000D01*
X43781266Y33006249D01*
X44063450Y33012428D01*
X44063475Y33012428D01*
X44063499Y33012429D01*
X44351048Y33018679D01*
X44351085Y33018679D01*
X44351129Y33018681D01*
X44642280Y33024931D01*
X44642340Y33024930D01*
X44642391Y33024933D01*
X44938669Y33031183D01*
X44938738Y33031182D01*
X44938810Y33031186D01*
X45241849Y33037436D01*
X45241926Y33037435D01*
X45242018Y33037440D01*
X45553603Y33043690D01*
X45553699Y33043689D01*
X45553799Y33043694D01*
X45875907Y33049944D01*
X45876020Y33049942D01*
X45876129Y33049948D01*
X46210993Y33056198D01*
X46211120Y33056196D01*
X46211237Y33056202D01*
X46561403Y33062452D01*
X46561530Y33062450D01*
X46561668Y33062457D01*
X46930090Y33068707D01*
X46930227Y33068704D01*
X46930374Y33068712D01*
X47320517Y33074962D01*
X47320674Y33074959D01*
X47320815Y33074966D01*
X47736807Y33081216D01*
X47736956Y33081213D01*
X47737118Y33081221D01*
X48183931Y33087471D01*
X48184094Y33087467D01*
X48184251Y33087475D01*
X48667967Y33093725D01*
X48668130Y33093721D01*
X48668293Y33093729D01*
X48896545Y33096431D01*
X48893771Y33335855D01*
X48887528Y33828259D01*
X48887528Y33828261D01*
X48881278Y34282369D01*
X48881278Y34282377D01*
X48875033Y34703640D01*
X48875033Y34703643D01*
X48868788Y35097527D01*
X48862548Y35467979D01*
X48862547Y35467997D01*
X48856297Y35819459D01*
X48856297Y35819462D01*
X48850052Y36154096D01*
X48850052Y36154103D01*
X48843811Y36474565D01*
X48843811Y36474572D01*
X48837563Y36783686D01*
X48831315Y37083188D01*
X48831315Y37083198D01*
X48825072Y37374551D01*
X48818824Y37659849D01*
X48818824Y37659859D01*
X48812574Y37940538D01*
X48812574Y37940544D01*
X48806727Y38200000D01*
X48200000Y38200000D01*
X48176462Y38200925D01*
X48129966Y38208289D01*
X48085195Y38222836D01*
X48043250Y38244208D01*
X48005166Y38271878D01*
X47971878Y38305166D01*
X47944208Y38343250D01*
X47922836Y38385195D01*
X47908289Y38429966D01*
X47900925Y38476462D01*
X47900000Y38500000D01*
X47900925Y38523538D01*
X47908289Y38570034D01*
X47922836Y38614805D01*
X47944208Y38656750D01*
X47971878Y38694834D01*
X48005166Y38728122D01*
X48043250Y38755792D01*
X48085195Y38777164D01*
X48129966Y38791711D01*
X48176462Y38799075D01*
X48200000Y38800000D01*
X49100000Y38800000D01*
X49113679Y38799462D01*
X49116747Y38799532D01*
X49118729Y38799263D01*
X49123538Y38799075D01*
X49143427Y38795924D01*
X49163398Y38793225D01*
X49166666Y38792244D01*
X49170034Y38791711D01*
X49189196Y38785484D01*
X49208487Y38779697D01*
X49211558Y38778219D01*
X49214805Y38777164D01*
X49232772Y38768008D01*
X49250906Y38759282D01*
X49253706Y38757342D01*
X49256750Y38755792D01*
X49273070Y38743934D01*
X49289608Y38732483D01*
X49292070Y38730129D01*
X49294834Y38728122D01*
X49309091Y38713864D01*
X49323643Y38699959D01*
X49325709Y38697246D01*
X49328122Y38694834D01*
X49339962Y38678537D01*
X49352170Y38662513D01*
X49353787Y38659508D01*
X49355792Y38656750D01*
X49364940Y38638795D01*
X49374488Y38621063D01*
X49375614Y38617845D01*
X49377164Y38614805D01*
X49383390Y38595640D01*
X49390047Y38576634D01*
X49390656Y38573278D01*
X49391711Y38570034D01*
X49394862Y38550133D01*
X49398464Y38530317D01*
X49398762Y38525513D01*
X49399075Y38523538D01*
X49399075Y38520471D01*
X49399923Y38506806D01*
X49406173Y38231389D01*
X49406172Y38231364D01*
X49406174Y38231341D01*
X49412424Y37953976D01*
X49412423Y37953939D01*
X49412426Y37953896D01*
X49418676Y37673216D01*
X49418674Y37673156D01*
X49418678Y37673106D01*
X49424928Y37387686D01*
X49424926Y37387615D01*
X49424931Y37387545D01*
X49431181Y37095873D01*
X49431179Y37095794D01*
X49431185Y37095704D01*
X49437435Y36796142D01*
X49437433Y36796044D01*
X49437439Y36795946D01*
X49443689Y36486696D01*
X49443686Y36486581D01*
X49443693Y36486475D01*
X49449943Y36165535D01*
X49449940Y36165419D01*
X49449948Y36165292D01*
X49456198Y35830391D01*
X49456195Y35830262D01*
X49456203Y35830127D01*
X49462453Y35478665D01*
X49462449Y35478514D01*
X49462457Y35478384D01*
X49468707Y35107335D01*
X49468703Y35107189D01*
X49468712Y35107039D01*
X49474962Y34712842D01*
X49474958Y34712692D01*
X49474967Y34712534D01*
X49481217Y34290945D01*
X49481213Y34290792D01*
X49481222Y34290627D01*
X49487472Y33836519D01*
X49487467Y33836353D01*
X49487476Y33836194D01*
X49493726Y33343289D01*
X49493721Y33343126D01*
X49493730Y33342961D01*
X49499979Y32803475D01*
X49499331Y32780077D01*
X49499332Y32780003D01*
X49499328Y32779979D01*
X49499327Y32779928D01*
X49495717Y32755298D01*
X49492518Y32733423D01*
X49492507Y32733391D01*
X49492502Y32733350D01*
X49485163Y32709841D01*
X49478502Y32688483D01*
X49478485Y32688450D01*
X49478474Y32688413D01*
X49468198Y32667655D01*
X49457628Y32646288D01*
X49457605Y32646257D01*
X49457589Y32646223D01*
X49443817Y32626799D01*
X49430410Y32607879D01*
X49430384Y32607854D01*
X49430362Y32607821D01*
X49414380Y32591465D01*
X49397519Y32574199D01*
X49397485Y32574175D01*
X49397462Y32574150D01*
X49380065Y32561201D01*
X49359765Y32546081D01*
X49359730Y32546063D01*
X49359701Y32546041D01*
X49340020Y32535725D01*
X49318076Y32524214D01*
X49318037Y32524201D01*
X49318007Y32524185D01*
X49297519Y32517265D01*
X49273480Y32509138D01*
X49273440Y32509132D01*
X49273407Y32509120D01*
X49252533Y32505566D01*
X49227074Y32501224D01*
X49227017Y32501222D01*
X49226999Y32501218D01*
X49226944Y32501218D01*
X49203549Y32500021D01*
X48675719Y32493775D01*
X48192326Y32487530D01*
X48192323Y32487529D01*
X47745510Y32481279D01*
X47330138Y32475039D01*
X47330127Y32475038D01*
X46940268Y32468793D01*
X46571846Y32462543D01*
X46222197Y32456303D01*
X46222189Y32456302D01*
X45887550Y32450057D01*
X45887547Y32450056D01*
X45565635Y32443810D01*
X45254051Y32437560D01*
X44951323Y32431317D01*
X44655164Y32425070D01*
X44655156Y32425069D01*
X44364086Y32418821D01*
X44076587Y32412573D01*
X44076586Y32412572D01*
X43791197Y32406322D01*
X43787995Y32406378D01*
X43784794Y32406250D01*
X32503367Y32400002D01*
X32221330Y32393822D01*
X32221307Y32393823D01*
X32221284Y32393821D01*
X31934045Y32387571D01*
X31934012Y32387572D01*
X31933969Y32387569D01*
X31643320Y32381319D01*
X31643263Y32381321D01*
X31643213Y32381317D01*
X31347679Y32375067D01*
X31347614Y32375069D01*
X31347544Y32375064D01*
X31045555Y32368814D01*
X31045470Y32368816D01*
X31045393Y32368811D01*
X30735259Y32362561D01*
X30735168Y32362563D01*
X30735070Y32362557D01*
X30414929Y32356307D01*
X30414822Y32356310D01*
X30414716Y32356303D01*
X30082494Y32350053D01*
X30082373Y32350056D01*
X30082259Y32350049D01*
X29735609Y32343799D01*
X29735489Y32343802D01*
X29735355Y32343794D01*
X29371582Y32337544D01*
X29371440Y32337548D01*
X29371311Y32337540D01*
X28987289Y32331290D01*
X28987153Y32331294D01*
X28987003Y32331285D01*
X28579046Y32325035D01*
X28578892Y32325039D01*
X28578748Y32325031D01*
X28142465Y32318781D01*
X28142309Y32318785D01*
X28142158Y32318777D01*
X27672243Y32312527D01*
X27672087Y32312532D01*
X27671930Y32312523D01*
X27161893Y32306273D01*
X27161739Y32306278D01*
X27161576Y32306269D01*
X26603360Y32300019D01*
X26579960Y32300676D01*
X26579883Y32300675D01*
X26579858Y32300679D01*
X26579813Y32300680D01*
X26557802Y32303914D01*
X26533306Y32307507D01*
X26533271Y32307519D01*
X26533237Y32307523D01*
X26511064Y32314455D01*
X26488371Y32321542D01*
X26488340Y32321558D01*
X26488306Y32321568D01*
X26467383Y32331936D01*
X26446185Y32342433D01*
X26446156Y32342454D01*
X26446125Y32342469D01*
X26427144Y32355939D01*
X26407787Y32369666D01*
X26407763Y32369691D01*
X26407733Y32369711D01*
X26391182Y32385897D01*
X26374121Y32402571D01*
X26374100Y32402601D01*
X26374075Y32402624D01*
X26361108Y32420058D01*
X26346017Y32440336D01*
X26345999Y32440371D01*
X26345980Y32440396D01*
X26336359Y32458768D01*
X26324167Y32482034D01*
X26324155Y32482072D01*
X26324140Y32482099D01*
X26316541Y32504627D01*
X26309110Y32526636D01*
X26309105Y32526666D01*
X26309092Y32526704D01*
X26304621Y32553028D01*
X26301215Y32573045D01*
X26301213Y32573087D01*
X26301208Y32573115D01*
X26301208Y32573203D01*
X26300021Y32596571D01*
X26293774Y33143131D01*
X26293773Y33143145D01*
X26287526Y33643825D01*
X26281277Y34106303D01*
X26281278Y34106320D01*
X26275037Y34536397D01*
X26275036Y34536401D01*
X26268791Y34940026D01*
X26268790Y34940031D01*
X26262540Y35321425D01*
X26262541Y35321440D01*
X26256300Y35683407D01*
X26256299Y35683408D01*
X26250050Y36030005D01*
X26243807Y36362992D01*
X26243806Y36363006D01*
X26237556Y36685483D01*
X26237557Y36685502D01*
X26231314Y36998773D01*
X26231312Y36998791D01*
X26225062Y37305385D01*
X26225063Y37305404D01*
X26218817Y37606449D01*
X26218816Y37606465D01*
X26212568Y37903934D01*
X26212567Y37903934D01*
X26206317Y38199197D01*
X26206318Y38199214D01*
X26200069Y38493629D01*
X26200067Y38493647D01*
X26193817Y38788715D01*
X26193818Y38788735D01*
X26193816Y38788758D01*
X26187566Y39085870D01*
X26187567Y39085913D01*
X26187565Y39085943D01*
X26181315Y39386561D01*
X26181316Y39386614D01*
X26181313Y39386664D01*
X26175063Y39692314D01*
X26175065Y39692374D01*
X26175060Y39692444D01*
X26168810Y40004746D01*
X26168812Y40004826D01*
X26168807Y40004904D01*
X26162557Y40325610D01*
X26162559Y40325694D01*
X26162553Y40325792D01*
X26156303Y40656825D01*
X26156306Y40656937D01*
X26156300Y40657030D01*
X26150050Y41000534D01*
X26150053Y41000648D01*
X26150046Y41000762D01*
X26143796Y41359161D01*
X26143799Y41359273D01*
X26143791Y41359407D01*
X26137541Y41735488D01*
X26137545Y41735622D01*
X26137537Y41735751D01*
X26131287Y42132746D01*
X26131291Y42132887D01*
X26131283Y42133023D01*
X26125033Y42554739D01*
X26125037Y42554885D01*
X26125029Y42555028D01*
X26118779Y43006005D01*
X26118783Y43006153D01*
X26118775Y43006302D01*
X26112525Y43492022D01*
X26112529Y43492170D01*
X26112521Y43492326D01*
X26106271Y44019497D01*
X26106276Y44019656D01*
X26106268Y44019804D01*
X26100019Y44596751D01*
X26100685Y44620152D01*
X26100684Y44620232D01*
X26100688Y44620258D01*
X26100689Y44620297D01*
X26103772Y44641226D01*
X26107534Y44666807D01*
X26107545Y44666840D01*
X26107549Y44666871D01*
X26113817Y44686896D01*
X26121585Y44711736D01*
X26121602Y44711770D01*
X26121610Y44711796D01*
X26130640Y44730001D01*
X26142492Y44753914D01*
X26142513Y44753943D01*
X26142526Y44753970D01*
X26155309Y44771970D01*
X26169740Y44792302D01*
X26169764Y44792326D01*
X26169782Y44792352D01*
X26185102Y44808006D01*
X26202658Y44825955D01*
X26202688Y44825976D01*
X26202708Y44825998D01*
X26220359Y44839116D01*
X26240434Y44854044D01*
X26240465Y44854059D01*
X26240490Y44854079D01*
X26259272Y44863906D01*
X26282140Y44875879D01*
X26282178Y44875891D01*
X26282201Y44875904D01*
X26301956Y44882560D01*
X26326748Y44890919D01*
X26326782Y44890924D01*
X26326812Y44890935D01*
X26349869Y44894843D01*
X26373159Y44898797D01*
X26373203Y44898799D01*
X26373225Y44898803D01*
X26373293Y44898803D01*
X26396686Y44899982D01*
X26962303Y44906232D01*
X26962311Y44906231D01*
X27479981Y44912478D01*
X27479984Y44912477D01*
X27958107Y44918724D01*
X28403197Y44924970D01*
X28820582Y44931216D01*
X29214684Y44937462D01*
X29589221Y44943708D01*
X29589222Y44943707D01*
X29947133Y44949950D01*
X29947148Y44949951D01*
X30291820Y44956201D01*
X30291834Y44956200D01*
X30625004Y44962447D01*
X30948879Y44968691D01*
X30948893Y44968692D01*
X31265802Y44974942D01*
X31577079Y44981190D01*
X31577090Y44981189D01*
X31884488Y44987438D01*
X31884489Y44987437D01*
X32189577Y44993687D01*
X32192565Y44993630D01*
X32195555Y44993750D01*
X43496844Y44999998D01*
X43798745Y45006187D01*
X43798763Y45006186D01*
X43798786Y45006188D01*
X44105770Y45012438D01*
X44105811Y45012437D01*
X44105841Y45012439D01*
X44416428Y45018689D01*
X44416477Y45018688D01*
X44416527Y45018691D01*
X44732292Y45024941D01*
X44732348Y45024939D01*
X44732418Y45024944D01*
X45055035Y45031194D01*
X45055109Y45031192D01*
X45055187Y45031197D01*
X45386465Y45037447D01*
X45386556Y45037445D01*
X45386641Y45037450D01*
X45728566Y45043700D01*
X45728672Y45043697D01*
X45728765Y45043703D01*
X46083550Y45049953D01*
X46083656Y45049950D01*
X46083769Y45049957D01*
X46453920Y45056207D01*
X46454038Y45056204D01*
X46454158Y45056211D01*
X46842548Y45062461D01*
X46842674Y45062458D01*
X46842802Y45062465D01*
X47252771Y45068715D01*
X47252904Y45068711D01*
X47253039Y45068719D01*
X47688515Y45074969D01*
X47688652Y45074965D01*
X47688794Y45074973D01*
X48154466Y45081223D01*
X48154606Y45081219D01*
X48154754Y45081227D01*
X48656279Y45087477D01*
X48656432Y45087472D01*
X48656572Y45087480D01*
X49200877Y45093730D01*
X49201029Y45093725D01*
X49201175Y45093733D01*
X49796853Y45099982D01*
X49820255Y45099308D01*
X49820338Y45099309D01*
X49820365Y45099304D01*
X49820399Y45099304D01*
X49843231Y45095933D01*
X49866910Y45092442D01*
X49866935Y45092434D01*
X49866970Y45092429D01*
X49890736Y45084981D01*
X49911834Y45078375D01*
X49911862Y45078361D01*
X49911891Y45078352D01*
X49932196Y45068273D01*
X49954005Y45057453D01*
X49954031Y45057434D01*
X49954058Y45057421D01*
X49971730Y45044861D01*
X49992383Y45030192D01*
X49992407Y45030167D01*
X49992430Y45030152D01*
X50008121Y45014786D01*
X50026025Y44997262D01*
X50026043Y44997236D01*
X50026066Y44997215D01*
X50040627Y44977609D01*
X50054101Y44959476D01*
X50054114Y44959450D01*
X50054134Y44959424D01*
X50065026Y44938589D01*
X50075920Y44917762D01*
X50075930Y44917730D01*
X50075944Y44917705D01*
X50083149Y44896297D01*
X50090945Y44873149D01*
X50090950Y44873117D01*
X50090960Y44873089D01*
X50095103Y44848597D01*
X50098806Y44826734D01*
X50098807Y44826697D01*
X50098812Y44826673D01*
X50098812Y44826598D01*
X50099983Y44803208D01*
X50106229Y44219158D01*
X50106230Y44219155D01*
X50112480Y43684038D01*
X50112479Y43684029D01*
X50118726Y43190097D01*
X50118725Y43190092D01*
X50124968Y42730591D01*
X50124969Y42730575D01*
X50131219Y42299151D01*
X50131218Y42299149D01*
X50137465Y41892066D01*
X50137464Y41892063D01*
X50143711Y41505214D01*
X50143710Y41505207D01*
X50149953Y41135533D01*
X50149954Y41135523D01*
X50156200Y40779751D01*
X50156201Y40779748D01*
X50162451Y40435488D01*
X50162450Y40435485D01*
X50168698Y40100888D01*
X50168697Y40100874D01*
X50174945Y39773795D01*
X50174944Y39773794D01*
X50181191Y39452485D01*
X50181192Y39452474D01*
X50187442Y39135018D01*
X50187441Y39135015D01*
X50193690Y38820080D01*
X50193691Y38820072D01*
X50199941Y38505968D01*
X50199940Y38505959D01*
X50199941Y38505957D01*
X50206191Y38191239D01*
X50206190Y38191221D01*
X50206192Y38191198D01*
X50212442Y37874340D01*
X50212441Y37874302D01*
X50212443Y37874272D01*
X50218693Y37553717D01*
X50218692Y37553672D01*
X50218695Y37553622D01*
X50224945Y37227742D01*
X50224943Y37227677D01*
X50224947Y37227620D01*
X50231197Y36894686D01*
X50231195Y36894617D01*
X50231200Y36894540D01*
X50237450Y36552690D01*
X50237448Y36552605D01*
X50237453Y36552520D01*
X50243703Y36199704D01*
X50243700Y36199603D01*
X50243706Y36199511D01*
X50249956Y35833445D01*
X50249953Y35833345D01*
X50249960Y35833232D01*
X50256210Y35451331D01*
X50256207Y35451221D01*
X50256214Y35451101D01*
X50262464Y35050400D01*
X50262460Y35050269D01*
X50262467Y35050155D01*
X50268717Y34627214D01*
X50268713Y34627088D01*
X50268721Y34626954D01*
X50274971Y34177718D01*
X50274967Y34177587D01*
X50274975Y34177447D01*
X50281225Y33697081D01*
X50281221Y33696936D01*
X50281228Y33696802D01*
X50287478Y33179471D01*
X50287474Y33179325D01*
X50287481Y33179186D01*
X50293731Y32617748D01*
X50293726Y32617604D01*
X50293734Y32617460D01*
X50299983Y32003051D01*
X50299301Y31979622D01*
X50299302Y31979562D01*
X50299299Y31979543D01*
X50299298Y31979505D01*
X50295965Y31956988D01*
X50292420Y31932992D01*
X50292411Y31932964D01*
X50292407Y31932936D01*
X50285948Y31912351D01*
X50278338Y31888073D01*
X50278323Y31888044D01*
X50278316Y31888020D01*
X50267664Y31866578D01*
X50257401Y31845909D01*
X50257387Y31845890D01*
X50257372Y31845859D01*
X50241529Y31823582D01*
X50230127Y31807540D01*
X50230109Y31807523D01*
X50230091Y31807496D01*
X50211931Y31788964D01*
X50197186Y31773909D01*
X50197164Y31773894D01*
X50197143Y31773871D01*
X50177104Y31758999D01*
X50159391Y31745846D01*
X50159366Y31745834D01*
X50159342Y31745815D01*
X50139065Y31735223D01*
X50117670Y31724040D01*
X50117639Y31724030D01*
X50117617Y31724018D01*
X50096962Y31717074D01*
X50073052Y31709030D01*
X50073023Y31709026D01*
X50072996Y31709016D01*
X50050450Y31705211D01*
X50026635Y31701185D01*
X50026594Y31701184D01*
X50026577Y31701180D01*
X50026523Y31701180D01*
X50003107Y31700016D01*
X49400317Y31693770D01*
X48848066Y31687519D01*
X48848051Y31687520D01*
X48338592Y31681278D01*
X48338584Y31681277D01*
X47863815Y31675026D01*
X47419152Y31668784D01*
X47419140Y31668783D01*
X46998827Y31662533D01*
X46599881Y31656291D01*
X46599872Y31656290D01*
X46218207Y31650044D01*
X46218203Y31650043D01*
X45851142Y31643796D01*
X45496141Y31637549D01*
X45150947Y31631302D01*
X45150940Y31631301D01*
X44813501Y31625053D01*
X44481889Y31618803D01*
X44481873Y31618804D01*
X44154603Y31612557D01*
X44154582Y31612555D01*
X43829700Y31606306D01*
X43826906Y31606362D01*
X43824096Y31606250D01*
X32502948Y31600002D01*
X32181232Y31593806D01*
X32181217Y31593807D01*
X32181194Y31593805D01*
X31854463Y31587555D01*
X31854428Y31587556D01*
X31854398Y31587554D01*
X31523874Y31581304D01*
X31523831Y31581305D01*
X31523781Y31581302D01*
X31187786Y31575052D01*
X31187725Y31575054D01*
X31187668Y31575050D01*
X30844421Y31568800D01*
X30844355Y31568802D01*
X30844278Y31568797D01*
X30491857Y31562547D01*
X30491776Y31562549D01*
X30491691Y31562544D01*
X30127983Y31556294D01*
X30127889Y31556297D01*
X30127797Y31556291D01*
X29750448Y31550041D01*
X29750342Y31550044D01*
X29750243Y31550038D01*
X29356591Y31543788D01*
X29356487Y31543791D01*
X29356368Y31543784D01*
X28943360Y31537534D01*
X28943234Y31537538D01*
X28943121Y31537531D01*
X28507207Y31531281D01*
X28507088Y31531284D01*
X28506955Y31531277D01*
X28043958Y31525027D01*
X28043821Y31525031D01*
X28043695Y31525024D01*
X27548635Y31518775D01*
X27548497Y31518779D01*
X27548365Y31518772D01*
X27015228Y31512521D01*
X27015089Y31512525D01*
X27014952Y31512518D01*
X26436379Y31506267D01*
X26436229Y31506272D01*
X26436100Y31506265D01*
X25802961Y31500016D01*
X25779505Y31500706D01*
X25779469Y31500705D01*
X25779458Y31500707D01*
X25779415Y31500708D01*
X25753981Y31504480D01*
X25732901Y31507601D01*
X25732876Y31507609D01*
X25732848Y31507613D01*
X25705558Y31516184D01*
X25687987Y31521698D01*
X25687971Y31521707D01*
X25687936Y31521717D01*
X25661166Y31535026D01*
X25645829Y31542647D01*
X25645813Y31542660D01*
X25645782Y31542674D01*
X25622414Y31559303D01*
X25607469Y31569933D01*
X25607454Y31569949D01*
X25607427Y31569967D01*
X25588734Y31588296D01*
X25573848Y31602884D01*
X25573833Y31602905D01*
X25573812Y31602925D01*
X25559210Y31622611D01*
X25545796Y31640688D01*
X25545784Y31640712D01*
X25545767Y31640734D01*
X25533838Y31663586D01*
X25524004Y31682416D01*
X25523997Y31682439D01*
X25523982Y31682466D01*
X25515001Y31709209D01*
X25509008Y31727039D01*
X25509005Y31727060D01*
X25508994Y31727091D01*
X25504535Y31753559D01*
X25501177Y31773459D01*
X25501176Y31773492D01*
X25501172Y31773512D01*
X25501172Y31773573D01*
X25500015Y31796986D01*
X25493766Y32418740D01*
X25487521Y32987645D01*
X25481275Y33513201D01*
X25481274Y33513205D01*
X25475024Y34002669D01*
X25475025Y34002682D01*
X25468782Y34461111D01*
X25468781Y34461118D01*
X25462531Y34894405D01*
X25462532Y34894420D01*
X25456289Y35305677D01*
X25456288Y35305681D01*
X25450042Y35699106D01*
X25450041Y35699106D01*
X25443791Y36077623D01*
X25443792Y36077627D01*
X25437547Y36443339D01*
X25437546Y36443351D01*
X25431299Y36799125D01*
X25431298Y36799128D01*
X25425048Y37146980D01*
X25425049Y37146986D01*
X25418802Y37488534D01*
X25418801Y37488541D01*
X25412551Y37825934D01*
X25412552Y37825939D01*
X25406302Y38160645D01*
X25406303Y38160663D01*
X25400054Y38494374D01*
X25400052Y38494394D01*
X25393802Y38828762D01*
X25393803Y38828790D01*
X25393802Y38828800D01*
X25387552Y39165403D01*
X25387553Y39165437D01*
X25387551Y39165467D01*
X25381301Y39505960D01*
X25381302Y39506000D01*
X25381299Y39506050D01*
X25375049Y39852160D01*
X25375051Y39852217D01*
X25375047Y39852274D01*
X25368797Y40205837D01*
X25368799Y40205897D01*
X25368794Y40205974D01*
X25362544Y40568967D01*
X25362546Y40569056D01*
X25362542Y40569127D01*
X25356292Y40943727D01*
X25356295Y40943817D01*
X25356289Y40943908D01*
X25350039Y41332538D01*
X25350042Y41332639D01*
X25350036Y41332738D01*
X25343786Y41738140D01*
X25343789Y41738238D01*
X25343782Y41738356D01*
X25337532Y42163674D01*
X25337535Y42163793D01*
X25337529Y42163905D01*
X25331279Y42612793D01*
X25331283Y42612918D01*
X25331276Y42613037D01*
X25325026Y43089796D01*
X25325030Y43089925D01*
X25325023Y43090050D01*
X25318773Y43599804D01*
X25318777Y43599923D01*
X25318769Y43600066D01*
X25312519Y44149010D01*
X25312524Y44149155D01*
X25312517Y44149277D01*
X25306267Y44744983D01*
X25306271Y44745114D01*
X25306264Y44745254D01*
X25300014Y45397124D01*
X25300711Y45420581D01*
X25300710Y45420619D01*
X25300712Y45420631D01*
X25300713Y45420670D01*
X25304592Y45446774D01*
X25307620Y45467184D01*
X25307627Y45467205D01*
X25307631Y45467234D01*
X25316001Y45493858D01*
X25321730Y45512095D01*
X25321739Y45512112D01*
X25321748Y45512142D01*
X25333025Y45534807D01*
X25342691Y45554247D01*
X25342707Y45554268D01*
X25342717Y45554290D01*
X25355487Y45572224D01*
X25369988Y45592599D01*
X25370008Y45592618D01*
X25370021Y45592638D01*
X25387488Y45610442D01*
X25402950Y45626210D01*
X25402968Y45626222D01*
X25402988Y45626244D01*
X25423545Y45641482D01*
X25440762Y45654250D01*
X25440785Y45654261D01*
X25440805Y45654277D01*
X25463019Y45665865D01*
X25482497Y45676031D01*
X25482519Y45676038D01*
X25482543Y45676051D01*
X25505992Y45683918D01*
X25527124Y45691014D01*
X25527149Y45691018D01*
X25527172Y45691026D01*
X25551959Y45695195D01*
X25573546Y45698831D01*
X25573575Y45698832D01*
X25573596Y45698836D01*
X25573661Y45698836D01*
X25597073Y45699986D01*
X26237613Y45706236D01*
X26237617Y45706235D01*
X26823861Y45712483D01*
X27365245Y45718729D01*
X27869144Y45724977D01*
X28341603Y45731223D01*
X28787627Y45737471D01*
X28787647Y45737470D01*
X29211430Y45743717D01*
X29616591Y45749964D01*
X29616593Y45749963D01*
X30006025Y45756208D01*
X30006040Y45756209D01*
X30382975Y45762459D01*
X30382990Y45762458D01*
X30749303Y45768706D01*
X31107242Y45774952D01*
X31107258Y45774953D01*
X31459102Y45781203D01*
X31459122Y45781202D01*
X31806333Y45787449D01*
X31806352Y45787451D01*
X32150980Y45793701D01*
X32153623Y45793645D01*
X32156254Y45793750D01*
X43497170Y45799998D01*
X43838747Y45806201D01*
X43838774Y45806200D01*
X43838784Y45806201D01*
X44185259Y45812451D01*
X44185291Y45812450D01*
X44185321Y45812452D01*
X44535784Y45818702D01*
X44535820Y45818701D01*
X44535870Y45818704D01*
X44892096Y45824954D01*
X44892150Y45824952D01*
X44892207Y45824956D01*
X45256084Y45831206D01*
X45256154Y45831204D01*
X45256218Y45831208D01*
X45629784Y45837458D01*
X45629855Y45837456D01*
X45629938Y45837461D01*
X46015431Y45843711D01*
X46015528Y45843708D01*
X46015606Y45843713D01*
X46415517Y45849963D01*
X46415613Y45849960D01*
X46415711Y45849966D01*
X46832863Y45856216D01*
X46832969Y45856213D01*
X46833073Y45856219D01*
X47270700Y45862469D01*
X47270801Y45862466D01*
X47270925Y45862473D01*
X47732786Y45868723D01*
X47732905Y45868719D01*
X47733023Y45868726D01*
X48223541Y45874976D01*
X48223665Y45874972D01*
X48223788Y45874979D01*
X48748237Y45881229D01*
X48748363Y45881225D01*
X48748492Y45881232D01*
X49313240Y45887482D01*
X49313380Y45887478D01*
X49313501Y45887484D01*
X49926341Y45893733D01*
X49926466Y45893729D01*
X49926604Y45893736D01*
X50597204Y45899986D01*
X50620637Y45899283D01*
G37*
%TD.AperFunction*%
%TD*%
D11*
%TO.P,U6,1*%
%TO.N,/FB_LED*%
X29650000Y18270000D03*
%TO.P,U6,2*%
%TO.N,/FB_K*%
X29650000Y15730000D03*
%TO.P,U6,3*%
%TO.N,/AGND*%
X35950000Y15730000D03*
%TO.P,U6,4*%
%TO.N,/FB_COL*%
X35950000Y18270000D03*
%TD*%
D12*
%TO.P,C19,1*%
%TO.N,/VIN*%
X57825000Y28000000D03*
%TO.P,C19,2*%
%TO.N,/PGND*%
X60775000Y28000000D03*
%TD*%
D13*
%TO.P,R15,1*%
%TO.N,/BIAS_EN*%
X62500000Y19375000D03*
%TO.P,R15,2*%
%TO.N,/PGND*%
X62500000Y21025000D03*
%TD*%
D14*
%TO.P,TP5,1*%
%TO.N,/V5*%
X55000000Y55000000D03*
%TD*%
D13*
%TO.P,R9,1*%
%TO.N,/OC*%
X46000000Y21675000D03*
%TO.P,R9,2*%
%TO.N,/AGND*%
X46000000Y23325000D03*
%TD*%
%TO.P,R17,1*%
%TO.N,/BIAS12*%
X54000000Y15675000D03*
%TO.P,R17,2*%
%TO.N,/BIAS_FB*%
X54000000Y17325000D03*
%TD*%
D15*
%TO.P,C23,1*%
%TO.N,/RIPPLE*%
X62000000Y15725000D03*
%TO.P,C23,2*%
%TO.N,/BIAS12*%
X62000000Y17275000D03*
%TD*%
D16*
%TO.P,U2,1*%
%TO.N,/DT*%
X40400000Y18900000D03*
%TO.P,U2,2*%
%TO.N,/RT*%
X40400000Y17630000D03*
%TO.P,U2,3*%
%TO.N,/OC*%
X40400000Y16370000D03*
%TO.P,U2,4*%
%TO.N,/SS*%
X40400000Y15100000D03*
%TO.P,U2,5*%
%TO.N,/GD2*%
X45600000Y15100000D03*
%TO.P,U2,6*%
%TO.N,/AGND*%
X45600000Y16370000D03*
%TO.P,U2,7*%
%TO.N,/BIAS12*%
X45600000Y17630000D03*
%TO.P,U2,8*%
%TO.N,/GD1*%
X45600000Y18900000D03*
%TD*%
D15*
%TO.P,C24,1*%
%TO.N,/RIPPLE*%
X58000000Y15725000D03*
%TO.P,C24,2*%
%TO.N,/BIAS_FB*%
X58000000Y17275000D03*
%TD*%
D17*
%TO.P,Q1,1*%
%TO.N,/SGND*%
X19310000Y42700000D03*
%TO.P,Q1,2*%
X19960000Y42700000D03*
%TO.P,Q1,3*%
X20610000Y42700000D03*
%TO.P,Q1,4*%
%TO.N,/SR_G1*%
X21260000Y42700000D03*
D18*
%TO.P,Q1,5*%
%TO.N,/SEC_A*%
X21290000Y45700000D03*
%TO.P,Q1,6*%
X20640000Y45700000D03*
%TO.P,Q1,7*%
X19990000Y45700000D03*
%TO.P,Q1,8*%
X19340000Y45700000D03*
D19*
%TO.P,Q1,9*%
X20310000Y44610000D03*
%TD*%
D16*
%TO.P,U3,1*%
%TO.N,/VG1*%
X17300000Y40400000D03*
%TO.P,U3,2*%
%TO.N,/SGND*%
X17300000Y39130000D03*
%TO.P,U3,3*%
%TO.N,/SR_REG*%
X17300000Y37870000D03*
%TO.P,U3,4*%
%TO.N,/VS1*%
X17300000Y36600000D03*
%TO.P,U3,5*%
%TO.N,/SGND*%
X22500000Y36600000D03*
%TO.P,U3,6*%
%TO.N,/VS2*%
X22500000Y37870000D03*
%TO.P,U3,7*%
%TO.N,/VOUT*%
X22500000Y39130000D03*
%TO.P,U3,8*%
%TO.N,/VG2*%
X22500000Y40400000D03*
%TD*%
D13*
%TO.P,R14,1*%
%TO.N,/VIN*%
X62500000Y23175000D03*
%TO.P,R14,2*%
%TO.N,/BIAS_EN*%
X62500000Y24825000D03*
%TD*%
D15*
%TO.P,C25,1*%
%TO.N,/BIAS12*%
X52000000Y29425000D03*
%TO.P,C25,2*%
%TO.N,/AGND*%
X52000000Y30975000D03*
%TD*%
D20*
%TO.P,C11,1*%
%TO.N,/SR_REG*%
X18550000Y35000000D03*
%TO.P,C11,2*%
%TO.N,/SGND*%
X20450000Y35000000D03*
%TD*%
D21*
%TO.P,C13,1*%
%TO.N,/VOUT*%
X19000000Y26025000D03*
%TO.P,C13,2*%
%TO.N,/SGND*%
X19000000Y28975000D03*
%TD*%
D15*
%TO.P,C10,1*%
%TO.N,/BIAS12*%
X47200000Y16825000D03*
%TO.P,C10,2*%
%TO.N,/AGND*%
X47200000Y18375000D03*
%TD*%
D22*
%TO.P,L1,1*%
%TO.N,/SW*%
X57450000Y35000000D03*
%TO.P,L1,2*%
%TO.N,/PRI_A*%
X52950000Y35000000D03*
%TD*%
D15*
%TO.P,C4,1*%
%TO.N,/HB*%
X62200000Y45525000D03*
%TO.P,C4,2*%
%TO.N,/SW*%
X62200000Y47075000D03*
%TD*%
D23*
%TO.P,U7,1*%
%TO.N,/FB_K*%
X27450000Y18240000D03*
%TO.P,U7,2*%
%TO.N,/VREF*%
X25550000Y18240000D03*
%TO.P,U7,3*%
%TO.N,/SGND*%
X26500000Y15760000D03*
%TD*%
D24*
%TO.P,C18,1*%
%TO.N,/OC*%
X38025000Y23000000D03*
%TO.P,C18,2*%
%TO.N,/AGND*%
X39575000Y23000000D03*
%TD*%
D25*
%TO.P,D2,1*%
%TO.N,/AGND*%
X49950000Y20150000D03*
%TO.P,D2,2*%
%TO.N,/OC*%
X49950000Y22050000D03*
%TO.P,D2,3*%
%TO.N,/CS_RECT*%
X47650000Y21100000D03*
%TD*%
D26*
%TO.P,FID3,*%
%TO.N,*%
X51000000Y55700000D03*
%TD*%
D13*
%TO.P,R25,1*%
%TO.N,/VOUT*%
X22300000Y10175000D03*
%TO.P,R25,2*%
%TO.N,/OV_LED*%
X22300000Y11825000D03*
%TD*%
D14*
%TO.P,TP6,1*%
%TO.N,/AGND*%
X58000000Y55000000D03*
%TD*%
D24*
%TO.P,C20,1*%
%TO.N,/BIAS_BST*%
X54225000Y25500000D03*
%TO.P,C20,2*%
%TO.N,/BIAS_SW*%
X55775000Y25500000D03*
%TD*%
D27*
%TO.P,R4,1*%
%TO.N,/GD1*%
X42675000Y23000000D03*
%TO.P,R4,2*%
%TO.N,/HI*%
X44325000Y23000000D03*
%TD*%
D15*
%TO.P,C17,1*%
%TO.N,/TANK_C*%
X47800000Y26625000D03*
%TO.P,C17,2*%
%TO.N,/CS_AC*%
X47800000Y28175000D03*
%TD*%
D21*
%TO.P,C16,1*%
%TO.N,/VOUT*%
X23500000Y21025000D03*
%TO.P,C16,2*%
%TO.N,/SGND*%
X23500000Y23975000D03*
%TD*%
D15*
%TO.P,C5,1*%
%TO.N,/V5*%
X55100000Y50725000D03*
%TO.P,C5,2*%
%TO.N,/AGND*%
X55100000Y52275000D03*
%TD*%
D28*
%TO.P,U1,1*%
%TO.N,unconnected-(U1-NC-Pad1)*%
X57900000Y43700000D03*
D29*
%TO.P,U1,2*%
%TO.N,unconnected-(U1-NC-Pad2)*%
X57900000Y43200000D03*
%TO.P,U1,3*%
%TO.N,unconnected-(U1-NC-Pad3)*%
X57900000Y42700000D03*
%TO.P,U1,4*%
%TO.N,unconnected-(U1-NC-Pad4)*%
X57900000Y42200000D03*
D30*
%TO.P,U1,5*%
%TO.N,/SW*%
X57900000Y40020000D03*
D31*
%TO.P,U1,6*%
%TO.N,/PGND*%
X60000000Y40200000D03*
D32*
%TO.P,U1,7*%
%TO.N,/VIN*%
X62100000Y40020000D03*
D29*
%TO.P,U1,8*%
%TO.N,unconnected-(U1-NC-Pad8)*%
X62100000Y42200000D03*
%TO.P,U1,9*%
%TO.N,unconnected-(U1-NC-Pad9)*%
X62100000Y42700000D03*
%TO.P,U1,10*%
%TO.N,/HB*%
X62100000Y43200000D03*
D33*
%TO.P,U1,11*%
%TO.N,/SW*%
X62100000Y43700000D03*
D34*
%TO.P,U1,12*%
%TO.N,/HI*%
X60820000Y43980000D03*
%TO.P,U1,13*%
%TO.N,/LI*%
X60330000Y43980000D03*
%TO.P,U1,14*%
%TO.N,/V5*%
X59820000Y43980000D03*
%TO.P,U1,15*%
%TO.N,/AGND*%
X59330000Y43980000D03*
%TO.P,U1,16*%
%TO.N,unconnected-(U1-NC-Pad16)*%
X58820000Y43980000D03*
D35*
%TO.P,U1,17*%
%TO.N,/PGND*%
X59770000Y42660000D03*
%TD*%
D36*
%TO.P,J1,*%
%TO.N,*%
X76200000Y42500000D03*
X76200000Y31500000D03*
D37*
%TO.P,J1,1*%
%TO.N,/PGND*%
X66200000Y34500000D03*
D38*
%TO.P,J1,2*%
%TO.N,/VIN_RAW*%
X66200000Y39500000D03*
%TD*%
D21*
%TO.P,C1,1*%
%TO.N,/VIN*%
X54000000Y45625000D03*
%TO.P,C1,2*%
%TO.N,/PGND*%
X54000000Y48575000D03*
%TD*%
D13*
%TO.P,R8,1*%
%TO.N,/CS_AC*%
X49800000Y23375000D03*
%TO.P,R8,2*%
%TO.N,/CS_RECT*%
X49800000Y25025000D03*
%TD*%
D15*
%TO.P,C28,1*%
%TO.N,/FB_K*%
X30500000Y21225000D03*
%TO.P,C28,2*%
%TO.N,/VREF*%
X30500000Y22775000D03*
%TD*%
D36*
%TO.P,J2,*%
%TO.N,*%
X8800000Y31500000D03*
X8800000Y42500000D03*
D39*
%TO.P,J2,1*%
%TO.N,/SGND*%
X13800000Y34500000D03*
D38*
%TO.P,J2,2*%
%TO.N,/VOUT*%
X13800000Y39500000D03*
%TD*%
D14*
%TO.P,TP4,1*%
%TO.N,/SGND*%
X11500000Y25000000D03*
%TD*%
D13*
%TO.P,R22,1*%
%TO.N,/VOUT*%
X19000000Y16175000D03*
%TO.P,R22,2*%
%TO.N,/VREF*%
X19000000Y17825000D03*
%TD*%
D40*
%TO.P,C2,1*%
%TO.N,/VIN*%
X61200000Y33875000D03*
%TO.P,C2,2*%
%TO.N,/PGND*%
X61200000Y30925000D03*
%TD*%
D26*
%TO.P,FID1,*%
%TO.N,*%
X9000000Y11000000D03*
%TD*%
D13*
%TO.P,R12,1*%
%TO.N,/SEC_A*%
X24000000Y44175000D03*
%TO.P,R12,2*%
%TO.N,/VS1*%
X24000000Y45825000D03*
%TD*%
D41*
%TO.P,F1,1*%
%TO.N,/VIN_RAW*%
X53450000Y51000000D03*
%TO.P,F1,2*%
%TO.N,/VIN*%
X50550000Y51000000D03*
%TD*%
D14*
%TO.P,TP3,1*%
%TO.N,/VOUT*%
X9000000Y25000000D03*
%TD*%
D27*
%TO.P,R16,1*%
%TO.N,/VIN*%
X57675000Y25500000D03*
%TO.P,R16,2*%
%TO.N,/RON*%
X59325000Y25500000D03*
%TD*%
D26*
%TO.P,FID2,*%
%TO.N,*%
X71000000Y11000000D03*
%TD*%
D42*
%TO.P,C3,1*%
%TO.N,/VIN*%
X62675000Y36700000D03*
%TO.P,C3,2*%
%TO.N,/PGND*%
X59725000Y36700000D03*
%TD*%
D15*
%TO.P,C12,1*%
%TO.N,/VOUT*%
X17300000Y41725000D03*
%TO.P,C12,2*%
%TO.N,/SGND*%
X17300000Y43275000D03*
%TD*%
D13*
%TO.P,R3,1*%
%TO.N,/RT*%
X40400000Y9075000D03*
%TO.P,R3,2*%
%TO.N,/FB_COL*%
X40400000Y10725000D03*
%TD*%
D43*
%TO.P,U5,1*%
%TO.N,/BIAS12*%
X56100000Y29250000D03*
%TO.P,U5,2*%
%TO.N,/AGND*%
X56100000Y30200000D03*
%TO.P,U5,3*%
%TO.N,/BIAS12*%
X56100000Y31150000D03*
%TO.P,U5,4*%
%TO.N,unconnected-(U5-NC-Pad4)*%
X53900000Y31150000D03*
%TO.P,U5,5*%
%TO.N,/V5*%
X53900000Y29250000D03*
%TD*%
D13*
%TO.P,R11,1*%
%TO.N,/VG2*%
X17000000Y31175000D03*
%TO.P,R11,2*%
%TO.N,/SR_G2*%
X17000000Y32825000D03*
%TD*%
D14*
%TO.P,TP2,1*%
%TO.N,/PGND*%
X72500000Y25000000D03*
%TD*%
D13*
%TO.P,R18,1*%
%TO.N,/BIAS_FB*%
X56000000Y15675000D03*
%TO.P,R18,2*%
%TO.N,/PGND*%
X56000000Y17325000D03*
%TD*%
D12*
%TO.P,C15,1*%
%TO.N,/VOUT*%
X18825000Y50000000D03*
%TO.P,C15,2*%
%TO.N,/SGND*%
X21775000Y50000000D03*
%TD*%
D44*
%TO.P,L2,1*%
%TO.N,/BIAS_SW*%
X55050000Y9500000D03*
%TO.P,L2,2*%
%TO.N,/BIAS12*%
X60950000Y9500000D03*
%TD*%
D21*
%TO.P,C21,1*%
%TO.N,/BIAS12*%
X49100000Y10825000D03*
%TO.P,C21,2*%
%TO.N,/PGND*%
X49100000Y13775000D03*
%TD*%
D45*
%TO.P,T1,1*%
%TO.N,/PRI_A*%
X51537772Y35735180D03*
%TO.P,T1,2*%
%TO.N,/TANK_C*%
X51537772Y41264820D03*
%TO.P,T1,3*%
%TO.N,/SEC_A*%
X24462228Y41264820D03*
%TO.P,T1,4*%
%TO.N,/VOUT*%
X27800000Y38500000D03*
%TO.P,T1,5*%
%TO.N,/SEC_B*%
X24462228Y35735180D03*
%TO.P,T1,6*%
%TO.N,unconnected-(T1-P_MID-Pad6)*%
X48200000Y38500000D03*
%TD*%
D46*
%TO.P,R10,1*%
%TO.N,/VG1*%
X24325000Y42700000D03*
%TO.P,R10,2*%
%TO.N,/SR_G1*%
X22675000Y42700000D03*
%TD*%
D27*
%TO.P,R6,1*%
%TO.N,/GD2*%
X42675000Y10500000D03*
%TO.P,R6,2*%
%TO.N,/LI*%
X44325000Y10500000D03*
%TD*%
D24*
%TO.P,C6,1*%
%TO.N,/V5*%
X56725000Y46300000D03*
%TO.P,C6,2*%
%TO.N,/AGND*%
X58275000Y46300000D03*
%TD*%
D13*
%TO.P,R23,1*%
%TO.N,/VREF*%
X21000000Y16175000D03*
%TO.P,R23,2*%
%TO.N,/SGND*%
X21000000Y17825000D03*
%TD*%
D23*
%TO.P,U9,1*%
%TO.N,/OV_K*%
X27450000Y10640000D03*
%TO.P,U9,2*%
%TO.N,/OV_REF*%
X25550000Y10640000D03*
%TO.P,U9,3*%
%TO.N,/SGND*%
X26500000Y8160000D03*
%TD*%
D11*
%TO.P,U8,1*%
%TO.N,/OV_LED*%
X29650000Y10670000D03*
%TO.P,U8,2*%
%TO.N,/OV_K*%
X29650000Y8130000D03*
%TO.P,U8,3*%
%TO.N,/AGND*%
X35950000Y8130000D03*
%TO.P,U8,4*%
%TO.N,/SS*%
X35950000Y10670000D03*
%TD*%
D24*
%TO.P,C29,1*%
%TO.N,/OV_REF*%
X25725000Y6000000D03*
%TO.P,C29,2*%
%TO.N,/SGND*%
X27275000Y6000000D03*
%TD*%
D17*
%TO.P,Q2,1*%
%TO.N,/SGND*%
X21290000Y33300000D03*
%TO.P,Q2,2*%
X20640000Y33300000D03*
%TO.P,Q2,3*%
X19990000Y33300000D03*
%TO.P,Q2,4*%
%TO.N,/SR_G2*%
X19340000Y33300000D03*
D18*
%TO.P,Q2,5*%
%TO.N,/SEC_B*%
X19310000Y30300000D03*
%TO.P,Q2,6*%
X19960000Y30300000D03*
%TO.P,Q2,7*%
X20610000Y30300000D03*
%TO.P,Q2,8*%
X21260000Y30300000D03*
D19*
%TO.P,Q2,9*%
X20290000Y31390000D03*
%TD*%
D21*
%TO.P,C22,1*%
%TO.N,/BIAS12*%
X49100000Y5525000D03*
%TO.P,C22,2*%
%TO.N,/PGND*%
X49100000Y8475000D03*
%TD*%
D13*
%TO.P,R28,1*%
%TO.N,/OV_REF*%
X21000000Y6775000D03*
%TO.P,R28,2*%
%TO.N,/SGND*%
X21000000Y8425000D03*
%TD*%
D27*
%TO.P,R1,1*%
%TO.N,/DT*%
X40475000Y13600000D03*
%TO.P,R1,2*%
%TO.N,/AGND*%
X42125000Y13600000D03*
%TD*%
%TO.P,R5,1*%
%TO.N,/HI*%
X42675000Y21300000D03*
%TO.P,R5,2*%
%TO.N,/AGND*%
X44325000Y21300000D03*
%TD*%
D47*
%TO.P,D1,1*%
%TO.N,/VIN*%
X48300000Y48310000D03*
%TO.P,D1,2*%
%TO.N,/PGND*%
X48300000Y52690000D03*
%TD*%
D48*
%TO.P,C7,1*%
%TO.N,/TANK_C*%
X53025000Y42900000D03*
%TO.P,C7,2*%
%TO.N,/PGND*%
X55975000Y42900000D03*
%TD*%
D13*
%TO.P,R2,1*%
%TO.N,/RT*%
X38800000Y14675000D03*
%TO.P,R2,2*%
%TO.N,/AGND*%
X38800000Y16325000D03*
%TD*%
D20*
%TO.P,C26,1*%
%TO.N,/V5*%
X50050000Y27200000D03*
%TO.P,C26,2*%
%TO.N,/AGND*%
X51950000Y27200000D03*
%TD*%
D13*
%TO.P,R26,1*%
%TO.N,/OV_LED*%
X24000000Y10175000D03*
%TO.P,R26,2*%
%TO.N,/OV_K*%
X24000000Y11825000D03*
%TD*%
D27*
%TO.P,R20,1*%
%TO.N,/VOUT*%
X25975000Y22000000D03*
%TO.P,R20,2*%
%TO.N,/FB_LED*%
X27625000Y22000000D03*
%TD*%
D48*
%TO.P,C8,1*%
%TO.N,/TANK_C*%
X53025000Y40100000D03*
%TO.P,C8,2*%
%TO.N,/PGND*%
X55975000Y40100000D03*
%TD*%
D27*
%TO.P,R7,1*%
%TO.N,/LI*%
X42675000Y8800000D03*
%TO.P,R7,2*%
%TO.N,/AGND*%
X44325000Y8800000D03*
%TD*%
D13*
%TO.P,R19,1*%
%TO.N,/BIAS_SW*%
X60000000Y15675000D03*
%TO.P,R19,2*%
%TO.N,/RIPPLE*%
X60000000Y17325000D03*
%TD*%
D21*
%TO.P,C14,1*%
%TO.N,/VOUT*%
X23500000Y26025000D03*
%TO.P,C14,2*%
%TO.N,/SGND*%
X23500000Y28975000D03*
%TD*%
D49*
%TO.P,U4,1*%
%TO.N,/PGND*%
X61000000Y19600000D03*
%TO.P,U4,2*%
%TO.N,/VIN*%
X61000000Y20870000D03*
%TO.P,U4,3*%
%TO.N,/BIAS_EN*%
X61000000Y22140000D03*
%TO.P,U4,4*%
%TO.N,/RON*%
X61000000Y23410000D03*
%TO.P,U4,5*%
%TO.N,/BIAS_FB*%
X55000000Y23410000D03*
%TO.P,U4,6*%
%TO.N,unconnected-(U4-PGOOD-Pad6)*%
X55000000Y22140000D03*
%TO.P,U4,7*%
%TO.N,/BIAS_BST*%
X55000000Y20870000D03*
%TO.P,U4,8*%
%TO.N,/BIAS_SW*%
X55000000Y19600000D03*
D50*
%TO.P,U4,9*%
%TO.N,/PGND*%
X58000000Y21500000D03*
%TD*%
D27*
%TO.P,R24,1*%
%TO.N,/FB_K*%
X22575000Y13600000D03*
%TO.P,R24,2*%
%TO.N,/COMP*%
X24225000Y13600000D03*
%TD*%
D14*
%TO.P,TP1,1*%
%TO.N,/VIN*%
X70000000Y25000000D03*
%TD*%
D13*
%TO.P,R13,1*%
%TO.N,/SEC_B*%
X24000000Y30975000D03*
%TO.P,R13,2*%
%TO.N,/VS2*%
X24000000Y32625000D03*
%TD*%
D27*
%TO.P,R21,1*%
%TO.N,/FB_LED*%
X25975000Y20300000D03*
%TO.P,R21,2*%
%TO.N,/FB_K*%
X27625000Y20300000D03*
%TD*%
D24*
%TO.P,C27,1*%
%TO.N,/COMP*%
X26225000Y13600000D03*
%TO.P,C27,2*%
%TO.N,/VREF*%
X27775000Y13600000D03*
%TD*%
D15*
%TO.P,C9,1*%
%TO.N,/SS*%
X38800000Y19025000D03*
%TO.P,C9,2*%
%TO.N,/AGND*%
X38800000Y20575000D03*
%TD*%
D13*
%TO.P,R27,1*%
%TO.N,/VOUT*%
X19000000Y7675000D03*
%TO.P,R27,2*%
%TO.N,/OV_REF*%
X19000000Y9325000D03*
%TD*%
D51*
%TO.N,/AGND*%
X52000000Y30975000D03*
X44325000Y8800000D03*
X47200000Y18375000D03*
X38800000Y16325000D03*
X35950000Y8130000D03*
X44325000Y21300000D03*
X56100000Y30200000D03*
X55100000Y52275000D03*
X42125000Y13600000D03*
X58000000Y55000000D03*
X38800000Y20575000D03*
X53000000Y30500000D03*
X39575000Y23000000D03*
X45600000Y16370000D03*
X49950000Y20150000D03*
X51950000Y27200000D03*
X46000000Y23325000D03*
X58275000Y46300000D03*
X35950000Y15730000D03*
%TO.N,/BIAS12*%
X54000000Y15675000D03*
X60950000Y9500000D03*
X52000000Y29425000D03*
X47200000Y16825000D03*
X56100000Y31150000D03*
X56100000Y29250000D03*
X49100000Y10825000D03*
X62000000Y17275000D03*
X49100000Y5525000D03*
X45600000Y17630000D03*
%TO.N,/BIAS_BST*%
X54225000Y25500000D03*
X55000000Y20870000D03*
%TO.N,/BIAS_EN*%
X62500000Y19375000D03*
X61000000Y22140000D03*
X62500000Y24825000D03*
%TO.N,/BIAS_FB*%
X54000000Y17325000D03*
X58000000Y17275000D03*
X55000000Y23410000D03*
X56000000Y15675000D03*
%TO.N,/BIAS_SW*%
X55050000Y9500000D03*
X55775000Y25500000D03*
X60000000Y15675000D03*
X55000000Y19600000D03*
%TO.N,/CS_AC*%
X49800000Y23375000D03*
X47800000Y28175000D03*
%TO.N,/DT*%
X40475000Y13600000D03*
X40400000Y18900000D03*
%TO.N,/FB_COL*%
X35950000Y18270000D03*
X40400000Y10725000D03*
%TO.N,/FB_K*%
X27450000Y18240000D03*
X22575000Y13600000D03*
X30500000Y21225000D03*
X29650000Y15730000D03*
%TO.N,/FB_LED*%
X27625000Y22000000D03*
X29650000Y18270000D03*
%TO.N,/GD1*%
X42675000Y23000000D03*
X45600000Y18900000D03*
%TO.N,/GD2*%
X45600000Y15100000D03*
X42675000Y10500000D03*
%TO.N,/HI*%
X44325000Y23000000D03*
X61100000Y44900000D03*
%TO.N,/LI*%
X44325000Y10500000D03*
X60330000Y46300000D03*
%TO.N,/OC*%
X40400000Y16370000D03*
X49950000Y22050000D03*
X38025000Y23000000D03*
X46000000Y21675000D03*
%TO.N,/OV_LED*%
X24000000Y10175000D03*
X22300000Y11825000D03*
X29650000Y10670000D03*
%TO.N,/OV_REF*%
X25550000Y10640000D03*
X25725000Y6000000D03*
X19000000Y9325000D03*
X21000000Y6775000D03*
%TO.N,/PGND*%
X49100000Y13775000D03*
X59725000Y36700000D03*
X56000000Y17325000D03*
X59770000Y42660000D03*
X55975000Y42900000D03*
X49100000Y8475000D03*
X48300000Y52690000D03*
X60775000Y28000000D03*
X61200000Y30925000D03*
X58000000Y21500000D03*
X72500000Y25000000D03*
X55975000Y40100000D03*
X61000000Y19600000D03*
X60000000Y40200000D03*
X54000000Y48575000D03*
X62500000Y21025000D03*
%TO.N,/RIPPLE*%
X60000000Y17325000D03*
X62000000Y15725000D03*
X58000000Y15725000D03*
%TO.N,/RT*%
X38800000Y14675000D03*
X40400000Y17630000D03*
X40400000Y9075000D03*
%TO.N,/SEC_A*%
X20310000Y44610000D03*
%TO.N,/SGND*%
X19990000Y34100000D03*
X17300000Y43275000D03*
X23500000Y28975000D03*
X19960000Y41900000D03*
X26500000Y8160000D03*
X27275000Y6000000D03*
X21290000Y34100000D03*
X11500000Y25000000D03*
X22500000Y36600000D03*
X26500000Y15760000D03*
X20640000Y34100000D03*
X19310000Y41900000D03*
X21000000Y8425000D03*
X23500000Y23975000D03*
X20610000Y41900000D03*
X17300000Y39130000D03*
X21775000Y50000000D03*
X19000000Y28975000D03*
X21000000Y17825000D03*
X20450000Y35000000D03*
%TO.N,/SS*%
X38800000Y19025000D03*
X40400000Y15100000D03*
X35950000Y10670000D03*
%TO.N,/SW*%
X57800000Y38000000D03*
X62000000Y44500000D03*
X62200000Y47075000D03*
%TO.N,/TANK_C*%
X53025000Y40100000D03*
X47800000Y26625000D03*
%TO.N,/V5*%
X53900000Y29250000D03*
X59600000Y45600000D03*
X55100000Y50725000D03*
X55000000Y55000000D03*
X56725000Y46300000D03*
%TO.N,/VG1*%
X24325000Y42700000D03*
X17300000Y40400000D03*
%TO.N,/VG2*%
X22500000Y40400000D03*
X17000000Y31175000D03*
%TO.N,/VIN*%
X62500000Y23175000D03*
X57825000Y28000000D03*
X61200000Y33875000D03*
X54000000Y45625000D03*
X70000000Y25000000D03*
X61000000Y20870000D03*
X48300000Y48310000D03*
X50550000Y51000000D03*
%TO.N,/VIN_RAW*%
X53450000Y51000000D03*
%TO.N,/VOUT*%
X18825000Y50000000D03*
X19000000Y7675000D03*
X23500000Y26025000D03*
X9000000Y25000000D03*
X22300000Y10175000D03*
X25975000Y22000000D03*
X22500000Y39130000D03*
X23500000Y21025000D03*
X19000000Y26025000D03*
X17300000Y41725000D03*
X19000000Y16175000D03*
%TO.N,/VREF*%
X25550000Y18240000D03*
X27775000Y13600000D03*
X19000000Y17825000D03*
X30500000Y22775000D03*
X21000000Y16175000D03*
%TO.N,/VS1*%
X17300000Y36600000D03*
X24000000Y45825000D03*
%TO.N,/VS2*%
X22500000Y37870000D03*
X24000000Y32625000D03*
%TD*%
%TO.N,/AGND*%
D52*
X59330000Y44380000D02*
X58600000Y45100000D01*
X58600000Y45100000D02*
X58275000Y46300000D01*
X59330000Y43980000D02*
X59330000Y44380000D01*
%TO.N,/COMP*%
X24225000Y13600000D02*
X26225000Y13600000D01*
%TO.N,/CS_RECT*%
X49800000Y25025000D02*
X49800000Y25600000D01*
X47650000Y25250000D02*
X47650000Y21100000D01*
X48000000Y25600000D02*
X47650000Y25250000D01*
X49800000Y25600000D02*
X48000000Y25600000D01*
%TO.N,/FB_K*%
X27625000Y20300000D02*
X27450000Y18240000D01*
X28200000Y17490001D02*
X28200000Y15730000D01*
X28200000Y15730000D02*
X29650000Y15730000D01*
X27450000Y18240000D02*
X28200000Y17490001D01*
%TO.N,/FB_LED*%
X25975000Y21200000D02*
X25975000Y20300000D01*
X28500000Y21200000D02*
X25975000Y21200000D01*
X28500000Y22000000D02*
X28500000Y21200000D01*
X27625000Y22000000D02*
X28500000Y22000000D01*
%TO.N,/HB*%
X63150000Y43600000D02*
X63150000Y45525000D01*
X62750000Y43200000D02*
X63150000Y43600000D01*
X62100000Y43200000D02*
X62750000Y43200000D01*
X63150000Y45525000D02*
X62200000Y45525000D01*
%TO.N,/HI*%
X42675000Y22150000D02*
X42675000Y21300000D01*
D53*
X60820000Y43980000D02*
X61100000Y44900000D01*
D52*
X44325000Y23000000D02*
X44325000Y22150000D01*
X44325000Y22150000D02*
X42675000Y22150000D01*
%TO.N,/LI*%
X44325000Y9700000D02*
X42675000Y9700000D01*
X42675000Y9700000D02*
X42675000Y8800000D01*
X44325000Y10500000D02*
X44325000Y9700000D01*
D53*
X60330000Y43980000D02*
X60330000Y46300000D01*
%TO.N,/OV_K*%
D52*
X27450000Y10640000D02*
X28400000Y9690000D01*
X28400000Y9690000D02*
X28400000Y8130000D01*
X28400000Y8130000D02*
X29650000Y8130000D01*
X24000000Y11825000D02*
X26300000Y11825000D01*
X26300000Y11825000D02*
X27450000Y10640000D01*
%TO.N,/PGND*%
D54*
X60000000Y40200000D02*
X59725000Y36700000D01*
D55*
X55975000Y42900000D02*
X55975000Y40100000D01*
D56*
X59770000Y42660000D02*
X60000000Y40200000D01*
%TO.N,/PRI_A*%
X52950000Y35000000D02*
X52200000Y35000000D01*
X52200000Y35300000D02*
X51537772Y35735180D01*
X52200000Y35000000D02*
X52200000Y35300000D01*
%TO.N,/RON*%
D52*
X61000000Y25500000D02*
X59325000Y25500000D01*
X61000000Y23410000D02*
X61000000Y25500000D01*
%TO.N,/SEC_A*%
D57*
X21290000Y45700000D02*
X22000000Y45700000D01*
D58*
X20310000Y44610000D02*
X19340000Y45700000D01*
X20310000Y44610000D02*
X19990000Y45700000D01*
X20310000Y44610000D02*
X20640000Y45700000D01*
D57*
X22000000Y45700000D02*
X23000000Y44175000D01*
D58*
X20310000Y44610000D02*
X21290000Y45700000D01*
D57*
X23000000Y44175000D02*
X24000000Y44175000D01*
%TO.N,/SEC_B*%
D56*
X23800000Y35735200D02*
X22400000Y33700000D01*
X21700000Y31390000D02*
X20290000Y31390000D01*
D58*
X20290000Y31390000D02*
X21260000Y30300000D01*
X20290000Y31390000D02*
X20610000Y30300000D01*
X20290000Y31390000D02*
X19310000Y30300000D01*
D57*
X19310000Y30300000D02*
X22099999Y30300000D01*
D56*
X24462228Y35735180D02*
X23800000Y35735200D01*
D58*
X20290000Y31390000D02*
X19960000Y30300000D01*
D56*
X22400000Y33700000D02*
X21700000Y31390000D01*
D57*
X22099999Y30300000D02*
X24000000Y30975000D01*
%TO.N,/SGND*%
D58*
X20640000Y33300000D02*
X20640000Y34100000D01*
D59*
X21290000Y33300000D02*
X19990000Y33300000D01*
D58*
X19960000Y42700000D02*
X19960000Y41900000D01*
D59*
X21290000Y33300000D02*
X20640000Y33300000D01*
X19310000Y42700000D02*
X20610000Y42700000D01*
D60*
X21290000Y33300000D02*
X21290000Y34100000D01*
X20640000Y33300000D02*
X20640000Y34100000D01*
X20610000Y42700000D02*
X20610000Y41900000D01*
D59*
X19310000Y42700000D02*
X19960000Y42700000D01*
D60*
X19990000Y33300000D02*
X19990000Y34100000D01*
X19960000Y42700000D02*
X19960000Y41900000D01*
X19310000Y42700000D02*
X19310000Y41900000D01*
%TO.N,/SR_G1*%
D57*
X21260000Y42700000D02*
X22675000Y42700000D01*
%TO.N,/SR_G2*%
X19340000Y33300000D02*
X18200000Y33300000D01*
X18200000Y33300000D02*
X17000000Y32825000D01*
%TO.N,/SR_REG*%
D60*
X17300000Y37870000D02*
X18550000Y37870000D01*
X18550000Y37870000D02*
X18550000Y35000000D01*
%TO.N,/SW*%
D55*
X57900000Y40020000D02*
X57800000Y38000000D01*
X57800000Y35500000D02*
X57450000Y35000000D01*
D52*
X62100000Y43700000D02*
X61600000Y43700000D01*
D55*
X57800000Y38000000D02*
X57800000Y35500000D01*
D52*
X61600000Y43700000D02*
X62000000Y44500000D01*
%TO.N,/TANK_C*%
D61*
X51537772Y41264820D02*
X52200000Y41264800D01*
X52200000Y41264800D02*
X53025000Y40100000D01*
X53025000Y40100000D02*
X53025000Y42900000D01*
%TO.N,/V5*%
D59*
X53000000Y28350000D02*
X50050000Y28350000D01*
X53900000Y29250000D02*
X53000000Y28350000D01*
X50050000Y28350000D02*
X50050000Y27200000D01*
D53*
X59820000Y43980000D02*
X59600000Y45600000D01*
%TO.N,/VIN*%
D58*
X57675000Y27000000D02*
X57675000Y25500000D01*
D55*
X62100000Y40020000D02*
X62675000Y36700000D01*
D58*
X57825000Y28000000D02*
X57675000Y27000000D01*
D55*
X62675000Y36700000D02*
X61200000Y33875000D01*
%TD*%
M02*
