#VRML V2.0 utf8
# 3D model generated by easyeda2kicad.py (https://github.com/uPesy/easyeda2kicad.py)

Shape{
    appearance Appearance {
        material  Material 	{
            diffuseColor 0.2235294117647059 0.2235294117647059 0.2235294117647059
            specularColor 0.11372549019607843 0.11372549019607843 0.11372549019607843
            ambientIntensity 0.2235
            transparency 0.0
            shininess 0.5
        }
    }
    geometry IndexedFaceSet {
        ccw TRUE
        solid FALSE
        coord DEF co Coordinate {
            point [
                0.3479 -0.557 0.3189, 0.5423 -0.557 0.3189, 0.5423 -0.5176 0.3189, -0.0812 -0.0716 0.3189, -0.0865 -0.0703 0.3189, -0.0913 -0.0721 0.3189, -0.0884 -0.0694 0.3189, -0.0884 -0.0607 0.3189, -0.0913 -0.0123 0.3189, -0.0827 -0.0392 0.3189, -0.0854 -0.0367 0.3189, -0.087 -0.0341 0.3189, -0.0868 -0.0209 0.3189, -0.0849 -0.0183 0.3189, -0.0881 -0.031 0.3189, -0.0884 -0.0278 0.3189, -0.0879 -0.0237 0.3189, -0.0824 -0.0161 0.3189, -0.079 -0.0142 0.3189, -0.0741 -0.0126 0.3189, -0.074 -0.0445 0.3189, -0.0841 -0.0634 0.3189, -0.066 -0.0488 0.3189, -0.0771 -0.0655 0.3189, -0.0652 -0.0493 0.3189, -0.0727 -0.0659 0.3189, -0.0684 -0.0656 0.3189, -0.0654 -0.0648 0.3189, -0.0633 -0.0636 0.3189, -0.0621 -0.0625 0.3189, -0.0613 -0.0613 0.3189, -0.0606 -0.0595 0.3189, -0.0604 -0.0571 0.3189, -0.0606 -0.055 0.3189, -0.0613 -0.0534 0.3189, -0.0627 -0.0514 0.3189, -0.0771 -0.0721 0.3189, -0.0913 -0.2163 0.3189, -0.0736 -0.0724 0.3189, -0.0488 -0.0721 0.3189, -0.0488 -0.0123 0.3189, -0.0546 -0.0222 0.3189, -0.0546 -0.0135 0.3189, -0.0593 -0.0441 0.3189, -0.0559 -0.0472 0.3189, -0.0529 -0.0606 0.3189, -0.054 -0.0636 0.3189, -0.0559 -0.0664 0.3189, -0.0584 -0.0685 0.3189, -0.0617 -0.0704 0.3189, -0.0675 -0.072 0.3189, -0.0686 -0.0721 0.3189, -0.0539 -0.0502 0.3189, -0.0528 -0.0531 0.3189, -0.0524 -0.0565 0.3189, -0.068 -0.039 0.3189, -0.0591 -0.0199 0.3189, -0.0735 -0.0361 0.3189, -0.0641 -0.0187 0.3189, -0.0682 -0.0184 0.3189, -0.0796 -0.0309 0.3189, -0.0803 -0.0292 0.3189, -0.0805 -0.027 0.3189, -0.0786 -0.0323 0.3189, -0.0768 -0.0339 0.3189, -0.079 -0.0223 0.3189, -0.0798 -0.0237 0.3189, -0.0803 -0.0252 0.3189, -0.0723 -0.0188 0.3189, -0.0755 -0.0198 0.3189, -0.0776 -0.0211 0.3189, -0.0606 -0.0123 0.3189, -0.0488 0.4771 0.3189, -0.061 -0.0122 0.3189, -0.0676 -0.0119 0.3189, -0.0913 0.4771 0.3189, -0.0712 -0.0123 0.3189, 0.1386 -0.0721 0.3189, 0.1383 -0.0721 0.3189, 0.1107 -0.2163 0.3189, 0.1344 -0.0724 0.3189, 0.1471 -0.0418 0.3189, 0.1516 -0.0303 0.3189, 0.1502 -0.0336 0.3189, 0.1439 -0.0139 0.3189, 0.1469 -0.0158 0.3189, 0.3479 -0.0721 0.3189, 0.1492 -0.0182 0.3189, 0.151 -0.0212 0.3189, 0.1517 -0.0631 0.3189, 0.1495 -0.0664 0.3189, 0.1464 -0.069 0.3189, 0.1482 -0.0363 0.3189, 0.1452 -0.0388 0.3189, 0.1437 -0.0397 0.3189, 0.3479 -0.2163 0.3189, 0.1429 -0.0709 0.3189, 0.1519 -0.0242 0.3189, 0.1521 -0.0269 0.3189, 0.1499 -0.0446 0.3189, 0.1522 -0.0486 0.3189, 0.1533 -0.0523 0.3189, 0.1535 -0.0551 0.3189, 0.153 -0.0596 0.3189, 0.1317 -0.0123 0.3189, 0.1325 -0.0121 0.3189, 0.1107 0.4771 0.3189, 0.1352 -0.0119 0.3189, 0.1383 -0.0123 0.3189, 0.1399 -0.0125 0.3189, 0.3479 -0.0123 0.3189, 0.3479 0.4771 0.3189, 0.1196 -0.0445 0.3189, 0.1229 -0.0417 0.3189, 0.1107 -0.0123 0.3189, 0.1183 -0.0269 0.3189, 0.1188 -0.023 0.3189, 0.1201 -0.0199 0.3189, 0.1172 -0.0478 0.3189, 0.1268 -0.0397 0.3189, 0.123 -0.037 0.3189, 0.1222 -0.0171 0.3189, 0.1249 -0.0148 0.3189, 0.1282 -0.0131 0.3189, 0.1166 -0.0616 0.3189, 0.1107 -0.0721 0.3189, 0.1185 -0.0651 0.3189, 0.1211 -0.0679 0.3189, 0.1155 -0.0575 0.3189, 0.1154 -0.0551 0.3189, 0.1159 -0.0511 0.3189, 0.1311 -0.0721 0.3189, 0.1291 -0.0718 0.3189, 0.1247 -0.0703 0.3189, 0.1206 -0.0343 0.3189, 0.1191 -0.0314 0.3189, 0.1184 -0.0287 0.3189, 0.0167 -0.2163 0.3189, -0.0138 -0.0721 0.3189, -0.0488 -0.2163 0.3189, -0.0174 -0.0724 0.3189, -0.0208 -0.0721 0.3189, -0.0037 -0.0147 0.3189, 0.0167 -0.0123 0.3189, -0.0093 -0.0127 0.3189, -0.0132 -0.0123 0.3189, 0.008 -0.0568 0.3189, 0.0047 -0.0623 0.3189, 0.0167 -0.0721 0.3189, 0.0003 -0.0668 0.3189, -0.0046 -0.0698 0.3189, -0.0103 -0.0717 0.3189, 0.0014 -0.0181 0.3189, 0.0058 -0.0231 0.3189, 0.0089 -0.029 0.3189, 0.0105 -0.0356 0.3189, 0.0109 -0.0415 0.3189, 0.0102 -0.05 0.3189, -0.0206 -0.0123 0.3189, -0.0165 -0.0119 0.3189, 0.0167 0.4771 0.3189, -0.0422 -0.0275 0.3189, -0.0389 -0.022 0.3189, -0.0343 -0.0174 0.3189, -0.0288 -0.0142 0.3189, -0.0229 -0.0125 0.3189, -0.0246 -0.0717 0.3189, -0.0302 -0.0697 0.3189, -0.035 -0.0667 0.3189, -0.0393 -0.0623 0.3189, -0.0425 -0.0568 0.3189, -0.0445 -0.0504 0.3189, -0.0452 -0.0429 0.3189, -0.0444 -0.0343 0.3189, -0.2398 -0.557 0.3189, -0.2398 -0.5176 0.3189, -0.5312 -0.557 0.3189, -0.5312 -0.5176 0.3189, 0.3479 -0.5176 0.3189, 0.1107 -0.557 0.3189, 0.1107 -0.5176 0.3189, 0.0772 -0.557 0.3189, 0.0772 -0.5176 0.3189, 0.0167 -0.557 0.3189, 0.0167 -0.5176 0.3189, -0.0488 -0.557 0.3189, -0.0488 -0.5176 0.3189, -0.0913 -0.557 0.3189, -0.0913 -0.5176 0.3189, -0.4445 -0.3896 0.3189, -0.4352 -0.3774 0.3189, -0.5312 -0.2163 0.3189, -0.4445 -0.4487 0.3189, -0.4352 -0.4609 0.3189, -0.4229 -0.4703 0.3189, -0.3516 -0.3774 0.3189, -0.3423 -0.3896 0.3189, -0.2398 -0.2163 0.3189, -0.3364 -0.4039 0.3189, -0.3343 -0.4192 0.3189, -0.3364 -0.4345 0.3189, -0.3423 -0.4487 0.3189, -0.3516 -0.4609 0.3189, -0.3639 -0.4703 0.3189, -0.3781 -0.4762 0.3189, -0.3934 -0.4782 0.3189, -0.4087 -0.4762 0.3189, -0.4504 -0.4345 0.3189, -0.4524 -0.4192 0.3189, -0.4504 -0.4039 0.3189, -0.4229 -0.368 0.3189, -0.4087 -0.3621 0.3189, -0.3934 -0.3601 0.3189, -0.3781 -0.3621 0.3189, -0.3639 -0.368 0.3189, 0.0772 -0.2163 0.3189, 0.0772 -0.0721 0.3189, -0.2398 -0.0721 0.3189, -0.5312 -0.0721 0.3189, -0.2398 -0.0123 0.3189, -0.5312 -0.0123 0.3189, -0.1021 -0.0126 0.3189, -0.0942 -0.0126 0.3189, -0.1151 -0.0717 0.3189, -0.1237 -0.0717 0.3189, -0.1194 -0.0638 0.3189, -0.1192 -0.0638 0.3189, -0.1198 -0.0611 0.3189, -0.1187 -0.0611 0.3189, -0.1206 -0.0585 0.3189, -0.1179 -0.0584 0.3189, -0.1367 -0.0126 0.3189, -0.1453 -0.0126 0.3189, 0.0304 -0.022 0.3189, 0.0302 -0.022 0.3189, 0.0313 -0.024 0.3189, 0.0304 -0.0261 0.3189, 0.0324 -0.0259 0.3189, 0.0707 -0.0126 0.3189, 0.0772 -0.0123 0.3189, 0.0628 -0.0126 0.3189, 0.0325 -0.0126 0.3189, 0.0613 -0.0717 0.3189, 0.0304 -0.0303 0.3189, 0.0304 -0.0717 0.3189, 0.0707 -0.0717 0.3189, 0.0225 -0.0717 0.3189, 0.0225 -0.0126 0.3189, 0.063 -0.0616 0.3189, 0.0632 -0.0616 0.3189, 0.0619 -0.0596 0.3189, 0.0629 -0.0573 0.3189, 0.0606 -0.0576 0.3189, 0.0628 -0.053 0.3189, 0.0837 -0.0515 0.3189, 0.0837 -0.0458 0.3189, 0.106 -0.0515 0.3189, 0.106 -0.0458 0.3189, -0.2398 0.4771 0.3189, -0.5312 0.4771 0.3189, 0.0772 0.4771 0.3189, 0.5423 -0.2163 0.3189, 0.5423 -0.0721 0.3189, 0.5423 -0.0123 0.3189, 0.5423 0.4771 0.3189
            ]
        }
        coordIndex [
            0,1,2,-1,3,4,5,-1,4,6,5,-1,5,6,7,-1,5,7,8,-1,9,10,7,-1,7,10,11,-1,8,12,13,-1,11,14,7,-1,7,14,15,-1,7,15,8,-1,8,15,16,-1,8,16,12,-1,13,17,8,-1,8,17,18,-1,8,18,19,-1,9,7,20,-1,20,7,21,-1,20,21,22,-1,22,21,23,-1,22,23,24,-1,24,23,25,-1,24,25,26,-1,26,27,24,-1,24,27,28,-1,24,28,29,-1,29,30,24,-1,24,30,31,-1,24,31,32,-1,33,34,32,-1,32,34,35,-1,32,35,24,-1,3,5,36,-1,36,5,37,-1,36,37,38,-1,39,40,41,-1,41,40,42,-1,43,44,41,-1,45,46,39,-1,39,46,47,-1,39,47,48,-1,48,49,39,-1,39,49,50,-1,39,50,51,-1,44,52,41,-1,41,52,53,-1,41,53,39,-1,39,53,54,-1,39,54,45,-1,43,41,55,-1,55,41,56,-1,55,56,57,-1,57,56,58,-1,57,58,59,-1,60,59,61,-1,61,59,62,-1,60,63,59,-1,59,63,64,-1,59,64,57,-1,65,66,67,-1,59,68,62,-1,62,68,69,-1,62,69,67,-1,67,69,70,-1,67,70,65,-1,42,40,71,-1,71,40,72,-1,71,72,73,-1,73,72,74,-1,74,72,75,-1,74,75,76,-1,77,78,79,-1,79,78,80,-1,81,82,83,-1,84,85,86,-1,86,85,87,-1,86,87,88,-1,82,81,86,-1,89,90,86,-1,86,90,91,-1,83,92,81,-1,81,92,93,-1,81,93,94,-1,79,95,77,-1,77,95,86,-1,77,86,96,-1,96,86,91,-1,88,97,86,-1,86,97,98,-1,86,98,82,-1,81,99,86,-1,86,99,100,-1,86,100,101,-1,101,102,86,-1,86,102,103,-1,86,103,89,-1,104,105,106,-1,106,105,107,-1,106,107,108,-1,84,86,109,-1,109,86,110,-1,109,110,108,-1,108,110,111,-1,108,111,106,-1,112,113,114,-1,115,116,114,-1,114,116,117,-1,112,114,118,-1,113,119,120,-1,117,121,114,-1,114,121,122,-1,114,122,123,-1,124,125,126,-1,126,125,127,-1,124,128,125,-1,125,128,129,-1,125,129,114,-1,114,129,130,-1,114,130,118,-1,131,132,125,-1,125,132,133,-1,125,133,127,-1,120,134,113,-1,113,134,135,-1,113,135,114,-1,114,135,136,-1,114,136,115,-1,137,138,139,-1,139,138,140,-1,139,140,141,-1,142,143,144,-1,144,143,145,-1,146,147,148,-1,147,149,148,-1,148,149,150,-1,148,150,151,-1,142,152,143,-1,143,152,153,-1,143,153,154,-1,154,155,143,-1,143,155,156,-1,143,156,148,-1,148,156,157,-1,148,157,146,-1,158,159,160,-1,161,162,40,-1,40,162,163,-1,40,163,164,-1,160,72,158,-1,158,72,40,-1,158,40,165,-1,165,40,164,-1,166,167,39,-1,38,37,51,-1,51,37,139,-1,51,139,39,-1,39,139,141,-1,39,141,166,-1,167,168,39,-1,39,168,169,-1,39,169,170,-1,170,171,39,-1,39,171,172,-1,39,172,40,-1,40,172,173,-1,40,173,161,-1,174,175,176,-1,176,175,177,-1,0,178,179,-1,179,178,180,-1,179,180,181,-1,181,180,182,-1,181,182,183,-1,183,182,184,-1,183,184,185,-1,185,184,186,-1,185,186,187,-1,187,186,188,-1,189,190,191,-1,192,177,193,-1,193,177,194,-1,195,196,197,-1,197,196,198,-1,197,198,175,-1,175,198,199,-1,175,199,200,-1,200,201,175,-1,175,201,202,-1,175,202,203,-1,203,204,175,-1,175,204,205,-1,175,205,177,-1,177,205,206,-1,177,206,194,-1,192,207,177,-1,177,207,208,-1,177,208,191,-1,191,208,209,-1,191,209,189,-1,190,210,191,-1,191,210,211,-1,191,211,212,-1,212,213,197,-1,197,213,214,-1,197,214,195,-1,178,95,180,-1,180,95,79,-1,180,79,182,-1,182,79,215,-1,182,215,184,-1,184,215,137,-1,184,137,186,-1,186,137,139,-1,186,139,188,-1,188,139,37,-1,80,131,79,-1,79,131,125,-1,79,125,215,-1,215,125,216,-1,215,216,137,-1,137,216,148,-1,137,148,138,-1,138,148,151,-1,212,197,191,-1,191,197,217,-1,191,217,218,-1,218,217,219,-1,218,219,220,-1,221,222,8,-1,8,222,5,-1,5,222,223,-1,5,223,224,-1,225,226,227,-1,227,226,228,-1,227,228,229,-1,229,228,230,-1,229,230,231,-1,230,221,231,-1,231,221,8,-1,231,8,232,-1,232,8,219,-1,232,219,224,-1,224,219,217,-1,224,217,5,-1,5,217,197,-1,5,197,37,-1,37,197,175,-1,37,175,188,-1,188,175,174,-1,188,174,187,-1,233,234,235,-1,235,234,236,-1,235,236,237,-1,238,239,240,-1,240,239,143,-1,240,143,241,-1,237,236,242,-1,242,236,243,-1,242,243,244,-1,245,242,216,-1,216,242,244,-1,216,244,148,-1,148,244,246,-1,148,246,143,-1,143,246,247,-1,143,247,241,-1,248,249,250,-1,250,249,251,-1,250,251,252,-1,252,251,241,-1,241,251,253,-1,241,253,240,-1,216,254,255,-1,254,216,256,-1,256,216,125,-1,256,125,257,-1,257,125,114,-1,257,114,255,-1,255,114,239,-1,255,239,216,-1,216,239,238,-1,216,238,245,-1,19,76,8,-1,8,76,75,-1,8,75,219,-1,219,75,258,-1,219,258,220,-1,220,258,259,-1,123,104,114,-1,114,104,106,-1,114,106,239,-1,239,106,260,-1,239,260,143,-1,143,260,160,-1,143,160,145,-1,145,160,159,-1,0,2,178,-1,178,2,261,-1,178,261,95,-1,95,261,262,-1,95,262,86,-1,86,262,263,-1,86,263,110,-1,110,263,264,-1,110,264,111,-1,
        ]
    }
}
Shape{
    appearance Appearance {
        material  Material 	{
            diffuseColor 0.8509803921568627 0.8509803921568627 0.8509803921568627
            specularColor 0.4235294117647059 0.4235294117647059 0.4235294117647059
            ambientIntensity 0.851
            transparency 0.0
            shininess 0.5
        }
    }
    geometry IndexedFaceSet {
        ccw TRUE
        solid FALSE
        coord DEF co Coordinate {
            point [
                -0.4773 -0.1427 0.0, -0.6446 -0.1427 0.0, -0.6446 -0.0696 0.0, -0.4374 0.3971 0.0, 0.0307 -0.0102 0.0, 0.0005 -0.0102 0.0, -0.0946 -0.0102 0.0, -0.1176 -0.0693 0.0, -0.1815 0.3971 0.0, -0.3193 0.3971 0.0, -0.3193 0.5546 0.0, -0.4374 0.5546 0.0, -0.6446 -0.064 0.0, -0.4773 -0.064 0.0, -0.0866 -0.0102 0.0, 0.0228 -0.0167 0.0, 0.0228 -0.0362 0.0, 0.0005 -0.0167 0.0, 0.0019 -0.0362 0.0, -0.0125 -0.0102 0.0, 0.0019 -0.0426 0.0, 0.0228 -0.0426 0.0, 0.0228 -0.0628 0.0, -0.0009 -0.0628 0.0, -0.0125 -0.0693 0.0, -0.0377 -0.0111 0.0, -0.0446 -0.0136 0.0, -0.051 -0.0179 0.0, -0.0511 -0.0179 0.0, -0.0552 -0.0226 0.0, -0.058 -0.0276 0.0, -0.0291 -0.0102 0.0, -0.0643 -0.0693 0.0, -0.057 -0.0531 0.0, -0.0537 -0.0584 0.0, -0.0009 -0.0693 0.0, 0.0307 -0.0693 0.0, 0.0365 -0.0696 0.0, -0.0596 -0.0335 0.0, -0.06 -0.039 0.0, -0.0592 -0.0469 0.0, -0.0488 -0.063 0.0, -0.0426 -0.0666 0.0, -0.0358 -0.0686 0.0, -0.0285 -0.0693 0.0, -0.109 -0.0693 0.0, -0.103 -0.0527 0.0, -0.0786 -0.0527 0.0, -0.073 -0.0693 0.0, 0.0365 -0.2919 0.0, -0.3986 -0.2919 0.0, -0.4773 0.3971 0.0, -0.4773 -0.2131 0.0, 0.6546 -0.0696 0.0, 0.6546 -0.1427 0.0, 0.4873 -0.1427 0.0, 0.0585 -0.07 0.0, 0.062 -0.0696 0.0, 0.4873 -0.2919 0.0, 0.0561 -0.016 0.0, 0.0619 -0.0166 0.0, 0.0433 -0.0603 0.0, -0.1815 0.5546 0.0, -0.0634 0.5546 0.0, -0.0634 0.3971 0.0, 0.0365 0.3971 0.0, 0.0423 -0.0597 0.0, 0.0423 -0.0662 0.0, 0.0486 -0.0688 0.0, 0.0545 -0.0696 0.0, 0.0569 -0.07 0.0, 0.0744 0.5546 0.0, 0.1926 0.5546 0.0, 0.0744 0.3971 0.0, 0.1926 0.3971 0.0, 0.1215 -0.0693 0.0, 0.1215 -0.0102 0.0, 0.4873 -0.064 0.0, 0.4873 0.3971 0.0, 0.4485 0.3971 0.0, 0.3303 0.3971 0.0, 0.4485 0.5546 0.0, 0.3303 0.5546 0.0, 0.6546 -0.064 0.0, 0.0663 -0.0182 0.0, 0.0704 -0.021 0.0, 0.074 -0.0249 0.0, 0.0783 -0.0404 0.0, 0.0777 -0.0468 0.0, 0.0761 -0.0519 0.0, 0.0629 -0.0629 0.0, 0.0574 -0.0635 0.0, 0.0672 -0.0613 0.0, 0.0709 -0.0589 0.0, 0.0736 -0.056 0.0, 0.0496 -0.0626 0.0, 0.0912 -0.0693 0.0, 0.0658 -0.0692 0.0, 0.0715 -0.0673 0.0, 0.0489 -0.0169 0.0, 0.0423 -0.0198 0.0, 0.0423 -0.0118 0.0, 0.0764 -0.0295 0.0, 0.078 -0.0358 0.0, 0.0831 -0.0258 0.0, 0.0796 -0.0203 0.0, 0.1136 -0.0102 0.0, 0.0763 -0.0642 0.0, 0.0807 -0.0596 0.0, 0.0912 -0.0628 0.0, 0.0839 -0.054 0.0, 0.1136 -0.0628 0.0, 0.0743 -0.0151 0.0, 0.0687 -0.0119 0.0, 0.0621 -0.01 0.0, 0.0856 -0.0477 0.0, 0.0862 -0.0409 0.0, 0.0854 -0.0325 0.0, 0.0562 -0.0095 0.0, 0.0491 -0.01 0.0
            ]
        }
        coordIndex [
            0,1,2,-1,3,4,5,-1,3,6,7,-1,8,4,9,-1,9,4,3,-1,9,3,10,-1,10,3,11,-1,2,12,13,-1,6,3,14,-1,15,16,17,-1,17,16,18,-1,17,18,19,-1,19,18,20,-1,21,22,20,-1,20,22,23,-1,20,23,19,-1,19,23,24,-1,25,26,14,-1,14,26,27,-1,27,28,14,-1,14,28,29,-1,14,29,30,-1,25,14,31,-1,31,14,3,-1,31,3,19,-1,19,3,5,-1,19,5,17,-1,32,33,34,-1,35,36,37,-1,37,36,4,-1,30,38,14,-1,14,38,39,-1,14,39,32,-1,32,39,40,-1,32,40,33,-1,34,41,32,-1,32,41,42,-1,32,42,43,-1,23,35,24,-1,24,35,37,-1,24,37,44,-1,7,45,37,-1,46,47,45,-1,45,47,48,-1,45,48,37,-1,37,48,32,-1,37,32,44,-1,44,32,43,-1,37,49,50,-1,51,3,13,-1,13,3,7,-1,13,7,2,-1,2,7,37,-1,2,37,0,-1,0,37,50,-1,0,50,52,-1,53,54,55,-1,49,56,57,-1,53,55,57,-1,57,55,58,-1,57,58,49,-1,59,60,61,-1,62,63,8,-1,8,63,64,-1,8,64,4,-1,4,64,65,-1,4,65,37,-1,37,65,66,-1,37,66,67,-1,67,68,37,-1,37,68,69,-1,37,69,49,-1,49,69,70,-1,49,70,56,-1,71,72,73,-1,73,72,74,-1,75,76,77,-1,78,77,79,-1,79,77,80,-1,79,80,81,-1,81,80,82,-1,77,83,53,-1,60,84,61,-1,61,84,85,-1,61,85,86,-1,87,88,61,-1,61,88,89,-1,90,91,92,-1,92,91,93,-1,89,94,61,-1,61,94,93,-1,61,93,95,-1,95,93,91,-1,77,53,75,-1,75,53,57,-1,75,57,96,-1,96,57,97,-1,96,97,98,-1,59,61,99,-1,99,61,66,-1,99,66,100,-1,100,66,65,-1,100,65,101,-1,86,102,61,-1,61,102,103,-1,61,103,87,-1,104,105,106,-1,106,105,65,-1,106,65,76,-1,76,65,73,-1,76,73,77,-1,77,73,74,-1,77,74,80,-1,98,107,96,-1,96,107,108,-1,96,108,109,-1,109,108,110,-1,109,110,111,-1,105,112,65,-1,65,112,113,-1,65,113,114,-1,110,115,111,-1,111,115,116,-1,111,116,106,-1,106,116,117,-1,106,117,104,-1,114,118,65,-1,65,118,119,-1,65,119,101,-1,
        ]
    }
}
Shape{
    appearance Appearance {
        material  Material 	{
            diffuseColor 0.2235294117647059 0.2235294117647059 0.2235294117647059
            specularColor 0.11372549019607843 0.11372549019607843 0.11372549019607843
            ambientIntensity 0.2235
            transparency 0.0
            shininess 0.5
        }
    }
    geometry IndexedFaceSet {
        ccw TRUE
        solid FALSE
        coord DEF co Coordinate {
            point [
                0.6158 -0.064 0.0039, 0.4873 -0.064 0.0039, 0.6158 0.5116 0.0039, 0.4873 0.3971 0.0039, 0.4485 0.3971 0.0039, 0.4485 0.5506 0.0039, 0.5767 0.5506 0.0039, 0.5869 0.5493 0.0039, 0.6106 0.5311 0.0039, 0.6128 0.5266 0.0039, 0.6145 0.5217 0.0039, 0.5917 0.5477 0.0039, 0.5963 0.5454 0.0039, 0.6005 0.5426 0.0039, 0.6044 0.5392 0.0039, 0.6077 0.5354 0.0039, 0.1926 0.3971 0.0039, 0.1926 0.5506 0.0039, 0.3303 0.3971 0.0039, 0.3303 0.5506 0.0039, -0.0634 0.3971 0.0039, -0.0634 0.5506 0.0039, 0.0744 0.3971 0.0039, 0.0744 0.5506 0.0039, -0.3193 0.3971 0.0039, -0.3193 0.5506 0.0039, -0.1815 0.3971 0.0039, -0.1815 0.5506 0.0039, -0.4773 -0.064 0.0039, -0.6047 -0.064 0.0039, -0.4773 0.3971 0.0039, -0.6047 0.5116 0.0039, -0.6034 0.5217 0.0039, -0.5852 0.5454 0.0039, -0.5806 0.5477 0.0039, -0.4374 0.5506 0.0039, -0.4374 0.3971 0.0039, -0.5656 0.5506 0.0039, -0.5758 0.5493 0.0039, -0.6017 0.5266 0.0039, -0.5995 0.5311 0.0039, -0.5966 0.5354 0.0039, -0.5933 0.5392 0.0039, -0.5894 0.5426 0.0039, 0.4873 -0.2919 0.0039, 0.4873 -0.1427 0.0039, 0.6158 -0.1427 0.0039, 0.3303 -0.4769 0.0039, -0.3986 -0.2919 0.0039, 0.4485 -0.4769 0.0039, 0.4485 -0.6305 0.0039, 0.6158 -0.5914 0.0039, 0.5767 -0.6305 0.0039, 0.0744 -0.4769 0.0039, 0.0744 -0.6305 0.0039, -0.0634 -0.6305 0.0039, 0.6145 -0.6015 0.0039, 0.5917 -0.6275 0.0039, 0.5869 -0.6291 0.0039, 0.6128 -0.6064 0.0039, 0.6106 -0.611 0.0039, 0.5963 -0.6253 0.0039, -0.0634 -0.4769 0.0039, -0.1815 -0.4769 0.0039, 0.1926 -0.4769 0.0039, 0.1926 -0.6305 0.0039, 0.3303 -0.6305 0.0039, 0.6005 -0.6224 0.0039, 0.6077 -0.6152 0.0039, 0.6044 -0.6191 0.0039, -0.4374 -0.4769 0.0039, -0.4374 -0.6305 0.0039, -0.6047 -0.1427 0.0039, -0.5656 -0.6305 0.0039, -0.6047 -0.5914 0.0039, -0.1815 -0.6305 0.0039, -0.3193 -0.6305 0.0039, -0.3193 -0.4769 0.0039, -0.4773 -0.2131 0.0039, -0.4773 -0.1427 0.0039, -0.5758 -0.6291 0.0039, -0.6017 -0.6064 0.0039, -0.6034 -0.6015 0.0039, -0.5806 -0.6275 0.0039, -0.5852 -0.6253 0.0039, -0.5995 -0.611 0.0039, -0.5894 -0.6224 0.0039, -0.5966 -0.6152 0.0039, -0.5933 -0.6191 0.0039
            ]
        }
        coordIndex [
            0,1,2,-1,2,1,3,-1,4,5,3,-1,3,5,6,-1,3,6,7,-1,8,9,3,-1,3,9,10,-1,3,10,2,-1,7,11,3,-1,3,11,12,-1,3,12,13,-1,13,14,3,-1,3,14,15,-1,3,15,8,-1,16,17,18,-1,18,17,19,-1,20,21,22,-1,22,21,23,-1,24,25,26,-1,26,25,27,-1,28,29,30,-1,30,29,31,-1,30,31,32,-1,33,34,30,-1,35,36,37,-1,37,36,30,-1,37,30,38,-1,38,30,34,-1,32,39,30,-1,30,39,40,-1,30,40,41,-1,41,42,30,-1,30,42,43,-1,30,43,33,-1,44,45,46,-1,47,48,44,-1,47,44,49,-1,49,44,46,-1,49,46,50,-1,50,46,51,-1,50,51,52,-1,53,54,55,-1,56,57,51,-1,51,57,58,-1,51,58,52,-1,56,59,57,-1,57,59,60,-1,57,60,61,-1,62,63,48,-1,55,62,53,-1,53,62,48,-1,53,48,64,-1,64,48,47,-1,64,47,65,-1,65,47,66,-1,61,60,67,-1,67,60,68,-1,67,68,69,-1,70,71,72,-1,72,71,73,-1,72,73,74,-1,75,76,63,-1,63,76,77,-1,63,77,48,-1,48,77,70,-1,48,70,78,-1,78,70,72,-1,78,72,79,-1,80,81,73,-1,73,81,82,-1,73,82,74,-1,80,83,81,-1,81,83,84,-1,81,84,85,-1,85,84,86,-1,85,86,87,-1,87,86,88,-1,
        ]
    }
}
Shape{
    appearance Appearance {
        material  Material 	{
            diffuseColor 0.8509803921568627 0.8509803921568627 0.8509803921568627
            specularColor 0.4235294117647059 0.4235294117647059 0.4235294117647059
            ambientIntensity 0.851
            transparency 0.0
            shininess 0.5
        }
    }
    geometry IndexedFaceSet {
        ccw TRUE
        solid FALSE
        coord DEF co Coordinate {
            point [
                -0.4374 -0.6237 0.0591, -0.4374 -0.6344 0.0591, -0.3193 -0.6237 0.0591, -0.3193 -0.6344 0.0591, -0.4374 -0.4769 0.0039, -0.4374 -0.4769 0.0, -0.4374 -0.6305 0.0039, -0.4374 -0.6344 0.0, -0.3193 -0.6305 0.0039, -0.3193 -0.6344 0.0, -0.3193 -0.4769 0.0039, -0.3193 -0.4769 0.0, -0.1815 -0.6237 0.0591, -0.1815 -0.6344 0.0591, -0.0634 -0.6237 0.0591, -0.0634 -0.6344 0.0591, -0.1815 -0.4769 0.0039, -0.1815 -0.4769 0.0, -0.1815 -0.6305 0.0039, -0.1815 -0.6344 0.0, -0.0634 -0.6305 0.0039, -0.0634 -0.6344 0.0, -0.0634 -0.4769 0.0039, -0.0634 -0.4769 0.0, 0.0744 -0.6237 0.0591, 0.0744 -0.6344 0.0591, 0.1926 -0.6237 0.0591, 0.1926 -0.6344 0.0591, 0.0744 -0.4769 0.0039, 0.0744 -0.4769 0.0, 0.0744 -0.6305 0.0039, 0.0744 -0.6344 0.0, 0.1926 -0.6305 0.0039, 0.1926 -0.6344 0.0, 0.1926 -0.4769 0.0039, 0.1926 -0.4769 0.0, 0.3303 -0.6237 0.0591, 0.3303 -0.6344 0.0591, 0.4485 -0.6237 0.0591, 0.4485 -0.6344 0.0591, 0.3303 -0.4769 0.0039, 0.3303 -0.4769 0.0, 0.3303 -0.6305 0.0039, 0.3303 -0.6344 0.0, 0.4485 -0.6305 0.0039, 0.4485 -0.6344 0.0, 0.4485 -0.4769 0.0039, 0.4485 -0.4769 0.0, -0.3193 0.5439 0.0591, -0.3193 0.5546 0.0591, -0.4374 0.5439 0.0591, -0.4374 0.5546 0.0591, -0.4374 0.5506 0.0039, -0.4374 0.5546 0.0, -0.4374 0.3971 0.0039, -0.4374 0.3971 0.0, -0.3193 0.3971 0.0039, -0.3193 0.3971 0.0, -0.3193 0.5506 0.0039, -0.3193 0.5546 0.0, -0.0634 0.5439 0.0591, -0.0634 0.5546 0.0591, -0.1815 0.5439 0.0591, -0.1815 0.5546 0.0591, -0.1815 0.5506 0.0039, -0.1815 0.5546 0.0, -0.1815 0.3971 0.0039, -0.1815 0.3971 0.0, -0.0634 0.3971 0.0039, -0.0634 0.3971 0.0, -0.0634 0.5506 0.0039, -0.0634 0.5546 0.0, 0.1926 0.5439 0.0591, 0.1926 0.5546 0.0591, 0.0744 0.5439 0.0591, 0.0744 0.5546 0.0591, 0.0744 0.5506 0.0039, 0.0744 0.5546 0.0, 0.0744 0.3971 0.0039, 0.0744 0.3971 0.0, 0.1926 0.3971 0.0039, 0.1926 0.3971 0.0, 0.1926 0.5506 0.0039, 0.1926 0.5546 0.0, 0.4485 0.5439 0.0591, 0.4485 0.5546 0.0591, 0.3303 0.5439 0.0591, 0.3303 0.5546 0.0591, 0.3303 0.5506 0.0039, 0.3303 0.5546 0.0, 0.3303 0.3971 0.0039, 0.3303 0.3971 0.0, 0.4485 0.3971 0.0039, 0.4485 0.3971 0.0, 0.4485 0.5506 0.0039, 0.4485 0.5546 0.0, 0.609 -0.1427 0.0591, 0.6546 -0.1427 0.0591, 0.609 -0.064 0.0591, 0.6546 -0.064 0.0591, -0.5979 -0.064 0.0591, -0.6446 -0.064 0.0591, -0.5979 -0.1427 0.0591, -0.6446 -0.1427 0.0591, 0.4873 0.3971 0.0, 0.4873 0.3971 0.0039, 0.0365 0.3971 0.0, 0.4873 -0.2919 0.0, 0.4873 -0.1427 0.0, 0.4873 -0.2919 0.0039, 0.4873 -0.1427 0.0039, 0.6158 -0.1427 0.0039, 0.6546 -0.1427 0.0, 0.6546 -0.064 0.0, 0.6546 -0.0696 0.0, 0.4873 -0.064 0.0, 0.4873 -0.064 0.0039, 0.6158 -0.064 0.0039, -0.4773 0.3971 0.0, -0.4773 0.3971 0.0039, -0.4773 -0.064 0.0, -0.4773 -0.064 0.0039, -0.6047 -0.064 0.0039, -0.6446 -0.064 0.0, -0.6446 -0.1427 0.0, -0.6446 -0.0696 0.0, -0.4773 -0.1427 0.0, -0.4773 -0.1427 0.0039, -0.6047 -0.1427 0.0039, -0.4773 -0.2131 0.0, -0.4773 -0.2131 0.0039, -0.3986 -0.2919 0.0, -0.3986 -0.2919 0.0039, 0.0365 -0.2919 0.0
            ]
        }
        coordIndex [
            0,1,2,-1,2,1,3,-1,4,5,6,-1,6,5,7,-1,6,7,0,-1,0,7,1,-1,2,3,8,-1,8,3,9,-1,8,9,10,-1,10,9,11,-1,3,1,9,-1,9,1,7,-1,11,5,10,-1,10,5,4,-1,11,9,5,-1,5,9,7,-1,12,13,14,-1,14,13,15,-1,16,17,18,-1,18,17,19,-1,18,19,12,-1,12,19,13,-1,14,15,20,-1,20,15,21,-1,20,21,22,-1,22,21,23,-1,15,13,21,-1,21,13,19,-1,23,17,22,-1,22,17,16,-1,23,21,17,-1,17,21,19,-1,24,25,26,-1,26,25,27,-1,28,29,30,-1,30,29,31,-1,30,31,24,-1,24,31,25,-1,26,27,32,-1,32,27,33,-1,32,33,34,-1,34,33,35,-1,27,25,33,-1,33,25,31,-1,35,29,34,-1,34,29,28,-1,35,33,29,-1,29,33,31,-1,36,37,38,-1,38,37,39,-1,40,41,42,-1,42,41,43,-1,42,43,36,-1,36,43,37,-1,38,39,44,-1,44,39,45,-1,44,45,46,-1,46,45,47,-1,39,37,45,-1,45,37,43,-1,47,41,46,-1,46,41,40,-1,47,45,41,-1,41,45,43,-1,48,49,50,-1,50,49,51,-1,50,51,52,-1,52,51,53,-1,52,53,54,-1,54,53,55,-1,56,57,58,-1,58,57,59,-1,58,59,48,-1,48,59,49,-1,51,49,53,-1,53,49,59,-1,60,61,62,-1,62,61,63,-1,62,63,64,-1,64,63,65,-1,64,65,66,-1,66,65,67,-1,68,69,70,-1,70,69,71,-1,70,71,60,-1,60,71,61,-1,63,61,65,-1,65,61,71,-1,72,73,74,-1,74,73,75,-1,74,75,76,-1,76,75,77,-1,76,77,78,-1,78,77,79,-1,80,81,82,-1,82,81,83,-1,82,83,72,-1,72,83,73,-1,75,73,77,-1,77,73,83,-1,84,85,86,-1,86,85,87,-1,86,87,88,-1,88,87,89,-1,88,89,90,-1,90,89,91,-1,92,93,94,-1,94,93,95,-1,94,95,84,-1,84,95,85,-1,87,85,89,-1,89,85,95,-1,96,97,98,-1,98,97,99,-1,100,101,102,-1,102,101,103,-1,104,93,105,-1,105,93,92,-1,91,81,90,-1,90,81,80,-1,69,68,106,-1,106,68,78,-1,106,78,79,-1,67,57,66,-1,66,57,56,-1,107,108,109,-1,109,108,110,-1,110,108,111,-1,111,108,112,-1,111,112,96,-1,96,112,97,-1,113,99,114,-1,114,99,97,-1,114,97,112,-1,115,116,117,-1,98,99,117,-1,117,99,113,-1,117,113,115,-1,115,104,116,-1,116,104,105,-1,55,118,54,-1,54,118,119,-1,118,120,119,-1,119,120,121,-1,121,120,122,-1,122,120,123,-1,122,123,100,-1,100,123,101,-1,124,103,125,-1,125,103,101,-1,125,101,123,-1,126,127,128,-1,102,103,128,-1,128,103,124,-1,128,124,126,-1,126,129,127,-1,127,129,130,-1,129,131,130,-1,130,131,132,-1,107,109,133,-1,133,109,132,-1,133,132,131,-1,
        ]
    }
}
Shape{
    appearance Appearance {
        material  Material 	{
            diffuseColor 0.6470588235294118 0.6470588235294118 0.6470588235294118
            specularColor 0.3215686274509804 0.3215686274509804 0.3215686274509804
            ambientIntensity 0.6471
            transparency 0.0
            shininess 0.5
        }
    }
    geometry IndexedFaceSet {
        ccw TRUE
        solid FALSE
        coord DEF co Coordinate {
            point [
                -0.0806 -0.0462 0.0039, -0.0786 -0.0527 0.0039, -0.1003 -0.0462 0.0039, -0.103 -0.0527 0.0039, -0.0894 -0.0216 0.0039, -0.0866 -0.0102 0.0039, -0.0643 -0.0693 0.0039, -0.073 -0.0693 0.0039, -0.09 -0.0195 0.0039, -0.0903 -0.0174 0.0039, -0.0946 -0.0102 0.0039, -0.0905 -0.0174 0.0039, -0.0909 -0.0195 0.0039, -0.0914 -0.0216 0.0039, -0.1176 -0.0693 0.0039, -0.109 -0.0693 0.0039, -0.1176 -0.0693 0.0, -0.0946 -0.0102 0.0, -0.0866 -0.0102 0.0, -0.0643 -0.0693 0.0, -0.073 -0.0693 0.0, -0.0786 -0.0527 0.0, -0.103 -0.0527 0.0, -0.109 -0.0693 0.0, -0.1003 -0.0462 0.0, -0.0806 -0.0462 0.0, -0.0914 -0.0216 0.0, -0.0909 -0.0195 0.0, -0.0905 -0.0174 0.0, -0.0903 -0.0174 0.0, -0.09 -0.0195 0.0, -0.0894 -0.0216 0.0, -0.058 -0.0276 0.0039, -0.0552 -0.0226 0.0039, -0.0481 -0.025 0.0039, -0.0511 -0.0179 0.0039, -0.0453 -0.0219 0.0039, -0.051 -0.0179 0.0039, -0.041 -0.0192 0.0039, -0.0446 -0.0136 0.0039, -0.0361 -0.0175 0.0039, -0.0377 -0.0111 0.0039, -0.0291 -0.0167 0.0039, -0.0291 -0.0102 0.0039, -0.0204 -0.0167 0.0039, -0.0125 -0.0102 0.0039, -0.0204 -0.0628 0.0039, -0.0125 -0.0693 0.0039, -0.0288 -0.0628 0.0039, -0.0285 -0.0693 0.0039, -0.035 -0.0622 0.0039, -0.0358 -0.0686 0.0039, -0.04 -0.0607 0.0039, -0.0426 -0.0666 0.0039, -0.044 -0.0583 0.0039, -0.0488 -0.063 0.0039, -0.0473 -0.055 0.0039, -0.0537 -0.0584 0.0039, -0.0498 -0.0509 0.0039, -0.057 -0.0531 0.0039, -0.0515 -0.0454 0.0039, -0.0592 -0.0469 0.0039, -0.0521 -0.0392 0.0039, -0.06 -0.039 0.0039, -0.0516 -0.0333 0.0039, -0.0596 -0.0335 0.0039, -0.0502 -0.0286 0.0039, -0.0125 -0.0693 0.0, -0.0285 -0.0693 0.0, -0.06 -0.039 0.0, -0.0592 -0.0469 0.0, -0.057 -0.0531 0.0, -0.0537 -0.0584 0.0, -0.0488 -0.063 0.0, -0.0426 -0.0666 0.0, -0.0358 -0.0686 0.0, -0.0291 -0.0102 0.0, -0.0377 -0.0111 0.0, -0.0446 -0.0136 0.0, -0.051 -0.0179 0.0, -0.0511 -0.0179 0.0, -0.0552 -0.0226 0.0, -0.058 -0.0276 0.0, -0.0596 -0.0335 0.0, -0.0125 -0.0102 0.0, -0.0204 -0.0167 0.0, -0.0291 -0.0167 0.0, -0.0204 -0.0628 0.0, -0.0288 -0.0628 0.0, -0.035 -0.0622 0.0, -0.04 -0.0607 0.0, -0.044 -0.0583 0.0, -0.0473 -0.055 0.0, -0.0498 -0.0509 0.0, -0.0515 -0.0454 0.0, -0.0521 -0.0392 0.0, -0.0516 -0.0333 0.0, -0.0502 -0.0286 0.0, -0.0481 -0.025 0.0, -0.0453 -0.0219 0.0, -0.041 -0.0192 0.0, -0.0361 -0.0175 0.0, -0.0009 -0.0693 0.0, -0.0009 -0.0628 0.0, -0.0009 -0.0693 0.0039, -0.0009 -0.0628 0.0039, 0.0228 -0.0628 0.0, 0.0228 -0.0628 0.0039, 0.0228 -0.0426 0.0, 0.0228 -0.0426 0.0039, 0.0019 -0.0426 0.0, 0.0019 -0.0426 0.0039, 0.0019 -0.0362 0.0, 0.0019 -0.0362 0.0039, 0.0228 -0.0362 0.0, 0.0228 -0.0362 0.0039, 0.0228 -0.0167 0.0, 0.0228 -0.0167 0.0039, 0.0005 -0.0167 0.0, 0.0005 -0.0167 0.0039, 0.0005 -0.0102 0.0, 0.0005 -0.0102 0.0039, 0.0307 -0.0102 0.0, 0.0307 -0.0102 0.0039, 0.0307 -0.0693 0.0, 0.0307 -0.0693 0.0039, 0.0423 -0.0662 0.0, 0.0423 -0.0597 0.0, 0.0423 -0.0662 0.0039, 0.0423 -0.0597 0.0039, 0.0574 -0.0635 0.0, 0.0574 -0.0635 0.0039, 0.0496 -0.0626 0.0039, 0.0496 -0.0626 0.0, 0.0433 -0.0603 0.0039, 0.0433 -0.0603 0.0, 0.0783 -0.0404 0.0, 0.0783 -0.0404 0.0039, 0.0777 -0.0468 0.0039, 0.0777 -0.0468 0.0, 0.0761 -0.0519 0.0039, 0.0761 -0.0519 0.0, 0.0736 -0.056 0.0039, 0.0736 -0.056 0.0, 0.0709 -0.0589 0.0039, 0.0709 -0.0589 0.0, 0.0672 -0.0613 0.0039, 0.0672 -0.0613 0.0, 0.0629 -0.0629 0.0039, 0.0629 -0.0629 0.0, 0.0561 -0.016 0.0, 0.0561 -0.016 0.0039, 0.0619 -0.0166 0.0039, 0.0619 -0.0166 0.0, 0.0663 -0.0182 0.0039, 0.0663 -0.0182 0.0, 0.0704 -0.021 0.0039, 0.0704 -0.021 0.0, 0.074 -0.0249 0.0039, 0.074 -0.0249 0.0, 0.0764 -0.0295 0.0039, 0.0764 -0.0295 0.0, 0.078 -0.0358 0.0039, 0.078 -0.0358 0.0, 0.0423 -0.0198 0.0, 0.0423 -0.0198 0.0039, 0.0489 -0.0169 0.0039, 0.0489 -0.0169 0.0, 0.0423 -0.0118 0.0, 0.0423 -0.0118 0.0039, 0.0562 -0.0095 0.0, 0.0562 -0.0095 0.0039, 0.0491 -0.01 0.0039, 0.0491 -0.01 0.0, 0.0862 -0.0409 0.0, 0.0862 -0.0409 0.0039, 0.0854 -0.0325 0.0039, 0.0854 -0.0325 0.0, 0.0831 -0.0258 0.0039, 0.0831 -0.0258 0.0, 0.0796 -0.0203 0.0039, 0.0796 -0.0203 0.0, 0.0743 -0.0151 0.0039, 0.0743 -0.0151 0.0, 0.0687 -0.0119 0.0039, 0.0687 -0.0119 0.0, 0.0621 -0.01 0.0039, 0.0621 -0.01 0.0, 0.062 -0.0696 0.0, 0.0585 -0.07 0.0, 0.0585 -0.07 0.0039, 0.0658 -0.0692 0.0, 0.0658 -0.0692 0.0039, 0.0715 -0.0673 0.0039, 0.0715 -0.0673 0.0, 0.0763 -0.0642 0.0039, 0.0763 -0.0642 0.0, 0.0807 -0.0596 0.0039, 0.0807 -0.0596 0.0, 0.0839 -0.054 0.0039, 0.0839 -0.054 0.0, 0.0856 -0.0477 0.0039, 0.0856 -0.0477 0.0, 0.0486 -0.0688 0.0, 0.0486 -0.0688 0.0039, 0.0545 -0.0696 0.0, 0.0569 -0.07 0.0039, 0.0569 -0.07 0.0, 0.0912 -0.0693 0.0, 0.0912 -0.0628 0.0, 0.0912 -0.0693 0.0039, 0.0912 -0.0628 0.0039, 0.1136 -0.0628 0.0, 0.1136 -0.0628 0.0039, 0.1136 -0.0102 0.0, 0.1136 -0.0102 0.0039, 0.1215 -0.0102 0.0, 0.1215 -0.0102 0.0039, 0.1215 -0.0693 0.0, 0.1215 -0.0693 0.0039
            ]
        }
        coordIndex [
            0,1,2,-1,2,1,3,-1,4,5,0,-1,0,5,6,-1,0,6,1,-1,1,6,7,-1,4,8,5,-1,5,8,9,-1,5,9,10,-1,10,9,11,-1,10,11,12,-1,12,13,10,-1,10,13,2,-1,10,2,14,-1,14,2,3,-1,14,3,15,-1,16,17,14,-1,14,17,10,-1,17,18,10,-1,10,18,5,-1,18,19,5,-1,5,19,6,-1,19,20,6,-1,6,20,7,-1,20,21,7,-1,7,21,1,-1,21,22,1,-1,1,22,3,-1,22,23,3,-1,3,23,15,-1,23,16,15,-1,15,16,14,-1,24,25,2,-1,2,25,0,-1,26,24,13,-1,13,24,2,-1,26,13,12,-1,26,12,27,-1,27,12,11,-1,27,11,28,-1,29,28,9,-1,9,28,11,-1,29,9,8,-1,29,8,30,-1,30,8,4,-1,30,4,31,-1,25,31,0,-1,0,31,4,-1,32,33,34,-1,34,33,35,-1,34,35,36,-1,36,35,37,-1,36,37,38,-1,38,37,39,-1,38,39,40,-1,40,39,41,-1,40,41,42,-1,42,41,43,-1,42,43,44,-1,44,43,45,-1,44,45,46,-1,46,45,47,-1,46,47,48,-1,48,47,49,-1,48,49,50,-1,50,49,51,-1,50,51,52,-1,52,51,53,-1,52,53,54,-1,54,53,55,-1,54,55,56,-1,56,55,57,-1,56,57,58,-1,58,57,59,-1,58,59,60,-1,60,59,61,-1,60,61,62,-1,62,61,63,-1,62,63,64,-1,64,63,65,-1,64,65,66,-1,66,65,32,-1,66,32,34,-1,67,68,47,-1,47,68,49,-1,69,63,61,-1,69,61,70,-1,70,61,59,-1,70,59,71,-1,71,59,57,-1,71,57,72,-1,72,57,55,-1,72,55,73,-1,73,55,53,-1,73,53,74,-1,74,53,51,-1,74,51,75,-1,75,51,49,-1,75,49,68,-1,76,43,41,-1,76,41,77,-1,77,41,39,-1,77,39,78,-1,78,39,37,-1,78,37,79,-1,79,37,35,-1,79,35,80,-1,80,35,33,-1,80,33,81,-1,81,33,32,-1,81,32,82,-1,82,32,65,-1,82,65,83,-1,83,65,63,-1,83,63,69,-1,76,84,43,-1,43,84,45,-1,84,67,45,-1,45,67,47,-1,85,86,44,-1,44,86,42,-1,87,85,46,-1,46,85,44,-1,88,87,48,-1,48,87,46,-1,88,48,50,-1,88,50,89,-1,89,50,52,-1,89,52,90,-1,90,52,54,-1,90,54,91,-1,91,54,56,-1,91,56,92,-1,92,56,58,-1,92,58,93,-1,93,58,60,-1,93,60,94,-1,94,60,62,-1,94,62,95,-1,95,62,64,-1,95,64,96,-1,96,64,66,-1,96,66,97,-1,97,66,34,-1,97,34,98,-1,98,34,36,-1,98,36,99,-1,99,36,38,-1,99,38,100,-1,100,38,40,-1,100,40,101,-1,101,40,42,-1,101,42,86,-1,102,103,104,-1,104,103,105,-1,103,106,105,-1,105,106,107,-1,106,108,107,-1,107,108,109,-1,108,110,109,-1,109,110,111,-1,110,112,111,-1,111,112,113,-1,112,114,113,-1,113,114,115,-1,114,116,115,-1,115,116,117,-1,116,118,117,-1,117,118,119,-1,118,120,119,-1,119,120,121,-1,120,122,121,-1,121,122,123,-1,122,124,123,-1,123,124,125,-1,124,102,125,-1,125,102,104,-1,125,104,105,-1,105,107,125,-1,125,107,109,-1,125,109,123,-1,119,121,117,-1,117,121,123,-1,117,123,115,-1,115,123,109,-1,115,109,113,-1,113,109,111,-1,126,127,128,-1,128,127,129,-1,130,131,132,-1,130,132,133,-1,133,132,134,-1,133,134,135,-1,135,134,129,-1,135,129,127,-1,136,137,138,-1,136,138,139,-1,139,138,140,-1,139,140,141,-1,141,140,142,-1,141,142,143,-1,143,142,144,-1,143,144,145,-1,145,144,146,-1,145,146,147,-1,147,146,148,-1,147,148,149,-1,149,148,131,-1,149,131,130,-1,150,151,152,-1,150,152,153,-1,153,152,154,-1,153,154,155,-1,155,154,156,-1,155,156,157,-1,157,156,158,-1,157,158,159,-1,159,158,160,-1,159,160,161,-1,161,160,162,-1,161,162,163,-1,163,162,137,-1,163,137,136,-1,164,165,166,-1,164,166,167,-1,167,166,151,-1,167,151,150,-1,164,168,165,-1,165,168,169,-1,170,171,172,-1,170,172,173,-1,173,172,169,-1,173,169,168,-1,174,175,176,-1,174,176,177,-1,177,176,178,-1,177,178,179,-1,179,178,180,-1,179,180,181,-1,181,180,182,-1,181,182,183,-1,183,182,184,-1,183,184,185,-1,185,184,186,-1,185,186,187,-1,187,186,171,-1,187,171,170,-1,188,189,190,-1,188,190,191,-1,190,192,191,-1,191,192,193,-1,191,193,194,-1,194,193,195,-1,194,195,196,-1,196,195,197,-1,196,197,198,-1,198,197,199,-1,198,199,200,-1,200,199,201,-1,200,201,202,-1,202,201,175,-1,202,175,174,-1,203,126,204,-1,204,126,128,-1,203,204,205,-1,205,204,206,-1,205,206,207,-1,207,206,190,-1,207,190,189,-1,148,190,131,-1,131,190,206,-1,131,206,132,-1,132,206,204,-1,132,204,134,-1,134,204,128,-1,134,128,129,-1,165,169,166,-1,166,169,172,-1,166,172,151,-1,151,172,171,-1,151,171,152,-1,152,171,186,-1,152,186,154,-1,154,186,184,-1,154,184,156,-1,156,184,182,-1,156,182,158,-1,158,182,180,-1,158,180,160,-1,160,180,178,-1,160,178,162,-1,162,178,176,-1,162,176,137,-1,137,176,175,-1,137,175,138,-1,138,175,201,-1,138,201,140,-1,140,201,199,-1,140,199,142,-1,142,199,197,-1,142,197,144,-1,144,197,195,-1,144,195,146,-1,146,195,193,-1,146,193,148,-1,148,193,192,-1,148,192,190,-1,208,209,210,-1,210,209,211,-1,209,212,211,-1,211,212,213,-1,212,214,213,-1,213,214,215,-1,214,216,215,-1,215,216,217,-1,216,218,217,-1,217,218,219,-1,218,208,219,-1,219,208,210,-1,215,217,213,-1,213,217,219,-1,213,219,211,-1,211,219,210,-1,
        ]
    }
}
Shape{
    appearance Appearance {
        material  Material 	{
            diffuseColor 0.8509803921568627 0.8509803921568627 0.8509803921568627
            specularColor 0.4235294117647059 0.4235294117647059 0.4235294117647059
            ambientIntensity 0.851
            transparency 0.0
            shininess 0.5
        }
    }
    geometry IndexedFaceSet {
        ccw TRUE
        solid FALSE
        coord DEF co Coordinate {
            point [
                -0.0806 -0.0462 0.0, -0.1003 -0.0462 0.0, -0.0894 -0.0216 0.0, -0.0914 -0.0216 0.0, -0.09 -0.0195 0.0, -0.0909 -0.0195 0.0, -0.0903 -0.0174 0.0, -0.0905 -0.0174 0.0, -0.0204 -0.0167 0.0, -0.0204 -0.0628 0.0, -0.0291 -0.0167 0.0, -0.0288 -0.0628 0.0, -0.035 -0.0622 0.0, -0.0521 -0.0392 0.0, -0.0516 -0.0333 0.0, -0.0502 -0.0286 0.0, -0.0361 -0.0175 0.0, -0.04 -0.0607 0.0, -0.044 -0.0583 0.0, -0.0473 -0.055 0.0, -0.0498 -0.0509 0.0, -0.0515 -0.0454 0.0, -0.0481 -0.025 0.0, -0.0453 -0.0219 0.0, -0.041 -0.0192 0.0
            ]
        }
        coordIndex [
            0,1,2,-1,2,1,3,-1,2,3,4,-1,4,3,5,-1,4,5,6,-1,6,5,7,-1,8,9,10,-1,10,9,11,-1,10,11,12,-1,13,14,10,-1,10,14,15,-1,10,15,16,-1,12,17,10,-1,10,17,18,-1,10,18,19,-1,19,20,10,-1,10,20,21,-1,10,21,13,-1,22,23,15,-1,15,23,24,-1,15,24,16,-1,
        ]
    }
}
Shape{
    appearance Appearance {
        material  Material 	{
            diffuseColor 0.2235294117647059 0.2235294117647059 0.2235294117647059
            specularColor 0.11372549019607843 0.11372549019607843 0.11372549019607843
            ambientIntensity 0.2235
            transparency 0.0
            shininess 0.5
        }
    }
    geometry IndexedFaceSet {
        ccw TRUE
        solid FALSE
        coord DEF co Coordinate {
            point [
                0.0744 0.5439 0.0591, 0.0744 0.5506 0.0039, -0.0634 0.5506 0.0039, 0.5767 0.5506 0.0039, 0.4485 0.5506 0.0039, 0.5423 0.5162 0.2843, 0.4485 0.5439 0.0591, 0.3303 0.5439 0.0591, 0.3303 0.5506 0.0039, 0.1926 0.5506 0.0039, 0.1926 0.5439 0.0591, -0.0634 0.5439 0.0591, -0.1815 0.5506 0.0039, -0.3193 0.5506 0.0039, -0.1815 0.5439 0.0591, -0.3193 0.5439 0.0591, -0.4374 0.5506 0.0039, -0.5656 0.5506 0.0039, -0.4374 0.5439 0.0591, -0.5312 0.5162 0.2843, -0.6047 -0.1427 0.0039, -0.6047 -0.5914 0.0039, -0.5979 -0.1427 0.0591, -0.5703 -0.557 0.2843, -0.5979 -0.064 0.0591, -0.5703 0.4771 0.2843, -0.6047 -0.064 0.0039, -0.6047 0.5116 0.0039, 0.6158 -0.064 0.0039, 0.6158 0.5116 0.0039, 0.609 -0.064 0.0591, 0.5814 0.4771 0.2843, 0.609 -0.1427 0.0591, 0.5814 -0.557 0.2843, 0.6158 -0.1427 0.0039, 0.6158 -0.5914 0.0039, -0.5312 -0.596 0.2843, -0.5656 -0.6305 0.0039, -0.4374 -0.6305 0.0039, -0.4374 -0.6237 0.0591, -0.3193 -0.6237 0.0591, 0.5423 -0.596 0.2843, -0.0634 -0.6237 0.0591, -0.0634 -0.6305 0.0039, 0.0744 -0.6305 0.0039, 0.0744 -0.6237 0.0591, 0.1926 -0.6237 0.0591, -0.1815 -0.6237 0.0591, -0.1815 -0.6305 0.0039, -0.3193 -0.6305 0.0039, 0.4485 -0.6305 0.0039, 0.5767 -0.6305 0.0039, 0.4485 -0.6237 0.0591, 0.3303 -0.6237 0.0591, 0.3303 -0.6305 0.0039, 0.1926 -0.6305 0.0039, 0.5801 -0.5656 0.2852, 0.6145 -0.6015 0.0039, 0.5799 -0.567 0.2854, 0.6128 -0.6064 0.0039, 0.577 -0.5737 0.2859, 0.6106 -0.611 0.0039, 0.5759 -0.5763 0.286, 0.6077 -0.6152 0.0039, 0.5724 -0.581 0.2862, 0.6044 -0.6191 0.0039, 0.5697 -0.5844 0.2863, 0.6005 -0.6224 0.0039, 0.5663 -0.587 0.2862, 0.5963 -0.6253 0.0039, 0.5616 -0.5906 0.286, 0.5917 -0.6275 0.0039, 0.559 -0.5917 0.2859, 0.5869 -0.6291 0.0039, 0.5523 -0.5946 0.2854, 0.5509 -0.5948 0.2852, -0.5312 -0.5939 0.2933, 0.5423 -0.5939 0.2933, -0.5312 -0.5937 0.2935, 0.5423 -0.5937 0.2935, -0.5312 -0.5895 0.3017, 0.5423 -0.5895 0.3017, -0.5312 -0.5893 0.3019, 0.5423 -0.5893 0.3019, -0.5312 -0.5832 0.3089, 0.5423 -0.5832 0.3089, -0.5312 -0.583 0.309, 0.5423 -0.583 0.309, -0.5312 -0.5753 0.3143, 0.5423 -0.5753 0.3143, -0.5312 -0.5752 0.3144, 0.5423 -0.5752 0.3144, -0.5312 -0.5664 0.3177, 0.5423 -0.5664 0.3177, -0.5312 -0.5664 0.3177, 0.5423 -0.5664 0.3177, 0.5423 -0.557 0.3189, 0.3479 -0.557 0.3189, 0.1107 -0.557 0.3189, 0.0772 -0.557 0.3189, 0.0167 -0.557 0.3189, -0.0488 -0.557 0.3189, -0.0913 -0.557 0.3189, -0.2398 -0.557 0.3189, -0.5312 -0.557 0.3189, -0.5398 -0.5948 0.2852, -0.5758 -0.6291 0.0039, -0.5412 -0.5946 0.2854, -0.5806 -0.6275 0.0039, -0.5479 -0.5917 0.2859, -0.5852 -0.6253 0.0039, -0.5506 -0.5906 0.286, -0.5894 -0.6224 0.0039, -0.5552 -0.587 0.2862, -0.5933 -0.6191 0.0039, -0.5586 -0.5844 0.2863, -0.5966 -0.6152 0.0039, -0.5613 -0.581 0.2862, -0.5995 -0.611 0.0039, -0.5648 -0.5763 0.286, -0.6017 -0.6064 0.0039, -0.566 -0.5737 0.2859, -0.6034 -0.6015 0.0039, -0.5688 -0.567 0.2854, -0.569 -0.5656 0.2852, 0.579 -0.557 0.2935, 0.5748 -0.557 0.3017, 0.574 -0.5642 0.3017, 0.5746 -0.557 0.3019, 0.5685 -0.557 0.3089, 0.5678 -0.5628 0.3089, 0.5602 -0.5611 0.3143, 0.5515 -0.5591 0.3177, 0.5508 -0.5611 0.3177, 0.5464 -0.5655 0.3177, 0.5482 -0.5644 0.3177, 0.5444 -0.5662 0.3177, 0.5517 -0.557 0.3177, 0.5782 -0.5652 0.2933, 0.5755 -0.573 0.2933, 0.5711 -0.58 0.2933, 0.5653 -0.5858 0.2933, 0.5583 -0.5902 0.2933, 0.5505 -0.5929 0.2933, 0.5684 -0.557 0.309, 0.5607 -0.557 0.3143, 0.5606 -0.557 0.3144, 0.5517 -0.557 0.3177, 0.5566 -0.5684 0.3143, 0.5537 -0.5713 0.3143, 0.5503 -0.5735 0.3143, 0.5464 -0.5749 0.3143, 0.5588 -0.5649 0.3143, 0.5497 -0.5629 0.3177, 0.5659 -0.5683 0.3089, 0.5628 -0.5733 0.3089, 0.5586 -0.5775 0.3089, 0.5536 -0.5806 0.3089, 0.5481 -0.5825 0.3089, 0.5716 -0.5711 0.3017, 0.5677 -0.5772 0.3017, 0.5625 -0.5824 0.3017, 0.5564 -0.5863 0.3017, 0.5495 -0.5887 0.3017, 0.5792 -0.557 0.2933, -0.5384 -0.5887 0.3017, -0.537 -0.5825 0.3089, -0.5353 -0.5749 0.3143, -0.5333 -0.5662 0.3177, -0.5353 -0.5655 0.3177, -0.5397 -0.5611 0.3177, -0.5386 -0.5629 0.3177, -0.5404 -0.5591 0.3177, -0.5394 -0.5929 0.2933, -0.5472 -0.5902 0.2933, -0.5542 -0.5858 0.2933, -0.56 -0.58 0.2933, -0.5644 -0.573 0.2933, -0.5672 -0.5652 0.2933, -0.5681 -0.557 0.2933, -0.5406 -0.557 0.3177, -0.5427 -0.5713 0.3143, -0.5456 -0.5684 0.3143, -0.5478 -0.5649 0.3143, -0.5491 -0.5611 0.3143, -0.5392 -0.5735 0.3143, -0.5371 -0.5644 0.3177, -0.5407 -0.557 0.3177, -0.5495 -0.557 0.3144, -0.5496 -0.557 0.3143, -0.5573 -0.557 0.309, -0.5426 -0.5806 0.3089, -0.5475 -0.5775 0.3089, -0.5517 -0.5733 0.3089, -0.5548 -0.5683 0.3089, -0.5567 -0.5628 0.3089, -0.5453 -0.5863 0.3017, -0.5515 -0.5824 0.3017, -0.5566 -0.5772 0.3017, -0.5605 -0.5711 0.3017, -0.5629 -0.5642 0.3017, -0.5574 -0.557 0.3089, -0.5636 -0.557 0.3019, -0.5637 -0.557 0.3017, -0.568 -0.557 0.2935, 0.5523 0.5147 0.2854, 0.5869 0.5493 0.0039, 0.5917 0.5477 0.0039, 0.5523 0.5147 0.2854, 0.5963 0.5454 0.0039, 0.5616 0.5108 0.286, 0.6005 0.5426 0.0039, 0.5617 0.5107 0.286, 0.6044 0.5392 0.0039, 0.5697 0.5046 0.2863, 0.6077 0.5354 0.0039, 0.5759 0.4965 0.286, 0.6106 0.5311 0.0039, 0.5759 0.4965 0.286, 0.6128 0.5266 0.0039, 0.5799 0.4872 0.2854, 0.6145 0.5217 0.0039, 0.5799 0.4871 0.2854, 0.5423 -0.0123 0.3189, 0.5423 -0.0721 0.3189, 0.5423 0.4771 0.3189, 0.5517 0.4771 0.3177, 0.5517 0.4771 0.3177, 0.5606 0.4771 0.3144, 0.5607 0.4771 0.3143, 0.5684 0.4771 0.309, 0.5685 0.4771 0.3089, 0.5746 0.4771 0.3019, 0.5748 0.4771 0.3017, 0.579 0.4771 0.2935, 0.5792 0.4771 0.2933, 0.5423 -0.2163 0.3189, 0.5423 -0.5176 0.3189, -0.5312 -0.0123 0.3189, -0.5312 0.4771 0.3189, -0.5406 0.4771 0.3177, -0.5312 -0.5176 0.3189, -0.5312 -0.2163 0.3189, -0.5312 -0.0721 0.3189, -0.5681 0.4771 0.2933, -0.568 0.4771 0.2935, -0.5637 0.4771 0.3017, -0.5636 0.4771 0.3019, -0.5574 0.4771 0.3089, -0.5573 0.4771 0.309, -0.5496 0.4771 0.3143, -0.5495 0.4771 0.3144, -0.5407 0.4771 0.3177, -0.5688 0.4871 0.2854, -0.6034 0.5217 0.0039, -0.6017 0.5266 0.0039, -0.5688 0.4872 0.2854, -0.5995 0.5311 0.0039, -0.5648 0.4965 0.286, -0.5966 0.5354 0.0039, -0.5648 0.4965 0.286, -0.5933 0.5392 0.0039, -0.5586 0.5046 0.2863, -0.5894 0.5426 0.0039, -0.5506 0.5107 0.286, -0.5852 0.5454 0.0039, -0.5506 0.5108 0.286, -0.5806 0.5477 0.0039, -0.5413 0.5147 0.2854, -0.5758 0.5493 0.0039, -0.5412 0.5147 0.2854, 0.5423 0.5095 0.3019, 0.5423 0.5033 0.3089, 0.5491 0.5024 0.3089, 0.547 0.4949 0.3143, 0.5447 0.4863 0.3177, 0.547 0.4853 0.3177, 0.5505 0.4819 0.3177, 0.549 0.4838 0.3177, 0.5514 0.4796 0.3177, 0.5423 0.4865 0.3177, 0.5518 0.5128 0.2933, 0.5607 0.5091 0.2933, 0.5684 0.5032 0.2933, 0.5742 0.4956 0.2933, 0.5779 0.4867 0.2933, 0.5423 0.5032 0.309, 0.5423 0.4955 0.3143, 0.5423 0.4954 0.3144, 0.5423 0.4866 0.3177, 0.5515 0.493 0.3143, 0.5553 0.4901 0.3143, 0.5582 0.4863 0.3143, 0.56 0.4819 0.3143, 0.5554 0.4998 0.3089, 0.5608 0.4957 0.3089, 0.565 0.4902 0.3089, 0.5676 0.4839 0.3089, 0.5423 0.5139 0.2935, 0.5423 0.5096 0.3017, 0.5507 0.5085 0.3017, 0.5585 0.5053 0.3017, 0.5653 0.5001 0.3017, 0.5704 0.4934 0.3017, 0.5737 0.4855 0.3017, 0.5423 0.514 0.2933, -0.5565 0.4839 0.3089, -0.5489 0.4819 0.3143, -0.5403 0.4796 0.3177, -0.5394 0.4819 0.3177, -0.5359 0.4853 0.3177, -0.5379 0.4838 0.3177, -0.5336 0.4863 0.3177, -0.5668 0.4867 0.2933, -0.5631 0.4956 0.2933, -0.5573 0.5032 0.2933, -0.5496 0.5091 0.2933, -0.5407 0.5128 0.2933, -0.5312 0.514 0.2933, -0.5312 0.4865 0.3177, -0.5471 0.4863 0.3143, -0.5442 0.4901 0.3143, -0.5404 0.493 0.3143, -0.5359 0.4949 0.3143, -0.5312 0.4866 0.3177, -0.5312 0.4954 0.3144, -0.5312 0.4955 0.3143, -0.5312 0.5032 0.309, -0.5539 0.4902 0.3089, -0.5497 0.4957 0.3089, -0.5443 0.4998 0.3089, -0.538 0.5024 0.3089, -0.5626 0.4855 0.3017, -0.5593 0.4934 0.3017, -0.5542 0.5001 0.3017, -0.5474 0.5053 0.3017, -0.5396 0.5085 0.3017, -0.5312 0.5033 0.3089, -0.5312 0.5095 0.3019, -0.5312 0.5096 0.3017, -0.5312 0.5139 0.2935, -0.2398 0.4771 0.3189, -0.0913 0.4771 0.3189, -0.0488 0.4771 0.3189, 0.0167 0.4771 0.3189, 0.0772 0.4771 0.3189, 0.1107 0.4771 0.3189, 0.3479 0.4771 0.3189
            ]
        }
        coordIndex [
            0,1,2,-1,3,4,5,-1,5,4,6,-1,5,6,7,-1,8,9,7,-1,7,9,10,-1,7,10,5,-1,5,10,0,-1,5,0,11,-1,11,0,2,-1,12,13,14,-1,14,13,15,-1,16,17,18,-1,18,17,19,-1,18,19,15,-1,15,19,5,-1,15,5,14,-1,14,5,11,-1,20,21,22,-1,22,21,23,-1,22,23,24,-1,24,23,25,-1,24,25,26,-1,26,25,27,-1,28,29,30,-1,30,29,31,-1,30,31,32,-1,32,31,33,-1,32,33,34,-1,34,33,35,-1,36,37,38,-1,38,39,36,-1,36,39,40,-1,36,40,41,-1,42,43,44,-1,45,46,41,-1,44,45,42,-1,42,45,41,-1,42,41,47,-1,47,41,40,-1,47,40,48,-1,48,40,49,-1,50,51,52,-1,52,51,41,-1,52,41,53,-1,53,41,46,-1,53,46,54,-1,54,46,55,-1,35,33,56,-1,35,56,57,-1,57,56,58,-1,57,58,59,-1,59,58,60,-1,59,60,61,-1,61,60,62,-1,61,62,63,-1,63,62,64,-1,63,64,65,-1,65,64,66,-1,65,66,67,-1,67,66,68,-1,67,68,69,-1,69,68,70,-1,69,70,71,-1,71,70,72,-1,71,72,73,-1,73,72,74,-1,73,74,51,-1,51,74,75,-1,51,75,41,-1,36,41,76,-1,76,41,77,-1,76,77,78,-1,78,77,79,-1,78,79,80,-1,80,79,81,-1,80,81,82,-1,82,81,83,-1,82,83,84,-1,84,83,85,-1,84,85,86,-1,86,85,87,-1,86,87,88,-1,88,87,89,-1,88,89,90,-1,90,89,91,-1,90,91,92,-1,92,91,93,-1,92,93,94,-1,94,93,95,-1,95,96,97,-1,97,98,95,-1,95,98,99,-1,95,99,94,-1,94,99,100,-1,94,100,101,-1,101,102,94,-1,94,102,103,-1,94,103,104,-1,37,36,105,-1,37,105,106,-1,106,105,107,-1,106,107,108,-1,108,107,109,-1,108,109,110,-1,110,109,111,-1,110,111,112,-1,112,111,113,-1,112,113,114,-1,114,113,115,-1,114,115,116,-1,116,115,117,-1,116,117,118,-1,118,117,119,-1,118,119,120,-1,120,119,121,-1,120,121,122,-1,122,121,123,-1,122,123,21,-1,21,123,124,-1,21,124,23,-1,125,126,127,-1,128,129,130,-1,131,132,133,-1,96,134,135,-1,136,134,96,-1,133,132,96,-1,137,96,132,-1,56,138,58,-1,58,138,139,-1,58,139,60,-1,60,139,62,-1,62,139,140,-1,62,140,64,-1,64,140,66,-1,66,140,141,-1,66,141,68,-1,68,141,70,-1,70,141,142,-1,70,142,72,-1,72,142,74,-1,74,142,143,-1,74,143,75,-1,75,143,77,-1,75,77,41,-1,95,136,96,-1,144,145,131,-1,131,145,146,-1,131,146,132,-1,132,146,147,-1,132,147,137,-1,148,135,149,-1,149,135,134,-1,149,134,150,-1,150,134,136,-1,150,136,151,-1,129,144,130,-1,130,144,131,-1,130,131,152,-1,152,131,133,-1,152,133,153,-1,153,133,96,-1,95,93,136,-1,136,93,91,-1,136,91,151,-1,151,91,89,-1,151,89,87,-1,154,148,155,-1,155,148,149,-1,155,149,156,-1,156,149,150,-1,156,150,157,-1,157,150,151,-1,157,151,158,-1,158,151,87,-1,127,154,159,-1,159,154,155,-1,159,155,160,-1,160,155,156,-1,160,156,161,-1,161,156,157,-1,161,157,162,-1,162,157,158,-1,162,158,163,-1,126,128,127,-1,127,128,130,-1,127,130,154,-1,154,130,152,-1,154,152,148,-1,148,152,153,-1,148,153,135,-1,135,153,96,-1,56,33,138,-1,138,33,164,-1,138,164,125,-1,87,85,158,-1,158,85,83,-1,158,83,163,-1,163,83,81,-1,163,81,79,-1,125,127,138,-1,138,127,159,-1,138,159,139,-1,139,159,160,-1,139,160,140,-1,140,160,161,-1,140,161,141,-1,141,161,162,-1,141,162,142,-1,142,162,163,-1,142,163,143,-1,143,163,79,-1,143,79,77,-1,78,80,165,-1,82,84,166,-1,167,168,169,-1,104,170,171,-1,172,170,104,-1,169,168,104,-1,94,104,168,-1,105,173,107,-1,107,173,174,-1,107,174,109,-1,109,174,111,-1,111,174,175,-1,111,175,113,-1,113,175,115,-1,115,175,176,-1,115,176,117,-1,117,176,119,-1,119,176,177,-1,119,177,121,-1,121,177,123,-1,123,177,178,-1,123,178,124,-1,124,178,179,-1,124,179,23,-1,180,172,104,-1,86,88,167,-1,167,88,90,-1,167,90,168,-1,168,90,92,-1,168,92,94,-1,181,171,182,-1,182,171,170,-1,182,170,183,-1,183,170,172,-1,183,172,184,-1,84,86,166,-1,166,86,167,-1,166,167,185,-1,185,167,169,-1,185,169,186,-1,186,169,104,-1,180,187,172,-1,172,187,188,-1,172,188,184,-1,184,188,189,-1,184,189,190,-1,191,181,192,-1,192,181,182,-1,192,182,193,-1,193,182,183,-1,193,183,194,-1,194,183,184,-1,194,184,195,-1,195,184,190,-1,165,191,196,-1,196,191,192,-1,196,192,197,-1,197,192,193,-1,197,193,198,-1,198,193,194,-1,198,194,199,-1,199,194,195,-1,199,195,200,-1,80,82,165,-1,165,82,166,-1,165,166,191,-1,191,166,185,-1,191,185,181,-1,181,185,186,-1,181,186,171,-1,171,186,104,-1,105,36,173,-1,173,36,76,-1,173,76,78,-1,190,201,195,-1,195,201,202,-1,195,202,200,-1,200,202,203,-1,200,203,204,-1,78,165,173,-1,173,165,196,-1,173,196,174,-1,174,196,197,-1,174,197,175,-1,175,197,198,-1,175,198,176,-1,176,198,199,-1,176,199,177,-1,177,199,200,-1,177,200,178,-1,178,200,204,-1,178,204,179,-1,5,205,3,-1,3,205,206,-1,206,205,207,-1,207,205,208,-1,207,208,209,-1,209,208,210,-1,209,210,211,-1,211,210,212,-1,211,212,213,-1,213,212,214,-1,213,214,215,-1,215,214,216,-1,215,216,217,-1,217,216,218,-1,217,218,219,-1,219,218,220,-1,219,220,221,-1,220,222,221,-1,221,222,31,-1,221,31,29,-1,223,224,137,-1,225,223,226,-1,226,223,137,-1,226,137,227,-1,227,137,147,-1,227,147,228,-1,228,147,146,-1,228,146,229,-1,229,146,145,-1,229,145,230,-1,230,145,144,-1,230,144,231,-1,231,144,129,-1,231,129,232,-1,232,129,128,-1,232,128,233,-1,233,128,126,-1,233,126,234,-1,234,126,125,-1,234,125,235,-1,235,125,164,-1,235,164,31,-1,31,164,33,-1,224,236,137,-1,137,236,237,-1,137,237,96,-1,238,239,240,-1,104,241,180,-1,180,241,242,-1,180,242,243,-1,25,23,244,-1,244,23,179,-1,244,179,245,-1,245,179,204,-1,245,204,246,-1,246,204,203,-1,246,203,247,-1,247,203,202,-1,247,202,248,-1,248,202,201,-1,248,201,249,-1,249,201,190,-1,249,190,250,-1,250,190,189,-1,250,189,251,-1,251,189,188,-1,251,188,252,-1,252,188,187,-1,252,187,240,-1,240,187,180,-1,240,180,238,-1,238,180,243,-1,25,253,27,-1,27,253,254,-1,254,253,255,-1,255,253,256,-1,255,256,257,-1,257,256,258,-1,257,258,259,-1,259,258,260,-1,259,260,261,-1,261,260,262,-1,261,262,263,-1,263,262,264,-1,263,264,265,-1,265,264,266,-1,265,266,267,-1,267,266,268,-1,267,268,269,-1,268,270,269,-1,269,270,19,-1,269,19,17,-1,271,272,273,-1,274,275,276,-1,225,277,278,-1,279,277,225,-1,276,275,225,-1,280,225,275,-1,281,208,205,-1,208,281,210,-1,210,281,282,-1,210,282,212,-1,212,282,283,-1,212,283,214,-1,214,283,284,-1,214,284,216,-1,216,284,218,-1,218,284,285,-1,218,285,220,-1,220,285,222,-1,222,285,235,-1,222,235,31,-1,226,279,225,-1,286,287,274,-1,274,287,288,-1,274,288,275,-1,275,288,289,-1,275,289,280,-1,290,278,291,-1,291,278,277,-1,291,277,292,-1,292,277,279,-1,292,279,293,-1,226,227,279,-1,279,227,228,-1,279,228,293,-1,293,228,229,-1,293,229,230,-1,273,290,294,-1,294,290,291,-1,294,291,295,-1,295,291,292,-1,295,292,296,-1,296,292,293,-1,296,293,297,-1,297,293,230,-1,298,299,300,-1,300,299,271,-1,271,273,300,-1,300,273,294,-1,300,294,301,-1,301,294,295,-1,301,295,302,-1,302,295,296,-1,302,296,303,-1,303,296,297,-1,303,297,304,-1,272,286,273,-1,273,286,274,-1,273,274,290,-1,290,274,276,-1,290,276,278,-1,278,276,225,-1,298,281,305,-1,305,281,205,-1,305,205,5,-1,230,231,297,-1,297,231,232,-1,297,232,304,-1,304,232,233,-1,304,233,234,-1,298,300,281,-1,281,300,301,-1,281,301,282,-1,282,301,302,-1,282,302,283,-1,283,302,303,-1,283,303,284,-1,284,303,304,-1,284,304,285,-1,285,304,234,-1,285,234,235,-1,247,248,306,-1,307,308,309,-1,239,310,311,-1,312,310,239,-1,309,308,239,-1,240,239,308,-1,313,256,253,-1,256,313,258,-1,258,313,314,-1,258,314,260,-1,260,314,315,-1,260,315,262,-1,262,315,316,-1,262,316,264,-1,264,316,266,-1,266,316,317,-1,266,317,268,-1,268,317,270,-1,270,317,318,-1,270,318,19,-1,319,312,239,-1,249,250,307,-1,307,250,251,-1,307,251,308,-1,308,251,252,-1,308,252,240,-1,320,311,321,-1,321,311,310,-1,321,310,322,-1,322,310,312,-1,322,312,323,-1,319,324,312,-1,312,324,325,-1,312,325,323,-1,323,325,326,-1,323,326,327,-1,306,320,328,-1,328,320,321,-1,328,321,329,-1,329,321,322,-1,329,322,330,-1,330,322,323,-1,330,323,331,-1,331,323,327,-1,245,246,332,-1,332,246,247,-1,247,306,332,-1,332,306,328,-1,332,328,333,-1,333,328,329,-1,333,329,334,-1,334,329,330,-1,334,330,335,-1,335,330,331,-1,335,331,336,-1,248,249,306,-1,306,249,307,-1,306,307,320,-1,320,307,309,-1,320,309,311,-1,311,309,239,-1,245,313,244,-1,244,313,253,-1,244,253,25,-1,327,337,331,-1,331,337,338,-1,331,338,336,-1,336,338,339,-1,336,339,340,-1,245,332,313,-1,313,332,333,-1,313,333,314,-1,314,333,334,-1,314,334,315,-1,315,334,335,-1,315,335,316,-1,316,335,336,-1,316,336,317,-1,317,336,340,-1,317,340,318,-1,5,19,305,-1,305,19,318,-1,305,318,298,-1,298,318,340,-1,298,340,299,-1,299,340,339,-1,299,339,271,-1,271,339,338,-1,271,338,272,-1,272,338,337,-1,272,337,286,-1,286,337,327,-1,286,327,287,-1,287,327,326,-1,287,326,288,-1,288,326,325,-1,288,325,289,-1,289,325,324,-1,289,324,280,-1,280,324,319,-1,319,239,341,-1,341,342,319,-1,319,342,343,-1,319,343,280,-1,280,343,344,-1,280,344,345,-1,345,346,280,-1,280,346,347,-1,280,347,225,-1,
        ]
    }
}
Shape{
    appearance Appearance {
        material  Material 	{
            diffuseColor 0.6470588235294118 0.6470588235294118 0.6470588235294118
            specularColor 0.3215686274509804 0.3215686274509804 0.3215686274509804
            ambientIntensity 0.6471
            transparency 0.0
            shininess 0.5
        }
    }
    geometry IndexedFaceSet {
        ccw TRUE
        solid FALSE
        coord DEF co Coordinate {
            point [
                -0.1021 -0.0126 0.315, -0.0942 -0.0126 0.315, -0.1021 -0.0126 0.3189, -0.0942 -0.0126 0.3189, -0.1151 -0.0717 0.315, -0.1151 -0.0717 0.3189, -0.1237 -0.0717 0.315, -0.1237 -0.0717 0.3189, -0.1453 -0.0126 0.315, -0.1453 -0.0126 0.3189, -0.1367 -0.0126 0.315, -0.1367 -0.0126 0.3189, -0.1206 -0.0585 0.315, -0.1206 -0.0585 0.3189, -0.1194 -0.0638 0.315, -0.1194 -0.0638 0.3189, -0.1198 -0.0611 0.3189, -0.1198 -0.0611 0.315, -0.1192 -0.0638 0.315, -0.1192 -0.0638 0.3189, -0.1179 -0.0584 0.315, -0.1179 -0.0584 0.3189, -0.1187 -0.0611 0.3189, -0.1187 -0.0611 0.315, -0.3343 -0.4192 0.315, -0.3343 -0.4192 0.3189, -0.3364 -0.4039 0.315, -0.3364 -0.4039 0.3189, -0.3423 -0.3896 0.315, -0.3423 -0.3896 0.3189, -0.3516 -0.3774 0.315, -0.3516 -0.3774 0.3189, -0.3639 -0.368 0.315, -0.3639 -0.368 0.3189, -0.3781 -0.3621 0.315, -0.3781 -0.3621 0.3189, -0.3934 -0.3601 0.315, -0.3934 -0.3601 0.3189, -0.4087 -0.3621 0.315, -0.4087 -0.3621 0.3189, -0.4229 -0.368 0.315, -0.4229 -0.368 0.3189, -0.4352 -0.3774 0.315, -0.4352 -0.3774 0.3189, -0.4445 -0.3896 0.315, -0.4445 -0.3896 0.3189, -0.4504 -0.4039 0.315, -0.4504 -0.4039 0.3189, -0.4524 -0.4192 0.315, -0.4524 -0.4192 0.3189, -0.4504 -0.4345 0.315, -0.4504 -0.4345 0.3189, -0.4445 -0.4487 0.315, -0.4445 -0.4487 0.3189, -0.4352 -0.4609 0.315, -0.4352 -0.4609 0.3189, -0.4229 -0.4703 0.315, -0.4229 -0.4703 0.3189, -0.4087 -0.4762 0.315, -0.4087 -0.4762 0.3189, -0.3934 -0.4782 0.315, -0.3934 -0.4782 0.3189, -0.3781 -0.4762 0.315, -0.3781 -0.4762 0.3189, -0.3639 -0.4703 0.315, -0.3639 -0.4703 0.3189, -0.3516 -0.4609 0.315, -0.3516 -0.4609 0.3189, -0.3423 -0.4487 0.315, -0.3423 -0.4487 0.3189, -0.3364 -0.4345 0.315, -0.3364 -0.4345 0.3189, -0.3934 -0.4192 0.315, 0.1344 -0.0724 0.3189, 0.1344 -0.0724 0.315, 0.1311 -0.0721 0.3189, 0.1291 -0.0718 0.315, 0.1291 -0.0718 0.3189, 0.1247 -0.0703 0.315, 0.1247 -0.0703 0.3189, 0.1211 -0.0679 0.315, 0.1211 -0.0679 0.3189, 0.1185 -0.0651 0.315, 0.1185 -0.0651 0.3189, 0.1166 -0.0616 0.315, 0.1166 -0.0616 0.3189, 0.1155 -0.0575 0.315, 0.1155 -0.0575 0.3189, 0.1154 -0.0551 0.315, 0.1154 -0.0551 0.3189, 0.1268 -0.0397 0.315, 0.1268 -0.0397 0.3189, 0.1229 -0.0417 0.3189, 0.1229 -0.0417 0.315, 0.1196 -0.0445 0.3189, 0.1196 -0.0445 0.315, 0.1172 -0.0478 0.3189, 0.1172 -0.0478 0.315, 0.1159 -0.0511 0.3189, 0.1159 -0.0511 0.315, 0.1183 -0.0269 0.315, 0.1183 -0.0269 0.3189, 0.1184 -0.0287 0.3189, 0.1184 -0.0287 0.315, 0.1191 -0.0314 0.3189, 0.1191 -0.0314 0.315, 0.1206 -0.0343 0.3189, 0.1206 -0.0343 0.315, 0.123 -0.037 0.3189, 0.123 -0.037 0.315, 0.1352 -0.0119 0.315, 0.1352 -0.0119 0.3189, 0.1325 -0.0121 0.3189, 0.1325 -0.0121 0.315, 0.1317 -0.0123 0.3189, 0.1282 -0.0131 0.315, 0.1282 -0.0131 0.3189, 0.1249 -0.0148 0.3189, 0.1249 -0.0148 0.315, 0.1222 -0.0171 0.3189, 0.1222 -0.0171 0.315, 0.1201 -0.0199 0.3189, 0.1201 -0.0199 0.315, 0.1188 -0.023 0.3189, 0.1188 -0.023 0.315, 0.1383 -0.0123 0.3189, 0.1399 -0.0125 0.315, 0.1399 -0.0125 0.3189, 0.1439 -0.0139 0.315, 0.1439 -0.0139 0.3189, 0.1469 -0.0158 0.315, 0.1469 -0.0158 0.3189, 0.1492 -0.0182 0.315, 0.1492 -0.0182 0.3189, 0.151 -0.0212 0.315, 0.151 -0.0212 0.3189, 0.1519 -0.0242 0.315, 0.1519 -0.0242 0.3189, 0.1521 -0.0269 0.315, 0.1521 -0.0269 0.3189, 0.1437 -0.0397 0.315, 0.1437 -0.0397 0.3189, 0.1452 -0.0388 0.3189, 0.1452 -0.0388 0.315, 0.1482 -0.0363 0.3189, 0.1482 -0.0363 0.315, 0.1502 -0.0336 0.3189, 0.1502 -0.0336 0.315, 0.1516 -0.0303 0.3189, 0.1516 -0.0303 0.315, 0.1535 -0.0551 0.315, 0.1535 -0.0551 0.3189, 0.1533 -0.0523 0.3189, 0.1533 -0.0523 0.315, 0.1522 -0.0486 0.3189, 0.1522 -0.0486 0.315, 0.1499 -0.0446 0.3189, 0.1499 -0.0446 0.315, 0.1471 -0.0418 0.3189, 0.1471 -0.0418 0.315, 0.1383 -0.0721 0.3189, 0.1383 -0.0721 0.315, 0.1386 -0.0721 0.3189, 0.1429 -0.0709 0.315, 0.1429 -0.0709 0.3189, 0.1464 -0.069 0.3189, 0.1464 -0.069 0.315, 0.1495 -0.0664 0.3189, 0.1495 -0.0664 0.315, 0.1517 -0.0631 0.3189, 0.1517 -0.0631 0.315, 0.153 -0.0596 0.3189, 0.153 -0.0596 0.315, 0.1375 -0.0368 0.315, 0.1351 -0.0371 0.315, 0.1365 -0.0437 0.315, 0.1393 -0.0361 0.315, 0.1437 -0.0309 0.315, 0.1441 -0.0287 0.315, 0.1442 -0.0277 0.315, 0.1286 -0.0449 0.315, 0.1312 -0.0439 0.315, 0.1327 -0.0368 0.315, 0.1427 -0.0328 0.315, 0.141 -0.0348 0.315, 0.1344 -0.0436 0.315, 0.1393 -0.0445 0.315, 0.1418 -0.0458 0.315, 0.1439 -0.0252 0.315, 0.1431 -0.0232 0.315, 0.1419 -0.0214 0.315, 0.1408 -0.0204 0.315, 0.1392 -0.0193 0.315, 0.1437 -0.0476 0.315, 0.1451 -0.0496 0.315, 0.146 -0.0518 0.315, 0.1463 -0.0548 0.315, 0.1308 -0.036 0.315, 0.1292 -0.0348 0.315, 0.1285 -0.0341 0.315, 0.1273 -0.0323 0.315, 0.1265 -0.0303 0.315, 0.1262 -0.0277 0.315, 0.1264 -0.0256 0.315, 0.1372 -0.0186 0.315, 0.1351 -0.0184 0.315, 0.1328 -0.0187 0.315, 0.131 -0.0193 0.315, 0.1294 -0.0205 0.315, 0.128 -0.0219 0.315, 0.127 -0.0236 0.315, 0.1265 -0.0463 0.315, 0.1249 -0.0478 0.315, 0.1236 -0.0499 0.315, 0.1228 -0.0522 0.315, 0.1226 -0.0548 0.315, 0.1229 -0.0577 0.315, 0.1237 -0.0599 0.315, 0.1248 -0.0618 0.315, 0.1268 -0.0637 0.315, 0.1291 -0.065 0.315, 0.1317 -0.0657 0.315, 0.1344 -0.0659 0.315, 0.1376 -0.0656 0.315, 0.1403 -0.0647 0.315, 0.1425 -0.0633 0.315, 0.144 -0.0617 0.315, 0.1452 -0.0599 0.315, 0.146 -0.0577 0.315, 0.1226 -0.0548 0.3189, 0.1228 -0.0522 0.3189, 0.1236 -0.0499 0.3189, 0.1249 -0.0478 0.3189, 0.1265 -0.0463 0.3189, 0.1286 -0.0449 0.3189, 0.1312 -0.0439 0.3189, 0.1344 -0.0436 0.3189, 0.1365 -0.0437 0.3189, 0.1393 -0.0445 0.3189, 0.1418 -0.0458 0.3189, 0.1437 -0.0476 0.3189, 0.1451 -0.0496 0.3189, 0.146 -0.0518 0.3189, 0.1463 -0.0548 0.3189, 0.146 -0.0577 0.3189, 0.1452 -0.0599 0.3189, 0.144 -0.0617 0.3189, 0.1425 -0.0633 0.3189, 0.1403 -0.0647 0.3189, 0.1376 -0.0656 0.3189, 0.1344 -0.0659 0.3189, 0.1317 -0.0657 0.3189, 0.1291 -0.065 0.3189, 0.1268 -0.0637 0.3189, 0.1248 -0.0618 0.3189, 0.1237 -0.0599 0.3189, 0.1229 -0.0577 0.3189, 0.1262 -0.0277 0.3189, 0.1264 -0.0256 0.3189, 0.127 -0.0236 0.3189, 0.128 -0.0219 0.3189, 0.1294 -0.0205 0.3189, 0.131 -0.0193 0.3189, 0.1328 -0.0187 0.3189, 0.1351 -0.0184 0.3189, 0.1372 -0.0186 0.3189, 0.1392 -0.0193 0.3189, 0.1408 -0.0204 0.3189, 0.1419 -0.0214 0.3189, 0.1431 -0.0232 0.3189, 0.1439 -0.0252 0.3189, 0.1442 -0.0277 0.3189, 0.1441 -0.0287 0.3189, 0.1437 -0.0309 0.3189, 0.1427 -0.0328 0.3189, 0.141 -0.0348 0.3189, 0.1393 -0.0361 0.3189, 0.1375 -0.0368 0.3189, 0.1351 -0.0371 0.3189, 0.1327 -0.0368 0.3189, 0.1308 -0.036 0.3189, 0.1292 -0.0348 0.3189, 0.1285 -0.0341 0.3189, 0.1273 -0.0323 0.3189, 0.1265 -0.0303 0.3189
            ]
        }
        coordIndex [
            0,1,2,-1,2,1,3,-1,1,4,3,-1,3,4,5,-1,4,6,5,-1,5,6,7,-1,6,8,7,-1,7,8,9,-1,8,10,9,-1,9,10,11,-1,10,12,11,-1,11,12,13,-1,14,15,16,-1,14,16,17,-1,17,16,13,-1,17,13,12,-1,14,18,15,-1,15,18,19,-1,20,21,22,-1,20,22,23,-1,23,22,19,-1,23,19,18,-1,20,0,21,-1,21,0,2,-1,10,8,12,-1,12,8,6,-1,12,6,17,-1,1,0,4,-1,4,0,20,-1,20,23,4,-1,4,23,18,-1,4,18,6,-1,6,18,14,-1,6,14,17,-1,24,25,26,-1,26,25,27,-1,26,27,28,-1,28,27,29,-1,28,29,30,-1,30,29,31,-1,30,31,32,-1,32,31,33,-1,32,33,34,-1,34,33,35,-1,34,35,36,-1,36,35,37,-1,36,37,38,-1,38,37,39,-1,38,39,40,-1,40,39,41,-1,40,41,42,-1,42,41,43,-1,42,43,44,-1,44,43,45,-1,44,45,46,-1,46,45,47,-1,46,47,48,-1,48,47,49,-1,48,49,50,-1,50,49,51,-1,50,51,52,-1,52,51,53,-1,52,53,54,-1,54,53,55,-1,54,55,56,-1,56,55,57,-1,56,57,58,-1,58,57,59,-1,58,59,60,-1,60,59,61,-1,60,61,62,-1,62,61,63,-1,62,63,64,-1,64,63,65,-1,64,65,66,-1,66,65,67,-1,66,67,68,-1,68,67,69,-1,68,69,70,-1,70,69,71,-1,70,71,24,-1,24,71,25,-1,68,70,72,-1,72,70,24,-1,72,24,26,-1,62,64,72,-1,72,64,66,-1,72,66,68,-1,56,58,72,-1,72,58,60,-1,72,60,62,-1,50,52,72,-1,72,52,54,-1,72,54,56,-1,44,46,72,-1,72,46,48,-1,72,48,50,-1,38,40,72,-1,72,40,42,-1,72,42,44,-1,32,34,72,-1,72,34,36,-1,72,36,38,-1,26,28,72,-1,72,28,30,-1,72,30,32,-1,73,74,75,-1,75,74,76,-1,75,76,77,-1,77,76,78,-1,77,78,79,-1,79,78,80,-1,79,80,81,-1,81,80,82,-1,81,82,83,-1,83,82,84,-1,83,84,85,-1,85,84,86,-1,85,86,87,-1,87,86,88,-1,87,88,89,-1,90,91,92,-1,90,92,93,-1,93,92,94,-1,93,94,95,-1,95,94,96,-1,95,96,97,-1,97,96,98,-1,97,98,99,-1,99,98,89,-1,99,89,88,-1,100,101,102,-1,100,102,103,-1,103,102,104,-1,103,104,105,-1,105,104,106,-1,105,106,107,-1,107,106,108,-1,107,108,109,-1,109,108,91,-1,109,91,90,-1,110,111,112,-1,110,112,113,-1,113,112,114,-1,113,114,115,-1,114,116,115,-1,115,116,117,-1,115,117,118,-1,118,117,119,-1,118,119,120,-1,120,119,121,-1,120,121,122,-1,122,121,123,-1,122,123,124,-1,124,123,101,-1,124,101,100,-1,111,110,125,-1,125,110,126,-1,125,126,127,-1,127,126,128,-1,127,128,129,-1,129,128,130,-1,129,130,131,-1,131,130,132,-1,131,132,133,-1,133,132,134,-1,133,134,135,-1,135,134,136,-1,135,136,137,-1,137,136,138,-1,137,138,139,-1,140,141,142,-1,140,142,143,-1,143,142,144,-1,143,144,145,-1,145,144,146,-1,145,146,147,-1,147,146,148,-1,147,148,149,-1,149,148,139,-1,149,139,138,-1,150,151,152,-1,150,152,153,-1,153,152,154,-1,153,154,155,-1,155,154,156,-1,155,156,157,-1,157,156,158,-1,157,158,159,-1,159,158,141,-1,159,141,140,-1,74,73,160,-1,74,160,161,-1,161,160,162,-1,161,162,163,-1,162,164,163,-1,163,164,165,-1,163,165,166,-1,166,165,167,-1,166,167,168,-1,168,167,169,-1,168,169,170,-1,170,169,171,-1,170,171,172,-1,172,171,151,-1,172,151,150,-1,173,174,175,-1,173,175,176,-1,177,140,178,-1,178,140,179,-1,180,181,90,-1,90,181,182,-1,177,183,140,-1,140,183,184,-1,140,184,176,-1,182,181,174,-1,174,181,185,-1,174,185,175,-1,176,175,140,-1,140,175,186,-1,140,186,159,-1,159,186,187,-1,159,187,157,-1,188,134,189,-1,189,134,132,-1,189,132,190,-1,190,132,130,-1,190,130,191,-1,191,130,128,-1,191,128,192,-1,140,143,179,-1,179,143,145,-1,179,145,147,-1,187,193,157,-1,157,193,194,-1,157,194,155,-1,155,194,195,-1,155,195,153,-1,153,195,196,-1,147,149,179,-1,179,149,138,-1,179,138,188,-1,188,138,136,-1,188,136,134,-1,182,197,90,-1,90,197,198,-1,90,198,109,-1,109,198,199,-1,109,199,107,-1,107,199,200,-1,107,200,105,-1,105,200,201,-1,105,201,103,-1,103,201,202,-1,103,202,100,-1,100,202,203,-1,192,128,204,-1,204,128,126,-1,204,126,205,-1,205,126,110,-1,205,110,206,-1,206,110,113,-1,206,113,207,-1,207,113,115,-1,207,115,208,-1,208,115,118,-1,208,118,209,-1,209,118,120,-1,209,120,210,-1,210,120,122,-1,210,122,203,-1,203,122,124,-1,203,124,100,-1,180,90,211,-1,211,90,93,-1,211,93,212,-1,212,93,95,-1,212,95,213,-1,213,95,97,-1,213,97,214,-1,214,97,99,-1,214,99,215,-1,215,99,88,-1,215,88,216,-1,216,88,86,-1,216,86,217,-1,217,86,84,-1,217,84,218,-1,218,84,82,-1,218,82,219,-1,219,82,80,-1,219,80,220,-1,220,80,78,-1,220,78,221,-1,221,78,76,-1,221,76,222,-1,222,76,74,-1,222,74,223,-1,223,74,161,-1,223,161,224,-1,224,161,163,-1,224,163,225,-1,225,163,166,-1,225,166,226,-1,226,166,168,-1,226,168,227,-1,227,168,170,-1,227,170,228,-1,228,170,172,-1,228,172,196,-1,196,172,150,-1,196,150,153,-1,215,229,230,-1,215,230,214,-1,214,230,231,-1,214,231,213,-1,213,231,232,-1,213,232,212,-1,212,232,233,-1,212,233,211,-1,211,233,234,-1,211,234,180,-1,180,234,235,-1,180,235,181,-1,181,235,236,-1,181,236,185,-1,185,236,237,-1,185,237,175,-1,175,237,238,-1,175,238,186,-1,186,238,239,-1,186,239,187,-1,187,239,240,-1,187,240,193,-1,193,240,241,-1,193,241,194,-1,194,241,242,-1,194,242,195,-1,195,242,243,-1,195,243,196,-1,196,243,244,-1,196,244,228,-1,228,244,245,-1,228,245,227,-1,227,245,246,-1,227,246,226,-1,226,246,247,-1,226,247,225,-1,225,247,248,-1,225,248,224,-1,224,248,249,-1,224,249,223,-1,223,249,250,-1,223,250,222,-1,222,250,251,-1,222,251,221,-1,221,251,252,-1,221,252,220,-1,220,252,253,-1,220,253,219,-1,219,253,254,-1,219,254,218,-1,218,254,255,-1,218,255,217,-1,217,255,256,-1,217,256,216,-1,216,256,229,-1,216,229,215,-1,202,257,258,-1,202,258,203,-1,203,258,259,-1,203,259,210,-1,210,259,260,-1,210,260,209,-1,209,260,261,-1,209,261,208,-1,208,261,262,-1,208,262,207,-1,207,262,263,-1,207,263,206,-1,206,263,264,-1,206,264,205,-1,205,264,265,-1,205,265,204,-1,204,265,266,-1,204,266,192,-1,192,266,267,-1,192,267,191,-1,191,267,268,-1,191,268,190,-1,190,268,269,-1,190,269,189,-1,189,269,270,-1,189,270,188,-1,188,270,271,-1,188,271,179,-1,179,271,272,-1,179,272,178,-1,178,272,273,-1,178,273,177,-1,177,273,274,-1,177,274,183,-1,183,274,275,-1,183,275,184,-1,184,275,276,-1,184,276,176,-1,176,276,277,-1,176,277,173,-1,173,277,278,-1,173,278,174,-1,174,278,279,-1,174,279,182,-1,182,279,280,-1,182,280,197,-1,197,280,281,-1,197,281,198,-1,198,281,282,-1,198,282,199,-1,199,282,283,-1,199,283,200,-1,200,283,284,-1,200,284,201,-1,201,284,257,-1,201,257,202,-1,
        ]
    }
}
Shape{
    appearance Appearance {
        material  Material 	{
            diffuseColor 0.2235294117647059 0.2235294117647059 0.2235294117647059
            specularColor 0.11372549019607843 0.11372549019607843 0.11372549019607843
            ambientIntensity 0.2235
            transparency 0.0
            shininess 0.5
        }
    }
    geometry IndexedFaceSet {
        ccw TRUE
        solid FALSE
        coord DEF co Coordinate {
            point [
                0.1317 -0.0657 0.3189, 0.1344 -0.0659 0.3189, 0.1344 -0.0436 0.3189, 0.1452 -0.0599 0.3189, 0.1437 -0.0476 0.3189, 0.144 -0.0617 0.3189, 0.1418 -0.0458 0.3189, 0.1365 -0.0437 0.3189, 0.1376 -0.0656 0.3189, 0.1403 -0.0647 0.3189, 0.1425 -0.0633 0.3189, 0.1393 -0.0445 0.3189, 0.1312 -0.0439 0.3189, 0.1226 -0.0548 0.3189, 0.1286 -0.0449 0.3189, 0.1265 -0.0463 0.3189, 0.1249 -0.0478 0.3189, 0.1228 -0.0522 0.3189, 0.1236 -0.0499 0.3189, 0.146 -0.0577 0.3189, 0.1463 -0.0548 0.3189, 0.1451 -0.0496 0.3189, 0.146 -0.0518 0.3189, 0.1229 -0.0577 0.3189, 0.1237 -0.0599 0.3189, 0.1248 -0.0618 0.3189, 0.1268 -0.0637 0.3189, 0.1291 -0.065 0.3189
            ]
        }
        coordIndex [
            0,1,2,-1,3,4,5,-1,5,4,6,-1,2,1,7,-1,7,1,8,-1,7,8,9,-1,9,10,7,-1,7,10,5,-1,7,5,11,-1,11,5,6,-1,2,12,13,-1,13,12,14,-1,14,15,13,-1,13,15,16,-1,13,16,17,-1,17,16,18,-1,3,19,4,-1,4,19,20,-1,4,20,21,-1,21,20,22,-1,13,23,2,-1,2,23,24,-1,2,24,25,-1,25,26,2,-1,2,26,27,-1,2,27,0,-1,
        ]
    }
}
Shape{
    appearance Appearance {
        material  Material 	{
            diffuseColor 0.6470588235294118 0.6470588235294118 0.6470588235294118
            specularColor 0.3215686274509804 0.3215686274509804 0.3215686274509804
            ambientIntensity 0.6471
            transparency 0.0
            shininess 0.5
        }
    }
    geometry IndexedFaceSet {
        ccw TRUE
        solid FALSE
        coord DEF co Coordinate {
            point [
                0.106 -0.0458 0.315, 0.106 -0.0515 0.315, 0.106 -0.0458 0.3189, 0.106 -0.0515 0.3189, 0.0837 -0.0515 0.315, 0.0837 -0.0515 0.3189, 0.0837 -0.0458 0.315, 0.0837 -0.0458 0.3189, 0.0707 -0.0126 0.315, 0.0707 -0.0717 0.315, 0.0707 -0.0126 0.3189, 0.0707 -0.0717 0.3189, 0.0613 -0.0717 0.315, 0.0613 -0.0717 0.3189, 0.0324 -0.0259 0.315, 0.0324 -0.0259 0.3189, 0.0304 -0.022 0.315, 0.0304 -0.022 0.3189, 0.0313 -0.024 0.3189, 0.0313 -0.024 0.315, 0.0302 -0.022 0.315, 0.0302 -0.022 0.3189, 0.0304 -0.0303 0.315, 0.0304 -0.0303 0.3189, 0.0304 -0.0261 0.3189, 0.0304 -0.0261 0.315, 0.0304 -0.0717 0.315, 0.0304 -0.0717 0.3189, 0.0225 -0.0717 0.315, 0.0225 -0.0717 0.3189, 0.0225 -0.0126 0.315, 0.0225 -0.0126 0.3189, 0.0325 -0.0126 0.315, 0.0325 -0.0126 0.3189, 0.0606 -0.0576 0.315, 0.0606 -0.0576 0.3189, 0.063 -0.0616 0.315, 0.063 -0.0616 0.3189, 0.0619 -0.0596 0.3189, 0.0619 -0.0596 0.315, 0.0632 -0.0616 0.315, 0.0632 -0.0616 0.3189, 0.0628 -0.053 0.315, 0.0628 -0.053 0.3189, 0.0629 -0.0573 0.3189, 0.0629 -0.0573 0.315, 0.0628 -0.0126 0.315, 0.0628 -0.0126 0.3189, -0.0452 -0.0429 0.315, -0.0452 -0.0429 0.3189, -0.0445 -0.0504 0.3189, -0.0445 -0.0504 0.315, -0.0425 -0.0568 0.3189, -0.0425 -0.0568 0.315, -0.0393 -0.0623 0.3189, -0.0393 -0.0623 0.315, -0.035 -0.0667 0.3189, -0.035 -0.0667 0.315, -0.0302 -0.0697 0.3189, -0.0302 -0.0697 0.315, -0.0246 -0.0717 0.3189, -0.0246 -0.0717 0.315, -0.0174 -0.0724 0.315, -0.0208 -0.0721 0.3189, -0.0174 -0.0724 0.3189, -0.0165 -0.0119 0.3189, -0.0206 -0.0123 0.3189, -0.0165 -0.0119 0.315, -0.0229 -0.0125 0.315, -0.0229 -0.0125 0.3189, -0.0288 -0.0142 0.3189, -0.0288 -0.0142 0.315, -0.0343 -0.0174 0.3189, -0.0343 -0.0174 0.315, -0.0389 -0.022 0.3189, -0.0389 -0.022 0.315, -0.0422 -0.0275 0.3189, -0.0422 -0.0275 0.315, -0.0444 -0.0343 0.3189, -0.0444 -0.0343 0.315, 0.0109 -0.0415 0.315, 0.0109 -0.0415 0.3189, 0.0105 -0.0356 0.3189, 0.0105 -0.0356 0.315, 0.0089 -0.029 0.3189, 0.0089 -0.029 0.315, 0.0058 -0.0231 0.3189, 0.0058 -0.0231 0.315, 0.0014 -0.0181 0.3189, 0.0014 -0.0181 0.315, -0.0037 -0.0147 0.3189, -0.0037 -0.0147 0.315, -0.0093 -0.0127 0.3189, -0.0093 -0.0127 0.315, -0.0132 -0.0123 0.3189, -0.0103 -0.0717 0.315, -0.0138 -0.0721 0.3189, -0.0103 -0.0717 0.3189, -0.0046 -0.0698 0.3189, -0.0046 -0.0698 0.315, 0.0003 -0.0668 0.3189, 0.0003 -0.0668 0.315, 0.0047 -0.0623 0.3189, 0.0047 -0.0623 0.315, 0.008 -0.0568 0.3189, 0.008 -0.0568 0.315, 0.0102 -0.05 0.3189, 0.0102 -0.05 0.315, -0.0373 -0.0422 0.315, -0.0367 -0.049 0.315, -0.035 -0.0544 0.315, -0.0325 -0.0586 0.315, -0.0293 -0.0619 0.315, -0.0258 -0.0641 0.315, -0.0217 -0.0655 0.315, -0.0174 -0.0659 0.315, -0.0121 -0.0654 0.315, -0.008 -0.064 0.315, -0.0046 -0.0618 0.315, -0.0018 -0.059 0.315, 0.0005 -0.0553 0.315, 0.0023 -0.0496 0.315, 0.003 -0.0423 0.315, 0.0024 -0.0354 0.315, 0.0009 -0.03 0.315, -0.0015 -0.0256 0.315, -0.0044 -0.0225 0.315, -0.0077 -0.0204 0.315, -0.0116 -0.019 0.315, -0.0169 -0.0184 0.315, -0.0222 -0.019 0.315, -0.0261 -0.0205 0.315, -0.0297 -0.023 0.315, -0.0331 -0.0268 0.315, -0.0355 -0.0315 0.315, -0.0371 -0.038 0.315, -0.0373 -0.0422 0.3189, -0.0371 -0.038 0.3189, -0.0355 -0.0315 0.3189, -0.0331 -0.0268 0.3189, -0.0297 -0.023 0.3189, -0.0261 -0.0205 0.3189, -0.0222 -0.019 0.3189, -0.0169 -0.0184 0.3189, -0.0116 -0.019 0.3189, -0.0077 -0.0204 0.3189, -0.0044 -0.0225 0.3189, -0.0015 -0.0256 0.3189, 0.0009 -0.03 0.3189, 0.0024 -0.0354 0.3189, 0.003 -0.0423 0.3189, 0.0023 -0.0496 0.3189, 0.0005 -0.0553 0.3189, -0.0018 -0.059 0.3189, -0.0046 -0.0618 0.3189, -0.008 -0.064 0.3189, -0.0121 -0.0654 0.3189, -0.0174 -0.0659 0.3189, -0.0217 -0.0655 0.3189, -0.0258 -0.0641 0.3189, -0.0293 -0.0619 0.3189, -0.0325 -0.0586 0.3189, -0.035 -0.0544 0.3189, -0.0367 -0.049 0.3189, -0.0884 -0.0694 0.315, -0.0884 -0.0607 0.315, -0.0884 -0.0694 0.3189, -0.0884 -0.0607 0.3189, -0.0727 -0.0659 0.315, -0.0727 -0.0659 0.3189, -0.0771 -0.0655 0.3189, -0.0771 -0.0655 0.315, -0.0841 -0.0634 0.3189, -0.0841 -0.0634 0.315, -0.0604 -0.0571 0.315, -0.0604 -0.0571 0.3189, -0.0606 -0.0595 0.3189, -0.0606 -0.0595 0.315, -0.0613 -0.0613 0.3189, -0.0613 -0.0613 0.315, -0.0621 -0.0625 0.3189, -0.0621 -0.0625 0.315, -0.0633 -0.0636 0.3189, -0.0633 -0.0636 0.315, -0.0654 -0.0648 0.3189, -0.0654 -0.0648 0.315, -0.0684 -0.0656 0.3189, -0.0684 -0.0656 0.315, -0.074 -0.0445 0.315, -0.074 -0.0445 0.3189, -0.066 -0.0488 0.3189, -0.066 -0.0488 0.315, -0.0652 -0.0493 0.3189, -0.0652 -0.0493 0.315, -0.0627 -0.0514 0.3189, -0.0627 -0.0514 0.315, -0.0613 -0.0534 0.3189, -0.0613 -0.0534 0.315, -0.0606 -0.055 0.3189, -0.0606 -0.055 0.315, -0.0884 -0.0278 0.315, -0.0884 -0.0278 0.3189, -0.0881 -0.031 0.3189, -0.0881 -0.031 0.315, -0.087 -0.0341 0.3189, -0.087 -0.0341 0.315, -0.0854 -0.0367 0.3189, -0.0854 -0.0367 0.315, -0.0827 -0.0392 0.3189, -0.0827 -0.0392 0.315, -0.0676 -0.0119 0.315, -0.0676 -0.0119 0.3189, -0.0741 -0.0126 0.315, -0.0712 -0.0123 0.3189, -0.0741 -0.0126 0.3189, -0.079 -0.0142 0.3189, -0.079 -0.0142 0.315, -0.0824 -0.0161 0.3189, -0.0824 -0.0161 0.315, -0.0849 -0.0183 0.3189, -0.0849 -0.0183 0.315, -0.0868 -0.0209 0.3189, -0.0868 -0.0209 0.315, -0.0879 -0.0237 0.3189, -0.0879 -0.0237 0.315, -0.061 -0.0122 0.315, -0.0546 -0.0135 0.315, -0.0546 -0.0135 0.3189, -0.0606 -0.0123 0.3189, -0.061 -0.0122 0.3189, -0.0546 -0.0222 0.315, -0.0546 -0.0222 0.3189, -0.0682 -0.0184 0.315, -0.0682 -0.0184 0.3189, -0.0641 -0.0187 0.3189, -0.0641 -0.0187 0.315, -0.0591 -0.0199 0.3189, -0.0591 -0.0199 0.315, -0.0805 -0.027 0.315, -0.0805 -0.027 0.3189, -0.0803 -0.0252 0.3189, -0.0803 -0.0252 0.315, -0.0798 -0.0237 0.3189, -0.0798 -0.0237 0.315, -0.079 -0.0223 0.3189, -0.079 -0.0223 0.315, -0.0776 -0.0211 0.3189, -0.0776 -0.0211 0.315, -0.0755 -0.0198 0.3189, -0.0755 -0.0198 0.315, -0.0723 -0.0188 0.3189, -0.0723 -0.0188 0.315, -0.068 -0.039 0.315, -0.068 -0.039 0.3189, -0.0735 -0.0361 0.3189, -0.0735 -0.0361 0.315, -0.0768 -0.0339 0.3189, -0.0768 -0.0339 0.315, -0.0786 -0.0323 0.3189, -0.0786 -0.0323 0.315, -0.0796 -0.0309 0.3189, -0.0796 -0.0309 0.315, -0.0803 -0.0292 0.3189, -0.0803 -0.0292 0.315, -0.0524 -0.0565 0.315, -0.0524 -0.0565 0.3189, -0.0528 -0.0531 0.3189, -0.0528 -0.0531 0.315, -0.0539 -0.0502 0.3189, -0.0539 -0.0502 0.315, -0.0559 -0.0472 0.3189, -0.0559 -0.0472 0.315, -0.0593 -0.0441 0.3189, -0.0593 -0.0441 0.315, -0.0736 -0.0724 0.3189, -0.0686 -0.0721 0.3189, -0.0736 -0.0724 0.315, -0.0675 -0.072 0.315, -0.0675 -0.072 0.3189, -0.0617 -0.0704 0.3189, -0.0617 -0.0704 0.315, -0.0584 -0.0685 0.3189, -0.0584 -0.0685 0.315, -0.0559 -0.0664 0.3189, -0.0559 -0.0664 0.315, -0.054 -0.0636 0.3189, -0.054 -0.0636 0.315, -0.0529 -0.0606 0.3189, -0.0529 -0.0606 0.315, -0.0865 -0.0703 0.3189, -0.0865 -0.0703 0.315, -0.0812 -0.0716 0.3189, -0.0812 -0.0716 0.315, -0.0771 -0.0721 0.3189
            ]
        }
        coordIndex [
            0,1,2,-1,2,1,3,-1,1,4,3,-1,3,4,5,-1,4,6,5,-1,5,6,7,-1,6,0,7,-1,7,0,2,-1,6,4,0,-1,0,4,1,-1,8,9,10,-1,10,9,11,-1,9,12,11,-1,11,12,13,-1,12,14,13,-1,13,14,15,-1,16,17,18,-1,16,18,19,-1,19,18,15,-1,19,15,14,-1,16,20,17,-1,17,20,21,-1,22,23,24,-1,22,24,25,-1,25,24,21,-1,25,21,20,-1,22,26,23,-1,23,26,27,-1,26,28,27,-1,27,28,29,-1,28,30,29,-1,29,30,31,-1,30,32,31,-1,31,32,33,-1,32,34,33,-1,33,34,35,-1,36,37,38,-1,36,38,39,-1,39,38,35,-1,39,35,34,-1,36,40,37,-1,37,40,41,-1,42,43,44,-1,42,44,45,-1,45,44,41,-1,45,41,40,-1,42,46,43,-1,43,46,47,-1,46,8,47,-1,47,8,10,-1,8,46,9,-1,9,46,42,-1,28,26,30,-1,30,26,22,-1,22,25,30,-1,30,25,20,-1,30,20,32,-1,32,20,16,-1,42,45,9,-1,9,45,40,-1,9,40,12,-1,12,40,36,-1,36,39,12,-1,12,39,34,-1,12,34,14,-1,14,34,32,-1,14,32,19,-1,19,32,16,-1,48,49,50,-1,48,50,51,-1,51,50,52,-1,51,52,53,-1,53,52,54,-1,53,54,55,-1,55,54,56,-1,55,56,57,-1,57,56,58,-1,57,58,59,-1,59,58,60,-1,59,60,61,-1,61,60,62,-1,62,60,63,-1,62,63,64,-1,65,66,67,-1,67,66,68,-1,66,69,68,-1,68,69,70,-1,68,70,71,-1,71,70,72,-1,71,72,73,-1,73,72,74,-1,73,74,75,-1,75,74,76,-1,75,76,77,-1,77,76,78,-1,77,78,79,-1,79,78,49,-1,79,49,48,-1,80,81,82,-1,80,82,83,-1,83,82,84,-1,83,84,85,-1,85,84,86,-1,85,86,87,-1,87,86,88,-1,87,88,89,-1,89,88,90,-1,89,90,91,-1,91,90,92,-1,91,92,93,-1,93,92,67,-1,67,92,94,-1,67,94,65,-1,62,64,95,-1,95,64,96,-1,96,97,95,-1,95,97,98,-1,95,98,99,-1,99,98,100,-1,99,100,101,-1,101,100,102,-1,101,102,103,-1,103,102,104,-1,103,104,105,-1,105,104,106,-1,105,106,107,-1,107,106,81,-1,107,81,80,-1,108,48,109,-1,109,48,51,-1,109,51,110,-1,110,51,53,-1,110,53,111,-1,111,53,55,-1,111,55,112,-1,112,55,57,-1,112,57,113,-1,113,57,59,-1,113,59,114,-1,114,59,61,-1,114,61,115,-1,115,61,62,-1,115,62,116,-1,116,62,95,-1,116,95,117,-1,117,95,99,-1,117,99,118,-1,118,99,101,-1,118,101,119,-1,119,101,103,-1,119,103,120,-1,120,103,105,-1,120,105,121,-1,121,105,107,-1,121,107,122,-1,122,107,80,-1,122,80,123,-1,123,80,83,-1,123,83,124,-1,124,83,85,-1,124,85,125,-1,125,85,87,-1,125,87,126,-1,126,87,89,-1,126,89,127,-1,127,89,91,-1,127,91,128,-1,128,91,93,-1,128,93,129,-1,129,93,67,-1,129,67,130,-1,130,67,68,-1,130,68,131,-1,131,68,71,-1,131,71,132,-1,132,71,73,-1,132,73,133,-1,133,73,75,-1,133,75,134,-1,134,75,77,-1,134,77,135,-1,135,77,79,-1,135,79,108,-1,108,79,48,-1,108,136,137,-1,108,137,135,-1,135,137,138,-1,135,138,134,-1,134,138,139,-1,134,139,133,-1,133,139,140,-1,133,140,132,-1,132,140,141,-1,132,141,131,-1,131,141,142,-1,131,142,130,-1,130,142,143,-1,130,143,129,-1,129,143,144,-1,129,144,128,-1,128,144,145,-1,128,145,127,-1,127,145,146,-1,127,146,126,-1,126,146,147,-1,126,147,125,-1,125,147,148,-1,125,148,124,-1,124,148,149,-1,124,149,123,-1,123,149,150,-1,123,150,122,-1,122,150,151,-1,122,151,121,-1,121,151,152,-1,121,152,120,-1,120,152,153,-1,120,153,119,-1,119,153,154,-1,119,154,118,-1,118,154,155,-1,118,155,117,-1,117,155,156,-1,117,156,116,-1,116,156,157,-1,116,157,115,-1,115,157,158,-1,115,158,114,-1,114,158,159,-1,114,159,113,-1,113,159,160,-1,113,160,112,-1,112,160,161,-1,112,161,111,-1,111,161,162,-1,111,162,110,-1,110,162,163,-1,110,163,109,-1,109,163,136,-1,109,136,108,-1,164,165,166,-1,166,165,167,-1,168,169,170,-1,168,170,171,-1,171,170,172,-1,171,172,173,-1,173,172,167,-1,173,167,165,-1,174,175,176,-1,174,176,177,-1,177,176,178,-1,177,178,179,-1,179,178,180,-1,179,180,181,-1,181,180,182,-1,181,182,183,-1,183,182,184,-1,183,184,185,-1,185,184,186,-1,185,186,187,-1,187,186,169,-1,187,169,168,-1,188,189,190,-1,188,190,191,-1,191,190,192,-1,191,192,193,-1,193,192,194,-1,193,194,195,-1,195,194,196,-1,195,196,197,-1,197,196,198,-1,197,198,199,-1,199,198,175,-1,199,175,174,-1,200,201,202,-1,200,202,203,-1,203,202,204,-1,203,204,205,-1,205,204,206,-1,205,206,207,-1,207,206,208,-1,207,208,209,-1,209,208,189,-1,209,189,188,-1,210,211,212,-1,212,211,213,-1,213,214,212,-1,212,214,215,-1,212,215,216,-1,216,215,217,-1,216,217,218,-1,218,217,219,-1,218,219,220,-1,220,219,221,-1,220,221,222,-1,222,221,223,-1,222,223,224,-1,224,223,201,-1,224,201,200,-1,211,210,225,-1,226,227,228,-1,226,228,225,-1,225,228,229,-1,225,229,211,-1,226,230,227,-1,227,230,231,-1,232,233,234,-1,232,234,235,-1,235,234,236,-1,235,236,237,-1,237,236,231,-1,237,231,230,-1,238,239,240,-1,238,240,241,-1,241,240,242,-1,241,242,243,-1,243,242,244,-1,243,244,245,-1,245,244,246,-1,245,246,247,-1,247,246,248,-1,247,248,249,-1,249,248,250,-1,249,250,251,-1,251,250,233,-1,251,233,232,-1,252,253,254,-1,252,254,255,-1,255,254,256,-1,255,256,257,-1,257,256,258,-1,257,258,259,-1,259,258,260,-1,259,260,261,-1,261,260,262,-1,261,262,263,-1,263,262,239,-1,263,239,238,-1,264,265,266,-1,264,266,267,-1,267,266,268,-1,267,268,269,-1,269,268,270,-1,269,270,271,-1,271,270,272,-1,271,272,273,-1,273,272,253,-1,273,253,252,-1,274,275,276,-1,276,275,277,-1,275,278,277,-1,277,278,279,-1,277,279,280,-1,280,279,281,-1,280,281,282,-1,282,281,283,-1,282,283,284,-1,284,283,285,-1,284,285,286,-1,286,285,287,-1,286,287,288,-1,288,287,265,-1,288,265,264,-1,164,166,289,-1,164,289,290,-1,290,289,291,-1,290,291,292,-1,292,291,276,-1,276,291,293,-1,276,293,274,-1,165,164,173,-1,173,164,290,-1,173,290,171,-1,171,290,292,-1,171,292,168,-1,168,292,276,-1,168,276,187,-1,187,276,277,-1,187,277,185,-1,185,277,280,-1,185,280,183,-1,183,280,282,-1,183,282,181,-1,181,282,284,-1,181,284,179,-1,179,284,286,-1,179,286,177,-1,177,286,288,-1,177,288,174,-1,174,288,264,-1,174,264,199,-1,199,264,267,-1,199,267,197,-1,197,267,269,-1,197,269,195,-1,195,269,271,-1,195,271,193,-1,193,271,273,-1,193,273,191,-1,191,273,252,-1,191,252,188,-1,188,252,255,-1,188,255,209,-1,209,255,257,-1,209,257,207,-1,207,257,259,-1,207,259,205,-1,205,259,261,-1,205,261,203,-1,203,261,263,-1,203,263,200,-1,200,263,238,-1,200,238,224,-1,224,238,241,-1,224,241,222,-1,222,241,243,-1,222,243,220,-1,220,243,245,-1,220,245,218,-1,218,245,247,-1,218,247,216,-1,216,247,249,-1,216,249,212,-1,212,249,251,-1,212,251,210,-1,210,251,232,-1,210,232,225,-1,225,232,235,-1,225,235,226,-1,226,235,237,-1,226,237,230,-1,
        ]
    }
}
Shape{
    appearance Appearance {
        material  Material 	{
            diffuseColor 0.2235294117647059 0.2235294117647059 0.2235294117647059
            specularColor 0.11372549019607843 0.11372549019607843 0.11372549019607843
            ambientIntensity 0.2235
            transparency 0.0
            shininess 0.5
        }
    }
    geometry IndexedFaceSet {
        ccw TRUE
        solid FALSE
        coord DEF co Coordinate {
            point [
                0.1439 -0.0252 0.3189, 0.1431 -0.0232 0.3189, 0.1285 -0.0341 0.3189, 0.1437 -0.0309 0.3189, 0.1441 -0.0287 0.3189, 0.1292 -0.0348 0.3189, 0.1419 -0.0214 0.3189, 0.1408 -0.0204 0.3189, 0.1273 -0.0323 0.3189, 0.1265 -0.0303 0.3189, 0.1393 -0.0361 0.3189, 0.141 -0.0348 0.3189, 0.1308 -0.036 0.3189, 0.1442 -0.0277 0.3189, 0.1427 -0.0328 0.3189, 0.1392 -0.0193 0.3189, 0.1264 -0.0256 0.3189, 0.1262 -0.0277 0.3189, 0.1372 -0.0186 0.3189, 0.1351 -0.0184 0.3189, 0.127 -0.0236 0.3189, 0.128 -0.0219 0.3189, 0.1328 -0.0187 0.3189, 0.131 -0.0193 0.3189, 0.1294 -0.0205 0.3189, 0.1327 -0.0368 0.3189, 0.1351 -0.0371 0.3189, 0.1375 -0.0368 0.3189, -0.0373 -0.0422 0.3189, 0.003 -0.0423 0.3189, -0.0371 -0.038 0.3189, 0.0024 -0.0354 0.3189, -0.0046 -0.0618 0.3189, -0.0018 -0.059 0.3189, -0.008 -0.064 0.3189, 0.0005 -0.0553 0.3189, 0.0023 -0.0496 0.3189, -0.0261 -0.0205 0.3189, -0.0222 -0.019 0.3189, -0.0169 -0.0184 0.3189, -0.035 -0.0544 0.3189, -0.0325 -0.0586 0.3189, -0.0217 -0.0655 0.3189, -0.0293 -0.0619 0.3189, -0.0258 -0.0641 0.3189, -0.0367 -0.049 0.3189, -0.0174 -0.0659 0.3189, -0.0121 -0.0654 0.3189, -0.0297 -0.023 0.3189, -0.0331 -0.0268 0.3189, -0.0355 -0.0315 0.3189, 0.0009 -0.03 0.3189, -0.0015 -0.0256 0.3189, -0.0044 -0.0225 0.3189, -0.0077 -0.0204 0.3189, -0.0116 -0.019 0.3189
            ]
        }
        coordIndex [
            0,1,2,-1,3,4,5,-1,1,6,2,-1,2,6,7,-1,2,7,8,-1,8,7,9,-1,10,11,12,-1,5,4,2,-1,2,4,13,-1,2,13,0,-1,12,11,5,-1,5,11,14,-1,5,14,3,-1,15,16,7,-1,7,16,17,-1,7,17,9,-1,15,18,16,-1,16,18,19,-1,16,19,20,-1,20,19,21,-1,22,23,19,-1,19,23,24,-1,19,24,21,-1,25,26,12,-1,12,26,27,-1,12,27,10,-1,28,29,30,-1,30,29,31,-1,32,33,28,-1,32,28,34,-1,33,35,28,-1,28,35,36,-1,28,36,29,-1,37,30,38,-1,38,30,39,-1,40,41,42,-1,42,41,43,-1,42,43,44,-1,40,42,45,-1,45,42,46,-1,45,46,28,-1,28,46,47,-1,28,47,34,-1,37,48,30,-1,30,48,49,-1,30,49,50,-1,31,51,30,-1,30,51,52,-1,30,52,53,-1,53,54,30,-1,30,54,55,-1,30,55,39,-1,
        ]
    }
}